<svg width="1140" height="896" viewBox="0 0 1140 896" fill="none" xmlns="http://www.w3.org/2000/svg">
<rect width="1139.45" height="895.286" fill="#0C0C31"/>
<path d="M617.809 671.768L633.258 436.103" stroke="#C3FA50" stroke-width="3"/>
<path d="M125 667L617.809 670.553" stroke="#C3FA50" stroke-width="3"/>
<path d="M633.257 440.89L646.875 670.553H718.37L742.418 140.913L766.034 670.553H1076.11" stroke="#C3FA50" stroke-width="3"/>
<path d="M112.88 630.388L124.72 630.388L125.14 628.508L126 628.508L126 634.268L125.14 634.268L124.72 632.388L112.88 632.388L112.46 634.268L111.6 634.268L111.6 628.508L112.46 628.508L112.88 630.388ZM124.8 625.387L116.4 625.387L116.02 626.927L115.2 626.927L115.2 624.047L117.2 623.607L117.2 623.527C116.52 623.127 115.987 622.587 115.6 621.907C115.2 621.227 115 620.501 115 619.727C115 618.621 115.36 617.801 116.08 617.267C116.453 617.001 116.98 616.814 117.66 616.707C118.327 616.587 119.233 616.527 120.38 616.527L124.8 616.527L125.18 614.987L126 614.987L126 619.807L125.18 619.807L124.8 618.467L120.34 618.467C119.473 618.467 118.827 618.494 118.4 618.547C117.973 618.587 117.64 618.667 117.4 618.787C117.08 618.947 116.84 619.181 116.68 619.487C116.507 619.781 116.42 620.134 116.42 620.547C116.42 621.321 116.667 621.987 117.16 622.547C117.653 623.094 118.42 623.394 119.46 623.447L124.8 623.447L125.18 622.107L126 622.107L126 626.927L125.18 626.927L124.8 625.387ZM116.2 614.362L115.48 614.362L115.2 612.422L112.68 612.162L112.44 610.482L115.2 610.482L115.2 607.922L116.2 607.922L116.2 610.482L123.34 610.482C123.793 610.482 124.107 610.475 124.28 610.462C124.44 610.449 124.573 610.422 124.68 610.382C124.773 610.342 124.84 610.269 124.88 610.162C124.907 610.055 124.92 609.882 124.92 609.642L124.92 608.242L125.5 608.242C125.74 608.882 125.913 609.449 126.02 609.942C126.14 610.422 126.2 610.809 126.2 611.102C126.2 611.702 125.953 612.089 125.46 612.262C125.3 612.315 125.093 612.355 124.84 612.382C124.587 612.409 124.213 612.422 123.72 612.422L116.2 612.422L116.2 614.362ZM120.72 597.786L120.72 604.766C121.693 604.766 122.5 604.632 123.14 604.366C123.753 604.099 124.193 603.719 124.46 603.226C124.727 602.732 124.86 602.199 124.86 601.626C124.86 600.999 124.733 600.426 124.48 599.906C124.213 599.386 123.853 598.919 123.4 598.506L123.88 597.866C124.52 598.332 125.067 598.899 125.52 599.566C125.973 600.232 126.2 601.092 126.2 602.146C126.2 603.066 126.007 603.879 125.62 604.586C125.22 605.292 124.64 605.832 123.88 606.206C123.467 606.406 123.007 606.552 122.5 606.646C121.993 606.739 121.453 606.786 120.88 606.786C119.013 606.786 117.567 606.359 116.54 605.506C115.513 604.639 115 603.466 115 601.986C115 600.626 115.427 599.579 116.28 598.846C117.12 598.099 118.287 597.726 119.78 597.726C119.913 597.726 120.04 597.732 120.16 597.746C120.267 597.746 120.453 597.759 120.72 597.786ZM116.08 602.106C116.08 603.706 117.3 604.586 119.74 604.746L119.74 599.746L119.08 599.746C118.12 599.746 117.38 599.952 116.86 600.366C116.34 600.766 116.08 601.346 116.08 602.106ZM124.8 594.587L116.4 594.587L116.02 596.127L115.2 596.127L115.2 593.247L117.2 592.807L117.2 592.727C116.52 592.327 115.987 591.787 115.6 591.107C115.2 590.427 115 589.7 115 588.927C115 587.82 115.36 587 116.08 586.467C116.453 586.2 116.98 586.013 117.66 585.907C118.327 585.787 119.233 585.727 120.38 585.727L124.8 585.727L125.18 584.187L126 584.187L126 589.007L125.18 589.007L124.8 587.667L120.34 587.667C119.473 587.667 118.827 587.693 118.4 587.747C117.973 587.787 117.64 587.867 117.4 587.987C117.08 588.147 116.84 588.38 116.68 588.687C116.507 588.98 116.42 589.333 116.42 589.747C116.42 590.52 116.667 591.187 117.16 591.747C117.653 592.293 118.42 592.593 119.46 592.647L124.8 592.647L125.18 591.307L126 591.307L126 596.127L125.18 596.127L124.8 594.587ZM125.28 578.861C125.28 578.115 125.127 577.508 124.82 577.041C124.513 576.561 124.087 576.321 123.54 576.321C123.1 576.321 122.747 576.468 122.48 576.761C122.213 577.055 122 577.421 121.84 577.861C121.667 578.288 121.52 578.721 121.4 579.161C121.227 579.708 121.027 580.235 120.8 580.741C120.56 581.248 120.233 581.661 119.82 581.981C119.407 582.301 118.86 582.461 118.18 582.461C117.22 582.461 116.453 582.115 115.88 581.421C115.293 580.715 115 579.735 115 578.481C115 577.415 115.227 576.575 115.68 575.961C116.12 575.335 116.727 575.021 117.5 575.021C117.913 575.021 118.247 575.115 118.5 575.301C118.74 575.488 118.86 575.755 118.86 576.101C118.86 576.408 118.767 576.661 118.58 576.861C118.393 577.061 118.153 577.161 117.86 577.161C117.607 577.161 117.38 577.095 117.18 576.961C116.967 576.828 116.813 576.655 116.72 576.441C116.44 576.641 116.24 576.901 116.12 577.221C115.987 577.528 115.92 577.928 115.92 578.421C115.92 579.221 116.067 579.821 116.36 580.221C116.64 580.621 117.06 580.821 117.62 580.821C118.02 580.821 118.34 580.728 118.58 580.541C118.807 580.341 119 580.055 119.16 579.681C119.32 579.308 119.487 578.848 119.66 578.301C119.793 577.848 119.947 577.401 120.12 576.961C120.28 576.521 120.48 576.121 120.72 575.761C120.96 575.401 121.26 575.115 121.62 574.901C121.98 574.688 122.427 574.581 122.96 574.581C123.64 574.581 124.227 574.768 124.72 575.141C125.2 575.515 125.567 576.028 125.82 576.681C126.073 577.335 126.2 578.088 126.2 578.941C126.2 580.115 125.96 581.061 125.48 581.781C125 582.501 124.353 582.861 123.54 582.861C123.113 582.861 122.78 582.768 122.54 582.581C122.287 582.381 122.16 582.101 122.16 581.741C122.16 581.421 122.253 581.155 122.44 580.941C122.627 580.715 122.873 580.601 123.18 580.601C123.433 580.601 123.673 580.675 123.9 580.821C124.127 580.955 124.293 581.121 124.4 581.321C124.653 581.148 124.867 580.841 125.04 580.401C125.2 579.948 125.28 579.435 125.28 578.861ZM116.4 571.423L116.02 572.963L115.2 572.963L115.2 569.483L124.8 569.483L125.18 567.943L126 567.943L126 572.963L125.18 572.963L124.8 571.423L116.4 571.423ZM111.98 571.703C111.593 571.703 111.287 571.589 111.06 571.363C110.833 571.136 110.72 570.836 110.72 570.463C110.72 570.076 110.833 569.769 111.06 569.543C111.287 569.316 111.593 569.203 111.98 569.203C112.353 569.203 112.653 569.316 112.88 569.543C113.107 569.769 113.22 570.076 113.22 570.463C113.22 570.849 113.113 571.156 112.9 571.383C112.673 571.596 112.367 571.703 111.98 571.703ZM116.2 567.272L115.48 567.272L115.2 565.332L112.68 565.072L112.44 563.392L115.2 563.392L115.2 560.832L116.2 560.832L116.2 563.392L123.34 563.392C123.793 563.392 124.107 563.385 124.28 563.372C124.44 563.359 124.573 563.332 124.68 563.292C124.773 563.252 124.84 563.179 124.88 563.072C124.907 562.965 124.92 562.792 124.92 562.552L124.92 561.152L125.5 561.152C125.74 561.792 125.913 562.359 126.02 562.852C126.14 563.332 126.2 563.719 126.2 564.012C126.2 564.612 125.953 564.999 125.46 565.172C125.3 565.225 125.093 565.265 124.84 565.292C124.587 565.319 124.213 565.332 123.72 565.332L116.2 565.332L116.2 567.272ZM116.4 550.356L125.52 553.676C126.547 554.049 127.373 554.389 128 554.696C128.64 555.002 129.1 555.342 129.38 555.716C129.66 556.089 129.8 556.569 129.8 557.156C129.8 557.782 129.633 558.322 129.3 558.776C128.967 559.216 128.547 559.436 128.04 559.436C127.667 559.436 127.353 559.329 127.1 559.116C126.86 558.902 126.74 558.622 126.74 558.276C126.74 557.969 126.82 557.729 126.98 557.556C127.153 557.369 127.387 557.276 127.68 557.276C127.867 557.276 128.047 557.316 128.22 557.396C128.393 557.462 128.547 557.556 128.68 557.676C128.813 557.649 128.9 557.569 128.94 557.436C128.993 557.302 129.02 557.189 129.02 557.096C129.02 556.909 128.973 556.736 128.88 556.576C128.787 556.416 128.587 556.249 128.28 556.076C127.987 555.889 127.52 555.689 126.88 555.476L126.14 555.236L116.4 559.376L116.02 560.576L115.2 560.576L115.2 556.096L116.02 555.936L116.4 557.356L124.24 554.376L124.24 554.296L116.4 551.776L116.02 552.936L115.2 552.936L115.2 549.136L116.02 549.136L116.4 550.356Z" fill="#C3FA50"/>
</svg>
