<svg width="938" height="737" viewBox="0 0 938 737" fill="none" xmlns="http://www.w3.org/2000/svg">
<rect width="938" height="737" fill="#0C0C31"/>
<circle cx="692" cy="357" r="47" fill="#C3FA50"/>
<path d="M336.602 341.328V378.032L341.81 379.334V382H325.194V379.334L330.402 378.032V360.858H309.384V378.032L314.592 379.334V382H297.976V379.334L303.184 378.032V341.328L297.976 340.026V337.36H314.592V340.026L309.384 341.328V357.262H330.402V341.328L325.194 340.026V337.36H341.81V340.026L336.602 341.328Z" fill="white"/>
<path d="M566.002 342.088C563.977 342.088 562.241 342.398 560.794 343.018C559.389 343.638 558.19 344.609 557.198 345.932C555.958 347.544 554.987 349.673 554.284 352.318C553.581 354.922 553.23 357.795 553.23 360.936C553.23 363.871 553.54 366.619 554.16 369.182C554.78 371.745 555.648 373.894 556.764 375.63C557.88 377.366 559.223 378.647 560.794 379.474C562.406 380.259 564.411 380.652 566.808 380.652C574.248 380.652 578.567 377.159 579.766 370.174H583.176C581.316 379.805 575.653 384.62 566.188 384.62C560.484 384.62 555.937 382.967 552.548 379.66C550.523 377.676 548.973 375.175 547.898 372.158C546.823 369.141 546.286 365.793 546.286 362.114C546.286 357.939 546.968 354.157 548.332 350.768C549.696 347.379 551.618 344.671 554.098 342.646C557.239 340.042 561.393 338.74 566.56 338.74C569.123 338.74 571.21 339.071 572.822 339.732C574.434 340.393 576.025 341.571 577.596 343.266L578.836 339.36H582.246V353.062H578.464C577.885 349.425 576.542 346.697 574.434 344.878C572.367 343.018 569.557 342.088 566.002 342.088Z" fill="white"/>
<path d="M463.082 359.184C463.082 362.78 462.524 366.169 461.408 369.352C460.333 372.493 458.825 375.118 456.882 377.226C455.187 379.045 453.141 380.409 450.744 381.318C448.388 382.186 445.66 382.62 442.56 382.62C439.419 382.62 436.649 382.186 434.252 381.318C431.855 380.45 429.85 379.148 428.238 377.412C426.337 375.428 424.869 372.948 423.836 369.972C422.803 366.955 422.286 363.689 422.286 360.176C422.286 356.58 422.823 353.211 423.898 350.07C425.014 346.887 426.543 344.242 428.486 342.134C430.222 340.274 432.227 338.91 434.5 338.042C436.815 337.174 439.543 336.74 442.684 336.74C445.825 336.74 448.574 337.174 450.93 338.042C453.327 338.869 455.373 340.171 457.068 341.948C459.011 343.932 460.499 346.433 461.532 349.45C462.565 352.467 463.082 355.712 463.082 359.184ZM429.416 358.936C429.416 362.367 429.705 365.425 430.284 368.112C430.863 370.757 431.689 372.927 432.764 374.622C433.839 376.151 435.182 377.309 436.794 378.094C438.447 378.838 440.473 379.21 442.87 379.21C447.251 379.21 450.475 377.846 452.542 375.118C453.658 373.589 454.505 371.563 455.084 369.042C455.663 366.479 455.952 363.483 455.952 360.052C455.952 356.621 455.663 353.604 455.084 351C454.505 348.396 453.658 346.288 452.542 344.676C451.467 343.105 450.083 341.948 448.388 341.204C446.735 340.46 444.771 340.088 442.498 340.088C440.307 340.088 438.406 340.439 436.794 341.142C435.223 341.803 433.901 342.816 432.826 344.18C430.553 347.197 429.416 352.116 429.416 358.936Z" fill="white"/>
<line x1="486" y1="359.5" x2="526" y2="359.5" stroke="white" stroke-width="3"/>
<line x1="362" y1="359.5" x2="402" y2="359.5" stroke="white" stroke-width="3"/>
<path d="M708.602 343.328V380.032L713.81 381.334V384H697.194V381.334L702.402 380.032V362.858H681.384V380.032L686.592 381.334V384H669.976V381.334L675.184 380.032V343.328L669.976 342.026V339.36H686.592V342.026L681.384 343.328V359.262H702.402V343.328L697.194 342.026V339.36H713.81V342.026L708.602 343.328Z" fill="#C726AD"/>
<path d="M596.939 360.061C596.354 359.475 596.354 358.525 596.939 357.939L606.485 348.393C607.071 347.808 608.021 347.808 608.607 348.393C609.192 348.979 609.192 349.929 608.607 350.515L600.121 359L608.607 367.485C609.192 368.071 609.192 369.021 608.607 369.607C608.021 370.192 607.071 370.192 606.485 369.607L596.939 360.061ZM650 360.5H598V357.5H650V360.5Z" fill="#C3FA50"/>
<circle cx="568" cy="496" r="47" fill="#C3FA50"/>
<path d="M584.717 480.328V517.032L589.925 518.334V521H573.309V518.334L578.517 517.032V499.858H557.499V517.032L562.707 518.334V521H546.091V518.334L551.299 517.032V480.328L546.091 479.026V476.36H562.707V479.026L557.499 480.328V496.262H578.517V480.328L573.309 479.026V476.36H589.925V479.026L584.717 480.328Z" fill="#C726AD"/>
<path d="M566.939 395.939C567.525 395.354 568.475 395.354 569.061 395.939L578.607 405.485C579.192 406.071 579.192 407.021 578.607 407.607C578.021 408.192 577.071 408.192 576.485 407.607L568 399.121L559.515 407.607C558.929 408.192 557.979 408.192 557.393 407.607C556.808 407.021 556.808 406.071 557.393 405.485L566.939 395.939ZM566.5 449L566.5 397L569.5 397L569.5 449L566.5 449Z" fill="#C3FA50"/>
<circle cx="568" cy="227" r="47" fill="#C3FA50"/>
<path d="M584.602 211.328V248.032L589.81 249.334V252H573.194V249.334L578.402 248.032V230.858H557.384V248.032L562.592 249.334V252H545.976V249.334L551.184 248.032V211.328L545.976 210.026V207.36H562.592V210.026L557.384 211.328V227.262H578.402V211.328L573.194 210.026V207.36H589.81V210.026L584.602 211.328Z" fill="#C726AD"/>
<path d="M566.939 327.061C567.525 327.646 568.475 327.646 569.061 327.061L578.607 317.515C579.192 316.929 579.192 315.979 578.607 315.393C578.021 314.808 577.071 314.808 576.485 315.393L568 323.879L559.515 315.393C558.929 314.808 557.979 314.808 557.393 315.393C556.808 315.979 556.808 316.929 557.393 317.515L566.939 327.061ZM566.5 274L566.5 326L569.5 326L569.5 274L566.5 274Z" fill="#C3FA50"/>
</svg>
