<svg width="938" height="737" viewBox="0 0 938 737" fill="none" xmlns="http://www.w3.org/2000/svg">
<rect width="938" height="737" fill="#0C0C31"/>
<circle cx="312" cy="354" r="47" fill="#C3FA50"/>
<path d="M328.602 338.328V375.032L333.81 376.334V379H317.194V376.334L322.402 375.032V357.858H301.384V375.032L306.592 376.334V379H289.976V376.334L295.184 375.032V338.328L289.976 337.026V334.36H306.592V337.026L301.384 338.328V354.262H322.402V338.328L317.194 337.026V334.36H333.81V337.026L328.602 338.328Z" fill="#5C48FD"/>
<path d="M575.602 204.328V241.032L580.81 242.334V245H564.194V242.334L569.402 241.032V223.858H548.384V241.032L553.592 242.334V245H536.976V242.334L542.184 241.032V204.328L536.976 203.026V200.36H553.592V203.026L548.384 204.328V220.262H569.402V204.328L564.194 203.026V200.36H580.81V203.026L575.602 204.328Z" fill="white"/>
<path d="M701.602 336.328V373.032L706.81 374.334V377H690.194V374.334L695.402 373.032V355.858H674.384V373.032L679.592 374.334V377H662.976V374.334L668.184 373.032V336.328L662.976 335.026V332.36H679.592V335.026L674.384 336.328V352.262H695.402V336.328L690.194 335.026V332.36H706.81V335.026L701.602 336.328Z" fill="white"/>
<path d="M575.602 472.328V509.032L580.81 510.334V513H564.194V510.334L569.402 509.032V491.858H548.384V509.032L553.592 510.334V513H536.976V510.334L542.184 509.032V472.328L536.976 471.026V468.36H553.592V471.026L548.384 472.328V488.262H569.402V472.328L564.194 471.026V468.36H580.81V471.026L575.602 472.328Z" fill="white"/>
<path d="M559.002 337.088C556.977 337.088 555.241 337.398 553.794 338.018C552.389 338.638 551.19 339.609 550.198 340.932C548.958 342.544 547.987 344.673 547.284 347.318C546.581 349.922 546.23 352.795 546.23 355.936C546.23 358.871 546.54 361.619 547.16 364.182C547.78 366.745 548.648 368.894 549.764 370.63C550.88 372.366 552.223 373.647 553.794 374.474C555.406 375.259 557.411 375.652 559.808 375.652C567.248 375.652 571.567 372.159 572.766 365.174H576.176C574.316 374.805 568.653 379.62 559.188 379.62C553.484 379.62 548.937 377.967 545.548 374.66C543.523 372.676 541.973 370.175 540.898 367.158C539.823 364.141 539.286 360.793 539.286 357.114C539.286 352.939 539.968 349.157 541.332 345.768C542.696 342.379 544.618 339.671 547.098 337.646C550.239 335.042 554.393 333.74 559.56 333.74C562.123 333.74 564.21 334.071 565.822 334.732C567.434 335.393 569.025 336.571 570.596 338.266L571.836 334.36H575.246V348.062H571.464C570.885 344.425 569.542 341.697 567.434 339.878C565.367 338.018 562.557 337.088 559.002 337.088Z" fill="white"/>
<path d="M456.082 354.184C456.082 357.78 455.524 361.169 454.408 364.352C453.333 367.493 451.825 370.118 449.882 372.226C448.187 374.045 446.141 375.409 443.744 376.318C441.388 377.186 438.66 377.62 435.56 377.62C432.419 377.62 429.649 377.186 427.252 376.318C424.855 375.45 422.85 374.148 421.238 372.412C419.337 370.428 417.869 367.948 416.836 364.972C415.803 361.955 415.286 358.689 415.286 355.176C415.286 351.58 415.823 348.211 416.898 345.07C418.014 341.887 419.543 339.242 421.486 337.134C423.222 335.274 425.227 333.91 427.5 333.042C429.815 332.174 432.543 331.74 435.684 331.74C438.825 331.74 441.574 332.174 443.93 333.042C446.327 333.869 448.373 335.171 450.068 336.948C452.011 338.932 453.499 341.433 454.532 344.45C455.565 347.467 456.082 350.712 456.082 354.184ZM422.416 353.936C422.416 357.367 422.705 360.425 423.284 363.112C423.863 365.757 424.689 367.927 425.764 369.622C426.839 371.151 428.182 372.309 429.794 373.094C431.447 373.838 433.473 374.21 435.87 374.21C440.251 374.21 443.475 372.846 445.542 370.118C446.658 368.589 447.505 366.563 448.084 364.042C448.663 361.479 448.952 358.483 448.952 355.052C448.952 351.621 448.663 348.604 448.084 346C447.505 343.396 446.658 341.288 445.542 339.676C444.467 338.105 443.083 336.948 441.388 336.204C439.735 335.46 437.771 335.088 435.498 335.088C433.307 335.088 431.406 335.439 429.794 336.142C428.223 336.803 426.901 337.816 425.826 339.18C423.553 342.197 422.416 347.116 422.416 353.936Z" fill="white"/>
<line x1="479" y1="354.5" x2="519" y2="354.5" stroke="white" stroke-width="3"/>
<line x1="603" y1="354.5" x2="643" y2="354.5" stroke="white" stroke-width="3"/>
<line x1="559.5" y1="267" x2="559.5" y2="307" stroke="white" stroke-width="3"/>
<line x1="559.5" y1="401" x2="559.5" y2="441" stroke="white" stroke-width="3"/>
<path d="M403.061 355.061C403.646 354.475 403.646 353.525 403.061 352.939L393.515 343.393C392.929 342.808 391.979 342.808 391.393 343.393C390.808 343.979 390.808 344.929 391.393 345.515L399.879 354L391.393 362.485C390.808 363.071 390.808 364.021 391.393 364.607C391.979 365.192 392.929 365.192 393.515 364.607L403.061 355.061ZM351 355.5H402V352.5H351V355.5Z" fill="#C3FA50"/>
</svg>
