<svg width="1140" height="896" viewBox="0 0 1140 896" fill="none" xmlns="http://www.w3.org/2000/svg">
<rect width="1139.45" height="895.286" fill="#0C0C31"/>
<path d="M126.032 711.855L1086.41 711.856" stroke="white" stroke-width="2"/>
<path d="M617.809 671.768L633.258 436.103" stroke="#C3FA50" stroke-width="3"/>
<path d="M125 667L617.809 670.553" stroke="#C3FA50" stroke-width="3"/>
<path d="M633.257 440.89L646.875 670.553H718.37L742.418 140.913L766.034 670.553H1076.11" stroke="#C3FA50" stroke-width="3"/>
<path d="M112.88 630.388L124.72 630.388L125.14 628.508L126 628.508L126 634.268L125.14 634.268L124.72 632.388L112.88 632.388L112.46 634.268L111.6 634.268L111.6 628.508L112.46 628.508L112.88 630.388ZM124.8 625.387L116.4 625.387L116.02 626.927L115.2 626.927L115.2 624.047L117.2 623.607L117.2 623.527C116.52 623.127 115.987 622.587 115.6 621.907C115.2 621.227 115 620.501 115 619.727C115 618.621 115.36 617.801 116.08 617.267C116.453 617.001 116.98 616.814 117.66 616.707C118.327 616.587 119.233 616.527 120.38 616.527L124.8 616.527L125.18 614.987L126 614.987L126 619.807L125.18 619.807L124.8 618.467L120.34 618.467C119.473 618.467 118.827 618.494 118.4 618.547C117.973 618.587 117.64 618.667 117.4 618.787C117.08 618.947 116.84 619.181 116.68 619.487C116.507 619.781 116.42 620.134 116.42 620.547C116.42 621.321 116.667 621.987 117.16 622.547C117.653 623.094 118.42 623.394 119.46 623.447L124.8 623.447L125.18 622.107L126 622.107L126 626.927L125.18 626.927L124.8 625.387ZM116.2 614.362L115.48 614.362L115.2 612.422L112.68 612.162L112.44 610.482L115.2 610.482L115.2 607.922L116.2 607.922L116.2 610.482L123.34 610.482C123.793 610.482 124.107 610.475 124.28 610.462C124.44 610.449 124.573 610.422 124.68 610.382C124.773 610.342 124.84 610.269 124.88 610.162C124.907 610.055 124.92 609.882 124.92 609.642L124.92 608.242L125.5 608.242C125.74 608.882 125.913 609.449 126.02 609.942C126.14 610.422 126.2 610.809 126.2 611.102C126.2 611.702 125.953 612.089 125.46 612.262C125.3 612.315 125.093 612.355 124.84 612.382C124.587 612.409 124.213 612.422 123.72 612.422L116.2 612.422L116.2 614.362ZM120.72 597.786L120.72 604.766C121.693 604.766 122.5 604.632 123.14 604.366C123.753 604.099 124.193 603.719 124.46 603.226C124.727 602.732 124.86 602.199 124.86 601.626C124.86 600.999 124.733 600.426 124.48 599.906C124.213 599.386 123.853 598.919 123.4 598.506L123.88 597.866C124.52 598.332 125.067 598.899 125.52 599.566C125.973 600.232 126.2 601.092 126.2 602.146C126.2 603.066 126.007 603.879 125.62 604.586C125.22 605.292 124.64 605.832 123.88 606.206C123.467 606.406 123.007 606.552 122.5 606.646C121.993 606.739 121.453 606.786 120.88 606.786C119.013 606.786 117.567 606.359 116.54 605.506C115.513 604.639 115 603.466 115 601.986C115 600.626 115.427 599.579 116.28 598.846C117.12 598.099 118.287 597.726 119.78 597.726C119.913 597.726 120.04 597.732 120.16 597.746C120.267 597.746 120.453 597.759 120.72 597.786ZM116.08 602.106C116.08 603.706 117.3 604.586 119.74 604.746L119.74 599.746L119.08 599.746C118.12 599.746 117.38 599.952 116.86 600.366C116.34 600.766 116.08 601.346 116.08 602.106ZM124.8 594.587L116.4 594.587L116.02 596.127L115.2 596.127L115.2 593.247L117.2 592.807L117.2 592.727C116.52 592.327 115.987 591.787 115.6 591.107C115.2 590.427 115 589.7 115 588.927C115 587.82 115.36 587 116.08 586.467C116.453 586.2 116.98 586.013 117.66 585.907C118.327 585.787 119.233 585.727 120.38 585.727L124.8 585.727L125.18 584.187L126 584.187L126 589.007L125.18 589.007L124.8 587.667L120.34 587.667C119.473 587.667 118.827 587.693 118.4 587.747C117.973 587.787 117.64 587.867 117.4 587.987C117.08 588.147 116.84 588.38 116.68 588.687C116.507 588.98 116.42 589.333 116.42 589.747C116.42 590.52 116.667 591.187 117.16 591.747C117.653 592.293 118.42 592.593 119.46 592.647L124.8 592.647L125.18 591.307L126 591.307L126 596.127L125.18 596.127L124.8 594.587ZM125.28 578.861C125.28 578.115 125.127 577.508 124.82 577.041C124.513 576.561 124.087 576.321 123.54 576.321C123.1 576.321 122.747 576.468 122.48 576.761C122.213 577.055 122 577.421 121.84 577.861C121.667 578.288 121.52 578.721 121.4 579.161C121.227 579.708 121.027 580.235 120.8 580.741C120.56 581.248 120.233 581.661 119.82 581.981C119.407 582.301 118.86 582.461 118.18 582.461C117.22 582.461 116.453 582.115 115.88 581.421C115.293 580.715 115 579.735 115 578.481C115 577.415 115.227 576.575 115.68 575.961C116.12 575.335 116.727 575.021 117.5 575.021C117.913 575.021 118.247 575.115 118.5 575.301C118.74 575.488 118.86 575.755 118.86 576.101C118.86 576.408 118.767 576.661 118.58 576.861C118.393 577.061 118.153 577.161 117.86 577.161C117.607 577.161 117.38 577.095 117.18 576.961C116.967 576.828 116.813 576.655 116.72 576.441C116.44 576.641 116.24 576.901 116.12 577.221C115.987 577.528 115.92 577.928 115.92 578.421C115.92 579.221 116.067 579.821 116.36 580.221C116.64 580.621 117.06 580.821 117.62 580.821C118.02 580.821 118.34 580.728 118.58 580.541C118.807 580.341 119 580.055 119.16 579.681C119.32 579.308 119.487 578.848 119.66 578.301C119.793 577.848 119.947 577.401 120.12 576.961C120.28 576.521 120.48 576.121 120.72 575.761C120.96 575.401 121.26 575.115 121.62 574.901C121.98 574.688 122.427 574.581 122.96 574.581C123.64 574.581 124.227 574.768 124.72 575.141C125.2 575.515 125.567 576.028 125.82 576.681C126.073 577.335 126.2 578.088 126.2 578.941C126.2 580.115 125.96 581.061 125.48 581.781C125 582.501 124.353 582.861 123.54 582.861C123.113 582.861 122.78 582.768 122.54 582.581C122.287 582.381 122.16 582.101 122.16 581.741C122.16 581.421 122.253 581.155 122.44 580.941C122.627 580.715 122.873 580.601 123.18 580.601C123.433 580.601 123.673 580.675 123.9 580.821C124.127 580.955 124.293 581.121 124.4 581.321C124.653 581.148 124.867 580.841 125.04 580.401C125.2 579.948 125.28 579.435 125.28 578.861ZM116.4 571.423L116.02 572.963L115.2 572.963L115.2 569.483L124.8 569.483L125.18 567.943L126 567.943L126 572.963L125.18 572.963L124.8 571.423L116.4 571.423ZM111.98 571.703C111.593 571.703 111.287 571.589 111.06 571.363C110.833 571.136 110.72 570.836 110.72 570.463C110.72 570.076 110.833 569.769 111.06 569.543C111.287 569.316 111.593 569.203 111.98 569.203C112.353 569.203 112.653 569.316 112.88 569.543C113.107 569.769 113.22 570.076 113.22 570.463C113.22 570.849 113.113 571.156 112.9 571.383C112.673 571.596 112.367 571.703 111.98 571.703ZM116.2 567.272L115.48 567.272L115.2 565.332L112.68 565.072L112.44 563.392L115.2 563.392L115.2 560.832L116.2 560.832L116.2 563.392L123.34 563.392C123.793 563.392 124.107 563.385 124.28 563.372C124.44 563.359 124.573 563.332 124.68 563.292C124.773 563.252 124.84 563.179 124.88 563.072C124.907 562.965 124.92 562.792 124.92 562.552L124.92 561.152L125.5 561.152C125.74 561.792 125.913 562.359 126.02 562.852C126.14 563.332 126.2 563.719 126.2 564.012C126.2 564.612 125.953 564.999 125.46 565.172C125.3 565.225 125.093 565.265 124.84 565.292C124.587 565.319 124.213 565.332 123.72 565.332L116.2 565.332L116.2 567.272ZM116.4 550.356L125.52 553.676C126.547 554.049 127.373 554.389 128 554.696C128.64 555.002 129.1 555.342 129.38 555.716C129.66 556.089 129.8 556.569 129.8 557.156C129.8 557.782 129.633 558.322 129.3 558.776C128.967 559.216 128.547 559.436 128.04 559.436C127.667 559.436 127.353 559.329 127.1 559.116C126.86 558.902 126.74 558.622 126.74 558.276C126.74 557.969 126.82 557.729 126.98 557.556C127.153 557.369 127.387 557.276 127.68 557.276C127.867 557.276 128.047 557.316 128.22 557.396C128.393 557.462 128.547 557.556 128.68 557.676C128.813 557.649 128.9 557.569 128.94 557.436C128.993 557.302 129.02 557.189 129.02 557.096C129.02 556.909 128.973 556.736 128.88 556.576C128.787 556.416 128.587 556.249 128.28 556.076C127.987 555.889 127.52 555.689 126.88 555.476L126.14 555.236L116.4 559.376L116.02 560.576L115.2 560.576L115.2 556.096L116.02 555.936L116.4 557.356L124.24 554.376L124.24 554.296L116.4 551.776L116.02 552.936L115.2 552.936L115.2 549.136L116.02 549.136L116.4 550.356Z" fill="#C3FA50"/>
<line x1="609.797" y1="711.855" x2="609.797" y2="736.151" stroke="white" stroke-width="2"/>
<line x1="416.691" y1="711.855" x2="416.691" y2="736.151" stroke="white" stroke-width="2"/>
<line x1="223.584" y1="711.855" x2="223.584" y2="736.151" stroke="white" stroke-width="2"/>
<line x1="125.744" y1="710.641" x2="125.744" y2="734.936" stroke="white" stroke-width="2"/>
<line x1="900.744" y1="711.855" x2="900.744" y2="736.151" stroke="white" stroke-width="2"/>
<line x1="707.638" y1="711.855" x2="707.638" y2="736.151" stroke="white" stroke-width="2"/>
<line x1="514.531" y1="711.855" x2="514.531" y2="736.151" stroke="white" stroke-width="2"/>
<line x1="320.138" y1="711.855" x2="320.138" y2="736.151" stroke="white" stroke-width="2"/>
<line x1="998.584" y1="711.855" x2="998.584" y2="736.151" stroke="white" stroke-width="2"/>
<line x1="1084.84" y1="711.855" x2="1084.84" y2="736.151" stroke="white" stroke-width="2"/>
<line x1="804.191" y1="711.855" x2="804.191" y2="736.151" stroke="white" stroke-width="2"/>
<path d="M211.451 757.325C211.451 758.259 211.671 759.032 212.111 759.645C212.551 760.245 213.258 760.545 214.231 760.545C214.698 760.545 215.204 760.392 215.751 760.085C216.311 759.779 216.838 759.285 217.331 758.605C217.251 757.259 216.938 756.172 216.391 755.345C215.858 754.519 215.071 754.105 214.031 754.105C213.551 754.105 213.111 754.252 212.711 754.545C212.324 754.825 212.018 755.205 211.791 755.685C211.564 756.165 211.451 756.712 211.451 757.325ZM213.531 766.605C212.944 766.605 212.424 766.492 211.971 766.265C211.531 766.039 211.151 765.739 210.831 765.365L211.371 764.765C211.651 765.112 211.978 765.379 212.351 765.565C212.738 765.739 213.138 765.825 213.551 765.825C214.231 765.825 214.858 765.625 215.431 765.225C216.004 764.825 216.464 764.165 216.811 763.245C217.171 762.325 217.351 761.085 217.351 759.525C216.911 760.059 216.411 760.485 215.851 760.805C215.291 761.125 214.711 761.285 214.111 761.285C213.004 761.285 212.138 760.952 211.511 760.285C210.884 759.605 210.571 758.619 210.571 757.325C210.571 756.552 210.731 755.865 211.051 755.265C211.371 754.665 211.798 754.199 212.331 753.865C212.864 753.519 213.444 753.345 214.071 753.345C215.338 753.345 216.344 753.865 217.091 754.905C217.851 755.932 218.231 757.419 218.231 759.365C218.231 761.152 218.011 762.579 217.571 763.645C217.131 764.699 216.551 765.459 215.831 765.925C215.124 766.379 214.358 766.605 213.531 766.605ZM221.481 766.605C221.268 766.605 221.068 766.525 220.881 766.365C220.708 766.205 220.621 765.985 220.621 765.705C220.621 765.412 220.708 765.185 220.881 765.025C221.068 764.865 221.268 764.785 221.481 764.785C221.708 764.785 221.901 764.865 222.061 765.025C222.235 765.185 222.321 765.412 222.321 765.705C222.321 765.985 222.235 766.205 222.061 766.365C221.901 766.525 221.708 766.605 221.481 766.605ZM228.436 766.605C227.223 766.605 226.283 766.025 225.616 764.865C224.95 763.705 224.616 762.059 224.616 759.925C224.616 757.805 224.95 756.179 225.616 755.045C226.283 753.912 227.223 753.345 228.436 753.345C229.663 753.345 230.603 753.912 231.256 755.045C231.923 756.179 232.256 757.805 232.256 759.925C232.256 762.059 231.923 763.705 231.256 764.865C230.603 766.025 229.663 766.605 228.436 766.605ZM228.436 765.845C229.33 765.845 230.036 765.345 230.556 764.345C231.09 763.345 231.356 761.872 231.356 759.925C231.356 757.979 231.09 756.525 230.556 755.565C230.036 754.592 229.33 754.105 228.436 754.105C227.556 754.105 226.85 754.592 226.316 755.565C225.783 756.525 225.516 757.979 225.516 759.925C225.516 761.872 225.783 763.345 226.316 764.345C226.85 765.345 227.556 765.845 228.436 765.845Z" fill="white"/>
<path d="M108.401 766.365V765.585H111.401V754.985H109.121V754.385C109.641 754.292 110.107 754.179 110.521 754.045C110.934 753.912 111.287 753.759 111.581 753.585H112.301V765.585H115.081V766.365H108.401ZM121.071 766.605C119.858 766.605 118.918 766.025 118.251 764.865C117.584 763.705 117.251 762.059 117.251 759.925C117.251 757.805 117.584 756.179 118.251 755.045C118.918 753.912 119.858 753.345 121.071 753.345C122.298 753.345 123.238 753.912 123.891 755.045C124.558 756.179 124.891 757.805 124.891 759.925C124.891 762.059 124.558 763.705 123.891 764.865C123.238 766.025 122.298 766.605 121.071 766.605ZM121.071 765.845C121.964 765.845 122.671 765.345 123.191 764.345C123.724 763.345 123.991 761.872 123.991 759.925C123.991 757.979 123.724 756.525 123.191 755.565C122.671 754.592 121.964 754.105 121.071 754.105C120.191 754.105 119.484 754.592 118.951 755.565C118.418 756.525 118.151 757.979 118.151 759.925C118.151 761.872 118.418 763.345 118.951 764.345C119.484 765.345 120.191 765.845 121.071 765.845ZM128.061 766.605C127.848 766.605 127.648 766.525 127.461 766.365C127.288 766.205 127.201 765.985 127.201 765.705C127.201 765.412 127.288 765.185 127.461 765.025C127.648 764.865 127.848 764.785 128.061 764.785C128.288 764.785 128.481 764.865 128.641 765.025C128.815 765.185 128.901 765.412 128.901 765.705C128.901 765.985 128.815 766.205 128.641 766.365C128.481 766.525 128.288 766.605 128.061 766.605ZM135.016 766.605C133.803 766.605 132.863 766.025 132.196 764.865C131.53 763.705 131.196 762.059 131.196 759.925C131.196 757.805 131.53 756.179 132.196 755.045C132.863 753.912 133.803 753.345 135.016 753.345C136.243 753.345 137.183 753.912 137.836 755.045C138.503 756.179 138.836 757.805 138.836 759.925C138.836 762.059 138.503 763.705 137.836 764.865C137.183 766.025 136.243 766.605 135.016 766.605ZM135.016 765.845C135.91 765.845 136.616 765.345 137.136 764.345C137.67 763.345 137.936 761.872 137.936 759.925C137.936 757.979 137.67 756.525 137.136 755.565C136.616 754.592 135.91 754.105 135.016 754.105C134.136 754.105 133.43 754.592 132.896 755.565C132.363 756.525 132.096 757.979 132.096 759.925C132.096 761.872 132.363 763.345 132.896 764.345C133.43 765.345 134.136 765.845 135.016 765.845Z" fill="white"/>
<path d="M312.411 765.39C311.638 765.39 310.945 765.237 310.331 764.93C309.718 764.624 309.231 764.204 308.871 763.67C308.525 763.137 308.351 762.537 308.351 761.87C308.351 761.297 308.478 760.777 308.731 760.31C308.998 759.844 309.325 759.444 309.711 759.11C310.111 758.764 310.511 758.484 310.911 758.27V758.19C310.445 757.884 310.018 757.49 309.631 757.01C309.258 756.517 309.071 755.93 309.071 755.25C309.071 754.637 309.218 754.097 309.511 753.63C309.818 753.164 310.225 752.797 310.731 752.53C311.238 752.264 311.798 752.13 312.411 752.13C313.505 752.13 314.351 752.45 314.951 753.09C315.565 753.717 315.871 754.51 315.871 755.47C315.871 755.937 315.771 756.384 315.571 756.81C315.371 757.224 315.131 757.597 314.851 757.93C314.571 758.25 314.305 758.51 314.051 758.71V758.79C314.425 759.017 314.778 759.277 315.111 759.57C315.458 759.85 315.738 760.19 315.951 760.59C316.178 760.99 316.291 761.477 316.291 762.05C316.291 762.664 316.125 763.224 315.791 763.73C315.471 764.237 315.018 764.644 314.431 764.95C313.858 765.244 313.185 765.39 312.411 765.39ZM313.351 758.45C313.898 758.01 314.311 757.544 314.591 757.05C314.885 756.557 315.031 756.037 315.031 755.49C315.031 754.784 314.798 754.17 314.331 753.65C313.878 753.13 313.238 752.87 312.411 752.87C311.705 752.87 311.118 753.097 310.651 753.55C310.185 753.99 309.951 754.557 309.951 755.25C309.951 755.85 310.118 756.35 310.451 756.75C310.785 757.137 311.211 757.464 311.731 757.73C312.251 757.984 312.791 758.224 313.351 758.45ZM312.411 764.65C313.318 764.65 314.038 764.397 314.571 763.89C315.118 763.384 315.391 762.764 315.391 762.03C315.391 761.377 315.205 760.85 314.831 760.45C314.458 760.037 313.971 759.69 313.371 759.41C312.785 759.13 312.158 758.864 311.491 758.61C310.838 758.984 310.298 759.437 309.871 759.97C309.445 760.504 309.231 761.124 309.231 761.83C309.231 762.364 309.365 762.844 309.631 763.27C309.911 763.684 310.291 764.017 310.771 764.27C311.251 764.524 311.798 764.65 312.411 764.65ZM319.322 765.39C319.108 765.39 318.908 765.31 318.722 765.15C318.548 764.99 318.462 764.77 318.462 764.49C318.462 764.197 318.548 763.97 318.722 763.81C318.908 763.65 319.108 763.57 319.322 763.57C319.548 763.57 319.742 763.65 319.902 763.81C320.075 763.97 320.162 764.197 320.162 764.49C320.162 764.77 320.075 764.99 319.902 765.15C319.742 765.31 319.548 765.39 319.322 765.39ZM326.277 765.39C325.063 765.39 324.123 764.81 323.457 763.65C322.79 762.49 322.457 760.844 322.457 758.71C322.457 756.59 322.79 754.964 323.457 753.83C324.123 752.697 325.063 752.13 326.277 752.13C327.503 752.13 328.443 752.697 329.097 753.83C329.763 754.964 330.097 756.59 330.097 758.71C330.097 760.844 329.763 762.49 329.097 763.65C328.443 764.81 327.503 765.39 326.277 765.39ZM326.277 764.63C327.17 764.63 327.877 764.13 328.397 763.13C328.93 762.13 329.197 760.657 329.197 758.71C329.197 756.764 328.93 755.31 328.397 754.35C327.877 753.377 327.17 752.89 326.277 752.89C325.397 752.89 324.69 753.377 324.157 754.35C323.623 755.31 323.357 756.764 323.357 758.71C323.357 760.657 323.623 762.13 324.157 763.13C324.69 764.13 325.397 764.63 326.277 764.63Z" fill="white"/>
<path d="M409.152 765.15C409.219 763.43 409.392 761.89 409.672 760.53C409.952 759.17 410.365 757.904 410.912 756.73C411.459 755.544 412.159 754.35 413.012 753.15H406.272V752.37H414.132V752.89C413.372 753.904 412.739 754.884 412.232 755.83C411.739 756.764 411.345 757.71 411.052 758.67C410.759 759.63 410.539 760.637 410.392 761.69C410.259 762.744 410.165 763.897 410.112 765.15H409.152ZM417.162 765.39C416.949 765.39 416.749 765.31 416.562 765.15C416.389 764.99 416.302 764.77 416.302 764.49C416.302 764.197 416.389 763.97 416.562 763.81C416.749 763.65 416.949 763.57 417.162 763.57C417.389 763.57 417.582 763.65 417.742 763.81C417.916 763.97 418.002 764.197 418.002 764.49C418.002 764.77 417.916 764.99 417.742 765.15C417.582 765.31 417.389 765.39 417.162 765.39ZM424.117 765.39C422.904 765.39 421.964 764.81 421.297 763.65C420.631 762.49 420.297 760.844 420.297 758.71C420.297 756.59 420.631 754.964 421.297 753.83C421.964 752.697 422.904 752.13 424.117 752.13C425.344 752.13 426.284 752.697 426.937 753.83C427.604 754.964 427.937 756.59 427.937 758.71C427.937 760.844 427.604 762.49 426.937 763.65C426.284 764.81 425.344 765.39 424.117 765.39ZM424.117 764.63C425.011 764.63 425.717 764.13 426.237 763.13C426.771 762.13 427.037 760.657 427.037 758.71C427.037 756.764 426.771 755.31 426.237 754.35C425.717 753.377 425.011 752.89 424.117 752.89C423.237 752.89 422.531 753.377 421.997 754.35C421.464 755.31 421.197 756.764 421.197 758.71C421.197 760.657 421.464 762.13 421.997 763.13C422.531 764.13 423.237 764.63 424.117 764.63Z" fill="white"/>
<path d="M505.718 758.19C505.264 758.19 504.764 758.337 504.218 758.63C503.671 758.91 503.138 759.404 502.618 760.11C502.698 761.457 503.004 762.55 503.538 763.39C504.071 764.217 504.858 764.63 505.898 764.63C506.391 764.63 506.831 764.49 507.218 764.21C507.604 763.917 507.911 763.53 508.138 763.05C508.364 762.557 508.478 762.004 508.478 761.39C508.478 760.47 508.258 759.71 507.818 759.11C507.391 758.497 506.691 758.19 505.718 758.19ZM505.878 765.39C504.598 765.39 503.578 764.87 502.818 763.83C502.071 762.777 501.698 761.284 501.698 759.35C501.698 758.004 501.824 756.87 502.078 755.95C502.331 755.03 502.678 754.29 503.118 753.73C503.558 753.17 504.058 752.764 504.618 752.51C505.191 752.257 505.784 752.13 506.398 752.13C506.998 752.13 507.511 752.244 507.938 752.47C508.378 752.697 508.764 752.997 509.098 753.37L508.558 753.97C508.278 753.624 507.951 753.364 507.578 753.19C507.204 753.004 506.811 752.91 506.398 752.91C505.718 752.91 505.084 753.11 504.498 753.51C503.924 753.91 503.464 754.57 503.118 755.49C502.771 756.41 502.598 757.65 502.598 759.21C503.038 758.664 503.538 758.23 504.098 757.91C504.658 757.59 505.231 757.43 505.818 757.43C506.938 757.43 507.811 757.77 508.438 758.45C509.064 759.117 509.378 760.097 509.378 761.39C509.378 762.164 509.218 762.85 508.898 763.45C508.578 764.05 508.151 764.524 507.618 764.87C507.098 765.217 506.518 765.39 505.878 765.39ZM512.428 765.39C512.215 765.39 512.015 765.31 511.828 765.15C511.655 764.99 511.568 764.77 511.568 764.49C511.568 764.197 511.655 763.97 511.828 763.81C512.015 763.65 512.215 763.57 512.428 763.57C512.655 763.57 512.848 763.65 513.008 763.81C513.181 763.97 513.268 764.197 513.268 764.49C513.268 764.77 513.181 764.99 513.008 765.15C512.848 765.31 512.655 765.39 512.428 765.39ZM519.383 765.39C518.17 765.39 517.23 764.81 516.563 763.65C515.896 762.49 515.563 760.844 515.563 758.71C515.563 756.59 515.896 754.964 516.563 753.83C517.23 752.697 518.17 752.13 519.383 752.13C520.61 752.13 521.55 752.697 522.203 753.83C522.87 754.964 523.203 756.59 523.203 758.71C523.203 760.844 522.87 762.49 522.203 763.65C521.55 764.81 520.61 765.39 519.383 765.39ZM519.383 764.63C520.276 764.63 520.983 764.13 521.503 763.13C522.036 762.13 522.303 760.657 522.303 758.71C522.303 756.764 522.036 755.31 521.503 754.35C520.983 753.377 520.276 752.89 519.383 752.89C518.503 752.89 517.796 753.377 517.263 754.35C516.73 755.31 516.463 756.764 516.463 758.71C516.463 760.657 516.73 762.13 517.263 763.13C517.796 764.13 518.503 764.63 519.383 764.63Z" fill="white"/>
<path d="M600.463 765.39C599.783 765.39 599.19 765.304 598.683 765.13C598.19 764.957 597.763 764.737 597.403 764.47C597.043 764.204 596.723 763.937 596.443 763.67L596.943 763.05C597.33 763.437 597.79 763.797 598.323 764.13C598.87 764.45 599.577 764.61 600.443 764.61C601.017 764.61 601.543 764.47 602.023 764.19C602.503 763.897 602.89 763.49 603.183 762.97C603.477 762.45 603.623 761.85 603.623 761.17C603.623 760.144 603.337 759.337 602.763 758.75C602.203 758.164 601.45 757.87 600.503 757.87C600.01 757.87 599.583 757.95 599.223 758.11C598.877 758.257 598.51 758.464 598.123 758.73L597.503 758.35L597.963 752.37H603.863V753.15H598.763L598.363 757.77C598.697 757.57 599.043 757.41 599.403 757.29C599.763 757.157 600.177 757.09 600.643 757.09C601.363 757.09 602.017 757.237 602.603 757.53C603.203 757.81 603.677 758.25 604.023 758.85C604.37 759.437 604.543 760.197 604.543 761.13C604.543 762.037 604.343 762.81 603.943 763.45C603.557 764.077 603.05 764.557 602.423 764.89C601.81 765.224 601.157 765.39 600.463 765.39ZM607.694 765.39C607.48 765.39 607.28 765.31 607.094 765.15C606.92 764.99 606.834 764.77 606.834 764.49C606.834 764.197 606.92 763.97 607.094 763.81C607.28 763.65 607.48 763.57 607.694 763.57C607.92 763.57 608.114 763.65 608.274 763.81C608.447 763.97 608.534 764.197 608.534 764.49C608.534 764.77 608.447 764.99 608.274 765.15C608.114 765.31 607.92 765.39 607.694 765.39ZM614.649 765.39C613.435 765.39 612.495 764.81 611.829 763.65C611.162 762.49 610.829 760.844 610.829 758.71C610.829 756.59 611.162 754.964 611.829 753.83C612.495 752.697 613.435 752.13 614.649 752.13C615.875 752.13 616.815 752.697 617.469 753.83C618.135 754.964 618.469 756.59 618.469 758.71C618.469 760.844 618.135 762.49 617.469 763.65C616.815 764.81 615.875 765.39 614.649 765.39ZM614.649 764.63C615.542 764.63 616.249 764.13 616.769 763.13C617.302 762.13 617.569 760.657 617.569 758.71C617.569 756.764 617.302 755.31 616.769 754.35C616.249 753.377 615.542 752.89 614.649 752.89C613.769 752.89 613.062 753.377 612.529 754.35C611.995 755.31 611.729 756.764 611.729 758.71C611.729 760.657 611.995 762.13 612.529 763.13C613.062 764.13 613.769 764.63 614.649 764.63Z" fill="white"/>
<path d="M695.164 760.57H699.964V755.89C699.964 755.597 699.971 755.23 699.984 754.79C700.011 754.35 700.031 753.984 700.044 753.69H699.964C699.804 753.957 699.637 754.217 699.464 754.47C699.291 754.724 699.111 754.997 698.924 755.29L695.164 760.57ZM699.964 765.15V761.33H694.084V760.81L700.024 752.37H700.824V760.57H702.724V761.33H700.824V765.15H699.964ZM705.534 765.39C705.321 765.39 705.121 765.31 704.934 765.15C704.761 764.99 704.674 764.77 704.674 764.49C704.674 764.197 704.761 763.97 704.934 763.81C705.121 763.65 705.321 763.57 705.534 763.57C705.761 763.57 705.954 763.65 706.114 763.81C706.288 763.97 706.374 764.197 706.374 764.49C706.374 764.77 706.288 764.99 706.114 765.15C705.954 765.31 705.761 765.39 705.534 765.39ZM712.489 765.39C711.276 765.39 710.336 764.81 709.669 763.65C709.003 762.49 708.669 760.844 708.669 758.71C708.669 756.59 709.003 754.964 709.669 753.83C710.336 752.697 711.276 752.13 712.489 752.13C713.716 752.13 714.656 752.697 715.309 753.83C715.976 754.964 716.309 756.59 716.309 758.71C716.309 760.844 715.976 762.49 715.309 763.65C714.656 764.81 713.716 765.39 712.489 765.39ZM712.489 764.63C713.383 764.63 714.089 764.13 714.609 763.13C715.143 762.13 715.409 760.657 715.409 758.71C715.409 756.764 715.143 755.31 714.609 754.35C714.089 753.377 713.383 752.89 712.489 752.89C711.609 752.89 710.903 753.377 710.369 754.35C709.836 755.31 709.569 756.764 709.569 758.71C709.569 760.657 709.836 762.13 710.369 763.13C710.903 764.13 711.609 764.63 712.489 764.63Z" fill="white"/>
<path d="M793.669 765.39C792.989 765.39 792.396 765.304 791.889 765.13C791.383 764.944 790.943 764.71 790.569 764.43C790.209 764.15 789.889 763.87 789.609 763.59L790.129 762.97C790.516 763.384 790.983 763.764 791.529 764.11C792.076 764.444 792.789 764.61 793.669 764.61C794.536 764.61 795.249 764.357 795.809 763.85C796.369 763.33 796.649 762.644 796.649 761.79C796.649 760.91 796.303 760.197 795.609 759.65C794.929 759.104 793.789 758.83 792.189 758.83V758.05C793.176 758.05 793.963 757.93 794.549 757.69C795.136 757.437 795.556 757.097 795.809 756.67C796.063 756.244 796.189 755.777 796.189 755.27C796.189 754.55 795.956 753.977 795.489 753.55C795.023 753.11 794.396 752.89 793.609 752.89C793.023 752.89 792.476 753.03 791.969 753.31C791.476 753.577 791.043 753.904 790.669 754.29L790.149 753.69C790.589 753.264 791.089 752.897 791.649 752.59C792.223 752.284 792.876 752.13 793.609 752.13C794.276 752.13 794.869 752.25 795.389 752.49C795.923 752.73 796.343 753.084 796.649 753.55C796.956 754.004 797.109 754.557 797.109 755.21C797.109 756.05 796.876 756.73 796.409 757.25C795.956 757.757 795.376 758.13 794.669 758.37V758.45C795.203 758.557 795.683 758.764 796.109 759.07C796.549 759.364 796.903 759.737 797.169 760.19C797.436 760.644 797.569 761.17 797.569 761.77C797.569 762.504 797.396 763.144 797.049 763.69C796.703 764.237 796.236 764.657 795.649 764.95C795.063 765.244 794.403 765.39 793.669 765.39ZM800.8 765.39C800.586 765.39 800.386 765.31 800.2 765.15C800.026 764.99 799.94 764.77 799.94 764.49C799.94 764.197 800.026 763.97 800.2 763.81C800.386 763.65 800.586 763.57 800.8 763.57C801.026 763.57 801.22 763.65 801.38 763.81C801.553 763.97 801.64 764.197 801.64 764.49C801.64 764.77 801.553 764.99 801.38 765.15C801.22 765.31 801.026 765.39 800.8 765.39ZM807.755 765.39C806.541 765.39 805.601 764.81 804.935 763.65C804.268 762.49 803.935 760.844 803.935 758.71C803.935 756.59 804.268 754.964 804.935 753.83C805.601 752.697 806.541 752.13 807.755 752.13C808.981 752.13 809.921 752.697 810.575 753.83C811.241 754.964 811.575 756.59 811.575 758.71C811.575 760.844 811.241 762.49 810.575 763.65C809.921 764.81 808.981 765.39 807.755 765.39ZM807.755 764.63C808.648 764.63 809.355 764.13 809.875 763.13C810.408 762.13 810.675 760.657 810.675 758.71C810.675 756.764 810.408 755.31 809.875 754.35C809.355 753.377 808.648 752.89 807.755 752.89C806.875 752.89 806.168 753.377 805.635 754.35C805.101 755.31 804.835 756.764 804.835 758.71C804.835 760.657 805.101 762.13 805.635 763.13C806.168 764.13 806.875 764.63 807.755 764.63Z" fill="white"/>
<path d="M887.691 765.15V764.59C889.091 763.164 890.258 761.93 891.191 760.89C892.124 759.837 892.824 758.897 893.291 758.07C893.758 757.244 893.991 756.464 893.991 755.73C893.991 754.93 893.764 754.257 893.311 753.71C892.871 753.164 892.171 752.89 891.211 752.89C890.638 752.89 890.091 753.05 889.571 753.37C889.064 753.69 888.618 754.09 888.231 754.57L887.651 754.01C888.131 753.477 888.664 753.03 889.251 752.67C889.838 752.31 890.518 752.13 891.291 752.13C892.438 752.13 893.324 752.457 893.951 753.11C894.578 753.764 894.891 754.63 894.891 755.71C894.891 756.55 894.644 757.404 894.151 758.27C893.671 759.137 892.991 760.07 892.111 761.07C891.244 762.07 890.218 763.197 889.031 764.45C889.378 764.424 889.731 764.404 890.091 764.39C890.464 764.364 890.824 764.35 891.171 764.35H895.531V765.15H887.691ZM898.641 765.39C898.428 765.39 898.228 765.31 898.041 765.15C897.868 764.99 897.781 764.77 897.781 764.49C897.781 764.197 897.868 763.97 898.041 763.81C898.228 763.65 898.428 763.57 898.641 763.57C898.868 763.57 899.061 763.65 899.221 763.81C899.395 763.97 899.481 764.197 899.481 764.49C899.481 764.77 899.395 764.99 899.221 765.15C899.061 765.31 898.868 765.39 898.641 765.39ZM905.596 765.39C904.383 765.39 903.443 764.81 902.776 763.65C902.11 762.49 901.776 760.844 901.776 758.71C901.776 756.59 902.11 754.964 902.776 753.83C903.443 752.697 904.383 752.13 905.596 752.13C906.823 752.13 907.763 752.697 908.416 753.83C909.083 754.964 909.416 756.59 909.416 758.71C909.416 760.844 909.083 762.49 908.416 763.65C907.763 764.81 906.823 765.39 905.596 765.39ZM905.596 764.63C906.49 764.63 907.196 764.13 907.716 763.13C908.25 762.13 908.516 760.657 908.516 758.71C908.516 756.764 908.25 755.31 907.716 754.35C907.196 753.377 906.49 752.89 905.596 752.89C904.716 752.89 904.01 753.377 903.476 754.35C902.943 755.31 902.676 756.764 902.676 758.71C902.676 760.657 902.943 762.13 903.476 763.13C904.01 764.13 904.716 764.63 905.596 764.63Z" fill="white"/>
<path d="M991.54 765.15V764.37H994.54V753.77H992.26V753.17C992.78 753.077 993.247 752.964 993.66 752.83C994.074 752.697 994.427 752.544 994.72 752.37H995.44V764.37H998.22V765.15H991.54ZM1001.63 765.39C1001.42 765.39 1001.22 765.31 1001.03 765.15C1000.86 764.99 1000.77 764.77 1000.77 764.49C1000.77 764.197 1000.86 763.97 1001.03 763.81C1001.22 763.65 1001.42 763.57 1001.63 763.57C1001.86 763.57 1002.05 763.65 1002.21 763.81C1002.38 763.97 1002.47 764.197 1002.47 764.49C1002.47 764.77 1002.38 764.99 1002.21 765.15C1002.05 765.31 1001.86 765.39 1001.63 765.39ZM1008.59 765.39C1007.37 765.39 1006.43 764.81 1005.77 763.65C1005.1 762.49 1004.77 760.844 1004.77 758.71C1004.77 756.59 1005.1 754.964 1005.77 753.83C1006.43 752.697 1007.37 752.13 1008.59 752.13C1009.81 752.13 1010.75 752.697 1011.41 753.83C1012.07 754.964 1012.41 756.59 1012.41 758.71C1012.41 760.844 1012.07 762.49 1011.41 763.65C1010.75 764.81 1009.81 765.39 1008.59 765.39ZM1008.59 764.63C1009.48 764.63 1010.19 764.13 1010.71 763.13C1011.24 762.13 1011.51 760.657 1011.51 758.71C1011.51 756.764 1011.24 755.31 1010.71 754.35C1010.19 753.377 1009.48 752.89 1008.59 752.89C1007.71 752.89 1007 753.377 1006.47 754.35C1005.93 755.31 1005.67 756.764 1005.67 758.71C1005.67 760.657 1005.93 762.13 1006.47 763.13C1007 764.13 1007.71 764.63 1008.59 764.63Z" fill="white"/>
<path d="M1086.04 765.39C1084.83 765.39 1083.89 764.81 1083.22 763.65C1082.56 762.49 1082.22 760.844 1082.22 758.71C1082.22 756.59 1082.56 754.964 1083.22 753.83C1083.89 752.697 1084.83 752.13 1086.04 752.13C1087.27 752.13 1088.21 752.697 1088.86 753.83C1089.53 754.964 1089.86 756.59 1089.86 758.71C1089.86 760.844 1089.53 762.49 1088.86 763.65C1088.21 764.81 1087.27 765.39 1086.04 765.39ZM1086.04 764.63C1086.94 764.63 1087.64 764.13 1088.16 763.13C1088.7 762.13 1088.96 760.657 1088.96 758.71C1088.96 756.764 1088.7 755.31 1088.16 754.35C1087.64 753.377 1086.94 752.89 1086.04 752.89C1085.16 752.89 1084.46 753.377 1083.92 754.35C1083.39 755.31 1083.12 756.764 1083.12 758.71C1083.12 760.657 1083.39 762.13 1083.92 763.13C1084.46 764.13 1085.16 764.63 1086.04 764.63Z" fill="white"/>
<path d="M591.111 813.969C591.111 815.356 591.251 816.636 591.531 817.809C591.811 818.983 592.204 820.023 592.711 820.929C593.218 821.823 593.818 822.549 594.511 823.109C595.204 823.669 595.971 824.036 596.811 824.209L597.331 823.109C596.491 822.936 595.751 822.449 595.111 821.649C594.484 820.849 593.998 819.796 593.651 818.489C593.304 817.183 593.131 815.689 593.131 814.009C593.131 812.343 593.311 810.849 593.671 809.529C594.031 808.196 594.531 807.109 595.171 806.269C595.824 805.429 596.578 804.909 597.431 804.709L597.011 803.729C596.131 803.943 595.324 804.349 594.591 804.949C593.871 805.549 593.251 806.303 592.731 807.209C592.211 808.116 591.811 809.143 591.531 810.289C591.251 811.423 591.111 812.649 591.111 813.969ZM601.633 823.429L603.573 823.809V824.629H598.153V823.809L599.693 823.429V811.429L598.153 811.049V810.229H601.033L601.333 811.769C601.759 811.103 602.239 810.649 602.773 810.409C603.319 810.156 603.933 810.029 604.613 810.029C605.293 810.029 605.906 810.129 606.453 810.329C607.013 810.529 607.466 810.849 607.813 811.289C608.213 811.796 608.526 812.409 608.753 813.129C608.993 813.836 609.113 814.603 609.113 815.429C609.113 816.283 608.979 817.089 608.713 817.849C608.459 818.596 608.113 819.223 607.673 819.729C606.926 820.596 605.853 821.029 604.453 821.029C603.879 821.029 603.359 820.923 602.893 820.709C602.439 820.483 602.019 820.096 601.633 819.549V823.429ZM601.613 815.449C601.613 816.236 601.673 816.923 601.793 817.509C601.913 818.096 602.086 818.569 602.313 818.929C602.526 819.263 602.786 819.523 603.093 819.709C603.413 819.896 603.819 819.989 604.313 819.989C604.766 819.989 605.159 819.909 605.493 819.749C605.839 819.576 606.119 819.343 606.333 819.049C606.573 818.716 606.746 818.249 606.853 817.649C606.959 817.049 607.013 816.363 607.013 815.589C607.013 814.803 606.953 814.123 606.833 813.549C606.713 812.976 606.539 812.503 606.313 812.129C606.099 811.783 605.833 811.523 605.513 811.349C605.206 811.163 604.799 811.069 604.293 811.069C603.839 811.069 603.439 811.149 603.093 811.309C602.759 811.456 602.499 811.683 602.313 811.989C602.099 812.349 601.926 812.823 601.793 813.409C601.673 813.983 601.613 814.663 601.613 815.449ZM614.016 823.429L615.956 823.809V824.629H610.536V823.809L612.076 823.429V811.429L610.536 811.049V810.229H613.416L613.716 811.769C614.142 811.103 614.622 810.649 615.156 810.409C615.702 810.156 616.316 810.029 616.996 810.029C617.676 810.029 618.289 810.129 618.836 810.329C619.396 810.529 619.849 810.849 620.196 811.289C620.596 811.796 620.909 812.409 621.136 813.129C621.376 813.836 621.496 814.603 621.496 815.429C621.496 816.283 621.362 817.089 621.096 817.849C620.842 818.596 620.496 819.223 620.056 819.729C619.309 820.596 618.236 821.029 616.836 821.029C616.262 821.029 615.742 820.923 615.276 820.709C614.822 820.483 614.402 820.096 614.016 819.549V823.429ZM613.996 815.449C613.996 816.236 614.056 816.923 614.176 817.509C614.296 818.096 614.469 818.569 614.696 818.929C614.909 819.263 615.169 819.523 615.476 819.709C615.796 819.896 616.202 819.989 616.696 819.989C617.149 819.989 617.542 819.909 617.876 819.749C618.222 819.576 618.502 819.343 618.716 819.049C618.956 818.716 619.129 818.249 619.236 817.649C619.342 817.049 619.396 816.363 619.396 815.589C619.396 814.803 619.336 814.123 619.216 813.549C619.096 812.976 618.922 812.503 618.696 812.129C618.482 811.783 618.216 811.523 617.896 811.349C617.589 811.163 617.182 811.069 616.676 811.069C616.222 811.069 615.822 811.149 615.476 811.309C615.142 811.456 614.882 811.683 614.696 811.989C614.482 812.349 614.309 812.823 614.176 813.409C614.056 813.983 613.996 814.663 613.996 815.449ZM624.678 819.829V811.429L623.138 811.049V810.229H626.018L626.458 812.229H626.538C626.925 811.563 627.438 811.029 628.078 810.629C628.732 810.229 629.425 810.029 630.158 810.029C630.705 810.029 631.192 810.136 631.618 810.349C632.045 810.549 632.358 810.803 632.558 811.109C632.772 811.443 632.945 811.883 633.078 812.429C633.505 811.683 634.058 811.096 634.738 810.669C635.418 810.243 636.145 810.029 636.918 810.029C637.452 810.029 637.932 810.136 638.358 810.349C638.785 810.549 639.112 810.829 639.338 811.189C639.498 811.443 639.625 811.769 639.718 812.169C639.812 812.569 639.878 813.089 639.918 813.729C639.958 814.356 639.978 815.156 639.978 816.129V819.829L641.518 820.209V821.029H636.698V820.209L638.038 819.829V815.369C638.038 814.503 638.012 813.856 637.958 813.429C637.918 813.003 637.838 812.669 637.718 812.429C637.558 812.109 637.332 811.869 637.038 811.709C636.758 811.536 636.425 811.449 636.038 811.449C635.705 811.449 635.378 811.516 635.058 811.649C634.738 811.783 634.452 811.963 634.198 812.189C633.905 812.456 633.685 812.769 633.538 813.129C633.405 813.489 633.325 813.943 633.298 814.489V819.829L634.638 820.209V821.029H630.018V820.209L631.358 819.829V815.369C631.358 814.503 631.332 813.856 631.278 813.429C631.238 813.003 631.158 812.669 631.038 812.429C630.878 812.109 630.652 811.869 630.358 811.709C630.078 811.536 629.745 811.449 629.358 811.449C629.025 811.449 628.698 811.516 628.378 811.649C628.058 811.783 627.772 811.963 627.518 812.189C627.225 812.456 627.005 812.769 626.858 813.129C626.725 813.489 626.645 813.943 626.618 814.489V819.829L627.958 820.209V821.029H623.138V820.209L624.678 819.829ZM647.865 813.969C647.865 812.649 647.725 811.423 647.445 810.289C647.165 809.143 646.765 808.116 646.245 807.209C645.725 806.303 645.098 805.549 644.365 804.949C643.645 804.349 642.845 803.943 641.965 803.729L641.545 804.709C642.411 804.909 643.165 805.429 643.805 806.269C644.445 807.109 644.945 808.196 645.305 809.529C645.665 810.849 645.845 812.343 645.845 814.009C645.845 815.689 645.665 817.183 645.305 818.489C644.958 819.796 644.471 820.849 643.845 821.649C643.218 822.449 642.485 822.936 641.645 823.109L642.165 824.209C643.005 824.036 643.771 823.669 644.465 823.109C645.158 822.549 645.758 821.823 646.265 820.929C646.771 820.023 647.165 818.983 647.445 817.809C647.725 816.636 647.865 815.356 647.865 813.969Z" fill="white"/>
<path d="M573.338 808.102C573.338 807.264 573.667 806.592 574.325 806.085C574.983 805.574 575.895 805.318 577.059 805.318C577.571 805.318 578.028 805.361 578.43 805.446C578.837 805.531 579.261 805.659 579.702 805.83V807.506C579.417 807.392 579.032 807.269 578.544 807.136C578.056 807.004 577.571 806.938 577.088 806.938C576.52 806.938 576.084 807.046 575.781 807.264C575.478 807.477 575.327 807.752 575.327 808.088C575.327 808.259 575.381 808.443 575.49 808.642C575.604 808.841 575.814 809.047 576.122 809.26C576.434 809.473 576.889 809.688 577.486 809.906C578.92 810.418 579.964 811.128 580.618 812.037C581.276 812.946 581.605 814.054 581.605 815.361V815.56C581.605 816.535 581.416 817.413 581.037 818.195C580.663 818.976 580.123 819.594 579.417 820.048C578.717 820.503 577.874 820.73 576.889 820.73C575.885 820.73 575.028 820.503 574.318 820.048C573.613 819.594 573.073 818.976 572.699 818.195C572.329 817.413 572.145 816.535 572.145 815.56V815.361C572.145 814.603 572.289 813.91 572.578 813.28C572.867 812.65 573.253 812.122 573.736 811.696C574.219 811.27 574.749 810.986 575.327 810.844V810.787C574.716 810.545 574.23 810.195 573.871 809.736C573.515 809.277 573.338 808.732 573.338 808.102ZM574.105 815.361V815.56C574.105 816.213 574.202 816.814 574.396 817.364C574.595 817.908 574.898 818.346 575.305 818.678C575.717 819.004 576.245 819.168 576.889 819.168C577.523 819.168 578.044 819.004 578.452 818.678C578.859 818.346 579.159 817.908 579.354 817.364C579.548 816.814 579.645 816.213 579.645 815.56V815.361C579.645 814.83 579.531 814.307 579.304 813.791C579.077 813.27 578.757 812.821 578.345 812.442C577.933 812.058 577.448 811.81 576.889 811.696C576.245 811.696 575.717 811.866 575.305 812.207C574.898 812.544 574.595 812.991 574.396 813.55C574.202 814.104 574.105 814.707 574.105 815.361Z" fill="white"/>
<path d="M144.164 250.963V269.907L146.852 270.579V271.955H138.276V270.579L140.964 269.907V261.043H130.116V269.907L132.804 270.579V271.955H124.228V270.579L126.916 269.907V250.963L124.228 250.291V248.915H132.804V250.291L130.116 250.963V259.187H140.964V250.963L138.276 250.291V248.915H146.852V250.291L144.164 250.963Z" fill="#5C48FD"/>
<path d="M368.897 128.27V147.214L371.585 147.886V149.262H363.009V147.886L365.697 147.214V138.35H354.849V147.214L357.537 147.886V149.262H348.961V147.886L351.649 147.214V128.27L348.961 127.598V126.222H357.537V127.598L354.849 128.27V136.494H365.697V128.27L363.009 127.598V126.222H371.585V127.598L368.897 128.27Z" fill="white"/>
<path d="M481.869 250.963V269.907L484.557 270.579V271.955H475.981V270.579L478.669 269.907V261.043H467.821V269.907L470.509 270.579V271.955H461.933V270.579L464.621 269.907V250.963L461.933 250.291V248.915H470.509V250.291L467.821 250.963V259.187H478.669V250.963L475.981 250.291V248.915H484.557V250.291L481.869 250.963Z" fill="white"/>
<path d="M368.897 377.298V396.242L371.585 396.914V398.29H363.009V396.914L365.697 396.242V387.378H354.849V396.242L357.537 396.914V398.29H348.961V396.914L351.649 396.242V377.298L348.961 376.626V375.25H357.537V376.626L354.849 377.298V385.522H365.697V377.298L363.009 376.626V375.25H371.585V376.626L368.897 377.298Z" fill="white"/>
<path d="M359.297 251.536C358.251 251.536 357.355 251.696 356.609 252.016C355.883 252.336 355.265 252.837 354.753 253.52C354.113 254.352 353.611 255.451 353.249 256.816C352.886 258.16 352.705 259.643 352.705 261.264C352.705 262.779 352.865 264.197 353.185 265.52C353.505 266.843 353.953 267.952 354.529 268.848C355.105 269.744 355.798 270.405 356.609 270.832C357.441 271.237 358.475 271.44 359.713 271.44C363.553 271.44 365.782 269.637 366.401 266.032H368.161C367.201 271.003 364.278 273.488 359.393 273.488C356.449 273.488 354.102 272.635 352.353 270.928C351.307 269.904 350.507 268.613 349.953 267.056C349.398 265.499 349.121 263.771 349.121 261.872C349.121 259.717 349.473 257.765 350.177 256.016C350.881 254.267 351.873 252.869 353.153 251.824C354.774 250.48 356.918 249.808 359.585 249.808C360.907 249.808 361.985 249.979 362.817 250.32C363.649 250.661 364.47 251.269 365.281 252.144L365.921 250.128H367.681V257.2H365.729C365.43 255.323 364.737 253.915 363.649 252.976C362.582 252.016 361.131 251.536 359.297 251.536Z" fill="white"/>
<path d="M258.418 260.179C258.418 262.035 258.13 263.784 257.554 265.427C256.999 267.048 256.22 268.403 255.218 269.491C254.343 270.43 253.287 271.134 252.05 271.603C250.834 272.051 249.426 272.275 247.826 272.275C246.204 272.275 244.775 272.051 243.538 271.603C242.3 271.155 241.266 270.483 240.434 269.587C239.452 268.563 238.695 267.283 238.162 265.747C237.628 264.19 237.362 262.504 237.362 260.691C237.362 258.835 237.639 257.096 238.194 255.475C238.77 253.832 239.559 252.467 240.562 251.379C241.458 250.419 242.492 249.715 243.666 249.267C244.86 248.819 246.268 248.595 247.89 248.595C249.511 248.595 250.93 248.819 252.146 249.267C253.383 249.694 254.439 250.366 255.314 251.283C256.316 252.307 257.084 253.598 257.618 255.155C258.151 256.712 258.418 258.387 258.418 260.179ZM241.042 260.051C241.042 261.822 241.191 263.4 241.49 264.787C241.788 266.152 242.215 267.272 242.77 268.147C243.324 268.936 244.018 269.534 244.85 269.939C245.703 270.323 246.748 270.515 247.986 270.515C250.247 270.515 251.911 269.811 252.978 268.403C253.554 267.614 253.991 266.568 254.29 265.267C254.588 263.944 254.738 262.398 254.738 260.627C254.738 258.856 254.588 257.299 254.29 255.955C253.991 254.611 253.554 253.523 252.978 252.691C252.423 251.88 251.708 251.283 250.834 250.899C249.98 250.515 248.967 250.323 247.794 250.323C246.663 250.323 245.682 250.504 244.85 250.867C244.039 251.208 243.356 251.731 242.802 252.435C241.628 253.992 241.042 256.531 241.042 260.051Z" fill="white"/>
<line x1="173.712" y1="263.319" x2="210.155" y2="263.319" stroke="white" stroke-width="3"/>
<line x1="289.115" y1="263.319" x2="327.988" y2="263.319" stroke="white" stroke-width="3"/>
<line x1="406.948" y1="263.319" x2="443.391" y2="263.319" stroke="white" stroke-width="3"/>
<line x1="135.5" y1="304" x2="135.5" y2="493" stroke="#5C48FD" stroke-width="3"/>
<line x1="362.287" y1="179.786" x2="362.287" y2="218.659" stroke="white" stroke-width="3"/>
<line x1="362.287" y1="308.552" x2="362.287" y2="347.424" stroke="white" stroke-width="3"/>
<path d="M596.061 494.061C596.646 493.475 596.646 492.525 596.061 491.939L586.515 482.393C585.929 481.808 584.979 481.808 584.393 482.393C583.808 482.979 583.808 483.929 584.393 484.515L592.879 493L584.393 501.485C583.808 502.071 583.808 503.021 584.393 503.607C584.979 504.192 585.929 504.192 586.515 503.607L596.061 494.061ZM134 494.5H595V491.5H134V494.5Z" fill="#5C48FD"/>
</svg>
