<svg width="1086" height="400" viewBox="0 0 1086 400" fill="none" xmlns="http://www.w3.org/2000/svg">
<path d="M118.936 140V30.464H144.304L172.864 84.896L183.616 109.088H184.288C183.84 103.264 183.224 96.768 182.44 89.6C181.656 82.432 181.264 75.6 181.264 69.104V30.464H204.784V140H179.416L150.856 85.4L140.104 61.544H139.432C139.992 67.592 140.608 74.088 141.28 81.032C142.064 87.976 142.456 94.696 142.456 101.192V140H118.936Z" fill="#FFFCFC"/>
<path d="M273.839 142.016C259.615 142.016 248.751 137.816 241.247 129.416C233.743 121.016 229.991 107.632 229.991 89.264V30.464H254.855V91.784C254.855 102.536 256.479 110.04 259.727 114.296C262.975 118.552 267.679 120.68 273.839 120.68C279.999 120.68 284.759 118.552 288.119 114.296C291.479 110.04 293.159 102.536 293.159 91.784V30.464H317.015V89.264C317.015 107.632 313.319 121.016 305.927 129.416C298.647 137.816 287.951 142.016 273.839 142.016ZM388.085 142.016C378.901 142.016 370.445 139.888 362.717 135.632C354.989 131.376 348.773 125.104 344.069 116.816C339.477 108.416 337.181 98.112 337.181 85.904C337.181 73.808 339.533 63.504 344.237 54.992C349.053 46.368 355.381 39.816 363.221 35.336C371.173 30.744 379.741 28.448 388.925 28.448C395.981 28.448 402.309 29.904 407.909 32.816C413.509 35.616 418.157 38.92 421.853 42.728L408.749 58.52C405.949 55.944 402.981 53.872 399.845 52.304C396.821 50.624 393.349 49.784 389.429 49.784C384.501 49.784 379.965 51.184 375.821 53.984C371.789 56.784 368.541 60.816 366.077 66.08C363.725 71.344 362.549 77.672 362.549 85.064C362.549 96.264 364.957 105 369.773 111.272C374.589 117.544 381.029 120.68 389.093 120.68C393.573 120.68 397.549 119.672 401.021 117.656C404.605 115.64 407.741 113.232 410.429 110.432L423.533 125.888C414.349 136.64 402.533 142.016 388.085 142.016ZM440.17 140V30.464H464.866V119.168H508.21V140H440.17ZM527.124 140V30.464H595.668V51.296H551.82V73.304H589.116V93.968H551.82V119.168H597.348V140H527.124ZM644.867 84.56L642.179 94.64H665.531L663.011 84.56C661.555 79.072 660.043 73.248 658.475 67.088C657.019 60.928 655.563 54.992 654.107 49.28H653.435C652.091 55.104 650.691 61.096 649.235 67.256C647.891 73.304 646.435 79.072 644.867 84.56ZM605.219 140L639.491 30.464H669.227L703.499 140H677.291L670.571 113.96H637.139L630.419 140H605.219ZM715.467 140V30.464H754.947C762.675 30.464 769.731 31.528 776.115 33.656C782.499 35.672 787.595 39.144 791.403 44.072C795.211 49 797.115 55.832 797.115 64.568C797.115 72.632 795.323 79.296 791.739 84.56C788.267 89.712 783.563 93.576 777.627 96.152L802.491 140H774.771L753.771 100.52H740.163V140H715.467ZM740.163 80.864H752.931C759.427 80.864 764.355 79.52 767.715 76.832C771.187 74.032 772.923 69.944 772.923 64.568C772.923 59.192 771.187 55.44 767.715 53.312C764.355 51.184 759.427 50.12 752.931 50.12H740.163V80.864Z" fill="#C3FA50"/>
<path d="M322.936 268.844V159.308H349.984L367.624 208.028C368.744 211.164 369.808 214.468 370.816 217.94C371.824 221.412 372.888 224.828 374.008 228.188H374.68C375.8 224.828 376.808 221.412 377.704 217.94C378.712 214.468 379.776 211.164 380.896 208.028L398.2 159.308H425.08V268.844H402.568V228.692C402.568 225.108 402.736 221.132 403.072 216.764C403.52 212.284 403.968 207.804 404.416 203.324C404.976 198.844 405.424 194.868 405.76 191.396H405.088L396.184 217.436L380.56 259.268H366.952L351.328 217.436L342.592 191.396H341.92C342.368 194.868 342.816 198.844 343.264 203.324C343.712 207.804 344.104 212.284 344.44 216.764C344.888 221.132 345.112 225.108 345.112 228.692V268.844H322.936Z" fill="#FFFCFC"/>
<path d="M476.609 213.404L473.921 223.484H497.273L494.753 213.404C493.297 207.916 491.785 202.092 490.217 195.932C488.761 189.772 487.305 183.836 485.849 178.124H485.177C483.833 183.948 482.433 189.94 480.977 196.1C479.633 202.148 478.177 207.916 476.609 213.404ZM436.961 268.844L471.233 159.308H500.969L535.241 268.844H509.033L502.313 242.804H468.881L462.161 268.844H436.961ZM593.953 270.86C583.985 270.86 574.913 268.732 566.737 264.476C558.673 260.22 552.233 253.948 547.417 245.66C542.713 237.26 540.361 226.956 540.361 214.748C540.361 202.652 542.769 192.348 547.585 183.836C552.513 175.212 559.009 168.66 567.073 164.18C575.137 159.588 584.041 157.292 593.785 157.292C601.737 157.292 608.569 158.748 614.281 161.66C619.993 164.572 624.641 167.876 628.225 171.572L615.289 187.364C612.489 184.9 609.521 182.828 606.385 181.148C603.249 179.468 599.329 178.628 594.625 178.628C586.113 178.628 579.169 181.764 573.793 188.036C568.417 194.308 565.729 202.932 565.729 213.908C565.729 225.108 568.305 233.844 573.457 240.116C578.609 246.388 586.281 249.524 596.473 249.524C598.713 249.524 600.897 249.244 603.025 248.684C605.153 248.124 606.889 247.284 608.233 246.164V227.348H590.089V207.188H630.073V257.588C626.265 261.284 621.169 264.42 614.785 266.996C608.513 269.572 601.569 270.86 593.953 270.86ZM652.702 268.844V159.308H678.07L706.63 213.74L717.382 237.932H718.054C717.606 232.108 716.99 225.612 716.206 218.444C715.422 211.276 715.03 204.444 715.03 197.948V159.308H738.55V268.844H713.182L684.622 214.244L673.87 190.388H673.198C673.758 196.436 674.374 202.932 675.046 209.876C675.83 216.82 676.222 223.54 676.222 230.036V268.844H652.702ZM764.428 268.844V159.308H832.972V180.14H789.124V202.148H826.42V222.812H789.124V248.012H834.652V268.844H764.428ZM877.803 268.844V180.14H847.731V159.308H932.739V180.14H902.667V268.844H877.803ZM949.819 268.844V159.308H974.515V268.844H949.819ZM1046.05 270.86C1036.86 270.86 1028.41 268.732 1020.68 264.476C1012.95 260.22 1006.73 253.948 1002.03 245.66C997.438 237.26 995.142 226.956 995.142 214.748C995.142 202.652 997.494 192.348 1002.2 183.836C1007.01 175.212 1013.34 168.66 1021.18 164.18C1029.13 159.588 1037.7 157.292 1046.89 157.292C1053.94 157.292 1060.27 158.748 1065.87 161.66C1071.47 164.46 1076.12 167.764 1079.81 171.572L1066.71 187.364C1063.91 184.788 1060.94 182.716 1057.81 181.148C1054.78 179.468 1051.31 178.628 1047.39 178.628C1042.46 178.628 1037.93 180.028 1033.78 182.828C1029.75 185.628 1026.5 189.66 1024.04 194.924C1021.69 200.188 1020.51 206.516 1020.51 213.908C1020.51 225.108 1022.92 233.844 1027.73 240.116C1032.55 246.388 1038.99 249.524 1047.05 249.524C1051.53 249.524 1055.51 248.516 1058.98 246.5C1062.57 244.484 1065.7 242.076 1068.39 239.276L1081.49 254.732C1072.31 265.484 1060.49 270.86 1046.05 270.86Z" fill="#C8FE55"/>
<path d="M12.936 397.688V288.151H52.416C60.144 288.151 67.2 289.215 73.584 291.343C79.968 293.359 85.064 296.831 88.872 301.759C92.68 306.687 94.584 313.519 94.584 322.255C94.584 330.319 92.792 336.983 89.208 342.247C85.736 347.399 81.032 351.263 75.096 353.839L99.96 397.688H72.24L51.24 358.207H37.632V397.688H12.936ZM37.632 338.551H50.4C56.896 338.551 61.824 337.207 65.184 334.519C68.656 331.719 70.392 327.631 70.392 322.255C70.392 316.879 68.656 313.127 65.184 310.999C61.824 308.871 56.896 307.807 50.4 307.807H37.632V338.551Z" fill="#FFFCFC"/>
<path d="M115.967 397.688V288.151H184.511V308.984H140.663V330.991H177.959V351.655H140.663V376.855H186.191V397.688H115.967ZM241.438 399.704C234.27 399.704 227.102 398.36 219.934 395.671C212.878 392.983 206.55 389.063 200.95 383.911L215.062 366.943C218.982 370.303 223.35 373.047 228.166 375.175C232.982 377.303 237.63 378.367 242.11 378.367C247.262 378.367 251.07 377.415 253.534 375.512C256.11 373.607 257.398 371.031 257.398 367.783C257.398 364.311 255.942 361.791 253.03 360.223C250.23 358.543 246.422 356.695 241.606 354.679L227.326 348.631C223.63 347.063 220.102 344.991 216.742 342.415C213.382 339.727 210.638 336.423 208.51 332.503C206.382 328.583 205.318 323.991 205.318 318.727C205.318 312.679 206.942 307.191 210.19 302.263C213.55 297.335 218.142 293.415 223.966 290.503C229.902 287.591 236.678 286.135 244.294 286.135C250.566 286.135 256.838 287.367 263.11 289.831C269.382 292.295 274.87 295.879 279.574 300.583L266.974 316.207C263.39 313.407 259.806 311.279 256.222 309.823C252.638 308.255 248.662 307.471 244.294 307.471C240.038 307.471 236.622 308.367 234.046 310.159C231.582 311.839 230.35 314.247 230.35 317.383C230.35 320.743 231.918 323.263 235.054 324.943C238.302 326.623 242.278 328.415 246.982 330.319L261.094 336.031C267.702 338.719 272.966 342.415 276.886 347.119C280.806 351.823 282.766 358.039 282.766 365.767C282.766 371.815 281.142 377.415 277.894 382.567C274.646 387.719 269.942 391.863 263.782 394.999C257.622 398.135 250.174 399.704 241.438 399.704ZM345.878 399.704C336.022 399.704 327.342 397.407 319.838 392.815C312.446 388.223 306.622 381.671 302.366 373.159C298.222 364.535 296.15 354.287 296.15 342.415C296.15 330.431 298.222 320.295 302.366 312.007C306.622 303.607 312.446 297.223 319.838 292.855C327.342 288.375 336.022 286.135 345.878 286.135C355.734 286.135 364.358 288.375 371.75 292.855C379.254 297.223 385.078 303.607 389.222 312.007C393.478 320.407 395.606 330.543 395.606 342.415C395.606 354.287 393.478 364.535 389.222 373.159C385.078 381.671 379.254 388.223 371.75 392.815C364.358 397.407 355.734 399.704 345.878 399.704ZM345.878 378.367C353.382 378.367 359.318 375.119 363.686 368.623C368.054 362.127 370.238 353.391 370.238 342.415C370.238 331.439 368.054 322.871 363.686 316.711C359.318 310.551 353.382 307.471 345.878 307.471C338.374 307.471 332.438 310.551 328.07 316.711C323.702 322.871 321.518 331.439 321.518 342.415C321.518 353.391 323.702 362.127 328.07 368.623C332.438 375.119 338.374 378.367 345.878 378.367ZM416.202 397.688V288.151H441.57L470.13 342.583L480.882 366.775H481.554C481.106 360.951 480.49 354.455 479.706 347.287C478.922 340.119 478.53 333.287 478.53 326.791V288.151H502.05V397.688H476.682L448.122 343.087L437.37 319.231H436.698C437.258 325.279 437.874 331.775 438.546 338.719C439.33 345.663 439.722 352.383 439.722 358.879V397.688H416.202ZM553.632 342.247L550.944 352.327H574.296L571.776 342.247C570.32 336.759 568.808 330.935 567.24 324.775C565.784 318.615 564.328 312.679 562.872 306.967H562.2C560.856 312.791 559.456 318.783 558 324.943C556.656 330.991 555.2 336.759 553.632 342.247ZM513.984 397.688L548.256 288.151H577.992L612.264 397.688H586.056L579.336 371.647H545.904L539.184 397.688H513.984ZM624.233 397.688V288.151H649.601L678.161 342.583L688.913 366.775H689.585C689.137 360.951 688.521 354.455 687.737 347.287C686.953 340.119 686.561 333.287 686.561 326.791V288.151H710.081V397.688H684.713L656.153 343.087L645.401 319.231H644.729C645.289 325.279 645.905 331.775 646.577 338.719C647.361 345.663 647.753 352.383 647.753 358.879V397.688H624.233ZM781.655 399.704C772.471 399.704 764.015 397.575 756.287 393.319C748.559 389.063 742.343 382.791 737.639 374.503C733.047 366.103 730.751 355.799 730.751 343.591C730.751 331.495 733.103 321.191 737.807 312.679C742.623 304.055 748.951 297.503 756.791 293.023C764.743 288.431 773.311 286.135 782.495 286.135C789.551 286.135 795.879 287.591 801.479 290.503C807.079 293.303 811.727 296.607 815.423 300.415L802.319 316.207C799.519 313.631 796.551 311.559 793.415 309.991C790.391 308.311 786.919 307.471 782.999 307.471C778.071 307.471 773.535 308.871 769.391 311.671C765.359 314.471 762.111 318.503 759.647 323.767C757.295 329.031 756.119 335.359 756.119 342.751C756.119 353.951 758.527 362.687 763.343 368.959C768.159 375.231 774.599 378.367 782.663 378.367C787.143 378.367 791.119 377.359 794.591 375.343C798.175 373.327 801.311 370.919 803.999 368.119L817.103 383.575C807.919 394.327 796.103 399.704 781.655 399.704ZM833.741 397.688V288.151H902.285V308.984H858.437V330.991H895.733V351.655H858.437V376.855H903.965V397.688H833.741Z" fill="#C8FE55"/>
</svg>
