<svg width="1122" height="901" viewBox="0 0 1122 901" fill="none" xmlns="http://www.w3.org/2000/svg">
<rect width="1122" height="900" transform="translate(0 0.5)" fill="#0C0C31"/>
<path d="M742.674 505.072C742.674 507.772 742.256 510.317 741.418 512.706C740.611 515.064 739.478 517.035 738.02 518.618C736.748 519.983 735.212 521.007 733.412 521.69C731.643 522.341 729.595 522.667 727.268 522.667C724.909 522.667 722.83 522.341 721.03 521.69C719.231 521.038 717.726 520.06 716.515 518.757C715.088 517.268 713.986 515.406 713.211 513.172C712.435 510.906 712.047 508.455 712.047 505.817C712.047 503.118 712.45 500.589 713.257 498.23C714.095 495.841 715.243 493.855 716.702 492.272C718.005 490.876 719.51 489.852 721.217 489.2C722.954 488.548 725.002 488.223 727.361 488.223C729.719 488.223 731.783 488.548 733.551 489.2C735.351 489.821 736.887 490.798 738.159 492.133C739.618 493.622 740.735 495.499 741.511 497.765C742.287 500.03 742.674 502.466 742.674 505.072ZM717.4 504.886C717.4 507.462 717.617 509.758 718.051 511.775C718.486 513.761 719.106 515.39 719.913 516.663C720.72 517.811 721.729 518.68 722.939 519.269C724.18 519.828 725.701 520.107 727.5 520.107C730.79 520.107 733.21 519.083 734.762 517.035C735.599 515.887 736.236 514.366 736.67 512.473C737.104 510.549 737.322 508.3 737.322 505.724C737.322 503.149 737.104 500.883 736.67 498.928C736.236 496.973 735.599 495.391 734.762 494.181C733.955 493.001 732.915 492.133 731.643 491.574C730.402 491.015 728.928 490.736 727.221 490.736C725.576 490.736 724.149 491 722.939 491.527C721.76 492.024 720.767 492.784 719.96 493.808C718.253 496.074 717.4 499.766 717.4 504.886Z" fill="#FA5050"/>
<path d="M742.674 505.072C742.674 507.772 742.256 510.317 741.418 512.706C740.611 515.064 739.478 517.035 738.02 518.618C736.748 519.983 735.212 521.007 733.412 521.69C731.643 522.341 729.595 522.667 727.268 522.667C724.909 522.667 722.83 522.341 721.03 521.69C719.231 521.038 717.726 520.06 716.515 518.757C715.088 517.268 713.986 515.406 713.211 513.172C712.435 510.906 712.047 508.455 712.047 505.817C712.047 503.118 712.45 500.589 713.257 498.23C714.095 495.841 715.243 493.855 716.702 492.272C718.005 490.876 719.51 489.852 721.217 489.2C722.954 488.548 725.002 488.223 727.361 488.223C729.719 488.223 731.783 488.548 733.551 489.2C735.351 489.821 736.887 490.798 738.159 492.133C739.618 493.622 740.735 495.499 741.511 497.765C742.287 500.03 742.674 502.466 742.674 505.072ZM717.4 504.886C717.4 507.462 717.617 509.758 718.051 511.775C718.486 513.761 719.106 515.39 719.913 516.663C720.72 517.811 721.729 518.68 722.939 519.269C724.18 519.828 725.701 520.107 727.5 520.107C730.79 520.107 733.21 519.083 734.762 517.035C735.599 515.887 736.236 514.366 736.67 512.473C737.104 510.549 737.322 508.3 737.322 505.724C737.322 503.149 737.104 500.883 736.67 498.928C736.236 496.973 735.599 495.391 734.762 494.181C733.955 493.001 732.915 492.133 731.643 491.574C730.402 491.015 728.928 490.736 727.221 490.736C725.576 490.736 724.149 491 722.939 491.527C721.76 492.024 720.767 492.784 719.96 493.808C718.253 496.074 717.4 499.766 717.4 504.886Z" stroke="black"/>
<path d="M889.922 490.977V518.533L893.832 519.51V521.512H881.358V519.51L885.268 518.533V505.639H869.488V518.533L873.398 519.51V521.512H860.924V519.51L864.834 518.533V490.977L860.924 490V487.998H873.398V490L869.488 490.977V502.939H885.268V490.977L881.358 490V487.998H893.832V490L889.922 490.977Z" fill="#FA5050"/>
<path d="M889.922 490.977V518.533L893.832 519.51V521.512H881.358V519.51L885.268 518.533V505.639H869.488V518.533L873.398 519.51V521.512H860.924V519.51L864.834 518.533V490.977L860.924 490V487.998H873.398V490L869.488 490.977V502.939H885.268V490.977L881.358 490V487.998H893.832V490L889.922 490.977Z" stroke="black"/>
<path d="M435.131 490.814C433.571 490.814 432.234 491.054 431.12 491.534C430.037 492.014 429.114 492.766 428.35 493.79C427.395 495.038 426.647 496.686 426.106 498.734C425.564 500.75 425.294 502.973 425.294 505.405C425.294 507.677 425.532 509.805 426.01 511.789C426.488 513.772 427.156 515.436 428.016 516.78C428.875 518.124 429.91 519.116 431.12 519.756C432.361 520.364 433.905 520.668 435.752 520.668C441.482 520.668 444.809 517.964 445.732 512.556H448.359C446.926 520.012 442.565 523.739 435.274 523.739C430.881 523.739 427.379 522.46 424.768 519.9C423.208 518.364 422.015 516.428 421.187 514.092C420.359 511.757 419.945 509.165 419.945 506.317C419.945 503.085 420.471 500.158 421.521 497.534C422.572 494.91 424.052 492.814 425.962 491.246C428.382 489.231 431.581 488.223 435.561 488.223C437.535 488.223 439.142 488.479 440.384 488.991C441.625 489.503 442.851 490.414 444.061 491.726L445.016 488.703H447.642V499.31H444.729C444.284 496.494 443.249 494.382 441.625 492.974C440.034 491.534 437.869 490.814 435.131 490.814Z" fill="#5C48FD"/>
<path d="M435.131 490.814C433.571 490.814 432.234 491.054 431.12 491.534C430.037 492.014 429.114 492.766 428.35 493.79C427.395 495.038 426.647 496.686 426.106 498.734C425.564 500.75 425.294 502.973 425.294 505.405C425.294 507.677 425.532 509.805 426.01 511.789C426.488 513.772 427.156 515.436 428.016 516.78C428.875 518.124 429.91 519.116 431.12 519.756C432.361 520.364 433.905 520.668 435.752 520.668C441.482 520.668 444.809 517.964 445.732 512.556H448.359C446.926 520.012 442.565 523.739 435.274 523.739C430.881 523.739 427.379 522.46 424.768 519.9C423.208 518.364 422.015 516.428 421.187 514.092C420.359 511.757 419.945 509.165 419.945 506.317C419.945 503.085 420.471 500.158 421.521 497.534C422.572 494.91 424.052 492.814 425.962 491.246C428.382 489.231 431.581 488.223 435.561 488.223C437.535 488.223 439.142 488.479 440.384 488.991C441.625 489.503 442.851 490.414 444.061 491.726L445.016 488.703H447.642V499.31H444.729C444.284 496.494 443.249 494.382 441.625 492.974C440.034 491.534 437.869 490.814 435.131 490.814Z" stroke="black"/>
<path d="M580.75 490.814C579.19 490.814 577.853 491.054 576.739 491.534C575.656 492.014 574.733 492.766 573.969 493.79C573.014 495.038 572.266 496.686 571.725 498.734C571.183 500.75 570.913 502.973 570.913 505.405C570.913 507.677 571.152 509.805 571.629 511.789C572.107 513.772 572.775 515.436 573.635 516.78C574.494 518.124 575.529 519.116 576.739 519.756C577.98 520.364 579.524 520.668 581.371 520.668C587.101 520.668 590.428 517.964 591.351 512.556H593.978C592.545 520.012 588.184 523.739 580.893 523.739C576.5 523.739 572.998 522.46 570.388 519.9C568.828 518.364 567.634 516.428 566.806 514.092C565.978 511.757 565.564 509.165 565.564 506.317C565.564 503.085 566.09 500.158 567.14 497.534C568.191 494.91 569.671 492.814 571.581 491.246C574.001 489.231 577.2 488.223 581.18 488.223C583.154 488.223 584.761 488.479 586.003 488.991C587.245 489.503 588.47 490.414 589.68 491.726L590.635 488.703H593.262V499.31H590.349C589.903 496.494 588.868 494.382 587.245 492.974C585.653 491.534 583.488 490.814 580.75 490.814Z" fill="#C726AD"/>
<path d="M580.75 490.814C579.19 490.814 577.853 491.054 576.739 491.534C575.656 492.014 574.733 492.766 573.969 493.79C573.014 495.038 572.266 496.686 571.725 498.734C571.183 500.75 570.913 502.973 570.913 505.405C570.913 507.677 571.152 509.805 571.629 511.789C572.107 513.772 572.775 515.436 573.635 516.78C574.494 518.124 575.529 519.116 576.739 519.756C577.98 520.364 579.524 520.668 581.371 520.668C587.101 520.668 590.428 517.964 591.351 512.556H593.978C592.545 520.012 588.184 523.739 580.893 523.739C576.5 523.739 572.998 522.46 570.388 519.9C568.828 518.364 567.634 516.428 566.806 514.092C565.978 511.757 565.564 509.165 565.564 506.317C565.564 503.085 566.09 500.158 567.14 497.534C568.191 494.91 569.671 492.814 571.581 491.246C574.001 489.231 577.2 488.223 581.18 488.223C583.154 488.223 584.761 488.479 586.003 488.991C587.245 489.503 588.47 490.414 589.68 491.726L590.635 488.703H593.262V499.31H590.349C589.903 496.494 588.868 494.382 587.245 492.974C585.653 491.534 583.488 490.814 580.75 490.814Z" stroke="black"/>
<path d="M297.998 490.977V518.533L301.908 519.51V521.512H289.434V519.51L293.344 518.533V505.639H277.565V518.533L281.474 519.51V521.512H269V519.51L272.91 518.533V490.977L269 490V487.998H281.474V490L277.565 490.977V502.94H293.344V490.977L289.434 490V487.998H301.908V490L297.998 490.977Z" fill="#5C48FD"/>
<path d="M297.998 490.977V518.533L301.908 519.51V521.512H289.434V519.51L293.344 518.533V505.639H277.565V518.533L281.474 519.51V521.512H269V519.51L272.91 518.533V490.977L269 490V487.998H281.474V490L277.565 490.977V502.94H293.344V490.977L289.434 490V487.998H301.908V490L297.998 490.977Z" stroke="black"/>
<path d="M445.391 338.479V352.257V366.035L449.301 367.012V369.013H436.827V367.012L440.736 366.035V353.141H424.957V366.035L428.867 367.012V369.013H416.393V367.012L420.302 366.035V338.479L416.393 337.501V335.5H428.867V337.501L424.957 338.479V350.441H440.736V338.479L436.827 337.501V335.5H449.301V337.501L445.391 338.479Z" fill="#5C48FD"/>
<path d="M445.391 338.479V352.257V366.035L449.301 367.012V369.013H436.827V367.012L440.736 366.035V353.141H424.957V366.035L428.867 367.012V369.013H416.393V367.012L420.302 366.035V338.479L416.393 337.501V335.5H428.867V337.501L424.957 338.479V350.441H440.736V338.479L436.827 337.501V335.5H449.301V337.501L445.391 338.479Z" stroke="black"/>
<path d="M445.391 644.965V658.743V672.521L449.301 673.498V675.5H436.827V673.498L440.736 672.521V659.627H424.957V672.521L428.867 673.498V675.5H416.393V673.498L420.302 672.521V644.965L416.393 643.988V641.986H428.867V643.988L424.957 644.965V656.928H440.736V644.965L436.827 643.988V641.986H449.301V643.988L445.391 644.965Z" fill="#5C48FD"/>
<path d="M445.391 644.965V658.743V672.521L449.301 673.498V675.5H436.827V673.498L440.736 672.521V659.627H424.957V672.521L428.867 673.498V675.5H416.393V673.498L420.302 672.521V644.965L416.393 643.988V641.986H428.867V643.988L424.957 644.965V656.928H440.736V644.965L436.827 643.988V641.986H449.301V643.988L445.391 644.965Z" stroke="black"/>
<path d="M591.012 338.479V352.257V366.035L594.922 367.012V369.013H582.448V367.012L586.358 366.035V353.141H570.578V366.035L574.488 367.012V369.013H562.014V367.012L565.924 366.035V338.479L562.014 337.501V335.5H574.488V337.501L570.578 338.479V350.441H586.358V338.479L582.448 337.501V335.5H594.922V337.501L591.012 338.479Z" fill="#C726AD"/>
<path d="M591.012 338.479V352.257V366.035L594.922 367.012V369.013H582.448V367.012L586.358 366.035V353.141H570.578V366.035L574.488 367.012V369.013H562.014V367.012L565.924 366.035V338.479L562.014 337.501V335.5H574.488V337.501L570.578 338.479V350.441H586.358V338.479L582.448 337.501V335.5H594.922V337.501L591.012 338.479Z" stroke="black"/>
<path d="M591.012 644.965V658.743V672.521L594.922 673.498V675.5H582.448V673.498L586.358 672.521V659.627H570.578V672.521L574.488 673.498V675.5H562.014V673.498L565.924 672.521V644.965L562.014 643.988V641.986H574.488V643.988L570.578 644.965V656.928H586.358V644.965L582.448 643.988V641.986H594.922V643.988L591.012 644.965Z" fill="#C726AD"/>
<path d="M591.012 644.965V658.743V672.521L594.922 673.498V675.5H582.448V673.498L586.358 672.521V659.627H570.578V672.521L574.488 673.498V675.5H562.014V673.498L565.924 672.521V644.965L562.014 643.988V641.986H574.488V643.988L570.578 644.965V656.928H586.358V644.965L582.448 643.988V641.986H594.922V643.988L591.012 644.965Z" stroke="black"/>
<line x1="434.43" y1="599.366" x2="434.43" y2="566.359" stroke="#5C48FD" stroke-width="3"/>
<line x1="580.049" y1="599.366" x2="580.049" y2="566.359" stroke="#C726AD" stroke-width="3"/>
<line x1="432.102" y1="411.861" x2="432.102" y2="445.602" stroke="#5C48FD" stroke-width="3"/>
<line x1="577.721" y1="411.861" x2="577.721" y2="445.602" stroke="#C726AD" stroke-width="3"/>
<line x1="344.527" y1="504.48" x2="377.535" y2="504.48" stroke="#5C48FD" stroke-width="3"/>
<line x1="490.473" y1="504.48" x2="523.48" y2="504.48" stroke="#7E7E7E" stroke-width="3"/>
<line x1="636.42" y1="504.48" x2="669.427" y2="504.48" stroke="#7E7E7E" stroke-width="3"/>
<line x1="785.293" y1="504.48" x2="818.3" y2="504.48" stroke="#FA5050" stroke-width="3"/>
<path d="M94.44 81.74H93.42L93.06 79.7H89.74L89.74 85.3H95.78L96.4 82.04H97.56L97.56 86.5H85.86L85.86 85.64L87.74 85.22L87.74 73.38L85.86 72.96L85.86 72.1H97.12L97.12 76.34H96.08L95.44 73.26H89.74L89.74 78.5H93.06L93.42 76.46H94.44L94.44 81.74ZM98.8714 76.7L98.8714 75.98L100.811 75.7L101.071 73.18L102.751 72.94L102.751 75.7H105.311L105.311 76.7H102.751L102.751 83.84C102.751 84.2933 102.758 84.6067 102.771 84.78C102.785 84.94 102.811 85.0733 102.851 85.18C102.891 85.2733 102.965 85.34 103.071 85.38C103.178 85.4067 103.351 85.42 103.591 85.42H104.991L104.991 86C104.351 86.24 103.785 86.4133 103.291 86.52C102.811 86.64 102.425 86.7 102.131 86.7C101.531 86.7 101.145 86.4533 100.971 85.96C100.918 85.8 100.878 85.5933 100.851 85.34C100.825 85.0867 100.811 84.7133 100.811 84.22L100.811 76.7H98.8714ZM114.468 85.3L114.468 80.84C114.468 79.9733 114.441 79.3267 114.388 78.9C114.348 78.4733 114.268 78.14 114.148 77.9C113.828 77.2467 113.241 76.92 112.388 76.92C112.014 76.92 111.654 76.9867 111.308 77.12C110.961 77.2533 110.654 77.4333 110.388 77.66C110.094 77.9133 109.874 78.22 109.728 78.58C109.594 78.9267 109.514 79.36 109.488 79.88L109.488 85.3L110.828 85.68L110.828 86.5H106.008L106.008 85.68L107.548 85.3L107.548 72.1L106.008 71.72L106.008 70.9H109.488L109.488 77.58C109.888 76.94 110.414 76.4333 111.068 76.06C111.734 75.6867 112.448 75.5 113.208 75.5C113.741 75.5 114.221 75.5933 114.648 75.78C115.074 75.9667 115.414 76.2333 115.668 76.58C115.934 76.9533 116.121 77.48 116.228 78.16C116.348 78.8267 116.408 79.7333 116.408 80.88L116.408 85.3L117.948 85.68L117.948 86.5H113.128L113.128 85.68L114.468 85.3ZM119.139 84.16C119.139 83.12 119.626 82.3 120.599 81.7C121.572 81.1 123.186 80.6333 125.439 80.3C125.386 79.5133 125.312 78.9 125.219 78.46C125.126 78.02 125.006 77.6667 124.859 77.4C124.672 77.0533 124.412 76.8 124.079 76.64C123.746 76.4667 123.386 76.38 122.999 76.38C122.626 76.38 122.286 76.4467 121.979 76.58C121.686 76.7133 121.486 76.8933 121.379 77.12C121.566 77.2533 121.699 77.4267 121.779 77.64C121.872 77.8533 121.919 78.0533 121.919 78.24C121.919 78.5733 121.806 78.84 121.579 79.04C121.366 79.2267 121.099 79.32 120.779 79.32C120.459 79.32 120.192 79.2133 119.979 79C119.779 78.7867 119.679 78.4867 119.679 78.1C119.679 77.54 119.872 77.0667 120.259 76.68C120.646 76.2933 121.132 76 121.719 75.8C122.319 75.6 122.919 75.5 123.519 75.5C124.066 75.5 124.566 75.5867 125.019 75.76C125.486 75.92 125.879 76.16 126.199 76.48C127.026 77.3067 127.439 78.7733 127.439 80.88L127.439 83.78C127.439 84.4333 127.479 84.8867 127.559 85.14C127.652 85.3933 127.846 85.52 128.139 85.52H129.039L129.039 86.12C128.079 86.5067 127.332 86.7 126.799 86.7C126.386 86.7 126.106 86.5533 125.959 86.26C125.826 85.9533 125.759 85.3733 125.759 84.52H125.679C125.266 85.2 124.719 85.7333 124.039 86.12C123.359 86.5067 122.626 86.7 121.839 86.7C120.999 86.7 120.339 86.4733 119.859 86.02C119.379 85.5667 119.139 84.9467 119.139 84.16ZM122.679 85.54C123.052 85.54 123.439 85.4467 123.839 85.26C124.252 85.06 124.599 84.7867 124.879 84.44C125.092 84.1733 125.246 83.86 125.339 83.5C125.446 83.1267 125.499 82.6933 125.499 82.2C125.499 81.9733 125.492 81.7533 125.479 81.54C125.466 81.3133 125.446 81.1 125.419 80.9C124.339 81.1133 123.492 81.3467 122.879 81.6C122.266 81.84 121.832 82.1333 121.579 82.48C121.326 82.8133 121.199 83.2333 121.199 83.74C121.199 84.3133 121.326 84.76 121.579 85.08C121.846 85.3867 122.212 85.54 122.679 85.54ZM131.381 85.3L131.381 76.9L129.841 76.52L129.841 75.7H132.721L133.161 77.7H133.241C133.641 77.02 134.181 76.4867 134.861 76.1C135.541 75.7 136.268 75.5 137.041 75.5C138.148 75.5 138.968 75.86 139.501 76.58C139.768 76.9533 139.954 77.48 140.061 78.16C140.181 78.8267 140.241 79.7333 140.241 80.88L140.241 85.3L141.781 85.68L141.781 86.5L136.961 86.5L136.961 85.68L138.301 85.3L138.301 80.84C138.301 79.9733 138.274 79.3267 138.221 78.9C138.181 78.4733 138.101 78.14 137.981 77.9C137.821 77.58 137.588 77.34 137.281 77.18C136.988 77.0067 136.634 76.92 136.221 76.92C135.448 76.92 134.781 77.1667 134.221 77.66C133.674 78.1533 133.374 78.92 133.321 79.96L133.321 85.3L134.661 85.68L134.661 86.5H129.841L129.841 85.68L131.381 85.3ZM152.947 81C152.947 81.8667 152.813 82.6933 152.547 83.48C152.293 84.2533 151.933 84.8933 151.467 85.4C151.067 85.84 150.573 86.1667 149.987 86.38C149.4 86.5933 148.733 86.7 147.987 86.7C147.253 86.7 146.6 86.6 146.027 86.4C145.453 86.1867 144.967 85.8667 144.567 85.44C144.113 84.9467 143.76 84.34 143.507 83.62C143.267 82.8867 143.147 82.0933 143.147 81.24C143.147 80.3733 143.273 79.5467 143.527 78.76C143.78 77.96 144.147 77.3067 144.627 76.8C145.053 76.3467 145.547 76.02 146.107 75.82C146.68 75.6067 147.333 75.5 148.067 75.5C148.8 75.5 149.46 75.6067 150.047 75.82C150.633 76.02 151.127 76.3333 151.527 76.76C151.993 77.2533 152.347 77.8733 152.587 78.62C152.827 79.3533 152.947 80.1467 152.947 81ZM145.287 81.02C145.287 81.8333 145.347 82.54 145.467 83.14C145.6 83.7267 145.78 84.2133 146.007 84.6C146.233 84.9333 146.5 85.1933 146.807 85.38C147.127 85.5667 147.54 85.66 148.047 85.66C148.967 85.66 149.653 85.3467 150.107 84.72C150.347 84.3733 150.52 83.8933 150.627 83.28C150.747 82.6667 150.807 81.96 150.807 81.16C150.807 80.36 150.74 79.66 150.607 79.06C150.487 78.46 150.313 77.9733 150.087 77.6C149.873 77.2533 149.6 76.9933 149.267 76.82C148.947 76.6333 148.533 76.54 148.027 76.54C147.093 76.54 146.42 76.8467 146.007 77.46C145.527 78.2067 145.287 79.3933 145.287 81.02ZM155.967 85.3L155.967 72.1L154.427 71.72L154.427 70.9H157.907L157.907 85.3L159.447 85.68L159.447 86.5H154.427L154.427 85.68L155.967 85.3Z" fill="white"/>
<path d="M433.163 178.584V195.028V211.473L437.769 212.639V215.028H423.073V212.639L427.679 211.473V196.084H409.09V211.473L413.696 212.639V215.028H399V212.639L403.606 211.473V178.584L399 177.417V175.028H413.696V177.417L409.09 178.584V192.862H427.679V178.584L423.073 177.417V175.028H437.769V177.417L433.163 178.584Z" fill="#5C48FD"/>
<path d="M433.163 178.584V195.028V211.473L437.769 212.639V215.028H423.073V212.639L427.679 211.473V196.084H409.09V211.473L413.696 212.639V215.028H399V212.639L403.606 211.473V178.584L399 177.417V175.028H413.696V177.417L409.09 178.584V192.862H427.679V178.584L423.073 177.417V175.028H437.769V177.417L433.163 178.584Z" stroke="black"/>
<path d="M759.559 178.584V195.028V211.473L764.166 212.639V215.028H749.47V212.639L754.076 211.473V196.084H735.486V211.473L740.093 212.639V215.028H725.396V212.639L730.003 211.473V178.584L725.396 177.417V175.028H740.093V177.417L735.486 178.584V192.862H754.076V178.584L749.47 177.417V175.028H764.166V177.417L759.559 178.584Z" fill="#FA5050"/>
<path d="M759.559 178.584V195.028V211.473L764.166 212.639V215.028H749.47V212.639L754.076 211.473V196.084H735.486V211.473L740.093 212.639V215.028H725.396V212.639L730.003 211.473V178.584L725.396 177.417V175.028H740.093V177.417L735.486 178.584V192.862H754.076V178.584L749.47 177.417V175.028H764.166V177.417L759.559 178.584Z" stroke="black"/>
<path d="M596.594 178.584V195.028V211.473L601.273 212.639V215.028H586.344V212.639L591.023 211.473V196.084H572.139V211.473L576.818 212.639V215.028H561.889V212.639L566.568 211.473V178.584L561.889 177.417V175.028H576.818V177.417L572.139 178.584V192.862H591.023V178.584L586.344 177.417V175.028H601.273V177.417L596.594 178.584Z" fill="#C726AD"/>
<path d="M596.594 178.584V195.028V211.473L601.273 212.639V215.028H586.344V212.639L591.023 211.473V196.084H572.139V211.473L576.818 212.639V215.028H561.889V212.639L566.568 211.473V178.584L561.889 177.417V175.028H576.818V177.417L572.139 178.584V192.862H591.023V178.584L586.344 177.417V175.028H601.273V177.417L596.594 178.584Z" stroke="black"/>
<line x1="482.437" y1="198.196" x2="513.831" y2="198.196" stroke="#C3FA50" stroke-width="3"/>
<line x1="482.437" y1="191.407" x2="513.831" y2="191.407" stroke="#C3FA50" stroke-width="3"/>
<line x1="488.164" y1="207.969" x2="516.164" y2="179.969" stroke="#C3FA50" stroke-width="3"/>
<line x1="645.939" y1="198.196" x2="677.333" y2="198.196" stroke="#C3FA50" stroke-width="3"/>
<line x1="645.939" y1="191.407" x2="677.333" y2="191.407" stroke="#C3FA50" stroke-width="3"/>
<line x1="651.666" y1="207.968" x2="679.666" y2="179.968" stroke="#C3FA50" stroke-width="3"/>
</svg>
