<svg width="1122" height="901" viewBox="0 0 1122 901" fill="none" xmlns="http://www.w3.org/2000/svg">
<rect width="1122" height="900" transform="translate(0 0.5)" fill="#0C0C31"/>
<path d="M144.834 679.834L1024.83 679.834" stroke="white" stroke-width="2"/>
<line x1="588.143" y1="679.696" x2="588.143" y2="701.967" stroke="white" stroke-width="2"/>
<line x1="411.131" y1="679.696" x2="411.131" y2="701.967" stroke="white" stroke-width="2"/>
<line x1="234.117" y1="679.696" x2="234.117" y2="701.967" stroke="white" stroke-width="2"/>
<line x1="144.432" y1="678.582" x2="144.432" y2="700.853" stroke="white" stroke-width="2"/>
<line x1="854.842" y1="679.696" x2="854.842" y2="701.967" stroke="white" stroke-width="2"/>
<line x1="677.828" y1="679.696" x2="677.828" y2="701.967" stroke="white" stroke-width="2"/>
<line x1="500.816" y1="679.696" x2="500.816" y2="701.967" stroke="white" stroke-width="2"/>
<line x1="322.625" y1="679.696" x2="322.625" y2="701.967" stroke="white" stroke-width="2"/>
<line x1="944.527" y1="679.696" x2="944.527" y2="701.967" stroke="white" stroke-width="2"/>
<line x1="1023.59" y1="679.696" x2="1023.59" y2="701.967" stroke="white" stroke-width="2"/>
<line x1="766.336" y1="679.696" x2="766.336" y2="701.967" stroke="white" stroke-width="2"/>
<path d="M223.056 723.04C223.056 723.973 223.276 724.747 223.716 725.36C224.156 725.96 224.863 726.26 225.836 726.26C226.303 726.26 226.81 726.107 227.356 725.8C227.916 725.493 228.443 725 228.936 724.32C228.856 722.973 228.543 721.887 227.996 721.06C227.463 720.233 226.676 719.82 225.636 719.82C225.156 719.82 224.716 719.967 224.316 720.26C223.93 720.54 223.623 720.92 223.396 721.4C223.17 721.88 223.056 722.427 223.056 723.04ZM225.136 732.32C224.55 732.32 224.03 732.207 223.576 731.98C223.136 731.753 222.756 731.453 222.436 731.08L222.976 730.48C223.256 730.827 223.583 731.093 223.956 731.28C224.343 731.453 224.743 731.54 225.156 731.54C225.836 731.54 226.463 731.34 227.036 730.94C227.61 730.54 228.07 729.88 228.416 728.96C228.776 728.04 228.956 726.8 228.956 725.24C228.516 725.773 228.016 726.2 227.456 726.52C226.896 726.84 226.316 727 225.716 727C224.61 727 223.743 726.667 223.116 726C222.49 725.32 222.176 724.333 222.176 723.04C222.176 722.267 222.336 721.58 222.656 720.98C222.976 720.38 223.403 719.913 223.936 719.58C224.47 719.233 225.05 719.06 225.676 719.06C226.943 719.06 227.95 719.58 228.696 720.62C229.456 721.647 229.836 723.133 229.836 725.08C229.836 726.867 229.616 728.293 229.176 729.36C228.736 730.413 228.156 731.173 227.436 731.64C226.73 732.093 225.963 732.32 225.136 732.32ZM233.087 732.32C232.873 732.32 232.673 732.24 232.487 732.08C232.313 731.92 232.227 731.7 232.227 731.42C232.227 731.127 232.313 730.9 232.487 730.74C232.673 730.58 232.873 730.5 233.087 730.5C233.313 730.5 233.507 730.58 233.667 730.74C233.84 730.9 233.927 731.127 233.927 731.42C233.927 731.7 233.84 731.92 233.667 732.08C233.507 732.24 233.313 732.32 233.087 732.32ZM240.042 732.32C238.828 732.32 237.888 731.74 237.222 730.58C236.555 729.42 236.222 727.773 236.222 725.64C236.222 723.52 236.555 721.893 237.222 720.76C237.888 719.627 238.828 719.06 240.042 719.06C241.268 719.06 242.208 719.627 242.862 720.76C243.528 721.893 243.862 723.52 243.862 725.64C243.862 727.773 243.528 729.42 242.862 730.58C242.208 731.74 241.268 732.32 240.042 732.32ZM240.042 731.56C240.935 731.56 241.642 731.06 242.162 730.06C242.695 729.06 242.962 727.587 242.962 725.64C242.962 723.693 242.695 722.24 242.162 721.28C241.642 720.307 240.935 719.82 240.042 719.82C239.162 719.82 238.455 720.307 237.922 721.28C237.388 722.24 237.122 723.693 237.122 725.64C237.122 727.587 237.388 729.06 237.922 730.06C238.455 731.06 239.162 731.56 240.042 731.56Z" fill="white"/>
<path d="M128.59 732.08V731.3H131.59V720.7H129.31V720.1C129.83 720.007 130.297 719.893 130.71 719.76C131.123 719.627 131.477 719.473 131.77 719.3H132.49V731.3H135.27V732.08H128.59ZM141.26 732.32C140.047 732.32 139.107 731.74 138.44 730.58C137.774 729.42 137.44 727.773 137.44 725.64C137.44 723.52 137.774 721.893 138.44 720.76C139.107 719.627 140.047 719.06 141.26 719.06C142.487 719.06 143.427 719.627 144.08 720.76C144.747 721.893 145.08 723.52 145.08 725.64C145.08 727.773 144.747 729.42 144.08 730.58C143.427 731.74 142.487 732.32 141.26 732.32ZM141.26 731.56C142.154 731.56 142.86 731.06 143.38 730.06C143.914 729.06 144.18 727.587 144.18 725.64C144.18 723.693 143.914 722.24 143.38 721.28C142.86 720.307 142.154 719.82 141.26 719.82C140.38 719.82 139.674 720.307 139.14 721.28C138.607 722.24 138.34 723.693 138.34 725.64C138.34 727.587 138.607 729.06 139.14 730.06C139.674 731.06 140.38 731.56 141.26 731.56ZM148.251 732.32C148.037 732.32 147.837 732.24 147.651 732.08C147.477 731.92 147.391 731.7 147.391 731.42C147.391 731.127 147.477 730.9 147.651 730.74C147.837 730.58 148.037 730.5 148.251 730.5C148.477 730.5 148.671 730.58 148.831 730.74C149.004 730.9 149.091 731.127 149.091 731.42C149.091 731.7 149.004 731.92 148.831 732.08C148.671 732.24 148.477 732.32 148.251 732.32ZM155.206 732.32C153.992 732.32 153.052 731.74 152.386 730.58C151.719 729.42 151.386 727.773 151.386 725.64C151.386 723.52 151.719 721.893 152.386 720.76C153.052 719.627 153.992 719.06 155.206 719.06C156.432 719.06 157.372 719.627 158.026 720.76C158.692 721.893 159.026 723.52 159.026 725.64C159.026 727.773 158.692 729.42 158.026 730.58C157.372 731.74 156.432 732.32 155.206 732.32ZM155.206 731.56C156.099 731.56 156.806 731.06 157.326 730.06C157.859 729.06 158.126 727.587 158.126 725.64C158.126 723.693 157.859 722.24 157.326 721.28C156.806 720.307 156.099 719.82 155.206 719.82C154.326 719.82 153.619 720.307 153.086 721.28C152.552 722.24 152.286 723.693 152.286 725.64C152.286 727.587 152.552 729.06 153.086 730.06C153.619 731.06 154.326 731.56 155.206 731.56Z" fill="white"/>
<path d="M315.862 731.207C315.089 731.207 314.395 731.053 313.782 730.747C313.169 730.44 312.682 730.02 312.322 729.487C311.975 728.953 311.802 728.353 311.802 727.687C311.802 727.113 311.929 726.593 312.182 726.127C312.449 725.66 312.775 725.26 313.162 724.927C313.562 724.58 313.962 724.3 314.362 724.087V724.007C313.895 723.7 313.469 723.307 313.082 722.827C312.709 722.333 312.522 721.747 312.522 721.067C312.522 720.453 312.669 719.913 312.962 719.447C313.269 718.98 313.675 718.613 314.182 718.347C314.689 718.08 315.249 717.947 315.862 717.947C316.955 717.947 317.802 718.267 318.402 718.907C319.015 719.533 319.322 720.327 319.322 721.287C319.322 721.753 319.222 722.2 319.022 722.627C318.822 723.04 318.582 723.413 318.302 723.747C318.022 724.067 317.755 724.327 317.502 724.527V724.607C317.875 724.833 318.229 725.093 318.562 725.387C318.909 725.667 319.189 726.007 319.402 726.407C319.629 726.807 319.742 727.293 319.742 727.867C319.742 728.48 319.575 729.04 319.242 729.547C318.922 730.053 318.469 730.46 317.882 730.767C317.309 731.06 316.635 731.207 315.862 731.207ZM316.802 724.267C317.349 723.827 317.762 723.36 318.042 722.867C318.335 722.373 318.482 721.853 318.482 721.307C318.482 720.6 318.249 719.987 317.782 719.467C317.329 718.947 316.689 718.687 315.862 718.687C315.155 718.687 314.569 718.913 314.102 719.367C313.635 719.807 313.402 720.373 313.402 721.067C313.402 721.667 313.569 722.167 313.902 722.567C314.235 722.953 314.662 723.28 315.182 723.547C315.702 723.8 316.242 724.04 316.802 724.267ZM315.862 730.467C316.769 730.467 317.489 730.213 318.022 729.707C318.569 729.2 318.842 728.58 318.842 727.847C318.842 727.193 318.655 726.667 318.282 726.267C317.909 725.853 317.422 725.507 316.822 725.227C316.235 724.947 315.609 724.68 314.942 724.427C314.289 724.8 313.749 725.253 313.322 725.787C312.895 726.32 312.682 726.94 312.682 727.647C312.682 728.18 312.815 728.66 313.082 729.087C313.362 729.5 313.742 729.833 314.222 730.087C314.702 730.34 315.249 730.467 315.862 730.467ZM322.772 731.207C322.559 731.207 322.359 731.127 322.172 730.967C321.999 730.807 321.912 730.587 321.912 730.307C321.912 730.013 321.999 729.787 322.172 729.627C322.359 729.467 322.559 729.387 322.772 729.387C322.999 729.387 323.192 729.467 323.352 729.627C323.526 729.787 323.612 730.013 323.612 730.307C323.612 730.587 323.526 730.807 323.352 730.967C323.192 731.127 322.999 731.207 322.772 731.207ZM329.727 731.207C328.514 731.207 327.574 730.627 326.907 729.467C326.241 728.307 325.907 726.66 325.907 724.527C325.907 722.407 326.241 720.78 326.907 719.647C327.574 718.513 328.514 717.947 329.727 717.947C330.954 717.947 331.894 718.513 332.547 719.647C333.214 720.78 333.547 722.407 333.547 724.527C333.547 726.66 333.214 728.307 332.547 729.467C331.894 730.627 330.954 731.207 329.727 731.207ZM329.727 730.447C330.621 730.447 331.327 729.947 331.847 728.947C332.381 727.947 332.647 726.473 332.647 724.527C332.647 722.58 332.381 721.127 331.847 720.167C331.327 719.193 330.621 718.707 329.727 718.707C328.847 718.707 328.141 719.193 327.607 720.167C327.074 721.127 326.807 722.58 326.807 724.527C326.807 726.473 327.074 727.947 327.607 728.947C328.141 729.947 328.847 730.447 329.727 730.447Z" fill="white"/>
<path d="M404.449 730.967C404.516 729.247 404.689 727.707 404.969 726.347C405.249 724.987 405.663 723.72 406.209 722.547C406.756 721.36 407.456 720.167 408.309 718.967H401.569V718.187H409.429V718.707C408.669 719.72 408.036 720.7 407.529 721.647C407.036 722.58 406.643 723.527 406.349 724.487C406.056 725.447 405.836 726.453 405.689 727.507C405.556 728.56 405.463 729.713 405.409 730.967H404.449ZM412.46 731.207C412.246 731.207 412.046 731.127 411.86 730.967C411.686 730.807 411.6 730.587 411.6 730.307C411.6 730.013 411.686 729.787 411.86 729.627C412.046 729.467 412.246 729.387 412.46 729.387C412.686 729.387 412.88 729.467 413.04 729.627C413.213 729.787 413.3 730.013 413.3 730.307C413.3 730.587 413.213 730.807 413.04 730.967C412.88 731.127 412.686 731.207 412.46 731.207ZM419.415 731.207C418.201 731.207 417.261 730.627 416.595 729.467C415.928 728.307 415.595 726.66 415.595 724.527C415.595 722.407 415.928 720.78 416.595 719.647C417.261 718.513 418.201 717.947 419.415 717.947C420.641 717.947 421.581 718.513 422.235 719.647C422.901 720.78 423.235 722.407 423.235 724.527C423.235 726.66 422.901 728.307 422.235 729.467C421.581 730.627 420.641 731.207 419.415 731.207ZM419.415 730.447C420.308 730.447 421.015 729.947 421.535 728.947C422.068 727.947 422.335 726.473 422.335 724.527C422.335 722.58 422.068 721.127 421.535 720.167C421.015 719.193 420.308 718.707 419.415 718.707C418.535 718.707 417.828 719.193 417.295 720.167C416.761 721.127 416.495 722.58 416.495 724.527C416.495 726.473 416.761 727.947 417.295 728.947C417.828 729.947 418.535 730.447 419.415 730.447Z" fill="white"/>
<path d="M493.076 724.007C492.622 724.007 492.122 724.153 491.576 724.447C491.029 724.727 490.496 725.22 489.976 725.927C490.056 727.273 490.362 728.367 490.896 729.207C491.429 730.033 492.216 730.447 493.256 730.447C493.749 730.447 494.189 730.307 494.576 730.027C494.962 729.733 495.269 729.347 495.496 728.867C495.722 728.373 495.836 727.82 495.836 727.207C495.836 726.287 495.616 725.527 495.176 724.927C494.749 724.313 494.049 724.007 493.076 724.007ZM493.236 731.207C491.956 731.207 490.936 730.687 490.176 729.647C489.429 728.593 489.056 727.1 489.056 725.167C489.056 723.82 489.182 722.687 489.436 721.767C489.689 720.847 490.036 720.107 490.476 719.547C490.916 718.987 491.416 718.58 491.976 718.327C492.549 718.073 493.142 717.947 493.756 717.947C494.356 717.947 494.869 718.06 495.296 718.287C495.736 718.513 496.122 718.813 496.456 719.187L495.916 719.787C495.636 719.44 495.309 719.18 494.936 719.007C494.562 718.82 494.169 718.727 493.756 718.727C493.076 718.727 492.442 718.927 491.856 719.327C491.282 719.727 490.822 720.387 490.476 721.307C490.129 722.227 489.956 723.467 489.956 725.027C490.396 724.48 490.896 724.047 491.456 723.727C492.016 723.407 492.589 723.247 493.176 723.247C494.296 723.247 495.169 723.587 495.796 724.267C496.422 724.933 496.736 725.913 496.736 727.207C496.736 727.98 496.576 728.667 496.256 729.267C495.936 729.867 495.509 730.34 494.976 730.687C494.456 731.033 493.876 731.207 493.236 731.207ZM499.786 731.207C499.573 731.207 499.373 731.127 499.186 730.967C499.013 730.807 498.926 730.587 498.926 730.307C498.926 730.013 499.013 729.787 499.186 729.627C499.373 729.467 499.573 729.387 499.786 729.387C500.013 729.387 500.206 729.467 500.366 729.627C500.539 729.787 500.626 730.013 500.626 730.307C500.626 730.587 500.539 730.807 500.366 730.967C500.206 731.127 500.013 731.207 499.786 731.207ZM506.741 731.207C505.528 731.207 504.588 730.627 503.921 729.467C503.254 728.307 502.921 726.66 502.921 724.527C502.921 722.407 503.254 720.78 503.921 719.647C504.588 718.513 505.528 717.947 506.741 717.947C507.968 717.947 508.908 718.513 509.561 719.647C510.228 720.78 510.561 722.407 510.561 724.527C510.561 726.66 510.228 728.307 509.561 729.467C508.908 730.627 507.968 731.207 506.741 731.207ZM506.741 730.447C507.634 730.447 508.341 729.947 508.861 728.947C509.394 727.947 509.661 726.473 509.661 724.527C509.661 722.58 509.394 721.127 508.861 720.167C508.341 719.193 507.634 718.707 506.741 718.707C505.861 718.707 505.154 719.193 504.621 720.167C504.088 721.127 503.821 722.58 503.821 724.527C503.821 726.473 504.088 727.947 504.621 728.947C505.154 729.947 505.861 730.447 506.741 730.447Z" fill="white"/>
<path d="M579.882 731.207C579.202 731.207 578.608 731.12 578.102 730.947C577.608 730.773 577.182 730.553 576.822 730.287C576.462 730.02 576.142 729.753 575.862 729.487L576.362 728.867C576.748 729.253 577.208 729.613 577.742 729.947C578.288 730.267 578.995 730.427 579.862 730.427C580.435 730.427 580.962 730.287 581.442 730.007C581.922 729.713 582.308 729.307 582.602 728.787C582.895 728.267 583.042 727.667 583.042 726.987C583.042 725.96 582.755 725.153 582.182 724.567C581.622 723.98 580.868 723.687 579.922 723.687C579.428 723.687 579.002 723.767 578.642 723.927C578.295 724.073 577.928 724.28 577.542 724.547L576.922 724.167L577.382 718.187H583.282V718.967H578.182L577.782 723.587C578.115 723.387 578.462 723.227 578.822 723.107C579.182 722.973 579.595 722.907 580.062 722.907C580.782 722.907 581.435 723.053 582.022 723.347C582.622 723.627 583.095 724.067 583.442 724.667C583.788 725.253 583.962 726.013 583.962 726.947C583.962 727.853 583.762 728.627 583.362 729.267C582.975 729.893 582.468 730.373 581.842 730.707C581.228 731.04 580.575 731.207 579.882 731.207ZM587.112 731.207C586.899 731.207 586.699 731.127 586.512 730.967C586.339 730.807 586.252 730.587 586.252 730.307C586.252 730.013 586.339 729.787 586.512 729.627C586.699 729.467 586.899 729.387 587.112 729.387C587.339 729.387 587.532 729.467 587.692 729.627C587.865 729.787 587.952 730.013 587.952 730.307C587.952 730.587 587.865 730.807 587.692 730.967C587.532 731.127 587.339 731.207 587.112 731.207ZM594.067 731.207C592.854 731.207 591.914 730.627 591.247 729.467C590.58 728.307 590.247 726.66 590.247 724.527C590.247 722.407 590.58 720.78 591.247 719.647C591.914 718.513 592.854 717.947 594.067 717.947C595.294 717.947 596.234 718.513 596.887 719.647C597.554 720.78 597.887 722.407 597.887 724.527C597.887 726.66 597.554 728.307 596.887 729.467C596.234 730.627 595.294 731.207 594.067 731.207ZM594.067 730.447C594.96 730.447 595.667 729.947 596.187 728.947C596.72 727.947 596.987 726.473 596.987 724.527C596.987 722.58 596.72 721.127 596.187 720.167C595.667 719.193 594.96 718.707 594.067 718.707C593.187 718.707 592.48 719.193 591.947 720.167C591.414 721.127 591.147 722.58 591.147 724.527C591.147 726.473 591.414 727.947 591.947 728.947C592.48 729.947 593.187 730.447 594.067 730.447Z" fill="white"/>
<path d="M666.427 726.387H671.227V721.707C671.227 721.413 671.234 721.047 671.247 720.607C671.274 720.167 671.294 719.8 671.307 719.507H671.227C671.067 719.773 670.901 720.033 670.727 720.287C670.554 720.54 670.374 720.813 670.187 721.107L666.427 726.387ZM671.227 730.967V727.147H665.347V726.627L671.287 718.187H672.087V726.387H673.987V727.147H672.087V730.967H671.227ZM676.798 731.207C676.584 731.207 676.384 731.127 676.198 730.967C676.024 730.807 675.938 730.587 675.938 730.307C675.938 730.013 676.024 729.787 676.198 729.627C676.384 729.467 676.584 729.387 676.798 729.387C677.024 729.387 677.218 729.467 677.378 729.627C677.551 729.787 677.638 730.013 677.638 730.307C677.638 730.587 677.551 730.807 677.378 730.967C677.218 731.127 677.024 731.207 676.798 731.207ZM683.753 731.207C682.539 731.207 681.599 730.627 680.933 729.467C680.266 728.307 679.933 726.66 679.933 724.527C679.933 722.407 680.266 720.78 680.933 719.647C681.599 718.513 682.539 717.947 683.753 717.947C684.979 717.947 685.919 718.513 686.573 719.647C687.239 720.78 687.573 722.407 687.573 724.527C687.573 726.66 687.239 728.307 686.573 729.467C685.919 730.627 684.979 731.207 683.753 731.207ZM683.753 730.447C684.646 730.447 685.353 729.947 685.873 728.947C686.406 727.947 686.673 726.473 686.673 724.527C686.673 722.58 686.406 721.127 685.873 720.167C685.353 719.193 684.646 718.707 683.753 718.707C682.873 718.707 682.166 719.193 681.633 720.167C681.099 721.127 680.833 722.58 680.833 724.527C680.833 726.473 681.099 727.947 681.633 728.947C682.166 729.947 682.873 730.447 683.753 730.447Z" fill="white"/>
<path d="M756.994 731.207C756.314 731.207 755.72 731.12 755.214 730.947C754.707 730.76 754.267 730.527 753.894 730.247C753.534 729.967 753.214 729.687 752.934 729.407L753.454 728.787C753.84 729.2 754.307 729.58 754.854 729.927C755.4 730.26 756.114 730.427 756.994 730.427C757.86 730.427 758.574 730.173 759.134 729.667C759.694 729.147 759.974 728.46 759.974 727.607C759.974 726.727 759.627 726.013 758.934 725.467C758.254 724.92 757.114 724.647 755.514 724.647V723.867C756.5 723.867 757.287 723.747 757.874 723.507C758.46 723.253 758.88 722.913 759.134 722.487C759.387 722.06 759.514 721.593 759.514 721.087C759.514 720.367 759.28 719.793 758.814 719.367C758.347 718.927 757.72 718.707 756.934 718.707C756.347 718.707 755.8 718.847 755.294 719.127C754.8 719.393 754.367 719.72 753.994 720.107L753.474 719.507C753.914 719.08 754.414 718.713 754.974 718.407C755.547 718.1 756.2 717.947 756.934 717.947C757.6 717.947 758.194 718.067 758.714 718.307C759.247 718.547 759.667 718.9 759.974 719.367C760.28 719.82 760.434 720.373 760.434 721.027C760.434 721.867 760.2 722.547 759.734 723.067C759.28 723.573 758.7 723.947 757.994 724.187V724.267C758.527 724.373 759.007 724.58 759.434 724.887C759.874 725.18 760.227 725.553 760.494 726.007C760.76 726.46 760.894 726.987 760.894 727.587C760.894 728.32 760.72 728.96 760.374 729.507C760.027 730.053 759.56 730.473 758.974 730.767C758.387 731.06 757.727 731.207 756.994 731.207ZM764.124 731.207C763.91 731.207 763.71 731.127 763.524 730.967C763.35 730.807 763.264 730.587 763.264 730.307C763.264 730.013 763.35 729.787 763.524 729.627C763.71 729.467 763.91 729.387 764.124 729.387C764.35 729.387 764.544 729.467 764.704 729.627C764.877 729.787 764.964 730.013 764.964 730.307C764.964 730.587 764.877 730.807 764.704 730.967C764.544 731.127 764.35 731.207 764.124 731.207ZM771.079 731.207C769.865 731.207 768.925 730.627 768.259 729.467C767.592 728.307 767.259 726.66 767.259 724.527C767.259 722.407 767.592 720.78 768.259 719.647C768.925 718.513 769.865 717.947 771.079 717.947C772.305 717.947 773.245 718.513 773.899 719.647C774.565 720.78 774.899 722.407 774.899 724.527C774.899 726.66 774.565 728.307 773.899 729.467C773.245 730.627 772.305 731.207 771.079 731.207ZM771.079 730.447C771.972 730.447 772.679 729.947 773.199 728.947C773.732 727.947 773.999 726.473 773.999 724.527C773.999 722.58 773.732 721.127 773.199 720.167C772.679 719.193 771.972 718.707 771.079 718.707C770.199 718.707 769.492 719.193 768.959 720.167C768.425 721.127 768.159 722.58 768.159 724.527C768.159 726.473 768.425 727.947 768.959 728.947C769.492 729.947 770.199 730.447 771.079 730.447Z" fill="white"/>
<path d="M842.861 730.967V730.407C844.261 728.98 845.428 727.747 846.361 726.707C847.294 725.653 847.994 724.713 848.461 723.887C848.928 723.06 849.161 722.28 849.161 721.547C849.161 720.747 848.934 720.073 848.481 719.527C848.041 718.98 847.341 718.707 846.381 718.707C845.808 718.707 845.261 718.867 844.741 719.187C844.234 719.507 843.788 719.907 843.401 720.387L842.821 719.827C843.301 719.293 843.834 718.847 844.421 718.487C845.008 718.127 845.688 717.947 846.461 717.947C847.608 717.947 848.494 718.273 849.121 718.927C849.748 719.58 850.061 720.447 850.061 721.527C850.061 722.367 849.814 723.22 849.321 724.087C848.841 724.953 848.161 725.887 847.281 726.887C846.414 727.887 845.388 729.013 844.201 730.267C844.548 730.24 844.901 730.22 845.261 730.207C845.634 730.18 845.994 730.167 846.341 730.167H850.701V730.967H842.861ZM853.811 731.207C853.598 731.207 853.398 731.127 853.211 730.967C853.038 730.807 852.951 730.587 852.951 730.307C852.951 730.013 853.038 729.787 853.211 729.627C853.398 729.467 853.598 729.387 853.811 729.387C854.038 729.387 854.231 729.467 854.391 729.627C854.565 729.787 854.651 730.013 854.651 730.307C854.651 730.587 854.565 730.807 854.391 730.967C854.231 731.127 854.038 731.207 853.811 731.207ZM860.766 731.207C859.553 731.207 858.613 730.627 857.946 729.467C857.28 728.307 856.946 726.66 856.946 724.527C856.946 722.407 857.28 720.78 857.946 719.647C858.613 718.513 859.553 717.947 860.766 717.947C861.993 717.947 862.933 718.513 863.586 719.647C864.253 720.78 864.586 722.407 864.586 724.527C864.586 726.66 864.253 728.307 863.586 729.467C862.933 730.627 861.993 731.207 860.766 731.207ZM860.766 730.447C861.66 730.447 862.366 729.947 862.886 728.947C863.42 727.947 863.686 726.473 863.686 724.527C863.686 722.58 863.42 721.127 862.886 720.167C862.366 719.193 861.66 718.707 860.766 718.707C859.886 718.707 859.18 719.193 858.646 720.167C858.113 721.127 857.846 722.58 857.846 724.527C857.846 726.473 858.113 727.947 858.646 728.947C859.18 729.947 859.886 730.447 860.766 730.447Z" fill="white"/>
<path d="M938.127 730.967V730.187H941.127V719.587H938.847V718.987C939.367 718.893 939.834 718.78 940.247 718.647C940.661 718.513 941.014 718.36 941.307 718.187H942.027V730.187H944.807V730.967H938.127ZM948.218 731.207C948.004 731.207 947.804 731.127 947.618 730.967C947.444 730.807 947.358 730.587 947.358 730.307C947.358 730.013 947.444 729.787 947.618 729.627C947.804 729.467 948.004 729.387 948.218 729.387C948.444 729.387 948.638 729.467 948.798 729.627C948.971 729.787 949.058 730.013 949.058 730.307C949.058 730.587 948.971 730.807 948.798 730.967C948.638 731.127 948.444 731.207 948.218 731.207ZM955.173 731.207C953.959 731.207 953.019 730.627 952.353 729.467C951.686 728.307 951.353 726.66 951.353 724.527C951.353 722.407 951.686 720.78 952.353 719.647C953.019 718.513 953.959 717.947 955.173 717.947C956.399 717.947 957.339 718.513 957.993 719.647C958.659 720.78 958.993 722.407 958.993 724.527C958.993 726.66 958.659 728.307 957.993 729.467C957.339 730.627 956.399 731.207 955.173 731.207ZM955.173 730.447C956.066 730.447 956.773 729.947 957.293 728.947C957.826 727.947 958.093 726.473 958.093 724.527C958.093 722.58 957.826 721.127 957.293 720.167C956.773 719.193 956.066 718.707 955.173 718.707C954.293 718.707 953.586 719.193 953.053 720.167C952.519 721.127 952.253 722.58 952.253 724.527C952.253 726.473 952.519 727.947 953.053 728.947C953.586 729.947 954.293 730.447 955.173 730.447Z" fill="white"/>
<path d="M1025.01 731.207C1023.8 731.207 1022.86 730.627 1022.19 729.467C1021.53 728.307 1021.19 726.66 1021.19 724.527C1021.19 722.407 1021.53 720.78 1022.19 719.647C1022.86 718.513 1023.8 717.947 1025.01 717.947C1026.24 717.947 1027.18 718.513 1027.83 719.647C1028.5 720.78 1028.83 722.407 1028.83 724.527C1028.83 726.66 1028.5 728.307 1027.83 729.467C1027.18 730.627 1026.24 731.207 1025.01 731.207ZM1025.01 730.447C1025.91 730.447 1026.61 729.947 1027.13 728.947C1027.67 727.947 1027.93 726.473 1027.93 724.527C1027.93 722.58 1027.67 721.127 1027.13 720.167C1026.61 719.193 1025.91 718.707 1025.01 718.707C1024.13 718.707 1023.43 719.193 1022.89 720.167C1022.36 721.127 1022.09 722.58 1022.09 724.527C1022.09 726.473 1022.36 727.947 1022.89 728.947C1023.43 729.947 1024.13 730.447 1025.01 730.447Z" fill="white"/>
<path d="M421.733 311.988C421.733 313.509 421.497 314.941 421.025 316.287C420.571 317.615 419.933 318.725 419.112 319.616C418.396 320.385 417.531 320.961 416.517 321.346C415.521 321.713 414.368 321.896 413.057 321.896C411.729 321.896 410.559 321.713 409.545 321.346C408.532 320.979 407.684 320.428 407.003 319.694C406.199 318.856 405.578 317.807 405.142 316.549C404.705 315.273 404.486 313.893 404.486 312.408C404.486 310.888 404.713 309.463 405.168 308.135C405.64 306.79 406.286 305.672 407.107 304.78C407.841 303.994 408.689 303.417 409.65 303.05C410.628 302.683 411.782 302.5 413.11 302.5C414.438 302.5 415.6 302.683 416.596 303.05C417.609 303.4 418.474 303.95 419.191 304.702C420.012 305.54 420.641 306.598 421.078 307.873C421.515 309.149 421.733 310.521 421.733 311.988ZM407.501 311.884C407.501 313.334 407.623 314.627 407.868 315.763C408.112 316.881 408.462 317.798 408.916 318.515C409.37 319.161 409.938 319.651 410.62 319.983C411.319 320.297 412.175 320.455 413.188 320.455C415.041 320.455 416.404 319.878 417.277 318.725C417.749 318.078 418.107 317.222 418.352 316.156C418.597 315.073 418.719 313.806 418.719 312.355C418.719 310.905 418.597 309.629 418.352 308.529C418.107 307.428 417.749 306.536 417.277 305.855C416.823 305.191 416.238 304.702 415.521 304.387C414.822 304.073 413.992 303.915 413.031 303.915C412.105 303.915 411.301 304.064 410.62 304.361C409.956 304.641 409.397 305.069 408.942 305.645C407.981 306.921 407.501 309 407.501 311.884Z" fill="#FA5050"/>
<path d="M421.733 311.988C421.733 313.509 421.497 314.941 421.025 316.287C420.571 317.615 419.933 318.725 419.112 319.616C418.396 320.385 417.531 320.961 416.517 321.346C415.521 321.713 414.368 321.896 413.057 321.896C411.729 321.896 410.559 321.713 409.545 321.346C408.532 320.979 407.684 320.428 407.003 319.694C406.199 318.856 405.578 317.807 405.142 316.549C404.705 315.273 404.486 313.893 404.486 312.408C404.486 310.888 404.713 309.463 405.168 308.135C405.64 306.79 406.286 305.672 407.107 304.78C407.841 303.994 408.689 303.417 409.65 303.05C410.628 302.683 411.782 302.5 413.11 302.5C414.438 302.5 415.6 302.683 416.596 303.05C417.609 303.4 418.474 303.95 419.191 304.702C420.012 305.54 420.641 306.598 421.078 307.873C421.515 309.149 421.733 310.521 421.733 311.988ZM407.501 311.884C407.501 313.334 407.623 314.627 407.868 315.763C408.112 316.881 408.462 317.798 408.916 318.515C409.37 319.161 409.938 319.651 410.62 319.983C411.319 320.297 412.175 320.455 413.188 320.455C415.041 320.455 416.404 319.878 417.277 318.725C417.749 318.078 418.107 317.222 418.352 316.156C418.597 315.073 418.719 313.806 418.719 312.355C418.719 310.905 418.597 309.629 418.352 308.529C418.107 307.428 417.749 306.536 417.277 305.855C416.823 305.191 416.238 304.702 415.521 304.387C414.822 304.073 413.992 303.915 413.031 303.915C412.105 303.915 411.301 304.064 410.62 304.361C409.956 304.641 409.397 305.069 408.942 305.645C407.981 306.921 407.501 309 407.501 311.884Z" stroke="black"/>
<path d="M504.65 304.178V319.694L506.851 320.245V321.372H499.827V320.245L502.029 319.694V312.434H493.143V319.694L495.345 320.245V321.372H488.32V320.245L490.522 319.694V304.178L488.32 303.627V302.5H495.345V303.627L493.143 304.178V310.914H502.029V304.178L499.827 303.627V302.5H506.851V303.627L504.65 304.178Z" fill="#FA5050"/>
<path d="M504.65 304.178V319.694L506.851 320.245V321.372H499.827V320.245L502.029 319.694V312.434H493.143V319.694L495.345 320.245V321.372H488.32V320.245L490.522 319.694V304.178L488.32 303.627V302.5H495.345V303.627L493.143 304.178V310.914H502.029V304.178L499.827 303.627V302.5H506.851V303.627L504.65 304.178Z" stroke="black"/>
<path d="M248.551 303.959C247.673 303.959 246.92 304.095 246.292 304.365C245.683 304.635 245.163 305.059 244.733 305.635C244.195 306.338 243.774 307.266 243.469 308.419C243.164 309.554 243.012 310.806 243.012 312.176C243.012 313.455 243.146 314.653 243.415 315.77C243.684 316.887 244.061 317.824 244.545 318.581C245.029 319.338 245.611 319.896 246.292 320.257C246.992 320.599 247.861 320.77 248.901 320.77C252.128 320.77 254.001 319.248 254.521 316.203H256C255.193 320.401 252.737 322.5 248.632 322.5C246.158 322.5 244.186 321.779 242.716 320.338C241.838 319.473 241.165 318.383 240.699 317.068C240.233 315.752 240 314.293 240 312.689C240 310.869 240.296 309.221 240.887 307.743C241.479 306.266 242.313 305.086 243.388 304.203C244.751 303.068 246.552 302.5 248.793 302.5C249.905 302.5 250.81 302.644 251.509 302.932C252.208 303.221 252.899 303.734 253.58 304.473L254.118 302.77H255.597V308.743H253.956C253.705 307.158 253.123 305.968 252.208 305.176C251.312 304.365 250.093 303.959 248.551 303.959Z" fill="#5C48FD"/>
<path d="M248.551 303.959C247.673 303.959 246.92 304.095 246.292 304.365C245.683 304.635 245.163 305.059 244.733 305.635C244.195 306.338 243.774 307.266 243.469 308.419C243.164 309.554 243.012 310.806 243.012 312.176C243.012 313.455 243.146 314.653 243.415 315.77C243.684 316.887 244.061 317.824 244.545 318.581C245.029 319.338 245.611 319.896 246.292 320.257C246.992 320.599 247.861 320.77 248.901 320.77C252.128 320.77 254.001 319.248 254.521 316.203H256C255.193 320.401 252.737 322.5 248.632 322.5C246.158 322.5 244.186 321.779 242.716 320.338C241.838 319.473 241.165 318.383 240.699 317.068C240.233 315.752 240 314.293 240 312.689C240 310.869 240.296 309.221 240.887 307.743C241.479 306.266 242.313 305.086 243.388 304.203C244.751 303.068 246.552 302.5 248.793 302.5C249.905 302.5 250.81 302.644 251.509 302.932C252.208 303.221 252.899 303.734 253.58 304.473L254.118 302.77H255.597V308.743H253.956C253.705 307.158 253.123 305.968 252.208 305.176C251.312 304.365 250.093 303.959 248.551 303.959Z" stroke="black"/>
<path d="M330.551 303.959C329.673 303.959 328.92 304.095 328.292 304.365C327.683 304.635 327.163 305.059 326.733 305.635C326.195 306.338 325.774 307.266 325.469 308.419C325.164 309.554 325.012 310.806 325.012 312.176C325.012 313.455 325.146 314.653 325.415 315.77C325.684 316.887 326.061 317.824 326.545 318.581C327.029 319.338 327.611 319.896 328.292 320.257C328.992 320.599 329.861 320.77 330.901 320.77C334.128 320.77 336.001 319.248 336.521 316.203H338C337.193 320.401 334.737 322.5 330.632 322.5C328.158 322.5 326.186 321.779 324.716 320.338C323.838 319.473 323.165 318.383 322.699 317.068C322.233 315.752 322 314.293 322 312.689C322 310.869 322.296 309.221 322.887 307.743C323.479 306.266 324.313 305.086 325.388 304.203C326.751 303.068 328.552 302.5 330.793 302.5C331.905 302.5 332.81 302.644 333.509 302.932C334.208 303.221 334.899 303.734 335.58 304.473L336.118 302.77H337.597V308.743H335.956C335.705 307.158 335.123 305.968 334.208 305.176C333.312 304.365 332.093 303.959 330.551 303.959Z" fill="#C726AD"/>
<path d="M330.551 303.959C329.673 303.959 328.92 304.095 328.292 304.365C327.683 304.635 327.163 305.059 326.733 305.635C326.195 306.338 325.774 307.266 325.469 308.419C325.164 309.554 325.012 310.806 325.012 312.176C325.012 313.455 325.146 314.653 325.415 315.77C325.684 316.887 326.061 317.824 326.545 318.581C327.029 319.338 327.611 319.896 328.292 320.257C328.992 320.599 329.861 320.77 330.901 320.77C334.128 320.77 336.001 319.248 336.521 316.203H338C337.193 320.401 334.737 322.5 330.632 322.5C328.158 322.5 326.186 321.779 324.716 320.338C323.838 319.473 323.165 318.383 322.699 317.068C322.233 315.752 322 314.293 322 312.689C322 310.869 322.296 309.221 322.887 307.743C323.479 306.266 324.313 305.086 325.388 304.203C326.751 303.068 328.552 302.5 330.793 302.5C331.905 302.5 332.81 302.644 333.509 302.932C334.208 303.221 334.899 303.734 335.58 304.473L336.118 302.77H337.597V308.743H335.956C335.705 307.158 335.123 305.968 334.208 305.176C333.312 304.365 332.093 303.959 330.551 303.959Z" stroke="black"/>
<path d="M252.861 391.189V406.811L255 407.365V408.5H248.177V407.365L250.315 406.811V399.501H241.685V406.811L243.823 407.365V408.5H237V407.365L239.139 406.811V391.189L237 390.635V389.5H243.823V390.635L241.685 391.189V397.971H250.315V391.189L248.177 390.635V389.5H255V390.635L252.861 391.189Z" fill="#5C48FD"/>
<path d="M252.861 391.189V406.811L255 407.365V408.5H248.177V407.365L250.315 406.811V399.501H241.685V406.811L243.823 407.365V408.5H237V407.365L239.139 406.811V391.189L237 390.635V389.5H243.823V390.635L241.685 391.189V397.971H250.315V391.189L248.177 390.635V389.5H255V390.635L252.861 391.189Z" stroke="black"/>
<path d="M334.861 391.189V406.811L337 407.365V408.5H330.177V407.365L332.315 406.811V399.501H323.685V406.811L325.823 407.365V408.5H319V407.365L321.139 406.811V391.189L319 390.635V389.5H325.823V390.635L323.685 391.189V397.971H332.315V391.189L330.177 390.635V389.5H337V390.635L334.861 391.189Z" fill="#C726AD"/>
<path d="M334.861 391.189V406.811L337 407.365V408.5H330.177V407.365L332.315 406.811V399.501H323.685V406.811L325.823 407.365V408.5H319V407.365L321.139 406.811V391.189L319 390.635V389.5H325.823V390.635L323.685 391.189V397.971H332.315V391.189L330.177 390.635V389.5H337V390.635L334.861 391.189Z" stroke="black"/>
<path d="M171.329 304.178V319.694L173.531 320.245V321.372H166.507V320.245L168.708 319.694V312.434H159.823V319.694L162.025 320.245V321.372H155V320.245L157.202 319.694V304.178L155 303.627V302.5H162.025V303.627L159.823 304.178V310.914H168.708V304.178L166.507 303.627V302.5H173.531V303.627L171.329 304.178Z" fill="#5C48FD"/>
<path d="M171.329 304.178V319.694L173.531 320.245V321.372H166.507V320.245L168.708 319.694V312.434H159.823V319.694L162.025 320.245V321.372H155V320.245L157.202 319.694V304.178L155 303.627V302.5H162.025V303.627L159.823 304.178V310.914H168.708V304.178L166.507 303.627V302.5H173.531V303.627L171.329 304.178Z" stroke="black"/>
<path d="M254.329 218.178V225.936V233.694L256.531 234.245V235.372H249.507V234.245L251.708 233.694V226.434H242.823V233.694L245.025 234.245V235.372H238V234.245L240.202 233.694V218.178L238 217.627V216.5H245.025V217.627L242.823 218.178V224.914H251.708V218.178L249.507 217.627V216.5H256.531V217.627L254.329 218.178Z" fill="#5C48FD"/>
<path d="M254.329 218.178V225.936V233.694L256.531 234.245V235.372H249.507V234.245L251.708 233.694V226.434H242.823V233.694L245.025 234.245V235.372H238V234.245L240.202 233.694V218.178L238 217.627V216.5H245.025V217.627L242.823 218.178V224.914H251.708V218.178L249.507 217.627V216.5H256.531V217.627L254.329 218.178Z" stroke="black"/>
<path d="M336.329 218.178V225.936V233.694L338.531 234.245V235.372H331.507V234.245L333.708 233.694V226.434H324.823V233.694L327.025 234.245V235.372H320V234.245L322.202 233.694V218.178L320 217.627V216.5H327.025V217.627L324.823 218.178V224.914H333.708V218.178L331.507 217.627V216.5H338.531V217.627L336.329 218.178Z" fill="#C726AD"/>
<path d="M336.329 218.178V225.936V233.694L338.531 234.245V235.372H331.507V234.245L333.708 233.694V226.434H324.823V233.694L327.025 234.245V235.372H320V234.245L322.202 233.694V218.178L320 217.627V216.5H327.025V217.627L324.823 218.178V224.914H333.708V218.178L331.507 217.627V216.5H338.531V217.627L336.329 218.178Z" stroke="black"/>
<line x1="247.5" y1="365.087" x2="247.5" y2="346.5" stroke="#5C48FD" stroke-width="3"/>
<line x1="329.5" y1="365.087" x2="329.5" y2="346.5" stroke="#C726AD" stroke-width="3"/>
<line x1="247.5" y1="259.5" x2="247.5" y2="278.5" stroke="#5C48FD" stroke-width="3"/>
<line x1="329.5" y1="259.5" x2="329.5" y2="278.5" stroke="#C726AD" stroke-width="3"/>
<line x1="197.531" y1="311" x2="216.118" y2="311" stroke="#5C48FD" stroke-width="3"/>
<line x1="279.715" y1="311" x2="298.302" y2="311" stroke="#7E7E7E" stroke-width="3"/>
<line x1="361.898" y1="311" x2="380.485" y2="311" stroke="#7E7E7E" stroke-width="3"/>
<line x1="445.732" y1="311" x2="464.319" y2="311" stroke="#FA5050" stroke-width="3"/>
<line x1="811" y1="312" x2="527" y2="312" stroke="#FA5050" stroke-width="3"/>
<path d="M810.939 442.561C811.525 443.146 812.475 443.146 813.061 442.561L822.607 433.015C823.192 432.429 823.192 431.479 822.607 430.893C822.021 430.308 821.071 430.308 820.485 430.893L812 439.379L803.515 430.893C802.929 430.308 801.979 430.308 801.393 430.893C800.808 431.479 800.808 432.429 801.393 433.015L810.939 442.561ZM810.5 310.5L810.5 441.5L813.5 441.5L813.5 310.5L810.5 310.5Z" fill="#FA5050"/>
<path d="M812 231.665C812 234.095 811.617 236.385 810.851 238.535C810.113 240.658 809.078 242.431 807.745 243.855C806.582 245.084 805.177 246.006 803.532 246.62C801.915 247.207 800.043 247.5 797.915 247.5C795.759 247.5 793.858 247.207 792.213 246.62C790.567 246.034 789.191 245.154 788.085 243.981C786.78 242.641 785.773 240.965 785.064 238.954C784.355 236.915 784 234.709 784 232.335C784 229.905 784.369 227.629 785.106 225.507C785.872 223.356 786.922 221.569 788.255 220.145C789.447 218.888 790.823 217.966 792.383 217.38C793.972 216.793 795.844 216.5 798 216.5C800.156 216.5 802.043 216.793 803.66 217.38C805.305 217.938 806.709 218.818 807.872 220.019C809.206 221.359 810.227 223.049 810.936 225.088C811.645 227.127 812 229.319 812 231.665ZM788.894 231.497C788.894 233.815 789.092 235.882 789.489 237.697C789.887 239.485 790.454 240.951 791.191 242.096C791.929 243.129 792.851 243.911 793.957 244.442C795.092 244.945 796.482 245.196 798.128 245.196C801.135 245.196 803.348 244.274 804.766 242.431C805.532 241.398 806.113 240.029 806.511 238.326C806.908 236.594 807.106 234.569 807.106 232.251C807.106 229.933 806.908 227.895 806.511 226.135C806.113 224.376 805.532 222.951 804.766 221.862C804.028 220.801 803.078 220.019 801.915 219.516C800.78 219.014 799.433 218.762 797.872 218.762C796.369 218.762 795.064 219 793.957 219.474C792.879 219.921 791.972 220.605 791.234 221.527C789.674 223.566 788.894 226.889 788.894 231.497Z" fill="#FA5050"/>
<path d="M812 231.665C812 234.095 811.617 236.385 810.851 238.535C810.113 240.658 809.078 242.431 807.745 243.855C806.582 245.084 805.177 246.006 803.532 246.62C801.915 247.207 800.043 247.5 797.915 247.5C795.759 247.5 793.858 247.207 792.213 246.62C790.567 246.034 789.191 245.154 788.085 243.981C786.78 242.641 785.773 240.965 785.064 238.954C784.355 236.915 784 234.709 784 232.335C784 229.905 784.369 227.629 785.106 225.507C785.872 223.356 786.922 221.569 788.255 220.145C789.447 218.888 790.823 217.966 792.383 217.38C793.972 216.793 795.844 216.5 798 216.5C800.156 216.5 802.043 216.793 803.66 217.38C805.305 217.938 806.709 218.818 807.872 220.019C809.206 221.359 810.227 223.049 810.936 225.088C811.645 227.127 812 229.319 812 231.665ZM788.894 231.497C788.894 233.815 789.092 235.882 789.489 237.697C789.887 239.485 790.454 240.951 791.191 242.096C791.929 243.129 792.851 243.911 793.957 244.442C795.092 244.945 796.482 245.196 798.128 245.196C801.135 245.196 803.348 244.274 804.766 242.431C805.532 241.398 806.113 240.029 806.511 238.326C806.908 236.594 807.106 234.569 807.106 232.251C807.106 229.933 806.908 227.895 806.511 226.135C806.113 224.376 805.532 222.951 804.766 221.862C804.028 220.801 803.078 220.019 801.915 219.516C800.78 219.014 799.433 218.762 797.872 218.762C796.369 218.762 795.064 219 793.957 219.474C792.879 219.921 791.972 220.605 791.234 221.527C789.674 223.566 788.894 226.889 788.894 231.497Z" stroke="black"/>
<path d="M838.436 219.256V244.744L842 245.649V247.5H830.628V245.649L834.192 244.744V232.818H819.808V244.744L823.372 245.649V247.5H812V245.649L815.564 244.744V219.256L812 218.351V216.5H823.372V218.351L819.808 219.256V230.321H834.192V219.256L830.628 218.351V216.5H842V218.351L838.436 219.256Z" fill="#FA5050"/>
<path d="M838.436 219.256V244.744L842 245.649V247.5H830.628V245.649L834.192 244.744V232.818H819.808V244.744L823.372 245.649V247.5H812V245.649L815.564 244.744V219.256L812 218.351V216.5H823.372V218.351L819.808 219.256V230.321H834.192V219.256L830.628 218.351V216.5H842V218.351L838.436 219.256Z" stroke="black"/>
<path d="M94.44 81.74H93.42L93.06 79.7H89.74L89.74 85.3H95.78L96.4 82.04H97.56L97.56 86.5H85.86L85.86 85.64L87.74 85.22L87.74 73.38L85.86 72.96L85.86 72.1H97.12L97.12 76.34H96.08L95.44 73.26H89.74L89.74 78.5H93.06L93.42 76.46H94.44L94.44 81.74ZM98.8714 76.7L98.8714 75.98L100.811 75.7L101.071 73.18L102.751 72.94L102.751 75.7H105.311L105.311 76.7H102.751L102.751 83.84C102.751 84.2933 102.758 84.6067 102.771 84.78C102.785 84.94 102.811 85.0733 102.851 85.18C102.891 85.2733 102.965 85.34 103.071 85.38C103.178 85.4067 103.351 85.42 103.591 85.42H104.991L104.991 86C104.351 86.24 103.785 86.4133 103.291 86.52C102.811 86.64 102.425 86.7 102.131 86.7C101.531 86.7 101.145 86.4533 100.971 85.96C100.918 85.8 100.878 85.5933 100.851 85.34C100.825 85.0867 100.811 84.7133 100.811 84.22L100.811 76.7H98.8714ZM114.468 85.3L114.468 80.84C114.468 79.9733 114.441 79.3267 114.388 78.9C114.348 78.4733 114.268 78.14 114.148 77.9C113.828 77.2467 113.241 76.92 112.388 76.92C112.014 76.92 111.654 76.9867 111.308 77.12C110.961 77.2533 110.654 77.4333 110.388 77.66C110.094 77.9133 109.874 78.22 109.728 78.58C109.594 78.9267 109.514 79.36 109.488 79.88L109.488 85.3L110.828 85.68L110.828 86.5H106.008L106.008 85.68L107.548 85.3L107.548 72.1L106.008 71.72L106.008 70.9H109.488L109.488 77.58C109.888 76.94 110.414 76.4333 111.068 76.06C111.734 75.6867 112.448 75.5 113.208 75.5C113.741 75.5 114.221 75.5933 114.648 75.78C115.074 75.9667 115.414 76.2333 115.668 76.58C115.934 76.9533 116.121 77.48 116.228 78.16C116.348 78.8267 116.408 79.7333 116.408 80.88L116.408 85.3L117.948 85.68L117.948 86.5H113.128L113.128 85.68L114.468 85.3ZM119.139 84.16C119.139 83.12 119.626 82.3 120.599 81.7C121.572 81.1 123.186 80.6333 125.439 80.3C125.386 79.5133 125.312 78.9 125.219 78.46C125.126 78.02 125.006 77.6667 124.859 77.4C124.672 77.0533 124.412 76.8 124.079 76.64C123.746 76.4667 123.386 76.38 122.999 76.38C122.626 76.38 122.286 76.4467 121.979 76.58C121.686 76.7133 121.486 76.8933 121.379 77.12C121.566 77.2533 121.699 77.4267 121.779 77.64C121.872 77.8533 121.919 78.0533 121.919 78.24C121.919 78.5733 121.806 78.84 121.579 79.04C121.366 79.2267 121.099 79.32 120.779 79.32C120.459 79.32 120.192 79.2133 119.979 79C119.779 78.7867 119.679 78.4867 119.679 78.1C119.679 77.54 119.872 77.0667 120.259 76.68C120.646 76.2933 121.132 76 121.719 75.8C122.319 75.6 122.919 75.5 123.519 75.5C124.066 75.5 124.566 75.5867 125.019 75.76C125.486 75.92 125.879 76.16 126.199 76.48C127.026 77.3067 127.439 78.7733 127.439 80.88L127.439 83.78C127.439 84.4333 127.479 84.8867 127.559 85.14C127.652 85.3933 127.846 85.52 128.139 85.52H129.039L129.039 86.12C128.079 86.5067 127.332 86.7 126.799 86.7C126.386 86.7 126.106 86.5533 125.959 86.26C125.826 85.9533 125.759 85.3733 125.759 84.52H125.679C125.266 85.2 124.719 85.7333 124.039 86.12C123.359 86.5067 122.626 86.7 121.839 86.7C120.999 86.7 120.339 86.4733 119.859 86.02C119.379 85.5667 119.139 84.9467 119.139 84.16ZM122.679 85.54C123.052 85.54 123.439 85.4467 123.839 85.26C124.252 85.06 124.599 84.7867 124.879 84.44C125.092 84.1733 125.246 83.86 125.339 83.5C125.446 83.1267 125.499 82.6933 125.499 82.2C125.499 81.9733 125.492 81.7533 125.479 81.54C125.466 81.3133 125.446 81.1 125.419 80.9C124.339 81.1133 123.492 81.3467 122.879 81.6C122.266 81.84 121.832 82.1333 121.579 82.48C121.326 82.8133 121.199 83.2333 121.199 83.74C121.199 84.3133 121.326 84.76 121.579 85.08C121.846 85.3867 122.212 85.54 122.679 85.54ZM131.381 85.3L131.381 76.9L129.841 76.52L129.841 75.7H132.721L133.161 77.7H133.241C133.641 77.02 134.181 76.4867 134.861 76.1C135.541 75.7 136.268 75.5 137.041 75.5C138.148 75.5 138.968 75.86 139.501 76.58C139.768 76.9533 139.954 77.48 140.061 78.16C140.181 78.8267 140.241 79.7333 140.241 80.88L140.241 85.3L141.781 85.68L141.781 86.5L136.961 86.5L136.961 85.68L138.301 85.3L138.301 80.84C138.301 79.9733 138.274 79.3267 138.221 78.9C138.181 78.4733 138.101 78.14 137.981 77.9C137.821 77.58 137.588 77.34 137.281 77.18C136.988 77.0067 136.634 76.92 136.221 76.92C135.448 76.92 134.781 77.1667 134.221 77.66C133.674 78.1533 133.374 78.92 133.321 79.96L133.321 85.3L134.661 85.68L134.661 86.5H129.841L129.841 85.68L131.381 85.3ZM152.947 81C152.947 81.8667 152.813 82.6933 152.547 83.48C152.293 84.2533 151.933 84.8933 151.467 85.4C151.067 85.84 150.573 86.1667 149.987 86.38C149.4 86.5933 148.733 86.7 147.987 86.7C147.253 86.7 146.6 86.6 146.027 86.4C145.453 86.1867 144.967 85.8667 144.567 85.44C144.113 84.9467 143.76 84.34 143.507 83.62C143.267 82.8867 143.147 82.0933 143.147 81.24C143.147 80.3733 143.273 79.5467 143.527 78.76C143.78 77.96 144.147 77.3067 144.627 76.8C145.053 76.3467 145.547 76.02 146.107 75.82C146.68 75.6067 147.333 75.5 148.067 75.5C148.8 75.5 149.46 75.6067 150.047 75.82C150.633 76.02 151.127 76.3333 151.527 76.76C151.993 77.2533 152.347 77.8733 152.587 78.62C152.827 79.3533 152.947 80.1467 152.947 81ZM145.287 81.02C145.287 81.8333 145.347 82.54 145.467 83.14C145.6 83.7267 145.78 84.2133 146.007 84.6C146.233 84.9333 146.5 85.1933 146.807 85.38C147.127 85.5667 147.54 85.66 148.047 85.66C148.967 85.66 149.653 85.3467 150.107 84.72C150.347 84.3733 150.52 83.8933 150.627 83.28C150.747 82.6667 150.807 81.96 150.807 81.16C150.807 80.36 150.74 79.66 150.607 79.06C150.487 78.46 150.313 77.9733 150.087 77.6C149.873 77.2533 149.6 76.9933 149.267 76.82C148.947 76.6333 148.533 76.54 148.027 76.54C147.093 76.54 146.42 76.8467 146.007 77.46C145.527 78.2067 145.287 79.3933 145.287 81.02ZM155.967 85.3L155.967 72.1L154.427 71.72L154.427 70.9H157.907L157.907 85.3L159.447 85.68L159.447 86.5H154.427L154.427 85.68L155.967 85.3Z" fill="white"/>
<path d="M890.05 106.774C888.709 106.774 887.56 106.985 886.603 107.406C885.672 107.827 884.879 108.487 884.222 109.386C883.402 110.481 882.759 111.927 882.294 113.724C881.829 115.493 881.596 117.444 881.596 119.578C881.596 121.572 881.801 123.439 882.212 125.18C882.622 126.921 883.197 128.381 883.935 129.56C884.674 130.74 885.563 131.61 886.603 132.172C887.67 132.705 888.996 132.972 890.583 132.972C895.508 132.972 898.366 130.599 899.16 125.854H901.417C900.186 132.396 896.438 135.667 890.173 135.667C886.397 135.667 883.388 134.544 881.145 132.298C879.804 130.95 878.778 129.251 878.067 127.202C877.356 125.152 877 122.878 877 120.379C877 117.543 877.451 114.973 878.354 112.671C879.257 110.368 880.529 108.529 882.171 107.153C884.25 105.384 886.999 104.5 890.419 104.5C892.115 104.5 893.497 104.725 894.564 105.174C895.631 105.623 896.684 106.423 897.723 107.575L898.544 104.921H900.801V114.229H898.298C897.915 111.758 897.026 109.905 895.631 108.67C894.263 107.406 892.402 106.774 890.05 106.774Z" fill="#5C48FD"/>
<path d="M930.413 107.617V132.551L933.86 133.435V135.246H922.862V133.435L926.309 132.551V120.884H912.398V132.551L915.845 133.435V135.246H904.847V133.435L908.294 132.551V107.617L904.847 106.732V104.921H915.845V106.732L912.398 107.617V118.441H926.309V107.617L922.862 106.732V104.921H933.86V106.732L930.413 107.617Z" fill="#5C48FD"/>
<path d="M946.406 125.18C946.406 126.022 946.16 126.724 945.668 127.286C945.175 127.819 944.491 128.156 943.616 128.297V128.465C945.613 128.858 946.612 129.939 946.612 131.708C946.612 132.888 946.188 133.842 945.339 134.572C944.491 135.302 943.383 135.667 942.015 135.667C940.757 135.667 939.731 135.345 938.938 134.699C938.172 134.053 937.789 133.197 937.789 132.13C937.789 131.568 937.884 131.161 938.076 130.908C938.295 130.627 938.623 130.487 939.061 130.487C939.417 130.487 939.69 130.599 939.882 130.824C940.1 131.02 940.21 131.301 940.21 131.666C940.21 132.031 940.114 132.312 939.923 132.509C939.731 132.705 939.485 132.803 939.184 132.803C939.293 133.281 939.553 133.66 939.964 133.941C940.401 134.193 940.976 134.32 941.687 134.32C942.563 134.32 943.206 134.137 943.616 133.772C944.054 133.379 944.273 132.789 944.273 132.003C944.273 131.105 943.985 130.389 943.411 129.855C942.864 129.322 942.098 129.055 941.113 129.055V127.791C942.043 127.791 942.795 127.539 943.37 127.033C943.944 126.5 944.231 125.812 944.231 124.969C944.231 124.296 944.026 123.79 943.616 123.453C943.206 123.088 942.604 122.906 941.81 122.906C941.126 122.906 940.552 123.032 940.087 123.285C939.622 123.537 939.348 123.874 939.266 124.296C939.649 124.296 939.95 124.394 940.169 124.59C940.388 124.787 940.497 125.068 940.497 125.433C940.497 125.798 940.388 126.093 940.169 126.317C939.95 126.514 939.663 126.612 939.307 126.612C938.869 126.612 938.527 126.472 938.281 126.191C938.062 125.882 937.953 125.461 937.953 124.927C937.953 123.945 938.336 123.158 939.102 122.569C939.868 121.951 940.88 121.642 942.139 121.642C943.424 121.642 944.45 121.965 945.216 122.611C946.01 123.257 946.406 124.113 946.406 125.18Z" fill="#5C48FD"/>
<path d="M872.901 142.981C873.487 142.395 873.487 141.445 872.901 140.859L863.355 131.313C862.77 130.728 861.82 130.728 861.234 131.313C860.648 131.899 860.648 132.849 861.234 133.435L869.719 141.92L861.234 150.405C860.648 150.991 860.648 151.941 861.234 152.527C861.82 153.112 862.77 153.112 863.355 152.527L872.901 142.981ZM249 143.42L871.841 143.42L871.841 140.42L249 140.42L249 143.42Z" fill="#5C48FD"/>
<line x1="702.41" y1="228" x2="379.999" y2="228" stroke="#C726AD" stroke-width="3"/>
<path d="M701.939 279.561C702.525 280.146 703.475 280.146 704.061 279.561L713.607 270.015C714.192 269.429 714.192 268.479 713.607 267.893C713.021 267.308 712.071 267.308 711.485 267.893L703 276.379L694.515 267.893C693.929 267.308 692.979 267.308 692.393 267.893C691.808 268.479 691.808 269.429 692.393 270.015L701.939 279.561ZM701.5 226.5L701.5 278.5L704.5 278.5L704.5 226.5L701.5 226.5Z" fill="#C726AD"/>
<path d="M249.916 141.001L249.916 189.586" stroke="#5C48FD" stroke-width="3"/>
<g filter="url(#filter0_d_676_5716)">
<path d="M791 639.344H806.571L809.319 621.878V535.71L811.151 530.668V488.5V525.626L812.983 523.334L814.357 639.344H821.684H898.5" stroke="#C3FA50" stroke-width="3"/>
</g>
<path d="M943.5 640.5H982.75H1022" stroke="#C3FA50" stroke-width="3"/>
<path d="M729 639.5H760H791" stroke="#C3FA50" stroke-width="3"/>
<path d="M144 641.5L406.5 641.5L669 641.5" stroke="#C3FA50" stroke-width="3"/>
<g filter="url(#filter1_d_676_5716)">
<path d="M790.5 639.5L806.571 638.344L809.319 620.878V534.71L811.151 529.668V487.5V524.626L812.983 522.334L814.357 638.344H821.684L825.5 639.5" stroke="#FA5050" stroke-width="3"/>
</g>
<path d="M898 640.5L905.31 614.28V396.963L907.523 622.622L910.621 624.817L913.719 639.305H918.144V624.817L920.357 616.915V569.061M920.357 169V569.061M944 640.5L940.101 639.305L933.19 630.963L930.977 425.939L933.19 624.817V628.768L930.977 639.305L928.765 637.11L923.897 634.915V628.768L920.357 569.061" stroke="#5C48FD" stroke-width="3"/>
<path d="M114.88 614.76L126.72 614.76L127.14 612.88L128 612.88L128 618.64L127.14 618.64L126.72 616.76L114.88 616.76L114.46 618.64L113.6 618.64L113.6 612.88L114.46 612.88L114.88 614.76ZM126.8 609.76L118.4 609.76L118.02 611.3L117.2 611.3L117.2 608.42L119.2 607.98L119.2 607.9C118.52 607.5 117.987 606.96 117.6 606.28C117.2 605.6 117 604.873 117 604.1C117 602.993 117.36 602.173 118.08 601.64C118.453 601.373 118.98 601.186 119.66 601.08C120.327 600.96 121.233 600.9 122.38 600.9L126.8 600.9L127.18 599.36L128 599.36L128 604.18L127.18 604.18L126.8 602.84L122.34 602.84C121.473 602.84 120.827 602.866 120.4 602.92C119.973 602.96 119.64 603.04 119.4 603.16C119.08 603.32 118.84 603.553 118.68 603.86C118.507 604.153 118.42 604.506 118.42 604.92C118.42 605.693 118.667 606.36 119.16 606.92C119.653 607.466 120.42 607.766 121.46 607.82L126.8 607.82L127.18 606.48L128 606.48L128 611.3L127.18 611.3L126.8 609.76ZM118.2 598.734L117.48 598.734L117.2 596.794L114.68 596.534L114.44 594.854L117.2 594.854L117.2 592.294L118.2 592.294L118.2 594.854L125.34 594.854C125.793 594.854 126.107 594.847 126.28 594.834C126.44 594.821 126.573 594.794 126.68 594.754C126.773 594.714 126.84 594.641 126.88 594.534C126.907 594.427 126.92 594.254 126.92 594.014L126.92 592.614L127.5 592.614C127.74 593.254 127.913 593.821 128.02 594.314C128.14 594.794 128.2 595.181 128.2 595.474C128.2 596.074 127.953 596.461 127.46 596.634C127.3 596.687 127.093 596.727 126.84 596.754C126.587 596.781 126.213 596.794 125.72 596.794L118.2 596.794L118.2 598.734ZM122.72 582.158L122.72 589.138C123.693 589.138 124.5 589.004 125.14 588.738C125.753 588.471 126.193 588.091 126.46 587.598C126.727 587.104 126.86 586.571 126.86 585.998C126.86 585.371 126.733 584.798 126.48 584.278C126.213 583.758 125.853 583.291 125.4 582.878L125.88 582.238C126.52 582.704 127.067 583.271 127.52 583.938C127.973 584.604 128.2 585.464 128.2 586.518C128.2 587.438 128.007 588.251 127.62 588.958C127.22 589.664 126.64 590.204 125.88 590.578C125.467 590.778 125.007 590.924 124.5 591.018C123.993 591.111 123.453 591.158 122.88 591.158C121.013 591.158 119.567 590.731 118.54 589.878C117.513 589.011 117 587.838 117 586.358C117 584.998 117.427 583.951 118.28 583.218C119.12 582.471 120.287 582.098 121.78 582.098C121.913 582.098 122.04 582.104 122.16 582.118C122.267 582.118 122.453 582.131 122.72 582.158ZM118.08 586.478C118.08 588.078 119.3 588.958 121.74 589.118L121.74 584.118L121.08 584.118C120.12 584.118 119.38 584.324 118.86 584.738C118.34 585.138 118.08 585.718 118.08 586.478ZM126.8 578.959L118.4 578.959L118.02 580.499L117.2 580.499L117.2 577.619L119.2 577.179L119.2 577.099C118.52 576.699 117.987 576.159 117.6 575.479C117.2 574.799 117 574.072 117 573.299C117 572.192 117.36 571.372 118.08 570.839C118.453 570.572 118.98 570.385 119.66 570.279C120.327 570.159 121.233 570.099 122.38 570.099L126.8 570.099L127.18 568.559L128 568.559L128 573.379L127.18 573.379L126.8 572.039L122.34 572.039C121.473 572.039 120.827 572.065 120.4 572.119C119.973 572.159 119.64 572.239 119.4 572.359C119.08 572.519 118.84 572.752 118.68 573.059C118.507 573.352 118.42 573.705 118.42 574.119C118.42 574.892 118.667 575.559 119.16 576.119C119.653 576.665 120.42 576.965 121.46 577.019L126.8 577.019L127.18 575.679L128 575.679L128 580.499L127.18 580.499L126.8 578.959ZM127.28 563.233C127.28 562.487 127.127 561.88 126.82 561.413C126.513 560.933 126.087 560.693 125.54 560.693C125.1 560.693 124.747 560.84 124.48 561.133C124.213 561.427 124 561.793 123.84 562.233C123.667 562.66 123.52 563.093 123.4 563.533C123.227 564.08 123.027 564.607 122.8 565.113C122.56 565.62 122.233 566.033 121.82 566.353C121.407 566.673 120.86 566.833 120.18 566.833C119.22 566.833 118.453 566.487 117.88 565.793C117.293 565.087 117 564.107 117 562.853C117 561.787 117.227 560.947 117.68 560.333C118.12 559.707 118.727 559.393 119.5 559.393C119.913 559.393 120.247 559.487 120.5 559.673C120.74 559.86 120.86 560.127 120.86 560.473C120.86 560.78 120.767 561.033 120.58 561.233C120.393 561.433 120.153 561.533 119.86 561.533C119.607 561.533 119.38 561.467 119.18 561.333C118.967 561.2 118.813 561.027 118.72 560.813C118.44 561.013 118.24 561.273 118.12 561.593C117.987 561.9 117.92 562.3 117.92 562.793C117.92 563.593 118.067 564.193 118.36 564.593C118.64 564.993 119.06 565.193 119.62 565.193C120.02 565.193 120.34 565.1 120.58 564.913C120.807 564.713 121 564.427 121.16 564.053C121.32 563.68 121.487 563.22 121.66 562.673C121.793 562.22 121.947 561.773 122.12 561.333C122.28 560.893 122.48 560.493 122.72 560.133C122.96 559.773 123.26 559.487 123.62 559.273C123.98 559.06 124.427 558.953 124.96 558.953C125.64 558.953 126.227 559.14 126.72 559.513C127.2 559.887 127.567 560.4 127.82 561.053C128.073 561.707 128.2 562.46 128.2 563.313C128.2 564.487 127.96 565.433 127.48 566.153C127 566.873 126.353 567.233 125.54 567.233C125.113 567.233 124.78 567.14 124.54 566.953C124.287 566.753 124.16 566.473 124.16 566.113C124.16 565.793 124.253 565.527 124.44 565.313C124.627 565.087 124.873 564.973 125.18 564.973C125.433 564.973 125.673 565.047 125.9 565.193C126.127 565.327 126.293 565.493 126.4 565.693C126.653 565.52 126.867 565.213 127.04 564.773C127.2 564.32 127.28 563.807 127.28 563.233ZM118.4 555.795L118.02 557.335L117.2 557.335L117.2 553.855L126.8 553.855L127.18 552.315L128 552.315L128 557.335L127.18 557.335L126.8 555.795L118.4 555.795ZM113.98 556.075C113.593 556.075 113.287 555.961 113.06 555.735C112.833 555.508 112.72 555.208 112.72 554.835C112.72 554.448 112.833 554.141 113.06 553.915C113.287 553.688 113.593 553.575 113.98 553.575C114.353 553.575 114.653 553.688 114.88 553.915C115.107 554.141 115.22 554.448 115.22 554.835C115.22 555.221 115.113 555.528 114.9 555.755C114.673 555.968 114.367 556.075 113.98 556.075ZM118.2 551.644L117.48 551.644L117.2 549.704L114.68 549.444L114.44 547.764L117.2 547.764L117.2 545.204L118.2 545.204L118.2 547.764L125.34 547.764C125.793 547.764 126.107 547.758 126.28 547.744C126.44 547.731 126.573 547.704 126.68 547.664C126.773 547.624 126.84 547.551 126.88 547.444C126.907 547.338 126.92 547.164 126.92 546.924L126.92 545.524L127.5 545.524C127.74 546.164 127.913 546.731 128.02 547.224C128.14 547.704 128.2 548.091 128.2 548.384C128.2 548.984 127.953 549.371 127.46 549.544C127.3 549.598 127.093 549.638 126.84 549.664C126.587 549.691 126.213 549.704 125.72 549.704L118.2 549.704L118.2 551.644ZM118.4 534.728L127.52 538.048C128.547 538.421 129.373 538.761 130 539.068C130.64 539.374 131.1 539.714 131.38 540.088C131.66 540.461 131.8 540.941 131.8 541.528C131.8 542.154 131.633 542.694 131.3 543.148C130.967 543.588 130.547 543.808 130.04 543.808C129.667 543.808 129.353 543.701 129.1 543.488C128.86 543.274 128.74 542.994 128.74 542.648C128.74 542.341 128.82 542.101 128.98 541.928C129.153 541.741 129.387 541.648 129.68 541.648C129.867 541.648 130.047 541.688 130.22 541.768C130.393 541.834 130.547 541.928 130.68 542.048C130.813 542.021 130.9 541.941 130.94 541.808C130.993 541.674 131.02 541.561 131.02 541.468C131.02 541.281 130.973 541.108 130.88 540.948C130.787 540.788 130.587 540.621 130.28 540.448C129.987 540.261 129.52 540.061 128.88 539.848L128.14 539.608L118.4 543.748L118.02 544.948L117.2 544.948L117.2 540.468L118.02 540.308L118.4 541.728L126.24 538.748L126.24 538.668L118.4 536.148L118.02 537.308L117.2 537.308L117.2 533.508L118.02 533.508L118.4 534.728Z" fill="#C3FA50"/>
<path d="M721.018 637.5V638.885L722.399 636.115L721.489 523.5L721.686 547.962L724.239 626.423V638.885L721.018 637.5ZM721.018 637.5L715.036 638.885L712.276 458.885V349.5V636.115L708.133 641.654H704.912L701.231 634.269L699.39 641.654V560.423V484.269L697.09 474.577V360.577V502.269V598.269V636.115L688.807 641.654V574.269L686.046 571.038L684.666 553.962L686.046 584.885V623.654L668 644M721.018 637.5L729.5 641.654" stroke="#C726AD" stroke-width="3"/>
<path d="M574.241 828.79C574.241 830.176 574.381 831.456 574.661 832.63C574.941 833.803 575.335 834.843 575.841 835.75C576.348 836.643 576.948 837.37 577.641 837.93C578.335 838.49 579.101 838.856 579.941 839.03L580.461 837.93C579.621 837.756 578.881 837.27 578.241 836.47C577.615 835.67 577.128 834.616 576.781 833.31C576.435 832.003 576.261 830.51 576.261 828.83C576.261 827.163 576.441 825.67 576.801 824.35C577.161 823.016 577.661 821.93 578.301 821.09C578.955 820.25 579.708 819.73 580.561 819.53L580.141 818.55C579.261 818.763 578.455 819.17 577.721 819.77C577.001 820.37 576.381 821.123 575.861 822.03C575.341 822.936 574.941 823.963 574.661 825.11C574.381 826.243 574.241 827.47 574.241 828.79ZM584.763 838.25L586.703 838.63V839.45H581.283V838.63L582.823 838.25V826.25L581.283 825.87V825.05H584.163L584.463 826.59C584.89 825.923 585.37 825.47 585.903 825.23C586.45 824.976 587.063 824.85 587.743 824.85C588.423 824.85 589.037 824.95 589.583 825.15C590.143 825.35 590.597 825.67 590.943 826.11C591.343 826.616 591.657 827.23 591.883 827.95C592.123 828.656 592.243 829.423 592.243 830.25C592.243 831.103 592.11 831.91 591.843 832.67C591.59 833.416 591.243 834.043 590.803 834.55C590.057 835.416 588.983 835.85 587.583 835.85C587.01 835.85 586.49 835.743 586.023 835.53C585.57 835.303 585.15 834.916 584.763 834.37V838.25ZM584.743 830.27C584.743 831.056 584.803 831.743 584.923 832.33C585.043 832.916 585.217 833.39 585.443 833.75C585.657 834.083 585.917 834.343 586.223 834.53C586.543 834.716 586.95 834.81 587.443 834.81C587.897 834.81 588.29 834.73 588.623 834.57C588.97 834.396 589.25 834.163 589.463 833.87C589.703 833.536 589.877 833.07 589.983 832.47C590.09 831.87 590.143 831.183 590.143 830.41C590.143 829.623 590.083 828.943 589.963 828.37C589.843 827.796 589.67 827.323 589.443 826.95C589.23 826.603 588.963 826.343 588.643 826.17C588.337 825.983 587.93 825.89 587.423 825.89C586.97 825.89 586.57 825.97 586.223 826.13C585.89 826.276 585.63 826.503 585.443 826.81C585.23 827.17 585.057 827.643 584.923 828.23C584.803 828.803 584.743 829.483 584.743 830.27ZM597.146 838.25L599.086 838.63V839.45H593.666V838.63L595.206 838.25V826.25L593.666 825.87V825.05H596.546L596.846 826.59C597.273 825.923 597.753 825.47 598.286 825.23C598.833 824.976 599.446 824.85 600.126 824.85C600.806 824.85 601.419 824.95 601.966 825.15C602.526 825.35 602.979 825.67 603.326 826.11C603.726 826.616 604.039 827.23 604.266 827.95C604.506 828.656 604.626 829.423 604.626 830.25C604.626 831.103 604.493 831.91 604.226 832.67C603.973 833.416 603.626 834.043 603.186 834.55C602.439 835.416 601.366 835.85 599.966 835.85C599.393 835.85 598.873 835.743 598.406 835.53C597.953 835.303 597.533 834.916 597.146 834.37V838.25ZM597.126 830.27C597.126 831.056 597.186 831.743 597.306 832.33C597.426 832.916 597.599 833.39 597.826 833.75C598.039 834.083 598.299 834.343 598.606 834.53C598.926 834.716 599.333 834.81 599.826 834.81C600.279 834.81 600.673 834.73 601.006 834.57C601.353 834.396 601.633 834.163 601.846 833.87C602.086 833.536 602.259 833.07 602.366 832.47C602.473 831.87 602.526 831.183 602.526 830.41C602.526 829.623 602.466 828.943 602.346 828.37C602.226 827.796 602.053 827.323 601.826 826.95C601.613 826.603 601.346 826.343 601.026 826.17C600.719 825.983 600.313 825.89 599.806 825.89C599.353 825.89 598.953 825.97 598.606 826.13C598.273 826.276 598.013 826.503 597.826 826.81C597.613 827.17 597.439 827.643 597.306 828.23C597.186 828.803 597.126 829.483 597.126 830.27ZM607.809 834.65V826.25L606.269 825.87V825.05H609.149L609.589 827.05H609.669C610.055 826.383 610.569 825.85 611.209 825.45C611.862 825.05 612.555 824.85 613.289 824.85C613.835 824.85 614.322 824.956 614.749 825.17C615.175 825.37 615.489 825.623 615.689 825.93C615.902 826.263 616.075 826.703 616.209 827.25C616.635 826.503 617.189 825.916 617.869 825.49C618.549 825.063 619.275 824.85 620.049 824.85C620.582 824.85 621.062 824.956 621.489 825.17C621.915 825.37 622.242 825.65 622.469 826.01C622.629 826.263 622.755 826.59 622.849 826.99C622.942 827.39 623.009 827.91 623.049 828.55C623.089 829.176 623.109 829.976 623.109 830.95V834.65L624.649 835.03V835.85H619.829V835.03L621.169 834.65V830.19C621.169 829.323 621.142 828.676 621.089 828.25C621.049 827.823 620.969 827.49 620.849 827.25C620.689 826.93 620.462 826.69 620.169 826.53C619.889 826.356 619.555 826.27 619.169 826.27C618.835 826.27 618.509 826.336 618.189 826.47C617.869 826.603 617.582 826.783 617.329 827.01C617.035 827.276 616.815 827.59 616.669 827.95C616.535 828.31 616.455 828.763 616.429 829.31V834.65L617.769 835.03V835.85H613.149V835.03L614.489 834.65V830.19C614.489 829.323 614.462 828.676 614.409 828.25C614.369 827.823 614.289 827.49 614.169 827.25C614.009 826.93 613.782 826.69 613.489 826.53C613.209 826.356 612.875 826.27 612.489 826.27C612.155 826.27 611.829 826.336 611.509 826.47C611.189 826.603 610.902 826.783 610.649 827.01C610.355 827.276 610.135 827.59 609.989 827.95C609.855 828.31 609.775 828.763 609.749 829.31V834.65L611.089 835.03V835.85H606.269V835.03L607.809 834.65ZM630.995 828.79C630.995 827.47 630.855 826.243 630.575 825.11C630.295 823.963 629.895 822.936 629.375 822.03C628.855 821.123 628.228 820.37 627.495 819.77C626.775 819.17 625.975 818.763 625.095 818.55L624.675 819.53C625.542 819.73 626.295 820.25 626.935 821.09C627.575 821.93 628.075 823.016 628.435 824.35C628.795 825.67 628.975 827.163 628.975 828.83C628.975 830.51 628.795 832.003 628.435 833.31C628.088 834.616 627.602 835.67 626.975 836.47C626.348 837.27 625.615 837.756 624.775 837.93L625.295 839.03C626.135 838.856 626.902 838.49 627.595 837.93C628.288 837.37 628.888 836.643 629.395 835.75C629.902 834.843 630.295 833.803 630.575 832.63C630.855 831.456 630.995 830.176 630.995 828.79Z" fill="white"/>
<path d="M546.842 824.64C546.842 823.802 547.171 823.13 547.829 822.623C548.487 822.112 549.399 821.856 550.563 821.856C551.075 821.856 551.532 821.899 551.934 821.984C552.341 822.069 552.765 822.197 553.205 822.367V824.044C552.921 823.93 552.535 823.807 552.048 823.674C551.56 823.542 551.075 823.475 550.592 823.475C550.024 823.475 549.588 823.584 549.285 823.802C548.982 824.015 548.83 824.29 548.83 824.626C548.83 824.796 548.885 824.981 548.994 825.18C549.107 825.379 549.318 825.585 549.626 825.798C549.938 826.011 550.393 826.226 550.99 826.444C552.424 826.955 553.468 827.666 554.122 828.575C554.78 829.484 555.109 830.592 555.109 831.899V832.098C555.109 833.073 554.919 833.951 554.541 834.732C554.167 835.514 553.627 836.132 552.921 836.586C552.221 837.041 551.378 837.268 550.393 837.268C549.389 837.268 548.532 837.041 547.822 836.586C547.116 836.132 546.577 835.514 546.203 834.732C545.833 833.951 545.649 833.073 545.649 832.098V831.899C545.649 831.141 545.793 830.447 546.082 829.818C546.371 829.188 546.757 828.66 547.24 828.234C547.722 827.808 548.253 827.524 548.83 827.382V827.325C548.22 827.083 547.734 826.733 547.374 826.274C547.019 825.814 546.842 825.27 546.842 824.64ZM547.609 831.899V832.098C547.609 832.751 547.706 833.352 547.9 833.902C548.099 834.446 548.402 834.884 548.809 835.215C549.221 835.542 549.749 835.705 550.393 835.705C551.027 835.705 551.548 835.542 551.955 835.215C552.363 834.884 552.663 834.446 552.857 833.902C553.052 833.352 553.149 832.751 553.149 832.098V831.899C553.149 831.368 553.035 830.845 552.808 830.329C552.58 829.808 552.261 829.358 551.849 828.98C551.437 828.596 550.952 828.348 550.393 828.234C549.749 828.234 549.221 828.404 548.809 828.745C548.402 829.081 548.099 829.529 547.9 830.088C547.706 830.642 547.609 831.245 547.609 831.899Z" fill="white"/>
<path d="M671.063 159.908C669.619 159.908 668.38 160.131 667.348 160.577C666.346 161.023 665.491 161.722 664.783 162.673C663.899 163.833 663.206 165.364 662.705 167.266C662.204 169.139 661.953 171.206 661.953 173.465C661.953 175.576 662.174 177.553 662.616 179.397C663.059 181.24 663.678 182.786 664.474 184.034C665.27 185.283 666.228 186.205 667.348 186.799C668.498 187.364 669.928 187.647 671.638 187.647C676.945 187.647 680.026 185.135 680.881 180.11H683.313C681.987 187.037 677.948 190.501 671.196 190.501C667.127 190.501 663.884 189.312 661.467 186.933C660.022 185.506 658.916 183.707 658.15 181.537C657.383 179.367 657 176.959 657 174.313C657 171.31 657.486 168.589 658.459 166.152C659.432 163.714 660.803 161.766 662.572 160.31C664.813 158.437 667.776 157.5 671.461 157.5C673.289 157.5 674.778 157.738 675.928 158.214C677.078 158.689 678.213 159.537 679.333 160.755L680.218 157.946H682.65V167.802H679.952C679.54 165.185 678.581 163.223 677.078 161.915C675.604 160.577 673.599 159.908 671.063 159.908Z" fill="#C726AD"/>
<path d="M714.562 160.8V187.201L718.277 188.137V190.055H706.425V188.137L710.14 187.201V174.848H695.148V187.201L698.862 188.137V190.055H687.01V188.137L690.725 187.201V160.8L687.01 159.864V157.946H698.862V159.864L695.148 160.8V172.261H710.14V160.8L706.425 159.864V157.946H718.277V159.864L714.562 160.8Z" fill="#C726AD"/>
<path d="M724.678 187.914H730.383L730.869 185.595H732.107V190.055H722.511V188.717C722.511 187.885 722.746 187.141 723.218 186.487C723.69 185.803 724.28 185.164 724.987 184.57C725.695 183.975 726.402 183.395 727.11 182.83C727.818 182.236 728.407 181.611 728.879 180.957C729.351 180.303 729.586 179.575 729.586 178.772C729.586 178.148 729.351 177.672 728.879 177.345C728.407 176.988 727.744 176.81 726.889 176.81C726.358 176.81 725.901 176.869 725.518 176.988C725.135 177.107 724.81 177.286 724.545 177.523C724.309 177.761 724.147 178.059 724.058 178.415C724.471 178.415 724.796 178.519 725.031 178.728C725.267 178.936 725.385 179.233 725.385 179.619C725.385 180.006 725.267 180.318 725.031 180.556C724.825 180.764 724.515 180.868 724.103 180.868C723.631 180.868 723.277 180.734 723.041 180.467C722.835 180.199 722.732 179.783 722.732 179.218C722.732 178.059 723.144 177.137 723.97 176.453C724.825 175.74 725.931 175.383 727.287 175.383C728.673 175.383 729.793 175.74 730.648 176.453C731.503 177.137 731.93 178.074 731.93 179.263C731.93 180.214 731.68 181.047 731.179 181.76C730.707 182.444 730.102 183.053 729.365 183.589C728.658 184.124 727.935 184.614 727.198 185.06C726.491 185.506 725.886 185.952 725.385 186.398C724.913 186.844 724.678 187.349 724.678 187.914Z" fill="#C726AD"/>
<defs>
<filter id="filter0_d_676_5716" x="787" y="488.5" width="115.5" height="160.344" filterUnits="userSpaceOnUse" color-interpolation-filters="sRGB">
<feFlood flood-opacity="0" result="BackgroundImageFix"/>
<feColorMatrix in="SourceAlpha" type="matrix" values="0 0 0 0 0 0 0 0 0 0 0 0 0 0 0 0 0 0 127 0" result="hardAlpha"/>
<feOffset dy="4"/>
<feGaussianBlur stdDeviation="2"/>
<feComposite in2="hardAlpha" operator="out"/>
<feColorMatrix type="matrix" values="0 0 0 0 0 0 0 0 0 0 0 0 0 0 0 0 0 0 0.25 0"/>
<feBlend mode="normal" in2="BackgroundImageFix" result="effect1_dropShadow_676_5716"/>
<feBlend mode="normal" in="SourceGraphic" in2="effect1_dropShadow_676_5716" result="shape"/>
</filter>
<filter id="filter1_d_676_5716" x="786.393" y="487.5" width="43.543" height="161.496" filterUnits="userSpaceOnUse" color-interpolation-filters="sRGB">
<feFlood flood-opacity="0" result="BackgroundImageFix"/>
<feColorMatrix in="SourceAlpha" type="matrix" values="0 0 0 0 0 0 0 0 0 0 0 0 0 0 0 0 0 0 127 0" result="hardAlpha"/>
<feOffset dy="4"/>
<feGaussianBlur stdDeviation="2"/>
<feComposite in2="hardAlpha" operator="out"/>
<feColorMatrix type="matrix" values="0 0 0 0 0 0 0 0 0 0 0 0 0 0 0 0 0 0 0.25 0"/>
<feBlend mode="normal" in2="BackgroundImageFix" result="effect1_dropShadow_676_5716"/>
<feBlend mode="normal" in="SourceGraphic" in2="effect1_dropShadow_676_5716" result="shape"/>
</filter>
</defs>
</svg>
