<svg width="1123" height="901" viewBox="0 0 1123 901" fill="none" xmlns="http://www.w3.org/2000/svg">
<rect width="1122" height="900" transform="translate(0.5 0.455078)" fill="#0C0C31"/>
<g filter="url(#filter0_d_854_7254)">
<path d="M727.254 639.802L795.491 639.851H811.062L813.81 622.385V536.216L815.642 531.175V489.007V526.133L817.474 523.841L818.848 639.851H826.175H830.297H898.077M152.5 639.851L685.578 639.802M946.164 639.851H984.633H1023.1" stroke="#C3FA50" stroke-width="3"/>
</g>
<path d="M899.5 641.455L905.038 613.479V390.126L907.346 622.053L910.577 624.309L913.808 639.199H918.423V624.309L920.731 616.187V567.004M916.115 123.455L920.731 567.004M947.5 639.199H941.962H938.269L934.115 630.626L931.808 419.906L934.115 624.309V628.37L931.808 639.199L929.5 636.943L924.423 634.687V628.37L920.731 567.004" stroke="#C3FA50" stroke-width="3"/>
<path d="M684.205 639.802L685.579 639.344L686.953 637.969V620.093V581.592L685.579 550.883L686.953 567.842L689.701 571.05V637.969H697.944V594.884V499.548V358.836V472.048L700.234 481.673V557.3V637.969L702.066 630.635L705.73 637.969H708.936L713.058 632.468V347.836V456.464L715.805 635.219L719.011 639.344L721.759 635.219L723.134 632.468L722.227 520.632L722.424 544.924L724.964 622.843V635.219L727.712 639.802" stroke="#C3FA50" stroke-width="3"/>
<path d="M145.334 681.79L1025.33 681.79" stroke="white" stroke-width="2"/>
<line x1="588.643" y1="681.651" x2="588.643" y2="703.922" stroke="white" stroke-width="2"/>
<line x1="411.631" y1="681.651" x2="411.631" y2="703.922" stroke="white" stroke-width="2"/>
<line x1="234.617" y1="681.651" x2="234.617" y2="703.922" stroke="white" stroke-width="2"/>
<line x1="144.932" y1="680.538" x2="144.932" y2="702.808" stroke="white" stroke-width="2"/>
<line x1="855.342" y1="681.651" x2="855.342" y2="703.922" stroke="white" stroke-width="2"/>
<line x1="678.328" y1="681.651" x2="678.328" y2="703.922" stroke="white" stroke-width="2"/>
<line x1="501.316" y1="681.651" x2="501.316" y2="703.922" stroke="white" stroke-width="2"/>
<line x1="323.125" y1="681.651" x2="323.125" y2="703.922" stroke="white" stroke-width="2"/>
<line x1="945.027" y1="681.651" x2="945.027" y2="703.922" stroke="white" stroke-width="2"/>
<line x1="1024.09" y1="681.651" x2="1024.09" y2="703.922" stroke="white" stroke-width="2"/>
<line x1="766.836" y1="681.651" x2="766.836" y2="703.922" stroke="white" stroke-width="2"/>
<path d="M223.556 724.995C223.556 725.928 223.776 726.702 224.216 727.315C224.656 727.915 225.363 728.215 226.336 728.215C226.803 728.215 227.31 728.062 227.856 727.755C228.416 727.448 228.943 726.955 229.436 726.275C229.356 724.928 229.043 723.842 228.496 723.015C227.963 722.188 227.176 721.775 226.136 721.775C225.656 721.775 225.216 721.922 224.816 722.215C224.43 722.495 224.123 722.875 223.896 723.355C223.67 723.835 223.556 724.382 223.556 724.995ZM225.636 734.275C225.05 734.275 224.53 734.162 224.076 733.935C223.636 733.708 223.256 733.408 222.936 733.035L223.476 732.435C223.756 732.782 224.083 733.048 224.456 733.235C224.843 733.408 225.243 733.495 225.656 733.495C226.336 733.495 226.963 733.295 227.536 732.895C228.11 732.495 228.57 731.835 228.916 730.915C229.276 729.995 229.456 728.755 229.456 727.195C229.016 727.728 228.516 728.155 227.956 728.475C227.396 728.795 226.816 728.955 226.216 728.955C225.11 728.955 224.243 728.622 223.616 727.955C222.99 727.275 222.676 726.288 222.676 724.995C222.676 724.222 222.836 723.535 223.156 722.935C223.476 722.335 223.903 721.868 224.436 721.535C224.97 721.188 225.55 721.015 226.176 721.015C227.443 721.015 228.45 721.535 229.196 722.575C229.956 723.602 230.336 725.088 230.336 727.035C230.336 728.822 230.116 730.248 229.676 731.315C229.236 732.368 228.656 733.128 227.936 733.595C227.23 734.048 226.463 734.275 225.636 734.275ZM233.587 734.275C233.373 734.275 233.173 734.195 232.987 734.035C232.813 733.875 232.727 733.655 232.727 733.375C232.727 733.082 232.813 732.855 232.987 732.695C233.173 732.535 233.373 732.455 233.587 732.455C233.813 732.455 234.007 732.535 234.167 732.695C234.34 732.855 234.427 733.082 234.427 733.375C234.427 733.655 234.34 733.875 234.167 734.035C234.007 734.195 233.813 734.275 233.587 734.275ZM240.542 734.275C239.328 734.275 238.388 733.695 237.722 732.535C237.055 731.375 236.722 729.728 236.722 727.595C236.722 725.475 237.055 723.848 237.722 722.715C238.388 721.582 239.328 721.015 240.542 721.015C241.768 721.015 242.708 721.582 243.362 722.715C244.028 723.848 244.362 725.475 244.362 727.595C244.362 729.728 244.028 731.375 243.362 732.535C242.708 733.695 241.768 734.275 240.542 734.275ZM240.542 733.515C241.435 733.515 242.142 733.015 242.662 732.015C243.195 731.015 243.462 729.542 243.462 727.595C243.462 725.648 243.195 724.195 242.662 723.235C242.142 722.262 241.435 721.775 240.542 721.775C239.662 721.775 238.955 722.262 238.422 723.235C237.888 724.195 237.622 725.648 237.622 727.595C237.622 729.542 237.888 731.015 238.422 732.015C238.955 733.015 239.662 733.515 240.542 733.515Z" fill="white"/>
<path d="M129.09 734.035V733.255H132.09V722.655H129.81V722.055C130.33 721.962 130.797 721.848 131.21 721.715C131.623 721.582 131.977 721.428 132.27 721.255H132.99V733.255H135.77V734.035H129.09ZM141.76 734.275C140.547 734.275 139.607 733.695 138.94 732.535C138.274 731.375 137.94 729.728 137.94 727.595C137.94 725.475 138.274 723.848 138.94 722.715C139.607 721.582 140.547 721.015 141.76 721.015C142.987 721.015 143.927 721.582 144.58 722.715C145.247 723.848 145.58 725.475 145.58 727.595C145.58 729.728 145.247 731.375 144.58 732.535C143.927 733.695 142.987 734.275 141.76 734.275ZM141.76 733.515C142.654 733.515 143.36 733.015 143.88 732.015C144.414 731.015 144.68 729.542 144.68 727.595C144.68 725.648 144.414 724.195 143.88 723.235C143.36 722.262 142.654 721.775 141.76 721.775C140.88 721.775 140.174 722.262 139.64 723.235C139.107 724.195 138.84 725.648 138.84 727.595C138.84 729.542 139.107 731.015 139.64 732.015C140.174 733.015 140.88 733.515 141.76 733.515ZM148.751 734.275C148.537 734.275 148.337 734.195 148.151 734.035C147.977 733.875 147.891 733.655 147.891 733.375C147.891 733.082 147.977 732.855 148.151 732.695C148.337 732.535 148.537 732.455 148.751 732.455C148.977 732.455 149.171 732.535 149.331 732.695C149.504 732.855 149.591 733.082 149.591 733.375C149.591 733.655 149.504 733.875 149.331 734.035C149.171 734.195 148.977 734.275 148.751 734.275ZM155.706 734.275C154.492 734.275 153.552 733.695 152.886 732.535C152.219 731.375 151.886 729.728 151.886 727.595C151.886 725.475 152.219 723.848 152.886 722.715C153.552 721.582 154.492 721.015 155.706 721.015C156.932 721.015 157.872 721.582 158.526 722.715C159.192 723.848 159.526 725.475 159.526 727.595C159.526 729.728 159.192 731.375 158.526 732.535C157.872 733.695 156.932 734.275 155.706 734.275ZM155.706 733.515C156.599 733.515 157.306 733.015 157.826 732.015C158.359 731.015 158.626 729.542 158.626 727.595C158.626 725.648 158.359 724.195 157.826 723.235C157.306 722.262 156.599 721.775 155.706 721.775C154.826 721.775 154.119 722.262 153.586 723.235C153.052 724.195 152.786 725.648 152.786 727.595C152.786 729.542 153.052 731.015 153.586 732.015C154.119 733.015 154.826 733.515 155.706 733.515Z" fill="white"/>
<path d="M316.362 733.161C315.589 733.161 314.895 733.008 314.282 732.701C313.669 732.395 313.182 731.975 312.822 731.441C312.475 730.908 312.302 730.308 312.302 729.641C312.302 729.068 312.429 728.548 312.682 728.081C312.949 727.615 313.275 727.215 313.662 726.881C314.062 726.535 314.462 726.255 314.862 726.041V725.961C314.395 725.655 313.969 725.261 313.582 724.781C313.209 724.288 313.022 723.701 313.022 723.021C313.022 722.408 313.169 721.868 313.462 721.401C313.769 720.935 314.175 720.568 314.682 720.301C315.189 720.035 315.749 719.901 316.362 719.901C317.455 719.901 318.302 720.221 318.902 720.861C319.515 721.488 319.822 722.281 319.822 723.241C319.822 723.708 319.722 724.155 319.522 724.581C319.322 724.995 319.082 725.368 318.802 725.701C318.522 726.021 318.255 726.281 318.002 726.481V726.561C318.375 726.788 318.729 727.048 319.062 727.341C319.409 727.621 319.689 727.961 319.902 728.361C320.129 728.761 320.242 729.248 320.242 729.821C320.242 730.435 320.075 730.995 319.742 731.501C319.422 732.008 318.969 732.415 318.382 732.721C317.809 733.015 317.135 733.161 316.362 733.161ZM317.302 726.221C317.849 725.781 318.262 725.315 318.542 724.821C318.835 724.328 318.982 723.808 318.982 723.261C318.982 722.555 318.749 721.941 318.282 721.421C317.829 720.901 317.189 720.641 316.362 720.641C315.655 720.641 315.069 720.868 314.602 721.321C314.135 721.761 313.902 722.328 313.902 723.021C313.902 723.621 314.069 724.121 314.402 724.521C314.735 724.908 315.162 725.235 315.682 725.501C316.202 725.755 316.742 725.995 317.302 726.221ZM316.362 732.421C317.269 732.421 317.989 732.168 318.522 731.661C319.069 731.155 319.342 730.535 319.342 729.801C319.342 729.148 319.155 728.621 318.782 728.221C318.409 727.808 317.922 727.461 317.322 727.181C316.735 726.901 316.109 726.635 315.442 726.381C314.789 726.755 314.249 727.208 313.822 727.741C313.395 728.275 313.182 728.895 313.182 729.601C313.182 730.135 313.315 730.615 313.582 731.041C313.862 731.455 314.242 731.788 314.722 732.041C315.202 732.295 315.749 732.421 316.362 732.421ZM323.272 733.161C323.059 733.161 322.859 733.081 322.672 732.921C322.499 732.761 322.412 732.541 322.412 732.261C322.412 731.968 322.499 731.741 322.672 731.581C322.859 731.421 323.059 731.341 323.272 731.341C323.499 731.341 323.692 731.421 323.852 731.581C324.026 731.741 324.112 731.968 324.112 732.261C324.112 732.541 324.026 732.761 323.852 732.921C323.692 733.081 323.499 733.161 323.272 733.161ZM330.227 733.161C329.014 733.161 328.074 732.581 327.407 731.421C326.741 730.261 326.407 728.615 326.407 726.481C326.407 724.361 326.741 722.735 327.407 721.601C328.074 720.468 329.014 719.901 330.227 719.901C331.454 719.901 332.394 720.468 333.047 721.601C333.714 722.735 334.047 724.361 334.047 726.481C334.047 728.615 333.714 730.261 333.047 731.421C332.394 732.581 331.454 733.161 330.227 733.161ZM330.227 732.401C331.121 732.401 331.827 731.901 332.347 730.901C332.881 729.901 333.147 728.428 333.147 726.481C333.147 724.535 332.881 723.081 332.347 722.121C331.827 721.148 331.121 720.661 330.227 720.661C329.347 720.661 328.641 721.148 328.107 722.121C327.574 723.081 327.307 724.535 327.307 726.481C327.307 728.428 327.574 729.901 328.107 730.901C328.641 731.901 329.347 732.401 330.227 732.401Z" fill="white"/>
<path d="M404.949 732.921C405.016 731.201 405.189 729.661 405.469 728.301C405.749 726.941 406.163 725.675 406.709 724.501C407.256 723.315 407.956 722.121 408.809 720.921H402.069V720.141H409.929V720.661C409.169 721.675 408.536 722.655 408.029 723.601C407.536 724.535 407.143 725.481 406.849 726.441C406.556 727.401 406.336 728.408 406.189 729.461C406.056 730.515 405.963 731.668 405.909 732.921H404.949ZM412.96 733.161C412.746 733.161 412.546 733.081 412.36 732.921C412.186 732.761 412.1 732.541 412.1 732.261C412.1 731.968 412.186 731.741 412.36 731.581C412.546 731.421 412.746 731.341 412.96 731.341C413.186 731.341 413.38 731.421 413.54 731.581C413.713 731.741 413.8 731.968 413.8 732.261C413.8 732.541 413.713 732.761 413.54 732.921C413.38 733.081 413.186 733.161 412.96 733.161ZM419.915 733.161C418.701 733.161 417.761 732.581 417.095 731.421C416.428 730.261 416.095 728.615 416.095 726.481C416.095 724.361 416.428 722.735 417.095 721.601C417.761 720.468 418.701 719.901 419.915 719.901C421.141 719.901 422.081 720.468 422.735 721.601C423.401 722.735 423.735 724.361 423.735 726.481C423.735 728.615 423.401 730.261 422.735 731.421C422.081 732.581 421.141 733.161 419.915 733.161ZM419.915 732.401C420.808 732.401 421.515 731.901 422.035 730.901C422.568 729.901 422.835 728.428 422.835 726.481C422.835 724.535 422.568 723.081 422.035 722.121C421.515 721.148 420.808 720.661 419.915 720.661C419.035 720.661 418.328 721.148 417.795 722.121C417.261 723.081 416.995 724.535 416.995 726.481C416.995 728.428 417.261 729.901 417.795 730.901C418.328 731.901 419.035 732.401 419.915 732.401Z" fill="white"/>
<path d="M493.576 725.961C493.122 725.961 492.622 726.108 492.076 726.401C491.529 726.681 490.996 727.175 490.476 727.881C490.556 729.228 490.862 730.321 491.396 731.161C491.929 731.988 492.716 732.401 493.756 732.401C494.249 732.401 494.689 732.261 495.076 731.981C495.462 731.688 495.769 731.301 495.996 730.821C496.222 730.328 496.336 729.775 496.336 729.161C496.336 728.241 496.116 727.481 495.676 726.881C495.249 726.268 494.549 725.961 493.576 725.961ZM493.736 733.161C492.456 733.161 491.436 732.641 490.676 731.601C489.929 730.548 489.556 729.055 489.556 727.121C489.556 725.775 489.682 724.641 489.936 723.721C490.189 722.801 490.536 722.061 490.976 721.501C491.416 720.941 491.916 720.535 492.476 720.281C493.049 720.028 493.642 719.901 494.256 719.901C494.856 719.901 495.369 720.015 495.796 720.241C496.236 720.468 496.622 720.768 496.956 721.141L496.416 721.741C496.136 721.395 495.809 721.135 495.436 720.961C495.062 720.775 494.669 720.681 494.256 720.681C493.576 720.681 492.942 720.881 492.356 721.281C491.782 721.681 491.322 722.341 490.976 723.261C490.629 724.181 490.456 725.421 490.456 726.981C490.896 726.435 491.396 726.001 491.956 725.681C492.516 725.361 493.089 725.201 493.676 725.201C494.796 725.201 495.669 725.541 496.296 726.221C496.922 726.888 497.236 727.868 497.236 729.161C497.236 729.935 497.076 730.621 496.756 731.221C496.436 731.821 496.009 732.295 495.476 732.641C494.956 732.988 494.376 733.161 493.736 733.161ZM500.286 733.161C500.073 733.161 499.873 733.081 499.686 732.921C499.513 732.761 499.426 732.541 499.426 732.261C499.426 731.968 499.513 731.741 499.686 731.581C499.873 731.421 500.073 731.341 500.286 731.341C500.513 731.341 500.706 731.421 500.866 731.581C501.039 731.741 501.126 731.968 501.126 732.261C501.126 732.541 501.039 732.761 500.866 732.921C500.706 733.081 500.513 733.161 500.286 733.161ZM507.241 733.161C506.028 733.161 505.088 732.581 504.421 731.421C503.754 730.261 503.421 728.615 503.421 726.481C503.421 724.361 503.754 722.735 504.421 721.601C505.088 720.468 506.028 719.901 507.241 719.901C508.468 719.901 509.408 720.468 510.061 721.601C510.728 722.735 511.061 724.361 511.061 726.481C511.061 728.615 510.728 730.261 510.061 731.421C509.408 732.581 508.468 733.161 507.241 733.161ZM507.241 732.401C508.134 732.401 508.841 731.901 509.361 730.901C509.894 729.901 510.161 728.428 510.161 726.481C510.161 724.535 509.894 723.081 509.361 722.121C508.841 721.148 508.134 720.661 507.241 720.661C506.361 720.661 505.654 721.148 505.121 722.121C504.588 723.081 504.321 724.535 504.321 726.481C504.321 728.428 504.588 729.901 505.121 730.901C505.654 731.901 506.361 732.401 507.241 732.401Z" fill="white"/>
<path d="M580.382 733.161C579.702 733.161 579.108 733.075 578.602 732.901C578.108 732.728 577.682 732.508 577.322 732.241C576.962 731.975 576.642 731.708 576.362 731.441L576.862 730.821C577.248 731.208 577.708 731.568 578.242 731.901C578.788 732.221 579.495 732.381 580.362 732.381C580.935 732.381 581.462 732.241 581.942 731.961C582.422 731.668 582.808 731.261 583.102 730.741C583.395 730.221 583.542 729.621 583.542 728.941C583.542 727.915 583.255 727.108 582.682 726.521C582.122 725.935 581.368 725.641 580.422 725.641C579.928 725.641 579.502 725.721 579.142 725.881C578.795 726.028 578.428 726.235 578.042 726.501L577.422 726.121L577.882 720.141H583.782V720.921H578.682L578.282 725.541C578.615 725.341 578.962 725.181 579.322 725.061C579.682 724.928 580.095 724.861 580.562 724.861C581.282 724.861 581.935 725.008 582.522 725.301C583.122 725.581 583.595 726.021 583.942 726.621C584.288 727.208 584.462 727.968 584.462 728.901C584.462 729.808 584.262 730.581 583.862 731.221C583.475 731.848 582.968 732.328 582.342 732.661C581.728 732.995 581.075 733.161 580.382 733.161ZM587.612 733.161C587.399 733.161 587.199 733.081 587.012 732.921C586.839 732.761 586.752 732.541 586.752 732.261C586.752 731.968 586.839 731.741 587.012 731.581C587.199 731.421 587.399 731.341 587.612 731.341C587.839 731.341 588.032 731.421 588.192 731.581C588.365 731.741 588.452 731.968 588.452 732.261C588.452 732.541 588.365 732.761 588.192 732.921C588.032 733.081 587.839 733.161 587.612 733.161ZM594.567 733.161C593.354 733.161 592.414 732.581 591.747 731.421C591.08 730.261 590.747 728.615 590.747 726.481C590.747 724.361 591.08 722.735 591.747 721.601C592.414 720.468 593.354 719.901 594.567 719.901C595.794 719.901 596.734 720.468 597.387 721.601C598.054 722.735 598.387 724.361 598.387 726.481C598.387 728.615 598.054 730.261 597.387 731.421C596.734 732.581 595.794 733.161 594.567 733.161ZM594.567 732.401C595.46 732.401 596.167 731.901 596.687 730.901C597.22 729.901 597.487 728.428 597.487 726.481C597.487 724.535 597.22 723.081 596.687 722.121C596.167 721.148 595.46 720.661 594.567 720.661C593.687 720.661 592.98 721.148 592.447 722.121C591.914 723.081 591.647 724.535 591.647 726.481C591.647 728.428 591.914 729.901 592.447 730.901C592.98 731.901 593.687 732.401 594.567 732.401Z" fill="white"/>
<path d="M666.927 728.341H671.727V723.661C671.727 723.368 671.734 723.001 671.747 722.561C671.774 722.121 671.794 721.755 671.807 721.461H671.727C671.567 721.728 671.401 721.988 671.227 722.241C671.054 722.495 670.874 722.768 670.687 723.061L666.927 728.341ZM671.727 732.921V729.101H665.847V728.581L671.787 720.141H672.587V728.341H674.487V729.101H672.587V732.921H671.727ZM677.298 733.161C677.084 733.161 676.884 733.081 676.698 732.921C676.524 732.761 676.438 732.541 676.438 732.261C676.438 731.968 676.524 731.741 676.698 731.581C676.884 731.421 677.084 731.341 677.298 731.341C677.524 731.341 677.718 731.421 677.878 731.581C678.051 731.741 678.138 731.968 678.138 732.261C678.138 732.541 678.051 732.761 677.878 732.921C677.718 733.081 677.524 733.161 677.298 733.161ZM684.253 733.161C683.039 733.161 682.099 732.581 681.433 731.421C680.766 730.261 680.433 728.615 680.433 726.481C680.433 724.361 680.766 722.735 681.433 721.601C682.099 720.468 683.039 719.901 684.253 719.901C685.479 719.901 686.419 720.468 687.073 721.601C687.739 722.735 688.073 724.361 688.073 726.481C688.073 728.615 687.739 730.261 687.073 731.421C686.419 732.581 685.479 733.161 684.253 733.161ZM684.253 732.401C685.146 732.401 685.853 731.901 686.373 730.901C686.906 729.901 687.173 728.428 687.173 726.481C687.173 724.535 686.906 723.081 686.373 722.121C685.853 721.148 685.146 720.661 684.253 720.661C683.373 720.661 682.666 721.148 682.133 722.121C681.599 723.081 681.333 724.535 681.333 726.481C681.333 728.428 681.599 729.901 682.133 730.901C682.666 731.901 683.373 732.401 684.253 732.401Z" fill="white"/>
<path d="M757.494 733.161C756.814 733.161 756.22 733.075 755.714 732.901C755.207 732.715 754.767 732.481 754.394 732.201C754.034 731.921 753.714 731.641 753.434 731.361L753.954 730.741C754.34 731.155 754.807 731.535 755.354 731.881C755.9 732.215 756.614 732.381 757.494 732.381C758.36 732.381 759.074 732.128 759.634 731.621C760.194 731.101 760.474 730.415 760.474 729.561C760.474 728.681 760.127 727.968 759.434 727.421C758.754 726.875 757.614 726.601 756.014 726.601V725.821C757 725.821 757.787 725.701 758.374 725.461C758.96 725.208 759.38 724.868 759.634 724.441C759.887 724.015 760.014 723.548 760.014 723.041C760.014 722.321 759.78 721.748 759.314 721.321C758.847 720.881 758.22 720.661 757.434 720.661C756.847 720.661 756.3 720.801 755.794 721.081C755.3 721.348 754.867 721.675 754.494 722.061L753.974 721.461C754.414 721.035 754.914 720.668 755.474 720.361C756.047 720.055 756.7 719.901 757.434 719.901C758.1 719.901 758.694 720.021 759.214 720.261C759.747 720.501 760.167 720.855 760.474 721.321C760.78 721.775 760.934 722.328 760.934 722.981C760.934 723.821 760.7 724.501 760.234 725.021C759.78 725.528 759.2 725.901 758.494 726.141V726.221C759.027 726.328 759.507 726.535 759.934 726.841C760.374 727.135 760.727 727.508 760.994 727.961C761.26 728.415 761.394 728.941 761.394 729.541C761.394 730.275 761.22 730.915 760.874 731.461C760.527 732.008 760.06 732.428 759.474 732.721C758.887 733.015 758.227 733.161 757.494 733.161ZM764.624 733.161C764.41 733.161 764.21 733.081 764.024 732.921C763.85 732.761 763.764 732.541 763.764 732.261C763.764 731.968 763.85 731.741 764.024 731.581C764.21 731.421 764.41 731.341 764.624 731.341C764.85 731.341 765.044 731.421 765.204 731.581C765.377 731.741 765.464 731.968 765.464 732.261C765.464 732.541 765.377 732.761 765.204 732.921C765.044 733.081 764.85 733.161 764.624 733.161ZM771.579 733.161C770.365 733.161 769.425 732.581 768.759 731.421C768.092 730.261 767.759 728.615 767.759 726.481C767.759 724.361 768.092 722.735 768.759 721.601C769.425 720.468 770.365 719.901 771.579 719.901C772.805 719.901 773.745 720.468 774.399 721.601C775.065 722.735 775.399 724.361 775.399 726.481C775.399 728.615 775.065 730.261 774.399 731.421C773.745 732.581 772.805 733.161 771.579 733.161ZM771.579 732.401C772.472 732.401 773.179 731.901 773.699 730.901C774.232 729.901 774.499 728.428 774.499 726.481C774.499 724.535 774.232 723.081 773.699 722.121C773.179 721.148 772.472 720.661 771.579 720.661C770.699 720.661 769.992 721.148 769.459 722.121C768.925 723.081 768.659 724.535 768.659 726.481C768.659 728.428 768.925 729.901 769.459 730.901C769.992 731.901 770.699 732.401 771.579 732.401Z" fill="white"/>
<path d="M843.361 732.921V732.361C844.761 730.935 845.928 729.701 846.861 728.661C847.794 727.608 848.494 726.668 848.961 725.841C849.428 725.015 849.661 724.235 849.661 723.501C849.661 722.701 849.434 722.028 848.981 721.481C848.541 720.935 847.841 720.661 846.881 720.661C846.308 720.661 845.761 720.821 845.241 721.141C844.734 721.461 844.288 721.861 843.901 722.341L843.321 721.781C843.801 721.248 844.334 720.801 844.921 720.441C845.508 720.081 846.188 719.901 846.961 719.901C848.108 719.901 848.994 720.228 849.621 720.881C850.248 721.535 850.561 722.401 850.561 723.481C850.561 724.321 850.314 725.175 849.821 726.041C849.341 726.908 848.661 727.841 847.781 728.841C846.914 729.841 845.888 730.968 844.701 732.221C845.048 732.195 845.401 732.175 845.761 732.161C846.134 732.135 846.494 732.121 846.841 732.121H851.201V732.921H843.361ZM854.311 733.161C854.098 733.161 853.898 733.081 853.711 732.921C853.538 732.761 853.451 732.541 853.451 732.261C853.451 731.968 853.538 731.741 853.711 731.581C853.898 731.421 854.098 731.341 854.311 731.341C854.538 731.341 854.731 731.421 854.891 731.581C855.065 731.741 855.151 731.968 855.151 732.261C855.151 732.541 855.065 732.761 854.891 732.921C854.731 733.081 854.538 733.161 854.311 733.161ZM861.266 733.161C860.053 733.161 859.113 732.581 858.446 731.421C857.78 730.261 857.446 728.615 857.446 726.481C857.446 724.361 857.78 722.735 858.446 721.601C859.113 720.468 860.053 719.901 861.266 719.901C862.493 719.901 863.433 720.468 864.086 721.601C864.753 722.735 865.086 724.361 865.086 726.481C865.086 728.615 864.753 730.261 864.086 731.421C863.433 732.581 862.493 733.161 861.266 733.161ZM861.266 732.401C862.16 732.401 862.866 731.901 863.386 730.901C863.92 729.901 864.186 728.428 864.186 726.481C864.186 724.535 863.92 723.081 863.386 722.121C862.866 721.148 862.16 720.661 861.266 720.661C860.386 720.661 859.68 721.148 859.146 722.121C858.613 723.081 858.346 724.535 858.346 726.481C858.346 728.428 858.613 729.901 859.146 730.901C859.68 731.901 860.386 732.401 861.266 732.401Z" fill="white"/>
<path d="M938.627 732.921V732.141H941.627V721.541H939.347V720.941C939.867 720.848 940.334 720.735 940.747 720.601C941.161 720.468 941.514 720.315 941.807 720.141H942.527V732.141H945.307V732.921H938.627ZM948.718 733.161C948.504 733.161 948.304 733.081 948.118 732.921C947.944 732.761 947.858 732.541 947.858 732.261C947.858 731.968 947.944 731.741 948.118 731.581C948.304 731.421 948.504 731.341 948.718 731.341C948.944 731.341 949.138 731.421 949.298 731.581C949.471 731.741 949.558 731.968 949.558 732.261C949.558 732.541 949.471 732.761 949.298 732.921C949.138 733.081 948.944 733.161 948.718 733.161ZM955.673 733.161C954.459 733.161 953.519 732.581 952.853 731.421C952.186 730.261 951.853 728.615 951.853 726.481C951.853 724.361 952.186 722.735 952.853 721.601C953.519 720.468 954.459 719.901 955.673 719.901C956.899 719.901 957.839 720.468 958.493 721.601C959.159 722.735 959.493 724.361 959.493 726.481C959.493 728.615 959.159 730.261 958.493 731.421C957.839 732.581 956.899 733.161 955.673 733.161ZM955.673 732.401C956.566 732.401 957.273 731.901 957.793 730.901C958.326 729.901 958.593 728.428 958.593 726.481C958.593 724.535 958.326 723.081 957.793 722.121C957.273 721.148 956.566 720.661 955.673 720.661C954.793 720.661 954.086 721.148 953.553 722.121C953.019 723.081 952.753 724.535 952.753 726.481C952.753 728.428 953.019 729.901 953.553 730.901C954.086 731.901 954.793 732.401 955.673 732.401Z" fill="white"/>
<path d="M1025.51 733.161C1024.3 733.161 1023.36 732.581 1022.69 731.421C1022.03 730.261 1021.69 728.615 1021.69 726.481C1021.69 724.361 1022.03 722.735 1022.69 721.601C1023.36 720.468 1024.3 719.901 1025.51 719.901C1026.74 719.901 1027.68 720.468 1028.33 721.601C1029 722.735 1029.33 724.361 1029.33 726.481C1029.33 728.615 1029 730.261 1028.33 731.421C1027.68 732.581 1026.74 733.161 1025.51 733.161ZM1025.51 732.401C1026.41 732.401 1027.11 731.901 1027.63 730.901C1028.17 729.901 1028.43 728.428 1028.43 726.481C1028.43 724.535 1028.17 723.081 1027.63 722.121C1027.11 721.148 1026.41 720.661 1025.51 720.661C1024.63 720.661 1023.93 721.148 1023.39 722.121C1022.86 723.081 1022.59 724.535 1022.59 726.481C1022.59 728.428 1022.86 729.901 1023.39 730.901C1023.93 731.901 1024.63 732.401 1025.51 732.401Z" fill="white"/>
<path d="M94.94 81.6951H93.92L93.56 79.6551H90.24L90.24 85.2551H96.28L96.9 81.9951H98.06L98.06 86.4551H86.36L86.36 85.5951L88.24 85.1751L88.24 73.3351L86.36 72.9151L86.36 72.0551H97.62L97.62 76.2951H96.58L95.94 73.2151H90.24L90.24 78.4551H93.56L93.92 76.4151H94.94L94.94 81.6951ZM99.3714 76.6551L99.3714 75.9351L101.311 75.6551L101.571 73.1351L103.251 72.8951L103.251 75.6551H105.811L105.811 76.6551H103.251L103.251 83.7951C103.251 84.2484 103.258 84.5617 103.271 84.7351C103.285 84.8951 103.311 85.0284 103.351 85.1351C103.391 85.2284 103.465 85.2951 103.571 85.3351C103.678 85.3617 103.851 85.3751 104.091 85.3751H105.491L105.491 85.9551C104.851 86.1951 104.285 86.3684 103.791 86.4751C103.311 86.5951 102.925 86.6551 102.631 86.6551C102.031 86.6551 101.645 86.4084 101.471 85.9151C101.418 85.7551 101.378 85.5484 101.351 85.2951C101.325 85.0417 101.311 84.6684 101.311 84.1751L101.311 76.6551H99.3714ZM114.968 85.2551L114.968 80.7951C114.968 79.9284 114.941 79.2817 114.888 78.8551C114.848 78.4284 114.768 78.0951 114.648 77.8551C114.328 77.2017 113.741 76.8751 112.888 76.8751C112.514 76.8751 112.154 76.9417 111.808 77.0751C111.461 77.2084 111.154 77.3884 110.888 77.6151C110.594 77.8684 110.374 78.1751 110.228 78.5351C110.094 78.8817 110.014 79.3151 109.988 79.8351L109.988 85.2551L111.328 85.6351L111.328 86.4551H106.508L106.508 85.6351L108.048 85.2551L108.048 72.0551L106.508 71.6751L106.508 70.8551H109.988L109.988 77.5351C110.388 76.8951 110.914 76.3884 111.568 76.0151C112.234 75.6417 112.948 75.4551 113.708 75.4551C114.241 75.4551 114.721 75.5484 115.148 75.7351C115.574 75.9217 115.914 76.1884 116.168 76.5351C116.434 76.9084 116.621 77.4351 116.728 78.1151C116.848 78.7817 116.908 79.6884 116.908 80.8351L116.908 85.2551L118.448 85.6351L118.448 86.4551H113.628L113.628 85.6351L114.968 85.2551ZM119.639 84.1151C119.639 83.0751 120.126 82.2551 121.099 81.6551C122.072 81.0551 123.686 80.5884 125.939 80.2551C125.886 79.4684 125.812 78.8551 125.719 78.4151C125.626 77.9751 125.506 77.6217 125.359 77.3551C125.172 77.0084 124.912 76.7551 124.579 76.5951C124.246 76.4217 123.886 76.3351 123.499 76.3351C123.126 76.3351 122.786 76.4017 122.479 76.5351C122.186 76.6684 121.986 76.8484 121.879 77.0751C122.066 77.2084 122.199 77.3817 122.279 77.5951C122.372 77.8084 122.419 78.0084 122.419 78.1951C122.419 78.5284 122.306 78.7951 122.079 78.9951C121.866 79.1817 121.599 79.2751 121.279 79.2751C120.959 79.2751 120.692 79.1684 120.479 78.9551C120.279 78.7417 120.179 78.4417 120.179 78.0551C120.179 77.4951 120.372 77.0217 120.759 76.6351C121.146 76.2484 121.632 75.9551 122.219 75.7551C122.819 75.5551 123.419 75.4551 124.019 75.4551C124.566 75.4551 125.066 75.5417 125.519 75.7151C125.986 75.8751 126.379 76.1151 126.699 76.4351C127.526 77.2617 127.939 78.7284 127.939 80.8351L127.939 83.7351C127.939 84.3884 127.979 84.8417 128.059 85.0951C128.152 85.3484 128.346 85.4751 128.639 85.4751H129.539L129.539 86.0751C128.579 86.4617 127.832 86.6551 127.299 86.6551C126.886 86.6551 126.606 86.5084 126.459 86.2151C126.326 85.9084 126.259 85.3284 126.259 84.4751H126.179C125.766 85.1551 125.219 85.6884 124.539 86.0751C123.859 86.4617 123.126 86.6551 122.339 86.6551C121.499 86.6551 120.839 86.4284 120.359 85.9751C119.879 85.5217 119.639 84.9017 119.639 84.1151ZM123.179 85.4951C123.552 85.4951 123.939 85.4017 124.339 85.2151C124.752 85.0151 125.099 84.7417 125.379 84.3951C125.592 84.1284 125.746 83.8151 125.839 83.4551C125.946 83.0817 125.999 82.6484 125.999 82.1551C125.999 81.9284 125.992 81.7084 125.979 81.4951C125.966 81.2684 125.946 81.0551 125.919 80.8551C124.839 81.0684 123.992 81.3017 123.379 81.5551C122.766 81.7951 122.332 82.0884 122.079 82.4351C121.826 82.7684 121.699 83.1884 121.699 83.6951C121.699 84.2684 121.826 84.7151 122.079 85.0351C122.346 85.3417 122.712 85.4951 123.179 85.4951ZM131.881 85.2551L131.881 76.8551L130.341 76.4751L130.341 75.6551H133.221L133.661 77.6551H133.741C134.141 76.9751 134.681 76.4417 135.361 76.0551C136.041 75.6551 136.768 75.4551 137.541 75.4551C138.648 75.4551 139.468 75.8151 140.001 76.5351C140.268 76.9084 140.454 77.4351 140.561 78.1151C140.681 78.7817 140.741 79.6884 140.741 80.8351L140.741 85.2551L142.281 85.6351L142.281 86.4551L137.461 86.4551L137.461 85.6351L138.801 85.2551L138.801 80.7951C138.801 79.9284 138.774 79.2817 138.721 78.8551C138.681 78.4284 138.601 78.0951 138.481 77.8551C138.321 77.5351 138.088 77.2951 137.781 77.1351C137.488 76.9617 137.134 76.8751 136.721 76.8751C135.948 76.8751 135.281 77.1217 134.721 77.6151C134.174 78.1084 133.874 78.8751 133.821 79.9151L133.821 85.2551L135.161 85.6351L135.161 86.4551H130.341L130.341 85.6351L131.881 85.2551ZM153.447 80.9551C153.447 81.8217 153.313 82.6484 153.047 83.4351C152.793 84.2084 152.433 84.8484 151.967 85.3551C151.567 85.7951 151.073 86.1217 150.487 86.3351C149.9 86.5484 149.233 86.6551 148.487 86.6551C147.753 86.6551 147.1 86.5551 146.527 86.3551C145.953 86.1417 145.467 85.8217 145.067 85.3951C144.613 84.9017 144.26 84.2951 144.007 83.5751C143.767 82.8417 143.647 82.0484 143.647 81.1951C143.647 80.3284 143.773 79.5017 144.027 78.7151C144.28 77.9151 144.647 77.2617 145.127 76.7551C145.553 76.3017 146.047 75.9751 146.607 75.7751C147.18 75.5617 147.833 75.4551 148.567 75.4551C149.3 75.4551 149.96 75.5617 150.547 75.7751C151.133 75.9751 151.627 76.2884 152.027 76.7151C152.493 77.2084 152.847 77.8284 153.087 78.5751C153.327 79.3084 153.447 80.1017 153.447 80.9551ZM145.787 80.9751C145.787 81.7884 145.847 82.4951 145.967 83.0951C146.1 83.6817 146.28 84.1684 146.507 84.5551C146.733 84.8884 147 85.1484 147.307 85.3351C147.627 85.5217 148.04 85.6151 148.547 85.6151C149.467 85.6151 150.153 85.3017 150.607 84.6751C150.847 84.3284 151.02 83.8484 151.127 83.2351C151.247 82.6217 151.307 81.9151 151.307 81.1151C151.307 80.3151 151.24 79.6151 151.107 79.0151C150.987 78.4151 150.813 77.9284 150.587 77.5551C150.373 77.2084 150.1 76.9484 149.767 76.7751C149.447 76.5884 149.033 76.4951 148.527 76.4951C147.593 76.4951 146.92 76.8017 146.507 77.4151C146.027 78.1617 145.787 79.3484 145.787 80.9751ZM156.467 85.2551L156.467 72.0551L154.927 71.6751L154.927 70.8551H158.407L158.407 85.2551L159.947 85.6351L159.947 86.4551H154.927L154.927 85.6351L156.467 85.2551Z" fill="white"/>
<path d="M115.38 614.715L127.22 614.715L127.64 612.835L128.5 612.835L128.5 618.595L127.64 618.595L127.22 616.715L115.38 616.715L114.96 618.595L114.1 618.595L114.1 612.835L114.96 612.835L115.38 614.715ZM127.3 609.715L118.9 609.715L118.52 611.255L117.7 611.255L117.7 608.375L119.7 607.935L119.7 607.855C119.02 607.455 118.487 606.915 118.1 606.235C117.7 605.555 117.5 604.828 117.5 604.055C117.5 602.948 117.86 602.128 118.58 601.595C118.953 601.328 119.48 601.141 120.16 601.035C120.827 600.915 121.733 600.855 122.88 600.855L127.3 600.855L127.68 599.315L128.5 599.315L128.5 604.135L127.68 604.135L127.3 602.795L122.84 602.795C121.973 602.795 121.327 602.821 120.9 602.875C120.473 602.915 120.14 602.995 119.9 603.115C119.58 603.275 119.34 603.508 119.18 603.815C119.007 604.108 118.92 604.461 118.92 604.875C118.92 605.648 119.167 606.315 119.66 606.875C120.153 607.421 120.92 607.721 121.96 607.775L127.3 607.775L127.68 606.435L128.5 606.435L128.5 611.255L127.68 611.255L127.3 609.715ZM118.7 598.689L117.98 598.689L117.7 596.749L115.18 596.489L114.94 594.809L117.7 594.809L117.7 592.249L118.7 592.249L118.7 594.809L125.84 594.809C126.293 594.809 126.607 594.802 126.78 594.789C126.94 594.776 127.073 594.749 127.18 594.709C127.273 594.669 127.34 594.596 127.38 594.489C127.407 594.382 127.42 594.209 127.42 593.969L127.42 592.569L128 592.569C128.24 593.209 128.413 593.776 128.52 594.269C128.64 594.749 128.7 595.136 128.7 595.429C128.7 596.029 128.453 596.416 127.96 596.589C127.8 596.642 127.593 596.682 127.34 596.709C127.087 596.736 126.713 596.749 126.22 596.749L118.7 596.749L118.7 598.689ZM123.22 582.113L123.22 589.093C124.193 589.093 125 588.959 125.64 588.693C126.253 588.426 126.693 588.046 126.96 587.553C127.227 587.059 127.36 586.526 127.36 585.953C127.36 585.326 127.233 584.753 126.98 584.233C126.713 583.713 126.353 583.246 125.9 582.833L126.38 582.193C127.02 582.659 127.567 583.226 128.02 583.893C128.473 584.559 128.7 585.419 128.7 586.473C128.7 587.393 128.507 588.206 128.12 588.913C127.72 589.619 127.14 590.159 126.38 590.533C125.967 590.733 125.507 590.879 125 590.973C124.493 591.066 123.953 591.113 123.38 591.113C121.513 591.113 120.067 590.686 119.04 589.833C118.013 588.966 117.5 587.793 117.5 586.313C117.5 584.953 117.927 583.906 118.78 583.173C119.62 582.426 120.787 582.053 122.28 582.053C122.413 582.053 122.54 582.059 122.66 582.073C122.767 582.073 122.953 582.086 123.22 582.113ZM118.58 586.433C118.58 588.033 119.8 588.913 122.24 589.073L122.24 584.073L121.58 584.073C120.62 584.073 119.88 584.279 119.36 584.693C118.84 585.093 118.58 585.673 118.58 586.433ZM127.3 578.914L118.9 578.914L118.52 580.454L117.7 580.454L117.7 577.574L119.7 577.134L119.7 577.054C119.02 576.654 118.487 576.114 118.1 575.434C117.7 574.754 117.5 574.027 117.5 573.254C117.5 572.147 117.86 571.327 118.58 570.794C118.953 570.527 119.48 570.34 120.16 570.234C120.827 570.114 121.733 570.054 122.88 570.054L127.3 570.054L127.68 568.514L128.5 568.514L128.5 573.334L127.68 573.334L127.3 571.994L122.84 571.994C121.973 571.994 121.327 572.02 120.9 572.074C120.473 572.114 120.14 572.194 119.9 572.314C119.58 572.474 119.34 572.707 119.18 573.014C119.007 573.307 118.92 573.66 118.92 574.074C118.92 574.847 119.167 575.514 119.66 576.074C120.153 576.62 120.92 576.92 121.96 576.974L127.3 576.974L127.68 575.634L128.5 575.634L128.5 580.454L127.68 580.454L127.3 578.914ZM127.78 563.188C127.78 562.442 127.627 561.835 127.32 561.368C127.013 560.888 126.587 560.648 126.04 560.648C125.6 560.648 125.247 560.795 124.98 561.088C124.713 561.382 124.5 561.748 124.34 562.188C124.167 562.615 124.02 563.048 123.9 563.488C123.727 564.035 123.527 564.562 123.3 565.068C123.06 565.575 122.733 565.988 122.32 566.308C121.907 566.628 121.36 566.788 120.68 566.788C119.72 566.788 118.953 566.442 118.38 565.748C117.793 565.042 117.5 564.062 117.5 562.808C117.5 561.742 117.727 560.902 118.18 560.288C118.62 559.662 119.227 559.348 120 559.348C120.413 559.348 120.747 559.442 121 559.628C121.24 559.815 121.36 560.082 121.36 560.428C121.36 560.735 121.267 560.988 121.08 561.188C120.893 561.388 120.653 561.488 120.36 561.488C120.107 561.488 119.88 561.422 119.68 561.288C119.467 561.155 119.313 560.982 119.22 560.768C118.94 560.968 118.74 561.228 118.62 561.548C118.487 561.855 118.42 562.255 118.42 562.748C118.42 563.548 118.567 564.148 118.86 564.548C119.14 564.948 119.56 565.148 120.12 565.148C120.52 565.148 120.84 565.055 121.08 564.868C121.307 564.668 121.5 564.382 121.66 564.008C121.82 563.635 121.987 563.175 122.16 562.628C122.293 562.175 122.447 561.728 122.62 561.288C122.78 560.848 122.98 560.448 123.22 560.088C123.46 559.728 123.76 559.442 124.12 559.228C124.48 559.015 124.927 558.908 125.46 558.908C126.14 558.908 126.727 559.095 127.22 559.468C127.7 559.842 128.067 560.355 128.32 561.008C128.573 561.662 128.7 562.415 128.7 563.268C128.7 564.442 128.46 565.388 127.98 566.108C127.5 566.828 126.853 567.188 126.04 567.188C125.613 567.188 125.28 567.095 125.04 566.908C124.787 566.708 124.66 566.428 124.66 566.068C124.66 565.748 124.753 565.482 124.94 565.268C125.127 565.042 125.373 564.928 125.68 564.928C125.933 564.928 126.173 565.002 126.4 565.148C126.627 565.282 126.793 565.448 126.9 565.648C127.153 565.475 127.367 565.168 127.54 564.728C127.7 564.275 127.78 563.762 127.78 563.188ZM118.9 555.75L118.52 557.29L117.7 557.29L117.7 553.81L127.3 553.81L127.68 552.27L128.5 552.27L128.5 557.29L127.68 557.29L127.3 555.75L118.9 555.75ZM114.48 556.03C114.093 556.03 113.787 555.916 113.56 555.69C113.333 555.463 113.22 555.163 113.22 554.79C113.22 554.403 113.333 554.096 113.56 553.87C113.787 553.643 114.093 553.53 114.48 553.53C114.853 553.53 115.153 553.643 115.38 553.87C115.607 554.096 115.72 554.403 115.72 554.79C115.72 555.176 115.613 555.483 115.4 555.71C115.173 555.923 114.867 556.03 114.48 556.03ZM118.7 551.599L117.98 551.599L117.7 549.659L115.18 549.399L114.94 547.719L117.7 547.719L117.7 545.159L118.7 545.159L118.7 547.719L125.84 547.719C126.293 547.719 126.607 547.713 126.78 547.699C126.94 547.686 127.073 547.659 127.18 547.619C127.273 547.579 127.34 547.506 127.38 547.399C127.407 547.293 127.42 547.119 127.42 546.879L127.42 545.479L128 545.479C128.24 546.119 128.413 546.686 128.52 547.179C128.64 547.659 128.7 548.046 128.7 548.339C128.7 548.939 128.453 549.326 127.96 549.499C127.8 549.553 127.593 549.593 127.34 549.619C127.087 549.646 126.713 549.659 126.22 549.659L118.7 549.659L118.7 551.599ZM118.9 534.683L128.02 538.003C129.047 538.376 129.873 538.716 130.5 539.023C131.14 539.33 131.6 539.67 131.88 540.043C132.16 540.416 132.3 540.896 132.3 541.483C132.3 542.11 132.133 542.65 131.8 543.103C131.467 543.543 131.047 543.763 130.54 543.763C130.167 543.763 129.853 543.656 129.6 543.443C129.36 543.23 129.24 542.95 129.24 542.603C129.24 542.296 129.32 542.056 129.48 541.883C129.653 541.696 129.887 541.603 130.18 541.603C130.367 541.603 130.547 541.643 130.72 541.723C130.893 541.79 131.047 541.883 131.18 542.003C131.313 541.976 131.4 541.896 131.44 541.763C131.493 541.63 131.52 541.516 131.52 541.423C131.52 541.236 131.473 541.063 131.38 540.903C131.287 540.743 131.087 540.576 130.78 540.403C130.487 540.216 130.02 540.016 129.38 539.803L128.64 539.563L118.9 543.703L118.52 544.903L117.7 544.903L117.7 540.423L118.52 540.263L118.9 541.683L126.74 538.703L126.74 538.623L118.9 536.103L118.52 537.263L117.7 537.263L117.7 533.463L118.52 533.463L118.9 534.683Z" fill="#C3FA50"/>
<path d="M422.233 311.943C422.233 313.464 421.997 314.897 421.525 316.242C421.071 317.57 420.433 318.68 419.612 319.571C418.896 320.34 418.031 320.916 417.017 321.301C416.021 321.668 414.868 321.851 413.557 321.851C412.229 321.851 411.059 321.668 410.045 321.301C409.032 320.934 408.184 320.383 407.503 319.649C406.699 318.811 406.078 317.762 405.642 316.504C405.205 315.229 404.986 313.848 404.986 312.363C404.986 310.843 405.213 309.418 405.668 308.09C406.14 306.745 406.786 305.627 407.607 304.735C408.341 303.949 409.189 303.372 410.15 303.006C411.128 302.639 412.282 302.455 413.61 302.455C414.938 302.455 416.1 302.639 417.096 303.006C418.109 303.355 418.974 303.905 419.691 304.657C420.512 305.496 421.141 306.553 421.578 307.828C422.015 309.104 422.233 310.476 422.233 311.943ZM408.001 311.839C408.001 313.289 408.123 314.582 408.368 315.718C408.612 316.836 408.962 317.754 409.416 318.47C409.87 319.117 410.438 319.606 411.12 319.938C411.819 320.252 412.675 320.41 413.688 320.41C415.541 320.41 416.904 319.833 417.777 318.68C418.249 318.033 418.607 317.177 418.852 316.111C419.097 315.028 419.219 313.761 419.219 312.31C419.219 310.86 419.097 309.584 418.852 308.484C418.607 307.383 418.249 306.492 417.777 305.81C417.323 305.146 416.738 304.657 416.021 304.342C415.322 304.028 414.492 303.87 413.531 303.87C412.605 303.87 411.801 304.019 411.12 304.316C410.456 304.596 409.897 305.024 409.442 305.6C408.481 306.876 408.001 308.955 408.001 311.839Z" fill="white"/>
<path d="M422.233 311.943C422.233 313.464 421.997 314.897 421.525 316.242C421.071 317.57 420.433 318.68 419.612 319.571C418.896 320.34 418.031 320.916 417.017 321.301C416.021 321.668 414.868 321.851 413.557 321.851C412.229 321.851 411.059 321.668 410.045 321.301C409.032 320.934 408.184 320.383 407.503 319.649C406.699 318.811 406.078 317.762 405.642 316.504C405.205 315.229 404.986 313.848 404.986 312.363C404.986 310.843 405.213 309.418 405.668 308.09C406.14 306.745 406.786 305.627 407.607 304.735C408.341 303.949 409.189 303.372 410.15 303.006C411.128 302.639 412.282 302.455 413.61 302.455C414.938 302.455 416.1 302.639 417.096 303.006C418.109 303.355 418.974 303.905 419.691 304.657C420.512 305.496 421.141 306.553 421.578 307.828C422.015 309.104 422.233 310.476 422.233 311.943ZM408.001 311.839C408.001 313.289 408.123 314.582 408.368 315.718C408.612 316.836 408.962 317.754 409.416 318.47C409.87 319.117 410.438 319.606 411.12 319.938C411.819 320.252 412.675 320.41 413.688 320.41C415.541 320.41 416.904 319.833 417.777 318.68C418.249 318.033 418.607 317.177 418.852 316.111C419.097 315.028 419.219 313.761 419.219 312.31C419.219 310.86 419.097 309.584 418.852 308.484C418.607 307.383 418.249 306.492 417.777 305.81C417.323 305.146 416.738 304.657 416.021 304.342C415.322 304.028 414.492 303.87 413.531 303.87C412.605 303.87 411.801 304.019 411.12 304.316C410.456 304.596 409.897 305.024 409.442 305.6C408.481 306.876 408.001 308.955 408.001 311.839Z" stroke="black"/>
<path d="M505.15 305.133V320.649L507.351 321.2V322.327H500.327V321.2L502.529 320.649V313.389H493.643V320.649L495.845 321.2V322.327H488.82V321.2L491.022 320.649V305.133L488.82 304.582V303.455H495.845V304.582L493.643 305.133V311.869H502.529V305.133L500.327 304.582V303.455H507.351V304.582L505.15 305.133Z" fill="white"/>
<path d="M505.15 305.133V320.649L507.351 321.2V322.327H500.327V321.2L502.529 320.649V313.389H493.643V320.649L495.845 321.2V322.327H488.82V321.2L491.022 320.649V305.133L488.82 304.582V303.455H495.845V304.582L493.643 305.133V311.869H502.529V305.133L500.327 304.582V303.455H507.351V304.582L505.15 305.133Z" stroke="black"/>
<path d="M249.051 303.915C248.173 303.915 247.42 304.05 246.792 304.32C246.183 304.59 245.663 305.014 245.233 305.59C244.695 306.293 244.274 307.221 243.969 308.374C243.664 309.509 243.512 310.761 243.512 312.131C243.512 313.41 243.646 314.608 243.915 315.725C244.184 316.842 244.561 317.779 245.045 318.536C245.529 319.293 246.111 319.851 246.792 320.212C247.492 320.554 248.361 320.725 249.401 320.725C252.628 320.725 254.501 319.203 255.021 316.158H256.5C255.693 320.356 253.237 322.455 249.132 322.455C246.658 322.455 244.686 321.734 243.216 320.293C242.338 319.428 241.665 318.338 241.199 317.023C240.733 315.707 240.5 314.248 240.5 312.644C240.5 310.824 240.796 309.176 241.387 307.698C241.979 306.221 242.813 305.041 243.888 304.158C245.251 303.023 247.052 302.455 249.293 302.455C250.405 302.455 251.31 302.599 252.009 302.888C252.708 303.176 253.399 303.689 254.08 304.428L254.618 302.725H256.097V308.698H254.456C254.205 307.113 253.623 305.924 252.708 305.131C251.812 304.32 250.593 303.915 249.051 303.915Z" fill="white"/>
<path d="M249.051 303.915C248.173 303.915 247.42 304.05 246.792 304.32C246.183 304.59 245.663 305.014 245.233 305.59C244.695 306.293 244.274 307.221 243.969 308.374C243.664 309.509 243.512 310.761 243.512 312.131C243.512 313.41 243.646 314.608 243.915 315.725C244.184 316.842 244.561 317.779 245.045 318.536C245.529 319.293 246.111 319.851 246.792 320.212C247.492 320.554 248.361 320.725 249.401 320.725C252.628 320.725 254.501 319.203 255.021 316.158H256.5C255.693 320.356 253.237 322.455 249.132 322.455C246.658 322.455 244.686 321.734 243.216 320.293C242.338 319.428 241.665 318.338 241.199 317.023C240.733 315.707 240.5 314.248 240.5 312.644C240.5 310.824 240.796 309.176 241.387 307.698C241.979 306.221 242.813 305.041 243.888 304.158C245.251 303.023 247.052 302.455 249.293 302.455C250.405 302.455 251.31 302.599 252.009 302.888C252.708 303.176 253.399 303.689 254.08 304.428L254.618 302.725H256.097V308.698H254.456C254.205 307.113 253.623 305.924 252.708 305.131C251.812 304.32 250.593 303.915 249.051 303.915Z" stroke="black"/>
<path d="M331.051 303.915C330.173 303.915 329.42 304.05 328.792 304.32C328.183 304.59 327.663 305.014 327.233 305.59C326.695 306.293 326.274 307.221 325.969 308.374C325.664 309.509 325.512 310.761 325.512 312.131C325.512 313.41 325.646 314.608 325.915 315.725C326.184 316.842 326.561 317.779 327.045 318.536C327.529 319.293 328.111 319.851 328.792 320.212C329.492 320.554 330.361 320.725 331.401 320.725C334.628 320.725 336.501 319.203 337.021 316.158H338.5C337.693 320.356 335.237 322.455 331.132 322.455C328.658 322.455 326.686 321.734 325.216 320.293C324.338 319.428 323.665 318.338 323.199 317.023C322.733 315.707 322.5 314.248 322.5 312.644C322.5 310.824 322.796 309.176 323.387 307.698C323.979 306.221 324.813 305.041 325.888 304.158C327.251 303.023 329.052 302.455 331.293 302.455C332.405 302.455 333.31 302.599 334.009 302.888C334.708 303.176 335.399 303.689 336.08 304.428L336.618 302.725H338.097V308.698H336.456C336.205 307.113 335.623 305.924 334.708 305.131C333.812 304.32 332.593 303.915 331.051 303.915Z" fill="white"/>
<path d="M331.051 303.915C330.173 303.915 329.42 304.05 328.792 304.32C328.183 304.59 327.663 305.014 327.233 305.59C326.695 306.293 326.274 307.221 325.969 308.374C325.664 309.509 325.512 310.761 325.512 312.131C325.512 313.41 325.646 314.608 325.915 315.725C326.184 316.842 326.561 317.779 327.045 318.536C327.529 319.293 328.111 319.851 328.792 320.212C329.492 320.554 330.361 320.725 331.401 320.725C334.628 320.725 336.501 319.203 337.021 316.158H338.5C337.693 320.356 335.237 322.455 331.132 322.455C328.658 322.455 326.686 321.734 325.216 320.293C324.338 319.428 323.665 318.338 323.199 317.023C322.733 315.707 322.5 314.248 322.5 312.644C322.5 310.824 322.796 309.176 323.387 307.698C323.979 306.221 324.813 305.041 325.888 304.158C327.251 303.023 329.052 302.455 331.293 302.455C332.405 302.455 333.31 302.599 334.009 302.888C334.708 303.176 335.399 303.689 336.08 304.428L336.618 302.725H338.097V308.698H336.456C336.205 307.113 335.623 305.924 334.708 305.131C333.812 304.32 332.593 303.915 331.051 303.915Z" stroke="black"/>
<path d="M171.829 305.133V320.649L174.031 321.2V322.327H167.007V321.2L169.208 320.649V313.389H160.323V320.649L162.525 321.2V322.327H155.5V321.2L157.702 320.649V305.133L155.5 304.582V303.455H162.525V304.582L160.323 305.133V311.869H169.208V305.133L167.007 304.582V303.455H174.031V304.582L171.829 305.133Z" fill="white"/>
<path d="M171.829 305.133V320.649L174.031 321.2V322.327H167.007V321.2L169.208 320.649V313.389H160.323V320.649L162.525 321.2V322.327H155.5V321.2L157.702 320.649V305.133L155.5 304.582V303.455H162.525V304.582L160.323 305.133V311.869H169.208V305.133L167.007 304.582V303.455H174.031V304.582L171.829 305.133Z" stroke="black"/>
<path d="M254.829 218.133V225.891V233.649L257.031 234.2V235.327H250.007V234.2L252.208 233.649V226.389H243.323V233.649L245.525 234.2V235.327H238.5V234.2L240.702 233.649V218.133L238.5 217.582V216.455H245.525V217.582L243.323 218.133V224.869H252.208V218.133L250.007 217.582V216.455H257.031V217.582L254.829 218.133Z" fill="white"/>
<path d="M254.829 218.133V225.891V233.649L257.031 234.2V235.327H250.007V234.2L252.208 233.649V226.389H243.323V233.649L245.525 234.2V235.327H238.5V234.2L240.702 233.649V218.133L238.5 217.582V216.455H245.525V217.582L243.323 218.133V224.869H252.208V218.133L250.007 217.582V216.455H257.031V217.582L254.829 218.133Z" stroke="black"/>
<path d="M253.829 391.133V398.891V406.649L256.031 407.2V408.327H249.007V407.2L251.208 406.649V399.389H242.323V406.649L244.525 407.2V408.327H237.5V407.2L239.702 406.649V391.133L237.5 390.582V389.455H244.525V390.582L242.323 391.133V397.869H251.208V391.133L249.007 390.582V389.455H256.031V390.582L253.829 391.133Z" fill="white"/>
<path d="M253.829 391.133V398.891V406.649L256.031 407.2V408.327H249.007V407.2L251.208 406.649V399.389H242.323V406.649L244.525 407.2V408.327H237.5V407.2L239.702 406.649V391.133L237.5 390.582V389.455H244.525V390.582L242.323 391.133V397.869H251.208V391.133L249.007 390.582V389.455H256.031V390.582L253.829 391.133Z" stroke="black"/>
<path d="M335.829 391.133V398.891V406.649L338.031 407.2V408.327H331.007V407.2L333.208 406.649V399.389H324.323V406.649L326.525 407.2V408.327H319.5V407.2L321.702 406.649V391.133L319.5 390.582V389.455H326.525V390.582L324.323 391.133V397.869H333.208V391.133L331.007 390.582V389.455H338.031V390.582L335.829 391.133Z" fill="white"/>
<path d="M335.829 391.133V398.891V406.649L338.031 407.2V408.327H331.007V407.2L333.208 406.649V399.389H324.323V406.649L326.525 407.2V408.327H319.5V407.2L321.702 406.649V391.133L319.5 390.582V389.455H326.525V390.582L324.323 391.133V397.869H333.208V391.133L331.007 390.582V389.455H338.031V390.582L335.829 391.133Z" stroke="black"/>
<path d="M336.829 218.133V225.891V233.649L339.031 234.2V235.327H332.007V234.2L334.208 233.649V226.389H325.323V233.649L327.525 234.2V235.327H320.5V234.2L322.702 233.649V218.133L320.5 217.582V216.455H327.525V217.582L325.323 218.133V224.869H334.208V218.133L332.007 217.582V216.455H339.031V217.582L336.829 218.133Z" fill="white"/>
<path d="M336.829 218.133V225.891V233.649L339.031 234.2V235.327H332.007V234.2L334.208 233.649V226.389H325.323V233.649L327.525 234.2V235.327H320.5V234.2L322.702 233.649V218.133L320.5 217.582V216.455H327.525V217.582L325.323 218.133V224.869H334.208V218.133L332.007 217.582V216.455H339.031V217.582L336.829 218.133Z" stroke="black"/>
<line x1="248" y1="365.042" x2="248" y2="346.455" stroke="white" stroke-width="3"/>
<line x1="330" y1="365.042" x2="330" y2="346.455" stroke="white" stroke-width="3"/>
<line x1="248" y1="259.455" x2="248" y2="278.455" stroke="white" stroke-width="3"/>
<line x1="330" y1="259.455" x2="330" y2="278.455" stroke="white" stroke-width="3"/>
<line x1="198.031" y1="310.955" x2="216.618" y2="310.955" stroke="white" stroke-width="3"/>
<line x1="280.215" y1="310.955" x2="298.802" y2="310.955" stroke="white" stroke-width="3"/>
<line x1="362.398" y1="310.955" x2="380.985" y2="310.955" stroke="white" stroke-width="3"/>
<line x1="446.232" y1="310.955" x2="464.819" y2="310.955" stroke="white" stroke-width="3"/>
<path d="M574.741 828.745C574.741 830.131 574.881 831.411 575.161 832.585C575.441 833.758 575.835 834.798 576.341 835.705C576.848 836.598 577.448 837.325 578.141 837.885C578.835 838.445 579.601 838.811 580.441 838.985L580.961 837.885C580.121 837.711 579.381 837.225 578.741 836.425C578.115 835.625 577.628 834.571 577.281 833.265C576.935 831.958 576.761 830.465 576.761 828.785C576.761 827.118 576.941 825.625 577.301 824.305C577.661 822.971 578.161 821.885 578.801 821.045C579.455 820.205 580.208 819.685 581.061 819.485L580.641 818.505C579.761 818.718 578.955 819.125 578.221 819.725C577.501 820.325 576.881 821.078 576.361 821.985C575.841 822.891 575.441 823.918 575.161 825.065C574.881 826.198 574.741 827.425 574.741 828.745ZM585.263 838.205L587.203 838.585V839.405H581.783V838.585L583.323 838.205V826.205L581.783 825.825V825.005H584.663L584.963 826.545C585.39 825.878 585.87 825.425 586.403 825.185C586.95 824.931 587.563 824.805 588.243 824.805C588.923 824.805 589.537 824.905 590.083 825.105C590.643 825.305 591.097 825.625 591.443 826.065C591.843 826.571 592.157 827.185 592.383 827.905C592.623 828.611 592.743 829.378 592.743 830.205C592.743 831.058 592.61 831.865 592.343 832.625C592.09 833.371 591.743 833.998 591.303 834.505C590.557 835.371 589.483 835.805 588.083 835.805C587.51 835.805 586.99 835.698 586.523 835.485C586.07 835.258 585.65 834.871 585.263 834.325V838.205ZM585.243 830.225C585.243 831.011 585.303 831.698 585.423 832.285C585.543 832.871 585.717 833.345 585.943 833.705C586.157 834.038 586.417 834.298 586.723 834.485C587.043 834.671 587.45 834.765 587.943 834.765C588.397 834.765 588.79 834.685 589.123 834.525C589.47 834.351 589.75 834.118 589.963 833.825C590.203 833.491 590.377 833.025 590.483 832.425C590.59 831.825 590.643 831.138 590.643 830.365C590.643 829.578 590.583 828.898 590.463 828.325C590.343 827.751 590.17 827.278 589.943 826.905C589.73 826.558 589.463 826.298 589.143 826.125C588.837 825.938 588.43 825.845 587.923 825.845C587.47 825.845 587.07 825.925 586.723 826.085C586.39 826.231 586.13 826.458 585.943 826.765C585.73 827.125 585.557 827.598 585.423 828.185C585.303 828.758 585.243 829.438 585.243 830.225ZM597.646 838.205L599.586 838.585V839.405H594.166V838.585L595.706 838.205V826.205L594.166 825.825V825.005H597.046L597.346 826.545C597.773 825.878 598.253 825.425 598.786 825.185C599.333 824.931 599.946 824.805 600.626 824.805C601.306 824.805 601.919 824.905 602.466 825.105C603.026 825.305 603.479 825.625 603.826 826.065C604.226 826.571 604.539 827.185 604.766 827.905C605.006 828.611 605.126 829.378 605.126 830.205C605.126 831.058 604.993 831.865 604.726 832.625C604.473 833.371 604.126 833.998 603.686 834.505C602.939 835.371 601.866 835.805 600.466 835.805C599.893 835.805 599.373 835.698 598.906 835.485C598.453 835.258 598.033 834.871 597.646 834.325V838.205ZM597.626 830.225C597.626 831.011 597.686 831.698 597.806 832.285C597.926 832.871 598.099 833.345 598.326 833.705C598.539 834.038 598.799 834.298 599.106 834.485C599.426 834.671 599.833 834.765 600.326 834.765C600.779 834.765 601.173 834.685 601.506 834.525C601.853 834.351 602.133 834.118 602.346 833.825C602.586 833.491 602.759 833.025 602.866 832.425C602.973 831.825 603.026 831.138 603.026 830.365C603.026 829.578 602.966 828.898 602.846 828.325C602.726 827.751 602.553 827.278 602.326 826.905C602.113 826.558 601.846 826.298 601.526 826.125C601.219 825.938 600.813 825.845 600.306 825.845C599.853 825.845 599.453 825.925 599.106 826.085C598.773 826.231 598.513 826.458 598.326 826.765C598.113 827.125 597.939 827.598 597.806 828.185C597.686 828.758 597.626 829.438 597.626 830.225ZM608.309 834.605V826.205L606.769 825.825V825.005H609.649L610.089 827.005H610.169C610.555 826.338 611.069 825.805 611.709 825.405C612.362 825.005 613.055 824.805 613.789 824.805C614.335 824.805 614.822 824.911 615.249 825.125C615.675 825.325 615.989 825.578 616.189 825.885C616.402 826.218 616.575 826.658 616.709 827.205C617.135 826.458 617.689 825.871 618.369 825.445C619.049 825.018 619.775 824.805 620.549 824.805C621.082 824.805 621.562 824.911 621.989 825.125C622.415 825.325 622.742 825.605 622.969 825.965C623.129 826.218 623.255 826.545 623.349 826.945C623.442 827.345 623.509 827.865 623.549 828.505C623.589 829.131 623.609 829.931 623.609 830.905V834.605L625.149 834.985V835.805H620.329V834.985L621.669 834.605V830.145C621.669 829.278 621.642 828.631 621.589 828.205C621.549 827.778 621.469 827.445 621.349 827.205C621.189 826.885 620.962 826.645 620.669 826.485C620.389 826.311 620.055 826.225 619.669 826.225C619.335 826.225 619.009 826.291 618.689 826.425C618.369 826.558 618.082 826.738 617.829 826.965C617.535 827.231 617.315 827.545 617.169 827.905C617.035 828.265 616.955 828.718 616.929 829.265V834.605L618.269 834.985V835.805H613.649V834.985L614.989 834.605V830.145C614.989 829.278 614.962 828.631 614.909 828.205C614.869 827.778 614.789 827.445 614.669 827.205C614.509 826.885 614.282 826.645 613.989 826.485C613.709 826.311 613.375 826.225 612.989 826.225C612.655 826.225 612.329 826.291 612.009 826.425C611.689 826.558 611.402 826.738 611.149 826.965C610.855 827.231 610.635 827.545 610.489 827.905C610.355 828.265 610.275 828.718 610.249 829.265V834.605L611.589 834.985V835.805H606.769V834.985L608.309 834.605ZM631.495 828.745C631.495 827.425 631.355 826.198 631.075 825.065C630.795 823.918 630.395 822.891 629.875 821.985C629.355 821.078 628.728 820.325 627.995 819.725C627.275 819.125 626.475 818.718 625.595 818.505L625.175 819.485C626.042 819.685 626.795 820.205 627.435 821.045C628.075 821.885 628.575 822.971 628.935 824.305C629.295 825.625 629.475 827.118 629.475 828.785C629.475 830.465 629.295 831.958 628.935 833.265C628.588 834.571 628.102 835.625 627.475 836.425C626.848 837.225 626.115 837.711 625.275 837.885L625.795 838.985C626.635 838.811 627.402 838.445 628.095 837.885C628.788 837.325 629.388 836.598 629.895 835.705C630.402 834.798 630.795 833.758 631.075 832.585C631.355 831.411 631.495 830.131 631.495 828.745Z" fill="white"/>
<path d="M547.342 824.595C547.342 823.757 547.671 823.085 548.329 822.578C548.987 822.067 549.899 821.811 551.063 821.811C551.575 821.811 552.032 821.854 552.434 821.939C552.841 822.024 553.265 822.152 553.705 822.323V823.999C553.421 823.885 553.035 823.762 552.548 823.63C552.06 823.497 551.575 823.431 551.092 823.431C550.524 823.431 550.088 823.54 549.785 823.757C549.482 823.97 549.33 824.245 549.33 824.581C549.33 824.752 549.385 824.936 549.494 825.135C549.607 825.334 549.818 825.54 550.126 825.753C550.438 825.966 550.893 826.182 551.49 826.399C552.924 826.911 553.968 827.621 554.622 828.53C555.28 829.439 555.609 830.547 555.609 831.854V832.053C555.609 833.028 555.419 833.907 555.041 834.688C554.667 835.469 554.127 836.087 553.421 836.541C552.721 836.996 551.878 837.223 550.893 837.223C549.889 837.223 549.032 836.996 548.322 836.541C547.616 836.087 547.077 835.469 546.703 834.688C546.333 833.907 546.149 833.028 546.149 832.053V831.854C546.149 831.096 546.293 830.403 546.582 829.773C546.871 829.143 547.257 828.615 547.74 828.189C548.222 827.763 548.753 827.479 549.33 827.337V827.28C548.72 827.039 548.234 826.688 547.874 826.229C547.519 825.77 547.342 825.225 547.342 824.595ZM548.109 831.854V832.053C548.109 832.706 548.206 833.308 548.4 833.857C548.599 834.401 548.902 834.839 549.309 835.171C549.721 835.497 550.249 835.661 550.893 835.661C551.527 835.661 552.048 835.497 552.455 835.171C552.863 834.839 553.163 834.401 553.357 833.857C553.552 833.308 553.649 832.706 553.649 832.053V831.854C553.649 831.324 553.535 830.8 553.308 830.284C553.08 829.764 552.761 829.314 552.349 828.935C551.937 828.551 551.452 828.303 550.893 828.189C550.249 828.189 549.721 828.36 549.309 828.701C548.902 829.037 548.599 829.484 548.4 830.043C548.206 830.597 548.109 831.201 548.109 831.854Z" fill="white"/>
<path d="M148.068 668.411H151.788C152.652 668.411 153.388 668.283 153.996 668.027C154.62 667.771 155.132 667.371 155.532 666.827C155.98 666.267 156.308 665.531 156.516 664.619C156.74 663.707 156.852 662.619 156.852 661.355C156.852 658.859 156.412 657.003 155.532 655.787C155.116 655.179 154.58 654.731 153.924 654.443C153.268 654.155 152.476 654.011 151.548 654.011H148.068L148.068 668.411ZM143.652 652.571H151.716C154.1 652.571 155.956 653.243 157.284 654.587C158.036 655.355 158.612 656.299 159.012 657.419C159.412 658.539 159.612 659.739 159.612 661.019C159.612 662.363 159.396 663.627 158.964 664.811C158.548 665.979 157.964 666.963 157.212 667.763C155.884 669.155 153.98 669.851 151.5 669.851H143.652L143.652 668.819L145.668 668.315L145.668 654.107L143.652 653.603L143.652 652.571ZM172.803 663.515H164.427C164.427 664.683 164.587 665.651 164.907 666.419C165.227 667.155 165.683 667.683 166.275 668.003C166.867 668.323 167.507 668.483 168.195 668.483C168.947 668.483 169.635 668.331 170.259 668.027C170.883 667.707 171.443 667.275 171.939 666.731L172.707 667.307C172.147 668.075 171.467 668.731 170.667 669.275C169.867 669.819 168.835 670.091 167.571 670.091C166.467 670.091 165.491 669.859 164.643 669.395C163.795 668.915 163.147 668.219 162.699 667.307C162.459 666.811 162.283 666.259 162.171 665.651C162.059 665.043 162.003 664.395 162.003 663.707C162.003 661.467 162.515 659.731 163.539 658.499C164.579 657.267 165.987 656.651 167.763 656.651C169.395 656.651 170.651 657.163 171.531 658.187C172.427 659.195 172.875 660.595 172.875 662.387C172.875 662.547 172.867 662.699 172.851 662.843C172.851 662.971 172.835 663.195 172.803 663.515ZM167.619 657.947C165.699 657.947 164.643 659.411 164.451 662.339H170.451L170.451 661.547C170.451 660.395 170.203 659.507 169.707 658.883C169.227 658.259 168.531 657.947 167.619 657.947ZM179.786 668.987C180.682 668.987 181.41 668.803 181.97 668.435C182.546 668.067 182.834 667.555 182.834 666.899C182.834 666.371 182.658 665.947 182.306 665.627C181.954 665.307 181.514 665.051 180.986 664.859C180.474 664.651 179.954 664.475 179.426 664.331C178.77 664.123 178.138 663.883 177.53 663.611C176.922 663.323 176.426 662.931 176.042 662.435C175.658 661.939 175.466 661.283 175.466 660.467C175.466 659.315 175.882 658.395 176.714 657.707C177.562 657.003 178.738 656.651 180.242 656.651C181.522 656.651 182.53 656.923 183.266 657.467C184.018 657.995 184.394 658.723 184.394 659.651C184.394 660.147 184.282 660.547 184.058 660.851C183.834 661.139 183.514 661.283 183.098 661.283C182.73 661.283 182.426 661.171 182.186 660.947C181.946 660.723 181.826 660.435 181.826 660.083C181.826 659.779 181.906 659.507 182.066 659.267C182.226 659.011 182.434 658.827 182.69 658.715C182.45 658.379 182.138 658.139 181.754 657.995C181.386 657.835 180.906 657.755 180.314 657.755C179.354 657.755 178.634 657.931 178.154 658.283C177.674 658.619 177.434 659.123 177.434 659.795C177.434 660.275 177.546 660.659 177.77 660.947C178.01 661.219 178.354 661.451 178.802 661.643C179.25 661.835 179.802 662.035 180.458 662.243C181.002 662.403 181.538 662.587 182.066 662.795C182.594 662.987 183.074 663.227 183.506 663.515C183.938 663.803 184.282 664.163 184.538 664.595C184.794 665.027 184.922 665.563 184.922 666.203C184.922 667.019 184.698 667.723 184.25 668.315C183.802 668.891 183.186 669.331 182.402 669.635C181.618 669.939 180.714 670.091 179.69 670.091C178.282 670.091 177.146 669.803 176.282 669.227C175.418 668.651 174.986 667.875 174.986 666.899C174.986 666.387 175.098 665.987 175.322 665.699C175.562 665.395 175.898 665.243 176.33 665.243C176.714 665.243 177.034 665.355 177.29 665.579C177.562 665.803 177.698 666.099 177.698 666.467C177.698 666.771 177.61 667.059 177.434 667.331C177.274 667.603 177.074 667.803 176.834 667.931C177.042 668.235 177.41 668.491 177.938 668.699C178.482 668.891 179.098 668.987 179.786 668.987ZM196.752 668.411L196.752 663.059C196.752 662.019 196.72 661.243 196.656 660.731C196.608 660.219 196.512 659.819 196.368 659.531C195.984 658.747 195.28 658.355 194.256 658.355C193.808 658.355 193.376 658.435 192.96 658.595C192.544 658.755 192.176 658.971 191.856 659.243C191.504 659.547 191.24 659.915 191.064 660.347C190.904 660.763 190.808 661.283 190.776 661.907L190.776 668.411L192.384 668.867L192.384 669.851H186.6L186.6 668.867L188.448 668.411L188.448 652.571L186.6 652.115L186.6 651.131H190.776L190.776 659.147C191.256 658.379 191.888 657.771 192.672 657.323C193.472 656.875 194.328 656.651 195.24 656.651C195.88 656.651 196.456 656.763 196.968 656.987C197.48 657.211 197.888 657.531 198.192 657.947C198.512 658.395 198.736 659.027 198.864 659.843C199.008 660.643 199.08 661.731 199.08 663.107L199.08 668.411L200.928 668.867L200.928 669.851H195.144L195.144 668.867L196.752 668.411ZM204.157 658.331L202.309 657.875L202.309 656.891H206.485L206.485 668.411L208.333 668.867L208.333 669.851H202.309L202.309 668.867L204.157 668.411L204.157 658.331ZM203.821 653.027C203.821 652.563 203.957 652.195 204.229 651.923C204.501 651.651 204.861 651.515 205.309 651.515C205.773 651.515 206.141 651.651 206.413 651.923C206.685 652.195 206.821 652.563 206.821 653.027C206.821 653.475 206.685 653.835 206.413 654.107C206.141 654.379 205.773 654.515 205.309 654.515C204.845 654.515 204.477 654.387 204.205 654.131C203.949 653.859 203.821 653.491 203.821 653.027ZM220.85 663.515H212.474C212.474 664.683 212.634 665.651 212.954 666.419C213.274 667.155 213.73 667.683 214.322 668.003C214.914 668.323 215.554 668.483 216.242 668.483C216.994 668.483 217.682 668.331 218.306 668.027C218.93 667.707 219.49 667.275 219.986 666.731L220.754 667.307C220.194 668.075 219.514 668.731 218.714 669.275C217.914 669.819 216.882 670.091 215.618 670.091C214.514 670.091 213.538 669.859 212.69 669.395C211.842 668.915 211.194 668.219 210.746 667.307C210.506 666.811 210.33 666.259 210.218 665.651C210.106 665.043 210.05 664.395 210.05 663.707C210.05 661.467 210.562 659.731 211.586 658.499C212.626 657.267 214.034 656.651 215.81 656.651C217.442 656.651 218.698 657.163 219.578 658.187C220.474 659.195 220.922 660.595 220.922 662.387C220.922 662.547 220.914 662.699 220.898 662.843C220.898 662.971 220.882 663.195 220.85 663.515ZM215.666 657.947C213.746 657.947 212.69 659.411 212.498 662.339H218.498L218.498 661.547C218.498 660.395 218.25 659.507 217.754 658.883C217.274 658.259 216.578 657.947 215.666 657.947ZM224.497 668.411L224.497 652.571L222.649 652.115L222.649 651.131H226.825L226.825 668.411L228.673 668.867L228.673 669.851H222.649L222.649 668.867L224.497 668.411ZM230.463 663.491C230.463 662.451 230.599 661.459 230.871 660.515C231.143 659.571 231.551 658.803 232.095 658.211C232.559 657.699 233.111 657.315 233.751 657.059C234.391 656.787 235.127 656.651 235.959 656.651C236.663 656.651 237.303 656.787 237.879 657.059C238.471 657.331 238.999 657.819 239.463 658.523L239.463 652.571L237.615 652.115L237.615 651.131H241.791L241.791 668.411L243.639 668.867L243.639 669.851L239.919 670.091L239.727 668.123C239.231 668.859 238.671 669.371 238.047 669.659C237.423 669.947 236.727 670.091 235.959 670.091C235.143 670.091 234.407 669.971 233.751 669.731C233.095 669.491 232.551 669.107 232.119 668.579C231.607 667.955 231.199 667.211 230.895 666.347C230.607 665.467 230.463 664.515 230.463 663.491ZM239.463 663.467C239.463 662.491 239.391 661.643 239.247 660.923C239.103 660.203 238.895 659.619 238.623 659.171C238.367 658.755 238.055 658.443 237.687 658.235C237.319 658.011 236.831 657.899 236.223 657.899C235.679 657.899 235.199 657.995 234.783 658.187C234.383 658.379 234.055 658.659 233.799 659.027C233.511 659.427 233.303 660.003 233.175 660.755C233.047 661.491 232.983 662.339 232.983 663.299C232.983 664.259 233.055 665.099 233.199 665.819C233.343 666.523 233.551 667.107 233.823 667.571C234.095 667.971 234.415 668.283 234.783 668.507C235.167 668.731 235.655 668.843 236.247 668.843C236.807 668.843 237.287 668.755 237.687 668.579C238.103 668.387 238.415 668.107 238.623 667.739C238.895 667.291 239.103 666.715 239.247 666.011C239.391 665.291 239.463 664.443 239.463 663.467ZM256.17 663.515H247.794C247.794 664.683 247.954 665.651 248.274 666.419C248.594 667.155 249.05 667.683 249.642 668.003C250.234 668.323 250.874 668.483 251.562 668.483C252.314 668.483 253.002 668.331 253.626 668.027C254.25 667.707 254.81 667.275 255.306 666.731L256.074 667.307C255.514 668.075 254.834 668.731 254.034 669.275C253.234 669.819 252.202 670.091 250.938 670.091C249.834 670.091 248.858 669.859 248.01 669.395C247.162 668.915 246.514 668.219 246.066 667.307C245.826 666.811 245.65 666.259 245.538 665.651C245.426 665.043 245.37 664.395 245.37 663.707C245.37 661.467 245.882 659.731 246.906 658.499C247.946 657.267 249.354 656.651 251.13 656.651C252.762 656.651 254.018 657.163 254.898 658.187C255.794 659.195 256.242 660.595 256.242 662.387C256.242 662.547 256.234 662.699 256.218 662.843C256.218 662.971 256.202 663.195 256.17 663.515ZM250.986 657.947C249.066 657.947 248.01 659.411 247.818 662.339H253.818L253.818 661.547C253.818 660.395 253.57 659.507 253.074 658.883C252.594 658.259 251.898 657.947 250.986 657.947ZM258.401 663.491C258.401 662.451 258.537 661.459 258.809 660.515C259.081 659.571 259.489 658.803 260.033 658.211C260.497 657.699 261.049 657.315 261.689 657.059C262.329 656.787 263.065 656.651 263.897 656.651C264.601 656.651 265.241 656.787 265.817 657.059C266.409 657.331 266.937 657.819 267.401 658.523L267.401 652.571L265.553 652.115L265.553 651.131H269.729L269.729 668.411L271.577 668.867L271.577 669.851L267.857 670.091L267.665 668.123C267.169 668.859 266.609 669.371 265.985 669.659C265.361 669.947 264.665 670.091 263.897 670.091C263.081 670.091 262.345 669.971 261.689 669.731C261.033 669.491 260.489 669.107 260.057 668.579C259.545 667.955 259.137 667.211 258.833 666.347C258.545 665.467 258.401 664.515 258.401 663.491ZM267.401 663.467C267.401 662.491 267.329 661.643 267.185 660.923C267.041 660.203 266.833 659.619 266.561 659.171C266.305 658.755 265.993 658.443 265.625 658.235C265.257 658.011 264.769 657.899 264.161 657.899C263.617 657.899 263.137 657.995 262.721 658.187C262.321 658.379 261.993 658.659 261.737 659.027C261.449 659.427 261.241 660.003 261.113 660.755C260.985 661.491 260.921 662.339 260.921 663.299C260.921 664.259 260.993 665.099 261.137 665.819C261.281 666.523 261.489 667.107 261.761 667.571C262.033 667.971 262.353 668.283 262.721 668.507C263.105 668.731 263.593 668.843 264.185 668.843C264.745 668.843 265.225 668.755 265.625 668.579C266.041 668.387 266.353 668.107 266.561 667.739C266.833 667.291 267.041 666.715 267.185 666.011C267.329 665.291 267.401 664.443 267.401 663.467ZM273.476 670.091L276.98 652.331H278.348L274.844 670.091H273.476ZM291.271 668.411H294.991C295.855 668.411 296.591 668.283 297.199 668.027C297.823 667.771 298.335 667.371 298.735 666.827C299.183 666.267 299.511 665.531 299.719 664.619C299.943 663.707 300.055 662.619 300.055 661.355C300.055 658.859 299.615 657.003 298.735 655.787C298.319 655.179 297.783 654.731 297.127 654.443C296.471 654.155 295.679 654.011 294.751 654.011H291.271L291.271 668.411ZM286.855 652.571H294.919C297.303 652.571 299.159 653.243 300.487 654.587C301.239 655.355 301.815 656.299 302.215 657.419C302.615 658.539 302.815 659.739 302.815 661.019C302.815 662.363 302.599 663.627 302.167 664.811C301.751 665.979 301.167 666.963 300.415 667.763C299.087 669.155 297.183 669.851 294.703 669.851H286.855L286.855 668.819L288.871 668.315L288.871 654.107L286.855 653.603L286.855 652.571ZM316.942 663.251C316.942 664.291 316.782 665.283 316.462 666.227C316.158 667.155 315.726 667.923 315.166 668.531C314.686 669.059 314.094 669.451 313.39 669.707C312.686 669.963 311.886 670.091 310.99 670.091C310.11 670.091 309.326 669.971 308.638 669.731C307.95 669.475 307.366 669.091 306.886 668.579C306.342 667.987 305.918 667.259 305.614 666.395C305.326 665.515 305.182 664.563 305.182 663.539C305.182 662.499 305.334 661.507 305.638 660.563C305.942 659.603 306.382 658.819 306.958 658.211C307.47 657.667 308.062 657.275 308.734 657.035C309.422 656.779 310.206 656.651 311.086 656.651C311.966 656.651 312.758 656.779 313.462 657.035C314.166 657.275 314.758 657.651 315.238 658.163C315.798 658.755 316.222 659.499 316.51 660.395C316.798 661.275 316.942 662.227 316.942 663.251ZM307.75 663.275C307.75 664.251 307.822 665.099 307.966 665.819C308.126 666.523 308.342 667.107 308.614 667.571C308.886 667.971 309.206 668.283 309.574 668.507C309.958 668.731 310.454 668.843 311.062 668.843C312.166 668.843 312.99 668.467 313.534 667.715C313.822 667.299 314.03 666.723 314.158 665.987C314.302 665.251 314.374 664.403 314.374 663.443C314.374 662.483 314.294 661.643 314.134 660.923C313.99 660.203 313.782 659.619 313.51 659.171C313.254 658.755 312.926 658.443 312.526 658.235C312.142 658.011 311.646 657.899 311.038 657.899C309.918 657.899 309.11 658.267 308.614 659.003C308.038 659.899 307.75 661.323 307.75 663.275ZM321.774 658.331L324.246 666.971L324.534 668.387H324.654L324.942 666.971L327.75 656.651H329.478L332.382 666.971L332.67 668.387H332.766L333.054 666.971L335.454 658.331L333.894 657.875L333.894 656.891H338.454L338.454 657.875L337.158 658.331L333.582 670.091H331.11L328.254 660.731L325.47 670.091H322.998L319.326 658.331L318.054 657.875L318.054 656.891H323.43L323.43 657.875L321.774 658.331ZM341.501 668.411L341.501 658.331L339.653 657.875L339.653 656.891H343.109L343.637 659.291H343.733C344.213 658.475 344.861 657.835 345.677 657.371C346.493 656.891 347.365 656.651 348.293 656.651C349.621 656.651 350.605 657.083 351.245 657.947C351.565 658.395 351.789 659.027 351.917 659.843C352.061 660.643 352.133 661.731 352.133 663.107L352.133 668.411L353.981 668.867L353.981 669.851H348.197L348.197 668.867L349.805 668.411L349.805 663.059C349.805 662.019 349.773 661.243 349.709 660.731C349.661 660.219 349.565 659.819 349.421 659.531C349.229 659.147 348.949 658.859 348.581 658.667C348.229 658.459 347.805 658.355 347.309 658.355C346.381 658.355 345.581 658.651 344.909 659.243C344.253 659.835 343.893 660.755 343.829 662.003L343.829 668.411L345.437 668.867L345.437 669.851H339.653L339.653 668.867L341.501 668.411ZM354.948 658.091L354.948 657.227L357.276 656.891L357.276 656.651C357.276 654.875 357.796 653.475 358.836 652.451C359.876 651.411 361.284 650.891 363.06 650.891C364.292 650.891 365.284 651.139 366.036 651.635C366.788 652.115 367.164 652.763 367.164 653.579C367.164 654.475 366.74 654.923 365.892 654.923C365.492 654.923 365.188 654.827 364.98 654.635C364.788 654.427 364.692 654.123 364.692 653.723C364.692 653.339 364.82 652.923 365.076 652.475C364.532 652.027 363.828 651.803 362.964 651.803C362.372 651.803 361.852 651.883 361.404 652.043C360.748 652.267 360.284 652.659 360.012 653.219C359.74 653.763 359.604 654.587 359.604 655.691L359.604 656.891H367.14L367.14 668.411L368.988 668.867L368.988 669.851H363.204L363.204 668.867L364.812 668.411L364.812 658.091H359.604L359.604 668.411L361.476 668.867L361.476 669.851H355.428L355.428 668.867L357.276 668.411L357.276 658.091H354.948ZM381.514 663.515H373.138C373.138 664.683 373.298 665.651 373.618 666.419C373.938 667.155 374.394 667.683 374.986 668.003C375.578 668.323 376.218 668.483 376.906 668.483C377.658 668.483 378.346 668.331 378.97 668.027C379.594 667.707 380.154 667.275 380.65 666.731L381.418 667.307C380.858 668.075 380.178 668.731 379.378 669.275C378.578 669.819 377.546 670.091 376.282 670.091C375.178 670.091 374.202 669.859 373.354 669.395C372.506 668.915 371.858 668.219 371.41 667.307C371.17 666.811 370.994 666.259 370.882 665.651C370.77 665.043 370.714 664.395 370.714 663.707C370.714 661.467 371.226 659.731 372.25 658.499C373.29 657.267 374.698 656.651 376.474 656.651C378.106 656.651 379.362 657.163 380.242 658.187C381.138 659.195 381.586 660.595 381.586 662.387C381.586 662.547 381.578 662.699 381.562 662.843C381.562 662.971 381.546 663.195 381.514 663.515ZM376.33 657.947C374.41 657.947 373.354 659.411 373.162 662.339H379.162L379.162 661.547C379.162 660.395 378.914 659.507 378.418 658.883C377.938 658.259 377.242 657.947 376.33 657.947ZM385.161 668.411L385.161 652.571L383.313 652.115L383.313 651.131H387.489L387.489 668.411L389.337 668.867L389.337 669.851H383.313L383.313 668.867L385.161 668.411ZM391.127 663.491C391.127 662.451 391.263 661.459 391.535 660.515C391.807 659.571 392.215 658.803 392.759 658.211C393.223 657.699 393.775 657.315 394.415 657.059C395.055 656.787 395.791 656.651 396.623 656.651C397.327 656.651 397.967 656.787 398.543 657.059C399.135 657.331 399.663 657.819 400.127 658.523L400.127 652.571L398.279 652.115L398.279 651.131H402.455L402.455 668.411L404.303 668.867L404.303 669.851L400.583 670.091L400.391 668.123C399.895 668.859 399.335 669.371 398.711 669.659C398.087 669.947 397.391 670.091 396.623 670.091C395.807 670.091 395.071 669.971 394.415 669.731C393.759 669.491 393.215 669.107 392.783 668.579C392.271 667.955 391.863 667.211 391.559 666.347C391.271 665.467 391.127 664.515 391.127 663.491ZM400.127 663.467C400.127 662.491 400.055 661.643 399.911 660.923C399.767 660.203 399.559 659.619 399.287 659.171C399.031 658.755 398.719 658.443 398.351 658.235C397.983 658.011 397.495 657.899 396.887 657.899C396.343 657.899 395.863 657.995 395.447 658.187C395.047 658.379 394.719 658.659 394.463 659.027C394.175 659.427 393.967 660.003 393.839 660.755C393.711 661.491 393.647 662.339 393.647 663.299C393.647 664.259 393.719 665.099 393.863 665.819C394.007 666.523 394.215 667.107 394.487 667.571C394.759 667.971 395.079 668.283 395.447 668.507C395.831 668.731 396.319 668.843 396.911 668.843C397.471 668.843 397.951 668.755 398.351 668.579C398.767 668.387 399.079 668.107 399.287 667.739C399.559 667.291 399.767 666.715 399.911 666.011C400.055 665.291 400.127 664.443 400.127 663.467Z" fill="#C726AD"/>
<path d="M776.867 647.414L754.981 660.414L776.867 673.414" stroke="#C726AD" stroke-width="3"/>
<path d="M679.98 647.414L658.094 660.414L679.98 673.414" stroke="#C726AD" stroke-width="3"/>
<path d="M583.094 647.414L561.208 660.414L583.094 673.414" stroke="#C726AD" stroke-width="3"/>
<path d="M486.207 647.414L464.321 660.414L486.207 673.414" stroke="#C726AD" stroke-width="3"/>
<defs>
<filter id="filter0_d_854_7254" x="148.5" y="489.007" width="878.604" height="160.344" filterUnits="userSpaceOnUse" color-interpolation-filters="sRGB">
<feFlood flood-opacity="0" result="BackgroundImageFix"/>
<feColorMatrix in="SourceAlpha" type="matrix" values="0 0 0 0 0 0 0 0 0 0 0 0 0 0 0 0 0 0 127 0" result="hardAlpha"/>
<feOffset dy="4"/>
<feGaussianBlur stdDeviation="2"/>
<feComposite in2="hardAlpha" operator="out"/>
<feColorMatrix type="matrix" values="0 0 0 0 0 0 0 0 0 0 0 0 0 0 0 0 0 0 0.25 0"/>
<feBlend mode="normal" in2="BackgroundImageFix" result="effect1_dropShadow_854_7254"/>
<feBlend mode="normal" in="SourceGraphic" in2="effect1_dropShadow_854_7254" result="shape"/>
</filter>
</defs>
</svg>
