<svg width="1122" height="901" viewBox="0 0 1122 901" fill="none" xmlns="http://www.w3.org/2000/svg">
<rect width="1122" height="900" transform="translate(0 0.354004)" fill="#0C0C31"/>
<path d="M62.64 85.154H65.74C66.46 85.154 67.0733 85.0473 67.58 84.834C68.1 84.6207 68.5267 84.2873 68.86 83.834C69.2333 83.3673 69.5067 82.754 69.68 81.994C69.8667 81.234 69.96 80.3273 69.96 79.274C69.96 77.194 69.5933 75.6473 68.86 74.634C68.5133 74.1273 68.0667 73.754 67.52 73.514C66.9733 73.274 66.3133 73.154 65.54 73.154H62.64L62.64 85.154ZM58.96 71.954H65.68C67.6667 71.954 69.2133 72.514 70.32 73.634C70.9467 74.274 71.4267 75.0607 71.76 75.994C72.0933 76.9273 72.26 77.9273 72.26 78.994C72.26 80.114 72.08 81.1673 71.72 82.154C71.3733 83.1273 70.8867 83.9473 70.26 84.614C69.1533 85.774 67.5667 86.354 65.5 86.354H58.96L58.96 85.494L60.64 85.074L60.64 73.234L58.96 72.814L58.96 71.954ZM75.5725 76.754L74.0325 76.374L74.0325 75.554H77.5125L77.5125 85.154L79.0525 85.534L79.0525 86.354H74.0325L74.0325 85.534L75.5725 85.154L75.5725 76.754ZM75.2925 72.334C75.2925 71.9473 75.4058 71.6407 75.6325 71.414C75.8592 71.1873 76.1592 71.074 76.5325 71.074C76.9192 71.074 77.2258 71.1873 77.4525 71.414C77.6792 71.6407 77.7925 71.9473 77.7925 72.334C77.7925 72.7073 77.6792 73.0073 77.4525 73.234C77.2258 73.4607 76.9192 73.574 76.5325 73.574C76.1458 73.574 75.8392 73.4673 75.6125 73.254C75.3992 73.0273 75.2925 72.7207 75.2925 72.334ZM89.483 81.074H82.503C82.503 82.0473 82.6363 82.854 82.903 83.494C83.1696 84.1073 83.5496 84.5473 84.043 84.814C84.5363 85.0807 85.0696 85.214 85.643 85.214C86.2696 85.214 86.843 85.0873 87.363 84.834C87.883 84.5673 88.3496 84.2073 88.763 83.754L89.403 84.234C88.9363 84.874 88.3696 85.4207 87.703 85.874C87.0363 86.3273 86.1763 86.554 85.123 86.554C84.203 86.554 83.3896 86.3607 82.683 85.974C81.9763 85.574 81.4363 84.994 81.063 84.234C80.863 83.8207 80.7163 83.3607 80.623 82.854C80.5296 82.3473 80.483 81.8073 80.483 81.234C80.483 79.3673 80.9096 77.9207 81.763 76.894C82.6296 75.8673 83.803 75.354 85.283 75.354C86.643 75.354 87.6896 75.7807 88.423 76.634C89.1696 77.474 89.543 78.6407 89.543 80.134C89.543 80.2673 89.5363 80.394 89.523 80.514C89.523 80.6207 89.5096 80.8073 89.483 81.074ZM85.163 76.434C83.563 76.434 82.683 77.654 82.523 80.094H87.523L87.523 79.434C87.523 78.474 87.3163 77.734 86.903 77.214C86.503 76.694 85.923 76.434 85.163 76.434ZM90.6019 76.554L90.6019 75.834L92.5419 75.554L92.8019 73.034L94.4819 72.794L94.4819 75.554H97.0419L97.0419 76.554H94.4819L94.4819 83.694C94.4819 84.1473 94.4885 84.4607 94.5019 84.634C94.5152 84.794 94.5419 84.9273 94.5819 85.034C94.6219 85.1273 94.6952 85.194 94.8019 85.234C94.9085 85.2607 95.0819 85.274 95.3219 85.274H96.7219L96.7219 85.854C96.0819 86.094 95.5152 86.2673 95.0219 86.374C94.5419 86.494 94.1552 86.554 93.8619 86.554C93.2619 86.554 92.8752 86.3073 92.7019 85.814C92.6485 85.654 92.6085 85.4473 92.5819 85.194C92.5552 84.9407 92.5419 84.5673 92.5419 84.074L92.5419 76.554H90.6019ZM106.198 85.154L106.198 80.694C106.198 79.8273 106.172 79.1807 106.118 78.754C106.078 78.3273 105.998 77.994 105.878 77.754C105.558 77.1007 104.972 76.774 104.118 76.774C103.745 76.774 103.385 76.8407 103.038 76.974C102.692 77.1073 102.385 77.2873 102.118 77.514C101.825 77.7673 101.605 78.074 101.458 78.434C101.325 78.7807 101.245 79.214 101.218 79.734L101.218 85.154L102.558 85.534L102.558 86.354H97.7383L97.7383 85.534L99.2783 85.154L99.2783 71.954L97.7383 71.574L97.7383 70.754H101.218L101.218 77.434C101.618 76.794 102.145 76.2873 102.798 75.914C103.465 75.5407 104.178 75.354 104.938 75.354C105.472 75.354 105.952 75.4473 106.378 75.634C106.805 75.8207 107.145 76.0873 107.398 76.434C107.665 76.8073 107.852 77.334 107.958 78.014C108.078 78.6807 108.138 79.5873 108.138 80.734L108.138 85.154L109.678 85.534L109.678 86.354H104.858L104.858 85.534L106.198 85.154ZM119.901 76.754L116.581 85.874C116.208 86.9007 115.868 87.7273 115.561 88.354C115.254 88.994 114.914 89.454 114.541 89.734C114.168 90.014 113.688 90.154 113.101 90.154C112.474 90.154 111.934 89.9873 111.481 89.654C111.041 89.3207 110.821 88.9007 110.821 88.394C110.821 88.0207 110.928 87.7073 111.141 87.454C111.354 87.214 111.634 87.094 111.981 87.094C112.288 87.094 112.528 87.174 112.701 87.334C112.888 87.5073 112.981 87.7407 112.981 88.034C112.981 88.2207 112.941 88.4007 112.861 88.574C112.794 88.7473 112.701 88.9007 112.581 89.034C112.608 89.1673 112.688 89.254 112.821 89.294C112.954 89.3473 113.068 89.374 113.161 89.374C113.348 89.374 113.521 89.3273 113.681 89.234C113.841 89.1407 114.008 88.9407 114.181 88.634C114.368 88.3407 114.568 87.874 114.781 87.234L115.021 86.494L110.881 76.754L109.681 76.374L109.681 75.554L114.161 75.554L114.321 76.374L112.901 76.754L115.881 84.594H115.961L118.481 76.754L117.321 76.374L117.321 75.554H121.121L121.121 76.374L119.901 76.754ZM123.284 85.154L123.284 71.954L121.744 71.574L121.744 70.754H125.224L125.224 85.154L126.764 85.534L126.764 86.354H121.744L121.744 85.534L123.284 85.154ZM142.354 81.074H135.374C135.374 82.0473 135.507 82.854 135.774 83.494C136.041 84.1073 136.421 84.5473 136.914 84.814C137.407 85.0807 137.941 85.214 138.514 85.214C139.141 85.214 139.714 85.0873 140.234 84.834C140.754 84.5673 141.221 84.2073 141.634 83.754L142.274 84.234C141.807 84.874 141.241 85.4207 140.574 85.874C139.907 86.3273 139.047 86.554 137.994 86.554C137.074 86.554 136.261 86.3607 135.554 85.974C134.847 85.574 134.307 84.994 133.934 84.234C133.734 83.8207 133.587 83.3607 133.494 82.854C133.401 82.3473 133.354 81.8073 133.354 81.234C133.354 79.3673 133.781 77.9207 134.634 76.894C135.501 75.8673 136.674 75.354 138.154 75.354C139.514 75.354 140.561 75.7807 141.294 76.634C142.041 77.474 142.414 78.6407 142.414 80.134C142.414 80.2673 142.407 80.394 142.394 80.514C142.394 80.6207 142.381 80.8073 142.354 81.074ZM138.034 76.434C136.434 76.434 135.554 77.654 135.394 80.094H140.394L140.394 79.434C140.394 78.474 140.187 77.734 139.774 77.214C139.374 76.694 138.794 76.434 138.034 76.434ZM143.473 76.554L143.473 75.834L145.413 75.554L145.673 73.034L147.353 72.794L147.353 75.554H149.913L149.913 76.554H147.353L147.353 83.694C147.353 84.1473 147.36 84.4607 147.373 84.634C147.386 84.794 147.413 84.9273 147.453 85.034C147.493 85.1273 147.566 85.194 147.673 85.234C147.78 85.2607 147.953 85.274 148.193 85.274H149.593L149.593 85.854C148.953 86.094 148.386 86.2673 147.893 86.374C147.413 86.494 147.026 86.554 146.733 86.554C146.133 86.554 145.746 86.3073 145.573 85.814C145.52 85.654 145.48 85.4473 145.453 85.194C145.426 84.9407 145.413 84.5673 145.413 84.074L145.413 76.554H143.473ZM159.069 85.154L159.069 80.694C159.069 79.8273 159.043 79.1807 158.989 78.754C158.949 78.3273 158.869 77.994 158.749 77.754C158.429 77.1007 157.843 76.774 156.989 76.774C156.616 76.774 156.256 76.8407 155.909 76.974C155.563 77.1073 155.256 77.2873 154.989 77.514C154.696 77.7673 154.476 78.074 154.329 78.434C154.196 78.7807 154.116 79.214 154.089 79.734L154.089 85.154L155.429 85.534L155.429 86.354H150.609L150.609 85.534L152.149 85.154L152.149 71.954L150.609 71.574L150.609 70.754H154.089L154.089 77.434C154.489 76.794 155.016 76.2873 155.669 75.914C156.336 75.5407 157.049 75.354 157.809 75.354C158.343 75.354 158.823 75.4473 159.249 75.634C159.676 75.8207 160.016 76.0873 160.269 76.434C160.536 76.8073 160.723 77.334 160.829 78.014C160.949 78.6807 161.009 79.5873 161.009 80.734L161.009 85.154L162.549 85.534L162.549 86.354H157.729L157.729 85.534L159.069 85.154ZM172.92 81.074H165.94C165.94 82.0473 166.074 82.854 166.34 83.494C166.607 84.1073 166.987 84.5473 167.48 84.814C167.974 85.0807 168.507 85.214 169.08 85.214C169.707 85.214 170.28 85.0873 170.8 84.834C171.32 84.5673 171.787 84.2073 172.2 83.754L172.84 84.234C172.374 84.874 171.807 85.4207 171.14 85.874C170.474 86.3273 169.614 86.554 168.56 86.554C167.64 86.554 166.827 86.3607 166.12 85.974C165.414 85.574 164.874 84.994 164.5 84.234C164.3 83.8207 164.154 83.3607 164.06 82.854C163.967 82.3473 163.92 81.8073 163.92 81.234C163.92 79.3673 164.347 77.9207 165.2 76.894C166.067 75.8673 167.24 75.354 168.72 75.354C170.08 75.354 171.127 75.7807 171.86 76.634C172.607 77.474 172.98 78.6407 172.98 80.134C172.98 80.2673 172.974 80.394 172.96 80.514C172.96 80.6207 172.947 80.8073 172.92 81.074ZM168.6 76.434C167 76.434 166.12 77.654 165.96 80.094H170.96L170.96 79.434C170.96 78.474 170.754 77.734 170.34 77.214C169.94 76.694 169.36 76.434 168.6 76.434ZM180.599 76.714C180.546 76.674 180.479 76.6473 180.399 76.634C180.333 76.6073 180.266 76.594 180.199 76.594C180.039 76.594 179.866 76.6673 179.679 76.814C179.493 76.9607 179.313 77.1607 179.139 77.414C178.966 77.654 178.806 77.934 178.659 78.254C178.473 78.7073 178.326 79.2073 178.219 79.754C178.113 80.2873 178.059 80.8407 178.059 81.414L178.059 85.154L180.219 85.534L180.219 86.354L174.579 86.354L174.579 85.534L176.119 85.154L176.119 76.754L174.579 76.374L174.579 75.554H177.459L177.899 78.194H177.979C178.286 77.2873 178.699 76.5873 179.219 76.094C179.739 75.6007 180.313 75.354 180.939 75.354C181.459 75.354 181.893 75.5207 182.239 75.854C182.586 76.174 182.759 76.6073 182.759 77.154C182.759 77.554 182.653 77.874 182.439 78.114C182.239 78.3407 181.966 78.454 181.619 78.454C181.273 78.454 180.999 78.3473 180.799 78.134C180.599 77.9073 180.499 77.614 180.499 77.254C180.499 77.174 180.506 77.1007 180.519 77.034C180.533 76.954 180.559 76.8473 180.599 76.714Z" fill="white"/>
<g filter="url(#filter0_d_676_4948)">
<path d="M728.193 643.354H796.19H811.706M898.414 643.354H773.778H826.766H819.464M145 643.354H681M943 643.354H984.666H1023" stroke="#C3FA50" stroke-width="3"/>
</g>
<path d="M679.5 643.701L682 641.868L686.453 623.992V585.491L685.079 554.782L686.453 571.741L689.201 574.949V641.868H697.444V598.783V503.447V362.735V475.946L699.734 485.572V561.199V641.868L701.566 634.534L705.23 641.868H708.436L712.558 636.367V351.735V460.363L715.305 639.117L718.511 643.243L721.259 639.117L722.634 636.367L721.727 524.531L721.924 548.823L724.464 626.742V639.117L727.212 643.701" stroke="#C3FA50" stroke-width="3"/>
<path d="M144.834 685.688L1024.83 685.688" stroke="white" stroke-width="2"/>
<line x1="588.143" y1="685.55" x2="588.143" y2="707.821" stroke="white" stroke-width="2"/>
<line x1="411.131" y1="685.55" x2="411.131" y2="707.821" stroke="white" stroke-width="2"/>
<line x1="234.117" y1="685.55" x2="234.117" y2="707.821" stroke="white" stroke-width="2"/>
<line x1="144.432" y1="684.436" x2="144.432" y2="706.707" stroke="white" stroke-width="2"/>
<line x1="854.842" y1="685.55" x2="854.842" y2="707.821" stroke="white" stroke-width="2"/>
<line x1="677.828" y1="685.55" x2="677.828" y2="707.821" stroke="white" stroke-width="2"/>
<line x1="500.816" y1="685.55" x2="500.816" y2="707.821" stroke="white" stroke-width="2"/>
<line x1="322.625" y1="685.55" x2="322.625" y2="707.821" stroke="white" stroke-width="2"/>
<line x1="944.527" y1="685.55" x2="944.527" y2="707.821" stroke="white" stroke-width="2"/>
<line x1="1023.59" y1="685.55" x2="1023.59" y2="707.821" stroke="white" stroke-width="2"/>
<line x1="766.336" y1="685.55" x2="766.336" y2="707.821" stroke="white" stroke-width="2"/>
<path d="M223.056 728.894C223.056 729.827 223.276 730.601 223.716 731.214C224.156 731.814 224.863 732.114 225.836 732.114C226.303 732.114 226.81 731.961 227.356 731.654C227.916 731.347 228.443 730.854 228.936 730.174C228.856 728.827 228.543 727.741 227.996 726.914C227.463 726.087 226.676 725.674 225.636 725.674C225.156 725.674 224.716 725.821 224.316 726.114C223.93 726.394 223.623 726.774 223.396 727.254C223.17 727.734 223.056 728.281 223.056 728.894ZM225.136 738.174C224.55 738.174 224.03 738.061 223.576 737.834C223.136 737.607 222.756 737.307 222.436 736.934L222.976 736.334C223.256 736.681 223.583 736.947 223.956 737.134C224.343 737.307 224.743 737.394 225.156 737.394C225.836 737.394 226.463 737.194 227.036 736.794C227.61 736.394 228.07 735.734 228.416 734.814C228.776 733.894 228.956 732.654 228.956 731.094C228.516 731.627 228.016 732.054 227.456 732.374C226.896 732.694 226.316 732.854 225.716 732.854C224.61 732.854 223.743 732.521 223.116 731.854C222.49 731.174 222.176 730.187 222.176 728.894C222.176 728.121 222.336 727.434 222.656 726.834C222.976 726.234 223.403 725.767 223.936 725.434C224.47 725.087 225.05 724.914 225.676 724.914C226.943 724.914 227.95 725.434 228.696 726.474C229.456 727.501 229.836 728.987 229.836 730.934C229.836 732.721 229.616 734.147 229.176 735.214C228.736 736.267 228.156 737.027 227.436 737.494C226.73 737.947 225.963 738.174 225.136 738.174ZM233.087 738.174C232.873 738.174 232.673 738.094 232.487 737.934C232.313 737.774 232.227 737.554 232.227 737.274C232.227 736.981 232.313 736.754 232.487 736.594C232.673 736.434 232.873 736.354 233.087 736.354C233.313 736.354 233.507 736.434 233.667 736.594C233.84 736.754 233.927 736.981 233.927 737.274C233.927 737.554 233.84 737.774 233.667 737.934C233.507 738.094 233.313 738.174 233.087 738.174ZM240.042 738.174C238.828 738.174 237.888 737.594 237.222 736.434C236.555 735.274 236.222 733.627 236.222 731.494C236.222 729.374 236.555 727.747 237.222 726.614C237.888 725.481 238.828 724.914 240.042 724.914C241.268 724.914 242.208 725.481 242.862 726.614C243.528 727.747 243.862 729.374 243.862 731.494C243.862 733.627 243.528 735.274 242.862 736.434C242.208 737.594 241.268 738.174 240.042 738.174ZM240.042 737.414C240.935 737.414 241.642 736.914 242.162 735.914C242.695 734.914 242.962 733.441 242.962 731.494C242.962 729.547 242.695 728.094 242.162 727.134C241.642 726.161 240.935 725.674 240.042 725.674C239.162 725.674 238.455 726.161 237.922 727.134C237.388 728.094 237.122 729.547 237.122 731.494C237.122 733.441 237.388 734.914 237.922 735.914C238.455 736.914 239.162 737.414 240.042 737.414Z" fill="white"/>
<path d="M128.59 737.934V737.154H131.59V726.554H129.31V725.954C129.83 725.861 130.297 725.747 130.71 725.614C131.123 725.481 131.477 725.327 131.77 725.154H132.49V737.154H135.27V737.934H128.59ZM141.26 738.174C140.047 738.174 139.107 737.594 138.44 736.434C137.774 735.274 137.44 733.627 137.44 731.494C137.44 729.374 137.774 727.747 138.44 726.614C139.107 725.481 140.047 724.914 141.26 724.914C142.487 724.914 143.427 725.481 144.08 726.614C144.747 727.747 145.08 729.374 145.08 731.494C145.08 733.627 144.747 735.274 144.08 736.434C143.427 737.594 142.487 738.174 141.26 738.174ZM141.26 737.414C142.154 737.414 142.86 736.914 143.38 735.914C143.914 734.914 144.18 733.441 144.18 731.494C144.18 729.547 143.914 728.094 143.38 727.134C142.86 726.161 142.154 725.674 141.26 725.674C140.38 725.674 139.674 726.161 139.14 727.134C138.607 728.094 138.34 729.547 138.34 731.494C138.34 733.441 138.607 734.914 139.14 735.914C139.674 736.914 140.38 737.414 141.26 737.414ZM148.251 738.174C148.037 738.174 147.837 738.094 147.651 737.934C147.477 737.774 147.391 737.554 147.391 737.274C147.391 736.981 147.477 736.754 147.651 736.594C147.837 736.434 148.037 736.354 148.251 736.354C148.477 736.354 148.671 736.434 148.831 736.594C149.004 736.754 149.091 736.981 149.091 737.274C149.091 737.554 149.004 737.774 148.831 737.934C148.671 738.094 148.477 738.174 148.251 738.174ZM155.206 738.174C153.992 738.174 153.052 737.594 152.386 736.434C151.719 735.274 151.386 733.627 151.386 731.494C151.386 729.374 151.719 727.747 152.386 726.614C153.052 725.481 153.992 724.914 155.206 724.914C156.432 724.914 157.372 725.481 158.026 726.614C158.692 727.747 159.026 729.374 159.026 731.494C159.026 733.627 158.692 735.274 158.026 736.434C157.372 737.594 156.432 738.174 155.206 738.174ZM155.206 737.414C156.099 737.414 156.806 736.914 157.326 735.914C157.859 734.914 158.126 733.441 158.126 731.494C158.126 729.547 157.859 728.094 157.326 727.134C156.806 726.161 156.099 725.674 155.206 725.674C154.326 725.674 153.619 726.161 153.086 727.134C152.552 728.094 152.286 729.547 152.286 731.494C152.286 733.441 152.552 734.914 153.086 735.914C153.619 736.914 154.326 737.414 155.206 737.414Z" fill="white"/>
<path d="M315.862 737.061C315.089 737.061 314.395 736.907 313.782 736.601C313.169 736.294 312.682 735.874 312.322 735.341C311.975 734.807 311.802 734.207 311.802 733.541C311.802 732.967 311.929 732.447 312.182 731.981C312.449 731.514 312.775 731.114 313.162 730.781C313.562 730.434 313.962 730.154 314.362 729.941V729.861C313.895 729.554 313.469 729.161 313.082 728.681C312.709 728.187 312.522 727.601 312.522 726.921C312.522 726.307 312.669 725.767 312.962 725.301C313.269 724.834 313.675 724.467 314.182 724.201C314.689 723.934 315.249 723.801 315.862 723.801C316.955 723.801 317.802 724.121 318.402 724.761C319.015 725.387 319.322 726.181 319.322 727.141C319.322 727.607 319.222 728.054 319.022 728.481C318.822 728.894 318.582 729.267 318.302 729.601C318.022 729.921 317.755 730.181 317.502 730.381V730.461C317.875 730.687 318.229 730.947 318.562 731.241C318.909 731.521 319.189 731.861 319.402 732.261C319.629 732.661 319.742 733.147 319.742 733.721C319.742 734.334 319.575 734.894 319.242 735.401C318.922 735.907 318.469 736.314 317.882 736.621C317.309 736.914 316.635 737.061 315.862 737.061ZM316.802 730.121C317.349 729.681 317.762 729.214 318.042 728.721C318.335 728.227 318.482 727.707 318.482 727.161C318.482 726.454 318.249 725.841 317.782 725.321C317.329 724.801 316.689 724.541 315.862 724.541C315.155 724.541 314.569 724.767 314.102 725.221C313.635 725.661 313.402 726.227 313.402 726.921C313.402 727.521 313.569 728.021 313.902 728.421C314.235 728.807 314.662 729.134 315.182 729.401C315.702 729.654 316.242 729.894 316.802 730.121ZM315.862 736.321C316.769 736.321 317.489 736.067 318.022 735.561C318.569 735.054 318.842 734.434 318.842 733.701C318.842 733.047 318.655 732.521 318.282 732.121C317.909 731.707 317.422 731.361 316.822 731.081C316.235 730.801 315.609 730.534 314.942 730.281C314.289 730.654 313.749 731.107 313.322 731.641C312.895 732.174 312.682 732.794 312.682 733.501C312.682 734.034 312.815 734.514 313.082 734.941C313.362 735.354 313.742 735.687 314.222 735.941C314.702 736.194 315.249 736.321 315.862 736.321ZM322.772 737.061C322.559 737.061 322.359 736.981 322.172 736.821C321.999 736.661 321.912 736.441 321.912 736.161C321.912 735.867 321.999 735.641 322.172 735.481C322.359 735.321 322.559 735.241 322.772 735.241C322.999 735.241 323.192 735.321 323.352 735.481C323.526 735.641 323.612 735.867 323.612 736.161C323.612 736.441 323.526 736.661 323.352 736.821C323.192 736.981 322.999 737.061 322.772 737.061ZM329.727 737.061C328.514 737.061 327.574 736.481 326.907 735.321C326.241 734.161 325.907 732.514 325.907 730.381C325.907 728.261 326.241 726.634 326.907 725.501C327.574 724.367 328.514 723.801 329.727 723.801C330.954 723.801 331.894 724.367 332.547 725.501C333.214 726.634 333.547 728.261 333.547 730.381C333.547 732.514 333.214 734.161 332.547 735.321C331.894 736.481 330.954 737.061 329.727 737.061ZM329.727 736.301C330.621 736.301 331.327 735.801 331.847 734.801C332.381 733.801 332.647 732.327 332.647 730.381C332.647 728.434 332.381 726.981 331.847 726.021C331.327 725.047 330.621 724.561 329.727 724.561C328.847 724.561 328.141 725.047 327.607 726.021C327.074 726.981 326.807 728.434 326.807 730.381C326.807 732.327 327.074 733.801 327.607 734.801C328.141 735.801 328.847 736.301 329.727 736.301Z" fill="white"/>
<path d="M404.449 736.821C404.516 735.101 404.689 733.561 404.969 732.201C405.249 730.841 405.663 729.574 406.209 728.401C406.756 727.214 407.456 726.021 408.309 724.821H401.569V724.041H409.429V724.561C408.669 725.574 408.036 726.554 407.529 727.501C407.036 728.434 406.643 729.381 406.349 730.341C406.056 731.301 405.836 732.307 405.689 733.361C405.556 734.414 405.463 735.567 405.409 736.821H404.449ZM412.46 737.061C412.246 737.061 412.046 736.981 411.86 736.821C411.686 736.661 411.6 736.441 411.6 736.161C411.6 735.867 411.686 735.641 411.86 735.481C412.046 735.321 412.246 735.241 412.46 735.241C412.686 735.241 412.88 735.321 413.04 735.481C413.213 735.641 413.3 735.867 413.3 736.161C413.3 736.441 413.213 736.661 413.04 736.821C412.88 736.981 412.686 737.061 412.46 737.061ZM419.415 737.061C418.201 737.061 417.261 736.481 416.595 735.321C415.928 734.161 415.595 732.514 415.595 730.381C415.595 728.261 415.928 726.634 416.595 725.501C417.261 724.367 418.201 723.801 419.415 723.801C420.641 723.801 421.581 724.367 422.235 725.501C422.901 726.634 423.235 728.261 423.235 730.381C423.235 732.514 422.901 734.161 422.235 735.321C421.581 736.481 420.641 737.061 419.415 737.061ZM419.415 736.301C420.308 736.301 421.015 735.801 421.535 734.801C422.068 733.801 422.335 732.327 422.335 730.381C422.335 728.434 422.068 726.981 421.535 726.021C421.015 725.047 420.308 724.561 419.415 724.561C418.535 724.561 417.828 725.047 417.295 726.021C416.761 726.981 416.495 728.434 416.495 730.381C416.495 732.327 416.761 733.801 417.295 734.801C417.828 735.801 418.535 736.301 419.415 736.301Z" fill="white"/>
<path d="M493.076 729.861C492.622 729.861 492.122 730.007 491.576 730.301C491.029 730.581 490.496 731.074 489.976 731.781C490.056 733.127 490.362 734.221 490.896 735.061C491.429 735.887 492.216 736.301 493.256 736.301C493.749 736.301 494.189 736.161 494.576 735.881C494.962 735.587 495.269 735.201 495.496 734.721C495.722 734.227 495.836 733.674 495.836 733.061C495.836 732.141 495.616 731.381 495.176 730.781C494.749 730.167 494.049 729.861 493.076 729.861ZM493.236 737.061C491.956 737.061 490.936 736.541 490.176 735.501C489.429 734.447 489.056 732.954 489.056 731.021C489.056 729.674 489.182 728.541 489.436 727.621C489.689 726.701 490.036 725.961 490.476 725.401C490.916 724.841 491.416 724.434 491.976 724.181C492.549 723.927 493.142 723.801 493.756 723.801C494.356 723.801 494.869 723.914 495.296 724.141C495.736 724.367 496.122 724.667 496.456 725.041L495.916 725.641C495.636 725.294 495.309 725.034 494.936 724.861C494.562 724.674 494.169 724.581 493.756 724.581C493.076 724.581 492.442 724.781 491.856 725.181C491.282 725.581 490.822 726.241 490.476 727.161C490.129 728.081 489.956 729.321 489.956 730.881C490.396 730.334 490.896 729.901 491.456 729.581C492.016 729.261 492.589 729.101 493.176 729.101C494.296 729.101 495.169 729.441 495.796 730.121C496.422 730.787 496.736 731.767 496.736 733.061C496.736 733.834 496.576 734.521 496.256 735.121C495.936 735.721 495.509 736.194 494.976 736.541C494.456 736.887 493.876 737.061 493.236 737.061ZM499.786 737.061C499.573 737.061 499.373 736.981 499.186 736.821C499.013 736.661 498.926 736.441 498.926 736.161C498.926 735.867 499.013 735.641 499.186 735.481C499.373 735.321 499.573 735.241 499.786 735.241C500.013 735.241 500.206 735.321 500.366 735.481C500.539 735.641 500.626 735.867 500.626 736.161C500.626 736.441 500.539 736.661 500.366 736.821C500.206 736.981 500.013 737.061 499.786 737.061ZM506.741 737.061C505.528 737.061 504.588 736.481 503.921 735.321C503.254 734.161 502.921 732.514 502.921 730.381C502.921 728.261 503.254 726.634 503.921 725.501C504.588 724.367 505.528 723.801 506.741 723.801C507.968 723.801 508.908 724.367 509.561 725.501C510.228 726.634 510.561 728.261 510.561 730.381C510.561 732.514 510.228 734.161 509.561 735.321C508.908 736.481 507.968 737.061 506.741 737.061ZM506.741 736.301C507.634 736.301 508.341 735.801 508.861 734.801C509.394 733.801 509.661 732.327 509.661 730.381C509.661 728.434 509.394 726.981 508.861 726.021C508.341 725.047 507.634 724.561 506.741 724.561C505.861 724.561 505.154 725.047 504.621 726.021C504.088 726.981 503.821 728.434 503.821 730.381C503.821 732.327 504.088 733.801 504.621 734.801C505.154 735.801 505.861 736.301 506.741 736.301Z" fill="white"/>
<path d="M579.882 737.061C579.202 737.061 578.608 736.974 578.102 736.801C577.608 736.627 577.182 736.407 576.822 736.141C576.462 735.874 576.142 735.607 575.862 735.341L576.362 734.721C576.748 735.107 577.208 735.467 577.742 735.801C578.288 736.121 578.995 736.281 579.862 736.281C580.435 736.281 580.962 736.141 581.442 735.861C581.922 735.567 582.308 735.161 582.602 734.641C582.895 734.121 583.042 733.521 583.042 732.841C583.042 731.814 582.755 731.007 582.182 730.421C581.622 729.834 580.868 729.541 579.922 729.541C579.428 729.541 579.002 729.621 578.642 729.781C578.295 729.927 577.928 730.134 577.542 730.401L576.922 730.021L577.382 724.041H583.282V724.821H578.182L577.782 729.441C578.115 729.241 578.462 729.081 578.822 728.961C579.182 728.827 579.595 728.761 580.062 728.761C580.782 728.761 581.435 728.907 582.022 729.201C582.622 729.481 583.095 729.921 583.442 730.521C583.788 731.107 583.962 731.867 583.962 732.801C583.962 733.707 583.762 734.481 583.362 735.121C582.975 735.747 582.468 736.227 581.842 736.561C581.228 736.894 580.575 737.061 579.882 737.061ZM587.112 737.061C586.899 737.061 586.699 736.981 586.512 736.821C586.339 736.661 586.252 736.441 586.252 736.161C586.252 735.867 586.339 735.641 586.512 735.481C586.699 735.321 586.899 735.241 587.112 735.241C587.339 735.241 587.532 735.321 587.692 735.481C587.865 735.641 587.952 735.867 587.952 736.161C587.952 736.441 587.865 736.661 587.692 736.821C587.532 736.981 587.339 737.061 587.112 737.061ZM594.067 737.061C592.854 737.061 591.914 736.481 591.247 735.321C590.58 734.161 590.247 732.514 590.247 730.381C590.247 728.261 590.58 726.634 591.247 725.501C591.914 724.367 592.854 723.801 594.067 723.801C595.294 723.801 596.234 724.367 596.887 725.501C597.554 726.634 597.887 728.261 597.887 730.381C597.887 732.514 597.554 734.161 596.887 735.321C596.234 736.481 595.294 737.061 594.067 737.061ZM594.067 736.301C594.96 736.301 595.667 735.801 596.187 734.801C596.72 733.801 596.987 732.327 596.987 730.381C596.987 728.434 596.72 726.981 596.187 726.021C595.667 725.047 594.96 724.561 594.067 724.561C593.187 724.561 592.48 725.047 591.947 726.021C591.414 726.981 591.147 728.434 591.147 730.381C591.147 732.327 591.414 733.801 591.947 734.801C592.48 735.801 593.187 736.301 594.067 736.301Z" fill="white"/>
<path d="M666.427 732.241H671.227V727.561C671.227 727.267 671.234 726.901 671.247 726.461C671.274 726.021 671.294 725.654 671.307 725.361H671.227C671.067 725.627 670.901 725.887 670.727 726.141C670.554 726.394 670.374 726.667 670.187 726.961L666.427 732.241ZM671.227 736.821V733.001H665.347V732.481L671.287 724.041H672.087V732.241H673.987V733.001H672.087V736.821H671.227ZM676.798 737.061C676.584 737.061 676.384 736.981 676.198 736.821C676.024 736.661 675.938 736.441 675.938 736.161C675.938 735.867 676.024 735.641 676.198 735.481C676.384 735.321 676.584 735.241 676.798 735.241C677.024 735.241 677.218 735.321 677.378 735.481C677.551 735.641 677.638 735.867 677.638 736.161C677.638 736.441 677.551 736.661 677.378 736.821C677.218 736.981 677.024 737.061 676.798 737.061ZM683.753 737.061C682.539 737.061 681.599 736.481 680.933 735.321C680.266 734.161 679.933 732.514 679.933 730.381C679.933 728.261 680.266 726.634 680.933 725.501C681.599 724.367 682.539 723.801 683.753 723.801C684.979 723.801 685.919 724.367 686.573 725.501C687.239 726.634 687.573 728.261 687.573 730.381C687.573 732.514 687.239 734.161 686.573 735.321C685.919 736.481 684.979 737.061 683.753 737.061ZM683.753 736.301C684.646 736.301 685.353 735.801 685.873 734.801C686.406 733.801 686.673 732.327 686.673 730.381C686.673 728.434 686.406 726.981 685.873 726.021C685.353 725.047 684.646 724.561 683.753 724.561C682.873 724.561 682.166 725.047 681.633 726.021C681.099 726.981 680.833 728.434 680.833 730.381C680.833 732.327 681.099 733.801 681.633 734.801C682.166 735.801 682.873 736.301 683.753 736.301Z" fill="white"/>
<path d="M756.994 737.061C756.314 737.061 755.72 736.974 755.214 736.801C754.707 736.614 754.267 736.381 753.894 736.101C753.534 735.821 753.214 735.541 752.934 735.261L753.454 734.641C753.84 735.054 754.307 735.434 754.854 735.781C755.4 736.114 756.114 736.281 756.994 736.281C757.86 736.281 758.574 736.027 759.134 735.521C759.694 735.001 759.974 734.314 759.974 733.461C759.974 732.581 759.627 731.867 758.934 731.321C758.254 730.774 757.114 730.501 755.514 730.501V729.721C756.5 729.721 757.287 729.601 757.874 729.361C758.46 729.107 758.88 728.767 759.134 728.341C759.387 727.914 759.514 727.447 759.514 726.941C759.514 726.221 759.28 725.647 758.814 725.221C758.347 724.781 757.72 724.561 756.934 724.561C756.347 724.561 755.8 724.701 755.294 724.981C754.8 725.247 754.367 725.574 753.994 725.961L753.474 725.361C753.914 724.934 754.414 724.567 754.974 724.261C755.547 723.954 756.2 723.801 756.934 723.801C757.6 723.801 758.194 723.921 758.714 724.161C759.247 724.401 759.667 724.754 759.974 725.221C760.28 725.674 760.434 726.227 760.434 726.881C760.434 727.721 760.2 728.401 759.734 728.921C759.28 729.427 758.7 729.801 757.994 730.041V730.121C758.527 730.227 759.007 730.434 759.434 730.741C759.874 731.034 760.227 731.407 760.494 731.861C760.76 732.314 760.894 732.841 760.894 733.441C760.894 734.174 760.72 734.814 760.374 735.361C760.027 735.907 759.56 736.327 758.974 736.621C758.387 736.914 757.727 737.061 756.994 737.061ZM764.124 737.061C763.91 737.061 763.71 736.981 763.524 736.821C763.35 736.661 763.264 736.441 763.264 736.161C763.264 735.867 763.35 735.641 763.524 735.481C763.71 735.321 763.91 735.241 764.124 735.241C764.35 735.241 764.544 735.321 764.704 735.481C764.877 735.641 764.964 735.867 764.964 736.161C764.964 736.441 764.877 736.661 764.704 736.821C764.544 736.981 764.35 737.061 764.124 737.061ZM771.079 737.061C769.865 737.061 768.925 736.481 768.259 735.321C767.592 734.161 767.259 732.514 767.259 730.381C767.259 728.261 767.592 726.634 768.259 725.501C768.925 724.367 769.865 723.801 771.079 723.801C772.305 723.801 773.245 724.367 773.899 725.501C774.565 726.634 774.899 728.261 774.899 730.381C774.899 732.514 774.565 734.161 773.899 735.321C773.245 736.481 772.305 737.061 771.079 737.061ZM771.079 736.301C771.972 736.301 772.679 735.801 773.199 734.801C773.732 733.801 773.999 732.327 773.999 730.381C773.999 728.434 773.732 726.981 773.199 726.021C772.679 725.047 771.972 724.561 771.079 724.561C770.199 724.561 769.492 725.047 768.959 726.021C768.425 726.981 768.159 728.434 768.159 730.381C768.159 732.327 768.425 733.801 768.959 734.801C769.492 735.801 770.199 736.301 771.079 736.301Z" fill="white"/>
<path d="M842.861 736.821V736.261C844.261 734.834 845.428 733.601 846.361 732.561C847.294 731.507 847.994 730.567 848.461 729.741C848.928 728.914 849.161 728.134 849.161 727.401C849.161 726.601 848.934 725.927 848.481 725.381C848.041 724.834 847.341 724.561 846.381 724.561C845.808 724.561 845.261 724.721 844.741 725.041C844.234 725.361 843.788 725.761 843.401 726.241L842.821 725.681C843.301 725.147 843.834 724.701 844.421 724.341C845.008 723.981 845.688 723.801 846.461 723.801C847.608 723.801 848.494 724.127 849.121 724.781C849.748 725.434 850.061 726.301 850.061 727.381C850.061 728.221 849.814 729.074 849.321 729.941C848.841 730.807 848.161 731.741 847.281 732.741C846.414 733.741 845.388 734.867 844.201 736.121C844.548 736.094 844.901 736.074 845.261 736.061C845.634 736.034 845.994 736.021 846.341 736.021H850.701V736.821H842.861ZM853.811 737.061C853.598 737.061 853.398 736.981 853.211 736.821C853.038 736.661 852.951 736.441 852.951 736.161C852.951 735.867 853.038 735.641 853.211 735.481C853.398 735.321 853.598 735.241 853.811 735.241C854.038 735.241 854.231 735.321 854.391 735.481C854.565 735.641 854.651 735.867 854.651 736.161C854.651 736.441 854.565 736.661 854.391 736.821C854.231 736.981 854.038 737.061 853.811 737.061ZM860.766 737.061C859.553 737.061 858.613 736.481 857.946 735.321C857.28 734.161 856.946 732.514 856.946 730.381C856.946 728.261 857.28 726.634 857.946 725.501C858.613 724.367 859.553 723.801 860.766 723.801C861.993 723.801 862.933 724.367 863.586 725.501C864.253 726.634 864.586 728.261 864.586 730.381C864.586 732.514 864.253 734.161 863.586 735.321C862.933 736.481 861.993 737.061 860.766 737.061ZM860.766 736.301C861.66 736.301 862.366 735.801 862.886 734.801C863.42 733.801 863.686 732.327 863.686 730.381C863.686 728.434 863.42 726.981 862.886 726.021C862.366 725.047 861.66 724.561 860.766 724.561C859.886 724.561 859.18 725.047 858.646 726.021C858.113 726.981 857.846 728.434 857.846 730.381C857.846 732.327 858.113 733.801 858.646 734.801C859.18 735.801 859.886 736.301 860.766 736.301Z" fill="white"/>
<path d="M938.127 736.821V736.041H941.127V725.441H938.847V724.841C939.367 724.747 939.834 724.634 940.247 724.501C940.661 724.367 941.014 724.214 941.307 724.041H942.027V736.041H944.807V736.821H938.127ZM948.218 737.061C948.004 737.061 947.804 736.981 947.618 736.821C947.444 736.661 947.358 736.441 947.358 736.161C947.358 735.867 947.444 735.641 947.618 735.481C947.804 735.321 948.004 735.241 948.218 735.241C948.444 735.241 948.638 735.321 948.798 735.481C948.971 735.641 949.058 735.867 949.058 736.161C949.058 736.441 948.971 736.661 948.798 736.821C948.638 736.981 948.444 737.061 948.218 737.061ZM955.173 737.061C953.959 737.061 953.019 736.481 952.353 735.321C951.686 734.161 951.353 732.514 951.353 730.381C951.353 728.261 951.686 726.634 952.353 725.501C953.019 724.367 953.959 723.801 955.173 723.801C956.399 723.801 957.339 724.367 957.993 725.501C958.659 726.634 958.993 728.261 958.993 730.381C958.993 732.514 958.659 734.161 957.993 735.321C957.339 736.481 956.399 737.061 955.173 737.061ZM955.173 736.301C956.066 736.301 956.773 735.801 957.293 734.801C957.826 733.801 958.093 732.327 958.093 730.381C958.093 728.434 957.826 726.981 957.293 726.021C956.773 725.047 956.066 724.561 955.173 724.561C954.293 724.561 953.586 725.047 953.053 726.021C952.519 726.981 952.253 728.434 952.253 730.381C952.253 732.327 952.519 733.801 953.053 734.801C953.586 735.801 954.293 736.301 955.173 736.301Z" fill="white"/>
<path d="M1025.01 737.061C1023.8 737.061 1022.86 736.481 1022.19 735.321C1021.53 734.161 1021.19 732.514 1021.19 730.381C1021.19 728.261 1021.53 726.634 1022.19 725.501C1022.86 724.367 1023.8 723.801 1025.01 723.801C1026.24 723.801 1027.18 724.367 1027.83 725.501C1028.5 726.634 1028.83 728.261 1028.83 730.381C1028.83 732.514 1028.5 734.161 1027.83 735.321C1027.18 736.481 1026.24 737.061 1025.01 737.061ZM1025.01 736.301C1025.91 736.301 1026.61 735.801 1027.13 734.801C1027.67 733.801 1027.93 732.327 1027.93 730.381C1027.93 728.434 1027.67 726.981 1027.13 726.021C1026.61 725.047 1025.91 724.561 1025.01 724.561C1024.13 724.561 1023.43 725.047 1022.89 726.021C1022.36 726.981 1022.09 728.434 1022.09 730.381C1022.09 732.327 1022.36 733.801 1022.89 734.801C1023.43 735.801 1024.13 736.301 1025.01 736.301Z" fill="white"/>
<path d="M353.733 311.842C353.733 313.363 353.497 314.795 353.025 316.141C352.571 317.469 351.933 318.579 351.112 319.47C350.396 320.239 349.531 320.815 348.517 321.2C347.521 321.567 346.368 321.75 345.057 321.75C343.729 321.75 342.559 321.567 341.545 321.2C340.532 320.833 339.684 320.282 339.003 319.548C338.199 318.71 337.578 317.661 337.142 316.403C336.705 315.128 336.486 313.747 336.486 312.262C336.486 310.742 336.713 309.317 337.168 307.989C337.64 306.644 338.286 305.526 339.107 304.634C339.841 303.848 340.689 303.271 341.65 302.904C342.628 302.537 343.782 302.354 345.11 302.354C346.438 302.354 347.6 302.537 348.596 302.904C349.609 303.254 350.474 303.804 351.191 304.556C352.012 305.394 352.641 306.452 353.078 307.727C353.515 309.003 353.733 310.375 353.733 311.842ZM339.501 311.738C339.501 313.188 339.623 314.481 339.868 315.617C340.112 316.735 340.462 317.652 340.916 318.369C341.37 319.015 341.938 319.505 342.62 319.837C343.319 320.151 344.175 320.309 345.188 320.309C347.041 320.309 348.404 319.732 349.277 318.579C349.749 317.932 350.107 317.076 350.352 316.01C350.597 314.927 350.719 313.66 350.719 312.209C350.719 310.759 350.597 309.483 350.352 308.383C350.107 307.282 349.749 306.39 349.277 305.709C348.823 305.045 348.238 304.556 347.521 304.241C346.822 303.927 345.992 303.769 345.031 303.769C344.105 303.769 343.301 303.918 342.62 304.215C341.956 304.495 341.397 304.923 340.942 305.499C339.981 306.775 339.501 308.854 339.501 311.738Z" fill="white"/>
<path d="M353.733 311.842C353.733 313.363 353.497 314.795 353.025 316.141C352.571 317.469 351.933 318.579 351.112 319.47C350.396 320.239 349.531 320.815 348.517 321.2C347.521 321.567 346.368 321.75 345.057 321.75C343.729 321.75 342.559 321.567 341.545 321.2C340.532 320.833 339.684 320.282 339.003 319.548C338.199 318.71 337.578 317.661 337.142 316.403C336.705 315.128 336.486 313.747 336.486 312.262C336.486 310.742 336.713 309.317 337.168 307.989C337.64 306.644 338.286 305.526 339.107 304.634C339.841 303.848 340.689 303.271 341.65 302.904C342.628 302.537 343.782 302.354 345.11 302.354C346.438 302.354 347.6 302.537 348.596 302.904C349.609 303.254 350.474 303.804 351.191 304.556C352.012 305.394 352.641 306.452 353.078 307.727C353.515 309.003 353.733 310.375 353.733 311.842ZM339.501 311.738C339.501 313.188 339.623 314.481 339.868 315.617C340.112 316.735 340.462 317.652 340.916 318.369C341.37 319.015 341.938 319.505 342.62 319.837C343.319 320.151 344.175 320.309 345.188 320.309C347.041 320.309 348.404 319.732 349.277 318.579C349.749 317.932 350.107 317.076 350.352 316.01C350.597 314.927 350.719 313.66 350.719 312.209C350.719 310.759 350.597 309.483 350.352 308.383C350.107 307.282 349.749 306.39 349.277 305.709C348.823 305.045 348.238 304.556 347.521 304.241C346.822 303.927 345.992 303.769 345.031 303.769C344.105 303.769 343.301 303.918 342.62 304.215C341.956 304.495 341.397 304.923 340.942 305.499C339.981 306.775 339.501 308.854 339.501 311.738Z" stroke="black"/>
<path d="M180.551 303.813C179.673 303.813 178.92 303.949 178.292 304.219C177.683 304.489 177.163 304.913 176.733 305.489C176.195 306.192 175.774 307.12 175.469 308.273C175.164 309.408 175.012 310.66 175.012 312.03C175.012 313.309 175.146 314.507 175.415 315.624C175.684 316.741 176.061 317.678 176.545 318.435C177.029 319.192 177.611 319.75 178.292 320.111C178.992 320.453 179.861 320.624 180.901 320.624C184.128 320.624 186.001 319.102 186.521 316.057H188C187.193 320.255 184.737 322.354 180.632 322.354C178.158 322.354 176.186 321.633 174.716 320.192C173.838 319.327 173.165 318.237 172.699 316.922C172.233 315.606 172 314.147 172 312.543C172 310.723 172.296 309.075 172.887 307.597C173.479 306.12 174.313 304.94 175.388 304.057C176.751 302.922 178.552 302.354 180.793 302.354C181.905 302.354 182.81 302.498 183.509 302.786C184.208 303.075 184.899 303.588 185.58 304.327L186.118 302.624H187.597V308.597H185.956C185.705 307.012 185.123 305.822 184.208 305.03C183.312 304.219 182.093 303.813 180.551 303.813Z" fill="white"/>
<path d="M180.551 303.813C179.673 303.813 178.92 303.949 178.292 304.219C177.683 304.489 177.163 304.913 176.733 305.489C176.195 306.192 175.774 307.12 175.469 308.273C175.164 309.408 175.012 310.66 175.012 312.03C175.012 313.309 175.146 314.507 175.415 315.624C175.684 316.741 176.061 317.678 176.545 318.435C177.029 319.192 177.611 319.75 178.292 320.111C178.992 320.453 179.861 320.624 180.901 320.624C184.128 320.624 186.001 319.102 186.521 316.057H188C187.193 320.255 184.737 322.354 180.632 322.354C178.158 322.354 176.186 321.633 174.716 320.192C173.838 319.327 173.165 318.237 172.699 316.922C172.233 315.606 172 314.147 172 312.543C172 310.723 172.296 309.075 172.887 307.597C173.479 306.12 174.313 304.94 175.388 304.057C176.751 302.922 178.552 302.354 180.793 302.354C181.905 302.354 182.81 302.498 183.509 302.786C184.208 303.075 184.899 303.588 185.58 304.327L186.118 302.624H187.597V308.597H185.956C185.705 307.012 185.123 305.822 184.208 305.03C183.312 304.219 182.093 303.813 180.551 303.813Z" stroke="black"/>
<path d="M262.551 303.813C261.673 303.813 260.92 303.949 260.292 304.219C259.683 304.489 259.163 304.913 258.733 305.489C258.195 306.192 257.774 307.12 257.469 308.273C257.164 309.408 257.012 310.66 257.012 312.03C257.012 313.309 257.146 314.507 257.415 315.624C257.684 316.741 258.061 317.678 258.545 318.435C259.029 319.192 259.611 319.75 260.292 320.111C260.992 320.453 261.861 320.624 262.901 320.624C266.128 320.624 268.001 319.102 268.521 316.057H270C269.193 320.255 266.737 322.354 262.632 322.354C260.158 322.354 258.186 321.633 256.716 320.192C255.838 319.327 255.165 318.237 254.699 316.922C254.233 315.606 254 314.147 254 312.543C254 310.723 254.296 309.075 254.887 307.597C255.479 306.12 256.313 304.94 257.388 304.057C258.751 302.922 260.552 302.354 262.793 302.354C263.905 302.354 264.81 302.498 265.509 302.786C266.208 303.075 266.899 303.588 267.58 304.327L268.118 302.624H269.597V308.597H267.956C267.705 307.012 267.123 305.822 266.208 305.03C265.312 304.219 264.093 303.813 262.551 303.813Z" fill="white"/>
<path d="M262.551 303.813C261.673 303.813 260.92 303.949 260.292 304.219C259.683 304.489 259.163 304.913 258.733 305.489C258.195 306.192 257.774 307.12 257.469 308.273C257.164 309.408 257.012 310.66 257.012 312.03C257.012 313.309 257.146 314.507 257.415 315.624C257.684 316.741 258.061 317.678 258.545 318.435C259.029 319.192 259.611 319.75 260.292 320.111C260.992 320.453 261.861 320.624 262.901 320.624C266.128 320.624 268.001 319.102 268.521 316.057H270C269.193 320.255 266.737 322.354 262.632 322.354C260.158 322.354 258.186 321.633 256.716 320.192C255.838 319.327 255.165 318.237 254.699 316.922C254.233 315.606 254 314.147 254 312.543C254 310.723 254.296 309.075 254.887 307.597C255.479 306.12 256.313 304.94 257.388 304.057C258.751 302.922 260.552 302.354 262.793 302.354C263.905 302.354 264.81 302.498 265.509 302.786C266.208 303.075 266.899 303.588 267.58 304.327L268.118 302.624H269.597V308.597H267.956C267.705 307.012 267.123 305.822 266.208 305.03C265.312 304.219 264.093 303.813 262.551 303.813Z" stroke="black"/>
<path d="M103.329 304.032V319.548L105.531 320.099V321.226H98.5066V320.099L100.708 319.548V312.288H91.8228V319.548L94.0245 320.099V321.226H87V320.099L89.2017 319.548V304.032L87 303.481V302.354H94.0245V303.481L91.8228 304.032V310.768H100.708V304.032L98.5066 303.481V302.354H105.531V303.481L103.329 304.032Z" fill="white"/>
<path d="M103.329 304.032V319.548L105.531 320.099V321.226H98.5066V320.099L100.708 319.548V312.288H91.8228V319.548L94.0245 320.099V321.226H87V320.099L89.2017 319.548V304.032L87 303.481V302.354H94.0245V303.481L91.8228 304.032V310.768H100.708V304.032L98.5066 303.481V302.354H105.531V303.481L103.329 304.032Z" stroke="black"/>
<path d="M186.329 218.032V225.79V233.548L188.531 234.099V235.226H181.507V234.099L183.708 233.548V226.288H174.823V233.548L177.025 234.099V235.226H170V234.099L172.202 233.548V218.032L170 217.481V216.354H177.025V217.481L174.823 218.032V224.768H183.708V218.032L181.507 217.481V216.354H188.531V217.481L186.329 218.032Z" fill="white"/>
<path d="M186.329 218.032V225.79V233.548L188.531 234.099V235.226H181.507V234.099L183.708 233.548V226.288H174.823V233.548L177.025 234.099V235.226H170V234.099L172.202 233.548V218.032L170 217.481V216.354H177.025V217.481L174.823 218.032V224.768H183.708V218.032L181.507 217.481V216.354H188.531V217.481L186.329 218.032Z" stroke="black"/>
<path d="M186.329 390.618V398.377V406.135L188.531 406.686V407.813H181.507V406.686L183.708 406.135V398.875H174.823V406.135L177.025 406.686V407.813H170V406.686L172.202 406.135V390.618L170 390.068V388.941H177.025V390.068L174.823 390.618V397.355H183.708V390.618L181.507 390.068V388.941H188.531V390.068L186.329 390.618Z" fill="white"/>
<path d="M186.329 390.618V398.377V406.135L188.531 406.686V407.813H181.507V406.686L183.708 406.135V398.875H174.823V406.135L177.025 406.686V407.813H170V406.686L172.202 406.135V390.618L170 390.068V388.941H177.025V390.068L174.823 390.618V397.355H183.708V390.618L181.507 390.068V388.941H188.531V390.068L186.329 390.618Z" stroke="black"/>
<path d="M268.329 218.032V225.79V233.548L270.531 234.099V235.226H263.507V234.099L265.708 233.548V226.288H256.823V233.548L259.025 234.099V235.226H252V234.099L254.202 233.548V218.032L252 217.481V216.354H259.025V217.481L256.823 218.032V224.768H265.708V218.032L263.507 217.481V216.354H270.531V217.481L268.329 218.032Z" fill="white"/>
<path d="M268.329 218.032V225.79V233.548L270.531 234.099V235.226H263.507V234.099L265.708 233.548V226.288H256.823V233.548L259.025 234.099V235.226H252V234.099L254.202 233.548V218.032L252 217.481V216.354H259.025V217.481L256.823 218.032V224.768H265.708V218.032L263.507 217.481V216.354H270.531V217.481L268.329 218.032Z" stroke="black"/>
<path d="M268.329 390.618V398.377V406.135L270.531 406.686V407.813H263.507V406.686L265.708 406.135V398.875H256.823V406.135L259.025 406.686V407.813H252V406.686L254.202 406.135V390.618L252 390.068V388.941H259.025V390.068L256.823 390.618V397.355H265.708V390.618L263.507 390.068V388.941H270.531V390.068L268.329 390.618Z" fill="white"/>
<path d="M268.329 390.618V398.377V406.135L270.531 406.686V407.813H263.507V406.686L265.708 406.135V398.875H256.823V406.135L259.025 406.686V407.813H252V406.686L254.202 406.135V390.618L252 390.068V388.941H259.025V390.068L256.823 390.618V397.355H265.708V390.618L263.507 390.068V388.941H270.531V390.068L268.329 390.618Z" stroke="black"/>
<line x1="179.5" y1="364.941" x2="179.5" y2="346.354" stroke="white" stroke-width="3"/>
<line x1="261.5" y1="364.941" x2="261.5" y2="346.354" stroke="white" stroke-width="3"/>
<line x1="179.5" y1="259.354" x2="179.5" y2="278.354" stroke="white" stroke-width="3"/>
<line x1="261.5" y1="259.354" x2="261.5" y2="278.354" stroke="white" stroke-width="3"/>
<line x1="129.531" y1="310.854" x2="148.118" y2="310.854" stroke="white" stroke-width="3"/>
<line x1="211.715" y1="310.854" x2="230.302" y2="310.854" stroke="white" stroke-width="3"/>
<line x1="293.898" y1="310.854" x2="312.485" y2="310.854" stroke="white" stroke-width="3"/>
<path d="M426.02 303.813C425.142 303.813 424.389 303.949 423.761 304.219C423.152 304.489 422.632 304.913 422.202 305.489C421.664 306.192 421.242 307.12 420.938 308.273C420.633 309.408 420.481 310.66 420.481 312.03C420.481 313.309 420.615 314.507 420.884 315.624C421.153 316.741 421.529 317.678 422.013 318.435C422.497 319.192 423.08 319.75 423.761 320.111C424.46 320.453 425.33 320.624 426.37 320.624C429.596 320.624 431.47 319.102 431.99 316.057H433.469C432.662 320.255 430.206 322.354 426.101 322.354C423.627 322.354 421.655 321.633 420.185 320.192C419.306 319.327 418.634 318.237 418.168 316.922C417.702 315.606 417.469 314.147 417.469 312.543C417.469 310.723 417.765 309.075 418.356 307.597C418.948 306.12 419.781 304.94 420.857 304.057C422.219 302.922 424.021 302.354 426.262 302.354C427.374 302.354 428.279 302.498 428.978 302.786C429.677 303.075 430.367 303.588 431.049 304.327L431.586 302.624H433.065V308.597H431.425C431.174 307.012 430.591 305.822 429.677 305.03C428.781 304.219 427.562 303.813 426.02 303.813Z" fill="white"/>
<path d="M426.02 303.813C425.142 303.813 424.389 303.949 423.761 304.219C423.152 304.489 422.632 304.913 422.202 305.489C421.664 306.192 421.242 307.12 420.938 308.273C420.633 309.408 420.481 310.66 420.481 312.03C420.481 313.309 420.615 314.507 420.884 315.624C421.153 316.741 421.529 317.678 422.013 318.435C422.497 319.192 423.08 319.75 423.761 320.111C424.46 320.453 425.33 320.624 426.37 320.624C429.596 320.624 431.47 319.102 431.99 316.057H433.469C432.662 320.255 430.206 322.354 426.101 322.354C423.627 322.354 421.655 321.633 420.185 320.192C419.306 319.327 418.634 318.237 418.168 316.922C417.702 315.606 417.469 314.147 417.469 312.543C417.469 310.723 417.765 309.075 418.356 307.597C418.948 306.12 419.781 304.94 420.857 304.057C422.219 302.922 424.021 302.354 426.262 302.354C427.374 302.354 428.279 302.498 428.978 302.786C429.677 303.075 430.367 303.588 431.049 304.327L431.586 302.624H433.065V308.597H431.425C431.174 307.012 430.591 305.822 429.677 305.03C428.781 304.219 427.562 303.813 426.02 303.813Z" stroke="black"/>
<path d="M508.02 303.813C507.142 303.813 506.389 303.949 505.761 304.219C505.152 304.489 504.632 304.913 504.202 305.489C503.664 306.192 503.242 307.12 502.938 308.273C502.633 309.408 502.481 310.66 502.481 312.03C502.481 313.309 502.615 314.507 502.884 315.624C503.153 316.741 503.529 317.678 504.013 318.435C504.497 319.192 505.08 319.75 505.761 320.111C506.46 320.453 507.33 320.624 508.37 320.624C511.596 320.624 513.47 319.102 513.99 316.057H515.469C514.662 320.255 512.206 322.354 508.101 322.354C505.627 322.354 503.655 321.633 502.185 320.192C501.306 319.327 500.634 318.237 500.168 316.922C499.702 315.606 499.469 314.147 499.469 312.543C499.469 310.723 499.765 309.075 500.356 307.597C500.948 306.12 501.781 304.94 502.857 304.057C504.219 302.922 506.021 302.354 508.262 302.354C509.374 302.354 510.279 302.498 510.978 302.786C511.677 303.075 512.367 303.588 513.049 304.327L513.586 302.624H515.065V308.597H513.425C513.174 307.012 512.591 305.822 511.677 305.03C510.781 304.219 509.562 303.813 508.02 303.813Z" fill="white"/>
<path d="M508.02 303.813C507.142 303.813 506.389 303.949 505.761 304.219C505.152 304.489 504.632 304.913 504.202 305.489C503.664 306.192 503.242 307.12 502.938 308.273C502.633 309.408 502.481 310.66 502.481 312.03C502.481 313.309 502.615 314.507 502.884 315.624C503.153 316.741 503.529 317.678 504.013 318.435C504.497 319.192 505.08 319.75 505.761 320.111C506.46 320.453 507.33 320.624 508.37 320.624C511.596 320.624 513.47 319.102 513.99 316.057H515.469C514.662 320.255 512.206 322.354 508.101 322.354C505.627 322.354 503.655 321.633 502.185 320.192C501.306 319.327 500.634 318.237 500.168 316.922C499.702 315.606 499.469 314.147 499.469 312.543C499.469 310.723 499.765 309.075 500.356 307.597C500.948 306.12 501.781 304.94 502.857 304.057C504.219 302.922 506.021 302.354 508.262 302.354C509.374 302.354 510.279 302.498 510.978 302.786C511.677 303.075 512.367 303.588 513.049 304.327L513.586 302.624H515.065V308.597H513.425C513.174 307.012 512.591 305.822 511.677 305.03C510.781 304.219 509.562 303.813 508.02 303.813Z" stroke="black"/>
<path d="M431.798 218.032V225.79V233.548L434 234.099V235.226H426.975V234.099L429.177 233.548V226.288H420.292V233.548L422.493 234.099V235.226H415.469V234.099L417.67 233.548V218.032L415.469 217.481V216.354H422.493V217.481L420.292 218.032V224.768H429.177V218.032L426.975 217.481V216.354H434V217.481L431.798 218.032Z" fill="white"/>
<path d="M431.798 218.032V225.79V233.548L434 234.099V235.226H426.975V234.099L429.177 233.548V226.288H420.292V233.548L422.493 234.099V235.226H415.469V234.099L417.67 233.548V218.032L415.469 217.481V216.354H422.493V217.481L420.292 218.032V224.768H429.177V218.032L426.975 217.481V216.354H434V217.481L431.798 218.032Z" stroke="black"/>
<path d="M431.798 390.618V398.377V406.135L434 406.686V407.813H426.975V406.686L429.177 406.135V398.875H420.292V406.135L422.493 406.686V407.813H415.469V406.686L417.67 406.135V390.618L415.469 390.068V388.941H422.493V390.068L420.292 390.618V397.355H429.177V390.618L426.975 390.068V388.941H434V390.068L431.798 390.618Z" fill="white"/>
<path d="M431.798 390.618V398.377V406.135L434 406.686V407.813H426.975V406.686L429.177 406.135V398.875H420.292V406.135L422.493 406.686V407.813H415.469V406.686L417.67 406.135V390.618L415.469 390.068V388.941H422.493V390.068L420.292 390.618V397.355H429.177V390.618L426.975 390.068V388.941H434V390.068L431.798 390.618Z" stroke="black"/>
<path d="M513.798 218.032V225.79V233.548L516 234.099V235.226H508.975V234.099L511.177 233.548V226.288H502.292V233.548L504.493 234.099V235.226H497.469V234.099L499.67 233.548V218.032L497.469 217.481V216.354H504.493V217.481L502.292 218.032V224.768H511.177V218.032L508.975 217.481V216.354H516V217.481L513.798 218.032Z" fill="white"/>
<path d="M513.798 218.032V225.79V233.548L516 234.099V235.226H508.975V234.099L511.177 233.548V226.288H502.292V233.548L504.493 234.099V235.226H497.469V234.099L499.67 233.548V218.032L497.469 217.481V216.354H504.493V217.481L502.292 218.032V224.768H511.177V218.032L508.975 217.481V216.354H516V217.481L513.798 218.032Z" stroke="black"/>
<path d="M513.798 390.618V398.377V406.135L516 406.686V407.813H508.975V406.686L511.177 406.135V398.875H502.292V406.135L504.493 406.686V407.813H497.469V406.686L499.67 406.135V390.618L497.469 390.068V388.941H504.493V390.068L502.292 390.618V397.355H511.177V390.618L508.975 390.068V388.941H516V390.068L513.798 390.618Z" fill="white"/>
<path d="M513.798 390.618V398.377V406.135L516 406.686V407.813H508.975V406.686L511.177 406.135V398.875H502.292V406.135L504.493 406.686V407.813H497.469V406.686L499.67 406.135V390.618L497.469 390.068V388.941H504.493V390.068L502.292 390.618V397.355H511.177V390.618L508.975 390.068V388.941H516V390.068L513.798 390.618Z" stroke="black"/>
<line x1="424.969" y1="364.941" x2="424.969" y2="346.354" stroke="white" stroke-width="3"/>
<line x1="506.969" y1="364.941" x2="506.969" y2="346.354" stroke="white" stroke-width="3"/>
<line x1="424.969" y1="259.354" x2="424.969" y2="278.354" stroke="white" stroke-width="3"/>
<line x1="506.969" y1="259.354" x2="506.969" y2="278.354" stroke="white" stroke-width="3"/>
<line x1="375" y1="310.854" x2="393.587" y2="310.854" stroke="white" stroke-width="3"/>
<line x1="457.184" y1="311.854" x2="475.771" y2="311.854" stroke="white" stroke-width="3"/>
<path d="M599.386 304.032V319.548L601.588 320.099V321.226H594.563V320.099L596.765 319.548V312.288H587.879V319.548L590.081 320.099V321.226H583.057V320.099L585.258 319.548V304.032L583.057 303.481V302.354H590.081V303.481L587.879 304.032V310.768H596.765V304.032L594.563 303.481V302.354H601.588V303.481L599.386 304.032Z" fill="white"/>
<path d="M599.386 304.032V319.548L601.588 320.099V321.226H594.563V320.099L596.765 319.548V312.288H587.879V319.548L590.081 320.099V321.226H583.057V320.099L585.258 319.548V304.032L583.057 303.481V302.354H590.081V303.481L587.879 304.032V310.768H596.765V304.032L594.563 303.481V302.354H601.588V303.481L599.386 304.032Z" stroke="black"/>
<line x1="540.469" y1="309.854" x2="559.056" y2="309.854" stroke="white" stroke-width="3"/>
<path d="M898 643.354L905.31 617.134V399.817L907.523 625.476L910.621 627.671L913.719 642.159H918.144V627.671L920.357 619.769V571.915M920.357 171.854V571.915M944 643.354L940.101 642.159L933.19 633.817L930.977 428.793L933.19 627.671V631.622L930.977 642.159L928.765 639.964L923.897 637.769V631.622L920.357 571.915" stroke="#C3FA50" stroke-width="3"/>
<path d="M114.88 614.614L126.72 614.614L127.14 612.734L128 612.734L128 618.494L127.14 618.494L126.72 616.614L114.88 616.614L114.46 618.494L113.6 618.494L113.6 612.734L114.46 612.734L114.88 614.614ZM126.8 609.614L118.4 609.614L118.02 611.154L117.2 611.154L117.2 608.274L119.2 607.834L119.2 607.754C118.52 607.354 117.987 606.814 117.6 606.134C117.2 605.454 117 604.727 117 603.954C117 602.847 117.36 602.027 118.08 601.494C118.453 601.227 118.98 601.04 119.66 600.934C120.327 600.814 121.233 600.754 122.38 600.754L126.8 600.754L127.18 599.214L128 599.214L128 604.034L127.18 604.034L126.8 602.694L122.34 602.694C121.473 602.694 120.827 602.72 120.4 602.774C119.973 602.814 119.64 602.894 119.4 603.014C119.08 603.174 118.84 603.407 118.68 603.714C118.507 604.007 118.42 604.36 118.42 604.774C118.42 605.547 118.667 606.214 119.16 606.774C119.653 607.32 120.42 607.62 121.46 607.674L126.8 607.674L127.18 606.334L128 606.334L128 611.154L127.18 611.154L126.8 609.614ZM118.2 598.588L117.48 598.588L117.2 596.648L114.68 596.388L114.44 594.708L117.2 594.708L117.2 592.148L118.2 592.148L118.2 594.708L125.34 594.708C125.793 594.708 126.107 594.701 126.28 594.688C126.44 594.675 126.573 594.648 126.68 594.608C126.773 594.568 126.84 594.495 126.88 594.388C126.907 594.281 126.92 594.108 126.92 593.868L126.92 592.468L127.5 592.468C127.74 593.108 127.913 593.675 128.02 594.168C128.14 594.648 128.2 595.035 128.2 595.328C128.2 595.928 127.953 596.315 127.46 596.488C127.3 596.541 127.093 596.581 126.84 596.608C126.587 596.635 126.213 596.648 125.72 596.648L118.2 596.648L118.2 598.588ZM122.72 582.012L122.72 588.992C123.693 588.992 124.5 588.858 125.14 588.592C125.753 588.325 126.193 587.945 126.46 587.452C126.727 586.958 126.86 586.425 126.86 585.852C126.86 585.225 126.733 584.652 126.48 584.132C126.213 583.612 125.853 583.145 125.4 582.732L125.88 582.092C126.52 582.558 127.067 583.125 127.52 583.792C127.973 584.458 128.2 585.318 128.2 586.372C128.2 587.292 128.007 588.105 127.62 588.812C127.22 589.518 126.64 590.058 125.88 590.432C125.467 590.632 125.007 590.778 124.5 590.872C123.993 590.965 123.453 591.012 122.88 591.012C121.013 591.012 119.567 590.585 118.54 589.732C117.513 588.865 117 587.692 117 586.212C117 584.852 117.427 583.805 118.28 583.072C119.12 582.325 120.287 581.952 121.78 581.952C121.913 581.952 122.04 581.958 122.16 581.972C122.267 581.972 122.453 581.985 122.72 582.012ZM118.08 586.332C118.08 587.932 119.3 588.812 121.74 588.972L121.74 583.972L121.08 583.972C120.12 583.972 119.38 584.178 118.86 584.592C118.34 584.992 118.08 585.572 118.08 586.332ZM126.8 578.813L118.4 578.813L118.02 580.353L117.2 580.353L117.2 577.473L119.2 577.033L119.2 576.953C118.52 576.553 117.987 576.013 117.6 575.333C117.2 574.653 117 573.926 117 573.153C117 572.046 117.36 571.226 118.08 570.693C118.453 570.426 118.98 570.239 119.66 570.133C120.327 570.013 121.233 569.953 122.38 569.953L126.8 569.953L127.18 568.413L128 568.413L128 573.233L127.18 573.233L126.8 571.893L122.34 571.893C121.473 571.893 120.827 571.919 120.4 571.973C119.973 572.013 119.64 572.093 119.4 572.213C119.08 572.373 118.84 572.606 118.68 572.913C118.507 573.206 118.42 573.559 118.42 573.973C118.42 574.746 118.667 575.413 119.16 575.973C119.653 576.519 120.42 576.819 121.46 576.873L126.8 576.873L127.18 575.533L128 575.533L128 580.353L127.18 580.353L126.8 578.813ZM127.28 563.087C127.28 562.341 127.127 561.734 126.82 561.267C126.513 560.787 126.087 560.547 125.54 560.547C125.1 560.547 124.747 560.694 124.48 560.987C124.213 561.281 124 561.647 123.84 562.087C123.667 562.514 123.52 562.947 123.4 563.387C123.227 563.934 123.027 564.461 122.8 564.967C122.56 565.474 122.233 565.887 121.82 566.207C121.407 566.527 120.86 566.687 120.18 566.687C119.22 566.687 118.453 566.341 117.88 565.647C117.293 564.941 117 563.961 117 562.707C117 561.641 117.227 560.801 117.68 560.187C118.12 559.561 118.727 559.247 119.5 559.247C119.913 559.247 120.247 559.341 120.5 559.527C120.74 559.714 120.86 559.981 120.86 560.327C120.86 560.634 120.767 560.887 120.58 561.087C120.393 561.287 120.153 561.387 119.86 561.387C119.607 561.387 119.38 561.321 119.18 561.187C118.967 561.054 118.813 560.881 118.72 560.667C118.44 560.867 118.24 561.127 118.12 561.447C117.987 561.754 117.92 562.154 117.92 562.647C117.92 563.447 118.067 564.047 118.36 564.447C118.64 564.847 119.06 565.047 119.62 565.047C120.02 565.047 120.34 564.954 120.58 564.767C120.807 564.567 121 564.281 121.16 563.907C121.32 563.534 121.487 563.074 121.66 562.527C121.793 562.074 121.947 561.627 122.12 561.187C122.28 560.747 122.48 560.347 122.72 559.987C122.96 559.627 123.26 559.341 123.62 559.127C123.98 558.914 124.427 558.807 124.96 558.807C125.64 558.807 126.227 558.994 126.72 559.367C127.2 559.741 127.567 560.254 127.82 560.907C128.073 561.561 128.2 562.314 128.2 563.167C128.2 564.341 127.96 565.287 127.48 566.007C127 566.727 126.353 567.087 125.54 567.087C125.113 567.087 124.78 566.994 124.54 566.807C124.287 566.607 124.16 566.327 124.16 565.967C124.16 565.647 124.253 565.381 124.44 565.167C124.627 564.941 124.873 564.827 125.18 564.827C125.433 564.827 125.673 564.901 125.9 565.047C126.127 565.181 126.293 565.347 126.4 565.547C126.653 565.374 126.867 565.067 127.04 564.627C127.2 564.174 127.28 563.661 127.28 563.087ZM118.4 555.649L118.02 557.189L117.2 557.189L117.2 553.709L126.8 553.709L127.18 552.169L128 552.169L128 557.189L127.18 557.189L126.8 555.649L118.4 555.649ZM113.98 555.929C113.593 555.929 113.287 555.815 113.06 555.589C112.833 555.362 112.72 555.062 112.72 554.689C112.72 554.302 112.833 553.995 113.06 553.769C113.287 553.542 113.593 553.429 113.98 553.429C114.353 553.429 114.653 553.542 114.88 553.769C115.107 553.995 115.22 554.302 115.22 554.689C115.22 555.075 115.113 555.382 114.9 555.609C114.673 555.822 114.367 555.929 113.98 555.929ZM118.2 551.498L117.48 551.498L117.2 549.558L114.68 549.298L114.44 547.618L117.2 547.618L117.2 545.058L118.2 545.058L118.2 547.618L125.34 547.618C125.793 547.618 126.107 547.612 126.28 547.598C126.44 547.585 126.573 547.558 126.68 547.518C126.773 547.478 126.84 547.405 126.88 547.298C126.907 547.192 126.92 547.018 126.92 546.778L126.92 545.378L127.5 545.378C127.74 546.018 127.913 546.585 128.02 547.078C128.14 547.558 128.2 547.945 128.2 548.238C128.2 548.838 127.953 549.225 127.46 549.398C127.3 549.452 127.093 549.492 126.84 549.518C126.587 549.545 126.213 549.558 125.72 549.558L118.2 549.558L118.2 551.498ZM118.4 534.582L127.52 537.902C128.547 538.275 129.373 538.615 130 538.922C130.64 539.228 131.1 539.568 131.38 539.942C131.66 540.315 131.8 540.795 131.8 541.382C131.8 542.008 131.633 542.548 131.3 543.002C130.967 543.442 130.547 543.662 130.04 543.662C129.667 543.662 129.353 543.555 129.1 543.342C128.86 543.128 128.74 542.848 128.74 542.502C128.74 542.195 128.82 541.955 128.98 541.782C129.153 541.595 129.387 541.502 129.68 541.502C129.867 541.502 130.047 541.542 130.22 541.622C130.393 541.688 130.547 541.782 130.68 541.902C130.813 541.875 130.9 541.795 130.94 541.662C130.993 541.528 131.02 541.415 131.02 541.322C131.02 541.135 130.973 540.962 130.88 540.802C130.787 540.642 130.587 540.475 130.28 540.302C129.987 540.115 129.52 539.915 128.88 539.702L128.14 539.462L118.4 543.602L118.02 544.802L117.2 544.802L117.2 540.322L118.02 540.162L118.4 541.582L126.24 538.602L126.24 538.522L118.4 536.002L118.02 537.162L117.2 537.162L117.2 533.362L118.02 533.362L118.4 534.582Z" fill="#C3FA50"/>
<path d="M574.241 828.644C574.241 830.03 574.381 831.31 574.661 832.484C574.941 833.657 575.335 834.697 575.841 835.604C576.348 836.497 576.948 837.224 577.641 837.784C578.335 838.344 579.101 838.71 579.941 838.884L580.461 837.784C579.621 837.61 578.881 837.124 578.241 836.324C577.615 835.524 577.128 834.47 576.781 833.164C576.435 831.857 576.261 830.364 576.261 828.684C576.261 827.017 576.441 825.524 576.801 824.204C577.161 822.87 577.661 821.784 578.301 820.944C578.955 820.104 579.708 819.584 580.561 819.384L580.141 818.404C579.261 818.617 578.455 819.024 577.721 819.624C577.001 820.224 576.381 820.977 575.861 821.884C575.341 822.79 574.941 823.817 574.661 824.964C574.381 826.097 574.241 827.324 574.241 828.644ZM584.763 838.104L586.703 838.484V839.304H581.283V838.484L582.823 838.104V826.104L581.283 825.724V824.904H584.163L584.463 826.444C584.89 825.777 585.37 825.324 585.903 825.084C586.45 824.83 587.063 824.704 587.743 824.704C588.423 824.704 589.037 824.804 589.583 825.004C590.143 825.204 590.597 825.524 590.943 825.964C591.343 826.47 591.657 827.084 591.883 827.804C592.123 828.51 592.243 829.277 592.243 830.104C592.243 830.957 592.11 831.764 591.843 832.524C591.59 833.27 591.243 833.897 590.803 834.404C590.057 835.27 588.983 835.704 587.583 835.704C587.01 835.704 586.49 835.597 586.023 835.384C585.57 835.157 585.15 834.77 584.763 834.224V838.104ZM584.743 830.124C584.743 830.91 584.803 831.597 584.923 832.184C585.043 832.77 585.217 833.244 585.443 833.604C585.657 833.937 585.917 834.197 586.223 834.384C586.543 834.57 586.95 834.664 587.443 834.664C587.897 834.664 588.29 834.584 588.623 834.424C588.97 834.25 589.25 834.017 589.463 833.724C589.703 833.39 589.877 832.924 589.983 832.324C590.09 831.724 590.143 831.037 590.143 830.264C590.143 829.477 590.083 828.797 589.963 828.224C589.843 827.65 589.67 827.177 589.443 826.804C589.23 826.457 588.963 826.197 588.643 826.024C588.337 825.837 587.93 825.744 587.423 825.744C586.97 825.744 586.57 825.824 586.223 825.984C585.89 826.13 585.63 826.357 585.443 826.664C585.23 827.024 585.057 827.497 584.923 828.084C584.803 828.657 584.743 829.337 584.743 830.124ZM597.146 838.104L599.086 838.484V839.304H593.666V838.484L595.206 838.104V826.104L593.666 825.724V824.904H596.546L596.846 826.444C597.273 825.777 597.753 825.324 598.286 825.084C598.833 824.83 599.446 824.704 600.126 824.704C600.806 824.704 601.419 824.804 601.966 825.004C602.526 825.204 602.979 825.524 603.326 825.964C603.726 826.47 604.039 827.084 604.266 827.804C604.506 828.51 604.626 829.277 604.626 830.104C604.626 830.957 604.493 831.764 604.226 832.524C603.973 833.27 603.626 833.897 603.186 834.404C602.439 835.27 601.366 835.704 599.966 835.704C599.393 835.704 598.873 835.597 598.406 835.384C597.953 835.157 597.533 834.77 597.146 834.224V838.104ZM597.126 830.124C597.126 830.91 597.186 831.597 597.306 832.184C597.426 832.77 597.599 833.244 597.826 833.604C598.039 833.937 598.299 834.197 598.606 834.384C598.926 834.57 599.333 834.664 599.826 834.664C600.279 834.664 600.673 834.584 601.006 834.424C601.353 834.25 601.633 834.017 601.846 833.724C602.086 833.39 602.259 832.924 602.366 832.324C602.473 831.724 602.526 831.037 602.526 830.264C602.526 829.477 602.466 828.797 602.346 828.224C602.226 827.65 602.053 827.177 601.826 826.804C601.613 826.457 601.346 826.197 601.026 826.024C600.719 825.837 600.313 825.744 599.806 825.744C599.353 825.744 598.953 825.824 598.606 825.984C598.273 826.13 598.013 826.357 597.826 826.664C597.613 827.024 597.439 827.497 597.306 828.084C597.186 828.657 597.126 829.337 597.126 830.124ZM607.809 834.504V826.104L606.269 825.724V824.904H609.149L609.589 826.904H609.669C610.055 826.237 610.569 825.704 611.209 825.304C611.862 824.904 612.555 824.704 613.289 824.704C613.835 824.704 614.322 824.81 614.749 825.024C615.175 825.224 615.489 825.477 615.689 825.784C615.902 826.117 616.075 826.557 616.209 827.104C616.635 826.357 617.189 825.77 617.869 825.344C618.549 824.917 619.275 824.704 620.049 824.704C620.582 824.704 621.062 824.81 621.489 825.024C621.915 825.224 622.242 825.504 622.469 825.864C622.629 826.117 622.755 826.444 622.849 826.844C622.942 827.244 623.009 827.764 623.049 828.404C623.089 829.03 623.109 829.83 623.109 830.804V834.504L624.649 834.884V835.704H619.829V834.884L621.169 834.504V830.044C621.169 829.177 621.142 828.53 621.089 828.104C621.049 827.677 620.969 827.344 620.849 827.104C620.689 826.784 620.462 826.544 620.169 826.384C619.889 826.21 619.555 826.124 619.169 826.124C618.835 826.124 618.509 826.19 618.189 826.324C617.869 826.457 617.582 826.637 617.329 826.864C617.035 827.13 616.815 827.444 616.669 827.804C616.535 828.164 616.455 828.617 616.429 829.164V834.504L617.769 834.884V835.704H613.149V834.884L614.489 834.504V830.044C614.489 829.177 614.462 828.53 614.409 828.104C614.369 827.677 614.289 827.344 614.169 827.104C614.009 826.784 613.782 826.544 613.489 826.384C613.209 826.21 612.875 826.124 612.489 826.124C612.155 826.124 611.829 826.19 611.509 826.324C611.189 826.457 610.902 826.637 610.649 826.864C610.355 827.13 610.135 827.444 609.989 827.804C609.855 828.164 609.775 828.617 609.749 829.164V834.504L611.089 834.884V835.704H606.269V834.884L607.809 834.504ZM630.995 828.644C630.995 827.324 630.855 826.097 630.575 824.964C630.295 823.817 629.895 822.79 629.375 821.884C628.855 820.977 628.228 820.224 627.495 819.624C626.775 819.024 625.975 818.617 625.095 818.404L624.675 819.384C625.542 819.584 626.295 820.104 626.935 820.944C627.575 821.784 628.075 822.87 628.435 824.204C628.795 825.524 628.975 827.017 628.975 828.684C628.975 830.364 628.795 831.857 628.435 833.164C628.088 834.47 627.602 835.524 626.975 836.324C626.348 837.124 625.615 837.61 624.775 837.784L625.295 838.884C626.135 838.71 626.902 838.344 627.595 837.784C628.288 837.224 628.888 836.497 629.395 835.604C629.902 834.697 630.295 833.657 630.575 832.484C630.855 831.31 630.995 830.03 630.995 828.644Z" fill="white"/>
<path d="M546.842 824.494C546.842 823.656 547.171 822.984 547.829 822.477C548.487 821.966 549.399 821.71 550.563 821.71C551.075 821.71 551.532 821.753 551.934 821.838C552.341 821.923 552.765 822.051 553.205 822.221V823.898C552.921 823.784 552.535 823.661 552.048 823.528C551.56 823.396 551.075 823.329 550.592 823.329C550.024 823.329 549.588 823.438 549.285 823.656C548.982 823.869 548.83 824.144 548.83 824.48C548.83 824.65 548.885 824.835 548.994 825.034C549.107 825.233 549.318 825.439 549.626 825.652C549.938 825.865 550.393 826.08 550.99 826.298C552.424 826.81 553.468 827.52 554.122 828.429C554.78 829.338 555.109 830.446 555.109 831.753V831.952C555.109 832.927 554.919 833.805 554.541 834.587C554.167 835.368 553.627 835.986 552.921 836.44C552.221 836.895 551.378 837.122 550.393 837.122C549.389 837.122 548.532 836.895 547.822 836.44C547.116 835.986 546.577 835.368 546.203 834.587C545.833 833.805 545.649 832.927 545.649 831.952V831.753C545.649 830.995 545.793 830.301 546.082 829.672C546.371 829.042 546.757 828.514 547.24 828.088C547.722 827.662 548.253 827.378 548.83 827.236V827.179C548.22 826.937 547.734 826.587 547.374 826.128C547.019 825.668 546.842 825.124 546.842 824.494ZM547.609 831.753V831.952C547.609 832.605 547.706 833.206 547.9 833.756C548.099 834.3 548.402 834.738 548.809 835.069C549.221 835.396 549.749 835.56 550.393 835.56C551.027 835.56 551.548 835.396 551.955 835.069C552.363 834.738 552.663 834.3 552.857 833.756C553.052 833.206 553.149 832.605 553.149 831.952V831.753C553.149 831.222 553.035 830.699 552.808 830.183C552.58 829.662 552.261 829.212 551.849 828.834C551.437 828.45 550.952 828.202 550.393 828.088C549.749 828.088 549.221 828.258 548.809 828.599C548.402 828.935 548.099 829.383 547.9 829.942C547.706 830.496 547.609 831.099 547.609 831.753Z" fill="white"/>
<defs>
<filter id="filter0_d_676_4948" x="141" y="641.854" width="886" height="11" filterUnits="userSpaceOnUse" color-interpolation-filters="sRGB">
<feFlood flood-opacity="0" result="BackgroundImageFix"/>
<feColorMatrix in="SourceAlpha" type="matrix" values="0 0 0 0 0 0 0 0 0 0 0 0 0 0 0 0 0 0 127 0" result="hardAlpha"/>
<feOffset dy="4"/>
<feGaussianBlur stdDeviation="2"/>
<feComposite in2="hardAlpha" operator="out"/>
<feColorMatrix type="matrix" values="0 0 0 0 0 0 0 0 0 0 0 0 0 0 0 0 0 0 0.25 0"/>
<feBlend mode="normal" in2="BackgroundImageFix" result="effect1_dropShadow_676_4948"/>
<feBlend mode="normal" in="SourceGraphic" in2="effect1_dropShadow_676_4948" result="shape"/>
</filter>
</defs>
</svg>
