<svg width="1122" height="901" viewBox="0 0 1122 901" fill="none" xmlns="http://www.w3.org/2000/svg">
<rect width="1122" height="900" transform="translate(0 0.5)" fill="#0C0C31"/>
<path d="M421.733 311.988C421.733 313.509 421.497 314.941 421.025 316.287C420.571 317.615 419.933 318.725 419.112 319.616C418.396 320.385 417.531 320.961 416.517 321.346C415.521 321.713 414.368 321.896 413.057 321.896C411.729 321.896 410.559 321.713 409.545 321.346C408.532 320.979 407.684 320.428 407.003 319.694C406.199 318.856 405.578 317.807 405.142 316.549C404.705 315.273 404.486 313.893 404.486 312.408C404.486 310.888 404.713 309.463 405.168 308.135C405.64 306.79 406.286 305.672 407.107 304.78C407.841 303.994 408.689 303.417 409.65 303.05C410.628 302.683 411.782 302.5 413.11 302.5C414.438 302.5 415.6 302.683 416.596 303.05C417.609 303.4 418.474 303.95 419.191 304.702C420.012 305.54 420.641 306.598 421.078 307.873C421.515 309.149 421.733 310.521 421.733 311.988ZM407.501 311.884C407.501 313.334 407.623 314.627 407.868 315.763C408.112 316.881 408.462 317.798 408.916 318.515C409.37 319.161 409.938 319.651 410.62 319.983C411.319 320.297 412.175 320.455 413.188 320.455C415.041 320.455 416.404 319.878 417.277 318.725C417.749 318.078 418.107 317.222 418.352 316.156C418.597 315.073 418.719 313.806 418.719 312.355C418.719 310.905 418.597 309.629 418.352 308.529C418.107 307.428 417.749 306.536 417.277 305.855C416.823 305.191 416.238 304.702 415.521 304.387C414.822 304.073 413.992 303.915 413.031 303.915C412.105 303.915 411.301 304.064 410.62 304.361C409.956 304.641 409.397 305.069 408.942 305.645C407.981 306.921 407.501 309 407.501 311.884Z" fill="#FA5050"/>
<path d="M421.733 311.988C421.733 313.509 421.497 314.941 421.025 316.287C420.571 317.615 419.933 318.725 419.112 319.616C418.396 320.385 417.531 320.961 416.517 321.346C415.521 321.713 414.368 321.896 413.057 321.896C411.729 321.896 410.559 321.713 409.545 321.346C408.532 320.979 407.684 320.428 407.003 319.694C406.199 318.856 405.578 317.807 405.142 316.549C404.705 315.273 404.486 313.893 404.486 312.408C404.486 310.888 404.713 309.463 405.168 308.135C405.64 306.79 406.286 305.672 407.107 304.78C407.841 303.994 408.689 303.417 409.65 303.05C410.628 302.683 411.782 302.5 413.11 302.5C414.438 302.5 415.6 302.683 416.596 303.05C417.609 303.4 418.474 303.95 419.191 304.702C420.012 305.54 420.641 306.598 421.078 307.873C421.515 309.149 421.733 310.521 421.733 311.988ZM407.501 311.884C407.501 313.334 407.623 314.627 407.868 315.763C408.112 316.881 408.462 317.798 408.916 318.515C409.37 319.161 409.938 319.651 410.62 319.983C411.319 320.297 412.175 320.455 413.188 320.455C415.041 320.455 416.404 319.878 417.277 318.725C417.749 318.078 418.107 317.222 418.352 316.156C418.597 315.073 418.719 313.806 418.719 312.355C418.719 310.905 418.597 309.629 418.352 308.529C418.107 307.428 417.749 306.536 417.277 305.855C416.823 305.191 416.238 304.702 415.521 304.387C414.822 304.073 413.992 303.915 413.031 303.915C412.105 303.915 411.301 304.064 410.62 304.361C409.956 304.641 409.397 305.069 408.942 305.645C407.981 306.921 407.501 309 407.501 311.884Z" stroke="black"/>
<path d="M504.65 304.178V319.694L506.851 320.245V321.372H499.827V320.245L502.029 319.694V312.434H493.143V319.694L495.345 320.245V321.372H488.32V320.245L490.522 319.694V304.178L488.32 303.627V302.5H495.345V303.627L493.143 304.178V310.914H502.029V304.178L499.827 303.627V302.5H506.851V303.627L504.65 304.178Z" fill="#FA5050"/>
<path d="M504.65 304.178V319.694L506.851 320.245V321.372H499.827V320.245L502.029 319.694V312.434H493.143V319.694L495.345 320.245V321.372H488.32V320.245L490.522 319.694V304.178L488.32 303.627V302.5H495.345V303.627L493.143 304.178V310.914H502.029V304.178L499.827 303.627V302.5H506.851V303.627L504.65 304.178Z" stroke="black"/>
<path d="M248.551 303.959C247.673 303.959 246.92 304.095 246.292 304.365C245.683 304.635 245.163 305.059 244.733 305.635C244.195 306.338 243.774 307.266 243.469 308.419C243.164 309.554 243.012 310.806 243.012 312.176C243.012 313.455 243.146 314.653 243.415 315.77C243.684 316.887 244.061 317.824 244.545 318.581C245.029 319.338 245.611 319.896 246.292 320.257C246.992 320.599 247.861 320.77 248.901 320.77C252.128 320.77 254.001 319.248 254.521 316.203H256C255.193 320.401 252.737 322.5 248.632 322.5C246.158 322.5 244.186 321.779 242.716 320.338C241.838 319.473 241.165 318.383 240.699 317.068C240.233 315.752 240 314.293 240 312.689C240 310.869 240.296 309.221 240.887 307.743C241.479 306.266 242.313 305.086 243.388 304.203C244.751 303.068 246.552 302.5 248.793 302.5C249.905 302.5 250.81 302.644 251.509 302.932C252.208 303.221 252.899 303.734 253.58 304.473L254.118 302.77H255.597V308.743H253.956C253.705 307.158 253.123 305.968 252.208 305.176C251.312 304.365 250.093 303.959 248.551 303.959Z" fill="white"/>
<path d="M248.551 303.959C247.673 303.959 246.92 304.095 246.292 304.365C245.683 304.635 245.163 305.059 244.733 305.635C244.195 306.338 243.774 307.266 243.469 308.419C243.164 309.554 243.012 310.806 243.012 312.176C243.012 313.455 243.146 314.653 243.415 315.77C243.684 316.887 244.061 317.824 244.545 318.581C245.029 319.338 245.611 319.896 246.292 320.257C246.992 320.599 247.861 320.77 248.901 320.77C252.128 320.77 254.001 319.248 254.521 316.203H256C255.193 320.401 252.737 322.5 248.632 322.5C246.158 322.5 244.186 321.779 242.716 320.338C241.838 319.473 241.165 318.383 240.699 317.068C240.233 315.752 240 314.293 240 312.689C240 310.869 240.296 309.221 240.887 307.743C241.479 306.266 242.313 305.086 243.388 304.203C244.751 303.068 246.552 302.5 248.793 302.5C249.905 302.5 250.81 302.644 251.509 302.932C252.208 303.221 252.899 303.734 253.58 304.473L254.118 302.77H255.597V308.743H253.956C253.705 307.158 253.123 305.968 252.208 305.176C251.312 304.365 250.093 303.959 248.551 303.959Z" stroke="black"/>
<path d="M330.551 303.959C329.673 303.959 328.92 304.095 328.292 304.365C327.683 304.635 327.163 305.059 326.733 305.635C326.195 306.338 325.774 307.266 325.469 308.419C325.164 309.554 325.012 310.806 325.012 312.176C325.012 313.455 325.146 314.653 325.415 315.77C325.684 316.887 326.061 317.824 326.545 318.581C327.029 319.338 327.611 319.896 328.292 320.257C328.992 320.599 329.861 320.77 330.901 320.77C334.128 320.77 336.001 319.248 336.521 316.203H338C337.193 320.401 334.737 322.5 330.632 322.5C328.158 322.5 326.186 321.779 324.716 320.338C323.838 319.473 323.165 318.383 322.699 317.068C322.233 315.752 322 314.293 322 312.689C322 310.869 322.296 309.221 322.887 307.743C323.479 306.266 324.313 305.086 325.388 304.203C326.751 303.068 328.552 302.5 330.793 302.5C331.905 302.5 332.81 302.644 333.509 302.932C334.208 303.221 334.899 303.734 335.58 304.473L336.118 302.77H337.597V308.743H335.956C335.705 307.158 335.123 305.968 334.208 305.176C333.312 304.365 332.093 303.959 330.551 303.959Z" fill="white"/>
<path d="M330.551 303.959C329.673 303.959 328.92 304.095 328.292 304.365C327.683 304.635 327.163 305.059 326.733 305.635C326.195 306.338 325.774 307.266 325.469 308.419C325.164 309.554 325.012 310.806 325.012 312.176C325.012 313.455 325.146 314.653 325.415 315.77C325.684 316.887 326.061 317.824 326.545 318.581C327.029 319.338 327.611 319.896 328.292 320.257C328.992 320.599 329.861 320.77 330.901 320.77C334.128 320.77 336.001 319.248 336.521 316.203H338C337.193 320.401 334.737 322.5 330.632 322.5C328.158 322.5 326.186 321.779 324.716 320.338C323.838 319.473 323.165 318.383 322.699 317.068C322.233 315.752 322 314.293 322 312.689C322 310.869 322.296 309.221 322.887 307.743C323.479 306.266 324.313 305.086 325.388 304.203C326.751 303.068 328.552 302.5 330.793 302.5C331.905 302.5 332.81 302.644 333.509 302.932C334.208 303.221 334.899 303.734 335.58 304.473L336.118 302.77H337.597V308.743H335.956C335.705 307.158 335.123 305.968 334.208 305.176C333.312 304.365 332.093 303.959 330.551 303.959Z" stroke="black"/>
<path d="M252.861 391.189V406.811L255 407.365V408.5H248.177V407.365L250.315 406.811V399.501H241.685V406.811L243.823 407.365V408.5H237V407.365L239.139 406.811V391.189L237 390.635V389.5H243.823V390.635L241.685 391.189V397.971H250.315V391.189L248.177 390.635V389.5H255V390.635L252.861 391.189Z" fill="white"/>
<path d="M252.861 391.189V406.811L255 407.365V408.5H248.177V407.365L250.315 406.811V399.501H241.685V406.811L243.823 407.365V408.5H237V407.365L239.139 406.811V391.189L237 390.635V389.5H243.823V390.635L241.685 391.189V397.971H250.315V391.189L248.177 390.635V389.5H255V390.635L252.861 391.189Z" stroke="black"/>
<path d="M334.861 391.189V406.811L337 407.365V408.5H330.177V407.365L332.315 406.811V399.501H323.685V406.811L325.823 407.365V408.5H319V407.365L321.139 406.811V391.189L319 390.635V389.5H325.823V390.635L323.685 391.189V397.971H332.315V391.189L330.177 390.635V389.5H337V390.635L334.861 391.189Z" fill="white"/>
<path d="M334.861 391.189V406.811L337 407.365V408.5H330.177V407.365L332.315 406.811V399.501H323.685V406.811L325.823 407.365V408.5H319V407.365L321.139 406.811V391.189L319 390.635V389.5H325.823V390.635L323.685 391.189V397.971H332.315V391.189L330.177 390.635V389.5H337V390.635L334.861 391.189Z" stroke="black"/>
<path d="M171.329 304.178V319.694L173.531 320.245V321.372H166.507V320.245L168.708 319.694V312.434H159.823V319.694L162.025 320.245V321.372H155V320.245L157.202 319.694V304.178L155 303.627V302.5H162.025V303.627L159.823 304.178V310.914H168.708V304.178L166.507 303.627V302.5H173.531V303.627L171.329 304.178Z" fill="white"/>
<path d="M171.329 304.178V319.694L173.531 320.245V321.372H166.507V320.245L168.708 319.694V312.434H159.823V319.694L162.025 320.245V321.372H155V320.245L157.202 319.694V304.178L155 303.627V302.5H162.025V303.627L159.823 304.178V310.914H168.708V304.178L166.507 303.627V302.5H173.531V303.627L171.329 304.178Z" stroke="black"/>
<path d="M254.329 218.178V225.936V233.694L256.531 234.245V235.372H249.507V234.245L251.708 233.694V226.434H242.823V233.694L245.025 234.245V235.372H238V234.245L240.202 233.694V218.178L238 217.627V216.5H245.025V217.627L242.823 218.178V224.914H251.708V218.178L249.507 217.627V216.5H256.531V217.627L254.329 218.178Z" fill="white"/>
<path d="M254.329 218.178V225.936V233.694L256.531 234.245V235.372H249.507V234.245L251.708 233.694V226.434H242.823V233.694L245.025 234.245V235.372H238V234.245L240.202 233.694V218.178L238 217.627V216.5H245.025V217.627L242.823 218.178V224.914H251.708V218.178L249.507 217.627V216.5H256.531V217.627L254.329 218.178Z" stroke="black"/>
<path d="M336.329 218.178V225.936V233.694L338.531 234.245V235.372H331.507V234.245L333.708 233.694V226.434H324.823V233.694L327.025 234.245V235.372H320V234.245L322.202 233.694V218.178L320 217.627V216.5H327.025V217.627L324.823 218.178V224.914H333.708V218.178L331.507 217.627V216.5H338.531V217.627L336.329 218.178Z" fill="white"/>
<path d="M336.329 218.178V225.936V233.694L338.531 234.245V235.372H331.507V234.245L333.708 233.694V226.434H324.823V233.694L327.025 234.245V235.372H320V234.245L322.202 233.694V218.178L320 217.627V216.5H327.025V217.627L324.823 218.178V224.914H333.708V218.178L331.507 217.627V216.5H338.531V217.627L336.329 218.178Z" stroke="black"/>
<line x1="247.5" y1="365.087" x2="247.5" y2="346.5" stroke="white" stroke-width="3"/>
<line x1="329.5" y1="365.087" x2="329.5" y2="346.5" stroke="white" stroke-width="3"/>
<line x1="247.5" y1="259.5" x2="247.5" y2="278.5" stroke="white" stroke-width="3"/>
<line x1="329.5" y1="259.5" x2="329.5" y2="278.5" stroke="white" stroke-width="3"/>
<line x1="197.531" y1="311" x2="216.118" y2="311" stroke="white" stroke-width="3"/>
<line x1="279.715" y1="311" x2="298.302" y2="311" stroke="white" stroke-width="3"/>
<line x1="361.898" y1="311" x2="380.485" y2="311" stroke="white" stroke-width="3"/>
<line x1="445.732" y1="311" x2="464.319" y2="311" stroke="#FA5050" stroke-width="3"/>
<g filter="url(#filter0_d_676_5484)">
<path d="M727.5 639.5H792.932M896.624 639.5H821.748M143 639.5H681.832M945.23 639.5H984.115H1023" stroke="#C3FA50" stroke-width="3"/>
</g>
<path d="M896.5 639.296L904.538 614.172V395.993L906.846 622.547L910.077 624.751L913.308 639.296H917.923V624.751L920.231 616.817V568.773M915.615 135.5L920.231 568.773M947 639.296H941.462H937.769L933.615 630.922L931.308 425.084L933.615 624.751V628.718L931.308 639.296L929 637.092L923.923 634.888V628.718L920.231 568.773" stroke="#C3FA50" stroke-width="3"/>
<path d="M680.5 639.389H685.079L686.453 638.014V620.138V581.637L685.079 550.928L686.453 567.887L689.201 571.095V638.014H697.444V594.929V499.593V358.881V472.092L699.734 481.718V557.345V638.014L701.566 630.68L705.23 638.014H708.436L712.558 632.513V347.881V456.509L715.305 635.263L718.511 639.389L721.259 635.263L722.634 632.513L721.727 520.677L721.924 544.969L724.464 622.888V635.263L727.212 639.847" stroke="#C3FA50" stroke-width="3"/>
<path d="M144.834 681.834L1024.83 681.834" stroke="white" stroke-width="2"/>
<line x1="588.143" y1="681.696" x2="588.143" y2="703.967" stroke="white" stroke-width="2"/>
<line x1="411.131" y1="681.696" x2="411.131" y2="703.967" stroke="white" stroke-width="2"/>
<line x1="234.117" y1="681.696" x2="234.117" y2="703.967" stroke="white" stroke-width="2"/>
<line x1="144.432" y1="680.582" x2="144.432" y2="702.853" stroke="white" stroke-width="2"/>
<line x1="854.842" y1="681.696" x2="854.842" y2="703.967" stroke="white" stroke-width="2"/>
<line x1="677.828" y1="681.696" x2="677.828" y2="703.967" stroke="white" stroke-width="2"/>
<line x1="500.816" y1="681.696" x2="500.816" y2="703.967" stroke="white" stroke-width="2"/>
<line x1="322.625" y1="681.696" x2="322.625" y2="703.967" stroke="white" stroke-width="2"/>
<line x1="944.527" y1="681.696" x2="944.527" y2="703.967" stroke="white" stroke-width="2"/>
<line x1="1023.59" y1="681.696" x2="1023.59" y2="703.967" stroke="white" stroke-width="2"/>
<line x1="766.336" y1="681.696" x2="766.336" y2="703.967" stroke="white" stroke-width="2"/>
<path d="M223.056 725.04C223.056 725.973 223.276 726.747 223.716 727.36C224.156 727.96 224.863 728.26 225.836 728.26C226.303 728.26 226.81 728.107 227.356 727.8C227.916 727.493 228.443 727 228.936 726.32C228.856 724.973 228.543 723.887 227.996 723.06C227.463 722.233 226.676 721.82 225.636 721.82C225.156 721.82 224.716 721.967 224.316 722.26C223.93 722.54 223.623 722.92 223.396 723.4C223.17 723.88 223.056 724.427 223.056 725.04ZM225.136 734.32C224.55 734.32 224.03 734.207 223.576 733.98C223.136 733.753 222.756 733.453 222.436 733.08L222.976 732.48C223.256 732.827 223.583 733.093 223.956 733.28C224.343 733.453 224.743 733.54 225.156 733.54C225.836 733.54 226.463 733.34 227.036 732.94C227.61 732.54 228.07 731.88 228.416 730.96C228.776 730.04 228.956 728.8 228.956 727.24C228.516 727.773 228.016 728.2 227.456 728.52C226.896 728.84 226.316 729 225.716 729C224.61 729 223.743 728.667 223.116 728C222.49 727.32 222.176 726.333 222.176 725.04C222.176 724.267 222.336 723.58 222.656 722.98C222.976 722.38 223.403 721.913 223.936 721.58C224.47 721.233 225.05 721.06 225.676 721.06C226.943 721.06 227.95 721.58 228.696 722.62C229.456 723.647 229.836 725.133 229.836 727.08C229.836 728.867 229.616 730.293 229.176 731.36C228.736 732.413 228.156 733.173 227.436 733.64C226.73 734.093 225.963 734.32 225.136 734.32ZM233.087 734.32C232.873 734.32 232.673 734.24 232.487 734.08C232.313 733.92 232.227 733.7 232.227 733.42C232.227 733.127 232.313 732.9 232.487 732.74C232.673 732.58 232.873 732.5 233.087 732.5C233.313 732.5 233.507 732.58 233.667 732.74C233.84 732.9 233.927 733.127 233.927 733.42C233.927 733.7 233.84 733.92 233.667 734.08C233.507 734.24 233.313 734.32 233.087 734.32ZM240.042 734.32C238.828 734.32 237.888 733.74 237.222 732.58C236.555 731.42 236.222 729.773 236.222 727.64C236.222 725.52 236.555 723.893 237.222 722.76C237.888 721.627 238.828 721.06 240.042 721.06C241.268 721.06 242.208 721.627 242.862 722.76C243.528 723.893 243.862 725.52 243.862 727.64C243.862 729.773 243.528 731.42 242.862 732.58C242.208 733.74 241.268 734.32 240.042 734.32ZM240.042 733.56C240.935 733.56 241.642 733.06 242.162 732.06C242.695 731.06 242.962 729.587 242.962 727.64C242.962 725.693 242.695 724.24 242.162 723.28C241.642 722.307 240.935 721.82 240.042 721.82C239.162 721.82 238.455 722.307 237.922 723.28C237.388 724.24 237.122 725.693 237.122 727.64C237.122 729.587 237.388 731.06 237.922 732.06C238.455 733.06 239.162 733.56 240.042 733.56Z" fill="white"/>
<path d="M128.59 734.08V733.3H131.59V722.7H129.31V722.1C129.83 722.007 130.297 721.893 130.71 721.76C131.123 721.627 131.477 721.473 131.77 721.3H132.49V733.3H135.27V734.08H128.59ZM141.26 734.32C140.047 734.32 139.107 733.74 138.44 732.58C137.774 731.42 137.44 729.773 137.44 727.64C137.44 725.52 137.774 723.893 138.44 722.76C139.107 721.627 140.047 721.06 141.26 721.06C142.487 721.06 143.427 721.627 144.08 722.76C144.747 723.893 145.08 725.52 145.08 727.64C145.08 729.773 144.747 731.42 144.08 732.58C143.427 733.74 142.487 734.32 141.26 734.32ZM141.26 733.56C142.154 733.56 142.86 733.06 143.38 732.06C143.914 731.06 144.18 729.587 144.18 727.64C144.18 725.693 143.914 724.24 143.38 723.28C142.86 722.307 142.154 721.82 141.26 721.82C140.38 721.82 139.674 722.307 139.14 723.28C138.607 724.24 138.34 725.693 138.34 727.64C138.34 729.587 138.607 731.06 139.14 732.06C139.674 733.06 140.38 733.56 141.26 733.56ZM148.251 734.32C148.037 734.32 147.837 734.24 147.651 734.08C147.477 733.92 147.391 733.7 147.391 733.42C147.391 733.127 147.477 732.9 147.651 732.74C147.837 732.58 148.037 732.5 148.251 732.5C148.477 732.5 148.671 732.58 148.831 732.74C149.004 732.9 149.091 733.127 149.091 733.42C149.091 733.7 149.004 733.92 148.831 734.08C148.671 734.24 148.477 734.32 148.251 734.32ZM155.206 734.32C153.992 734.32 153.052 733.74 152.386 732.58C151.719 731.42 151.386 729.773 151.386 727.64C151.386 725.52 151.719 723.893 152.386 722.76C153.052 721.627 153.992 721.06 155.206 721.06C156.432 721.06 157.372 721.627 158.026 722.76C158.692 723.893 159.026 725.52 159.026 727.64C159.026 729.773 158.692 731.42 158.026 732.58C157.372 733.74 156.432 734.32 155.206 734.32ZM155.206 733.56C156.099 733.56 156.806 733.06 157.326 732.06C157.859 731.06 158.126 729.587 158.126 727.64C158.126 725.693 157.859 724.24 157.326 723.28C156.806 722.307 156.099 721.82 155.206 721.82C154.326 721.82 153.619 722.307 153.086 723.28C152.552 724.24 152.286 725.693 152.286 727.64C152.286 729.587 152.552 731.06 153.086 732.06C153.619 733.06 154.326 733.56 155.206 733.56Z" fill="white"/>
<path d="M315.862 733.207C315.089 733.207 314.395 733.053 313.782 732.747C313.169 732.44 312.682 732.02 312.322 731.487C311.975 730.953 311.802 730.353 311.802 729.687C311.802 729.113 311.929 728.593 312.182 728.127C312.449 727.66 312.775 727.26 313.162 726.927C313.562 726.58 313.962 726.3 314.362 726.087V726.007C313.895 725.7 313.469 725.307 313.082 724.827C312.709 724.333 312.522 723.747 312.522 723.067C312.522 722.453 312.669 721.913 312.962 721.447C313.269 720.98 313.675 720.613 314.182 720.347C314.689 720.08 315.249 719.947 315.862 719.947C316.955 719.947 317.802 720.267 318.402 720.907C319.015 721.533 319.322 722.327 319.322 723.287C319.322 723.753 319.222 724.2 319.022 724.627C318.822 725.04 318.582 725.413 318.302 725.747C318.022 726.067 317.755 726.327 317.502 726.527V726.607C317.875 726.833 318.229 727.093 318.562 727.387C318.909 727.667 319.189 728.007 319.402 728.407C319.629 728.807 319.742 729.293 319.742 729.867C319.742 730.48 319.575 731.04 319.242 731.547C318.922 732.053 318.469 732.46 317.882 732.767C317.309 733.06 316.635 733.207 315.862 733.207ZM316.802 726.267C317.349 725.827 317.762 725.36 318.042 724.867C318.335 724.373 318.482 723.853 318.482 723.307C318.482 722.6 318.249 721.987 317.782 721.467C317.329 720.947 316.689 720.687 315.862 720.687C315.155 720.687 314.569 720.913 314.102 721.367C313.635 721.807 313.402 722.373 313.402 723.067C313.402 723.667 313.569 724.167 313.902 724.567C314.235 724.953 314.662 725.28 315.182 725.547C315.702 725.8 316.242 726.04 316.802 726.267ZM315.862 732.467C316.769 732.467 317.489 732.213 318.022 731.707C318.569 731.2 318.842 730.58 318.842 729.847C318.842 729.193 318.655 728.667 318.282 728.267C317.909 727.853 317.422 727.507 316.822 727.227C316.235 726.947 315.609 726.68 314.942 726.427C314.289 726.8 313.749 727.253 313.322 727.787C312.895 728.32 312.682 728.94 312.682 729.647C312.682 730.18 312.815 730.66 313.082 731.087C313.362 731.5 313.742 731.833 314.222 732.087C314.702 732.34 315.249 732.467 315.862 732.467ZM322.772 733.207C322.559 733.207 322.359 733.127 322.172 732.967C321.999 732.807 321.912 732.587 321.912 732.307C321.912 732.013 321.999 731.787 322.172 731.627C322.359 731.467 322.559 731.387 322.772 731.387C322.999 731.387 323.192 731.467 323.352 731.627C323.526 731.787 323.612 732.013 323.612 732.307C323.612 732.587 323.526 732.807 323.352 732.967C323.192 733.127 322.999 733.207 322.772 733.207ZM329.727 733.207C328.514 733.207 327.574 732.627 326.907 731.467C326.241 730.307 325.907 728.66 325.907 726.527C325.907 724.407 326.241 722.78 326.907 721.647C327.574 720.513 328.514 719.947 329.727 719.947C330.954 719.947 331.894 720.513 332.547 721.647C333.214 722.78 333.547 724.407 333.547 726.527C333.547 728.66 333.214 730.307 332.547 731.467C331.894 732.627 330.954 733.207 329.727 733.207ZM329.727 732.447C330.621 732.447 331.327 731.947 331.847 730.947C332.381 729.947 332.647 728.473 332.647 726.527C332.647 724.58 332.381 723.127 331.847 722.167C331.327 721.193 330.621 720.707 329.727 720.707C328.847 720.707 328.141 721.193 327.607 722.167C327.074 723.127 326.807 724.58 326.807 726.527C326.807 728.473 327.074 729.947 327.607 730.947C328.141 731.947 328.847 732.447 329.727 732.447Z" fill="white"/>
<path d="M404.449 732.967C404.516 731.247 404.689 729.707 404.969 728.347C405.249 726.987 405.663 725.72 406.209 724.547C406.756 723.36 407.456 722.167 408.309 720.967H401.569V720.187H409.429V720.707C408.669 721.72 408.036 722.7 407.529 723.647C407.036 724.58 406.643 725.527 406.349 726.487C406.056 727.447 405.836 728.453 405.689 729.507C405.556 730.56 405.463 731.713 405.409 732.967H404.449ZM412.46 733.207C412.246 733.207 412.046 733.127 411.86 732.967C411.686 732.807 411.6 732.587 411.6 732.307C411.6 732.013 411.686 731.787 411.86 731.627C412.046 731.467 412.246 731.387 412.46 731.387C412.686 731.387 412.88 731.467 413.04 731.627C413.213 731.787 413.3 732.013 413.3 732.307C413.3 732.587 413.213 732.807 413.04 732.967C412.88 733.127 412.686 733.207 412.46 733.207ZM419.415 733.207C418.201 733.207 417.261 732.627 416.595 731.467C415.928 730.307 415.595 728.66 415.595 726.527C415.595 724.407 415.928 722.78 416.595 721.647C417.261 720.513 418.201 719.947 419.415 719.947C420.641 719.947 421.581 720.513 422.235 721.647C422.901 722.78 423.235 724.407 423.235 726.527C423.235 728.66 422.901 730.307 422.235 731.467C421.581 732.627 420.641 733.207 419.415 733.207ZM419.415 732.447C420.308 732.447 421.015 731.947 421.535 730.947C422.068 729.947 422.335 728.473 422.335 726.527C422.335 724.58 422.068 723.127 421.535 722.167C421.015 721.193 420.308 720.707 419.415 720.707C418.535 720.707 417.828 721.193 417.295 722.167C416.761 723.127 416.495 724.58 416.495 726.527C416.495 728.473 416.761 729.947 417.295 730.947C417.828 731.947 418.535 732.447 419.415 732.447Z" fill="white"/>
<path d="M493.076 726.007C492.622 726.007 492.122 726.153 491.576 726.447C491.029 726.727 490.496 727.22 489.976 727.927C490.056 729.273 490.362 730.367 490.896 731.207C491.429 732.033 492.216 732.447 493.256 732.447C493.749 732.447 494.189 732.307 494.576 732.027C494.962 731.733 495.269 731.347 495.496 730.867C495.722 730.373 495.836 729.82 495.836 729.207C495.836 728.287 495.616 727.527 495.176 726.927C494.749 726.313 494.049 726.007 493.076 726.007ZM493.236 733.207C491.956 733.207 490.936 732.687 490.176 731.647C489.429 730.593 489.056 729.1 489.056 727.167C489.056 725.82 489.182 724.687 489.436 723.767C489.689 722.847 490.036 722.107 490.476 721.547C490.916 720.987 491.416 720.58 491.976 720.327C492.549 720.073 493.142 719.947 493.756 719.947C494.356 719.947 494.869 720.06 495.296 720.287C495.736 720.513 496.122 720.813 496.456 721.187L495.916 721.787C495.636 721.44 495.309 721.18 494.936 721.007C494.562 720.82 494.169 720.727 493.756 720.727C493.076 720.727 492.442 720.927 491.856 721.327C491.282 721.727 490.822 722.387 490.476 723.307C490.129 724.227 489.956 725.467 489.956 727.027C490.396 726.48 490.896 726.047 491.456 725.727C492.016 725.407 492.589 725.247 493.176 725.247C494.296 725.247 495.169 725.587 495.796 726.267C496.422 726.933 496.736 727.913 496.736 729.207C496.736 729.98 496.576 730.667 496.256 731.267C495.936 731.867 495.509 732.34 494.976 732.687C494.456 733.033 493.876 733.207 493.236 733.207ZM499.786 733.207C499.573 733.207 499.373 733.127 499.186 732.967C499.013 732.807 498.926 732.587 498.926 732.307C498.926 732.013 499.013 731.787 499.186 731.627C499.373 731.467 499.573 731.387 499.786 731.387C500.013 731.387 500.206 731.467 500.366 731.627C500.539 731.787 500.626 732.013 500.626 732.307C500.626 732.587 500.539 732.807 500.366 732.967C500.206 733.127 500.013 733.207 499.786 733.207ZM506.741 733.207C505.528 733.207 504.588 732.627 503.921 731.467C503.254 730.307 502.921 728.66 502.921 726.527C502.921 724.407 503.254 722.78 503.921 721.647C504.588 720.513 505.528 719.947 506.741 719.947C507.968 719.947 508.908 720.513 509.561 721.647C510.228 722.78 510.561 724.407 510.561 726.527C510.561 728.66 510.228 730.307 509.561 731.467C508.908 732.627 507.968 733.207 506.741 733.207ZM506.741 732.447C507.634 732.447 508.341 731.947 508.861 730.947C509.394 729.947 509.661 728.473 509.661 726.527C509.661 724.58 509.394 723.127 508.861 722.167C508.341 721.193 507.634 720.707 506.741 720.707C505.861 720.707 505.154 721.193 504.621 722.167C504.088 723.127 503.821 724.58 503.821 726.527C503.821 728.473 504.088 729.947 504.621 730.947C505.154 731.947 505.861 732.447 506.741 732.447Z" fill="white"/>
<path d="M579.882 733.207C579.202 733.207 578.608 733.12 578.102 732.947C577.608 732.773 577.182 732.553 576.822 732.287C576.462 732.02 576.142 731.753 575.862 731.487L576.362 730.867C576.748 731.253 577.208 731.613 577.742 731.947C578.288 732.267 578.995 732.427 579.862 732.427C580.435 732.427 580.962 732.287 581.442 732.007C581.922 731.713 582.308 731.307 582.602 730.787C582.895 730.267 583.042 729.667 583.042 728.987C583.042 727.96 582.755 727.153 582.182 726.567C581.622 725.98 580.868 725.687 579.922 725.687C579.428 725.687 579.002 725.767 578.642 725.927C578.295 726.073 577.928 726.28 577.542 726.547L576.922 726.167L577.382 720.187H583.282V720.967H578.182L577.782 725.587C578.115 725.387 578.462 725.227 578.822 725.107C579.182 724.973 579.595 724.907 580.062 724.907C580.782 724.907 581.435 725.053 582.022 725.347C582.622 725.627 583.095 726.067 583.442 726.667C583.788 727.253 583.962 728.013 583.962 728.947C583.962 729.853 583.762 730.627 583.362 731.267C582.975 731.893 582.468 732.373 581.842 732.707C581.228 733.04 580.575 733.207 579.882 733.207ZM587.112 733.207C586.899 733.207 586.699 733.127 586.512 732.967C586.339 732.807 586.252 732.587 586.252 732.307C586.252 732.013 586.339 731.787 586.512 731.627C586.699 731.467 586.899 731.387 587.112 731.387C587.339 731.387 587.532 731.467 587.692 731.627C587.865 731.787 587.952 732.013 587.952 732.307C587.952 732.587 587.865 732.807 587.692 732.967C587.532 733.127 587.339 733.207 587.112 733.207ZM594.067 733.207C592.854 733.207 591.914 732.627 591.247 731.467C590.58 730.307 590.247 728.66 590.247 726.527C590.247 724.407 590.58 722.78 591.247 721.647C591.914 720.513 592.854 719.947 594.067 719.947C595.294 719.947 596.234 720.513 596.887 721.647C597.554 722.78 597.887 724.407 597.887 726.527C597.887 728.66 597.554 730.307 596.887 731.467C596.234 732.627 595.294 733.207 594.067 733.207ZM594.067 732.447C594.96 732.447 595.667 731.947 596.187 730.947C596.72 729.947 596.987 728.473 596.987 726.527C596.987 724.58 596.72 723.127 596.187 722.167C595.667 721.193 594.96 720.707 594.067 720.707C593.187 720.707 592.48 721.193 591.947 722.167C591.414 723.127 591.147 724.58 591.147 726.527C591.147 728.473 591.414 729.947 591.947 730.947C592.48 731.947 593.187 732.447 594.067 732.447Z" fill="white"/>
<path d="M666.427 728.387H671.227V723.707C671.227 723.413 671.234 723.047 671.247 722.607C671.274 722.167 671.294 721.8 671.307 721.507H671.227C671.067 721.773 670.901 722.033 670.727 722.287C670.554 722.54 670.374 722.813 670.187 723.107L666.427 728.387ZM671.227 732.967V729.147H665.347V728.627L671.287 720.187H672.087V728.387H673.987V729.147H672.087V732.967H671.227ZM676.798 733.207C676.584 733.207 676.384 733.127 676.198 732.967C676.024 732.807 675.938 732.587 675.938 732.307C675.938 732.013 676.024 731.787 676.198 731.627C676.384 731.467 676.584 731.387 676.798 731.387C677.024 731.387 677.218 731.467 677.378 731.627C677.551 731.787 677.638 732.013 677.638 732.307C677.638 732.587 677.551 732.807 677.378 732.967C677.218 733.127 677.024 733.207 676.798 733.207ZM683.753 733.207C682.539 733.207 681.599 732.627 680.933 731.467C680.266 730.307 679.933 728.66 679.933 726.527C679.933 724.407 680.266 722.78 680.933 721.647C681.599 720.513 682.539 719.947 683.753 719.947C684.979 719.947 685.919 720.513 686.573 721.647C687.239 722.78 687.573 724.407 687.573 726.527C687.573 728.66 687.239 730.307 686.573 731.467C685.919 732.627 684.979 733.207 683.753 733.207ZM683.753 732.447C684.646 732.447 685.353 731.947 685.873 730.947C686.406 729.947 686.673 728.473 686.673 726.527C686.673 724.58 686.406 723.127 685.873 722.167C685.353 721.193 684.646 720.707 683.753 720.707C682.873 720.707 682.166 721.193 681.633 722.167C681.099 723.127 680.833 724.58 680.833 726.527C680.833 728.473 681.099 729.947 681.633 730.947C682.166 731.947 682.873 732.447 683.753 732.447Z" fill="white"/>
<path d="M756.994 733.207C756.314 733.207 755.72 733.12 755.214 732.947C754.707 732.76 754.267 732.527 753.894 732.247C753.534 731.967 753.214 731.687 752.934 731.407L753.454 730.787C753.84 731.2 754.307 731.58 754.854 731.927C755.4 732.26 756.114 732.427 756.994 732.427C757.86 732.427 758.574 732.173 759.134 731.667C759.694 731.147 759.974 730.46 759.974 729.607C759.974 728.727 759.627 728.013 758.934 727.467C758.254 726.92 757.114 726.647 755.514 726.647V725.867C756.5 725.867 757.287 725.747 757.874 725.507C758.46 725.253 758.88 724.913 759.134 724.487C759.387 724.06 759.514 723.593 759.514 723.087C759.514 722.367 759.28 721.793 758.814 721.367C758.347 720.927 757.72 720.707 756.934 720.707C756.347 720.707 755.8 720.847 755.294 721.127C754.8 721.393 754.367 721.72 753.994 722.107L753.474 721.507C753.914 721.08 754.414 720.713 754.974 720.407C755.547 720.1 756.2 719.947 756.934 719.947C757.6 719.947 758.194 720.067 758.714 720.307C759.247 720.547 759.667 720.9 759.974 721.367C760.28 721.82 760.434 722.373 760.434 723.027C760.434 723.867 760.2 724.547 759.734 725.067C759.28 725.573 758.7 725.947 757.994 726.187V726.267C758.527 726.373 759.007 726.58 759.434 726.887C759.874 727.18 760.227 727.553 760.494 728.007C760.76 728.46 760.894 728.987 760.894 729.587C760.894 730.32 760.72 730.96 760.374 731.507C760.027 732.053 759.56 732.473 758.974 732.767C758.387 733.06 757.727 733.207 756.994 733.207ZM764.124 733.207C763.91 733.207 763.71 733.127 763.524 732.967C763.35 732.807 763.264 732.587 763.264 732.307C763.264 732.013 763.35 731.787 763.524 731.627C763.71 731.467 763.91 731.387 764.124 731.387C764.35 731.387 764.544 731.467 764.704 731.627C764.877 731.787 764.964 732.013 764.964 732.307C764.964 732.587 764.877 732.807 764.704 732.967C764.544 733.127 764.35 733.207 764.124 733.207ZM771.079 733.207C769.865 733.207 768.925 732.627 768.259 731.467C767.592 730.307 767.259 728.66 767.259 726.527C767.259 724.407 767.592 722.78 768.259 721.647C768.925 720.513 769.865 719.947 771.079 719.947C772.305 719.947 773.245 720.513 773.899 721.647C774.565 722.78 774.899 724.407 774.899 726.527C774.899 728.66 774.565 730.307 773.899 731.467C773.245 732.627 772.305 733.207 771.079 733.207ZM771.079 732.447C771.972 732.447 772.679 731.947 773.199 730.947C773.732 729.947 773.999 728.473 773.999 726.527C773.999 724.58 773.732 723.127 773.199 722.167C772.679 721.193 771.972 720.707 771.079 720.707C770.199 720.707 769.492 721.193 768.959 722.167C768.425 723.127 768.159 724.58 768.159 726.527C768.159 728.473 768.425 729.947 768.959 730.947C769.492 731.947 770.199 732.447 771.079 732.447Z" fill="white"/>
<path d="M842.861 732.967V732.407C844.261 730.98 845.428 729.747 846.361 728.707C847.294 727.653 847.994 726.713 848.461 725.887C848.928 725.06 849.161 724.28 849.161 723.547C849.161 722.747 848.934 722.073 848.481 721.527C848.041 720.98 847.341 720.707 846.381 720.707C845.808 720.707 845.261 720.867 844.741 721.187C844.234 721.507 843.788 721.907 843.401 722.387L842.821 721.827C843.301 721.293 843.834 720.847 844.421 720.487C845.008 720.127 845.688 719.947 846.461 719.947C847.608 719.947 848.494 720.273 849.121 720.927C849.748 721.58 850.061 722.447 850.061 723.527C850.061 724.367 849.814 725.22 849.321 726.087C848.841 726.953 848.161 727.887 847.281 728.887C846.414 729.887 845.388 731.013 844.201 732.267C844.548 732.24 844.901 732.22 845.261 732.207C845.634 732.18 845.994 732.167 846.341 732.167H850.701V732.967H842.861ZM853.811 733.207C853.598 733.207 853.398 733.127 853.211 732.967C853.038 732.807 852.951 732.587 852.951 732.307C852.951 732.013 853.038 731.787 853.211 731.627C853.398 731.467 853.598 731.387 853.811 731.387C854.038 731.387 854.231 731.467 854.391 731.627C854.565 731.787 854.651 732.013 854.651 732.307C854.651 732.587 854.565 732.807 854.391 732.967C854.231 733.127 854.038 733.207 853.811 733.207ZM860.766 733.207C859.553 733.207 858.613 732.627 857.946 731.467C857.28 730.307 856.946 728.66 856.946 726.527C856.946 724.407 857.28 722.78 857.946 721.647C858.613 720.513 859.553 719.947 860.766 719.947C861.993 719.947 862.933 720.513 863.586 721.647C864.253 722.78 864.586 724.407 864.586 726.527C864.586 728.66 864.253 730.307 863.586 731.467C862.933 732.627 861.993 733.207 860.766 733.207ZM860.766 732.447C861.66 732.447 862.366 731.947 862.886 730.947C863.42 729.947 863.686 728.473 863.686 726.527C863.686 724.58 863.42 723.127 862.886 722.167C862.366 721.193 861.66 720.707 860.766 720.707C859.886 720.707 859.18 721.193 858.646 722.167C858.113 723.127 857.846 724.58 857.846 726.527C857.846 728.473 858.113 729.947 858.646 730.947C859.18 731.947 859.886 732.447 860.766 732.447Z" fill="white"/>
<path d="M938.127 732.967V732.187H941.127V721.587H938.847V720.987C939.367 720.893 939.834 720.78 940.247 720.647C940.661 720.513 941.014 720.36 941.307 720.187H942.027V732.187H944.807V732.967H938.127ZM948.218 733.207C948.004 733.207 947.804 733.127 947.618 732.967C947.444 732.807 947.358 732.587 947.358 732.307C947.358 732.013 947.444 731.787 947.618 731.627C947.804 731.467 948.004 731.387 948.218 731.387C948.444 731.387 948.638 731.467 948.798 731.627C948.971 731.787 949.058 732.013 949.058 732.307C949.058 732.587 948.971 732.807 948.798 732.967C948.638 733.127 948.444 733.207 948.218 733.207ZM955.173 733.207C953.959 733.207 953.019 732.627 952.353 731.467C951.686 730.307 951.353 728.66 951.353 726.527C951.353 724.407 951.686 722.78 952.353 721.647C953.019 720.513 953.959 719.947 955.173 719.947C956.399 719.947 957.339 720.513 957.993 721.647C958.659 722.78 958.993 724.407 958.993 726.527C958.993 728.66 958.659 730.307 957.993 731.467C957.339 732.627 956.399 733.207 955.173 733.207ZM955.173 732.447C956.066 732.447 956.773 731.947 957.293 730.947C957.826 729.947 958.093 728.473 958.093 726.527C958.093 724.58 957.826 723.127 957.293 722.167C956.773 721.193 956.066 720.707 955.173 720.707C954.293 720.707 953.586 721.193 953.053 722.167C952.519 723.127 952.253 724.58 952.253 726.527C952.253 728.473 952.519 729.947 953.053 730.947C953.586 731.947 954.293 732.447 955.173 732.447Z" fill="white"/>
<path d="M1025.01 733.207C1023.8 733.207 1022.86 732.627 1022.19 731.467C1021.53 730.307 1021.19 728.66 1021.19 726.527C1021.19 724.407 1021.53 722.78 1022.19 721.647C1022.86 720.513 1023.8 719.947 1025.01 719.947C1026.24 719.947 1027.18 720.513 1027.83 721.647C1028.5 722.78 1028.83 724.407 1028.83 726.527C1028.83 728.66 1028.5 730.307 1027.83 731.467C1027.18 732.627 1026.24 733.207 1025.01 733.207ZM1025.01 732.447C1025.91 732.447 1026.61 731.947 1027.13 730.947C1027.67 729.947 1027.93 728.473 1027.93 726.527C1027.93 724.58 1027.67 723.127 1027.13 722.167C1026.61 721.193 1025.91 720.707 1025.01 720.707C1024.13 720.707 1023.43 721.193 1022.89 722.167C1022.36 723.127 1022.09 724.58 1022.09 726.527C1022.09 728.473 1022.36 729.947 1022.89 730.947C1023.43 731.947 1024.13 732.447 1025.01 732.447Z" fill="white"/>
<g filter="url(#filter1_d_676_5484)">
<path d="M791 639.344H806.571L809.319 621.878V535.71L811.151 530.668V488.5V525.626L812.983 523.334L814.357 639.344H821.684H825.806" stroke="#FA5050" stroke-width="3"/>
</g>
<line x1="811" y1="312" x2="527" y2="312" stroke="#FA5050" stroke-width="3"/>
<path d="M810.939 451.561C811.525 452.146 812.475 452.146 813.061 451.561L822.607 442.015C823.192 441.429 823.192 440.479 822.607 439.893C822.021 439.308 821.071 439.308 820.485 439.893L812 448.379L803.515 439.893C802.929 439.308 801.979 439.308 801.393 439.893C800.808 440.479 800.808 441.429 801.393 442.015L810.939 451.561ZM810.5 310.5L810.5 450.5L813.5 450.5L813.5 310.5L810.5 310.5Z" fill="#FA5050"/>
<path d="M812 231.665C812 234.095 811.617 236.385 810.851 238.535C810.113 240.658 809.078 242.431 807.745 243.855C806.582 245.084 805.177 246.006 803.532 246.62C801.915 247.207 800.043 247.5 797.915 247.5C795.759 247.5 793.858 247.207 792.213 246.62C790.567 246.034 789.191 245.154 788.085 243.981C786.78 242.641 785.773 240.965 785.064 238.954C784.355 236.915 784 234.709 784 232.335C784 229.905 784.369 227.629 785.106 225.507C785.872 223.356 786.922 221.569 788.255 220.145C789.447 218.888 790.823 217.966 792.383 217.38C793.972 216.793 795.844 216.5 798 216.5C800.156 216.5 802.043 216.793 803.66 217.38C805.305 217.938 806.709 218.818 807.872 220.019C809.206 221.359 810.227 223.049 810.936 225.088C811.645 227.127 812 229.319 812 231.665ZM788.894 231.497C788.894 233.815 789.092 235.882 789.489 237.697C789.887 239.485 790.454 240.951 791.191 242.096C791.929 243.129 792.851 243.911 793.957 244.442C795.092 244.945 796.482 245.196 798.128 245.196C801.135 245.196 803.348 244.274 804.766 242.431C805.532 241.398 806.113 240.029 806.511 238.326C806.908 236.594 807.106 234.569 807.106 232.251C807.106 229.933 806.908 227.895 806.511 226.135C806.113 224.376 805.532 222.951 804.766 221.862C804.028 220.801 803.078 220.019 801.915 219.516C800.78 219.014 799.433 218.762 797.872 218.762C796.369 218.762 795.064 219 793.957 219.474C792.879 219.921 791.972 220.605 791.234 221.527C789.674 223.566 788.894 226.889 788.894 231.497Z" fill="#FA5050"/>
<path d="M812 231.665C812 234.095 811.617 236.385 810.851 238.535C810.113 240.658 809.078 242.431 807.745 243.855C806.582 245.084 805.177 246.006 803.532 246.62C801.915 247.207 800.043 247.5 797.915 247.5C795.759 247.5 793.858 247.207 792.213 246.62C790.567 246.034 789.191 245.154 788.085 243.981C786.78 242.641 785.773 240.965 785.064 238.954C784.355 236.915 784 234.709 784 232.335C784 229.905 784.369 227.629 785.106 225.507C785.872 223.356 786.922 221.569 788.255 220.145C789.447 218.888 790.823 217.966 792.383 217.38C793.972 216.793 795.844 216.5 798 216.5C800.156 216.5 802.043 216.793 803.66 217.38C805.305 217.938 806.709 218.818 807.872 220.019C809.206 221.359 810.227 223.049 810.936 225.088C811.645 227.127 812 229.319 812 231.665ZM788.894 231.497C788.894 233.815 789.092 235.882 789.489 237.697C789.887 239.485 790.454 240.951 791.191 242.096C791.929 243.129 792.851 243.911 793.957 244.442C795.092 244.945 796.482 245.196 798.128 245.196C801.135 245.196 803.348 244.274 804.766 242.431C805.532 241.398 806.113 240.029 806.511 238.326C806.908 236.594 807.106 234.569 807.106 232.251C807.106 229.933 806.908 227.895 806.511 226.135C806.113 224.376 805.532 222.951 804.766 221.862C804.028 220.801 803.078 220.019 801.915 219.516C800.78 219.014 799.433 218.762 797.872 218.762C796.369 218.762 795.064 219 793.957 219.474C792.879 219.921 791.972 220.605 791.234 221.527C789.674 223.566 788.894 226.889 788.894 231.497Z" stroke="black"/>
<path d="M838.436 219.256V244.744L842 245.649V247.5H830.628V245.649L834.192 244.744V232.818H819.808V244.744L823.372 245.649V247.5H812V245.649L815.564 244.744V219.256L812 218.351V216.5H823.372V218.351L819.808 219.256V230.321H834.192V219.256L830.628 218.351V216.5H842V218.351L838.436 219.256Z" fill="#FA5050"/>
<path d="M838.436 219.256V244.744L842 245.649V247.5H830.628V245.649L834.192 244.744V232.818H819.808V244.744L823.372 245.649V247.5H812V245.649L815.564 244.744V219.256L812 218.351V216.5H823.372V218.351L819.808 219.256V230.321H834.192V219.256L830.628 218.351V216.5H842V218.351L838.436 219.256Z" stroke="black"/>
<path d="M94.44 81.74H93.42L93.06 79.7H89.74L89.74 85.3H95.78L96.4 82.04H97.56L97.56 86.5H85.86L85.86 85.64L87.74 85.22L87.74 73.38L85.86 72.96L85.86 72.1H97.12L97.12 76.34H96.08L95.44 73.26H89.74L89.74 78.5H93.06L93.42 76.46H94.44L94.44 81.74ZM98.8714 76.7L98.8714 75.98L100.811 75.7L101.071 73.18L102.751 72.94L102.751 75.7H105.311L105.311 76.7H102.751L102.751 83.84C102.751 84.2933 102.758 84.6067 102.771 84.78C102.785 84.94 102.811 85.0733 102.851 85.18C102.891 85.2733 102.965 85.34 103.071 85.38C103.178 85.4067 103.351 85.42 103.591 85.42H104.991L104.991 86C104.351 86.24 103.785 86.4133 103.291 86.52C102.811 86.64 102.425 86.7 102.131 86.7C101.531 86.7 101.145 86.4533 100.971 85.96C100.918 85.8 100.878 85.5933 100.851 85.34C100.825 85.0867 100.811 84.7133 100.811 84.22L100.811 76.7H98.8714ZM114.468 85.3L114.468 80.84C114.468 79.9733 114.441 79.3267 114.388 78.9C114.348 78.4733 114.268 78.14 114.148 77.9C113.828 77.2467 113.241 76.92 112.388 76.92C112.014 76.92 111.654 76.9867 111.308 77.12C110.961 77.2533 110.654 77.4333 110.388 77.66C110.094 77.9133 109.874 78.22 109.728 78.58C109.594 78.9267 109.514 79.36 109.488 79.88L109.488 85.3L110.828 85.68L110.828 86.5H106.008L106.008 85.68L107.548 85.3L107.548 72.1L106.008 71.72L106.008 70.9H109.488L109.488 77.58C109.888 76.94 110.414 76.4333 111.068 76.06C111.734 75.6867 112.448 75.5 113.208 75.5C113.741 75.5 114.221 75.5933 114.648 75.78C115.074 75.9667 115.414 76.2333 115.668 76.58C115.934 76.9533 116.121 77.48 116.228 78.16C116.348 78.8267 116.408 79.7333 116.408 80.88L116.408 85.3L117.948 85.68L117.948 86.5H113.128L113.128 85.68L114.468 85.3ZM119.139 84.16C119.139 83.12 119.626 82.3 120.599 81.7C121.572 81.1 123.186 80.6333 125.439 80.3C125.386 79.5133 125.312 78.9 125.219 78.46C125.126 78.02 125.006 77.6667 124.859 77.4C124.672 77.0533 124.412 76.8 124.079 76.64C123.746 76.4667 123.386 76.38 122.999 76.38C122.626 76.38 122.286 76.4467 121.979 76.58C121.686 76.7133 121.486 76.8933 121.379 77.12C121.566 77.2533 121.699 77.4267 121.779 77.64C121.872 77.8533 121.919 78.0533 121.919 78.24C121.919 78.5733 121.806 78.84 121.579 79.04C121.366 79.2267 121.099 79.32 120.779 79.32C120.459 79.32 120.192 79.2133 119.979 79C119.779 78.7867 119.679 78.4867 119.679 78.1C119.679 77.54 119.872 77.0667 120.259 76.68C120.646 76.2933 121.132 76 121.719 75.8C122.319 75.6 122.919 75.5 123.519 75.5C124.066 75.5 124.566 75.5867 125.019 75.76C125.486 75.92 125.879 76.16 126.199 76.48C127.026 77.3067 127.439 78.7733 127.439 80.88L127.439 83.78C127.439 84.4333 127.479 84.8867 127.559 85.14C127.652 85.3933 127.846 85.52 128.139 85.52H129.039L129.039 86.12C128.079 86.5067 127.332 86.7 126.799 86.7C126.386 86.7 126.106 86.5533 125.959 86.26C125.826 85.9533 125.759 85.3733 125.759 84.52H125.679C125.266 85.2 124.719 85.7333 124.039 86.12C123.359 86.5067 122.626 86.7 121.839 86.7C120.999 86.7 120.339 86.4733 119.859 86.02C119.379 85.5667 119.139 84.9467 119.139 84.16ZM122.679 85.54C123.052 85.54 123.439 85.4467 123.839 85.26C124.252 85.06 124.599 84.7867 124.879 84.44C125.092 84.1733 125.246 83.86 125.339 83.5C125.446 83.1267 125.499 82.6933 125.499 82.2C125.499 81.9733 125.492 81.7533 125.479 81.54C125.466 81.3133 125.446 81.1 125.419 80.9C124.339 81.1133 123.492 81.3467 122.879 81.6C122.266 81.84 121.832 82.1333 121.579 82.48C121.326 82.8133 121.199 83.2333 121.199 83.74C121.199 84.3133 121.326 84.76 121.579 85.08C121.846 85.3867 122.212 85.54 122.679 85.54ZM131.381 85.3L131.381 76.9L129.841 76.52L129.841 75.7H132.721L133.161 77.7H133.241C133.641 77.02 134.181 76.4867 134.861 76.1C135.541 75.7 136.268 75.5 137.041 75.5C138.148 75.5 138.968 75.86 139.501 76.58C139.768 76.9533 139.954 77.48 140.061 78.16C140.181 78.8267 140.241 79.7333 140.241 80.88L140.241 85.3L141.781 85.68L141.781 86.5L136.961 86.5L136.961 85.68L138.301 85.3L138.301 80.84C138.301 79.9733 138.274 79.3267 138.221 78.9C138.181 78.4733 138.101 78.14 137.981 77.9C137.821 77.58 137.588 77.34 137.281 77.18C136.988 77.0067 136.634 76.92 136.221 76.92C135.448 76.92 134.781 77.1667 134.221 77.66C133.674 78.1533 133.374 78.92 133.321 79.96L133.321 85.3L134.661 85.68L134.661 86.5H129.841L129.841 85.68L131.381 85.3ZM152.947 81C152.947 81.8667 152.813 82.6933 152.547 83.48C152.293 84.2533 151.933 84.8933 151.467 85.4C151.067 85.84 150.573 86.1667 149.987 86.38C149.4 86.5933 148.733 86.7 147.987 86.7C147.253 86.7 146.6 86.6 146.027 86.4C145.453 86.1867 144.967 85.8667 144.567 85.44C144.113 84.9467 143.76 84.34 143.507 83.62C143.267 82.8867 143.147 82.0933 143.147 81.24C143.147 80.3733 143.273 79.5467 143.527 78.76C143.78 77.96 144.147 77.3067 144.627 76.8C145.053 76.3467 145.547 76.02 146.107 75.82C146.68 75.6067 147.333 75.5 148.067 75.5C148.8 75.5 149.46 75.6067 150.047 75.82C150.633 76.02 151.127 76.3333 151.527 76.76C151.993 77.2533 152.347 77.8733 152.587 78.62C152.827 79.3533 152.947 80.1467 152.947 81ZM145.287 81.02C145.287 81.8333 145.347 82.54 145.467 83.14C145.6 83.7267 145.78 84.2133 146.007 84.6C146.233 84.9333 146.5 85.1933 146.807 85.38C147.127 85.5667 147.54 85.66 148.047 85.66C148.967 85.66 149.653 85.3467 150.107 84.72C150.347 84.3733 150.52 83.8933 150.627 83.28C150.747 82.6667 150.807 81.96 150.807 81.16C150.807 80.36 150.74 79.66 150.607 79.06C150.487 78.46 150.313 77.9733 150.087 77.6C149.873 77.2533 149.6 76.9933 149.267 76.82C148.947 76.6333 148.533 76.54 148.027 76.54C147.093 76.54 146.42 76.8467 146.007 77.46C145.527 78.2067 145.287 79.3933 145.287 81.02ZM155.967 85.3L155.967 72.1L154.427 71.72L154.427 70.9H157.907L157.907 85.3L159.447 85.68L159.447 86.5H154.427L154.427 85.68L155.967 85.3Z" fill="white"/>
<path d="M114.88 614.76L126.72 614.76L127.14 612.88L128 612.88L128 618.64L127.14 618.64L126.72 616.76L114.88 616.76L114.46 618.64L113.6 618.64L113.6 612.88L114.46 612.88L114.88 614.76ZM126.8 609.76L118.4 609.76L118.02 611.3L117.2 611.3L117.2 608.42L119.2 607.98L119.2 607.9C118.52 607.5 117.987 606.96 117.6 606.28C117.2 605.6 117 604.873 117 604.1C117 602.993 117.36 602.173 118.08 601.64C118.453 601.373 118.98 601.186 119.66 601.08C120.327 600.96 121.233 600.9 122.38 600.9L126.8 600.9L127.18 599.36L128 599.36L128 604.18L127.18 604.18L126.8 602.84L122.34 602.84C121.473 602.84 120.827 602.866 120.4 602.92C119.973 602.96 119.64 603.04 119.4 603.16C119.08 603.32 118.84 603.553 118.68 603.86C118.507 604.153 118.42 604.506 118.42 604.92C118.42 605.693 118.667 606.36 119.16 606.92C119.653 607.466 120.42 607.766 121.46 607.82L126.8 607.82L127.18 606.48L128 606.48L128 611.3L127.18 611.3L126.8 609.76ZM118.2 598.734L117.48 598.734L117.2 596.794L114.68 596.534L114.44 594.854L117.2 594.854L117.2 592.294L118.2 592.294L118.2 594.854L125.34 594.854C125.793 594.854 126.107 594.847 126.28 594.834C126.44 594.821 126.573 594.794 126.68 594.754C126.773 594.714 126.84 594.641 126.88 594.534C126.907 594.427 126.92 594.254 126.92 594.014L126.92 592.614L127.5 592.614C127.74 593.254 127.913 593.821 128.02 594.314C128.14 594.794 128.2 595.181 128.2 595.474C128.2 596.074 127.953 596.461 127.46 596.634C127.3 596.687 127.093 596.727 126.84 596.754C126.587 596.781 126.213 596.794 125.72 596.794L118.2 596.794L118.2 598.734ZM122.72 582.158L122.72 589.138C123.693 589.138 124.5 589.004 125.14 588.738C125.753 588.471 126.193 588.091 126.46 587.598C126.727 587.104 126.86 586.571 126.86 585.998C126.86 585.371 126.733 584.798 126.48 584.278C126.213 583.758 125.853 583.291 125.4 582.878L125.88 582.238C126.52 582.704 127.067 583.271 127.52 583.938C127.973 584.604 128.2 585.464 128.2 586.518C128.2 587.438 128.007 588.251 127.62 588.958C127.22 589.664 126.64 590.204 125.88 590.578C125.467 590.778 125.007 590.924 124.5 591.018C123.993 591.111 123.453 591.158 122.88 591.158C121.013 591.158 119.567 590.731 118.54 589.878C117.513 589.011 117 587.838 117 586.358C117 584.998 117.427 583.951 118.28 583.218C119.12 582.471 120.287 582.098 121.78 582.098C121.913 582.098 122.04 582.104 122.16 582.118C122.267 582.118 122.453 582.131 122.72 582.158ZM118.08 586.478C118.08 588.078 119.3 588.958 121.74 589.118L121.74 584.118L121.08 584.118C120.12 584.118 119.38 584.324 118.86 584.738C118.34 585.138 118.08 585.718 118.08 586.478ZM126.8 578.959L118.4 578.959L118.02 580.499L117.2 580.499L117.2 577.619L119.2 577.179L119.2 577.099C118.52 576.699 117.987 576.159 117.6 575.479C117.2 574.799 117 574.072 117 573.299C117 572.192 117.36 571.372 118.08 570.839C118.453 570.572 118.98 570.385 119.66 570.279C120.327 570.159 121.233 570.099 122.38 570.099L126.8 570.099L127.18 568.559L128 568.559L128 573.379L127.18 573.379L126.8 572.039L122.34 572.039C121.473 572.039 120.827 572.065 120.4 572.119C119.973 572.159 119.64 572.239 119.4 572.359C119.08 572.519 118.84 572.752 118.68 573.059C118.507 573.352 118.42 573.705 118.42 574.119C118.42 574.892 118.667 575.559 119.16 576.119C119.653 576.665 120.42 576.965 121.46 577.019L126.8 577.019L127.18 575.679L128 575.679L128 580.499L127.18 580.499L126.8 578.959ZM127.28 563.233C127.28 562.487 127.127 561.88 126.82 561.413C126.513 560.933 126.087 560.693 125.54 560.693C125.1 560.693 124.747 560.84 124.48 561.133C124.213 561.427 124 561.793 123.84 562.233C123.667 562.66 123.52 563.093 123.4 563.533C123.227 564.08 123.027 564.607 122.8 565.113C122.56 565.62 122.233 566.033 121.82 566.353C121.407 566.673 120.86 566.833 120.18 566.833C119.22 566.833 118.453 566.487 117.88 565.793C117.293 565.087 117 564.107 117 562.853C117 561.787 117.227 560.947 117.68 560.333C118.12 559.707 118.727 559.393 119.5 559.393C119.913 559.393 120.247 559.487 120.5 559.673C120.74 559.86 120.86 560.127 120.86 560.473C120.86 560.78 120.767 561.033 120.58 561.233C120.393 561.433 120.153 561.533 119.86 561.533C119.607 561.533 119.38 561.467 119.18 561.333C118.967 561.2 118.813 561.027 118.72 560.813C118.44 561.013 118.24 561.273 118.12 561.593C117.987 561.9 117.92 562.3 117.92 562.793C117.92 563.593 118.067 564.193 118.36 564.593C118.64 564.993 119.06 565.193 119.62 565.193C120.02 565.193 120.34 565.1 120.58 564.913C120.807 564.713 121 564.427 121.16 564.053C121.32 563.68 121.487 563.22 121.66 562.673C121.793 562.22 121.947 561.773 122.12 561.333C122.28 560.893 122.48 560.493 122.72 560.133C122.96 559.773 123.26 559.487 123.62 559.273C123.98 559.06 124.427 558.953 124.96 558.953C125.64 558.953 126.227 559.14 126.72 559.513C127.2 559.887 127.567 560.4 127.82 561.053C128.073 561.707 128.2 562.46 128.2 563.313C128.2 564.487 127.96 565.433 127.48 566.153C127 566.873 126.353 567.233 125.54 567.233C125.113 567.233 124.78 567.14 124.54 566.953C124.287 566.753 124.16 566.473 124.16 566.113C124.16 565.793 124.253 565.527 124.44 565.313C124.627 565.087 124.873 564.973 125.18 564.973C125.433 564.973 125.673 565.047 125.9 565.193C126.127 565.327 126.293 565.493 126.4 565.693C126.653 565.52 126.867 565.213 127.04 564.773C127.2 564.32 127.28 563.807 127.28 563.233ZM118.4 555.795L118.02 557.335L117.2 557.335L117.2 553.855L126.8 553.855L127.18 552.315L128 552.315L128 557.335L127.18 557.335L126.8 555.795L118.4 555.795ZM113.98 556.075C113.593 556.075 113.287 555.961 113.06 555.735C112.833 555.508 112.72 555.208 112.72 554.835C112.72 554.448 112.833 554.141 113.06 553.915C113.287 553.688 113.593 553.575 113.98 553.575C114.353 553.575 114.653 553.688 114.88 553.915C115.107 554.141 115.22 554.448 115.22 554.835C115.22 555.221 115.113 555.528 114.9 555.755C114.673 555.968 114.367 556.075 113.98 556.075ZM118.2 551.644L117.48 551.644L117.2 549.704L114.68 549.444L114.44 547.764L117.2 547.764L117.2 545.204L118.2 545.204L118.2 547.764L125.34 547.764C125.793 547.764 126.107 547.758 126.28 547.744C126.44 547.731 126.573 547.704 126.68 547.664C126.773 547.624 126.84 547.551 126.88 547.444C126.907 547.338 126.92 547.164 126.92 546.924L126.92 545.524L127.5 545.524C127.74 546.164 127.913 546.731 128.02 547.224C128.14 547.704 128.2 548.091 128.2 548.384C128.2 548.984 127.953 549.371 127.46 549.544C127.3 549.598 127.093 549.638 126.84 549.664C126.587 549.691 126.213 549.704 125.72 549.704L118.2 549.704L118.2 551.644ZM118.4 534.728L127.52 538.048C128.547 538.421 129.373 538.761 130 539.068C130.64 539.374 131.1 539.714 131.38 540.088C131.66 540.461 131.8 540.941 131.8 541.528C131.8 542.154 131.633 542.694 131.3 543.148C130.967 543.588 130.547 543.808 130.04 543.808C129.667 543.808 129.353 543.701 129.1 543.488C128.86 543.274 128.74 542.994 128.74 542.648C128.74 542.341 128.82 542.101 128.98 541.928C129.153 541.741 129.387 541.648 129.68 541.648C129.867 541.648 130.047 541.688 130.22 541.768C130.393 541.834 130.547 541.928 130.68 542.048C130.813 542.021 130.9 541.941 130.94 541.808C130.993 541.674 131.02 541.561 131.02 541.468C131.02 541.281 130.973 541.108 130.88 540.948C130.787 540.788 130.587 540.621 130.28 540.448C129.987 540.261 129.52 540.061 128.88 539.848L128.14 539.608L118.4 543.748L118.02 544.948L117.2 544.948L117.2 540.468L118.02 540.308L118.4 541.728L126.24 538.748L126.24 538.668L118.4 536.148L118.02 537.308L117.2 537.308L117.2 533.508L118.02 533.508L118.4 534.728Z" fill="#C3FA50"/>
<path d="M574.241 828.79C574.241 830.176 574.381 831.456 574.661 832.63C574.941 833.803 575.335 834.843 575.841 835.75C576.348 836.643 576.948 837.37 577.641 837.93C578.335 838.49 579.101 838.856 579.941 839.03L580.461 837.93C579.621 837.756 578.881 837.27 578.241 836.47C577.615 835.67 577.128 834.616 576.781 833.31C576.435 832.003 576.261 830.51 576.261 828.83C576.261 827.163 576.441 825.67 576.801 824.35C577.161 823.016 577.661 821.93 578.301 821.09C578.955 820.25 579.708 819.73 580.561 819.53L580.141 818.55C579.261 818.763 578.455 819.17 577.721 819.77C577.001 820.37 576.381 821.123 575.861 822.03C575.341 822.936 574.941 823.963 574.661 825.11C574.381 826.243 574.241 827.47 574.241 828.79ZM584.763 838.25L586.703 838.63V839.45H581.283V838.63L582.823 838.25V826.25L581.283 825.87V825.05H584.163L584.463 826.59C584.89 825.923 585.37 825.47 585.903 825.23C586.45 824.976 587.063 824.85 587.743 824.85C588.423 824.85 589.037 824.95 589.583 825.15C590.143 825.35 590.597 825.67 590.943 826.11C591.343 826.616 591.657 827.23 591.883 827.95C592.123 828.656 592.243 829.423 592.243 830.25C592.243 831.103 592.11 831.91 591.843 832.67C591.59 833.416 591.243 834.043 590.803 834.55C590.057 835.416 588.983 835.85 587.583 835.85C587.01 835.85 586.49 835.743 586.023 835.53C585.57 835.303 585.15 834.916 584.763 834.37V838.25ZM584.743 830.27C584.743 831.056 584.803 831.743 584.923 832.33C585.043 832.916 585.217 833.39 585.443 833.75C585.657 834.083 585.917 834.343 586.223 834.53C586.543 834.716 586.95 834.81 587.443 834.81C587.897 834.81 588.29 834.73 588.623 834.57C588.97 834.396 589.25 834.163 589.463 833.87C589.703 833.536 589.877 833.07 589.983 832.47C590.09 831.87 590.143 831.183 590.143 830.41C590.143 829.623 590.083 828.943 589.963 828.37C589.843 827.796 589.67 827.323 589.443 826.95C589.23 826.603 588.963 826.343 588.643 826.17C588.337 825.983 587.93 825.89 587.423 825.89C586.97 825.89 586.57 825.97 586.223 826.13C585.89 826.276 585.63 826.503 585.443 826.81C585.23 827.17 585.057 827.643 584.923 828.23C584.803 828.803 584.743 829.483 584.743 830.27ZM597.146 838.25L599.086 838.63V839.45H593.666V838.63L595.206 838.25V826.25L593.666 825.87V825.05H596.546L596.846 826.59C597.273 825.923 597.753 825.47 598.286 825.23C598.833 824.976 599.446 824.85 600.126 824.85C600.806 824.85 601.419 824.95 601.966 825.15C602.526 825.35 602.979 825.67 603.326 826.11C603.726 826.616 604.039 827.23 604.266 827.95C604.506 828.656 604.626 829.423 604.626 830.25C604.626 831.103 604.493 831.91 604.226 832.67C603.973 833.416 603.626 834.043 603.186 834.55C602.439 835.416 601.366 835.85 599.966 835.85C599.393 835.85 598.873 835.743 598.406 835.53C597.953 835.303 597.533 834.916 597.146 834.37V838.25ZM597.126 830.27C597.126 831.056 597.186 831.743 597.306 832.33C597.426 832.916 597.599 833.39 597.826 833.75C598.039 834.083 598.299 834.343 598.606 834.53C598.926 834.716 599.333 834.81 599.826 834.81C600.279 834.81 600.673 834.73 601.006 834.57C601.353 834.396 601.633 834.163 601.846 833.87C602.086 833.536 602.259 833.07 602.366 832.47C602.473 831.87 602.526 831.183 602.526 830.41C602.526 829.623 602.466 828.943 602.346 828.37C602.226 827.796 602.053 827.323 601.826 826.95C601.613 826.603 601.346 826.343 601.026 826.17C600.719 825.983 600.313 825.89 599.806 825.89C599.353 825.89 598.953 825.97 598.606 826.13C598.273 826.276 598.013 826.503 597.826 826.81C597.613 827.17 597.439 827.643 597.306 828.23C597.186 828.803 597.126 829.483 597.126 830.27ZM607.809 834.65V826.25L606.269 825.87V825.05H609.149L609.589 827.05H609.669C610.055 826.383 610.569 825.85 611.209 825.45C611.862 825.05 612.555 824.85 613.289 824.85C613.835 824.85 614.322 824.956 614.749 825.17C615.175 825.37 615.489 825.623 615.689 825.93C615.902 826.263 616.075 826.703 616.209 827.25C616.635 826.503 617.189 825.916 617.869 825.49C618.549 825.063 619.275 824.85 620.049 824.85C620.582 824.85 621.062 824.956 621.489 825.17C621.915 825.37 622.242 825.65 622.469 826.01C622.629 826.263 622.755 826.59 622.849 826.99C622.942 827.39 623.009 827.91 623.049 828.55C623.089 829.176 623.109 829.976 623.109 830.95V834.65L624.649 835.03V835.85H619.829V835.03L621.169 834.65V830.19C621.169 829.323 621.142 828.676 621.089 828.25C621.049 827.823 620.969 827.49 620.849 827.25C620.689 826.93 620.462 826.69 620.169 826.53C619.889 826.356 619.555 826.27 619.169 826.27C618.835 826.27 618.509 826.336 618.189 826.47C617.869 826.603 617.582 826.783 617.329 827.01C617.035 827.276 616.815 827.59 616.669 827.95C616.535 828.31 616.455 828.763 616.429 829.31V834.65L617.769 835.03V835.85H613.149V835.03L614.489 834.65V830.19C614.489 829.323 614.462 828.676 614.409 828.25C614.369 827.823 614.289 827.49 614.169 827.25C614.009 826.93 613.782 826.69 613.489 826.53C613.209 826.356 612.875 826.27 612.489 826.27C612.155 826.27 611.829 826.336 611.509 826.47C611.189 826.603 610.902 826.783 610.649 827.01C610.355 827.276 610.135 827.59 609.989 827.95C609.855 828.31 609.775 828.763 609.749 829.31V834.65L611.089 835.03V835.85H606.269V835.03L607.809 834.65ZM630.995 828.79C630.995 827.47 630.855 826.243 630.575 825.11C630.295 823.963 629.895 822.936 629.375 822.03C628.855 821.123 628.228 820.37 627.495 819.77C626.775 819.17 625.975 818.763 625.095 818.55L624.675 819.53C625.542 819.73 626.295 820.25 626.935 821.09C627.575 821.93 628.075 823.016 628.435 824.35C628.795 825.67 628.975 827.163 628.975 828.83C628.975 830.51 628.795 832.003 628.435 833.31C628.088 834.616 627.602 835.67 626.975 836.47C626.348 837.27 625.615 837.756 624.775 837.93L625.295 839.03C626.135 838.856 626.902 838.49 627.595 837.93C628.288 837.37 628.888 836.643 629.395 835.75C629.902 834.843 630.295 833.803 630.575 832.63C630.855 831.456 630.995 830.176 630.995 828.79Z" fill="white"/>
<path d="M546.842 824.64C546.842 823.802 547.171 823.13 547.829 822.623C548.487 822.112 549.399 821.856 550.563 821.856C551.075 821.856 551.532 821.899 551.934 821.984C552.341 822.069 552.765 822.197 553.205 822.367V824.044C552.921 823.93 552.535 823.807 552.048 823.674C551.56 823.542 551.075 823.475 550.592 823.475C550.024 823.475 549.588 823.584 549.285 823.802C548.982 824.015 548.83 824.29 548.83 824.626C548.83 824.796 548.885 824.981 548.994 825.18C549.107 825.379 549.318 825.585 549.626 825.798C549.938 826.011 550.393 826.226 550.99 826.444C552.424 826.955 553.468 827.666 554.122 828.575C554.78 829.484 555.109 830.592 555.109 831.899V832.098C555.109 833.073 554.919 833.951 554.541 834.732C554.167 835.514 553.627 836.132 552.921 836.586C552.221 837.041 551.378 837.268 550.393 837.268C549.389 837.268 548.532 837.041 547.822 836.586C547.116 836.132 546.577 835.514 546.203 834.732C545.833 833.951 545.649 833.073 545.649 832.098V831.899C545.649 831.141 545.793 830.447 546.082 829.818C546.371 829.188 546.757 828.66 547.24 828.234C547.722 827.808 548.253 827.524 548.83 827.382V827.325C548.22 827.083 547.734 826.733 547.374 826.274C547.019 825.814 546.842 825.27 546.842 824.64ZM547.609 831.899V832.098C547.609 832.751 547.706 833.352 547.9 833.901C548.099 834.446 548.402 834.884 548.809 835.215C549.221 835.542 549.749 835.705 550.393 835.705C551.027 835.705 551.548 835.542 551.955 835.215C552.363 834.884 552.663 834.446 552.857 833.901C553.052 833.352 553.149 832.751 553.149 832.098V831.899C553.149 831.368 553.035 830.845 552.808 830.329C552.58 829.808 552.261 829.358 551.849 828.98C551.437 828.596 550.952 828.348 550.393 828.234C549.749 828.234 549.221 828.404 548.809 828.745C548.402 829.081 548.099 829.529 547.9 830.088C547.706 830.642 547.609 831.245 547.609 831.899Z" fill="white"/>
<defs>
<filter id="filter0_d_676_5484" x="139" y="638" width="888" height="11" filterUnits="userSpaceOnUse" color-interpolation-filters="sRGB">
<feFlood flood-opacity="0" result="BackgroundImageFix"/>
<feColorMatrix in="SourceAlpha" type="matrix" values="0 0 0 0 0 0 0 0 0 0 0 0 0 0 0 0 0 0 127 0" result="hardAlpha"/>
<feOffset dy="4"/>
<feGaussianBlur stdDeviation="2"/>
<feComposite in2="hardAlpha" operator="out"/>
<feColorMatrix type="matrix" values="0 0 0 0 0 0 0 0 0 0 0 0 0 0 0 0 0 0 0.25 0"/>
<feBlend mode="normal" in2="BackgroundImageFix" result="effect1_dropShadow_676_5484"/>
<feBlend mode="normal" in="SourceGraphic" in2="effect1_dropShadow_676_5484" result="shape"/>
</filter>
<filter id="filter1_d_676_5484" x="787" y="488.5" width="42.8066" height="160.344" filterUnits="userSpaceOnUse" color-interpolation-filters="sRGB">
<feFlood flood-opacity="0" result="BackgroundImageFix"/>
<feColorMatrix in="SourceAlpha" type="matrix" values="0 0 0 0 0 0 0 0 0 0 0 0 0 0 0 0 0 0 127 0" result="hardAlpha"/>
<feOffset dy="4"/>
<feGaussianBlur stdDeviation="2"/>
<feComposite in2="hardAlpha" operator="out"/>
<feColorMatrix type="matrix" values="0 0 0 0 0 0 0 0 0 0 0 0 0 0 0 0 0 0 0.25 0"/>
<feBlend mode="normal" in2="BackgroundImageFix" result="effect1_dropShadow_676_5484"/>
<feBlend mode="normal" in="SourceGraphic" in2="effect1_dropShadow_676_5484" result="shape"/>
</filter>
</defs>
</svg>
