<?xml version="1.0" encoding="utf-8"?>
<!-- Generator: Adobe Illustrator 27.1.1, SVG Export Plug-In . SVG Version: 6.00 Build 0)  -->
<svg version="1.1" id="Layer_1" xmlns="http://www.w3.org/2000/svg" xmlns:xlink="http://www.w3.org/1999/xlink" x="0px" y="0px"
	 viewBox="0 0 1122 901" style="enable-background:new 0 0 1122 901;" xml:space="preserve">
<style type="text/css">
	.st0{fill:#0C0C31;}
	.st1{fill:none;stroke:#C3FA50;stroke-width:3;}
	.st2{fill:none;stroke:#FFFFFF;stroke-width:2;}
	.st3{fill:#FFFFFF;}
	.st4{fill:#C3FA50;}
	.st5{fill:none;stroke:#000000;}
	.st6{fill:none;stroke:#FFFFFF;stroke-width:3;}
</style>
<rect y="0.6" class="st0" width="1122" height="900"/>
<g>
	<g>
		<path class="st1" d="M726.8,640l68.2,0h15.6l2.7-17.5v-86.2l1.8-5v-42.2v37.1l1.8-2.3l1.4,116h7.3h4.1h67.8 M152,640l533.1,0
			 M945.7,640h38.5h38.5"/>
	</g>
	<path class="st1" d="M899,641.6l5.5-28V390.3l2.3,231.9l3.2,2.3l3.2,14.9h4.6v-14.9l2.3-8.1v-49.2 M915.6,123.6l4.6,443.5
		 M947,639.4h-5.5h-3.7l-4.2-8.6l-2.3-210.7l2.3,204.4v4.1l-2.3,10.8l-2.3-2.3l-5.1-2.3v-6.3l-3.7-61.4"/>
	<path class="st1" d="M683.7,640l1.4-0.5l1.4-1.4v-17.9v-38.5l-1.4-30.7l1.4,17l2.7,3.2v66.9h8.2v-43.1v-95.3V359v113.2l2.3,9.6
		v75.6v80.7l1.8-7.3l3.7,7.3h3.2l4.1-5.5V348v108.6l2.7,178.8l3.2,4.1l2.7-4.1l1.4-2.8l-0.9-111.8l0.2,24.3l2.5,77.9v12.4l2.7,4.6"
		/>
</g>
<path class="st2" d="M144.8,682l880,0"/>
<line class="st2" x1="588.1" y1="681.8" x2="588.1" y2="704.1"/>
<line class="st2" x1="411.1" y1="681.8" x2="411.1" y2="704.1"/>
<line class="st2" x1="234.1" y1="681.8" x2="234.1" y2="704.1"/>
<line class="st2" x1="144.4" y1="680.7" x2="144.4" y2="703"/>
<line class="st2" x1="854.8" y1="681.8" x2="854.8" y2="704.1"/>
<line class="st2" x1="677.8" y1="681.8" x2="677.8" y2="704.1"/>
<line class="st2" x1="500.8" y1="681.8" x2="500.8" y2="704.1"/>
<line class="st2" x1="322.6" y1="681.8" x2="322.6" y2="704.1"/>
<line class="st2" x1="944.5" y1="681.8" x2="944.5" y2="704.1"/>
<line class="st2" x1="1023.6" y1="681.8" x2="1023.6" y2="704.1"/>
<line class="st2" x1="766.3" y1="681.8" x2="766.3" y2="704.1"/>
<path class="st3" d="M223.1,725.2c0,0.9,0.2,1.7,0.7,2.3c0.4,0.6,1.1,0.9,2.1,0.9c0.5,0,1-0.2,1.5-0.5c0.6-0.3,1.1-0.8,1.6-1.5
	c-0.1-1.3-0.4-2.4-0.9-3.3c-0.5-0.8-1.3-1.2-2.4-1.2c-0.5,0-0.9,0.1-1.3,0.4c-0.4,0.3-0.7,0.7-0.9,1.1
	C223.2,724,223.1,724.6,223.1,725.2z M225.1,734.5c-0.6,0-1.1-0.1-1.6-0.3c-0.4-0.2-0.8-0.5-1.1-0.9l0.5-0.6c0.3,0.3,0.6,0.6,1,0.8
	c0.4,0.2,0.8,0.3,1.2,0.3c0.7,0,1.3-0.2,1.9-0.6c0.6-0.4,1-1.1,1.4-2c0.4-0.9,0.5-2.2,0.5-3.7c-0.4,0.5-0.9,1-1.5,1.3
	c-0.6,0.3-1.1,0.5-1.7,0.5c-1.1,0-2-0.3-2.6-1c-0.6-0.7-0.9-1.7-0.9-3c0-0.8,0.2-1.5,0.5-2.1c0.3-0.6,0.7-1.1,1.3-1.4
	c0.5-0.3,1.1-0.5,1.7-0.5c1.3,0,2.3,0.5,3,1.6c0.8,1,1.1,2.5,1.1,4.5c0,1.8-0.2,3.2-0.7,4.3c-0.4,1.1-1,1.8-1.7,2.3
	C226.7,734.2,226,734.5,225.1,734.5z M233.1,734.5c-0.2,0-0.4-0.1-0.6-0.2c-0.2-0.2-0.3-0.4-0.3-0.7c0-0.3,0.1-0.5,0.3-0.7
	c0.2-0.2,0.4-0.2,0.6-0.2c0.2,0,0.4,0.1,0.6,0.2c0.2,0.2,0.3,0.4,0.3,0.7c0,0.3-0.1,0.5-0.3,0.7
	C233.5,734.4,233.3,734.5,233.1,734.5z M240,734.5c-1.2,0-2.2-0.6-2.8-1.7c-0.7-1.2-1-2.8-1-4.9c0-2.1,0.3-3.7,1-4.9
	c0.7-1.1,1.6-1.7,2.8-1.7c1.2,0,2.2,0.6,2.8,1.7c0.7,1.1,1,2.8,1,4.9c0,2.1-0.3,3.8-1,4.9C242.2,733.9,241.3,734.5,240,734.5z
	 M240,733.7c0.9,0,1.6-0.5,2.1-1.5c0.5-1,0.8-2.5,0.8-4.4c0-1.9-0.3-3.4-0.8-4.4c-0.5-1-1.2-1.5-2.1-1.5c-0.9,0-1.6,0.5-2.1,1.5
	c-0.5,1-0.8,2.4-0.8,4.4c0,1.9,0.3,3.4,0.8,4.4C238.5,733.2,239.2,733.7,240,733.7z"/>
<path class="st3" d="M128.6,734.2v-0.8h3v-10.6h-2.3v-0.6c0.5-0.1,1-0.2,1.4-0.3c0.4-0.1,0.8-0.3,1.1-0.5h0.7v12h2.8v0.8H128.6z
	 M141.3,734.5c-1.2,0-2.2-0.6-2.8-1.7c-0.7-1.2-1-2.8-1-4.9c0-2.1,0.3-3.7,1-4.9c0.7-1.1,1.6-1.7,2.8-1.7c1.2,0,2.2,0.6,2.8,1.7
	c0.7,1.1,1,2.8,1,4.9c0,2.1-0.3,3.8-1,4.9C143.4,733.9,142.5,734.5,141.3,734.5z M141.3,733.7c0.9,0,1.6-0.5,2.1-1.5
	c0.5-1,0.8-2.5,0.8-4.4c0-1.9-0.3-3.4-0.8-4.4c-0.5-1-1.2-1.5-2.1-1.5c-0.9,0-1.6,0.5-2.1,1.5c-0.5,1-0.8,2.4-0.8,4.4
	c0,1.9,0.3,3.4,0.8,4.4C139.7,733.2,140.4,733.7,141.3,733.7z M148.3,734.5c-0.2,0-0.4-0.1-0.6-0.2c-0.2-0.2-0.3-0.4-0.3-0.7
	c0-0.3,0.1-0.5,0.3-0.7c0.2-0.2,0.4-0.2,0.6-0.2c0.2,0,0.4,0.1,0.6,0.2c0.2,0.2,0.3,0.4,0.3,0.7c0,0.3-0.1,0.5-0.3,0.7
	C148.7,734.4,148.5,734.5,148.3,734.5z M155.2,734.5c-1.2,0-2.2-0.6-2.8-1.7c-0.7-1.2-1-2.8-1-4.9c0-2.1,0.3-3.7,1-4.9
	c0.7-1.1,1.6-1.7,2.8-1.7c1.2,0,2.2,0.6,2.8,1.7c0.7,1.1,1,2.8,1,4.9c0,2.1-0.3,3.8-1,4.9C157.4,733.9,156.4,734.5,155.2,734.5z
	 M155.2,733.7c0.9,0,1.6-0.5,2.1-1.5c0.5-1,0.8-2.5,0.8-4.4c0-1.9-0.3-3.4-0.8-4.4c-0.5-1-1.2-1.5-2.1-1.5c-0.9,0-1.6,0.5-2.1,1.5
	c-0.5,1-0.8,2.4-0.8,4.4c0,1.9,0.3,3.4,0.8,4.4C153.6,733.2,154.3,733.7,155.2,733.7z"/>
<path class="st3" d="M315.9,733.4c-0.8,0-1.5-0.2-2.1-0.5c-0.6-0.3-1.1-0.7-1.5-1.3c-0.3-0.5-0.5-1.1-0.5-1.8c0-0.6,0.1-1.1,0.4-1.6
	c0.3-0.5,0.6-0.9,1-1.2c0.4-0.3,0.8-0.6,1.2-0.8v-0.1c-0.5-0.3-0.9-0.7-1.3-1.2c-0.4-0.5-0.6-1.1-0.6-1.8c0-0.6,0.1-1.2,0.4-1.6
	c0.3-0.5,0.7-0.8,1.2-1.1c0.5-0.3,1.1-0.4,1.7-0.4c1.1,0,1.9,0.3,2.5,1c0.6,0.6,0.9,1.4,0.9,2.4c0,0.5-0.1,0.9-0.3,1.3
	c-0.2,0.4-0.4,0.8-0.7,1.1c-0.3,0.3-0.5,0.6-0.8,0.8v0.1c0.4,0.2,0.7,0.5,1.1,0.8c0.3,0.3,0.6,0.6,0.8,1c0.2,0.4,0.3,0.9,0.3,1.5
	c0,0.6-0.2,1.2-0.5,1.7c-0.3,0.5-0.8,0.9-1.4,1.2C317.3,733.2,316.6,733.4,315.9,733.4z M316.8,726.4c0.5-0.4,1-0.9,1.2-1.4
	c0.3-0.5,0.4-1,0.4-1.6c0-0.7-0.2-1.3-0.7-1.8c-0.5-0.5-1.1-0.8-1.9-0.8c-0.7,0-1.3,0.2-1.8,0.7c-0.5,0.4-0.7,1-0.7,1.7
	c0,0.6,0.2,1.1,0.5,1.5c0.3,0.4,0.8,0.7,1.3,1C315.7,725.9,316.2,726.2,316.8,726.4z M315.9,732.6c0.9,0,1.6-0.3,2.2-0.8
	c0.5-0.5,0.8-1.1,0.8-1.9c0-0.7-0.2-1.2-0.6-1.6c-0.4-0.4-0.9-0.8-1.5-1c-0.6-0.3-1.2-0.5-1.9-0.8c-0.7,0.4-1.2,0.8-1.6,1.4
	c-0.4,0.5-0.6,1.2-0.6,1.9c0,0.5,0.1,1,0.4,1.4c0.3,0.4,0.7,0.7,1.1,1C314.7,732.5,315.2,732.6,315.9,732.6z M322.8,733.4
	c-0.2,0-0.4-0.1-0.6-0.2c-0.2-0.2-0.3-0.4-0.3-0.7c0-0.3,0.1-0.5,0.3-0.7c0.2-0.2,0.4-0.2,0.6-0.2c0.2,0,0.4,0.1,0.6,0.2
	c0.2,0.2,0.3,0.4,0.3,0.7c0,0.3-0.1,0.5-0.3,0.7C323.2,733.3,323,733.4,322.8,733.4z M329.7,733.4c-1.2,0-2.2-0.6-2.8-1.7
	c-0.7-1.2-1-2.8-1-4.9c0-2.1,0.3-3.7,1-4.9c0.7-1.1,1.6-1.7,2.8-1.7c1.2,0,2.2,0.6,2.8,1.7c0.7,1.1,1,2.8,1,4.9c0,2.1-0.3,3.8-1,4.9
	C331.9,732.8,331,733.4,329.7,733.4z M329.7,732.6c0.9,0,1.6-0.5,2.1-1.5c0.5-1,0.8-2.5,0.8-4.4c0-1.9-0.3-3.4-0.8-4.4
	c-0.5-1-1.2-1.5-2.1-1.5c-0.9,0-1.6,0.5-2.1,1.5c-0.5,1-0.8,2.4-0.8,4.4c0,1.9,0.3,3.4,0.8,4.4C328.1,732.1,328.8,732.6,329.7,732.6
	z"/>
<path class="st3" d="M404.4,733.1c0.1-1.7,0.2-3.3,0.5-4.6s0.7-2.6,1.2-3.8c0.5-1.2,1.2-2.4,2.1-3.6h-6.7v-0.8h7.9v0.5
	c-0.8,1-1.4,2-1.9,2.9c-0.5,0.9-0.9,1.9-1.2,2.8c-0.3,1-0.5,2-0.7,3c-0.1,1.1-0.2,2.2-0.3,3.5H404.4z M412.5,733.4
	c-0.2,0-0.4-0.1-0.6-0.2c-0.2-0.2-0.3-0.4-0.3-0.7c0-0.3,0.1-0.5,0.3-0.7c0.2-0.2,0.4-0.2,0.6-0.2c0.2,0,0.4,0.1,0.6,0.2
	c0.2,0.2,0.3,0.4,0.3,0.7c0,0.3-0.1,0.5-0.3,0.7C412.9,733.3,412.7,733.4,412.5,733.4z M419.4,733.4c-1.2,0-2.2-0.6-2.8-1.7
	c-0.7-1.2-1-2.8-1-4.9c0-2.1,0.3-3.7,1-4.9c0.7-1.1,1.6-1.7,2.8-1.7c1.2,0,2.2,0.6,2.8,1.7c0.7,1.1,1,2.8,1,4.9c0,2.1-0.3,3.8-1,4.9
	C421.6,732.8,420.6,733.4,419.4,733.4z M419.4,732.6c0.9,0,1.6-0.5,2.1-1.5c0.5-1,0.8-2.5,0.8-4.4c0-1.9-0.3-3.4-0.8-4.4
	c-0.5-1-1.2-1.5-2.1-1.5c-0.9,0-1.6,0.5-2.1,1.5c-0.5,1-0.8,2.4-0.8,4.4c0,1.9,0.3,3.4,0.8,4.4C417.8,732.1,418.5,732.6,419.4,732.6
	z"/>
<path class="st3" d="M493.1,726.2c-0.5,0-1,0.1-1.5,0.4c-0.5,0.3-1.1,0.8-1.6,1.5c0.1,1.3,0.4,2.4,0.9,3.3c0.5,0.8,1.3,1.2,2.4,1.2
	c0.5,0,0.9-0.1,1.3-0.4c0.4-0.3,0.7-0.7,0.9-1.2c0.2-0.5,0.3-1,0.3-1.7c0-0.9-0.2-1.7-0.7-2.3C494.7,726.5,494,726.2,493.1,726.2z
	 M493.2,733.4c-1.3,0-2.3-0.5-3.1-1.6c-0.7-1.1-1.1-2.5-1.1-4.5c0-1.3,0.1-2.5,0.4-3.4c0.3-0.9,0.6-1.7,1-2.2c0.4-0.6,0.9-1,1.5-1.2
	c0.6-0.3,1.2-0.4,1.8-0.4c0.6,0,1.1,0.1,1.5,0.3c0.4,0.2,0.8,0.5,1.2,0.9l-0.5,0.6c-0.3-0.3-0.6-0.6-1-0.8c-0.4-0.2-0.8-0.3-1.2-0.3
	c-0.7,0-1.3,0.2-1.9,0.6c-0.6,0.4-1,1.1-1.4,2c-0.3,0.9-0.5,2.2-0.5,3.7c0.4-0.5,0.9-1,1.5-1.3s1.1-0.5,1.7-0.5c1.1,0,2,0.3,2.6,1
	c0.6,0.7,0.9,1.6,0.9,2.9c0,0.8-0.2,1.5-0.5,2.1c-0.3,0.6-0.7,1.1-1.3,1.4C494.5,733.2,493.9,733.4,493.2,733.4z M499.8,733.4
	c-0.2,0-0.4-0.1-0.6-0.2c-0.2-0.2-0.3-0.4-0.3-0.7c0-0.3,0.1-0.5,0.3-0.7c0.2-0.2,0.4-0.2,0.6-0.2c0.2,0,0.4,0.1,0.6,0.2
	c0.2,0.2,0.3,0.4,0.3,0.7c0,0.3-0.1,0.5-0.3,0.7C500.2,733.3,500,733.4,499.8,733.4z M506.7,733.4c-1.2,0-2.2-0.6-2.8-1.7
	c-0.7-1.2-1-2.8-1-4.9c0-2.1,0.3-3.7,1-4.9c0.7-1.1,1.6-1.7,2.8-1.7c1.2,0,2.2,0.6,2.8,1.7c0.7,1.1,1,2.8,1,4.9c0,2.1-0.3,3.8-1,4.9
	C508.9,732.8,508,733.4,506.7,733.4z M506.7,732.6c0.9,0,1.6-0.5,2.1-1.5c0.5-1,0.8-2.5,0.8-4.4c0-1.9-0.3-3.4-0.8-4.4
	c-0.5-1-1.2-1.5-2.1-1.5c-0.9,0-1.6,0.5-2.1,1.5c-0.5,1-0.8,2.4-0.8,4.4c0,1.9,0.3,3.4,0.8,4.4S505.9,732.6,506.7,732.6z"/>
<path class="st3" d="M579.9,733.4c-0.7,0-1.3-0.1-1.8-0.3c-0.5-0.2-0.9-0.4-1.3-0.7c-0.4-0.3-0.7-0.5-1-0.8l0.5-0.6
	c0.4,0.4,0.8,0.7,1.4,1.1c0.5,0.3,1.3,0.5,2.1,0.5c0.6,0,1.1-0.1,1.6-0.4c0.5-0.3,0.9-0.7,1.2-1.2c0.3-0.5,0.4-1.1,0.4-1.8
	c0-1-0.3-1.8-0.9-2.4c-0.6-0.6-1.3-0.9-2.3-0.9c-0.5,0-0.9,0.1-1.3,0.2c-0.3,0.1-0.7,0.4-1.1,0.6l-0.6-0.4l0.5-6h5.9v0.8h-5.1
	l-0.4,4.6c0.3-0.2,0.7-0.4,1-0.5c0.4-0.1,0.8-0.2,1.2-0.2c0.7,0,1.4,0.1,2,0.4c0.6,0.3,1.1,0.7,1.4,1.3c0.3,0.6,0.5,1.3,0.5,2.3
	c0,0.9-0.2,1.7-0.6,2.3c-0.4,0.6-0.9,1.1-1.5,1.4C581.2,733.2,580.6,733.4,579.9,733.4z M587.1,733.4c-0.2,0-0.4-0.1-0.6-0.2
	c-0.2-0.2-0.3-0.4-0.3-0.7c0-0.3,0.1-0.5,0.3-0.7c0.2-0.2,0.4-0.2,0.6-0.2c0.2,0,0.4,0.1,0.6,0.2c0.2,0.2,0.3,0.4,0.3,0.7
	c0,0.3-0.1,0.5-0.3,0.7C587.5,733.3,587.3,733.4,587.1,733.4z M594.1,733.4c-1.2,0-2.2-0.6-2.8-1.7s-1-2.8-1-4.9
	c0-2.1,0.3-3.7,1-4.9c0.7-1.1,1.6-1.7,2.8-1.7c1.2,0,2.2,0.6,2.8,1.7c0.7,1.1,1,2.8,1,4.9c0,2.1-0.3,3.8-1,4.9
	C596.2,732.8,595.3,733.4,594.1,733.4z M594.1,732.6c0.9,0,1.6-0.5,2.1-1.5c0.5-1,0.8-2.5,0.8-4.4c0-1.9-0.3-3.4-0.8-4.4
	c-0.5-1-1.2-1.5-2.1-1.5c-0.9,0-1.6,0.5-2.1,1.5c-0.5,1-0.8,2.4-0.8,4.4c0,1.9,0.3,3.4,0.8,4.4C592.5,732.1,593.2,732.6,594.1,732.6
	z"/>
<path class="st3" d="M666.4,728.5h4.8v-4.7c0-0.3,0-0.7,0-1.1c0-0.4,0-0.8,0.1-1.1h-0.1c-0.2,0.3-0.3,0.5-0.5,0.8
	c-0.2,0.3-0.4,0.5-0.5,0.8L666.4,728.5z M671.2,733.1v-3.8h-5.9v-0.5l5.9-8.4h0.8v8.2h1.9v0.8h-1.9v3.8H671.2z M676.8,733.4
	c-0.2,0-0.4-0.1-0.6-0.2c-0.2-0.2-0.3-0.4-0.3-0.7c0-0.3,0.1-0.5,0.3-0.7c0.2-0.2,0.4-0.2,0.6-0.2c0.2,0,0.4,0.1,0.6,0.2
	c0.2,0.2,0.3,0.4,0.3,0.7c0,0.3-0.1,0.5-0.3,0.7C677.2,733.3,677,733.4,676.8,733.4z M683.8,733.4c-1.2,0-2.2-0.6-2.8-1.7
	c-0.7-1.2-1-2.8-1-4.9c0-2.1,0.3-3.7,1-4.9c0.7-1.1,1.6-1.7,2.8-1.7c1.2,0,2.2,0.6,2.8,1.7c0.7,1.1,1,2.8,1,4.9c0,2.1-0.3,3.8-1,4.9
	C685.9,732.8,685,733.4,683.8,733.4z M683.8,732.6c0.9,0,1.6-0.5,2.1-1.5c0.5-1,0.8-2.5,0.8-4.4c0-1.9-0.3-3.4-0.8-4.4
	c-0.5-1-1.2-1.5-2.1-1.5c-0.9,0-1.6,0.5-2.1,1.5c-0.5,1-0.8,2.4-0.8,4.4c0,1.9,0.3,3.4,0.8,4.4C682.2,732.1,682.9,732.6,683.8,732.6
	z"/>
<path class="st3" d="M757,733.4c-0.7,0-1.3-0.1-1.8-0.3c-0.5-0.2-0.9-0.4-1.3-0.7c-0.4-0.3-0.7-0.6-1-0.8l0.5-0.6
	c0.4,0.4,0.9,0.8,1.4,1.1c0.5,0.3,1.3,0.5,2.1,0.5c0.9,0,1.6-0.3,2.1-0.8c0.6-0.5,0.8-1.2,0.8-2.1c0-0.9-0.3-1.6-1-2.1
	c-0.7-0.5-1.8-0.8-3.4-0.8V726c1,0,1.8-0.1,2.4-0.4c0.6-0.3,1-0.6,1.3-1c0.3-0.4,0.4-0.9,0.4-1.4c0-0.7-0.2-1.3-0.7-1.7
	c-0.5-0.4-1.1-0.7-1.9-0.7c-0.6,0-1.1,0.1-1.6,0.4c-0.5,0.3-0.9,0.6-1.3,1l-0.5-0.6c0.4-0.4,0.9-0.8,1.5-1.1c0.6-0.3,1.2-0.5,2-0.5
	c0.7,0,1.3,0.1,1.8,0.4c0.5,0.2,1,0.6,1.3,1.1c0.3,0.5,0.5,1,0.5,1.7c0,0.8-0.2,1.5-0.7,2c-0.5,0.5-1,0.9-1.7,1.1v0.1
	c0.5,0.1,1,0.3,1.4,0.6c0.4,0.3,0.8,0.7,1.1,1.1c0.3,0.5,0.4,1,0.4,1.6c0,0.7-0.2,1.4-0.5,1.9c-0.3,0.5-0.8,1-1.4,1.3
	C758.4,733.2,757.7,733.4,757,733.4z M764.1,733.4c-0.2,0-0.4-0.1-0.6-0.2c-0.2-0.2-0.3-0.4-0.3-0.7c0-0.3,0.1-0.5,0.3-0.7
	c0.2-0.2,0.4-0.2,0.6-0.2c0.2,0,0.4,0.1,0.6,0.2c0.2,0.2,0.3,0.4,0.3,0.7c0,0.3-0.1,0.5-0.3,0.7
	C764.5,733.3,764.3,733.4,764.1,733.4z M771.1,733.4c-1.2,0-2.2-0.6-2.8-1.7c-0.7-1.2-1-2.8-1-4.9c0-2.1,0.3-3.7,1-4.9
	c0.7-1.1,1.6-1.7,2.8-1.7c1.2,0,2.2,0.6,2.8,1.7c0.7,1.1,1,2.8,1,4.9c0,2.1-0.3,3.8-1,4.9C773.2,732.8,772.3,733.4,771.1,733.4z
	 M771.1,732.6c0.9,0,1.6-0.5,2.1-1.5c0.5-1,0.8-2.5,0.8-4.4c0-1.9-0.3-3.4-0.8-4.4c-0.5-1-1.2-1.5-2.1-1.5c-0.9,0-1.6,0.5-2.1,1.5
	c-0.5,1-0.8,2.4-0.8,4.4c0,1.9,0.3,3.4,0.8,4.4C769.5,732.1,770.2,732.6,771.1,732.6z"/>
<path class="st3" d="M842.9,733.1v-0.6c1.4-1.4,2.6-2.7,3.5-3.7c0.9-1.1,1.6-2,2.1-2.8c0.5-0.8,0.7-1.6,0.7-2.3c0-0.8-0.2-1.5-0.7-2
	c-0.4-0.5-1.1-0.8-2.1-0.8c-0.6,0-1.1,0.2-1.6,0.5c-0.5,0.3-1,0.7-1.3,1.2l-0.6-0.6c0.5-0.5,1-1,1.6-1.3c0.6-0.4,1.3-0.5,2-0.5
	c1.1,0,2,0.3,2.7,1c0.6,0.7,0.9,1.5,0.9,2.6c0,0.8-0.2,1.7-0.7,2.6c-0.5,0.9-1.2,1.8-2,2.8c-0.9,1-1.9,2.1-3.1,3.4
	c0.3,0,0.7,0,1.1-0.1c0.4,0,0.7,0,1.1,0h4.4v0.8H842.9z M853.8,733.4c-0.2,0-0.4-0.1-0.6-0.2c-0.2-0.2-0.3-0.4-0.3-0.7
	c0-0.3,0.1-0.5,0.3-0.7c0.2-0.2,0.4-0.2,0.6-0.2c0.2,0,0.4,0.1,0.6,0.2c0.2,0.2,0.3,0.4,0.3,0.7c0,0.3-0.1,0.5-0.3,0.7
	C854.2,733.3,854,733.4,853.8,733.4z M860.8,733.4c-1.2,0-2.2-0.6-2.8-1.7c-0.7-1.2-1-2.8-1-4.9c0-2.1,0.3-3.7,1-4.9
	c0.7-1.1,1.6-1.7,2.8-1.7c1.2,0,2.2,0.6,2.8,1.7c0.7,1.1,1,2.8,1,4.9c0,2.1-0.3,3.8-1,4.9C862.9,732.8,862,733.4,860.8,733.4z
	 M860.8,732.6c0.9,0,1.6-0.5,2.1-1.5c0.5-1,0.8-2.5,0.8-4.4c0-1.9-0.3-3.4-0.8-4.4c-0.5-1-1.2-1.5-2.1-1.5c-0.9,0-1.6,0.5-2.1,1.5
	c-0.5,1-0.8,2.4-0.8,4.4c0,1.9,0.3,3.4,0.8,4.4C859.2,732.1,859.9,732.6,860.8,732.6z"/>
<path class="st3" d="M938.1,733.1v-0.8h3v-10.6h-2.3v-0.6c0.5-0.1,1-0.2,1.4-0.3c0.4-0.1,0.8-0.3,1.1-0.5h0.7v12h2.8v0.8H938.1z
	 M948.2,733.4c-0.2,0-0.4-0.1-0.6-0.2c-0.2-0.2-0.3-0.4-0.3-0.7c0-0.3,0.1-0.5,0.3-0.7c0.2-0.2,0.4-0.2,0.6-0.2
	c0.2,0,0.4,0.1,0.6,0.2c0.2,0.2,0.3,0.4,0.3,0.7c0,0.3-0.1,0.5-0.3,0.7C948.6,733.3,948.4,733.4,948.2,733.4z M955.2,733.4
	c-1.2,0-2.2-0.6-2.8-1.7c-0.7-1.2-1-2.8-1-4.9c0-2.1,0.3-3.7,1-4.9c0.7-1.1,1.6-1.7,2.8-1.7c1.2,0,2.2,0.6,2.8,1.7
	c0.7,1.1,1,2.8,1,4.9c0,2.1-0.3,3.8-1,4.9C957.3,732.8,956.4,733.4,955.2,733.4z M955.2,732.6c0.9,0,1.6-0.5,2.1-1.5
	c0.5-1,0.8-2.5,0.8-4.4c0-1.9-0.3-3.4-0.8-4.4c-0.5-1-1.2-1.5-2.1-1.5c-0.9,0-1.6,0.5-2.1,1.5c-0.5,1-0.8,2.4-0.8,4.4
	c0,1.9,0.3,3.4,0.8,4.4C953.6,732.1,954.3,732.6,955.2,732.6z"/>
<path class="st3" d="M1025,733.4c-1.2,0-2.2-0.6-2.8-1.7c-0.7-1.2-1-2.8-1-4.9c0-2.1,0.3-3.7,1-4.9c0.7-1.1,1.6-1.7,2.8-1.7
	c1.2,0,2.2,0.6,2.8,1.7c0.7,1.1,1,2.8,1,4.9c0,2.1-0.3,3.8-1,4.9C1027.2,732.8,1026.2,733.4,1025,733.4z M1025,732.6
	c0.9,0,1.6-0.5,2.1-1.5c0.5-1,0.8-2.5,0.8-4.4c0-1.9-0.3-3.4-0.8-4.4c-0.5-1-1.2-1.5-2.1-1.5c-0.9,0-1.6,0.5-2.1,1.5
	c-0.5,1-0.8,2.4-0.8,4.4c0,1.9,0.3,3.4,0.8,4.4C1023.4,732.1,1024.1,732.6,1025,732.6z"/>
<path class="st3" d="M94.4,81.9h-1l-0.4-2h-3.3v5.6h6l0.6-3.3h1.2v4.5H85.9v-0.9l1.9-0.4V73.5l-1.9-0.4v-0.9h11.3v4.2h-1l-0.6-3.1
	h-5.7v5.2h3.3l0.4-2h1V81.9z M98.9,76.8v-0.7l1.9-0.3l0.3-2.5l1.7-0.2v2.8h2.6v1h-2.6V84c0,0.5,0,0.8,0,0.9c0,0.2,0,0.3,0.1,0.4
	c0,0.1,0.1,0.2,0.2,0.2c0.1,0,0.3,0,0.5,0h1.4v0.6c-0.6,0.2-1.2,0.4-1.7,0.5c-0.5,0.1-0.9,0.2-1.2,0.2c-0.6,0-1-0.2-1.2-0.7
	c-0.1-0.2-0.1-0.4-0.1-0.6c0-0.3,0-0.6,0-1.1v-7.5H98.9z M114.5,85.4V81c0-0.9,0-1.5-0.1-1.9c0-0.4-0.1-0.8-0.2-1
	c-0.3-0.7-0.9-1-1.8-1c-0.4,0-0.7,0.1-1.1,0.2c-0.3,0.1-0.7,0.3-0.9,0.5c-0.3,0.3-0.5,0.6-0.7,0.9c-0.1,0.3-0.2,0.8-0.2,1.3v5.4
	l1.3,0.4v0.8H106v-0.8l1.5-0.4V72.2l-1.5-0.4V71h3.5v6.7c0.4-0.6,0.9-1.1,1.6-1.5c0.7-0.4,1.4-0.6,2.1-0.6c0.5,0,1,0.1,1.4,0.3
	c0.4,0.2,0.8,0.5,1,0.8c0.3,0.4,0.5,0.9,0.6,1.6c0.1,0.7,0.2,1.6,0.2,2.7v4.4l1.5,0.4v0.8h-4.8v-0.8L114.5,85.4z M119.1,84.3
	c0-1,0.5-1.9,1.5-2.5s2.6-1.1,4.8-1.4c-0.1-0.8-0.1-1.4-0.2-1.8c-0.1-0.4-0.2-0.8-0.4-1.1c-0.2-0.3-0.4-0.6-0.8-0.8
	c-0.3-0.2-0.7-0.3-1.1-0.3c-0.4,0-0.7,0.1-1,0.2c-0.3,0.1-0.5,0.3-0.6,0.5c0.2,0.1,0.3,0.3,0.4,0.5c0.1,0.2,0.1,0.4,0.1,0.6
	c0,0.3-0.1,0.6-0.3,0.8c-0.2,0.2-0.5,0.3-0.8,0.3s-0.6-0.1-0.8-0.3c-0.2-0.2-0.3-0.5-0.3-0.9c0-0.6,0.2-1,0.6-1.4
	c0.4-0.4,0.9-0.7,1.5-0.9c0.6-0.2,1.2-0.3,1.8-0.3c0.5,0,1,0.1,1.5,0.3c0.5,0.2,0.9,0.4,1.2,0.7c0.8,0.8,1.2,2.3,1.2,4.4v2.9
	c0,0.7,0,1.1,0.1,1.4c0.1,0.3,0.3,0.4,0.6,0.4h0.9v0.6c-1,0.4-1.7,0.6-2.2,0.6c-0.4,0-0.7-0.1-0.8-0.4c-0.1-0.3-0.2-0.9-0.2-1.7
	h-0.1c-0.4,0.7-1,1.2-1.6,1.6c-0.7,0.4-1.4,0.6-2.2,0.6c-0.8,0-1.5-0.2-2-0.7C119.4,85.7,119.1,85.1,119.1,84.3z M122.7,85.7
	c0.4,0,0.8-0.1,1.2-0.3c0.4-0.2,0.8-0.5,1-0.8c0.2-0.3,0.4-0.6,0.5-0.9c0.1-0.4,0.2-0.8,0.2-1.3c0-0.2,0-0.4,0-0.7
	c0-0.2,0-0.4-0.1-0.6c-1.1,0.2-1.9,0.4-2.5,0.7c-0.6,0.2-1,0.5-1.3,0.9c-0.3,0.3-0.4,0.8-0.4,1.3c0,0.6,0.1,1,0.4,1.3
	C121.8,85.5,122.2,85.7,122.7,85.7z M131.4,85.4V77l-1.5-0.4v-0.8h2.9l0.4,2h0.1c0.4-0.7,0.9-1.2,1.6-1.6c0.7-0.4,1.4-0.6,2.2-0.6
	c1.1,0,1.9,0.4,2.5,1.1c0.3,0.4,0.5,0.9,0.6,1.6c0.1,0.7,0.2,1.6,0.2,2.7v4.4l1.5,0.4v0.8H137v-0.8l1.3-0.4V81c0-0.9,0-1.5-0.1-1.9
	c0-0.4-0.1-0.8-0.2-1c-0.2-0.3-0.4-0.6-0.7-0.7c-0.3-0.2-0.6-0.3-1.1-0.3c-0.8,0-1.4,0.2-2,0.7c-0.5,0.5-0.8,1.3-0.9,2.3v5.3
	l1.3,0.4v0.8h-4.8v-0.8L131.4,85.4z M152.9,81.1c0,0.9-0.1,1.7-0.4,2.5c-0.3,0.8-0.6,1.4-1.1,1.9c-0.4,0.4-0.9,0.8-1.5,1
	c-0.6,0.2-1.3,0.3-2,0.3c-0.7,0-1.4-0.1-2-0.3c-0.6-0.2-1.1-0.5-1.5-1c-0.5-0.5-0.8-1.1-1.1-1.8c-0.2-0.7-0.4-1.5-0.4-2.4
	c0-0.9,0.1-1.7,0.4-2.5c0.3-0.8,0.6-1.5,1.1-2c0.4-0.5,0.9-0.8,1.5-1c0.6-0.2,1.2-0.3,2-0.3c0.7,0,1.4,0.1,2,0.3
	c0.6,0.2,1.1,0.5,1.5,0.9c0.5,0.5,0.8,1.1,1.1,1.9C152.8,79.5,152.9,80.3,152.9,81.1z M145.3,81.2c0,0.8,0.1,1.5,0.2,2.1
	c0.1,0.6,0.3,1.1,0.5,1.5c0.2,0.3,0.5,0.6,0.8,0.8c0.3,0.2,0.7,0.3,1.2,0.3c0.9,0,1.6-0.3,2.1-0.9c0.2-0.3,0.4-0.8,0.5-1.4
	c0.1-0.6,0.2-1.3,0.2-2.1s-0.1-1.5-0.2-2.1c-0.1-0.6-0.3-1.1-0.5-1.5c-0.2-0.3-0.5-0.6-0.8-0.8c-0.3-0.2-0.7-0.3-1.2-0.3
	c-0.9,0-1.6,0.3-2,0.9C145.5,78.4,145.3,79.5,145.3,81.2z M156,85.4V72.2l-1.5-0.4V71h3.5v14.4l1.5,0.4v0.8h-5v-0.8L156,85.4z"/>
<path class="st4" d="M114.9,614.9h11.8l0.4-1.9h0.9v5.8h-0.9l-0.4-1.9h-11.8l-0.4,1.9h-0.9V613h0.9L114.9,614.9z M126.8,609.9h-8.4
	l-0.4,1.5h-0.8v-2.9l2-0.4V608c-0.7-0.4-1.2-0.9-1.6-1.6c-0.4-0.7-0.6-1.4-0.6-2.2c0-1.1,0.4-1.9,1.1-2.5c0.4-0.3,0.9-0.5,1.6-0.6
	c0.7-0.1,1.6-0.2,2.7-0.2h4.4l0.4-1.5h0.8v4.8h-0.8l-0.4-1.3h-4.5c-0.9,0-1.5,0-1.9,0.1c-0.4,0-0.8,0.1-1,0.2
	c-0.3,0.2-0.6,0.4-0.7,0.7c-0.2,0.3-0.3,0.6-0.3,1.1c0,0.8,0.2,1.4,0.7,2c0.5,0.5,1.3,0.8,2.3,0.9h5.3l0.4-1.3h0.8v4.8h-0.8
	L126.8,609.9z M118.2,598.9h-0.7l-0.3-1.9l-2.5-0.3l-0.2-1.7h2.8v-2.6h1v2.6h7.1c0.5,0,0.8,0,0.9,0c0.2,0,0.3,0,0.4-0.1
	c0.1,0,0.2-0.1,0.2-0.2c0-0.1,0-0.3,0-0.5v-1.4h0.6c0.2,0.6,0.4,1.2,0.5,1.7c0.1,0.5,0.2,0.9,0.2,1.2c0,0.6-0.2,1-0.7,1.2
	c-0.2,0.1-0.4,0.1-0.6,0.1c-0.3,0-0.6,0-1.1,0h-7.5V598.9z M122.7,582.3v7c1,0,1.8-0.1,2.4-0.4c0.6-0.3,1.1-0.6,1.3-1.1
	c0.3-0.5,0.4-1,0.4-1.6c0-0.6-0.1-1.2-0.4-1.7c-0.3-0.5-0.6-1-1.1-1.4l0.5-0.6c0.6,0.5,1.2,1,1.6,1.7c0.5,0.7,0.7,1.5,0.7,2.6
	c0,0.9-0.2,1.7-0.6,2.4c-0.4,0.7-1,1.2-1.7,1.6c-0.4,0.2-0.9,0.3-1.4,0.4c-0.5,0.1-1,0.1-1.6,0.1c-1.9,0-3.3-0.4-4.3-1.3
	c-1-0.9-1.5-2-1.5-3.5c0-1.4,0.4-2.4,1.3-3.1c0.8-0.7,2-1.1,3.5-1.1c0.1,0,0.3,0,0.4,0C122.3,582.3,122.5,582.3,122.7,582.3z
	 M118.1,586.6c0,1.6,1.2,2.5,3.7,2.6v-5h-0.7c-1,0-1.7,0.2-2.2,0.6C118.3,585.3,118.1,585.9,118.1,586.6z M126.8,579.1h-8.4
	l-0.4,1.5h-0.8v-2.9l2-0.4v-0.1c-0.7-0.4-1.2-0.9-1.6-1.6c-0.4-0.7-0.6-1.4-0.6-2.2c0-1.1,0.4-1.9,1.1-2.5c0.4-0.3,0.9-0.5,1.6-0.6
	c0.7-0.1,1.6-0.2,2.7-0.2h4.4l0.4-1.5h0.8v4.8h-0.8l-0.4-1.3h-4.5c-0.9,0-1.5,0-1.9,0.1c-0.4,0-0.8,0.1-1,0.2
	c-0.3,0.2-0.6,0.4-0.7,0.7c-0.2,0.3-0.3,0.6-0.3,1.1c0,0.8,0.2,1.4,0.7,2c0.5,0.5,1.3,0.8,2.3,0.9h5.3l0.4-1.3h0.8v4.8h-0.8
	L126.8,579.1z M127.3,563.4c0-0.7-0.2-1.4-0.5-1.8c-0.3-0.5-0.7-0.7-1.3-0.7c-0.4,0-0.8,0.1-1.1,0.4c-0.3,0.3-0.5,0.7-0.6,1.1
	c-0.2,0.4-0.3,0.9-0.4,1.3c-0.2,0.5-0.4,1.1-0.6,1.6c-0.2,0.5-0.6,0.9-1,1.2c-0.4,0.3-1,0.5-1.6,0.5c-1,0-1.7-0.3-2.3-1
	c-0.6-0.7-0.9-1.7-0.9-2.9c0-1.1,0.2-1.9,0.7-2.5c0.4-0.6,1-0.9,1.8-0.9c0.4,0,0.7,0.1,1,0.3c0.2,0.2,0.4,0.5,0.4,0.8
	c0,0.3-0.1,0.6-0.3,0.8c-0.2,0.2-0.4,0.3-0.7,0.3c-0.3,0-0.5-0.1-0.7-0.2c-0.2-0.1-0.4-0.3-0.5-0.5c-0.3,0.2-0.5,0.5-0.6,0.8
	c-0.1,0.3-0.2,0.7-0.2,1.2c0,0.8,0.1,1.4,0.4,1.8c0.3,0.4,0.7,0.6,1.3,0.6c0.4,0,0.7-0.1,1-0.3c0.2-0.2,0.4-0.5,0.6-0.9
	c0.2-0.4,0.3-0.8,0.5-1.4c0.1-0.5,0.3-0.9,0.5-1.3c0.2-0.4,0.4-0.8,0.6-1.2s0.5-0.6,0.9-0.9c0.4-0.2,0.8-0.3,1.3-0.3
	c0.7,0,1.3,0.2,1.8,0.6c0.5,0.4,0.8,0.9,1.1,1.5c0.3,0.7,0.4,1.4,0.4,2.3c0,1.2-0.2,2.1-0.7,2.8c-0.5,0.7-1.1,1.1-1.9,1.1
	c-0.4,0-0.8-0.1-1-0.3c-0.3-0.2-0.4-0.5-0.4-0.8c0-0.3,0.1-0.6,0.3-0.8c0.2-0.2,0.4-0.3,0.7-0.3c0.3,0,0.5,0.1,0.7,0.2
	c0.2,0.1,0.4,0.3,0.5,0.5c0.3-0.2,0.5-0.5,0.6-0.9C127.2,564.5,127.3,564,127.3,563.4z M118.4,555.9l-0.4,1.5h-0.8V554h9.6l0.4-1.5
	h0.8v5h-0.8l-0.4-1.5H118.4z M114,556.2c-0.4,0-0.7-0.1-0.9-0.3c-0.2-0.2-0.3-0.5-0.3-0.9c0-0.4,0.1-0.7,0.3-0.9
	c0.2-0.2,0.5-0.3,0.9-0.3c0.4,0,0.7,0.1,0.9,0.3c0.2,0.2,0.3,0.5,0.3,0.9c0,0.4-0.1,0.7-0.3,0.9C114.7,556.1,114.4,556.2,114,556.2z
	 M118.2,551.8h-0.7l-0.3-1.9l-2.5-0.3l-0.2-1.7h2.8v-2.6h1v2.6h7.1c0.5,0,0.8,0,0.9,0c0.2,0,0.3,0,0.4-0.1c0.1,0,0.2-0.1,0.2-0.2
	c0-0.1,0-0.3,0-0.5v-1.4h0.6c0.2,0.6,0.4,1.2,0.5,1.7c0.1,0.5,0.2,0.9,0.2,1.2c0,0.6-0.2,1-0.7,1.2c-0.2,0.1-0.4,0.1-0.6,0.1
	c-0.3,0-0.6,0-1.1,0h-7.5V551.8z M118.4,534.9l9.1,3.3c1,0.4,1.9,0.7,2.5,1c0.6,0.3,1.1,0.6,1.4,1c0.3,0.4,0.4,0.9,0.4,1.4
	c0,0.6-0.2,1.2-0.5,1.6c-0.3,0.4-0.8,0.7-1.3,0.7c-0.4,0-0.7-0.1-0.9-0.3c-0.2-0.2-0.4-0.5-0.4-0.8c0-0.3,0.1-0.5,0.2-0.7
	c0.2-0.2,0.4-0.3,0.7-0.3c0.2,0,0.4,0,0.5,0.1c0.2,0.1,0.3,0.2,0.5,0.3c0.1,0,0.2-0.1,0.3-0.2c0.1-0.1,0.1-0.2,0.1-0.3
	c0-0.2,0-0.4-0.1-0.5c-0.1-0.2-0.3-0.3-0.6-0.5c-0.3-0.2-0.8-0.4-1.4-0.6l-0.7-0.2l-9.7,4.1l-0.4,1.2h-0.8v-4.5l0.8-0.2l0.4,1.4
	l7.8-3v-0.1l-7.8-2.5l-0.4,1.2h-0.8v-3.8h0.8L118.4,534.9z"/>
<path class="st3" d="M421.7,312.1c0,1.5-0.2,3-0.7,4.3c-0.5,1.3-1.1,2.4-1.9,3.3c-0.7,0.8-1.6,1.3-2.6,1.7c-1,0.4-2.1,0.5-3.5,0.5
	c-1.3,0-2.5-0.2-3.5-0.5c-1-0.4-1.9-0.9-2.5-1.7c-0.8-0.8-1.4-1.9-1.9-3.1c-0.4-1.3-0.7-2.7-0.7-4.1c0-1.5,0.2-2.9,0.7-4.3
	c0.5-1.3,1.1-2.5,1.9-3.4c0.7-0.8,1.6-1.4,2.5-1.7c1-0.4,2.1-0.6,3.5-0.6c1.3,0,2.5,0.2,3.5,0.6c1,0.3,1.9,0.9,2.6,1.7
	c0.8,0.8,1.4,1.9,1.9,3.2C421.5,309.3,421.7,310.7,421.7,312.1z M407.5,312c0,1.5,0.1,2.7,0.4,3.9c0.2,1.1,0.6,2,1,2.8
	c0.5,0.6,1,1.1,1.7,1.5c0.7,0.3,1.6,0.5,2.6,0.5c1.9,0,3.2-0.6,4.1-1.7c0.5-0.6,0.8-1.5,1.1-2.6c0.2-1.1,0.4-2.4,0.4-3.8
	c0-1.5-0.1-2.7-0.4-3.8c-0.2-1.1-0.6-2-1.1-2.7c-0.5-0.7-1-1.2-1.8-1.5c-0.7-0.3-1.5-0.5-2.5-0.5c-0.9,0-1.7,0.1-2.4,0.4
	c-0.7,0.3-1.2,0.7-1.7,1.3C408,307.1,407.5,309.1,407.5,312z"/>
<path class="st5" d="M421.7,312.1c0,1.5-0.2,3-0.7,4.3c-0.5,1.3-1.1,2.4-1.9,3.3c-0.7,0.8-1.6,1.3-2.6,1.7c-1,0.4-2.1,0.5-3.5,0.5
	c-1.3,0-2.5-0.2-3.5-0.5c-1-0.4-1.9-0.9-2.5-1.7c-0.8-0.8-1.4-1.9-1.9-3.1c-0.4-1.3-0.7-2.7-0.7-4.1c0-1.5,0.2-2.9,0.7-4.3
	c0.5-1.3,1.1-2.5,1.9-3.4c0.7-0.8,1.6-1.4,2.5-1.7c1-0.4,2.1-0.6,3.5-0.6c1.3,0,2.5,0.2,3.5,0.6c1,0.3,1.9,0.9,2.6,1.7
	c0.8,0.8,1.4,1.9,1.9,3.2C421.5,309.3,421.7,310.7,421.7,312.1z M407.5,312c0,1.5,0.1,2.7,0.4,3.9c0.2,1.1,0.6,2,1,2.8
	c0.5,0.6,1,1.1,1.7,1.5c0.7,0.3,1.6,0.5,2.6,0.5c1.9,0,3.2-0.6,4.1-1.7c0.5-0.6,0.8-1.5,1.1-2.6c0.2-1.1,0.4-2.4,0.4-3.8
	c0-1.5-0.1-2.7-0.4-3.8c-0.2-1.1-0.6-2-1.1-2.7c-0.5-0.7-1-1.2-1.8-1.5c-0.7-0.3-1.5-0.5-2.5-0.5c-0.9,0-1.7,0.1-2.4,0.4
	c-0.7,0.3-1.2,0.7-1.7,1.3C408,307.1,407.5,309.1,407.5,312z"/>
<path class="st3" d="M504.6,305.3v15.5l2.2,0.6v1.1h-7v-1.1l2.2-0.6v-7.3h-8.9v7.3l2.2,0.6v1.1h-7v-1.1l2.2-0.6v-15.5l-2.2-0.6v-1.1
	h7v1.1l-2.2,0.6v6.7h8.9v-6.7l-2.2-0.6v-1.1h7v1.1L504.6,305.3z"/>
<path class="st5" d="M504.6,305.3v15.5l2.2,0.6v1.1h-7v-1.1l2.2-0.6v-7.3h-8.9v7.3l2.2,0.6v1.1h-7v-1.1l2.2-0.6v-15.5l-2.2-0.6v-1.1
	h7v1.1l-2.2,0.6v6.7h8.9v-6.7l-2.2-0.6v-1.1h7v1.1L504.6,305.3z"/>
<path class="st3" d="M248.6,304.1c-0.9,0-1.6,0.1-2.3,0.4c-0.6,0.3-1.1,0.7-1.6,1.3c-0.5,0.7-1,1.6-1.3,2.8
	c-0.3,1.1-0.5,2.4-0.5,3.8c0,1.3,0.1,2.5,0.4,3.6c0.3,1.1,0.6,2.1,1.1,2.8c0.5,0.8,1.1,1.3,1.7,1.7c0.7,0.3,1.6,0.5,2.6,0.5
	c3.2,0,5.1-1.5,5.6-4.6h1.5c-0.8,4.2-3.3,6.3-7.4,6.3c-2.5,0-4.4-0.7-5.9-2.2c-0.9-0.9-1.6-2-2-3.3c-0.5-1.3-0.7-2.8-0.7-4.4
	c0-1.8,0.3-3.5,0.9-4.9c0.6-1.5,1.4-2.7,2.5-3.5c1.4-1.1,3.2-1.7,5.4-1.7c1.1,0,2,0.1,2.7,0.4c0.7,0.3,1.4,0.8,2.1,1.5l0.5-1.7h1.5
	v6H254c-0.3-1.6-0.8-2.8-1.7-3.6C251.3,304.5,250.1,304.1,248.6,304.1z"/>
<path class="st5" d="M248.6,304.1c-0.9,0-1.6,0.1-2.3,0.4c-0.6,0.3-1.1,0.7-1.6,1.3c-0.5,0.7-1,1.6-1.3,2.8
	c-0.3,1.1-0.5,2.4-0.5,3.8c0,1.3,0.1,2.5,0.4,3.6c0.3,1.1,0.6,2.1,1.1,2.8c0.5,0.8,1.1,1.3,1.7,1.7c0.7,0.3,1.6,0.5,2.6,0.5
	c3.2,0,5.1-1.5,5.6-4.6h1.5c-0.8,4.2-3.3,6.3-7.4,6.3c-2.5,0-4.4-0.7-5.9-2.2c-0.9-0.9-1.6-2-2-3.3c-0.5-1.3-0.7-2.8-0.7-4.4
	c0-1.8,0.3-3.5,0.9-4.9c0.6-1.5,1.4-2.7,2.5-3.5c1.4-1.1,3.2-1.7,5.4-1.7c1.1,0,2,0.1,2.7,0.4c0.7,0.3,1.4,0.8,2.1,1.5l0.5-1.7h1.5
	v6H254c-0.3-1.6-0.8-2.8-1.7-3.6C251.3,304.5,250.1,304.1,248.6,304.1z"/>
<path class="st3" d="M330.6,304.1c-0.9,0-1.6,0.1-2.3,0.4c-0.6,0.3-1.1,0.7-1.6,1.3c-0.5,0.7-1,1.6-1.3,2.8
	c-0.3,1.1-0.5,2.4-0.5,3.8c0,1.3,0.1,2.5,0.4,3.6c0.3,1.1,0.6,2.1,1.1,2.8c0.5,0.8,1.1,1.3,1.7,1.7c0.7,0.3,1.6,0.5,2.6,0.5
	c3.2,0,5.1-1.5,5.6-4.6h1.5c-0.8,4.2-3.3,6.3-7.4,6.3c-2.5,0-4.4-0.7-5.9-2.2c-0.9-0.9-1.6-2-2-3.3c-0.5-1.3-0.7-2.8-0.7-4.4
	c0-1.8,0.3-3.5,0.9-4.9c0.6-1.5,1.4-2.7,2.5-3.5c1.4-1.1,3.2-1.7,5.4-1.7c1.1,0,2,0.1,2.7,0.4c0.7,0.3,1.4,0.8,2.1,1.5l0.5-1.7h1.5
	v6H336c-0.3-1.6-0.8-2.8-1.7-3.6C333.3,304.5,332.1,304.1,330.6,304.1z"/>
<path class="st5" d="M330.6,304.1c-0.9,0-1.6,0.1-2.3,0.4c-0.6,0.3-1.1,0.7-1.6,1.3c-0.5,0.7-1,1.6-1.3,2.8
	c-0.3,1.1-0.5,2.4-0.5,3.8c0,1.3,0.1,2.5,0.4,3.6c0.3,1.1,0.6,2.1,1.1,2.8c0.5,0.8,1.1,1.3,1.7,1.7c0.7,0.3,1.6,0.5,2.6,0.5
	c3.2,0,5.1-1.5,5.6-4.6h1.5c-0.8,4.2-3.3,6.3-7.4,6.3c-2.5,0-4.4-0.7-5.9-2.2c-0.9-0.9-1.6-2-2-3.3c-0.5-1.3-0.7-2.8-0.7-4.4
	c0-1.8,0.3-3.5,0.9-4.9c0.6-1.5,1.4-2.7,2.5-3.5c1.4-1.1,3.2-1.7,5.4-1.7c1.1,0,2,0.1,2.7,0.4c0.7,0.3,1.4,0.8,2.1,1.5l0.5-1.7h1.5
	v6H336c-0.3-1.6-0.8-2.8-1.7-3.6C333.3,304.5,332.1,304.1,330.6,304.1z"/>
<path class="st3" d="M171.3,305.3v15.5l2.2,0.6v1.1h-7v-1.1l2.2-0.6v-7.3h-8.9v7.3l2.2,0.6v1.1h-7v-1.1l2.2-0.6v-15.5l-2.2-0.6v-1.1
	h7v1.1l-2.2,0.6v6.7h8.9v-6.7l-2.2-0.6v-1.1h7v1.1L171.3,305.3z"/>
<path class="st5" d="M171.3,305.3v15.5l2.2,0.6v1.1h-7v-1.1l2.2-0.6v-7.3h-8.9v7.3l2.2,0.6v1.1h-7v-1.1l2.2-0.6v-15.5l-2.2-0.6v-1.1
	h7v1.1l-2.2,0.6v6.7h8.9v-6.7l-2.2-0.6v-1.1h7v1.1L171.3,305.3z"/>
<path class="st3" d="M254.3,218.3v7.8v7.8l2.2,0.6v1.1h-7v-1.1l2.2-0.6v-7.3h-8.9v7.3l2.2,0.6v1.1h-7v-1.1l2.2-0.6v-15.5l-2.2-0.6
	v-1.1h7v1.1l-2.2,0.6v6.7h8.9v-6.7l-2.2-0.6v-1.1h7v1.1L254.3,218.3z"/>
<path class="st5" d="M254.3,218.3v7.8v7.8l2.2,0.6v1.1h-7v-1.1l2.2-0.6v-7.3h-8.9v7.3l2.2,0.6v1.1h-7v-1.1l2.2-0.6v-15.5l-2.2-0.6
	v-1.1h7v1.1l-2.2,0.6v6.7h8.9v-6.7l-2.2-0.6v-1.1h7v1.1L254.3,218.3z"/>
<path class="st3" d="M253.3,391.3v7.8v7.8l2.2,0.6v1.1h-7v-1.1l2.2-0.6v-7.3h-8.9v7.3l2.2,0.6v1.1h-7v-1.1l2.2-0.6v-15.5l-2.2-0.6
	v-1.1h7v1.1l-2.2,0.6v6.7h8.9v-6.7l-2.2-0.6v-1.1h7v1.1L253.3,391.3z"/>
<path class="st5" d="M253.3,391.3v7.8v7.8l2.2,0.6v1.1h-7v-1.1l2.2-0.6v-7.3h-8.9v7.3l2.2,0.6v1.1h-7v-1.1l2.2-0.6v-15.5l-2.2-0.6
	v-1.1h7v1.1l-2.2,0.6v6.7h8.9v-6.7l-2.2-0.6v-1.1h7v1.1L253.3,391.3z"/>
<path class="st3" d="M335.3,391.3v7.8v7.8l2.2,0.6v1.1h-7v-1.1l2.2-0.6v-7.3h-8.9v7.3l2.2,0.6v1.1h-7v-1.1l2.2-0.6v-15.5l-2.2-0.6
	v-1.1h7v1.1l-2.2,0.6v6.7h8.9v-6.7l-2.2-0.6v-1.1h7v1.1L335.3,391.3z"/>
<path class="st5" d="M335.3,391.3v7.8v7.8l2.2,0.6v1.1h-7v-1.1l2.2-0.6v-7.3h-8.9v7.3l2.2,0.6v1.1h-7v-1.1l2.2-0.6v-15.5l-2.2-0.6
	v-1.1h7v1.1l-2.2,0.6v6.7h8.9v-6.7l-2.2-0.6v-1.1h7v1.1L335.3,391.3z"/>
<path class="st3" d="M336.3,218.3v7.8v7.8l2.2,0.6v1.1h-7v-1.1l2.2-0.6v-7.3h-8.9v7.3l2.2,0.6v1.1h-7v-1.1l2.2-0.6v-15.5l-2.2-0.6
	v-1.1h7v1.1l-2.2,0.6v6.7h8.9v-6.7l-2.2-0.6v-1.1h7v1.1L336.3,218.3z"/>
<path class="st5" d="M336.3,218.3v7.8v7.8l2.2,0.6v1.1h-7v-1.1l2.2-0.6v-7.3h-8.9v7.3l2.2,0.6v1.1h-7v-1.1l2.2-0.6v-15.5l-2.2-0.6
	v-1.1h7v1.1l-2.2,0.6v6.7h8.9v-6.7l-2.2-0.6v-1.1h7v1.1L336.3,218.3z"/>
<line class="st6" x1="247.5" y1="365.2" x2="247.5" y2="346.6"/>
<line class="st6" x1="329.5" y1="365.2" x2="329.5" y2="346.6"/>
<line class="st6" x1="247.5" y1="259.6" x2="247.5" y2="278.6"/>
<line class="st6" x1="329.5" y1="259.6" x2="329.5" y2="278.6"/>
<line class="st6" x1="197.5" y1="311.1" x2="216.1" y2="311.1"/>
<line class="st6" x1="279.7" y1="311.1" x2="298.3" y2="311.1"/>
<line class="st6" x1="361.9" y1="311.1" x2="380.5" y2="311.1"/>
<line class="st6" x1="445.7" y1="311.1" x2="464.3" y2="311.1"/>
<path class="st3" d="M574.2,828.9c0,1.4,0.1,2.7,0.4,3.8c0.3,1.2,0.7,2.2,1.2,3.1c0.5,0.9,1.1,1.6,1.8,2.2c0.7,0.6,1.5,0.9,2.3,1.1
	l0.5-1.1c-0.8-0.2-1.6-0.7-2.2-1.5c-0.6-0.8-1.1-1.9-1.5-3.2c-0.3-1.3-0.5-2.8-0.5-4.5c0-1.7,0.2-3.2,0.5-4.5
	c0.4-1.3,0.9-2.4,1.5-3.3c0.7-0.8,1.4-1.4,2.3-1.6l-0.4-1c-0.9,0.2-1.7,0.6-2.4,1.2c-0.7,0.6-1.3,1.4-1.9,2.3
	c-0.5,0.9-0.9,1.9-1.2,3.1C574.4,826.4,574.2,827.6,574.2,828.9z M584.8,838.4l1.9,0.4v0.8h-5.4v-0.8l1.5-0.4v-12l-1.5-0.4v-0.8h2.9
	l0.3,1.5c0.4-0.7,0.9-1.1,1.4-1.4c0.5-0.3,1.2-0.4,1.8-0.4s1.3,0.1,1.8,0.3c0.6,0.2,1,0.5,1.4,1c0.4,0.5,0.7,1.1,0.9,1.8
	c0.2,0.7,0.4,1.5,0.4,2.3c0,0.9-0.1,1.7-0.4,2.4c-0.3,0.7-0.6,1.4-1,1.9c-0.7,0.9-1.8,1.3-3.2,1.3c-0.6,0-1.1-0.1-1.6-0.3
	c-0.5-0.2-0.9-0.6-1.3-1.2V838.4z M584.7,830.4c0,0.8,0.1,1.5,0.2,2.1c0.1,0.6,0.3,1.1,0.5,1.4c0.2,0.3,0.5,0.6,0.8,0.8
	c0.3,0.2,0.7,0.3,1.2,0.3c0.5,0,0.8-0.1,1.2-0.2c0.3-0.2,0.6-0.4,0.8-0.7c0.2-0.3,0.4-0.8,0.5-1.4c0.1-0.6,0.2-1.3,0.2-2.1
	c0-0.8-0.1-1.5-0.2-2c-0.1-0.6-0.3-1-0.5-1.4c-0.2-0.3-0.5-0.6-0.8-0.8c-0.3-0.2-0.7-0.3-1.2-0.3c-0.5,0-0.9,0.1-1.2,0.2
	c-0.3,0.1-0.6,0.4-0.8,0.7c-0.2,0.4-0.4,0.8-0.5,1.4C584.8,828.9,584.7,829.6,584.7,830.4z M597.1,838.4l1.9,0.4v0.8h-5.4v-0.8
	l1.5-0.4v-12l-1.5-0.4v-0.8h2.9l0.3,1.5c0.4-0.7,0.9-1.1,1.4-1.4c0.5-0.3,1.2-0.4,1.8-0.4c0.7,0,1.3,0.1,1.8,0.3
	c0.6,0.2,1,0.5,1.4,1c0.4,0.5,0.7,1.1,0.9,1.8c0.2,0.7,0.4,1.5,0.4,2.3c0,0.9-0.1,1.7-0.4,2.4c-0.3,0.7-0.6,1.4-1,1.9
	c-0.7,0.9-1.8,1.3-3.2,1.3c-0.6,0-1.1-0.1-1.6-0.3c-0.5-0.2-0.9-0.6-1.3-1.2V838.4z M597.1,830.4c0,0.8,0.1,1.5,0.2,2.1
	c0.1,0.6,0.3,1.1,0.5,1.4c0.2,0.3,0.5,0.6,0.8,0.8c0.3,0.2,0.7,0.3,1.2,0.3c0.5,0,0.8-0.1,1.2-0.2c0.3-0.2,0.6-0.4,0.8-0.7
	c0.2-0.3,0.4-0.8,0.5-1.4c0.1-0.6,0.2-1.3,0.2-2.1c0-0.8-0.1-1.5-0.2-2c-0.1-0.6-0.3-1-0.5-1.4c-0.2-0.3-0.5-0.6-0.8-0.8
	c-0.3-0.2-0.7-0.3-1.2-0.3c-0.5,0-0.9,0.1-1.2,0.2c-0.3,0.1-0.6,0.4-0.8,0.7c-0.2,0.4-0.4,0.8-0.5,1.4
	C597.2,828.9,597.1,829.6,597.1,830.4z M607.8,834.8v-8.4l-1.5-0.4v-0.8h2.9l0.4,2h0.1c0.4-0.7,0.9-1.2,1.5-1.6
	c0.7-0.4,1.3-0.6,2.1-0.6c0.5,0,1,0.1,1.5,0.3c0.4,0.2,0.7,0.5,0.9,0.8c0.2,0.3,0.4,0.8,0.5,1.3c0.4-0.7,1-1.3,1.7-1.8
	c0.7-0.4,1.4-0.6,2.2-0.6c0.5,0,1,0.1,1.4,0.3c0.4,0.2,0.8,0.5,1,0.8c0.2,0.3,0.3,0.6,0.4,1c0.1,0.4,0.2,0.9,0.2,1.6
	c0,0.6,0.1,1.4,0.1,2.4v3.7l1.5,0.4v0.8h-4.8v-0.8l1.3-0.4v-4.5c0-0.9,0-1.5-0.1-1.9c0-0.4-0.1-0.8-0.2-1c-0.2-0.3-0.4-0.6-0.7-0.7
	c-0.3-0.2-0.6-0.3-1-0.3c-0.3,0-0.7,0.1-1,0.2c-0.3,0.1-0.6,0.3-0.9,0.5c-0.3,0.3-0.5,0.6-0.7,0.9c-0.1,0.4-0.2,0.8-0.2,1.4v5.3
	l1.3,0.4v0.8h-4.6v-0.8l1.3-0.4v-4.5c0-0.9,0-1.5-0.1-1.9c0-0.4-0.1-0.8-0.2-1c-0.2-0.3-0.4-0.6-0.7-0.7c-0.3-0.2-0.6-0.3-1-0.3
	c-0.3,0-0.7,0.1-1,0.2c-0.3,0.1-0.6,0.3-0.9,0.5c-0.3,0.3-0.5,0.6-0.7,0.9c-0.1,0.4-0.2,0.8-0.2,1.4v5.3l1.3,0.4v0.8h-4.8v-0.8
	L607.8,834.8z M631,828.9c0-1.3-0.1-2.5-0.4-3.7c-0.3-1.1-0.7-2.2-1.2-3.1c-0.5-0.9-1.1-1.7-1.9-2.3c-0.7-0.6-1.5-1-2.4-1.2l-0.4,1
	c0.9,0.2,1.6,0.7,2.3,1.6c0.6,0.8,1.1,1.9,1.5,3.3c0.4,1.3,0.5,2.8,0.5,4.5c0,1.7-0.2,3.2-0.5,4.5c-0.3,1.3-0.8,2.4-1.5,3.2
	c-0.6,0.8-1.4,1.3-2.2,1.5l0.5,1.1c0.8-0.2,1.6-0.5,2.3-1.1c0.7-0.6,1.3-1.3,1.8-2.2c0.5-0.9,0.9-1.9,1.2-3.1
	C630.9,831.6,631,830.3,631,828.9z"/>
<path class="st3" d="M546.8,824.8c0-0.8,0.3-1.5,1-2c0.7-0.5,1.6-0.8,2.7-0.8c0.5,0,1,0,1.4,0.1c0.4,0.1,0.8,0.2,1.3,0.4v1.7
	c-0.3-0.1-0.7-0.2-1.2-0.4c-0.5-0.1-1-0.2-1.5-0.2c-0.6,0-1,0.1-1.3,0.3c-0.3,0.2-0.5,0.5-0.5,0.8c0,0.2,0.1,0.4,0.2,0.6
	c0.1,0.2,0.3,0.4,0.6,0.6c0.3,0.2,0.8,0.4,1.4,0.6c1.4,0.5,2.5,1.2,3.1,2.1c0.7,0.9,1,2,1,3.3v0.2c0,1-0.2,1.9-0.6,2.6
	c-0.4,0.8-0.9,1.4-1.6,1.9c-0.7,0.5-1.5,0.7-2.5,0.7c-1,0-1.9-0.2-2.6-0.7c-0.7-0.5-1.2-1.1-1.6-1.9c-0.4-0.8-0.6-1.7-0.6-2.6V832
	c0-0.8,0.1-1.5,0.4-2.1c0.3-0.6,0.7-1.2,1.2-1.6c0.5-0.4,1-0.7,1.6-0.9v-0.1c-0.6-0.2-1.1-0.6-1.5-1.1
	C547,826,546.8,825.4,546.8,824.8z M547.6,832v0.2c0,0.7,0.1,1.3,0.3,1.8c0.2,0.5,0.5,1,0.9,1.3c0.4,0.3,0.9,0.5,1.6,0.5
	c0.6,0,1.2-0.2,1.6-0.5c0.4-0.3,0.7-0.8,0.9-1.3c0.2-0.5,0.3-1.2,0.3-1.8V832c0-0.5-0.1-1.1-0.3-1.6c-0.2-0.5-0.5-1-1-1.3
	c-0.4-0.4-0.9-0.6-1.5-0.7c-0.6,0-1.2,0.2-1.6,0.5c-0.4,0.3-0.7,0.8-0.9,1.3C547.7,830.8,547.6,831.4,547.6,832z"/>
</svg>
