<svg width="1122" height="901" viewBox="0 0 1122 901" fill="none" xmlns="http://www.w3.org/2000/svg">
<rect width="1122" height="900" transform="translate(0 0.5)" fill="#0C0C31"/>
<path d="M94.44 81.74H93.42L93.06 79.7H89.74L89.74 85.3H95.78L96.4 82.04H97.56L97.56 86.5H85.86L85.86 85.64L87.74 85.22L87.74 73.38L85.86 72.96L85.86 72.1H97.12L97.12 76.34H96.08L95.44 73.26H89.74L89.74 78.5H93.06L93.42 76.46H94.44L94.44 81.74ZM98.8714 76.7L98.8714 75.98L100.811 75.7L101.071 73.18L102.751 72.94L102.751 75.7H105.311L105.311 76.7H102.751L102.751 83.84C102.751 84.2933 102.758 84.6067 102.771 84.78C102.785 84.94 102.811 85.0733 102.851 85.18C102.891 85.2733 102.965 85.34 103.071 85.38C103.178 85.4067 103.351 85.42 103.591 85.42H104.991L104.991 86C104.351 86.24 103.785 86.4133 103.291 86.52C102.811 86.64 102.425 86.7 102.131 86.7C101.531 86.7 101.145 86.4533 100.971 85.96C100.918 85.8 100.878 85.5933 100.851 85.34C100.825 85.0867 100.811 84.7133 100.811 84.22L100.811 76.7H98.8714ZM114.468 85.3L114.468 80.84C114.468 79.9733 114.441 79.3267 114.388 78.9C114.348 78.4733 114.268 78.14 114.148 77.9C113.828 77.2467 113.241 76.92 112.388 76.92C112.014 76.92 111.654 76.9867 111.308 77.12C110.961 77.2533 110.654 77.4333 110.388 77.66C110.094 77.9133 109.874 78.22 109.728 78.58C109.594 78.9267 109.514 79.36 109.488 79.88L109.488 85.3L110.828 85.68L110.828 86.5H106.008L106.008 85.68L107.548 85.3L107.548 72.1L106.008 71.72L106.008 70.9H109.488L109.488 77.58C109.888 76.94 110.414 76.4333 111.068 76.06C111.734 75.6867 112.448 75.5 113.208 75.5C113.741 75.5 114.221 75.5933 114.648 75.78C115.074 75.9667 115.414 76.2333 115.668 76.58C115.934 76.9533 116.121 77.48 116.228 78.16C116.348 78.8267 116.408 79.7333 116.408 80.88L116.408 85.3L117.948 85.68L117.948 86.5H113.128L113.128 85.68L114.468 85.3ZM119.139 84.16C119.139 83.12 119.626 82.3 120.599 81.7C121.572 81.1 123.186 80.6333 125.439 80.3C125.386 79.5133 125.312 78.9 125.219 78.46C125.126 78.02 125.006 77.6667 124.859 77.4C124.672 77.0533 124.412 76.8 124.079 76.64C123.746 76.4667 123.386 76.38 122.999 76.38C122.626 76.38 122.286 76.4467 121.979 76.58C121.686 76.7133 121.486 76.8933 121.379 77.12C121.566 77.2533 121.699 77.4267 121.779 77.64C121.872 77.8533 121.919 78.0533 121.919 78.24C121.919 78.5733 121.806 78.84 121.579 79.04C121.366 79.2267 121.099 79.32 120.779 79.32C120.459 79.32 120.192 79.2133 119.979 79C119.779 78.7867 119.679 78.4867 119.679 78.1C119.679 77.54 119.872 77.0667 120.259 76.68C120.646 76.2933 121.132 76 121.719 75.8C122.319 75.6 122.919 75.5 123.519 75.5C124.066 75.5 124.566 75.5867 125.019 75.76C125.486 75.92 125.879 76.16 126.199 76.48C127.026 77.3067 127.439 78.7733 127.439 80.88L127.439 83.78C127.439 84.4333 127.479 84.8867 127.559 85.14C127.652 85.3933 127.846 85.52 128.139 85.52H129.039L129.039 86.12C128.079 86.5067 127.332 86.7 126.799 86.7C126.386 86.7 126.106 86.5533 125.959 86.26C125.826 85.9533 125.759 85.3733 125.759 84.52H125.679C125.266 85.2 124.719 85.7333 124.039 86.12C123.359 86.5067 122.626 86.7 121.839 86.7C120.999 86.7 120.339 86.4733 119.859 86.02C119.379 85.5667 119.139 84.9467 119.139 84.16ZM122.679 85.54C123.052 85.54 123.439 85.4467 123.839 85.26C124.252 85.06 124.599 84.7867 124.879 84.44C125.092 84.1733 125.246 83.86 125.339 83.5C125.446 83.1267 125.499 82.6933 125.499 82.2C125.499 81.9733 125.492 81.7533 125.479 81.54C125.466 81.3133 125.446 81.1 125.419 80.9C124.339 81.1133 123.492 81.3467 122.879 81.6C122.266 81.84 121.832 82.1333 121.579 82.48C121.326 82.8133 121.199 83.2333 121.199 83.74C121.199 84.3133 121.326 84.76 121.579 85.08C121.846 85.3867 122.212 85.54 122.679 85.54ZM131.381 85.3L131.381 76.9L129.841 76.52L129.841 75.7H132.721L133.161 77.7H133.241C133.641 77.02 134.181 76.4867 134.861 76.1C135.541 75.7 136.268 75.5 137.041 75.5C138.148 75.5 138.968 75.86 139.501 76.58C139.768 76.9533 139.954 77.48 140.061 78.16C140.181 78.8267 140.241 79.7333 140.241 80.88L140.241 85.3L141.781 85.68L141.781 86.5L136.961 86.5L136.961 85.68L138.301 85.3L138.301 80.84C138.301 79.9733 138.274 79.3267 138.221 78.9C138.181 78.4733 138.101 78.14 137.981 77.9C137.821 77.58 137.588 77.34 137.281 77.18C136.988 77.0067 136.634 76.92 136.221 76.92C135.448 76.92 134.781 77.1667 134.221 77.66C133.674 78.1533 133.374 78.92 133.321 79.96L133.321 85.3L134.661 85.68L134.661 86.5H129.841L129.841 85.68L131.381 85.3ZM152.947 81C152.947 81.8667 152.813 82.6933 152.547 83.48C152.293 84.2533 151.933 84.8933 151.467 85.4C151.067 85.84 150.573 86.1667 149.987 86.38C149.4 86.5933 148.733 86.7 147.987 86.7C147.253 86.7 146.6 86.6 146.027 86.4C145.453 86.1867 144.967 85.8667 144.567 85.44C144.113 84.9467 143.76 84.34 143.507 83.62C143.267 82.8867 143.147 82.0933 143.147 81.24C143.147 80.3733 143.273 79.5467 143.527 78.76C143.78 77.96 144.147 77.3067 144.627 76.8C145.053 76.3467 145.547 76.02 146.107 75.82C146.68 75.6067 147.333 75.5 148.067 75.5C148.8 75.5 149.46 75.6067 150.047 75.82C150.633 76.02 151.127 76.3333 151.527 76.76C151.993 77.2533 152.347 77.8733 152.587 78.62C152.827 79.3533 152.947 80.1467 152.947 81ZM145.287 81.02C145.287 81.8333 145.347 82.54 145.467 83.14C145.6 83.7267 145.78 84.2133 146.007 84.6C146.233 84.9333 146.5 85.1933 146.807 85.38C147.127 85.5667 147.54 85.66 148.047 85.66C148.967 85.66 149.653 85.3467 150.107 84.72C150.347 84.3733 150.52 83.8933 150.627 83.28C150.747 82.6667 150.807 81.96 150.807 81.16C150.807 80.36 150.74 79.66 150.607 79.06C150.487 78.46 150.313 77.9733 150.087 77.6C149.873 77.2533 149.6 76.9933 149.267 76.82C148.947 76.6333 148.533 76.54 148.027 76.54C147.093 76.54 146.42 76.8467 146.007 77.46C145.527 78.2067 145.287 79.3933 145.287 81.02ZM155.967 85.3L155.967 72.1L154.427 71.72L154.427 70.9H157.907L157.907 85.3L159.447 85.68L159.447 86.5H154.427L154.427 85.68L155.967 85.3Z" fill="white"/>
<path d="M421.733 311.988C421.733 313.509 421.497 314.941 421.025 316.287C420.571 317.615 419.933 318.725 419.112 319.616C418.396 320.385 417.531 320.961 416.517 321.346C415.521 321.713 414.368 321.896 413.057 321.896C411.729 321.896 410.559 321.713 409.545 321.346C408.532 320.979 407.684 320.428 407.003 319.694C406.199 318.856 405.578 317.807 405.142 316.549C404.705 315.273 404.486 313.893 404.486 312.408C404.486 310.888 404.713 309.463 405.168 308.135C405.64 306.79 406.286 305.672 407.107 304.78C407.841 303.994 408.689 303.417 409.65 303.05C410.628 302.683 411.782 302.5 413.11 302.5C414.438 302.5 415.6 302.683 416.596 303.05C417.609 303.4 418.474 303.95 419.191 304.702C420.012 305.54 420.641 306.598 421.078 307.873C421.515 309.149 421.733 310.521 421.733 311.988ZM407.501 311.884C407.501 313.334 407.623 314.627 407.868 315.763C408.112 316.881 408.462 317.798 408.916 318.515C409.37 319.161 409.938 319.651 410.62 319.983C411.319 320.297 412.175 320.455 413.188 320.455C415.041 320.455 416.404 319.878 417.277 318.725C417.749 318.078 418.107 317.222 418.352 316.156C418.597 315.073 418.719 313.806 418.719 312.355C418.719 310.905 418.597 309.629 418.352 308.529C418.107 307.428 417.749 306.536 417.277 305.855C416.823 305.191 416.238 304.702 415.521 304.387C414.822 304.073 413.992 303.915 413.031 303.915C412.105 303.915 411.301 304.064 410.62 304.361C409.956 304.641 409.397 305.069 408.942 305.645C407.981 306.921 407.501 309 407.501 311.884Z" fill="white"/>
<path d="M421.733 311.988C421.733 313.509 421.497 314.941 421.025 316.287C420.571 317.615 419.933 318.725 419.112 319.616C418.396 320.385 417.531 320.961 416.517 321.346C415.521 321.713 414.368 321.896 413.057 321.896C411.729 321.896 410.559 321.713 409.545 321.346C408.532 320.979 407.684 320.428 407.003 319.694C406.199 318.856 405.578 317.807 405.142 316.549C404.705 315.273 404.486 313.893 404.486 312.408C404.486 310.888 404.713 309.463 405.168 308.135C405.64 306.79 406.286 305.672 407.107 304.78C407.841 303.994 408.689 303.417 409.65 303.05C410.628 302.683 411.782 302.5 413.11 302.5C414.438 302.5 415.6 302.683 416.596 303.05C417.609 303.4 418.474 303.95 419.191 304.702C420.012 305.54 420.641 306.598 421.078 307.873C421.515 309.149 421.733 310.521 421.733 311.988ZM407.501 311.884C407.501 313.334 407.623 314.627 407.868 315.763C408.112 316.881 408.462 317.798 408.916 318.515C409.37 319.161 409.938 319.651 410.62 319.983C411.319 320.297 412.175 320.455 413.188 320.455C415.041 320.455 416.404 319.878 417.277 318.725C417.749 318.078 418.107 317.222 418.352 316.156C418.597 315.073 418.719 313.806 418.719 312.355C418.719 310.905 418.597 309.629 418.352 308.529C418.107 307.428 417.749 306.536 417.277 305.855C416.823 305.191 416.238 304.702 415.521 304.387C414.822 304.073 413.992 303.915 413.031 303.915C412.105 303.915 411.301 304.064 410.62 304.361C409.956 304.641 409.397 305.069 408.942 305.645C407.981 306.921 407.501 309 407.501 311.884Z" stroke="black"/>
<path d="M504.65 304.178V319.694L506.851 320.245V321.372H499.827V320.245L502.029 319.694V312.434H493.143V319.694L495.345 320.245V321.372H488.32V320.245L490.522 319.694V304.178L488.32 303.627V302.5H495.345V303.627L493.143 304.178V310.914H502.029V304.178L499.827 303.627V302.5H506.851V303.627L504.65 304.178Z" fill="white"/>
<path d="M504.65 304.178V319.694L506.851 320.245V321.372H499.827V320.245L502.029 319.694V312.434H493.143V319.694L495.345 320.245V321.372H488.32V320.245L490.522 319.694V304.178L488.32 303.627V302.5H495.345V303.627L493.143 304.178V310.914H502.029V304.178L499.827 303.627V302.5H506.851V303.627L504.65 304.178Z" stroke="black"/>
<path d="M248.551 303.959C247.673 303.959 246.92 304.095 246.292 304.365C245.683 304.635 245.163 305.059 244.733 305.635C244.195 306.338 243.774 307.266 243.469 308.419C243.164 309.554 243.012 310.806 243.012 312.176C243.012 313.455 243.146 314.653 243.415 315.77C243.684 316.887 244.061 317.824 244.545 318.581C245.029 319.338 245.611 319.896 246.292 320.257C246.992 320.599 247.861 320.77 248.901 320.77C252.128 320.77 254.001 319.248 254.521 316.203H256C255.193 320.401 252.737 322.5 248.632 322.5C246.158 322.5 244.186 321.779 242.716 320.338C241.838 319.473 241.165 318.383 240.699 317.068C240.233 315.752 240 314.293 240 312.689C240 310.869 240.296 309.221 240.887 307.743C241.479 306.266 242.313 305.086 243.388 304.203C244.751 303.068 246.552 302.5 248.793 302.5C249.905 302.5 250.81 302.644 251.509 302.932C252.208 303.221 252.899 303.734 253.58 304.473L254.118 302.77H255.597V308.743H253.956C253.705 307.158 253.123 305.968 252.208 305.176C251.312 304.365 250.093 303.959 248.551 303.959Z" fill="white"/>
<path d="M248.551 303.959C247.673 303.959 246.92 304.095 246.292 304.365C245.683 304.635 245.163 305.059 244.733 305.635C244.195 306.338 243.774 307.266 243.469 308.419C243.164 309.554 243.012 310.806 243.012 312.176C243.012 313.455 243.146 314.653 243.415 315.77C243.684 316.887 244.061 317.824 244.545 318.581C245.029 319.338 245.611 319.896 246.292 320.257C246.992 320.599 247.861 320.77 248.901 320.77C252.128 320.77 254.001 319.248 254.521 316.203H256C255.193 320.401 252.737 322.5 248.632 322.5C246.158 322.5 244.186 321.779 242.716 320.338C241.838 319.473 241.165 318.383 240.699 317.068C240.233 315.752 240 314.293 240 312.689C240 310.869 240.296 309.221 240.887 307.743C241.479 306.266 242.313 305.086 243.388 304.203C244.751 303.068 246.552 302.5 248.793 302.5C249.905 302.5 250.81 302.644 251.509 302.932C252.208 303.221 252.899 303.734 253.58 304.473L254.118 302.77H255.597V308.743H253.956C253.705 307.158 253.123 305.968 252.208 305.176C251.312 304.365 250.093 303.959 248.551 303.959Z" stroke="black"/>
<path d="M330.551 303.959C329.673 303.959 328.92 304.095 328.292 304.365C327.683 304.635 327.163 305.059 326.733 305.635C326.195 306.338 325.774 307.266 325.469 308.419C325.164 309.554 325.012 310.806 325.012 312.176C325.012 313.455 325.146 314.653 325.415 315.77C325.684 316.887 326.061 317.824 326.545 318.581C327.029 319.338 327.611 319.896 328.292 320.257C328.992 320.599 329.861 320.77 330.901 320.77C334.128 320.77 336.001 319.248 336.521 316.203H338C337.193 320.401 334.737 322.5 330.632 322.5C328.158 322.5 326.186 321.779 324.716 320.338C323.838 319.473 323.165 318.383 322.699 317.068C322.233 315.752 322 314.293 322 312.689C322 310.869 322.296 309.221 322.887 307.743C323.479 306.266 324.313 305.086 325.388 304.203C326.751 303.068 328.552 302.5 330.793 302.5C331.905 302.5 332.81 302.644 333.509 302.932C334.208 303.221 334.899 303.734 335.58 304.473L336.118 302.77H337.597V308.743H335.956C335.705 307.158 335.123 305.968 334.208 305.176C333.312 304.365 332.093 303.959 330.551 303.959Z" fill="#C726AD"/>
<path d="M330.551 303.959C329.673 303.959 328.92 304.095 328.292 304.365C327.683 304.635 327.163 305.059 326.733 305.635C326.195 306.338 325.774 307.266 325.469 308.419C325.164 309.554 325.012 310.806 325.012 312.176C325.012 313.455 325.146 314.653 325.415 315.77C325.684 316.887 326.061 317.824 326.545 318.581C327.029 319.338 327.611 319.896 328.292 320.257C328.992 320.599 329.861 320.77 330.901 320.77C334.128 320.77 336.001 319.248 336.521 316.203H338C337.193 320.401 334.737 322.5 330.632 322.5C328.158 322.5 326.186 321.779 324.716 320.338C323.838 319.473 323.165 318.383 322.699 317.068C322.233 315.752 322 314.293 322 312.689C322 310.869 322.296 309.221 322.887 307.743C323.479 306.266 324.313 305.086 325.388 304.203C326.751 303.068 328.552 302.5 330.793 302.5C331.905 302.5 332.81 302.644 333.509 302.932C334.208 303.221 334.899 303.734 335.58 304.473L336.118 302.77H337.597V308.743H335.956C335.705 307.158 335.123 305.968 334.208 305.176C333.312 304.365 332.093 303.959 330.551 303.959Z" stroke="black"/>
<path d="M252.861 391.189V406.811L255 407.365V408.5H248.177V407.365L250.315 406.811V399.501H241.685V406.811L243.823 407.365V408.5H237V407.365L239.139 406.811V391.189L237 390.635V389.5H243.823V390.635L241.685 391.189V397.971H250.315V391.189L248.177 390.635V389.5H255V390.635L252.861 391.189Z" fill="white"/>
<path d="M252.861 391.189V406.811L255 407.365V408.5H248.177V407.365L250.315 406.811V399.501H241.685V406.811L243.823 407.365V408.5H237V407.365L239.139 406.811V391.189L237 390.635V389.5H243.823V390.635L241.685 391.189V397.971H250.315V391.189L248.177 390.635V389.5H255V390.635L252.861 391.189Z" stroke="black"/>
<path d="M334.861 391.189V406.811L337 407.365V408.5H330.177V407.365L332.315 406.811V399.501H323.685V406.811L325.823 407.365V408.5H319V407.365L321.139 406.811V391.189L319 390.635V389.5H325.823V390.635L323.685 391.189V397.971H332.315V391.189L330.177 390.635V389.5H337V390.635L334.861 391.189Z" fill="#C726AD"/>
<path d="M334.861 391.189V406.811L337 407.365V408.5H330.177V407.365L332.315 406.811V399.501H323.685V406.811L325.823 407.365V408.5H319V407.365L321.139 406.811V391.189L319 390.635V389.5H325.823V390.635L323.685 391.189V397.971H332.315V391.189L330.177 390.635V389.5H337V390.635L334.861 391.189Z" stroke="black"/>
<path d="M171.329 304.178V319.694L173.531 320.245V321.372H166.507V320.245L168.708 319.694V312.434H159.823V319.694L162.025 320.245V321.372H155V320.245L157.202 319.694V304.178L155 303.627V302.5H162.025V303.627L159.823 304.178V310.914H168.708V304.178L166.507 303.627V302.5H173.531V303.627L171.329 304.178Z" fill="white"/>
<path d="M171.329 304.178V319.694L173.531 320.245V321.372H166.507V320.245L168.708 319.694V312.434H159.823V319.694L162.025 320.245V321.372H155V320.245L157.202 319.694V304.178L155 303.627V302.5H162.025V303.627L159.823 304.178V310.914H168.708V304.178L166.507 303.627V302.5H173.531V303.627L171.329 304.178Z" stroke="black"/>
<path d="M254.329 218.178V225.936V233.694L256.531 234.245V235.372H249.507V234.245L251.708 233.694V226.434H242.823V233.694L245.025 234.245V235.372H238V234.245L240.202 233.694V218.178L238 217.627V216.5H245.025V217.627L242.823 218.178V224.914H251.708V218.178L249.507 217.627V216.5H256.531V217.627L254.329 218.178Z" fill="white"/>
<path d="M254.329 218.178V225.936V233.694L256.531 234.245V235.372H249.507V234.245L251.708 233.694V226.434H242.823V233.694L245.025 234.245V235.372H238V234.245L240.202 233.694V218.178L238 217.627V216.5H245.025V217.627L242.823 218.178V224.914H251.708V218.178L249.507 217.627V216.5H256.531V217.627L254.329 218.178Z" stroke="black"/>
<path d="M336.329 218.178V225.936V233.694L338.531 234.245V235.372H331.507V234.245L333.708 233.694V226.434H324.823V233.694L327.025 234.245V235.372H320V234.245L322.202 233.694V218.178L320 217.627V216.5H327.025V217.627L324.823 218.178V224.914H333.708V218.178L331.507 217.627V216.5H338.531V217.627L336.329 218.178Z" fill="#C726AD"/>
<path d="M336.329 218.178V225.936V233.694L338.531 234.245V235.372H331.507V234.245L333.708 233.694V226.434H324.823V233.694L327.025 234.245V235.372H320V234.245L322.202 233.694V218.178L320 217.627V216.5H327.025V217.627L324.823 218.178V224.914H333.708V218.178L331.507 217.627V216.5H338.531V217.627L336.329 218.178Z" stroke="black"/>
<line x1="247.5" y1="365.087" x2="247.5" y2="346.5" stroke="white" stroke-width="3"/>
<line x1="329.5" y1="365.087" x2="329.5" y2="346.5" stroke="#C726AD" stroke-width="3"/>
<line x1="247.5" y1="259.5" x2="247.5" y2="278.5" stroke="white" stroke-width="3"/>
<line x1="329.5" y1="259.5" x2="329.5" y2="278.5" stroke="#C726AD" stroke-width="3"/>
<line x1="197.531" y1="311" x2="216.118" y2="311" stroke="white" stroke-width="3"/>
<line x1="279.715" y1="311" x2="298.302" y2="311" stroke="white" stroke-width="3"/>
<line x1="361.898" y1="311" x2="380.485" y2="311" stroke="white" stroke-width="3"/>
<line x1="445.732" y1="311" x2="464.319" y2="311" stroke="white" stroke-width="3"/>
<path d="M671.063 169.908C669.619 169.908 668.38 170.131 667.348 170.577C666.346 171.023 665.491 171.722 664.783 172.673C663.899 173.833 663.206 175.364 662.705 177.266C662.204 179.139 661.953 181.206 661.953 183.465C661.953 185.576 662.174 187.553 662.616 189.397C663.059 191.24 663.678 192.786 664.474 194.034C665.27 195.283 666.228 196.205 667.348 196.799C668.498 197.364 669.928 197.647 671.638 197.647C676.945 197.647 680.026 195.135 680.881 190.11H683.313C681.987 197.037 677.948 200.501 671.196 200.501C667.127 200.501 663.884 199.312 661.467 196.933C660.022 195.506 658.916 193.707 658.15 191.537C657.383 189.367 657 186.959 657 184.313C657 181.31 657.486 178.589 658.459 176.152C659.432 173.714 660.803 171.766 662.572 170.31C664.813 168.437 667.776 167.5 671.461 167.5C673.289 167.5 674.778 167.738 675.928 168.214C677.078 168.689 678.213 169.537 679.333 170.755L680.218 167.946H682.65V177.802H679.952C679.54 175.185 678.581 173.223 677.078 171.915C675.604 170.577 673.599 169.908 671.063 169.908Z" fill="#C726AD"/>
<path d="M714.562 170.8V197.201L718.277 198.137V200.055H706.425V198.137L710.14 197.201V184.848H695.148V197.201L698.862 198.137V200.055H687.01V198.137L690.725 197.201V170.8L687.01 169.864V167.946H698.862V169.864L695.148 170.8V182.261H710.14V170.8L706.425 169.864V167.946H718.277V169.864L714.562 170.8Z" fill="#C726AD"/>
<path d="M724.678 197.914H730.383L730.869 195.595H732.107V200.055H722.511V198.717C722.511 197.885 722.746 197.141 723.218 196.487C723.69 195.803 724.28 195.164 724.987 194.57C725.695 193.975 726.402 193.395 727.11 192.83C727.818 192.236 728.407 191.611 728.879 190.957C729.351 190.303 729.586 189.575 729.586 188.772C729.586 188.148 729.351 187.672 728.879 187.345C728.407 186.988 727.744 186.81 726.889 186.81C726.358 186.81 725.901 186.869 725.518 186.988C725.135 187.107 724.81 187.286 724.545 187.523C724.309 187.761 724.147 188.059 724.058 188.415C724.471 188.415 724.796 188.519 725.031 188.728C725.267 188.936 725.385 189.233 725.385 189.619C725.385 190.006 725.267 190.318 725.031 190.556C724.825 190.764 724.515 190.868 724.103 190.868C723.631 190.868 723.277 190.734 723.041 190.467C722.835 190.199 722.732 189.783 722.732 189.218C722.732 188.059 723.144 187.137 723.97 186.453C724.825 185.74 725.931 185.383 727.287 185.383C728.673 185.383 729.793 185.74 730.648 186.453C731.503 187.137 731.93 188.074 731.93 189.263C731.93 190.214 731.68 191.047 731.179 191.76C730.707 192.444 730.102 193.053 729.365 193.589C728.658 194.124 727.935 194.614 727.198 195.06C726.491 195.506 725.886 195.952 725.385 196.398C724.913 196.844 724.678 197.349 724.678 197.914Z" fill="#C726AD"/>
<line x1="702.412" y1="228" x2="380" y2="228" stroke="#C726AD" stroke-width="3"/>
<path d="M701.939 312.561C702.525 313.146 703.475 313.146 704.061 312.561L713.607 303.015C714.192 302.429 714.192 301.479 713.607 300.893C713.021 300.308 712.071 300.308 711.485 300.893L703 309.379L694.515 300.893C693.929 300.308 692.979 300.308 692.393 300.893C691.808 301.479 691.808 302.429 692.393 303.015L701.939 312.561ZM701.5 226.5L701.5 311.5L704.5 311.5L704.5 226.5L701.5 226.5Z" fill="#C726AD"/>
<line x1="588.143" y1="681.696" x2="588.143" y2="703.967" stroke="white" stroke-width="2"/>
<g filter="url(#filter0_d_676_5009)">
<path d="M724.637 627.451L793.454 627.5H809.158L811.929 609.9V523.071L813.776 517.991V475.5V512.91L815.624 510.601L817.009 627.5H824.399H828.556H896.912M145 627.5L682.608 627.451M945.407 627.5H984.204H1023" stroke="#C3FA50" stroke-width="3"/>
</g>
<path d="M897 628L904.538 599.848V379.082L906.846 608.322L910.077 610.552L913.308 625.27H917.923V610.552L920.231 602.524V553.911M915.615 115.5L920.231 553.911M946 628L941.462 625.27H937.769L933.615 616.796L931.308 408.517L933.615 610.552V614.566L931.308 625.27L929 623.04L923.923 620.81V614.566L920.231 553.911" stroke="#C3FA50" stroke-width="3"/>
<path d="M144.834 667.834L1024.83 667.834" stroke="white" stroke-width="2"/>
<line x1="411.131" y1="667.696" x2="411.131" y2="689.967" stroke="white" stroke-width="2"/>
<line x1="234.117" y1="667.696" x2="234.117" y2="689.967" stroke="white" stroke-width="2"/>
<line x1="144.432" y1="666.582" x2="144.432" y2="688.853" stroke="white" stroke-width="2"/>
<line x1="854.842" y1="667.696" x2="854.842" y2="689.967" stroke="white" stroke-width="2"/>
<line x1="677.828" y1="667.696" x2="677.828" y2="689.967" stroke="white" stroke-width="2"/>
<line x1="500.816" y1="667.696" x2="500.816" y2="689.967" stroke="white" stroke-width="2"/>
<line x1="322.625" y1="667.696" x2="322.625" y2="689.967" stroke="white" stroke-width="2"/>
<line x1="944.527" y1="667.696" x2="944.527" y2="689.967" stroke="white" stroke-width="2"/>
<line x1="1023.59" y1="667.696" x2="1023.59" y2="689.967" stroke="white" stroke-width="2"/>
<line x1="766.336" y1="667.696" x2="766.336" y2="689.967" stroke="white" stroke-width="2"/>
<path d="M223.056 711.04C223.056 711.973 223.276 712.747 223.716 713.36C224.156 713.96 224.863 714.26 225.836 714.26C226.303 714.26 226.81 714.107 227.356 713.8C227.916 713.493 228.443 713 228.936 712.32C228.856 710.973 228.543 709.887 227.996 709.06C227.463 708.233 226.676 707.82 225.636 707.82C225.156 707.82 224.716 707.967 224.316 708.26C223.93 708.54 223.623 708.92 223.396 709.4C223.17 709.88 223.056 710.427 223.056 711.04ZM225.136 720.32C224.55 720.32 224.03 720.207 223.576 719.98C223.136 719.753 222.756 719.453 222.436 719.08L222.976 718.48C223.256 718.827 223.583 719.093 223.956 719.28C224.343 719.453 224.743 719.54 225.156 719.54C225.836 719.54 226.463 719.34 227.036 718.94C227.61 718.54 228.07 717.88 228.416 716.96C228.776 716.04 228.956 714.8 228.956 713.24C228.516 713.773 228.016 714.2 227.456 714.52C226.896 714.84 226.316 715 225.716 715C224.61 715 223.743 714.667 223.116 714C222.49 713.32 222.176 712.333 222.176 711.04C222.176 710.267 222.336 709.58 222.656 708.98C222.976 708.38 223.403 707.913 223.936 707.58C224.47 707.233 225.05 707.06 225.676 707.06C226.943 707.06 227.95 707.58 228.696 708.62C229.456 709.647 229.836 711.133 229.836 713.08C229.836 714.867 229.616 716.293 229.176 717.36C228.736 718.413 228.156 719.173 227.436 719.64C226.73 720.093 225.963 720.32 225.136 720.32ZM233.087 720.32C232.873 720.32 232.673 720.24 232.487 720.08C232.313 719.92 232.227 719.7 232.227 719.42C232.227 719.127 232.313 718.9 232.487 718.74C232.673 718.58 232.873 718.5 233.087 718.5C233.313 718.5 233.507 718.58 233.667 718.74C233.84 718.9 233.927 719.127 233.927 719.42C233.927 719.7 233.84 719.92 233.667 720.08C233.507 720.24 233.313 720.32 233.087 720.32ZM240.042 720.32C238.828 720.32 237.888 719.74 237.222 718.58C236.555 717.42 236.222 715.773 236.222 713.64C236.222 711.52 236.555 709.893 237.222 708.76C237.888 707.627 238.828 707.06 240.042 707.06C241.268 707.06 242.208 707.627 242.862 708.76C243.528 709.893 243.862 711.52 243.862 713.64C243.862 715.773 243.528 717.42 242.862 718.58C242.208 719.74 241.268 720.32 240.042 720.32ZM240.042 719.56C240.935 719.56 241.642 719.06 242.162 718.06C242.695 717.06 242.962 715.587 242.962 713.64C242.962 711.693 242.695 710.24 242.162 709.28C241.642 708.307 240.935 707.82 240.042 707.82C239.162 707.82 238.455 708.307 237.922 709.28C237.388 710.24 237.122 711.693 237.122 713.64C237.122 715.587 237.388 717.06 237.922 718.06C238.455 719.06 239.162 719.56 240.042 719.56Z" fill="white"/>
<path d="M128.59 720.08V719.3H131.59V708.7H129.31V708.1C129.83 708.007 130.297 707.893 130.71 707.76C131.123 707.627 131.477 707.473 131.77 707.3H132.49V719.3H135.27V720.08H128.59ZM141.26 720.32C140.047 720.32 139.107 719.74 138.44 718.58C137.774 717.42 137.44 715.773 137.44 713.64C137.44 711.52 137.774 709.893 138.44 708.76C139.107 707.627 140.047 707.06 141.26 707.06C142.487 707.06 143.427 707.627 144.08 708.76C144.747 709.893 145.08 711.52 145.08 713.64C145.08 715.773 144.747 717.42 144.08 718.58C143.427 719.74 142.487 720.32 141.26 720.32ZM141.26 719.56C142.154 719.56 142.86 719.06 143.38 718.06C143.914 717.06 144.18 715.587 144.18 713.64C144.18 711.693 143.914 710.24 143.38 709.28C142.86 708.307 142.154 707.82 141.26 707.82C140.38 707.82 139.674 708.307 139.14 709.28C138.607 710.24 138.34 711.693 138.34 713.64C138.34 715.587 138.607 717.06 139.14 718.06C139.674 719.06 140.38 719.56 141.26 719.56ZM148.251 720.32C148.037 720.32 147.837 720.24 147.651 720.08C147.477 719.92 147.391 719.7 147.391 719.42C147.391 719.127 147.477 718.9 147.651 718.74C147.837 718.58 148.037 718.5 148.251 718.5C148.477 718.5 148.671 718.58 148.831 718.74C149.004 718.9 149.091 719.127 149.091 719.42C149.091 719.7 149.004 719.92 148.831 720.08C148.671 720.24 148.477 720.32 148.251 720.32ZM155.206 720.32C153.992 720.32 153.052 719.74 152.386 718.58C151.719 717.42 151.386 715.773 151.386 713.64C151.386 711.52 151.719 709.893 152.386 708.76C153.052 707.627 153.992 707.06 155.206 707.06C156.432 707.06 157.372 707.627 158.026 708.76C158.692 709.893 159.026 711.52 159.026 713.64C159.026 715.773 158.692 717.42 158.026 718.58C157.372 719.74 156.432 720.32 155.206 720.32ZM155.206 719.56C156.099 719.56 156.806 719.06 157.326 718.06C157.859 717.06 158.126 715.587 158.126 713.64C158.126 711.693 157.859 710.24 157.326 709.28C156.806 708.307 156.099 707.82 155.206 707.82C154.326 707.82 153.619 708.307 153.086 709.28C152.552 710.24 152.286 711.693 152.286 713.64C152.286 715.587 152.552 717.06 153.086 718.06C153.619 719.06 154.326 719.56 155.206 719.56Z" fill="white"/>
<path d="M315.862 719.207C315.089 719.207 314.395 719.053 313.782 718.747C313.169 718.44 312.682 718.02 312.322 717.487C311.975 716.953 311.802 716.353 311.802 715.687C311.802 715.113 311.929 714.593 312.182 714.127C312.449 713.66 312.775 713.26 313.162 712.927C313.562 712.58 313.962 712.3 314.362 712.087V712.007C313.895 711.7 313.469 711.307 313.082 710.827C312.709 710.333 312.522 709.747 312.522 709.067C312.522 708.453 312.669 707.913 312.962 707.447C313.269 706.98 313.675 706.613 314.182 706.347C314.689 706.08 315.249 705.947 315.862 705.947C316.955 705.947 317.802 706.267 318.402 706.907C319.015 707.533 319.322 708.327 319.322 709.287C319.322 709.753 319.222 710.2 319.022 710.627C318.822 711.04 318.582 711.413 318.302 711.747C318.022 712.067 317.755 712.327 317.502 712.527V712.607C317.875 712.833 318.229 713.093 318.562 713.387C318.909 713.667 319.189 714.007 319.402 714.407C319.629 714.807 319.742 715.293 319.742 715.867C319.742 716.48 319.575 717.04 319.242 717.547C318.922 718.053 318.469 718.46 317.882 718.767C317.309 719.06 316.635 719.207 315.862 719.207ZM316.802 712.267C317.349 711.827 317.762 711.36 318.042 710.867C318.335 710.373 318.482 709.853 318.482 709.307C318.482 708.6 318.249 707.987 317.782 707.467C317.329 706.947 316.689 706.687 315.862 706.687C315.155 706.687 314.569 706.913 314.102 707.367C313.635 707.807 313.402 708.373 313.402 709.067C313.402 709.667 313.569 710.167 313.902 710.567C314.235 710.953 314.662 711.28 315.182 711.547C315.702 711.8 316.242 712.04 316.802 712.267ZM315.862 718.467C316.769 718.467 317.489 718.213 318.022 717.707C318.569 717.2 318.842 716.58 318.842 715.847C318.842 715.193 318.655 714.667 318.282 714.267C317.909 713.853 317.422 713.507 316.822 713.227C316.235 712.947 315.609 712.68 314.942 712.427C314.289 712.8 313.749 713.253 313.322 713.787C312.895 714.32 312.682 714.94 312.682 715.647C312.682 716.18 312.815 716.66 313.082 717.087C313.362 717.5 313.742 717.833 314.222 718.087C314.702 718.34 315.249 718.467 315.862 718.467ZM322.772 719.207C322.559 719.207 322.359 719.127 322.172 718.967C321.999 718.807 321.912 718.587 321.912 718.307C321.912 718.013 321.999 717.787 322.172 717.627C322.359 717.467 322.559 717.387 322.772 717.387C322.999 717.387 323.192 717.467 323.352 717.627C323.526 717.787 323.612 718.013 323.612 718.307C323.612 718.587 323.526 718.807 323.352 718.967C323.192 719.127 322.999 719.207 322.772 719.207ZM329.727 719.207C328.514 719.207 327.574 718.627 326.907 717.467C326.241 716.307 325.907 714.66 325.907 712.527C325.907 710.407 326.241 708.78 326.907 707.647C327.574 706.513 328.514 705.947 329.727 705.947C330.954 705.947 331.894 706.513 332.547 707.647C333.214 708.78 333.547 710.407 333.547 712.527C333.547 714.66 333.214 716.307 332.547 717.467C331.894 718.627 330.954 719.207 329.727 719.207ZM329.727 718.447C330.621 718.447 331.327 717.947 331.847 716.947C332.381 715.947 332.647 714.473 332.647 712.527C332.647 710.58 332.381 709.127 331.847 708.167C331.327 707.193 330.621 706.707 329.727 706.707C328.847 706.707 328.141 707.193 327.607 708.167C327.074 709.127 326.807 710.58 326.807 712.527C326.807 714.473 327.074 715.947 327.607 716.947C328.141 717.947 328.847 718.447 329.727 718.447Z" fill="white"/>
<path d="M404.449 718.967C404.516 717.247 404.689 715.707 404.969 714.347C405.249 712.987 405.663 711.72 406.209 710.547C406.756 709.36 407.456 708.167 408.309 706.967H401.569V706.187H409.429V706.707C408.669 707.72 408.036 708.7 407.529 709.647C407.036 710.58 406.643 711.527 406.349 712.487C406.056 713.447 405.836 714.453 405.689 715.507C405.556 716.56 405.463 717.713 405.409 718.967H404.449ZM412.46 719.207C412.246 719.207 412.046 719.127 411.86 718.967C411.686 718.807 411.6 718.587 411.6 718.307C411.6 718.013 411.686 717.787 411.86 717.627C412.046 717.467 412.246 717.387 412.46 717.387C412.686 717.387 412.88 717.467 413.04 717.627C413.213 717.787 413.3 718.013 413.3 718.307C413.3 718.587 413.213 718.807 413.04 718.967C412.88 719.127 412.686 719.207 412.46 719.207ZM419.415 719.207C418.201 719.207 417.261 718.627 416.595 717.467C415.928 716.307 415.595 714.66 415.595 712.527C415.595 710.407 415.928 708.78 416.595 707.647C417.261 706.513 418.201 705.947 419.415 705.947C420.641 705.947 421.581 706.513 422.235 707.647C422.901 708.78 423.235 710.407 423.235 712.527C423.235 714.66 422.901 716.307 422.235 717.467C421.581 718.627 420.641 719.207 419.415 719.207ZM419.415 718.447C420.308 718.447 421.015 717.947 421.535 716.947C422.068 715.947 422.335 714.473 422.335 712.527C422.335 710.58 422.068 709.127 421.535 708.167C421.015 707.193 420.308 706.707 419.415 706.707C418.535 706.707 417.828 707.193 417.295 708.167C416.761 709.127 416.495 710.58 416.495 712.527C416.495 714.473 416.761 715.947 417.295 716.947C417.828 717.947 418.535 718.447 419.415 718.447Z" fill="white"/>
<path d="M493.076 712.007C492.622 712.007 492.122 712.153 491.576 712.447C491.029 712.727 490.496 713.22 489.976 713.927C490.056 715.273 490.362 716.367 490.896 717.207C491.429 718.033 492.216 718.447 493.256 718.447C493.749 718.447 494.189 718.307 494.576 718.027C494.962 717.733 495.269 717.347 495.496 716.867C495.722 716.373 495.836 715.82 495.836 715.207C495.836 714.287 495.616 713.527 495.176 712.927C494.749 712.313 494.049 712.007 493.076 712.007ZM493.236 719.207C491.956 719.207 490.936 718.687 490.176 717.647C489.429 716.593 489.056 715.1 489.056 713.167C489.056 711.82 489.182 710.687 489.436 709.767C489.689 708.847 490.036 708.107 490.476 707.547C490.916 706.987 491.416 706.58 491.976 706.327C492.549 706.073 493.142 705.947 493.756 705.947C494.356 705.947 494.869 706.06 495.296 706.287C495.736 706.513 496.122 706.813 496.456 707.187L495.916 707.787C495.636 707.44 495.309 707.18 494.936 707.007C494.562 706.82 494.169 706.727 493.756 706.727C493.076 706.727 492.442 706.927 491.856 707.327C491.282 707.727 490.822 708.387 490.476 709.307C490.129 710.227 489.956 711.467 489.956 713.027C490.396 712.48 490.896 712.047 491.456 711.727C492.016 711.407 492.589 711.247 493.176 711.247C494.296 711.247 495.169 711.587 495.796 712.267C496.422 712.933 496.736 713.913 496.736 715.207C496.736 715.98 496.576 716.667 496.256 717.267C495.936 717.867 495.509 718.34 494.976 718.687C494.456 719.033 493.876 719.207 493.236 719.207ZM499.786 719.207C499.573 719.207 499.373 719.127 499.186 718.967C499.013 718.807 498.926 718.587 498.926 718.307C498.926 718.013 499.013 717.787 499.186 717.627C499.373 717.467 499.573 717.387 499.786 717.387C500.013 717.387 500.206 717.467 500.366 717.627C500.539 717.787 500.626 718.013 500.626 718.307C500.626 718.587 500.539 718.807 500.366 718.967C500.206 719.127 500.013 719.207 499.786 719.207ZM506.741 719.207C505.528 719.207 504.588 718.627 503.921 717.467C503.254 716.307 502.921 714.66 502.921 712.527C502.921 710.407 503.254 708.78 503.921 707.647C504.588 706.513 505.528 705.947 506.741 705.947C507.968 705.947 508.908 706.513 509.561 707.647C510.228 708.78 510.561 710.407 510.561 712.527C510.561 714.66 510.228 716.307 509.561 717.467C508.908 718.627 507.968 719.207 506.741 719.207ZM506.741 718.447C507.634 718.447 508.341 717.947 508.861 716.947C509.394 715.947 509.661 714.473 509.661 712.527C509.661 710.58 509.394 709.127 508.861 708.167C508.341 707.193 507.634 706.707 506.741 706.707C505.861 706.707 505.154 707.193 504.621 708.167C504.088 709.127 503.821 710.58 503.821 712.527C503.821 714.473 504.088 715.947 504.621 716.947C505.154 717.947 505.861 718.447 506.741 718.447Z" fill="white"/>
<path d="M579.882 719.207C579.202 719.207 578.608 719.12 578.102 718.947C577.608 718.773 577.182 718.553 576.822 718.287C576.462 718.02 576.142 717.753 575.862 717.487L576.362 716.867C576.748 717.253 577.208 717.613 577.742 717.947C578.288 718.267 578.995 718.427 579.862 718.427C580.435 718.427 580.962 718.287 581.442 718.007C581.922 717.713 582.308 717.307 582.602 716.787C582.895 716.267 583.042 715.667 583.042 714.987C583.042 713.96 582.755 713.153 582.182 712.567C581.622 711.98 580.868 711.687 579.922 711.687C579.428 711.687 579.002 711.767 578.642 711.927C578.295 712.073 577.928 712.28 577.542 712.547L576.922 712.167L577.382 706.187H583.282V706.967H578.182L577.782 711.587C578.115 711.387 578.462 711.227 578.822 711.107C579.182 710.973 579.595 710.907 580.062 710.907C580.782 710.907 581.435 711.053 582.022 711.347C582.622 711.627 583.095 712.067 583.442 712.667C583.788 713.253 583.962 714.013 583.962 714.947C583.962 715.853 583.762 716.627 583.362 717.267C582.975 717.893 582.468 718.373 581.842 718.707C581.228 719.04 580.575 719.207 579.882 719.207ZM587.112 719.207C586.899 719.207 586.699 719.127 586.512 718.967C586.339 718.807 586.252 718.587 586.252 718.307C586.252 718.013 586.339 717.787 586.512 717.627C586.699 717.467 586.899 717.387 587.112 717.387C587.339 717.387 587.532 717.467 587.692 717.627C587.865 717.787 587.952 718.013 587.952 718.307C587.952 718.587 587.865 718.807 587.692 718.967C587.532 719.127 587.339 719.207 587.112 719.207ZM594.067 719.207C592.854 719.207 591.914 718.627 591.247 717.467C590.58 716.307 590.247 714.66 590.247 712.527C590.247 710.407 590.58 708.78 591.247 707.647C591.914 706.513 592.854 705.947 594.067 705.947C595.294 705.947 596.234 706.513 596.887 707.647C597.554 708.78 597.887 710.407 597.887 712.527C597.887 714.66 597.554 716.307 596.887 717.467C596.234 718.627 595.294 719.207 594.067 719.207ZM594.067 718.447C594.96 718.447 595.667 717.947 596.187 716.947C596.72 715.947 596.987 714.473 596.987 712.527C596.987 710.58 596.72 709.127 596.187 708.167C595.667 707.193 594.96 706.707 594.067 706.707C593.187 706.707 592.48 707.193 591.947 708.167C591.414 709.127 591.147 710.58 591.147 712.527C591.147 714.473 591.414 715.947 591.947 716.947C592.48 717.947 593.187 718.447 594.067 718.447Z" fill="white"/>
<path d="M666.427 714.387H671.227V709.707C671.227 709.413 671.234 709.047 671.247 708.607C671.274 708.167 671.294 707.8 671.307 707.507H671.227C671.067 707.773 670.901 708.033 670.727 708.287C670.554 708.54 670.374 708.813 670.187 709.107L666.427 714.387ZM671.227 718.967V715.147H665.347V714.627L671.287 706.187H672.087V714.387H673.987V715.147H672.087V718.967H671.227ZM676.798 719.207C676.584 719.207 676.384 719.127 676.198 718.967C676.024 718.807 675.938 718.587 675.938 718.307C675.938 718.013 676.024 717.787 676.198 717.627C676.384 717.467 676.584 717.387 676.798 717.387C677.024 717.387 677.218 717.467 677.378 717.627C677.551 717.787 677.638 718.013 677.638 718.307C677.638 718.587 677.551 718.807 677.378 718.967C677.218 719.127 677.024 719.207 676.798 719.207ZM683.753 719.207C682.539 719.207 681.599 718.627 680.933 717.467C680.266 716.307 679.933 714.66 679.933 712.527C679.933 710.407 680.266 708.78 680.933 707.647C681.599 706.513 682.539 705.947 683.753 705.947C684.979 705.947 685.919 706.513 686.573 707.647C687.239 708.78 687.573 710.407 687.573 712.527C687.573 714.66 687.239 716.307 686.573 717.467C685.919 718.627 684.979 719.207 683.753 719.207ZM683.753 718.447C684.646 718.447 685.353 717.947 685.873 716.947C686.406 715.947 686.673 714.473 686.673 712.527C686.673 710.58 686.406 709.127 685.873 708.167C685.353 707.193 684.646 706.707 683.753 706.707C682.873 706.707 682.166 707.193 681.633 708.167C681.099 709.127 680.833 710.58 680.833 712.527C680.833 714.473 681.099 715.947 681.633 716.947C682.166 717.947 682.873 718.447 683.753 718.447Z" fill="white"/>
<path d="M756.994 719.207C756.314 719.207 755.72 719.12 755.214 718.947C754.707 718.76 754.267 718.527 753.894 718.247C753.534 717.967 753.214 717.687 752.934 717.407L753.454 716.787C753.84 717.2 754.307 717.58 754.854 717.927C755.4 718.26 756.114 718.427 756.994 718.427C757.86 718.427 758.574 718.173 759.134 717.667C759.694 717.147 759.974 716.46 759.974 715.607C759.974 714.727 759.627 714.013 758.934 713.467C758.254 712.92 757.114 712.647 755.514 712.647V711.867C756.5 711.867 757.287 711.747 757.874 711.507C758.46 711.253 758.88 710.913 759.134 710.487C759.387 710.06 759.514 709.593 759.514 709.087C759.514 708.367 759.28 707.793 758.814 707.367C758.347 706.927 757.72 706.707 756.934 706.707C756.347 706.707 755.8 706.847 755.294 707.127C754.8 707.393 754.367 707.72 753.994 708.107L753.474 707.507C753.914 707.08 754.414 706.713 754.974 706.407C755.547 706.1 756.2 705.947 756.934 705.947C757.6 705.947 758.194 706.067 758.714 706.307C759.247 706.547 759.667 706.9 759.974 707.367C760.28 707.82 760.434 708.373 760.434 709.027C760.434 709.867 760.2 710.547 759.734 711.067C759.28 711.573 758.7 711.947 757.994 712.187V712.267C758.527 712.373 759.007 712.58 759.434 712.887C759.874 713.18 760.227 713.553 760.494 714.007C760.76 714.46 760.894 714.987 760.894 715.587C760.894 716.32 760.72 716.96 760.374 717.507C760.027 718.053 759.56 718.473 758.974 718.767C758.387 719.06 757.727 719.207 756.994 719.207ZM764.124 719.207C763.91 719.207 763.71 719.127 763.524 718.967C763.35 718.807 763.264 718.587 763.264 718.307C763.264 718.013 763.35 717.787 763.524 717.627C763.71 717.467 763.91 717.387 764.124 717.387C764.35 717.387 764.544 717.467 764.704 717.627C764.877 717.787 764.964 718.013 764.964 718.307C764.964 718.587 764.877 718.807 764.704 718.967C764.544 719.127 764.35 719.207 764.124 719.207ZM771.079 719.207C769.865 719.207 768.925 718.627 768.259 717.467C767.592 716.307 767.259 714.66 767.259 712.527C767.259 710.407 767.592 708.78 768.259 707.647C768.925 706.513 769.865 705.947 771.079 705.947C772.305 705.947 773.245 706.513 773.899 707.647C774.565 708.78 774.899 710.407 774.899 712.527C774.899 714.66 774.565 716.307 773.899 717.467C773.245 718.627 772.305 719.207 771.079 719.207ZM771.079 718.447C771.972 718.447 772.679 717.947 773.199 716.947C773.732 715.947 773.999 714.473 773.999 712.527C773.999 710.58 773.732 709.127 773.199 708.167C772.679 707.193 771.972 706.707 771.079 706.707C770.199 706.707 769.492 707.193 768.959 708.167C768.425 709.127 768.159 710.58 768.159 712.527C768.159 714.473 768.425 715.947 768.959 716.947C769.492 717.947 770.199 718.447 771.079 718.447Z" fill="white"/>
<path d="M842.861 718.967V718.407C844.261 716.98 845.428 715.747 846.361 714.707C847.294 713.653 847.994 712.713 848.461 711.887C848.928 711.06 849.161 710.28 849.161 709.547C849.161 708.747 848.934 708.073 848.481 707.527C848.041 706.98 847.341 706.707 846.381 706.707C845.808 706.707 845.261 706.867 844.741 707.187C844.234 707.507 843.788 707.907 843.401 708.387L842.821 707.827C843.301 707.293 843.834 706.847 844.421 706.487C845.008 706.127 845.688 705.947 846.461 705.947C847.608 705.947 848.494 706.273 849.121 706.927C849.748 707.58 850.061 708.447 850.061 709.527C850.061 710.367 849.814 711.22 849.321 712.087C848.841 712.953 848.161 713.887 847.281 714.887C846.414 715.887 845.388 717.013 844.201 718.267C844.548 718.24 844.901 718.22 845.261 718.207C845.634 718.18 845.994 718.167 846.341 718.167H850.701V718.967H842.861ZM853.811 719.207C853.598 719.207 853.398 719.127 853.211 718.967C853.038 718.807 852.951 718.587 852.951 718.307C852.951 718.013 853.038 717.787 853.211 717.627C853.398 717.467 853.598 717.387 853.811 717.387C854.038 717.387 854.231 717.467 854.391 717.627C854.565 717.787 854.651 718.013 854.651 718.307C854.651 718.587 854.565 718.807 854.391 718.967C854.231 719.127 854.038 719.207 853.811 719.207ZM860.766 719.207C859.553 719.207 858.613 718.627 857.946 717.467C857.28 716.307 856.946 714.66 856.946 712.527C856.946 710.407 857.28 708.78 857.946 707.647C858.613 706.513 859.553 705.947 860.766 705.947C861.993 705.947 862.933 706.513 863.586 707.647C864.253 708.78 864.586 710.407 864.586 712.527C864.586 714.66 864.253 716.307 863.586 717.467C862.933 718.627 861.993 719.207 860.766 719.207ZM860.766 718.447C861.66 718.447 862.366 717.947 862.886 716.947C863.42 715.947 863.686 714.473 863.686 712.527C863.686 710.58 863.42 709.127 862.886 708.167C862.366 707.193 861.66 706.707 860.766 706.707C859.886 706.707 859.18 707.193 858.646 708.167C858.113 709.127 857.846 710.58 857.846 712.527C857.846 714.473 858.113 715.947 858.646 716.947C859.18 717.947 859.886 718.447 860.766 718.447Z" fill="white"/>
<path d="M938.127 718.967V718.187H941.127V707.587H938.847V706.987C939.367 706.893 939.834 706.78 940.247 706.647C940.661 706.513 941.014 706.36 941.307 706.187H942.027V718.187H944.807V718.967H938.127ZM948.218 719.207C948.004 719.207 947.804 719.127 947.618 718.967C947.444 718.807 947.358 718.587 947.358 718.307C947.358 718.013 947.444 717.787 947.618 717.627C947.804 717.467 948.004 717.387 948.218 717.387C948.444 717.387 948.638 717.467 948.798 717.627C948.971 717.787 949.058 718.013 949.058 718.307C949.058 718.587 948.971 718.807 948.798 718.967C948.638 719.127 948.444 719.207 948.218 719.207ZM955.173 719.207C953.959 719.207 953.019 718.627 952.353 717.467C951.686 716.307 951.353 714.66 951.353 712.527C951.353 710.407 951.686 708.78 952.353 707.647C953.019 706.513 953.959 705.947 955.173 705.947C956.399 705.947 957.339 706.513 957.993 707.647C958.659 708.78 958.993 710.407 958.993 712.527C958.993 714.66 958.659 716.307 957.993 717.467C957.339 718.627 956.399 719.207 955.173 719.207ZM955.173 718.447C956.066 718.447 956.773 717.947 957.293 716.947C957.826 715.947 958.093 714.473 958.093 712.527C958.093 710.58 957.826 709.127 957.293 708.167C956.773 707.193 956.066 706.707 955.173 706.707C954.293 706.707 953.586 707.193 953.053 708.167C952.519 709.127 952.253 710.58 952.253 712.527C952.253 714.473 952.519 715.947 953.053 716.947C953.586 717.947 954.293 718.447 955.173 718.447Z" fill="white"/>
<path d="M1025.01 719.207C1023.8 719.207 1022.86 718.627 1022.19 717.467C1021.53 716.307 1021.19 714.66 1021.19 712.527C1021.19 710.407 1021.53 708.78 1022.19 707.647C1022.86 706.513 1023.8 705.947 1025.01 705.947C1026.24 705.947 1027.18 706.513 1027.83 707.647C1028.5 708.78 1028.83 710.407 1028.83 712.527C1028.83 714.66 1028.5 716.307 1027.83 717.467C1027.18 718.627 1026.24 719.207 1025.01 719.207ZM1025.01 718.447C1025.91 718.447 1026.61 717.947 1027.13 716.947C1027.67 715.947 1027.93 714.473 1027.93 712.527C1027.93 710.58 1027.67 709.127 1027.13 708.167C1026.61 707.193 1025.91 706.707 1025.01 706.707C1024.13 706.707 1023.43 707.193 1022.89 708.167C1022.36 709.127 1022.09 710.58 1022.09 712.527C1022.09 714.473 1022.36 715.947 1022.89 716.947C1023.43 717.947 1024.13 718.447 1025.01 718.447Z" fill="white"/>
<path d="M114.88 600.76L126.72 600.76L127.14 598.88L128 598.88L128 604.64L127.14 604.64L126.72 602.76L114.88 602.76L114.46 604.64L113.6 604.64L113.6 598.88L114.46 598.88L114.88 600.76ZM126.8 595.76L118.4 595.76L118.02 597.3L117.2 597.3L117.2 594.42L119.2 593.98L119.2 593.9C118.52 593.5 117.987 592.96 117.6 592.28C117.2 591.6 117 590.873 117 590.1C117 588.993 117.36 588.173 118.08 587.64C118.453 587.373 118.98 587.186 119.66 587.08C120.327 586.96 121.233 586.9 122.38 586.9L126.8 586.9L127.18 585.36L128 585.36L128 590.18L127.18 590.18L126.8 588.84L122.34 588.84C121.473 588.84 120.827 588.866 120.4 588.92C119.973 588.96 119.64 589.04 119.4 589.16C119.08 589.32 118.84 589.553 118.68 589.86C118.507 590.153 118.42 590.506 118.42 590.92C118.42 591.693 118.667 592.36 119.16 592.92C119.653 593.466 120.42 593.766 121.46 593.82L126.8 593.82L127.18 592.48L128 592.48L128 597.3L127.18 597.3L126.8 595.76ZM118.2 584.734L117.48 584.734L117.2 582.794L114.68 582.534L114.44 580.854L117.2 580.854L117.2 578.294L118.2 578.294L118.2 580.854L125.34 580.854C125.793 580.854 126.107 580.847 126.28 580.834C126.44 580.821 126.573 580.794 126.68 580.754C126.773 580.714 126.84 580.641 126.88 580.534C126.907 580.427 126.92 580.254 126.92 580.014L126.92 578.614L127.5 578.614C127.74 579.254 127.913 579.821 128.02 580.314C128.14 580.794 128.2 581.181 128.2 581.474C128.2 582.074 127.953 582.461 127.46 582.634C127.3 582.687 127.093 582.727 126.84 582.754C126.587 582.781 126.213 582.794 125.72 582.794L118.2 582.794L118.2 584.734ZM122.72 568.158L122.72 575.138C123.693 575.138 124.5 575.004 125.14 574.738C125.753 574.471 126.193 574.091 126.46 573.598C126.727 573.104 126.86 572.571 126.86 571.998C126.86 571.371 126.733 570.798 126.48 570.278C126.213 569.758 125.853 569.291 125.4 568.878L125.88 568.238C126.52 568.704 127.067 569.271 127.52 569.938C127.973 570.604 128.2 571.464 128.2 572.518C128.2 573.438 128.007 574.251 127.62 574.958C127.22 575.664 126.64 576.204 125.88 576.578C125.467 576.778 125.007 576.924 124.5 577.018C123.993 577.111 123.453 577.158 122.88 577.158C121.013 577.158 119.567 576.731 118.54 575.878C117.513 575.011 117 573.838 117 572.358C117 570.998 117.427 569.951 118.28 569.218C119.12 568.471 120.287 568.098 121.78 568.098C121.913 568.098 122.04 568.104 122.16 568.118C122.267 568.118 122.453 568.131 122.72 568.158ZM118.08 572.478C118.08 574.078 119.3 574.958 121.74 575.118L121.74 570.118L121.08 570.118C120.12 570.118 119.38 570.324 118.86 570.738C118.34 571.138 118.08 571.718 118.08 572.478ZM126.8 564.959L118.4 564.959L118.02 566.499L117.2 566.499L117.2 563.619L119.2 563.179L119.2 563.099C118.52 562.699 117.987 562.159 117.6 561.479C117.2 560.799 117 560.072 117 559.299C117 558.192 117.36 557.372 118.08 556.839C118.453 556.572 118.98 556.385 119.66 556.279C120.327 556.159 121.233 556.099 122.38 556.099L126.8 556.099L127.18 554.559L128 554.559L128 559.379L127.18 559.379L126.8 558.039L122.34 558.039C121.473 558.039 120.827 558.065 120.4 558.119C119.973 558.159 119.64 558.239 119.4 558.359C119.08 558.519 118.84 558.752 118.68 559.059C118.507 559.352 118.42 559.705 118.42 560.119C118.42 560.892 118.667 561.559 119.16 562.119C119.653 562.665 120.42 562.965 121.46 563.019L126.8 563.019L127.18 561.679L128 561.679L128 566.499L127.18 566.499L126.8 564.959ZM127.28 549.233C127.28 548.487 127.127 547.88 126.82 547.413C126.513 546.933 126.087 546.693 125.54 546.693C125.1 546.693 124.747 546.84 124.48 547.133C124.213 547.427 124 547.793 123.84 548.233C123.667 548.66 123.52 549.093 123.4 549.533C123.227 550.08 123.027 550.607 122.8 551.113C122.56 551.62 122.233 552.033 121.82 552.353C121.407 552.673 120.86 552.833 120.18 552.833C119.22 552.833 118.453 552.487 117.88 551.793C117.293 551.087 117 550.107 117 548.853C117 547.787 117.227 546.947 117.68 546.333C118.12 545.707 118.727 545.393 119.5 545.393C119.913 545.393 120.247 545.487 120.5 545.673C120.74 545.86 120.86 546.127 120.86 546.473C120.86 546.78 120.767 547.033 120.58 547.233C120.393 547.433 120.153 547.533 119.86 547.533C119.607 547.533 119.38 547.467 119.18 547.333C118.967 547.2 118.813 547.027 118.72 546.813C118.44 547.013 118.24 547.273 118.12 547.593C117.987 547.9 117.92 548.3 117.92 548.793C117.92 549.593 118.067 550.193 118.36 550.593C118.64 550.993 119.06 551.193 119.62 551.193C120.02 551.193 120.34 551.1 120.58 550.913C120.807 550.713 121 550.427 121.16 550.053C121.32 549.68 121.487 549.22 121.66 548.673C121.793 548.22 121.947 547.773 122.12 547.333C122.28 546.893 122.48 546.493 122.72 546.133C122.96 545.773 123.26 545.487 123.62 545.273C123.98 545.06 124.427 544.953 124.96 544.953C125.64 544.953 126.227 545.14 126.72 545.513C127.2 545.887 127.567 546.4 127.82 547.053C128.073 547.707 128.2 548.46 128.2 549.313C128.2 550.487 127.96 551.433 127.48 552.153C127 552.873 126.353 553.233 125.54 553.233C125.113 553.233 124.78 553.14 124.54 552.953C124.287 552.753 124.16 552.473 124.16 552.113C124.16 551.793 124.253 551.527 124.44 551.313C124.627 551.087 124.873 550.973 125.18 550.973C125.433 550.973 125.673 551.047 125.9 551.193C126.127 551.327 126.293 551.493 126.4 551.693C126.653 551.52 126.867 551.213 127.04 550.773C127.2 550.32 127.28 549.807 127.28 549.233ZM118.4 541.795L118.02 543.335L117.2 543.335L117.2 539.855L126.8 539.855L127.18 538.315L128 538.315L128 543.335L127.18 543.335L126.8 541.795L118.4 541.795ZM113.98 542.075C113.593 542.075 113.287 541.961 113.06 541.735C112.833 541.508 112.72 541.208 112.72 540.835C112.72 540.448 112.833 540.141 113.06 539.915C113.287 539.688 113.593 539.575 113.98 539.575C114.353 539.575 114.653 539.688 114.88 539.915C115.107 540.141 115.22 540.448 115.22 540.835C115.22 541.221 115.113 541.528 114.9 541.755C114.673 541.968 114.367 542.075 113.98 542.075ZM118.2 537.644L117.48 537.644L117.2 535.704L114.68 535.444L114.44 533.764L117.2 533.764L117.2 531.204L118.2 531.204L118.2 533.764L125.34 533.764C125.793 533.764 126.107 533.758 126.28 533.744C126.44 533.731 126.573 533.704 126.68 533.664C126.773 533.624 126.84 533.551 126.88 533.444C126.907 533.338 126.92 533.164 126.92 532.924L126.92 531.524L127.5 531.524C127.74 532.164 127.913 532.731 128.02 533.224C128.14 533.704 128.2 534.091 128.2 534.384C128.2 534.984 127.953 535.371 127.46 535.544C127.3 535.598 127.093 535.638 126.84 535.664C126.587 535.691 126.213 535.704 125.72 535.704L118.2 535.704L118.2 537.644ZM118.4 520.728L127.52 524.048C128.547 524.421 129.373 524.761 130 525.068C130.64 525.374 131.1 525.714 131.38 526.088C131.66 526.461 131.8 526.941 131.8 527.528C131.8 528.154 131.633 528.694 131.3 529.148C130.967 529.588 130.547 529.808 130.04 529.808C129.667 529.808 129.353 529.701 129.1 529.488C128.86 529.274 128.74 528.994 128.74 528.648C128.74 528.341 128.82 528.101 128.98 527.928C129.153 527.741 129.387 527.648 129.68 527.648C129.867 527.648 130.047 527.688 130.22 527.768C130.393 527.834 130.547 527.928 130.68 528.048C130.813 528.021 130.9 527.941 130.94 527.808C130.993 527.674 131.02 527.561 131.02 527.468C131.02 527.281 130.973 527.108 130.88 526.948C130.787 526.788 130.587 526.621 130.28 526.448C129.987 526.261 129.52 526.061 128.88 525.848L128.14 525.608L118.4 529.748L118.02 530.948L117.2 530.948L117.2 526.468L118.02 526.308L118.4 527.728L126.24 524.748L126.24 524.668L118.4 522.148L118.02 523.308L117.2 523.308L117.2 519.508L118.02 519.508L118.4 520.728Z" fill="#C3FA50"/>
<path d="M681 628L683.374 625.008L684.748 623.633V605.757V567.256L683.374 536.547L684.748 553.506L687.496 556.714V623.633H695.739V580.548V485.212V344.5V457.712L698.029 467.337V542.964V623.633L699.861 616.299L703.525 623.633H706.73L710.853 618.132V333.5V442.128L713.6 620.882L716.806 625.008L719.554 620.882L720.929 618.132L720.022 506.296L720.219 530.588L722.759 608.507V620.882L726 628" stroke="#C726AD" stroke-width="3"/>
<path d="M574.241 828.79C574.241 830.176 574.381 831.456 574.661 832.63C574.941 833.803 575.335 834.843 575.841 835.75C576.348 836.643 576.948 837.37 577.641 837.93C578.335 838.49 579.101 838.856 579.941 839.03L580.461 837.93C579.621 837.756 578.881 837.27 578.241 836.47C577.615 835.67 577.128 834.616 576.781 833.31C576.435 832.003 576.261 830.51 576.261 828.83C576.261 827.163 576.441 825.67 576.801 824.35C577.161 823.016 577.661 821.93 578.301 821.09C578.955 820.25 579.708 819.73 580.561 819.53L580.141 818.55C579.261 818.763 578.455 819.17 577.721 819.77C577.001 820.37 576.381 821.123 575.861 822.03C575.341 822.936 574.941 823.963 574.661 825.11C574.381 826.243 574.241 827.47 574.241 828.79ZM584.763 838.25L586.703 838.63V839.45H581.283V838.63L582.823 838.25V826.25L581.283 825.87V825.05H584.163L584.463 826.59C584.89 825.923 585.37 825.47 585.903 825.23C586.45 824.976 587.063 824.85 587.743 824.85C588.423 824.85 589.037 824.95 589.583 825.15C590.143 825.35 590.597 825.67 590.943 826.11C591.343 826.616 591.657 827.23 591.883 827.95C592.123 828.656 592.243 829.423 592.243 830.25C592.243 831.103 592.11 831.91 591.843 832.67C591.59 833.416 591.243 834.043 590.803 834.55C590.057 835.416 588.983 835.85 587.583 835.85C587.01 835.85 586.49 835.743 586.023 835.53C585.57 835.303 585.15 834.916 584.763 834.37V838.25ZM584.743 830.27C584.743 831.056 584.803 831.743 584.923 832.33C585.043 832.916 585.217 833.39 585.443 833.75C585.657 834.083 585.917 834.343 586.223 834.53C586.543 834.716 586.95 834.81 587.443 834.81C587.897 834.81 588.29 834.73 588.623 834.57C588.97 834.396 589.25 834.163 589.463 833.87C589.703 833.536 589.877 833.07 589.983 832.47C590.09 831.87 590.143 831.183 590.143 830.41C590.143 829.623 590.083 828.943 589.963 828.37C589.843 827.796 589.67 827.323 589.443 826.95C589.23 826.603 588.963 826.343 588.643 826.17C588.337 825.983 587.93 825.89 587.423 825.89C586.97 825.89 586.57 825.97 586.223 826.13C585.89 826.276 585.63 826.503 585.443 826.81C585.23 827.17 585.057 827.643 584.923 828.23C584.803 828.803 584.743 829.483 584.743 830.27ZM597.146 838.25L599.086 838.63V839.45H593.666V838.63L595.206 838.25V826.25L593.666 825.87V825.05H596.546L596.846 826.59C597.273 825.923 597.753 825.47 598.286 825.23C598.833 824.976 599.446 824.85 600.126 824.85C600.806 824.85 601.419 824.95 601.966 825.15C602.526 825.35 602.979 825.67 603.326 826.11C603.726 826.616 604.039 827.23 604.266 827.95C604.506 828.656 604.626 829.423 604.626 830.25C604.626 831.103 604.493 831.91 604.226 832.67C603.973 833.416 603.626 834.043 603.186 834.55C602.439 835.416 601.366 835.85 599.966 835.85C599.393 835.85 598.873 835.743 598.406 835.53C597.953 835.303 597.533 834.916 597.146 834.37V838.25ZM597.126 830.27C597.126 831.056 597.186 831.743 597.306 832.33C597.426 832.916 597.599 833.39 597.826 833.75C598.039 834.083 598.299 834.343 598.606 834.53C598.926 834.716 599.333 834.81 599.826 834.81C600.279 834.81 600.673 834.73 601.006 834.57C601.353 834.396 601.633 834.163 601.846 833.87C602.086 833.536 602.259 833.07 602.366 832.47C602.473 831.87 602.526 831.183 602.526 830.41C602.526 829.623 602.466 828.943 602.346 828.37C602.226 827.796 602.053 827.323 601.826 826.95C601.613 826.603 601.346 826.343 601.026 826.17C600.719 825.983 600.313 825.89 599.806 825.89C599.353 825.89 598.953 825.97 598.606 826.13C598.273 826.276 598.013 826.503 597.826 826.81C597.613 827.17 597.439 827.643 597.306 828.23C597.186 828.803 597.126 829.483 597.126 830.27ZM607.809 834.65V826.25L606.269 825.87V825.05H609.149L609.589 827.05H609.669C610.055 826.383 610.569 825.85 611.209 825.45C611.862 825.05 612.555 824.85 613.289 824.85C613.835 824.85 614.322 824.956 614.749 825.17C615.175 825.37 615.489 825.623 615.689 825.93C615.902 826.263 616.075 826.703 616.209 827.25C616.635 826.503 617.189 825.916 617.869 825.49C618.549 825.063 619.275 824.85 620.049 824.85C620.582 824.85 621.062 824.956 621.489 825.17C621.915 825.37 622.242 825.65 622.469 826.01C622.629 826.263 622.755 826.59 622.849 826.99C622.942 827.39 623.009 827.91 623.049 828.55C623.089 829.176 623.109 829.976 623.109 830.95V834.65L624.649 835.03V835.85H619.829V835.03L621.169 834.65V830.19C621.169 829.323 621.142 828.676 621.089 828.25C621.049 827.823 620.969 827.49 620.849 827.25C620.689 826.93 620.462 826.69 620.169 826.53C619.889 826.356 619.555 826.27 619.169 826.27C618.835 826.27 618.509 826.336 618.189 826.47C617.869 826.603 617.582 826.783 617.329 827.01C617.035 827.276 616.815 827.59 616.669 827.95C616.535 828.31 616.455 828.763 616.429 829.31V834.65L617.769 835.03V835.85H613.149V835.03L614.489 834.65V830.19C614.489 829.323 614.462 828.676 614.409 828.25C614.369 827.823 614.289 827.49 614.169 827.25C614.009 826.93 613.782 826.69 613.489 826.53C613.209 826.356 612.875 826.27 612.489 826.27C612.155 826.27 611.829 826.336 611.509 826.47C611.189 826.603 610.902 826.783 610.649 827.01C610.355 827.276 610.135 827.59 609.989 827.95C609.855 828.31 609.775 828.763 609.749 829.31V834.65L611.089 835.03V835.85H606.269V835.03L607.809 834.65ZM630.995 828.79C630.995 827.47 630.855 826.243 630.575 825.11C630.295 823.963 629.895 822.936 629.375 822.03C628.855 821.123 628.228 820.37 627.495 819.77C626.775 819.17 625.975 818.763 625.095 818.55L624.675 819.53C625.542 819.73 626.295 820.25 626.935 821.09C627.575 821.93 628.075 823.016 628.435 824.35C628.795 825.67 628.975 827.163 628.975 828.83C628.975 830.51 628.795 832.003 628.435 833.31C628.088 834.616 627.602 835.67 626.975 836.47C626.348 837.27 625.615 837.756 624.775 837.93L625.295 839.03C626.135 838.856 626.902 838.49 627.595 837.93C628.288 837.37 628.888 836.643 629.395 835.75C629.902 834.843 630.295 833.803 630.575 832.63C630.855 831.456 630.995 830.176 630.995 828.79Z" fill="white"/>
<path d="M546.842 824.64C546.842 823.802 547.171 823.13 547.829 822.623C548.487 822.112 549.399 821.856 550.563 821.856C551.075 821.856 551.532 821.899 551.934 821.984C552.341 822.069 552.765 822.197 553.205 822.367V824.044C552.921 823.93 552.535 823.807 552.048 823.674C551.56 823.542 551.075 823.475 550.592 823.475C550.024 823.475 549.588 823.584 549.285 823.802C548.982 824.015 548.83 824.29 548.83 824.626C548.83 824.796 548.885 824.981 548.994 825.18C549.107 825.379 549.318 825.585 549.626 825.798C549.938 826.011 550.393 826.226 550.99 826.444C552.424 826.955 553.468 827.666 554.122 828.575C554.78 829.484 555.109 830.592 555.109 831.899V832.098C555.109 833.073 554.919 833.951 554.541 834.732C554.167 835.514 553.627 836.132 552.921 836.586C552.221 837.041 551.378 837.268 550.393 837.268C549.389 837.268 548.532 837.041 547.822 836.586C547.116 836.132 546.577 835.514 546.203 834.732C545.833 833.951 545.649 833.073 545.649 832.098V831.899C545.649 831.141 545.793 830.447 546.082 829.818C546.371 829.188 546.757 828.66 547.24 828.234C547.722 827.808 548.253 827.524 548.83 827.382V827.325C548.22 827.083 547.734 826.733 547.374 826.274C547.019 825.814 546.842 825.27 546.842 824.64ZM547.609 831.899V832.098C547.609 832.751 547.706 833.352 547.9 833.901C548.099 834.446 548.402 834.884 548.809 835.215C549.221 835.542 549.749 835.705 550.393 835.705C551.027 835.705 551.548 835.542 551.955 835.215C552.363 834.884 552.663 834.446 552.857 833.901C553.052 833.352 553.149 832.751 553.149 832.098V831.899C553.149 831.368 553.035 830.845 552.808 830.329C552.58 829.808 552.261 829.358 551.849 828.98C551.437 828.596 550.952 828.348 550.393 828.234C549.749 828.234 549.221 828.404 548.809 828.745C548.402 829.081 548.099 829.529 547.9 830.088C547.706 830.642 547.609 831.245 547.609 831.899Z" fill="white"/>
<defs>
<filter id="filter0_d_676_5009" x="141" y="475.5" width="886" height="161.5" filterUnits="userSpaceOnUse" color-interpolation-filters="sRGB">
<feFlood flood-opacity="0" result="BackgroundImageFix"/>
<feColorMatrix in="SourceAlpha" type="matrix" values="0 0 0 0 0 0 0 0 0 0 0 0 0 0 0 0 0 0 127 0" result="hardAlpha"/>
<feOffset dy="4"/>
<feGaussianBlur stdDeviation="2"/>
<feComposite in2="hardAlpha" operator="out"/>
<feColorMatrix type="matrix" values="0 0 0 0 0 0 0 0 0 0 0 0 0 0 0 0 0 0 0.25 0"/>
<feBlend mode="normal" in2="BackgroundImageFix" result="effect1_dropShadow_676_5009"/>
<feBlend mode="normal" in="SourceGraphic" in2="effect1_dropShadow_676_5009" result="shape"/>
</filter>
</defs>
</svg>
