<svg width="1123" height="901" viewBox="0 0 1123 901" fill="none" xmlns="http://www.w3.org/2000/svg">
<rect width="1122" height="900" transform="translate(0.359375 0.25)" fill="#0C0C31"/>
<g filter="url(#filter0_d_854_8528)">
<path d="M727.113 639.597L795.351 639.646H810.922L813.67 622.18V536.011L815.501 530.97V488.802V525.928L817.333 523.636L818.707 639.646H826.035H830.156H897.936M152.359 639.646L685.438 639.597M946.023 639.646H984.493H1022.96" stroke="#C3FA50" stroke-width="3"/>
</g>
<path d="M899.359 641.25L904.898 613.274V389.921L907.206 621.848L910.436 624.104L913.667 638.994H918.282V624.104L920.59 615.982V566.799M915.975 123.25L920.59 566.799M947.359 638.994H941.821H938.129L933.975 630.421L931.667 419.701L933.975 624.104V628.165L931.667 638.994L929.359 636.738L924.282 634.482V628.165L920.59 566.799" stroke="#C3FA50" stroke-width="3"/>
<path d="M684.064 639.597L685.439 639.139L686.812 637.764V619.888V581.387L685.439 550.678L686.812 567.637L689.56 570.845V637.764H697.804V594.679V499.343V358.631V471.842L700.093 481.468V557.095V637.764L701.925 630.43L705.589 637.764H708.795L712.918 632.263V347.631V456.259L715.664 635.013L718.87 639.139L721.618 635.013L722.993 632.263L722.087 520.427L722.283 544.719L724.824 622.638V635.013L727.572 639.597" stroke="#C3FA50" stroke-width="3"/>
<path d="M145.193 681.584L1025.19 681.584" stroke="white" stroke-width="2"/>
<line x1="588.502" y1="681.446" x2="588.502" y2="703.717" stroke="white" stroke-width="2"/>
<line x1="411.49" y1="681.446" x2="411.49" y2="703.717" stroke="white" stroke-width="2"/>
<line x1="234.477" y1="681.446" x2="234.477" y2="703.717" stroke="white" stroke-width="2"/>
<line x1="144.791" y1="680.332" x2="144.791" y2="702.603" stroke="white" stroke-width="2"/>
<line x1="855.201" y1="681.446" x2="855.201" y2="703.717" stroke="white" stroke-width="2"/>
<line x1="678.188" y1="681.446" x2="678.188" y2="703.717" stroke="white" stroke-width="2"/>
<line x1="501.176" y1="681.446" x2="501.176" y2="703.717" stroke="white" stroke-width="2"/>
<line x1="322.984" y1="681.446" x2="322.984" y2="703.717" stroke="white" stroke-width="2"/>
<line x1="944.887" y1="681.446" x2="944.887" y2="703.717" stroke="white" stroke-width="2"/>
<line x1="1023.95" y1="681.446" x2="1023.95" y2="703.717" stroke="white" stroke-width="2"/>
<line x1="766.695" y1="681.446" x2="766.695" y2="703.717" stroke="white" stroke-width="2"/>
<path d="M223.416 724.79C223.416 725.723 223.636 726.497 224.076 727.11C224.516 727.71 225.222 728.01 226.196 728.01C226.662 728.01 227.169 727.857 227.716 727.55C228.276 727.243 228.802 726.75 229.296 726.07C229.216 724.723 228.902 723.637 228.356 722.81C227.822 721.983 227.036 721.57 225.996 721.57C225.516 721.57 225.076 721.717 224.676 722.01C224.289 722.29 223.982 722.67 223.756 723.15C223.529 723.63 223.416 724.177 223.416 724.79ZM225.496 734.07C224.909 734.07 224.389 733.957 223.936 733.73C223.496 733.503 223.116 733.203 222.796 732.83L223.336 732.23C223.616 732.577 223.942 732.843 224.316 733.03C224.702 733.203 225.102 733.29 225.516 733.29C226.196 733.29 226.822 733.09 227.396 732.69C227.969 732.29 228.429 731.63 228.776 730.71C229.136 729.79 229.316 728.55 229.316 726.99C228.876 727.523 228.376 727.95 227.816 728.27C227.256 728.59 226.676 728.75 226.076 728.75C224.969 728.75 224.102 728.417 223.476 727.75C222.849 727.07 222.536 726.083 222.536 724.79C222.536 724.017 222.696 723.33 223.016 722.73C223.336 722.13 223.762 721.663 224.296 721.33C224.829 720.983 225.409 720.81 226.036 720.81C227.302 720.81 228.309 721.33 229.056 722.37C229.816 723.397 230.196 724.883 230.196 726.83C230.196 728.617 229.976 730.043 229.536 731.11C229.096 732.163 228.516 732.923 227.796 733.39C227.089 733.843 226.322 734.07 225.496 734.07ZM233.446 734.07C233.233 734.07 233.033 733.99 232.846 733.83C232.673 733.67 232.586 733.45 232.586 733.17C232.586 732.877 232.673 732.65 232.846 732.49C233.033 732.33 233.233 732.25 233.446 732.25C233.673 732.25 233.866 732.33 234.026 732.49C234.199 732.65 234.286 732.877 234.286 733.17C234.286 733.45 234.199 733.67 234.026 733.83C233.866 733.99 233.673 734.07 233.446 734.07ZM240.401 734.07C239.188 734.07 238.248 733.49 237.581 732.33C236.914 731.17 236.581 729.523 236.581 727.39C236.581 725.27 236.914 723.643 237.581 722.51C238.248 721.377 239.188 720.81 240.401 720.81C241.628 720.81 242.568 721.377 243.221 722.51C243.888 723.643 244.221 725.27 244.221 727.39C244.221 729.523 243.888 731.17 243.221 732.33C242.568 733.49 241.628 734.07 240.401 734.07ZM240.401 733.31C241.294 733.31 242.001 732.81 242.521 731.81C243.054 730.81 243.321 729.337 243.321 727.39C243.321 725.443 243.054 723.99 242.521 723.03C242.001 722.057 241.294 721.57 240.401 721.57C239.521 721.57 238.814 722.057 238.281 723.03C237.748 723.99 237.481 725.443 237.481 727.39C237.481 729.337 237.748 730.81 238.281 731.81C238.814 732.81 239.521 733.31 240.401 733.31Z" fill="white"/>
<path d="M128.95 733.83V733.05H131.95V722.45H129.67V721.85C130.19 721.757 130.656 721.643 131.07 721.51C131.483 721.377 131.836 721.223 132.13 721.05H132.85V733.05H135.63V733.83H128.95ZM141.62 734.07C140.407 734.07 139.467 733.49 138.8 732.33C138.133 731.17 137.8 729.523 137.8 727.39C137.8 725.27 138.133 723.643 138.8 722.51C139.467 721.377 140.407 720.81 141.62 720.81C142.847 720.81 143.787 721.377 144.44 722.51C145.107 723.643 145.44 725.27 145.44 727.39C145.44 729.523 145.107 731.17 144.44 732.33C143.787 733.49 142.847 734.07 141.62 734.07ZM141.62 733.31C142.513 733.31 143.22 732.81 143.74 731.81C144.273 730.81 144.54 729.337 144.54 727.39C144.54 725.443 144.273 723.99 143.74 723.03C143.22 722.057 142.513 721.57 141.62 721.57C140.74 721.57 140.033 722.057 139.5 723.03C138.967 723.99 138.7 725.443 138.7 727.39C138.7 729.337 138.967 730.81 139.5 731.81C140.033 732.81 140.74 733.31 141.62 733.31ZM148.61 734.07C148.397 734.07 148.197 733.99 148.01 733.83C147.837 733.67 147.75 733.45 147.75 733.17C147.75 732.877 147.837 732.65 148.01 732.49C148.197 732.33 148.397 732.25 148.61 732.25C148.837 732.25 149.03 732.33 149.19 732.49C149.363 732.65 149.45 732.877 149.45 733.17C149.45 733.45 149.363 733.67 149.19 733.83C149.03 733.99 148.837 734.07 148.61 734.07ZM155.565 734.07C154.352 734.07 153.412 733.49 152.745 732.33C152.078 731.17 151.745 729.523 151.745 727.39C151.745 725.27 152.078 723.643 152.745 722.51C153.412 721.377 154.352 720.81 155.565 720.81C156.792 720.81 157.732 721.377 158.385 722.51C159.052 723.643 159.385 725.27 159.385 727.39C159.385 729.523 159.052 731.17 158.385 732.33C157.732 733.49 156.792 734.07 155.565 734.07ZM155.565 733.31C156.458 733.31 157.165 732.81 157.685 731.81C158.218 730.81 158.485 729.337 158.485 727.39C158.485 725.443 158.218 723.99 157.685 723.03C157.165 722.057 156.458 721.57 155.565 721.57C154.685 721.57 153.978 722.057 153.445 723.03C152.912 723.99 152.645 725.443 152.645 727.39C152.645 729.337 152.912 730.81 153.445 731.81C153.978 732.81 154.685 733.31 155.565 733.31Z" fill="white"/>
<path d="M316.221 732.957C315.448 732.957 314.755 732.803 314.141 732.497C313.528 732.19 313.041 731.77 312.681 731.237C312.335 730.703 312.161 730.103 312.161 729.437C312.161 728.863 312.288 728.343 312.541 727.877C312.808 727.41 313.135 727.01 313.521 726.677C313.921 726.33 314.321 726.05 314.721 725.837V725.757C314.255 725.45 313.828 725.057 313.441 724.577C313.068 724.083 312.881 723.497 312.881 722.817C312.881 722.203 313.028 721.663 313.321 721.197C313.628 720.73 314.035 720.363 314.541 720.097C315.048 719.83 315.608 719.697 316.221 719.697C317.315 719.697 318.161 720.017 318.761 720.657C319.375 721.283 319.681 722.077 319.681 723.037C319.681 723.503 319.581 723.95 319.381 724.377C319.181 724.79 318.941 725.163 318.661 725.497C318.381 725.817 318.115 726.077 317.861 726.277V726.357C318.235 726.583 318.588 726.843 318.921 727.137C319.268 727.417 319.548 727.757 319.761 728.157C319.988 728.557 320.101 729.043 320.101 729.617C320.101 730.23 319.935 730.79 319.601 731.297C319.281 731.803 318.828 732.21 318.241 732.517C317.668 732.81 316.995 732.957 316.221 732.957ZM317.161 726.017C317.708 725.577 318.121 725.11 318.401 724.617C318.695 724.123 318.841 723.603 318.841 723.057C318.841 722.35 318.608 721.737 318.141 721.217C317.688 720.697 317.048 720.437 316.221 720.437C315.515 720.437 314.928 720.663 314.461 721.117C313.995 721.557 313.761 722.123 313.761 722.817C313.761 723.417 313.928 723.917 314.261 724.317C314.595 724.703 315.021 725.03 315.541 725.297C316.061 725.55 316.601 725.79 317.161 726.017ZM316.221 732.217C317.128 732.217 317.848 731.963 318.381 731.457C318.928 730.95 319.201 730.33 319.201 729.597C319.201 728.943 319.015 728.417 318.641 728.017C318.268 727.603 317.781 727.257 317.181 726.977C316.595 726.697 315.968 726.43 315.301 726.177C314.648 726.55 314.108 727.003 313.681 727.537C313.255 728.07 313.041 728.69 313.041 729.397C313.041 729.93 313.175 730.41 313.441 730.837C313.721 731.25 314.101 731.583 314.581 731.837C315.061 732.09 315.608 732.217 316.221 732.217ZM323.132 732.957C322.918 732.957 322.718 732.877 322.532 732.717C322.358 732.557 322.272 732.337 322.272 732.057C322.272 731.763 322.358 731.537 322.532 731.377C322.718 731.217 322.918 731.137 323.132 731.137C323.358 731.137 323.552 731.217 323.712 731.377C323.885 731.537 323.972 731.763 323.972 732.057C323.972 732.337 323.885 732.557 323.712 732.717C323.552 732.877 323.358 732.957 323.132 732.957ZM330.087 732.957C328.873 732.957 327.933 732.377 327.267 731.217C326.6 730.057 326.267 728.41 326.267 726.277C326.267 724.157 326.6 722.53 327.267 721.397C327.933 720.263 328.873 719.697 330.087 719.697C331.313 719.697 332.253 720.263 332.907 721.397C333.573 722.53 333.907 724.157 333.907 726.277C333.907 728.41 333.573 730.057 332.907 731.217C332.253 732.377 331.313 732.957 330.087 732.957ZM330.087 732.197C330.98 732.197 331.687 731.697 332.207 730.697C332.74 729.697 333.007 728.223 333.007 726.277C333.007 724.33 332.74 722.877 332.207 721.917C331.687 720.943 330.98 720.457 330.087 720.457C329.207 720.457 328.5 720.943 327.967 721.917C327.433 722.877 327.167 724.33 327.167 726.277C327.167 728.223 327.433 729.697 327.967 730.697C328.5 731.697 329.207 732.197 330.087 732.197Z" fill="white"/>
<path d="M404.809 732.717C404.875 730.997 405.049 729.457 405.329 728.097C405.609 726.737 406.022 725.47 406.569 724.297C407.115 723.11 407.815 721.917 408.669 720.717H401.929V719.937H409.789V720.457C409.029 721.47 408.395 722.45 407.889 723.397C407.395 724.33 407.002 725.277 406.709 726.237C406.415 727.197 406.195 728.203 406.049 729.257C405.915 730.31 405.822 731.463 405.769 732.717H404.809ZM412.819 732.957C412.606 732.957 412.406 732.877 412.219 732.717C412.046 732.557 411.959 732.337 411.959 732.057C411.959 731.763 412.046 731.537 412.219 731.377C412.406 731.217 412.606 731.137 412.819 731.137C413.046 731.137 413.239 731.217 413.399 731.377C413.572 731.537 413.659 731.763 413.659 732.057C413.659 732.337 413.572 732.557 413.399 732.717C413.239 732.877 413.046 732.957 412.819 732.957ZM419.774 732.957C418.561 732.957 417.621 732.377 416.954 731.217C416.287 730.057 415.954 728.41 415.954 726.277C415.954 724.157 416.287 722.53 416.954 721.397C417.621 720.263 418.561 719.697 419.774 719.697C421.001 719.697 421.941 720.263 422.594 721.397C423.261 722.53 423.594 724.157 423.594 726.277C423.594 728.41 423.261 730.057 422.594 731.217C421.941 732.377 421.001 732.957 419.774 732.957ZM419.774 732.197C420.667 732.197 421.374 731.697 421.894 730.697C422.427 729.697 422.694 728.223 422.694 726.277C422.694 724.33 422.427 722.877 421.894 721.917C421.374 720.943 420.667 720.457 419.774 720.457C418.894 720.457 418.187 720.943 417.654 721.917C417.121 722.877 416.854 724.33 416.854 726.277C416.854 728.223 417.121 729.697 417.654 730.697C418.187 731.697 418.894 732.197 419.774 732.197Z" fill="white"/>
<path d="M493.435 725.757C492.982 725.757 492.482 725.903 491.935 726.197C491.388 726.477 490.855 726.97 490.335 727.677C490.415 729.023 490.722 730.117 491.255 730.957C491.788 731.783 492.575 732.197 493.615 732.197C494.108 732.197 494.548 732.057 494.935 731.777C495.322 731.483 495.628 731.097 495.855 730.617C496.082 730.123 496.195 729.57 496.195 728.957C496.195 728.037 495.975 727.277 495.535 726.677C495.108 726.063 494.408 725.757 493.435 725.757ZM493.595 732.957C492.315 732.957 491.295 732.437 490.535 731.397C489.788 730.343 489.415 728.85 489.415 726.917C489.415 725.57 489.542 724.437 489.795 723.517C490.048 722.597 490.395 721.857 490.835 721.297C491.275 720.737 491.775 720.33 492.335 720.077C492.908 719.823 493.502 719.697 494.115 719.697C494.715 719.697 495.228 719.81 495.655 720.037C496.095 720.263 496.482 720.563 496.815 720.937L496.275 721.537C495.995 721.19 495.668 720.93 495.295 720.757C494.922 720.57 494.528 720.477 494.115 720.477C493.435 720.477 492.802 720.677 492.215 721.077C491.642 721.477 491.182 722.137 490.835 723.057C490.488 723.977 490.315 725.217 490.315 726.777C490.755 726.23 491.255 725.797 491.815 725.477C492.375 725.157 492.948 724.997 493.535 724.997C494.655 724.997 495.528 725.337 496.155 726.017C496.782 726.683 497.095 727.663 497.095 728.957C497.095 729.73 496.935 730.417 496.615 731.017C496.295 731.617 495.868 732.09 495.335 732.437C494.815 732.783 494.235 732.957 493.595 732.957ZM500.145 732.957C499.932 732.957 499.732 732.877 499.545 732.717C499.372 732.557 499.285 732.337 499.285 732.057C499.285 731.763 499.372 731.537 499.545 731.377C499.732 731.217 499.932 731.137 500.145 731.137C500.372 731.137 500.565 731.217 500.725 731.377C500.899 731.537 500.985 731.763 500.985 732.057C500.985 732.337 500.899 732.557 500.725 732.717C500.565 732.877 500.372 732.957 500.145 732.957ZM507.1 732.957C505.887 732.957 504.947 732.377 504.28 731.217C503.614 730.057 503.28 728.41 503.28 726.277C503.28 724.157 503.614 722.53 504.28 721.397C504.947 720.263 505.887 719.697 507.1 719.697C508.327 719.697 509.267 720.263 509.92 721.397C510.587 722.53 510.92 724.157 510.92 726.277C510.92 728.41 510.587 730.057 509.92 731.217C509.267 732.377 508.327 732.957 507.1 732.957ZM507.1 732.197C507.994 732.197 508.7 731.697 509.22 730.697C509.754 729.697 510.02 728.223 510.02 726.277C510.02 724.33 509.754 722.877 509.22 721.917C508.7 720.943 507.994 720.457 507.1 720.457C506.22 720.457 505.514 720.943 504.98 721.917C504.447 722.877 504.18 724.33 504.18 726.277C504.18 728.223 504.447 729.697 504.98 730.697C505.514 731.697 506.22 732.197 507.1 732.197Z" fill="white"/>
<path d="M580.241 732.957C579.561 732.957 578.968 732.87 578.461 732.697C577.968 732.523 577.541 732.303 577.181 732.037C576.821 731.77 576.501 731.503 576.221 731.237L576.721 730.617C577.108 731.003 577.568 731.363 578.101 731.697C578.648 732.017 579.355 732.177 580.221 732.177C580.795 732.177 581.321 732.037 581.801 731.757C582.281 731.463 582.668 731.057 582.961 730.537C583.255 730.017 583.401 729.417 583.401 728.737C583.401 727.71 583.115 726.903 582.541 726.317C581.981 725.73 581.228 725.437 580.281 725.437C579.788 725.437 579.361 725.517 579.001 725.677C578.655 725.823 578.288 726.03 577.901 726.297L577.281 725.917L577.741 719.937H583.641V720.717H578.541L578.141 725.337C578.475 725.137 578.821 724.977 579.181 724.857C579.541 724.723 579.955 724.657 580.421 724.657C581.141 724.657 581.795 724.803 582.381 725.097C582.981 725.377 583.455 725.817 583.801 726.417C584.148 727.003 584.321 727.763 584.321 728.697C584.321 729.603 584.121 730.377 583.721 731.017C583.335 731.643 582.828 732.123 582.201 732.457C581.588 732.79 580.935 732.957 580.241 732.957ZM587.471 732.957C587.258 732.957 587.058 732.877 586.871 732.717C586.698 732.557 586.611 732.337 586.611 732.057C586.611 731.763 586.698 731.537 586.871 731.377C587.058 731.217 587.258 731.137 587.471 731.137C587.698 731.137 587.891 731.217 588.051 731.377C588.225 731.537 588.311 731.763 588.311 732.057C588.311 732.337 588.225 732.557 588.051 732.717C587.891 732.877 587.698 732.957 587.471 732.957ZM594.426 732.957C593.213 732.957 592.273 732.377 591.606 731.217C590.94 730.057 590.606 728.41 590.606 726.277C590.606 724.157 590.94 722.53 591.606 721.397C592.273 720.263 593.213 719.697 594.426 719.697C595.653 719.697 596.593 720.263 597.246 721.397C597.913 722.53 598.246 724.157 598.246 726.277C598.246 728.41 597.913 730.057 597.246 731.217C596.593 732.377 595.653 732.957 594.426 732.957ZM594.426 732.197C595.32 732.197 596.026 731.697 596.546 730.697C597.08 729.697 597.346 728.223 597.346 726.277C597.346 724.33 597.08 722.877 596.546 721.917C596.026 720.943 595.32 720.457 594.426 720.457C593.546 720.457 592.84 720.943 592.306 721.917C591.773 722.877 591.506 724.33 591.506 726.277C591.506 728.223 591.773 729.697 592.306 730.697C592.84 731.697 593.546 732.197 594.426 732.197Z" fill="white"/>
<path d="M666.787 728.137H671.587V723.457C671.587 723.163 671.593 722.797 671.607 722.357C671.633 721.917 671.653 721.55 671.667 721.257H671.587C671.427 721.523 671.26 721.783 671.087 722.037C670.913 722.29 670.733 722.563 670.547 722.857L666.787 728.137ZM671.587 732.717V728.897H665.707V728.377L671.647 719.937H672.447V728.137H674.347V728.897H672.447V732.717H671.587ZM677.157 732.957C676.944 732.957 676.744 732.877 676.557 732.717C676.384 732.557 676.297 732.337 676.297 732.057C676.297 731.763 676.384 731.537 676.557 731.377C676.744 731.217 676.944 731.137 677.157 731.137C677.384 731.137 677.577 731.217 677.737 731.377C677.91 731.537 677.997 731.763 677.997 732.057C677.997 732.337 677.91 732.557 677.737 732.717C677.577 732.877 677.384 732.957 677.157 732.957ZM684.112 732.957C682.899 732.957 681.959 732.377 681.292 731.217C680.625 730.057 680.292 728.41 680.292 726.277C680.292 724.157 680.625 722.53 681.292 721.397C681.959 720.263 682.899 719.697 684.112 719.697C685.339 719.697 686.279 720.263 686.932 721.397C687.599 722.53 687.932 724.157 687.932 726.277C687.932 728.41 687.599 730.057 686.932 731.217C686.279 732.377 685.339 732.957 684.112 732.957ZM684.112 732.197C685.005 732.197 685.712 731.697 686.232 730.697C686.765 729.697 687.032 728.223 687.032 726.277C687.032 724.33 686.765 722.877 686.232 721.917C685.712 720.943 685.005 720.457 684.112 720.457C683.232 720.457 682.525 720.943 681.992 721.917C681.459 722.877 681.192 724.33 681.192 726.277C681.192 728.223 681.459 729.697 681.992 730.697C682.525 731.697 683.232 732.197 684.112 732.197Z" fill="white"/>
<path d="M757.353 732.957C756.673 732.957 756.08 732.87 755.573 732.697C755.066 732.51 754.626 732.277 754.253 731.997C753.893 731.717 753.573 731.437 753.293 731.157L753.813 730.537C754.2 730.95 754.666 731.33 755.213 731.677C755.76 732.01 756.473 732.177 757.353 732.177C758.22 732.177 758.933 731.923 759.493 731.417C760.053 730.897 760.333 730.21 760.333 729.357C760.333 728.477 759.986 727.763 759.293 727.217C758.613 726.67 757.473 726.397 755.873 726.397V725.617C756.86 725.617 757.646 725.497 758.233 725.257C758.82 725.003 759.24 724.663 759.493 724.237C759.746 723.81 759.873 723.343 759.873 722.837C759.873 722.117 759.64 721.543 759.173 721.117C758.706 720.677 758.08 720.457 757.293 720.457C756.706 720.457 756.16 720.597 755.653 720.877C755.16 721.143 754.726 721.47 754.353 721.857L753.833 721.257C754.273 720.83 754.773 720.463 755.333 720.157C755.906 719.85 756.56 719.697 757.293 719.697C757.96 719.697 758.553 719.817 759.073 720.057C759.606 720.297 760.026 720.65 760.333 721.117C760.64 721.57 760.793 722.123 760.793 722.777C760.793 723.617 760.56 724.297 760.093 724.817C759.64 725.323 759.06 725.697 758.353 725.937V726.017C758.886 726.123 759.366 726.33 759.793 726.637C760.233 726.93 760.586 727.303 760.853 727.757C761.12 728.21 761.253 728.737 761.253 729.337C761.253 730.07 761.08 730.71 760.733 731.257C760.386 731.803 759.92 732.223 759.333 732.517C758.746 732.81 758.086 732.957 757.353 732.957ZM764.483 732.957C764.27 732.957 764.07 732.877 763.883 732.717C763.71 732.557 763.623 732.337 763.623 732.057C763.623 731.763 763.71 731.537 763.883 731.377C764.07 731.217 764.27 731.137 764.483 731.137C764.71 731.137 764.903 731.217 765.063 731.377C765.237 731.537 765.323 731.763 765.323 732.057C765.323 732.337 765.237 732.557 765.063 732.717C764.903 732.877 764.71 732.957 764.483 732.957ZM771.438 732.957C770.225 732.957 769.285 732.377 768.618 731.217C767.952 730.057 767.618 728.41 767.618 726.277C767.618 724.157 767.952 722.53 768.618 721.397C769.285 720.263 770.225 719.697 771.438 719.697C772.665 719.697 773.605 720.263 774.258 721.397C774.925 722.53 775.258 724.157 775.258 726.277C775.258 728.41 774.925 730.057 774.258 731.217C773.605 732.377 772.665 732.957 771.438 732.957ZM771.438 732.197C772.332 732.197 773.038 731.697 773.558 730.697C774.092 729.697 774.358 728.223 774.358 726.277C774.358 724.33 774.092 722.877 773.558 721.917C773.038 720.943 772.332 720.457 771.438 720.457C770.558 720.457 769.852 720.943 769.318 721.917C768.785 722.877 768.518 724.33 768.518 726.277C768.518 728.223 768.785 729.697 769.318 730.697C769.852 731.697 770.558 732.197 771.438 732.197Z" fill="white"/>
<path d="M843.22 732.717V732.157C844.62 730.73 845.787 729.497 846.72 728.457C847.654 727.403 848.354 726.463 848.82 725.637C849.287 724.81 849.52 724.03 849.52 723.297C849.52 722.497 849.294 721.823 848.84 721.277C848.4 720.73 847.7 720.457 846.74 720.457C846.167 720.457 845.62 720.617 845.1 720.937C844.594 721.257 844.147 721.657 843.76 722.137L843.18 721.577C843.66 721.043 844.194 720.597 844.78 720.237C845.367 719.877 846.047 719.697 846.82 719.697C847.967 719.697 848.854 720.023 849.48 720.677C850.107 721.33 850.42 722.197 850.42 723.277C850.42 724.117 850.174 724.97 849.68 725.837C849.2 726.703 848.52 727.637 847.64 728.637C846.774 729.637 845.747 730.763 844.56 732.017C844.907 731.99 845.26 731.97 845.62 731.957C845.994 731.93 846.354 731.917 846.7 731.917H851.06V732.717H843.22ZM854.171 732.957C853.957 732.957 853.757 732.877 853.571 732.717C853.397 732.557 853.311 732.337 853.311 732.057C853.311 731.763 853.397 731.537 853.571 731.377C853.757 731.217 853.957 731.137 854.171 731.137C854.397 731.137 854.591 731.217 854.751 731.377C854.924 731.537 855.011 731.763 855.011 732.057C855.011 732.337 854.924 732.557 854.751 732.717C854.591 732.877 854.397 732.957 854.171 732.957ZM861.126 732.957C859.912 732.957 858.972 732.377 858.306 731.217C857.639 730.057 857.306 728.41 857.306 726.277C857.306 724.157 857.639 722.53 858.306 721.397C858.972 720.263 859.912 719.697 861.126 719.697C862.352 719.697 863.292 720.263 863.946 721.397C864.612 722.53 864.946 724.157 864.946 726.277C864.946 728.41 864.612 730.057 863.946 731.217C863.292 732.377 862.352 732.957 861.126 732.957ZM861.126 732.197C862.019 732.197 862.726 731.697 863.246 730.697C863.779 729.697 864.046 728.223 864.046 726.277C864.046 724.33 863.779 722.877 863.246 721.917C862.726 720.943 862.019 720.457 861.126 720.457C860.246 720.457 859.539 720.943 859.006 721.917C858.472 722.877 858.206 724.33 858.206 726.277C858.206 728.223 858.472 729.697 859.006 730.697C859.539 731.697 860.246 732.197 861.126 732.197Z" fill="white"/>
<path d="M938.487 732.717V731.937H941.487V721.337H939.207V720.737C939.727 720.643 940.193 720.53 940.607 720.397C941.02 720.263 941.373 720.11 941.667 719.937H942.387V731.937H945.167V732.717H938.487ZM948.577 732.957C948.364 732.957 948.164 732.877 947.977 732.717C947.804 732.557 947.717 732.337 947.717 732.057C947.717 731.763 947.804 731.537 947.977 731.377C948.164 731.217 948.364 731.137 948.577 731.137C948.804 731.137 948.997 731.217 949.157 731.377C949.33 731.537 949.417 731.763 949.417 732.057C949.417 732.337 949.33 732.557 949.157 732.717C948.997 732.877 948.804 732.957 948.577 732.957ZM955.532 732.957C954.319 732.957 953.379 732.377 952.712 731.217C952.045 730.057 951.712 728.41 951.712 726.277C951.712 724.157 952.045 722.53 952.712 721.397C953.379 720.263 954.319 719.697 955.532 719.697C956.759 719.697 957.699 720.263 958.352 721.397C959.019 722.53 959.352 724.157 959.352 726.277C959.352 728.41 959.019 730.057 958.352 731.217C957.699 732.377 956.759 732.957 955.532 732.957ZM955.532 732.197C956.425 732.197 957.132 731.697 957.652 730.697C958.185 729.697 958.452 728.223 958.452 726.277C958.452 724.33 958.185 722.877 957.652 721.917C957.132 720.943 956.425 720.457 955.532 720.457C954.652 720.457 953.945 720.943 953.412 721.917C952.879 722.877 952.612 724.33 952.612 726.277C952.612 728.223 952.879 729.697 953.412 730.697C953.945 731.697 954.652 732.197 955.532 732.197Z" fill="white"/>
<path d="M1025.37 732.957C1024.16 732.957 1023.22 732.377 1022.55 731.217C1021.89 730.057 1021.55 728.41 1021.55 726.277C1021.55 724.157 1021.89 722.53 1022.55 721.397C1023.22 720.263 1024.16 719.697 1025.37 719.697C1026.6 719.697 1027.54 720.263 1028.19 721.397C1028.86 722.53 1029.19 724.157 1029.19 726.277C1029.19 728.41 1028.86 730.057 1028.19 731.217C1027.54 732.377 1026.6 732.957 1025.37 732.957ZM1025.37 732.197C1026.27 732.197 1026.97 731.697 1027.49 730.697C1028.03 729.697 1028.29 728.223 1028.29 726.277C1028.29 724.33 1028.03 722.877 1027.49 721.917C1026.97 720.943 1026.27 720.457 1025.37 720.457C1024.49 720.457 1023.79 720.943 1023.25 721.917C1022.72 722.877 1022.45 724.33 1022.45 726.277C1022.45 728.223 1022.72 729.697 1023.25 730.697C1023.79 731.697 1024.49 732.197 1025.37 732.197Z" fill="white"/>
<path d="M94.7994 81.49H93.7794L93.4194 79.45H90.0994L90.0994 85.05H96.1394L96.7594 81.79H97.9194L97.9194 86.25H86.2194L86.2194 85.39L88.0994 84.97L88.0994 73.13L86.2194 72.71L86.2194 71.85H97.4794L97.4794 76.09H96.4394L95.7994 73.01H90.0994L90.0994 78.25H93.4194L93.7794 76.21H94.7994L94.7994 81.49ZM99.2308 76.45L99.2308 75.73L101.171 75.45L101.431 72.93L103.111 72.69L103.111 75.45H105.671L105.671 76.45H103.111L103.111 83.59C103.111 84.0433 103.117 84.3567 103.131 84.53C103.144 84.69 103.171 84.8233 103.211 84.93C103.251 85.0233 103.324 85.09 103.431 85.13C103.537 85.1567 103.711 85.17 103.951 85.17H105.351L105.351 85.75C104.711 85.99 104.144 86.1633 103.651 86.27C103.171 86.39 102.784 86.45 102.491 86.45C101.891 86.45 101.504 86.2033 101.331 85.71C101.277 85.55 101.237 85.3433 101.211 85.09C101.184 84.8367 101.171 84.4633 101.171 83.97L101.171 76.45H99.2308ZM114.827 85.05L114.827 80.59C114.827 79.7233 114.801 79.0767 114.747 78.65C114.707 78.2233 114.627 77.89 114.507 77.65C114.187 76.9967 113.601 76.67 112.747 76.67C112.374 76.67 112.014 76.7367 111.667 76.87C111.321 77.0033 111.014 77.1833 110.747 77.41C110.454 77.6633 110.234 77.97 110.087 78.33C109.954 78.6767 109.874 79.11 109.847 79.63L109.847 85.05L111.187 85.43L111.187 86.25H106.367L106.367 85.43L107.907 85.05L107.907 71.85L106.367 71.47L106.367 70.65H109.847L109.847 77.33C110.247 76.69 110.774 76.1833 111.427 75.81C112.094 75.4367 112.807 75.25 113.567 75.25C114.101 75.25 114.581 75.3433 115.007 75.53C115.434 75.7167 115.774 75.9833 116.027 76.33C116.294 76.7033 116.481 77.23 116.587 77.91C116.707 78.5767 116.767 79.4833 116.767 80.63L116.767 85.05L118.307 85.43L118.307 86.25H113.487L113.487 85.43L114.827 85.05ZM119.498 83.91C119.498 82.87 119.985 82.05 120.958 81.45C121.932 80.85 123.545 80.3833 125.798 80.05C125.745 79.2633 125.672 78.65 125.578 78.21C125.485 77.77 125.365 77.4167 125.218 77.15C125.032 76.8033 124.772 76.55 124.438 76.39C124.105 76.2167 123.745 76.13 123.358 76.13C122.985 76.13 122.645 76.1967 122.338 76.33C122.045 76.4633 121.845 76.6433 121.738 76.87C121.925 77.0033 122.058 77.1767 122.138 77.39C122.232 77.6033 122.278 77.8033 122.278 77.99C122.278 78.3233 122.165 78.59 121.938 78.79C121.725 78.9767 121.458 79.07 121.138 79.07C120.818 79.07 120.552 78.9633 120.338 78.75C120.138 78.5367 120.038 78.2367 120.038 77.85C120.038 77.29 120.232 76.8167 120.618 76.43C121.005 76.0433 121.492 75.75 122.078 75.55C122.678 75.35 123.278 75.25 123.878 75.25C124.425 75.25 124.925 75.3367 125.378 75.51C125.845 75.67 126.238 75.91 126.558 76.23C127.385 77.0567 127.798 78.5233 127.798 80.63L127.798 83.53C127.798 84.1833 127.838 84.6367 127.918 84.89C128.012 85.1433 128.205 85.27 128.498 85.27H129.398L129.398 85.87C128.438 86.2567 127.692 86.45 127.158 86.45C126.745 86.45 126.465 86.3033 126.318 86.01C126.185 85.7033 126.118 85.1233 126.118 84.27H126.038C125.625 84.95 125.078 85.4833 124.398 85.87C123.718 86.2567 122.985 86.45 122.198 86.45C121.358 86.45 120.698 86.2233 120.218 85.77C119.738 85.3167 119.498 84.6967 119.498 83.91ZM123.038 85.29C123.412 85.29 123.798 85.1967 124.198 85.01C124.612 84.81 124.958 84.5367 125.238 84.19C125.452 83.9233 125.605 83.61 125.698 83.25C125.805 82.8767 125.858 82.4433 125.858 81.95C125.858 81.7233 125.852 81.5033 125.838 81.29C125.825 81.0633 125.805 80.85 125.778 80.65C124.698 80.8633 123.852 81.0967 123.238 81.35C122.625 81.59 122.192 81.8833 121.938 82.23C121.685 82.5633 121.558 82.9833 121.558 83.49C121.558 84.0633 121.685 84.51 121.938 84.83C122.205 85.1367 122.572 85.29 123.038 85.29ZM131.74 85.05L131.74 76.65L130.2 76.27L130.2 75.45H133.08L133.52 77.45H133.6C134 76.77 134.54 76.2367 135.22 75.85C135.9 75.45 136.627 75.25 137.4 75.25C138.507 75.25 139.327 75.61 139.86 76.33C140.127 76.7033 140.314 77.23 140.42 77.91C140.54 78.5767 140.6 79.4833 140.6 80.63L140.6 85.05L142.14 85.43L142.14 86.25L137.32 86.25L137.32 85.43L138.66 85.05L138.66 80.59C138.66 79.7233 138.634 79.0767 138.58 78.65C138.54 78.2233 138.46 77.89 138.34 77.65C138.18 77.33 137.947 77.09 137.64 76.93C137.347 76.7567 136.994 76.67 136.58 76.67C135.807 76.67 135.14 76.9167 134.58 77.41C134.034 77.9033 133.734 78.67 133.68 79.71L133.68 85.05L135.02 85.43L135.02 86.25H130.2L130.2 85.43L131.74 85.05ZM153.306 80.75C153.306 81.6167 153.173 82.4433 152.906 83.23C152.653 84.0033 152.293 84.6433 151.826 85.15C151.426 85.59 150.933 85.9167 150.346 86.13C149.759 86.3433 149.093 86.45 148.346 86.45C147.613 86.45 146.959 86.35 146.386 86.15C145.813 85.9367 145.326 85.6167 144.926 85.19C144.473 84.6967 144.119 84.09 143.866 83.37C143.626 82.6367 143.506 81.8433 143.506 80.99C143.506 80.1233 143.633 79.2967 143.886 78.51C144.139 77.71 144.506 77.0567 144.986 76.55C145.413 76.0967 145.906 75.77 146.466 75.57C147.039 75.3567 147.693 75.25 148.426 75.25C149.159 75.25 149.819 75.3567 150.406 75.57C150.993 75.77 151.486 76.0833 151.886 76.51C152.353 77.0033 152.706 77.6233 152.946 78.37C153.186 79.1033 153.306 79.8967 153.306 80.75ZM145.646 80.77C145.646 81.5833 145.706 82.29 145.826 82.89C145.959 83.4767 146.139 83.9633 146.366 84.35C146.593 84.6833 146.859 84.9433 147.166 85.13C147.486 85.3167 147.899 85.41 148.406 85.41C149.326 85.41 150.013 85.0967 150.466 84.47C150.706 84.1233 150.879 83.6433 150.986 83.03C151.106 82.4167 151.166 81.71 151.166 80.91C151.166 80.11 151.099 79.41 150.966 78.81C150.846 78.21 150.673 77.7233 150.446 77.35C150.233 77.0033 149.959 76.7433 149.626 76.57C149.306 76.3833 148.893 76.29 148.386 76.29C147.453 76.29 146.779 76.5967 146.366 77.21C145.886 77.9567 145.646 79.1433 145.646 80.77ZM156.327 85.05L156.327 71.85L154.787 71.47L154.787 70.65H158.267L158.267 85.05L159.807 85.43L159.807 86.25H154.787L154.787 85.43L156.327 85.05Z" fill="white"/>
<path d="M115.239 614.51L127.079 614.51L127.499 612.63L128.359 612.63L128.359 618.39L127.499 618.39L127.079 616.51L115.239 616.51L114.819 618.39L113.959 618.39L113.959 612.63L114.819 612.63L115.239 614.51ZM127.159 609.51L118.759 609.51L118.379 611.05L117.559 611.05L117.559 608.17L119.559 607.73L119.559 607.65C118.879 607.25 118.346 606.71 117.959 606.03C117.559 605.35 117.359 604.623 117.359 603.85C117.359 602.743 117.719 601.923 118.439 601.39C118.813 601.123 119.339 600.936 120.019 600.83C120.686 600.71 121.593 600.65 122.739 600.65L127.159 600.65L127.539 599.11L128.359 599.11L128.359 603.93L127.539 603.93L127.159 602.59L122.699 602.59C121.833 602.59 121.186 602.616 120.759 602.67C120.333 602.71 119.999 602.79 119.759 602.91C119.439 603.07 119.199 603.303 119.039 603.61C118.866 603.903 118.779 604.256 118.779 604.67C118.779 605.443 119.026 606.11 119.519 606.67C120.013 607.216 120.779 607.516 121.819 607.57L127.159 607.57L127.539 606.23L128.359 606.23L128.359 611.05L127.539 611.05L127.159 609.51ZM118.559 598.484L117.839 598.484L117.559 596.544L115.039 596.284L114.799 594.604L117.559 594.604L117.559 592.044L118.559 592.044L118.559 594.604L125.699 594.604C126.153 594.604 126.466 594.597 126.639 594.584C126.799 594.571 126.933 594.544 127.039 594.504C127.133 594.464 127.199 594.391 127.239 594.284C127.266 594.177 127.279 594.004 127.279 593.764L127.279 592.364L127.859 592.364C128.099 593.004 128.273 593.571 128.379 594.064C128.499 594.544 128.559 594.931 128.559 595.224C128.559 595.824 128.313 596.211 127.819 596.384C127.659 596.437 127.453 596.477 127.199 596.504C126.946 596.531 126.573 596.544 126.079 596.544L118.559 596.544L118.559 598.484ZM123.079 581.908L123.079 588.888C124.053 588.888 124.859 588.754 125.499 588.488C126.113 588.221 126.553 587.841 126.819 587.348C127.086 586.854 127.219 586.321 127.219 585.748C127.219 585.121 127.093 584.548 126.839 584.028C126.573 583.508 126.213 583.041 125.759 582.628L126.239 581.988C126.879 582.454 127.426 583.021 127.879 583.688C128.333 584.354 128.559 585.214 128.559 586.268C128.559 587.188 128.366 588.001 127.979 588.708C127.579 589.414 126.999 589.954 126.239 590.328C125.826 590.528 125.366 590.674 124.859 590.768C124.353 590.861 123.813 590.908 123.239 590.908C121.373 590.908 119.926 590.481 118.899 589.628C117.873 588.761 117.359 587.588 117.359 586.108C117.359 584.748 117.786 583.701 118.639 582.968C119.479 582.221 120.646 581.848 122.139 581.848C122.273 581.848 122.399 581.854 122.519 581.868C122.626 581.868 122.813 581.881 123.079 581.908ZM118.439 586.228C118.439 587.828 119.659 588.708 122.099 588.868L122.099 583.868L121.439 583.868C120.479 583.868 119.739 584.074 119.219 584.488C118.699 584.888 118.439 585.468 118.439 586.228ZM127.159 578.709L118.759 578.709L118.379 580.249L117.559 580.249L117.559 577.369L119.559 576.929L119.559 576.849C118.879 576.449 118.346 575.909 117.959 575.229C117.559 574.549 117.359 573.822 117.359 573.049C117.359 571.942 117.719 571.122 118.439 570.589C118.813 570.322 119.339 570.135 120.019 570.029C120.686 569.909 121.593 569.849 122.739 569.849L127.159 569.849L127.539 568.309L128.359 568.309L128.359 573.129L127.539 573.129L127.159 571.789L122.699 571.789C121.833 571.789 121.186 571.815 120.759 571.869C120.333 571.909 119.999 571.989 119.759 572.109C119.439 572.269 119.199 572.502 119.039 572.809C118.866 573.102 118.779 573.455 118.779 573.869C118.779 574.642 119.026 575.309 119.519 575.869C120.013 576.415 120.779 576.715 121.819 576.769L127.159 576.769L127.539 575.429L128.359 575.429L128.359 580.249L127.539 580.249L127.159 578.709ZM127.639 562.983C127.639 562.237 127.486 561.63 127.179 561.163C126.873 560.683 126.446 560.443 125.899 560.443C125.459 560.443 125.106 560.59 124.839 560.883C124.573 561.177 124.359 561.543 124.199 561.983C124.026 562.41 123.879 562.843 123.759 563.283C123.586 563.83 123.386 564.357 123.159 564.863C122.919 565.37 122.593 565.783 122.179 566.103C121.766 566.423 121.219 566.583 120.539 566.583C119.579 566.583 118.813 566.237 118.239 565.543C117.653 564.837 117.359 563.857 117.359 562.603C117.359 561.537 117.586 560.697 118.039 560.083C118.479 559.457 119.086 559.143 119.859 559.143C120.273 559.143 120.606 559.237 120.859 559.423C121.099 559.61 121.219 559.877 121.219 560.223C121.219 560.53 121.126 560.783 120.939 560.983C120.753 561.183 120.513 561.283 120.219 561.283C119.966 561.283 119.739 561.217 119.539 561.083C119.326 560.95 119.173 560.777 119.079 560.563C118.799 560.763 118.599 561.023 118.479 561.343C118.346 561.65 118.279 562.05 118.279 562.543C118.279 563.343 118.426 563.943 118.719 564.343C118.999 564.743 119.419 564.943 119.979 564.943C120.379 564.943 120.699 564.85 120.939 564.663C121.166 564.463 121.359 564.177 121.519 563.803C121.679 563.43 121.846 562.97 122.019 562.423C122.153 561.97 122.306 561.523 122.479 561.083C122.639 560.643 122.839 560.243 123.079 559.883C123.319 559.523 123.619 559.237 123.979 559.023C124.339 558.81 124.786 558.703 125.319 558.703C125.999 558.703 126.586 558.89 127.079 559.263C127.559 559.637 127.926 560.15 128.179 560.803C128.433 561.457 128.559 562.21 128.559 563.063C128.559 564.237 128.319 565.183 127.839 565.903C127.359 566.623 126.713 566.983 125.899 566.983C125.473 566.983 125.139 566.89 124.899 566.703C124.646 566.503 124.519 566.223 124.519 565.863C124.519 565.543 124.613 565.277 124.799 565.063C124.986 564.837 125.233 564.723 125.539 564.723C125.793 564.723 126.033 564.797 126.259 564.943C126.486 565.077 126.653 565.243 126.759 565.443C127.013 565.27 127.226 564.963 127.399 564.523C127.559 564.07 127.639 563.557 127.639 562.983ZM118.759 555.545L118.379 557.085L117.559 557.085L117.559 553.605L127.159 553.605L127.539 552.065L128.359 552.065L128.359 557.085L127.539 557.085L127.159 555.545L118.759 555.545ZM114.339 555.825C113.953 555.825 113.646 555.711 113.419 555.485C113.193 555.258 113.079 554.958 113.079 554.585C113.079 554.198 113.193 553.891 113.419 553.665C113.646 553.438 113.953 553.325 114.339 553.325C114.713 553.325 115.013 553.438 115.239 553.665C115.466 553.891 115.579 554.198 115.579 554.585C115.579 554.971 115.473 555.278 115.259 555.505C115.033 555.718 114.726 555.825 114.339 555.825ZM118.559 551.394L117.839 551.394L117.559 549.454L115.039 549.194L114.799 547.514L117.559 547.514L117.559 544.954L118.559 544.954L118.559 547.514L125.699 547.514C126.153 547.514 126.466 547.508 126.639 547.494C126.799 547.481 126.933 547.454 127.039 547.414C127.133 547.374 127.199 547.301 127.239 547.194C127.266 547.088 127.279 546.914 127.279 546.674L127.279 545.274L127.859 545.274C128.099 545.914 128.273 546.481 128.379 546.974C128.499 547.454 128.559 547.841 128.559 548.134C128.559 548.734 128.313 549.121 127.819 549.294C127.659 549.348 127.453 549.388 127.199 549.414C126.946 549.441 126.573 549.454 126.079 549.454L118.559 549.454L118.559 551.394ZM118.759 534.478L127.879 537.798C128.906 538.171 129.733 538.511 130.359 538.818C130.999 539.124 131.459 539.464 131.739 539.838C132.019 540.211 132.159 540.691 132.159 541.278C132.159 541.904 131.993 542.444 131.659 542.898C131.326 543.338 130.906 543.558 130.399 543.558C130.026 543.558 129.713 543.451 129.459 543.238C129.219 543.024 129.099 542.744 129.099 542.398C129.099 542.091 129.179 541.851 129.339 541.678C129.513 541.491 129.746 541.398 130.039 541.398C130.226 541.398 130.406 541.438 130.579 541.518C130.753 541.584 130.906 541.678 131.039 541.798C131.173 541.771 131.259 541.691 131.299 541.558C131.353 541.424 131.379 541.311 131.379 541.218C131.379 541.031 131.333 540.858 131.239 540.698C131.146 540.538 130.946 540.371 130.639 540.198C130.346 540.011 129.879 539.811 129.239 539.598L128.499 539.358L118.759 543.498L118.379 544.698L117.559 544.698L117.559 540.218L118.379 540.058L118.759 541.478L126.599 538.498L126.599 538.418L118.759 535.898L118.379 537.058L117.559 537.058L117.559 533.258L118.379 533.258L118.759 534.478Z" fill="#C3FA50"/>
<path d="M422.093 311.738C422.093 313.259 421.857 314.691 421.385 316.037C420.931 317.365 420.293 318.475 419.471 319.366C418.755 320.135 417.89 320.711 416.877 321.096C415.881 321.463 414.727 321.646 413.417 321.646C412.089 321.646 410.918 321.463 409.904 321.096C408.891 320.729 408.043 320.178 407.362 319.444C406.558 318.606 405.938 317.557 405.501 316.299C405.064 315.023 404.846 313.643 404.846 312.158C404.846 310.638 405.073 309.213 405.527 307.885C405.999 306.54 406.646 305.422 407.467 304.53C408.201 303.744 409.048 303.167 410.009 302.8C410.988 302.433 412.141 302.25 413.469 302.25C414.797 302.25 415.959 302.433 416.955 302.8C417.969 303.15 418.834 303.7 419.55 304.452C420.371 305.29 421 306.348 421.437 307.623C421.874 308.899 422.093 310.271 422.093 311.738ZM407.86 311.634C407.86 313.084 407.982 314.377 408.227 315.513C408.472 316.631 408.821 317.548 409.275 318.265C409.73 318.911 410.298 319.401 410.979 319.733C411.678 320.047 412.534 320.205 413.548 320.205C415.4 320.205 416.763 319.628 417.637 318.475C418.108 317.828 418.467 316.972 418.711 315.906C418.956 314.823 419.078 313.556 419.078 312.105C419.078 310.655 418.956 309.379 418.711 308.279C418.467 307.178 418.108 306.286 417.637 305.605C417.182 304.941 416.597 304.452 415.881 304.137C415.182 303.823 414.352 303.665 413.39 303.665C412.464 303.665 411.661 303.814 410.979 304.111C410.315 304.391 409.756 304.819 409.302 305.395C408.341 306.671 407.86 308.75 407.86 311.634Z" fill="white"/>
<path d="M422.093 311.738C422.093 313.259 421.857 314.691 421.385 316.037C420.931 317.365 420.293 318.475 419.471 319.366C418.755 320.135 417.89 320.711 416.877 321.096C415.881 321.463 414.727 321.646 413.417 321.646C412.089 321.646 410.918 321.463 409.904 321.096C408.891 320.729 408.043 320.178 407.362 319.444C406.558 318.606 405.938 317.557 405.501 316.299C405.064 315.023 404.846 313.643 404.846 312.158C404.846 310.638 405.073 309.213 405.527 307.885C405.999 306.54 406.646 305.422 407.467 304.53C408.201 303.744 409.048 303.167 410.009 302.8C410.988 302.433 412.141 302.25 413.469 302.25C414.797 302.25 415.959 302.433 416.955 302.8C417.969 303.15 418.834 303.7 419.55 304.452C420.371 305.29 421 306.348 421.437 307.623C421.874 308.899 422.093 310.271 422.093 311.738ZM407.86 311.634C407.86 313.084 407.982 314.377 408.227 315.513C408.472 316.631 408.821 317.548 409.275 318.265C409.73 318.911 410.298 319.401 410.979 319.733C411.678 320.047 412.534 320.205 413.548 320.205C415.4 320.205 416.763 319.628 417.637 318.475C418.108 317.828 418.467 316.972 418.711 315.906C418.956 314.823 419.078 313.556 419.078 312.105C419.078 310.655 418.956 309.379 418.711 308.279C418.467 307.178 418.108 306.286 417.637 305.605C417.182 304.941 416.597 304.452 415.881 304.137C415.182 303.823 414.352 303.665 413.39 303.665C412.464 303.665 411.661 303.814 410.979 304.111C410.315 304.391 409.756 304.819 409.302 305.395C408.341 306.671 407.86 308.75 407.86 311.634Z" stroke="black"/>
<path d="M505.009 304.928V320.444L507.211 320.995V322.122H500.186V320.995L502.388 320.444V313.184H493.503V320.444L495.704 320.995V322.122H488.68V320.995L490.881 320.444V304.928L488.68 304.377V303.25H495.704V304.377L493.503 304.928V311.664H502.388V304.928L500.186 304.377V303.25H507.211V304.377L505.009 304.928Z" fill="white"/>
<path d="M505.009 304.928V320.444L507.211 320.995V322.122H500.186V320.995L502.388 320.444V313.184H493.503V320.444L495.704 320.995V322.122H488.68V320.995L490.881 320.444V304.928L488.68 304.377V303.25H495.704V304.377L493.503 304.928V311.664H502.388V304.928L500.186 304.377V303.25H507.211V304.377L505.009 304.928Z" stroke="black"/>
<path d="M248.911 303.709C248.032 303.709 247.279 303.845 246.652 304.115C246.042 304.385 245.522 304.809 245.092 305.385C244.554 306.088 244.133 307.016 243.828 308.169C243.524 309.304 243.371 310.556 243.371 311.926C243.371 313.205 243.506 314.403 243.775 315.52C244.043 316.637 244.42 317.574 244.904 318.331C245.388 319.088 245.971 319.646 246.652 320.007C247.351 320.349 248.22 320.52 249.26 320.52C252.487 320.52 254.36 318.998 254.88 315.953H256.359C255.553 320.151 253.097 322.25 248.991 322.25C246.517 322.25 244.545 321.529 243.075 320.088C242.197 319.223 241.525 318.133 241.059 316.818C240.592 315.502 240.359 314.043 240.359 312.439C240.359 310.619 240.655 308.971 241.247 307.493C241.838 306.016 242.672 304.836 243.748 303.953C245.11 302.818 246.912 302.25 249.153 302.25C250.264 302.25 251.169 302.394 251.869 302.682C252.568 302.971 253.258 303.484 253.939 304.223L254.477 302.52H255.956V308.493H254.316C254.065 306.908 253.482 305.718 252.568 304.926C251.671 304.115 250.452 303.709 248.911 303.709Z" fill="white"/>
<path d="M248.911 303.709C248.032 303.709 247.279 303.845 246.652 304.115C246.042 304.385 245.522 304.809 245.092 305.385C244.554 306.088 244.133 307.016 243.828 308.169C243.524 309.304 243.371 310.556 243.371 311.926C243.371 313.205 243.506 314.403 243.775 315.52C244.043 316.637 244.42 317.574 244.904 318.331C245.388 319.088 245.971 319.646 246.652 320.007C247.351 320.349 248.22 320.52 249.26 320.52C252.487 320.52 254.36 318.998 254.88 315.953H256.359C255.553 320.151 253.097 322.25 248.991 322.25C246.517 322.25 244.545 321.529 243.075 320.088C242.197 319.223 241.525 318.133 241.059 316.818C240.592 315.502 240.359 314.043 240.359 312.439C240.359 310.619 240.655 308.971 241.247 307.493C241.838 306.016 242.672 304.836 243.748 303.953C245.11 302.818 246.912 302.25 249.153 302.25C250.264 302.25 251.169 302.394 251.869 302.682C252.568 302.971 253.258 303.484 253.939 304.223L254.477 302.52H255.956V308.493H254.316C254.065 306.908 253.482 305.718 252.568 304.926C251.671 304.115 250.452 303.709 248.911 303.709Z" stroke="black"/>
<path d="M330.911 303.709C330.032 303.709 329.279 303.845 328.652 304.115C328.042 304.385 327.522 304.809 327.092 305.385C326.554 306.088 326.133 307.016 325.828 308.169C325.524 309.304 325.371 310.556 325.371 311.926C325.371 313.205 325.506 314.403 325.775 315.52C326.043 316.637 326.42 317.574 326.904 318.331C327.388 319.088 327.971 319.646 328.652 320.007C329.351 320.349 330.22 320.52 331.26 320.52C334.487 320.52 336.36 318.998 336.88 315.953H338.359C337.553 320.151 335.097 322.25 330.991 322.25C328.517 322.25 326.545 321.529 325.075 320.088C324.197 319.223 323.525 318.133 323.059 316.818C322.592 315.502 322.359 314.043 322.359 312.439C322.359 310.619 322.655 308.971 323.247 307.493C323.838 306.016 324.672 304.836 325.748 303.953C327.11 302.818 328.912 302.25 331.153 302.25C332.264 302.25 333.169 302.394 333.869 302.682C334.568 302.971 335.258 303.484 335.939 304.223L336.477 302.52H337.956V308.493H336.316C336.065 306.908 335.482 305.718 334.568 304.926C333.671 304.115 332.452 303.709 330.911 303.709Z" fill="white"/>
<path d="M330.911 303.709C330.032 303.709 329.279 303.845 328.652 304.115C328.042 304.385 327.522 304.809 327.092 305.385C326.554 306.088 326.133 307.016 325.828 308.169C325.524 309.304 325.371 310.556 325.371 311.926C325.371 313.205 325.506 314.403 325.775 315.52C326.043 316.637 326.42 317.574 326.904 318.331C327.388 319.088 327.971 319.646 328.652 320.007C329.351 320.349 330.22 320.52 331.26 320.52C334.487 320.52 336.36 318.998 336.88 315.953H338.359C337.553 320.151 335.097 322.25 330.991 322.25C328.517 322.25 326.545 321.529 325.075 320.088C324.197 319.223 323.525 318.133 323.059 316.818C322.592 315.502 322.359 314.043 322.359 312.439C322.359 310.619 322.655 308.971 323.247 307.493C323.838 306.016 324.672 304.836 325.748 303.953C327.11 302.818 328.912 302.25 331.153 302.25C332.264 302.25 333.169 302.394 333.869 302.682C334.568 302.971 335.258 303.484 335.939 304.223L336.477 302.52H337.956V308.493H336.316C336.065 306.908 335.482 305.718 334.568 304.926C333.671 304.115 332.452 303.709 330.911 303.709Z" stroke="black"/>
<path d="M171.689 304.928V320.444L173.891 320.995V322.122H166.866V320.995L169.068 320.444V313.184H160.182V320.444L162.384 320.995V322.122H155.359V320.995L157.561 320.444V304.928L155.359 304.377V303.25H162.384V304.377L160.182 304.928V311.664H169.068V304.928L166.866 304.377V303.25H173.891V304.377L171.689 304.928Z" fill="white"/>
<path d="M171.689 304.928V320.444L173.891 320.995V322.122H166.866V320.995L169.068 320.444V313.184H160.182V320.444L162.384 320.995V322.122H155.359V320.995L157.561 320.444V304.928L155.359 304.377V303.25H162.384V304.377L160.182 304.928V311.664H169.068V304.928L166.866 304.377V303.25H173.891V304.377L171.689 304.928Z" stroke="black"/>
<path d="M254.689 217.928V225.686V233.444L256.891 233.995V235.122H249.866V233.995L252.068 233.444V226.184H243.182V233.444L245.384 233.995V235.122H238.359V233.995L240.561 233.444V217.928L238.359 217.377V216.25H245.384V217.377L243.182 217.928V224.664H252.068V217.928L249.866 217.377V216.25H256.891V217.377L254.689 217.928Z" fill="white"/>
<path d="M254.689 217.928V225.686V233.444L256.891 233.995V235.122H249.866V233.995L252.068 233.444V226.184H243.182V233.444L245.384 233.995V235.122H238.359V233.995L240.561 233.444V217.928L238.359 217.377V216.25H245.384V217.377L243.182 217.928V224.664H252.068V217.928L249.866 217.377V216.25H256.891V217.377L254.689 217.928Z" stroke="black"/>
<path d="M253.689 390.928V398.686V406.444L255.891 406.995V408.122H248.866V406.995L251.068 406.444V399.184H242.182V406.444L244.384 406.995V408.122H237.359V406.995L239.561 406.444V390.928L237.359 390.377V389.25H244.384V390.377L242.182 390.928V397.664H251.068V390.928L248.866 390.377V389.25H255.891V390.377L253.689 390.928Z" fill="white"/>
<path d="M253.689 390.928V398.686V406.444L255.891 406.995V408.122H248.866V406.995L251.068 406.444V399.184H242.182V406.444L244.384 406.995V408.122H237.359V406.995L239.561 406.444V390.928L237.359 390.377V389.25H244.384V390.377L242.182 390.928V397.664H251.068V390.928L248.866 390.377V389.25H255.891V390.377L253.689 390.928Z" stroke="black"/>
<path d="M335.689 390.928V398.686V406.444L337.891 406.995V408.122H330.866V406.995L333.068 406.444V399.184H324.182V406.444L326.384 406.995V408.122H319.359V406.995L321.561 406.444V390.928L319.359 390.377V389.25H326.384V390.377L324.182 390.928V397.664H333.068V390.928L330.866 390.377V389.25H337.891V390.377L335.689 390.928Z" fill="white"/>
<path d="M335.689 390.928V398.686V406.444L337.891 406.995V408.122H330.866V406.995L333.068 406.444V399.184H324.182V406.444L326.384 406.995V408.122H319.359V406.995L321.561 406.444V390.928L319.359 390.377V389.25H326.384V390.377L324.182 390.928V397.664H333.068V390.928L330.866 390.377V389.25H337.891V390.377L335.689 390.928Z" stroke="black"/>
<path d="M336.689 217.928V225.686V233.444L338.891 233.995V235.122H331.866V233.995L334.068 233.444V226.184H325.182V233.444L327.384 233.995V235.122H320.359V233.995L322.561 233.444V217.928L320.359 217.377V216.25H327.384V217.377L325.182 217.928V224.664H334.068V217.928L331.866 217.377V216.25H338.891V217.377L336.689 217.928Z" fill="white"/>
<path d="M336.689 217.928V225.686V233.444L338.891 233.995V235.122H331.866V233.995L334.068 233.444V226.184H325.182V233.444L327.384 233.995V235.122H320.359V233.995L322.561 233.444V217.928L320.359 217.377V216.25H327.384V217.377L325.182 217.928V224.664H334.068V217.928L331.866 217.377V216.25H338.891V217.377L336.689 217.928Z" stroke="black"/>
<line x1="247.859" y1="364.837" x2="247.859" y2="346.25" stroke="white" stroke-width="3"/>
<line x1="329.859" y1="364.837" x2="329.859" y2="346.25" stroke="white" stroke-width="3"/>
<line x1="247.859" y1="259.25" x2="247.859" y2="278.25" stroke="white" stroke-width="3"/>
<line x1="329.859" y1="259.25" x2="329.859" y2="278.25" stroke="white" stroke-width="3"/>
<line x1="197.891" y1="310.75" x2="216.478" y2="310.75" stroke="white" stroke-width="3"/>
<line x1="280.074" y1="310.75" x2="298.661" y2="310.75" stroke="white" stroke-width="3"/>
<line x1="362.258" y1="310.75" x2="380.845" y2="310.75" stroke="white" stroke-width="3"/>
<line x1="446.092" y1="310.75" x2="464.679" y2="310.75" stroke="white" stroke-width="3"/>
<path d="M574.601 828.54C574.601 829.926 574.741 831.206 575.021 832.38C575.301 833.553 575.694 834.593 576.201 835.5C576.707 836.393 577.307 837.12 578.001 837.68C578.694 838.24 579.461 838.606 580.301 838.78L580.821 837.68C579.981 837.506 579.241 837.02 578.601 836.22C577.974 835.42 577.487 834.366 577.141 833.06C576.794 831.753 576.621 830.26 576.621 828.58C576.621 826.913 576.801 825.42 577.161 824.1C577.521 822.766 578.021 821.68 578.661 820.84C579.314 820 580.067 819.48 580.921 819.28L580.501 818.3C579.621 818.513 578.814 818.92 578.081 819.52C577.361 820.12 576.741 820.873 576.221 821.78C575.701 822.686 575.301 823.713 575.021 824.86C574.741 825.993 574.601 827.22 574.601 828.54ZM585.123 838L587.063 838.38V839.2H581.643V838.38L583.183 838V826L581.643 825.62V824.8H584.523L584.823 826.34C585.249 825.673 585.729 825.22 586.263 824.98C586.809 824.726 587.423 824.6 588.103 824.6C588.783 824.6 589.396 824.7 589.943 824.9C590.503 825.1 590.956 825.42 591.303 825.86C591.703 826.366 592.016 826.98 592.243 827.7C592.483 828.406 592.603 829.173 592.603 830C592.603 830.853 592.469 831.66 592.203 832.42C591.949 833.166 591.603 833.793 591.163 834.3C590.416 835.166 589.343 835.6 587.943 835.6C587.369 835.6 586.849 835.493 586.383 835.28C585.929 835.053 585.509 834.666 585.123 834.12V838ZM585.103 830.02C585.103 830.806 585.163 831.493 585.283 832.08C585.403 832.666 585.576 833.14 585.803 833.5C586.016 833.833 586.276 834.093 586.583 834.28C586.903 834.466 587.309 834.56 587.803 834.56C588.256 834.56 588.649 834.48 588.983 834.32C589.329 834.146 589.609 833.913 589.823 833.62C590.063 833.286 590.236 832.82 590.343 832.22C590.449 831.62 590.503 830.933 590.503 830.16C590.503 829.373 590.443 828.693 590.323 828.12C590.203 827.546 590.029 827.073 589.803 826.7C589.589 826.353 589.323 826.093 589.003 825.92C588.696 825.733 588.289 825.64 587.783 825.64C587.329 825.64 586.929 825.72 586.583 825.88C586.249 826.026 585.989 826.253 585.803 826.56C585.589 826.92 585.416 827.393 585.283 827.98C585.163 828.553 585.103 829.233 585.103 830.02ZM597.505 838L599.445 838.38V839.2H594.025V838.38L595.565 838V826L594.025 825.62V824.8H596.905L597.205 826.34C597.632 825.673 598.112 825.22 598.645 824.98C599.192 824.726 599.805 824.6 600.485 824.6C601.165 824.6 601.779 824.7 602.325 824.9C602.885 825.1 603.339 825.42 603.685 825.86C604.085 826.366 604.399 826.98 604.625 827.7C604.865 828.406 604.985 829.173 604.985 830C604.985 830.853 604.852 831.66 604.585 832.42C604.332 833.166 603.985 833.793 603.545 834.3C602.799 835.166 601.725 835.6 600.325 835.6C599.752 835.6 599.232 835.493 598.765 835.28C598.312 835.053 597.892 834.666 597.505 834.12V838ZM597.485 830.02C597.485 830.806 597.545 831.493 597.665 832.08C597.785 832.666 597.959 833.14 598.185 833.5C598.399 833.833 598.659 834.093 598.965 834.28C599.285 834.466 599.692 834.56 600.185 834.56C600.639 834.56 601.032 834.48 601.365 834.32C601.712 834.146 601.992 833.913 602.205 833.62C602.445 833.286 602.619 832.82 602.725 832.22C602.832 831.62 602.885 830.933 602.885 830.16C602.885 829.373 602.825 828.693 602.705 828.12C602.585 827.546 602.412 827.073 602.185 826.7C601.972 826.353 601.705 826.093 601.385 825.92C601.079 825.733 600.672 825.64 600.165 825.64C599.712 825.64 599.312 825.72 598.965 825.88C598.632 826.026 598.372 826.253 598.185 826.56C597.972 826.92 597.799 827.393 597.665 827.98C597.545 828.553 597.485 829.233 597.485 830.02ZM608.168 834.4V826L606.628 825.62V824.8H609.508L609.948 826.8H610.028C610.415 826.133 610.928 825.6 611.568 825.2C612.222 824.8 612.915 824.6 613.648 824.6C614.195 824.6 614.682 824.706 615.108 824.92C615.535 825.12 615.848 825.373 616.048 825.68C616.262 826.013 616.435 826.453 616.568 827C616.995 826.253 617.548 825.666 618.228 825.24C618.908 824.813 619.635 824.6 620.408 824.6C620.942 824.6 621.422 824.706 621.848 824.92C622.275 825.12 622.602 825.4 622.828 825.76C622.988 826.013 623.115 826.34 623.208 826.74C623.302 827.14 623.368 827.66 623.408 828.3C623.448 828.926 623.468 829.726 623.468 830.7V834.4L625.008 834.78V835.6H620.188V834.78L621.528 834.4V829.94C621.528 829.073 621.502 828.426 621.448 828C621.408 827.573 621.328 827.24 621.208 827C621.048 826.68 620.822 826.44 620.528 826.28C620.248 826.106 619.915 826.02 619.528 826.02C619.195 826.02 618.868 826.086 618.548 826.22C618.228 826.353 617.942 826.533 617.688 826.76C617.395 827.026 617.175 827.34 617.028 827.7C616.895 828.06 616.815 828.513 616.788 829.06V834.4L618.128 834.78V835.6H613.508V834.78L614.848 834.4V829.94C614.848 829.073 614.822 828.426 614.768 828C614.728 827.573 614.648 827.24 614.528 827C614.368 826.68 614.142 826.44 613.848 826.28C613.568 826.106 613.235 826.02 612.848 826.02C612.515 826.02 612.188 826.086 611.868 826.22C611.548 826.353 611.262 826.533 611.008 826.76C610.715 827.026 610.495 827.34 610.348 827.7C610.215 828.06 610.135 828.513 610.108 829.06V834.4L611.448 834.78V835.6H606.628V834.78L608.168 834.4ZM631.354 828.54C631.354 827.22 631.214 825.993 630.934 824.86C630.654 823.713 630.254 822.686 629.734 821.78C629.214 820.873 628.588 820.12 627.854 819.52C627.134 818.92 626.334 818.513 625.454 818.3L625.034 819.28C625.901 819.48 626.654 820 627.294 820.84C627.934 821.68 628.434 822.766 628.794 824.1C629.154 825.42 629.334 826.913 629.334 828.58C629.334 830.26 629.154 831.753 628.794 833.06C628.448 834.366 627.961 835.42 627.334 836.22C626.708 837.02 625.974 837.506 625.134 837.68L625.654 838.78C626.494 838.606 627.261 838.24 627.954 837.68C628.648 837.12 629.248 836.393 629.754 835.5C630.261 834.593 630.654 833.553 630.934 832.38C631.214 831.206 631.354 829.926 631.354 828.54Z" fill="white"/>
<path d="M547.201 824.39C547.201 823.552 547.53 822.88 548.188 822.373C548.847 821.862 549.758 821.606 550.923 821.606C551.434 821.606 551.891 821.649 552.294 821.734C552.701 821.819 553.124 821.947 553.565 822.118V823.794C553.281 823.68 552.895 823.557 552.407 823.424C551.919 823.292 551.434 823.226 550.951 823.226C550.383 823.226 549.947 823.334 549.644 823.552C549.341 823.765 549.19 824.04 549.19 824.376C549.19 824.547 549.244 824.731 549.353 824.93C549.467 825.129 549.677 825.335 549.985 825.548C550.298 825.761 550.752 825.977 551.349 826.194C552.784 826.706 553.828 827.416 554.481 828.325C555.139 829.234 555.468 830.342 555.468 831.649V831.848C555.468 832.823 555.279 833.701 554.9 834.483C554.526 835.264 553.986 835.882 553.281 836.336C552.58 836.791 551.737 837.018 550.752 837.018C549.749 837.018 548.892 836.791 548.181 836.336C547.476 835.882 546.936 835.264 546.562 834.483C546.193 833.701 546.008 832.823 546.008 831.848V831.649C546.008 830.891 546.152 830.198 546.441 829.568C546.73 828.938 547.116 828.41 547.599 827.984C548.082 827.558 548.612 827.274 549.19 827.132V827.075C548.579 826.834 548.094 826.483 547.734 826.024C547.379 825.565 547.201 825.02 547.201 824.39ZM547.968 831.649V831.848C547.968 832.501 548.065 833.102 548.259 833.652C548.458 834.196 548.761 834.634 549.169 834.966C549.58 835.292 550.108 835.456 550.752 835.456C551.387 835.456 551.908 835.292 552.315 834.966C552.722 834.634 553.023 834.196 553.217 833.652C553.411 833.102 553.508 832.501 553.508 831.848V831.649C553.508 831.119 553.394 830.595 553.167 830.079C552.94 829.558 552.62 829.109 552.208 828.73C551.796 828.346 551.311 828.098 550.752 827.984C550.108 827.984 549.58 828.155 549.169 828.495C548.761 828.832 548.458 829.279 548.259 829.838C548.065 830.392 547.968 830.995 547.968 831.649Z" fill="white"/>
<path d="M673.775 649.068L682.718 660.48H726.684L737.861 649.068" stroke="#FA5050" stroke-width="3"/>
<path d="M801.141 649.068L805.335 660.48H825.958L831.201 649.068" stroke="#FA5050" stroke-width="3"/>
<path d="M883.359 648.25L894.512 659.662H949.338L963.277 648.25" stroke="#FA5050" stroke-width="3"/>
<defs>
<filter id="filter0_d_854_8528" x="148.359" y="488.802" width="878.604" height="160.344" filterUnits="userSpaceOnUse" color-interpolation-filters="sRGB">
<feFlood flood-opacity="0" result="BackgroundImageFix"/>
<feColorMatrix in="SourceAlpha" type="matrix" values="0 0 0 0 0 0 0 0 0 0 0 0 0 0 0 0 0 0 127 0" result="hardAlpha"/>
<feOffset dy="4"/>
<feGaussianBlur stdDeviation="2"/>
<feComposite in2="hardAlpha" operator="out"/>
<feColorMatrix type="matrix" values="0 0 0 0 0 0 0 0 0 0 0 0 0 0 0 0 0 0 0.25 0"/>
<feBlend mode="normal" in2="BackgroundImageFix" result="effect1_dropShadow_854_8528"/>
<feBlend mode="normal" in="SourceGraphic" in2="effect1_dropShadow_854_8528" result="shape"/>
</filter>
</defs>
</svg>
