<svg width="1123" height="901" viewBox="0 0 1123 901" fill="none" xmlns="http://www.w3.org/2000/svg">
<rect width="1122" height="900" transform="translate(0.210938 0.794922)" fill="#0C0C31"/>
<path d="M94.6509 82.0349H93.6309L93.2709 79.9949H89.9509L89.9509 85.5949H95.9909L96.6109 82.3349H97.7709L97.7709 86.7949H86.0709L86.0709 85.9349L87.9509 85.5149L87.9509 73.6749L86.0709 73.2549L86.0709 72.3949H97.3309L97.3309 76.6349H96.2909L95.6509 73.5549H89.9509L89.9509 78.7949H93.2709L93.6309 76.7549H94.6509L94.6509 82.0349ZM99.0823 76.9949L99.0823 76.2749L101.022 75.9949L101.282 73.4749L102.962 73.2349L102.962 75.9949H105.522L105.522 76.9949H102.962L102.962 84.1349C102.962 84.5883 102.969 84.9016 102.982 85.0749C102.996 85.2349 103.022 85.3683 103.062 85.4749C103.102 85.5683 103.176 85.6349 103.282 85.6749C103.389 85.7016 103.562 85.7149 103.802 85.7149H105.202L105.202 86.2949C104.562 86.5349 103.996 86.7083 103.502 86.8149C103.022 86.9349 102.636 86.9949 102.342 86.9949C101.742 86.9949 101.356 86.7483 101.182 86.2549C101.129 86.0949 101.089 85.8883 101.062 85.6349C101.036 85.3816 101.022 85.0083 101.022 84.5149L101.022 76.9949H99.0823ZM114.679 85.5949L114.679 81.1349C114.679 80.2683 114.652 79.6216 114.599 79.1949C114.559 78.7683 114.479 78.4349 114.359 78.1949C114.039 77.5416 113.452 77.2149 112.599 77.2149C112.225 77.2149 111.865 77.2816 111.519 77.4149C111.172 77.5483 110.865 77.7283 110.599 77.9549C110.305 78.2083 110.085 78.5149 109.939 78.8749C109.805 79.2216 109.725 79.6549 109.699 80.1749L109.699 85.5949L111.039 85.9749L111.039 86.7949H106.219L106.219 85.9749L107.759 85.5949L107.759 72.3949L106.219 72.0149L106.219 71.1949H109.699L109.699 77.8749C110.099 77.2349 110.625 76.7283 111.279 76.3549C111.945 75.9816 112.659 75.7949 113.419 75.7949C113.952 75.7949 114.432 75.8883 114.859 76.0749C115.285 76.2616 115.625 76.5283 115.879 76.8749C116.145 77.2483 116.332 77.7749 116.439 78.4549C116.559 79.1216 116.619 80.0283 116.619 81.1749L116.619 85.5949L118.159 85.9749L118.159 86.7949H113.339L113.339 85.9749L114.679 85.5949ZM119.35 84.4549C119.35 83.4149 119.837 82.5949 120.81 81.9949C121.783 81.3949 123.397 80.9283 125.65 80.5949C125.597 79.8083 125.523 79.1949 125.43 78.7549C125.337 78.3149 125.217 77.9616 125.07 77.6949C124.883 77.3483 124.623 77.0949 124.29 76.9349C123.957 76.7616 123.597 76.6749 123.21 76.6749C122.837 76.6749 122.497 76.7416 122.19 76.8749C121.897 77.0083 121.697 77.1883 121.59 77.4149C121.777 77.5483 121.91 77.7216 121.99 77.9349C122.083 78.1483 122.13 78.3483 122.13 78.5349C122.13 78.8683 122.017 79.1349 121.79 79.3349C121.577 79.5216 121.31 79.6149 120.99 79.6149C120.67 79.6149 120.403 79.5083 120.19 79.2949C119.99 79.0816 119.89 78.7816 119.89 78.3949C119.89 77.8349 120.083 77.3616 120.47 76.9749C120.857 76.5883 121.343 76.2949 121.93 76.0949C122.53 75.8949 123.13 75.7949 123.73 75.7949C124.277 75.7949 124.777 75.8816 125.23 76.0549C125.697 76.2149 126.09 76.4549 126.41 76.7749C127.237 77.6016 127.65 79.0683 127.65 81.1749L127.65 84.0749C127.65 84.7283 127.69 85.1816 127.77 85.4349C127.863 85.6883 128.057 85.8149 128.35 85.8149H129.25L129.25 86.4149C128.29 86.8016 127.543 86.9949 127.01 86.9949C126.597 86.9949 126.317 86.8483 126.17 86.5549C126.037 86.2483 125.97 85.6683 125.97 84.8149H125.89C125.477 85.4949 124.93 86.0283 124.25 86.4149C123.57 86.8016 122.837 86.9949 122.05 86.9949C121.21 86.9949 120.55 86.7683 120.07 86.3149C119.59 85.8616 119.35 85.2416 119.35 84.4549ZM122.89 85.8349C123.263 85.8349 123.65 85.7416 124.05 85.5549C124.463 85.3549 124.81 85.0816 125.09 84.7349C125.303 84.4683 125.457 84.1549 125.55 83.7949C125.657 83.4216 125.71 82.9883 125.71 82.4949C125.71 82.2683 125.703 82.0483 125.69 81.8349C125.677 81.6083 125.657 81.3949 125.63 81.1949C124.55 81.4083 123.703 81.6416 123.09 81.8949C122.477 82.1349 122.043 82.4283 121.79 82.7749C121.537 83.1083 121.41 83.5283 121.41 84.0349C121.41 84.6083 121.537 85.0549 121.79 85.3749C122.057 85.6816 122.423 85.8349 122.89 85.8349ZM131.592 85.5949L131.592 77.1949L130.052 76.8149L130.052 75.9949H132.932L133.372 77.9949H133.452C133.852 77.3149 134.392 76.7816 135.072 76.3949C135.752 75.9949 136.479 75.7949 137.252 75.7949C138.359 75.7949 139.179 76.1549 139.712 76.8749C139.979 77.2483 140.165 77.7749 140.272 78.4549C140.392 79.1216 140.452 80.0283 140.452 81.1749L140.452 85.5949L141.992 85.9749L141.992 86.7949L137.172 86.7949L137.172 85.9749L138.512 85.5949L138.512 81.1349C138.512 80.2683 138.485 79.6216 138.432 79.1949C138.392 78.7683 138.312 78.4349 138.192 78.1949C138.032 77.8749 137.799 77.6349 137.492 77.4749C137.199 77.3016 136.845 77.2149 136.432 77.2149C135.659 77.2149 134.992 77.4616 134.432 77.9549C133.885 78.4483 133.585 79.2149 133.532 80.2549L133.532 85.5949L134.872 85.9749L134.872 86.7949H130.052L130.052 85.9749L131.592 85.5949ZM153.158 81.2949C153.158 82.1616 153.024 82.9883 152.758 83.7749C152.504 84.5483 152.144 85.1883 151.678 85.6949C151.278 86.1349 150.784 86.4616 150.198 86.6749C149.611 86.8883 148.944 86.9949 148.198 86.9949C147.464 86.9949 146.811 86.8949 146.238 86.6949C145.664 86.4816 145.177 86.1616 144.777 85.7349C144.324 85.2416 143.971 84.6349 143.717 83.9149C143.477 83.1816 143.357 82.3883 143.357 81.5349C143.357 80.6683 143.484 79.8416 143.737 79.0549C143.991 78.2549 144.358 77.6016 144.837 77.0949C145.264 76.6416 145.758 76.3149 146.318 76.1149C146.891 75.9016 147.544 75.7949 148.278 75.7949C149.011 75.7949 149.671 75.9016 150.258 76.1149C150.844 76.3149 151.338 76.6283 151.738 77.0549C152.204 77.5483 152.557 78.1683 152.798 78.9149C153.038 79.6483 153.158 80.4416 153.158 81.2949ZM145.498 81.3149C145.498 82.1283 145.558 82.8349 145.677 83.4349C145.811 84.0216 145.991 84.5083 146.218 84.8949C146.444 85.2283 146.711 85.4883 147.018 85.6749C147.338 85.8616 147.751 85.9549 148.258 85.9549C149.178 85.9549 149.864 85.6416 150.318 85.0149C150.558 84.6683 150.731 84.1883 150.838 83.5749C150.958 82.9616 151.018 82.2549 151.018 81.4549C151.018 80.6549 150.951 79.9549 150.818 79.3549C150.698 78.7549 150.524 78.2683 150.298 77.8949C150.084 77.5483 149.811 77.2883 149.478 77.1149C149.158 76.9283 148.744 76.8349 148.238 76.8349C147.304 76.8349 146.631 77.1416 146.218 77.7549C145.738 78.5016 145.498 79.6883 145.498 81.3149ZM156.178 85.5949L156.178 72.3949L154.638 72.0149L154.638 71.1949H158.118L158.118 85.5949L159.658 85.9749L159.658 86.7949H154.638L154.638 85.9749L156.178 85.5949Z" fill="white"/>
<path d="M421.944 312.283C421.944 313.804 421.708 315.236 421.236 316.582C420.782 317.91 420.144 319.02 419.323 319.911C418.607 320.68 417.742 321.256 416.728 321.641C415.732 322.008 414.579 322.191 413.268 322.191C411.94 322.191 410.769 322.008 409.756 321.641C408.742 321.274 407.895 320.723 407.214 319.989C406.41 319.151 405.789 318.102 405.353 316.844C404.916 315.568 404.697 314.188 404.697 312.703C404.697 311.182 404.924 309.758 405.379 308.43C405.851 307.085 406.497 305.966 407.318 305.075C408.052 304.289 408.9 303.712 409.861 303.345C410.839 302.978 411.993 302.795 413.321 302.795C414.649 302.795 415.811 302.978 416.807 303.345C417.82 303.695 418.685 304.245 419.402 304.997C420.223 305.835 420.852 306.893 421.289 308.168C421.726 309.444 421.944 310.815 421.944 312.283ZM407.712 312.178C407.712 313.629 407.834 314.922 408.078 316.058C408.323 317.176 408.673 318.093 409.127 318.81C409.581 319.456 410.149 319.946 410.831 320.278C411.53 320.592 412.386 320.749 413.399 320.749C415.252 320.749 416.615 320.173 417.488 319.02C417.96 318.373 418.318 317.517 418.563 316.451C418.808 315.367 418.93 314.101 418.93 312.65C418.93 311.2 418.808 309.924 418.563 308.823C418.318 307.723 417.96 306.831 417.488 306.15C417.034 305.486 416.449 304.997 415.732 304.682C415.033 304.368 414.203 304.21 413.242 304.21C412.316 304.21 411.512 304.359 410.831 304.656C410.167 304.935 409.607 305.364 409.153 305.94C408.192 307.216 407.712 309.295 407.712 312.178Z" fill="white"/>
<path d="M421.944 312.283C421.944 313.804 421.708 315.236 421.236 316.582C420.782 317.91 420.144 319.02 419.323 319.911C418.607 320.68 417.742 321.256 416.728 321.641C415.732 322.008 414.579 322.191 413.268 322.191C411.94 322.191 410.769 322.008 409.756 321.641C408.742 321.274 407.895 320.723 407.214 319.989C406.41 319.151 405.789 318.102 405.353 316.844C404.916 315.568 404.697 314.188 404.697 312.703C404.697 311.182 404.924 309.758 405.379 308.43C405.851 307.085 406.497 305.966 407.318 305.075C408.052 304.289 408.9 303.712 409.861 303.345C410.839 302.978 411.993 302.795 413.321 302.795C414.649 302.795 415.811 302.978 416.807 303.345C417.82 303.695 418.685 304.245 419.402 304.997C420.223 305.835 420.852 306.893 421.289 308.168C421.726 309.444 421.944 310.815 421.944 312.283ZM407.712 312.178C407.712 313.629 407.834 314.922 408.078 316.058C408.323 317.176 408.673 318.093 409.127 318.81C409.581 319.456 410.149 319.946 410.831 320.278C411.53 320.592 412.386 320.749 413.399 320.749C415.252 320.749 416.615 320.173 417.488 319.02C417.96 318.373 418.318 317.517 418.563 316.451C418.808 315.367 418.93 314.101 418.93 312.65C418.93 311.2 418.808 309.924 418.563 308.823C418.318 307.723 417.96 306.831 417.488 306.15C417.034 305.486 416.449 304.997 415.732 304.682C415.033 304.368 414.203 304.21 413.242 304.21C412.316 304.21 411.512 304.359 410.831 304.656C410.167 304.935 409.607 305.364 409.153 305.94C408.192 307.216 407.712 309.295 407.712 312.178Z" stroke="black"/>
<path d="M504.861 304.472V319.989L507.062 320.54V321.667H500.038V320.54L502.24 319.989V312.729H493.354V319.989L495.556 320.54V321.667H488.531V320.54L490.733 319.989V304.472L488.531 303.922V302.795H495.556V303.922L493.354 304.472V311.209H502.24V304.472L500.038 303.922V302.795H507.062V303.922L504.861 304.472Z" fill="white"/>
<path d="M504.861 304.472V319.989L507.062 320.54V321.667H500.038V320.54L502.24 319.989V312.729H493.354V319.989L495.556 320.54V321.667H488.531V320.54L490.733 319.989V304.472L488.531 303.922V302.795H495.556V303.922L493.354 304.472V311.209H502.24V304.472L500.038 303.922V302.795H507.062V303.922L504.861 304.472Z" stroke="black"/>
<path d="M248.762 304.254C247.884 304.254 247.131 304.39 246.503 304.66C245.894 304.93 245.374 305.353 244.944 305.93C244.406 306.633 243.985 307.561 243.68 308.714C243.375 309.849 243.223 311.101 243.223 312.471C243.223 313.75 243.357 314.948 243.626 316.065C243.895 317.182 244.271 318.119 244.755 318.876C245.24 319.633 245.822 320.191 246.503 320.552C247.203 320.894 248.072 321.065 249.112 321.065C252.339 321.065 254.212 319.543 254.732 316.498H256.211C255.404 320.696 252.948 322.795 248.843 322.795C246.369 322.795 244.397 322.074 242.927 320.633C242.048 319.768 241.376 318.678 240.91 317.362C240.444 316.047 240.211 314.588 240.211 312.984C240.211 311.164 240.507 309.516 241.098 308.038C241.69 306.561 242.524 305.381 243.599 304.498C244.962 303.362 246.763 302.795 249.004 302.795C250.116 302.795 251.021 302.939 251.72 303.227C252.419 303.516 253.11 304.029 253.791 304.768L254.329 303.065H255.808V309.038H254.167C253.916 307.453 253.334 306.263 252.419 305.471C251.523 304.66 250.304 304.254 248.762 304.254Z" fill="white"/>
<path d="M248.762 304.254C247.884 304.254 247.131 304.39 246.503 304.66C245.894 304.93 245.374 305.353 244.944 305.93C244.406 306.633 243.985 307.561 243.68 308.714C243.375 309.849 243.223 311.101 243.223 312.471C243.223 313.75 243.357 314.948 243.626 316.065C243.895 317.182 244.271 318.119 244.755 318.876C245.24 319.633 245.822 320.191 246.503 320.552C247.203 320.894 248.072 321.065 249.112 321.065C252.339 321.065 254.212 319.543 254.732 316.498H256.211C255.404 320.696 252.948 322.795 248.843 322.795C246.369 322.795 244.397 322.074 242.927 320.633C242.048 319.768 241.376 318.678 240.91 317.362C240.444 316.047 240.211 314.588 240.211 312.984C240.211 311.164 240.507 309.516 241.098 308.038C241.69 306.561 242.524 305.381 243.599 304.498C244.962 303.362 246.763 302.795 249.004 302.795C250.116 302.795 251.021 302.939 251.72 303.227C252.419 303.516 253.11 304.029 253.791 304.768L254.329 303.065H255.808V309.038H254.167C253.916 307.453 253.334 306.263 252.419 305.471C251.523 304.66 250.304 304.254 248.762 304.254Z" stroke="black"/>
<path d="M330.762 304.254C329.884 304.254 329.131 304.39 328.503 304.66C327.894 304.93 327.374 305.353 326.944 305.93C326.406 306.633 325.985 307.561 325.68 308.714C325.375 309.849 325.223 311.101 325.223 312.471C325.223 313.75 325.357 314.948 325.626 316.065C325.895 317.182 326.271 318.119 326.755 318.876C327.24 319.633 327.822 320.191 328.503 320.552C329.203 320.894 330.072 321.065 331.112 321.065C334.339 321.065 336.212 319.543 336.732 316.498H338.211C337.404 320.696 334.948 322.795 330.843 322.795C328.369 322.795 326.397 322.074 324.927 320.633C324.048 319.768 323.376 318.678 322.91 317.362C322.444 316.047 322.211 314.588 322.211 312.984C322.211 311.164 322.507 309.516 323.098 308.038C323.69 306.561 324.524 305.381 325.599 304.498C326.962 303.362 328.763 302.795 331.004 302.795C332.116 302.795 333.021 302.939 333.72 303.227C334.419 303.516 335.11 304.029 335.791 304.768L336.329 303.065H337.808V309.038H336.167C335.916 307.453 335.334 306.263 334.419 305.471C333.523 304.66 332.304 304.254 330.762 304.254Z" fill="#C726AD"/>
<path d="M330.762 304.254C329.884 304.254 329.131 304.39 328.503 304.66C327.894 304.93 327.374 305.353 326.944 305.93C326.406 306.633 325.985 307.561 325.68 308.714C325.375 309.849 325.223 311.101 325.223 312.471C325.223 313.75 325.357 314.948 325.626 316.065C325.895 317.182 326.271 318.119 326.755 318.876C327.24 319.633 327.822 320.191 328.503 320.552C329.203 320.894 330.072 321.065 331.112 321.065C334.339 321.065 336.212 319.543 336.732 316.498H338.211C337.404 320.696 334.948 322.795 330.843 322.795C328.369 322.795 326.397 322.074 324.927 320.633C324.048 319.768 323.376 318.678 322.91 317.362C322.444 316.047 322.211 314.588 322.211 312.984C322.211 311.164 322.507 309.516 323.098 308.038C323.69 306.561 324.524 305.381 325.599 304.498C326.962 303.362 328.763 302.795 331.004 302.795C332.116 302.795 333.021 302.939 333.72 303.227C334.419 303.516 335.11 304.029 335.791 304.768L336.329 303.065H337.808V309.038H336.167C335.916 307.453 335.334 306.263 334.419 305.471C333.523 304.66 332.304 304.254 330.762 304.254Z" stroke="black"/>
<path d="M253.072 391.484V407.106L255.211 407.66V408.795H248.388V407.66L250.526 407.106V399.796H241.896V407.106L244.034 407.66V408.795H237.211V407.66L239.35 407.106V391.484L237.211 390.93V389.795H244.034V390.93L241.896 391.484V398.266H250.526V391.484L248.388 390.93V389.795H255.211V390.93L253.072 391.484Z" fill="white"/>
<path d="M253.072 391.484V407.106L255.211 407.66V408.795H248.388V407.66L250.526 407.106V399.796H241.896V407.106L244.034 407.66V408.795H237.211V407.66L239.35 407.106V391.484L237.211 390.93V389.795H244.034V390.93L241.896 391.484V398.266H250.526V391.484L248.388 390.93V389.795H255.211V390.93L253.072 391.484Z" stroke="black"/>
<path d="M335.072 391.484V407.106L337.211 407.66V408.795H330.388V407.66L332.526 407.106V399.796H323.896V407.106L326.034 407.66V408.795H319.211V407.66L321.35 407.106V391.484L319.211 390.93V389.795H326.034V390.93L323.896 391.484V398.266H332.526V391.484L330.388 390.93V389.795H337.211V390.93L335.072 391.484Z" fill="#C726AD"/>
<path d="M335.072 391.484V407.106L337.211 407.66V408.795H330.388V407.66L332.526 407.106V399.796H323.896V407.106L326.034 407.66V408.795H319.211V407.66L321.35 407.106V391.484L319.211 390.93V389.795H326.034V390.93L323.896 391.484V398.266H332.526V391.484L330.388 390.93V389.795H337.211V390.93L335.072 391.484Z" stroke="black"/>
<path d="M171.54 304.472V319.989L173.742 320.54V321.667H166.718V320.54L168.919 319.989V312.729H160.034V319.989L162.235 320.54V321.667H155.211V320.54L157.413 319.989V304.472L155.211 303.922V302.795H162.235V303.922L160.034 304.472V311.209H168.919V304.472L166.718 303.922V302.795H173.742V303.922L171.54 304.472Z" fill="white"/>
<path d="M171.54 304.472V319.989L173.742 320.54V321.667H166.718V320.54L168.919 319.989V312.729H160.034V319.989L162.235 320.54V321.667H155.211V320.54L157.413 319.989V304.472L155.211 303.922V302.795H162.235V303.922L160.034 304.472V311.209H168.919V304.472L166.718 303.922V302.795H173.742V303.922L171.54 304.472Z" stroke="black"/>
<path d="M254.54 218.472V226.231V233.989L256.742 234.54V235.667H249.718V234.54L251.919 233.989V226.729H243.034V233.989L245.235 234.54V235.667H238.211V234.54L240.413 233.989V218.472L238.211 217.922V216.795H245.235V217.922L243.034 218.472V225.209H251.919V218.472L249.718 217.922V216.795H256.742V217.922L254.54 218.472Z" fill="white"/>
<path d="M254.54 218.472V226.231V233.989L256.742 234.54V235.667H249.718V234.54L251.919 233.989V226.729H243.034V233.989L245.235 234.54V235.667H238.211V234.54L240.413 233.989V218.472L238.211 217.922V216.795H245.235V217.922L243.034 218.472V225.209H251.919V218.472L249.718 217.922V216.795H256.742V217.922L254.54 218.472Z" stroke="black"/>
<path d="M336.54 218.472V226.231V233.989L338.742 234.54V235.667H331.718V234.54L333.919 233.989V226.729H325.034V233.989L327.235 234.54V235.667H320.211V234.54L322.413 233.989V218.472L320.211 217.922V216.795H327.235V217.922L325.034 218.472V225.209H333.919V218.472L331.718 217.922V216.795H338.742V217.922L336.54 218.472Z" fill="#C726AD"/>
<path d="M336.54 218.472V226.231V233.989L338.742 234.54V235.667H331.718V234.54L333.919 233.989V226.729H325.034V233.989L327.235 234.54V235.667H320.211V234.54L322.413 233.989V218.472L320.211 217.922V216.795H327.235V217.922L325.034 218.472V225.209H333.919V218.472L331.718 217.922V216.795H338.742V217.922L336.54 218.472Z" stroke="black"/>
<line x1="247.711" y1="365.383" x2="247.711" y2="346.796" stroke="white" stroke-width="3"/>
<line x1="329.711" y1="365.383" x2="329.711" y2="346.796" stroke="#C726AD" stroke-width="3"/>
<line x1="247.711" y1="259.795" x2="247.711" y2="278.795" stroke="white" stroke-width="3"/>
<line x1="329.711" y1="259.795" x2="329.711" y2="278.795" stroke="#C726AD" stroke-width="3"/>
<line x1="197.742" y1="311.295" x2="216.329" y2="311.295" stroke="white" stroke-width="3"/>
<line x1="279.926" y1="311.295" x2="298.513" y2="311.295" stroke="white" stroke-width="3"/>
<line x1="362.109" y1="311.295" x2="380.696" y2="311.295" stroke="white" stroke-width="3"/>
<line x1="445.943" y1="311.295" x2="464.53" y2="311.295" stroke="white" stroke-width="3"/>
<path d="M671.274 170.203C669.83 170.203 668.591 170.426 667.559 170.872C666.557 171.318 665.702 172.017 664.994 172.968C664.11 174.128 663.417 175.659 662.916 177.561C662.415 179.434 662.164 181.501 662.164 183.76C662.164 185.871 662.385 187.848 662.827 189.691C663.27 191.535 663.889 193.081 664.685 194.329C665.481 195.578 666.439 196.5 667.559 197.094C668.709 197.659 670.139 197.942 671.849 197.942C677.156 197.942 680.237 195.429 681.092 190.405H683.524C682.198 197.332 678.158 200.796 671.407 200.796C667.338 200.796 664.095 199.607 661.678 197.228C660.233 195.801 659.127 194.002 658.361 191.832C657.594 189.662 657.211 187.254 657.211 184.608C657.211 181.605 657.697 178.884 658.67 176.446C659.643 174.009 661.014 172.061 662.783 170.604C665.024 168.731 667.987 167.795 671.672 167.795C673.5 167.795 674.989 168.033 676.139 168.508C677.289 168.984 678.424 169.831 679.544 171.05L680.429 168.241H682.861V178.097H680.163C679.751 175.48 678.792 173.518 677.289 172.21C675.815 170.872 673.81 170.203 671.274 170.203Z" fill="#C726AD"/>
<path d="M714.773 171.095V197.496L718.488 198.432V200.35H706.636V198.432L710.35 197.496V185.143H695.358V197.496L699.073 198.432V200.35H687.221V198.432L690.936 197.496V171.095L687.221 170.158V168.241H699.073V170.158L695.358 171.095V182.556H710.35V171.095L706.636 170.158V168.241H718.488V170.158L714.773 171.095Z" fill="#C726AD"/>
<path d="M724.889 198.209H730.593L731.08 195.89H732.318V200.35H722.722V199.012C722.722 198.18 722.957 197.436 723.429 196.782C723.901 196.098 724.491 195.459 725.198 194.865C725.906 194.27 726.613 193.69 727.321 193.125C728.028 192.531 728.618 191.906 729.09 191.252C729.562 190.598 729.797 189.87 729.797 189.067C729.797 188.443 729.562 187.967 729.09 187.64C728.618 187.283 727.955 187.105 727.1 187.105C726.569 187.105 726.112 187.164 725.729 187.283C725.346 187.402 725.021 187.581 724.756 187.818C724.52 188.056 724.358 188.354 724.269 188.71C724.682 188.71 725.006 188.814 725.242 189.023C725.478 189.231 725.596 189.528 725.596 189.914C725.596 190.301 725.478 190.613 725.242 190.851C725.036 191.059 724.726 191.163 724.314 191.163C723.842 191.163 723.488 191.029 723.252 190.762C723.046 190.494 722.943 190.078 722.943 189.513C722.943 188.354 723.355 187.432 724.181 186.748C725.036 186.035 726.142 185.678 727.498 185.678C728.883 185.678 730.004 186.035 730.859 186.748C731.714 187.432 732.141 188.368 732.141 189.558C732.141 190.509 731.891 191.341 731.389 192.055C730.918 192.739 730.313 193.348 729.576 193.883C728.869 194.419 728.146 194.909 727.409 195.355C726.702 195.801 726.097 196.247 725.596 196.693C725.124 197.139 724.889 197.644 724.889 198.209Z" fill="#C726AD"/>
<line x1="702.623" y1="228.295" x2="380.211" y2="228.295" stroke="#C726AD" stroke-width="3"/>
<path d="M702.15 312.856C702.736 313.441 703.686 313.441 704.272 312.856L713.818 303.31C714.403 302.724 714.403 301.774 713.818 301.188C713.232 300.603 712.282 300.603 711.696 301.188L703.211 309.674L694.726 301.188C694.14 300.603 693.19 300.603 692.604 301.188C692.019 301.774 692.019 302.724 692.604 303.31L702.15 312.856ZM701.711 226.795L701.711 311.795L704.711 311.795L704.711 226.795L701.711 226.795Z" fill="#C726AD"/>
<line x1="588.354" y1="681.992" x2="588.354" y2="704.263" stroke="white" stroke-width="2"/>
<g filter="url(#filter0_d_854_9308)">
<path d="M724.848 627.746L793.665 627.795H809.369L812.14 610.195V523.366L813.987 518.286V475.795V513.205L815.835 510.896L817.22 627.795H824.61H828.767H897.123M145.211 627.795L682.819 627.746M945.618 627.795H984.415H1023.21" stroke="#C3FA50" stroke-width="3"/>
</g>
<path d="M897.211 628.295L904.749 600.143V379.377L907.057 608.617L910.288 610.847L913.519 625.565H918.134V610.847L920.442 602.819V554.206M915.826 115.795L920.442 554.206M946.211 628.295L941.672 625.565H937.98L933.826 617.091L931.519 408.812L933.826 610.847V614.861L931.519 625.565L929.211 623.335L924.134 621.105V614.861L920.442 554.206" stroke="#C3FA50" stroke-width="3"/>
<path d="M145.045 668.129L1025.04 668.129" stroke="white" stroke-width="2"/>
<line x1="411.342" y1="667.992" x2="411.342" y2="690.263" stroke="white" stroke-width="2"/>
<line x1="234.328" y1="667.992" x2="234.328" y2="690.263" stroke="white" stroke-width="2"/>
<line x1="144.643" y1="666.877" x2="144.643" y2="689.148" stroke="white" stroke-width="2"/>
<line x1="855.053" y1="667.992" x2="855.053" y2="690.263" stroke="white" stroke-width="2"/>
<line x1="678.039" y1="667.992" x2="678.039" y2="690.263" stroke="white" stroke-width="2"/>
<line x1="501.027" y1="667.992" x2="501.027" y2="690.263" stroke="white" stroke-width="2"/>
<line x1="322.836" y1="667.992" x2="322.836" y2="690.263" stroke="white" stroke-width="2"/>
<line x1="944.738" y1="667.992" x2="944.738" y2="690.263" stroke="white" stroke-width="2"/>
<line x1="1023.8" y1="667.992" x2="1023.8" y2="690.263" stroke="white" stroke-width="2"/>
<line x1="766.547" y1="667.992" x2="766.547" y2="690.263" stroke="white" stroke-width="2"/>
<path d="M223.267 711.335C223.267 712.268 223.487 713.042 223.927 713.655C224.367 714.255 225.074 714.555 226.047 714.555C226.514 714.555 227.021 714.402 227.567 714.095C228.127 713.788 228.654 713.295 229.147 712.615C229.067 711.268 228.754 710.182 228.207 709.355C227.674 708.528 226.887 708.115 225.847 708.115C225.367 708.115 224.927 708.262 224.527 708.555C224.141 708.835 223.834 709.215 223.607 709.695C223.381 710.175 223.267 710.722 223.267 711.335ZM225.347 720.615C224.761 720.615 224.241 720.502 223.787 720.275C223.347 720.048 222.967 719.748 222.647 719.375L223.187 718.775C223.467 719.122 223.794 719.388 224.167 719.575C224.554 719.748 224.954 719.835 225.367 719.835C226.047 719.835 226.674 719.635 227.247 719.235C227.821 718.835 228.281 718.175 228.627 717.255C228.987 716.335 229.167 715.095 229.167 713.535C228.727 714.068 228.227 714.495 227.667 714.815C227.107 715.135 226.527 715.295 225.927 715.295C224.821 715.295 223.954 714.962 223.327 714.295C222.701 713.615 222.387 712.628 222.387 711.335C222.387 710.562 222.547 709.875 222.867 709.275C223.187 708.675 223.614 708.208 224.147 707.875C224.681 707.528 225.261 707.355 225.887 707.355C227.154 707.355 228.161 707.875 228.907 708.915C229.667 709.942 230.047 711.428 230.047 713.375C230.047 715.162 229.827 716.588 229.387 717.655C228.947 718.708 228.367 719.468 227.647 719.935C226.941 720.388 226.174 720.615 225.347 720.615ZM233.298 720.615C233.084 720.615 232.884 720.535 232.698 720.375C232.524 720.215 232.438 719.995 232.438 719.715C232.438 719.422 232.524 719.195 232.698 719.035C232.884 718.875 233.084 718.795 233.298 718.795C233.524 718.795 233.718 718.875 233.878 719.035C234.051 719.195 234.138 719.422 234.138 719.715C234.138 719.995 234.051 720.215 233.878 720.375C233.718 720.535 233.524 720.615 233.298 720.615ZM240.253 720.615C239.039 720.615 238.099 720.035 237.433 718.875C236.766 717.715 236.433 716.068 236.433 713.935C236.433 711.815 236.766 710.188 237.433 709.055C238.099 707.922 239.039 707.355 240.253 707.355C241.479 707.355 242.419 707.922 243.073 709.055C243.739 710.188 244.073 711.815 244.073 713.935C244.073 716.068 243.739 717.715 243.073 718.875C242.419 720.035 241.479 720.615 240.253 720.615ZM240.253 719.855C241.146 719.855 241.853 719.355 242.373 718.355C242.906 717.355 243.173 715.882 243.173 713.935C243.173 711.988 242.906 710.535 242.373 709.575C241.853 708.602 241.146 708.115 240.253 708.115C239.373 708.115 238.666 708.602 238.133 709.575C237.599 710.535 237.333 711.988 237.333 713.935C237.333 715.882 237.599 717.355 238.133 718.355C238.666 719.355 239.373 719.855 240.253 719.855Z" fill="white"/>
<path d="M128.801 720.375V719.595H131.801V708.995H129.521V708.395C130.041 708.302 130.508 708.188 130.921 708.055C131.334 707.922 131.688 707.768 131.981 707.595H132.701V719.595H135.481V720.375H128.801ZM141.471 720.615C140.258 720.615 139.318 720.035 138.651 718.875C137.985 717.715 137.651 716.068 137.651 713.935C137.651 711.815 137.985 710.188 138.651 709.055C139.318 707.922 140.258 707.355 141.471 707.355C142.698 707.355 143.638 707.922 144.291 709.055C144.958 710.188 145.291 711.815 145.291 713.935C145.291 716.068 144.958 717.715 144.291 718.875C143.638 720.035 142.698 720.615 141.471 720.615ZM141.471 719.855C142.365 719.855 143.071 719.355 143.591 718.355C144.125 717.355 144.391 715.882 144.391 713.935C144.391 711.988 144.125 710.535 143.591 709.575C143.071 708.602 142.365 708.115 141.471 708.115C140.591 708.115 139.885 708.602 139.351 709.575C138.818 710.535 138.551 711.988 138.551 713.935C138.551 715.882 138.818 717.355 139.351 718.355C139.885 719.355 140.591 719.855 141.471 719.855ZM148.462 720.615C148.248 720.615 148.048 720.535 147.862 720.375C147.688 720.215 147.602 719.995 147.602 719.715C147.602 719.422 147.688 719.195 147.862 719.035C148.048 718.875 148.248 718.795 148.462 718.795C148.688 718.795 148.882 718.875 149.042 719.035C149.215 719.195 149.302 719.422 149.302 719.715C149.302 719.995 149.215 720.215 149.042 720.375C148.882 720.535 148.688 720.615 148.462 720.615ZM155.417 720.615C154.203 720.615 153.263 720.035 152.597 718.875C151.93 717.715 151.597 716.068 151.597 713.935C151.597 711.815 151.93 710.188 152.597 709.055C153.263 707.922 154.203 707.355 155.417 707.355C156.643 707.355 157.583 707.922 158.237 709.055C158.903 710.188 159.237 711.815 159.237 713.935C159.237 716.068 158.903 717.715 158.237 718.875C157.583 720.035 156.643 720.615 155.417 720.615ZM155.417 719.855C156.31 719.855 157.017 719.355 157.537 718.355C158.07 717.355 158.337 715.882 158.337 713.935C158.337 711.988 158.07 710.535 157.537 709.575C157.017 708.602 156.31 708.115 155.417 708.115C154.537 708.115 153.83 708.602 153.297 709.575C152.763 710.535 152.497 711.988 152.497 713.935C152.497 715.882 152.763 717.355 153.297 718.355C153.83 719.355 154.537 719.855 155.417 719.855Z" fill="white"/>
<path d="M316.073 719.502C315.3 719.502 314.606 719.348 313.993 719.042C313.38 718.735 312.893 718.315 312.533 717.782C312.186 717.248 312.013 716.648 312.013 715.982C312.013 715.408 312.14 714.888 312.393 714.422C312.66 713.955 312.986 713.555 313.373 713.222C313.773 712.875 314.173 712.595 314.573 712.382V712.302C314.106 711.995 313.68 711.602 313.293 711.122C312.92 710.628 312.733 710.042 312.733 709.362C312.733 708.748 312.88 708.208 313.173 707.742C313.48 707.275 313.886 706.908 314.393 706.642C314.9 706.375 315.46 706.242 316.073 706.242C317.166 706.242 318.013 706.562 318.613 707.202C319.226 707.828 319.533 708.622 319.533 709.582C319.533 710.048 319.433 710.495 319.233 710.922C319.033 711.335 318.793 711.708 318.513 712.042C318.233 712.362 317.966 712.622 317.713 712.822V712.902C318.086 713.128 318.44 713.388 318.773 713.682C319.12 713.962 319.4 714.302 319.613 714.702C319.84 715.102 319.953 715.588 319.953 716.162C319.953 716.775 319.786 717.335 319.453 717.842C319.133 718.348 318.68 718.755 318.093 719.062C317.52 719.355 316.846 719.502 316.073 719.502ZM317.013 712.562C317.56 712.122 317.973 711.655 318.253 711.162C318.546 710.668 318.693 710.148 318.693 709.602C318.693 708.895 318.46 708.282 317.993 707.762C317.54 707.242 316.9 706.982 316.073 706.982C315.366 706.982 314.78 707.208 314.313 707.662C313.846 708.102 313.613 708.668 313.613 709.362C313.613 709.962 313.78 710.462 314.113 710.862C314.446 711.248 314.873 711.575 315.393 711.842C315.913 712.095 316.453 712.335 317.013 712.562ZM316.073 718.762C316.98 718.762 317.7 718.508 318.233 718.002C318.78 717.495 319.053 716.875 319.053 716.142C319.053 715.488 318.866 714.962 318.493 714.562C318.12 714.148 317.633 713.802 317.033 713.522C316.446 713.242 315.82 712.975 315.153 712.722C314.5 713.095 313.96 713.548 313.533 714.082C313.106 714.615 312.893 715.235 312.893 715.942C312.893 716.475 313.026 716.955 313.293 717.382C313.573 717.795 313.953 718.128 314.433 718.382C314.913 718.635 315.46 718.762 316.073 718.762ZM322.983 719.502C322.77 719.502 322.57 719.422 322.383 719.262C322.21 719.102 322.123 718.882 322.123 718.602C322.123 718.308 322.21 718.082 322.383 717.922C322.57 717.762 322.77 717.682 322.983 717.682C323.21 717.682 323.403 717.762 323.563 717.922C323.737 718.082 323.823 718.308 323.823 718.602C323.823 718.882 323.737 719.102 323.563 719.262C323.403 719.422 323.21 719.502 322.983 719.502ZM329.938 719.502C328.725 719.502 327.785 718.922 327.118 717.762C326.452 716.602 326.118 714.955 326.118 712.822C326.118 710.702 326.452 709.075 327.118 707.942C327.785 706.808 328.725 706.242 329.938 706.242C331.165 706.242 332.105 706.808 332.758 707.942C333.425 709.075 333.758 710.702 333.758 712.822C333.758 714.955 333.425 716.602 332.758 717.762C332.105 718.922 331.165 719.502 329.938 719.502ZM329.938 718.742C330.832 718.742 331.538 718.242 332.058 717.242C332.592 716.242 332.858 714.768 332.858 712.822C332.858 710.875 332.592 709.422 332.058 708.462C331.538 707.488 330.832 707.002 329.938 707.002C329.058 707.002 328.352 707.488 327.818 708.462C327.285 709.422 327.018 710.875 327.018 712.822C327.018 714.768 327.285 716.242 327.818 717.242C328.352 718.242 329.058 718.742 329.938 718.742Z" fill="white"/>
<path d="M404.66 719.262C404.727 717.542 404.9 716.002 405.18 714.642C405.46 713.282 405.874 712.015 406.42 710.842C406.967 709.655 407.667 708.462 408.52 707.262H401.78V706.482H409.64V707.002C408.88 708.015 408.247 708.995 407.74 709.942C407.247 710.875 406.854 711.822 406.56 712.782C406.267 713.742 406.047 714.748 405.9 715.802C405.767 716.855 405.674 718.008 405.62 719.262H404.66ZM412.671 719.502C412.457 719.502 412.257 719.422 412.071 719.262C411.897 719.102 411.811 718.882 411.811 718.602C411.811 718.308 411.897 718.082 412.071 717.922C412.257 717.762 412.457 717.682 412.671 717.682C412.897 717.682 413.091 717.762 413.251 717.922C413.424 718.082 413.511 718.308 413.511 718.602C413.511 718.882 413.424 719.102 413.251 719.262C413.091 719.422 412.897 719.502 412.671 719.502ZM419.626 719.502C418.412 719.502 417.472 718.922 416.806 717.762C416.139 716.602 415.806 714.955 415.806 712.822C415.806 710.702 416.139 709.075 416.806 707.942C417.472 706.808 418.412 706.242 419.626 706.242C420.852 706.242 421.792 706.808 422.446 707.942C423.112 709.075 423.446 710.702 423.446 712.822C423.446 714.955 423.112 716.602 422.446 717.762C421.792 718.922 420.852 719.502 419.626 719.502ZM419.626 718.742C420.519 718.742 421.226 718.242 421.746 717.242C422.279 716.242 422.546 714.768 422.546 712.822C422.546 710.875 422.279 709.422 421.746 708.462C421.226 707.488 420.519 707.002 419.626 707.002C418.746 707.002 418.039 707.488 417.506 708.462C416.972 709.422 416.706 710.875 416.706 712.822C416.706 714.768 416.972 716.242 417.506 717.242C418.039 718.242 418.746 718.742 419.626 718.742Z" fill="white"/>
<path d="M493.287 712.302C492.833 712.302 492.333 712.448 491.787 712.742C491.24 713.022 490.707 713.515 490.187 714.222C490.267 715.568 490.573 716.662 491.107 717.502C491.64 718.328 492.427 718.742 493.467 718.742C493.96 718.742 494.4 718.602 494.787 718.322C495.173 718.028 495.48 717.642 495.707 717.162C495.933 716.668 496.047 716.115 496.047 715.502C496.047 714.582 495.827 713.822 495.387 713.222C494.96 712.608 494.26 712.302 493.287 712.302ZM493.447 719.502C492.167 719.502 491.147 718.982 490.387 717.942C489.64 716.888 489.267 715.395 489.267 713.462C489.267 712.115 489.393 710.982 489.647 710.062C489.9 709.142 490.247 708.402 490.687 707.842C491.127 707.282 491.627 706.875 492.187 706.622C492.76 706.368 493.353 706.242 493.967 706.242C494.567 706.242 495.08 706.355 495.507 706.582C495.947 706.808 496.333 707.108 496.667 707.482L496.127 708.082C495.847 707.735 495.52 707.475 495.147 707.302C494.773 707.115 494.38 707.022 493.967 707.022C493.287 707.022 492.653 707.222 492.067 707.622C491.493 708.022 491.033 708.682 490.687 709.602C490.34 710.522 490.167 711.762 490.167 713.322C490.607 712.775 491.107 712.342 491.667 712.022C492.227 711.702 492.8 711.542 493.387 711.542C494.507 711.542 495.38 711.882 496.007 712.562C496.633 713.228 496.947 714.208 496.947 715.502C496.947 716.275 496.787 716.962 496.467 717.562C496.147 718.162 495.72 718.635 495.187 718.982C494.667 719.328 494.087 719.502 493.447 719.502ZM499.997 719.502C499.784 719.502 499.584 719.422 499.397 719.262C499.224 719.102 499.137 718.882 499.137 718.602C499.137 718.308 499.224 718.082 499.397 717.922C499.584 717.762 499.784 717.682 499.997 717.682C500.224 717.682 500.417 717.762 500.577 717.922C500.75 718.082 500.837 718.308 500.837 718.602C500.837 718.882 500.75 719.102 500.577 719.262C500.417 719.422 500.224 719.502 499.997 719.502ZM506.952 719.502C505.739 719.502 504.799 718.922 504.132 717.762C503.465 716.602 503.132 714.955 503.132 712.822C503.132 710.702 503.465 709.075 504.132 707.942C504.799 706.808 505.739 706.242 506.952 706.242C508.179 706.242 509.119 706.808 509.772 707.942C510.439 709.075 510.772 710.702 510.772 712.822C510.772 714.955 510.439 716.602 509.772 717.762C509.119 718.922 508.179 719.502 506.952 719.502ZM506.952 718.742C507.845 718.742 508.552 718.242 509.072 717.242C509.605 716.242 509.872 714.768 509.872 712.822C509.872 710.875 509.605 709.422 509.072 708.462C508.552 707.488 507.845 707.002 506.952 707.002C506.072 707.002 505.365 707.488 504.832 708.462C504.299 709.422 504.032 710.875 504.032 712.822C504.032 714.768 504.299 716.242 504.832 717.242C505.365 718.242 506.072 718.742 506.952 718.742Z" fill="white"/>
<path d="M580.093 719.502C579.413 719.502 578.819 719.415 578.313 719.242C577.819 719.068 577.393 718.848 577.033 718.582C576.673 718.315 576.353 718.048 576.073 717.782L576.573 717.162C576.959 717.548 577.419 717.908 577.953 718.242C578.499 718.562 579.206 718.722 580.073 718.722C580.646 718.722 581.173 718.582 581.653 718.302C582.133 718.008 582.519 717.602 582.813 717.082C583.106 716.562 583.253 715.962 583.253 715.282C583.253 714.255 582.966 713.448 582.393 712.862C581.833 712.275 581.079 711.982 580.133 711.982C579.639 711.982 579.213 712.062 578.853 712.222C578.506 712.368 578.139 712.575 577.753 712.842L577.133 712.462L577.593 706.482H583.493V707.262H578.393L577.993 711.882C578.326 711.682 578.673 711.522 579.033 711.402C579.393 711.268 579.806 711.202 580.273 711.202C580.993 711.202 581.646 711.348 582.233 711.642C582.833 711.922 583.306 712.362 583.653 712.962C583.999 713.548 584.173 714.308 584.173 715.242C584.173 716.148 583.973 716.922 583.573 717.562C583.186 718.188 582.679 718.668 582.053 719.002C581.439 719.335 580.786 719.502 580.093 719.502ZM587.323 719.502C587.11 719.502 586.91 719.422 586.723 719.262C586.55 719.102 586.463 718.882 586.463 718.602C586.463 718.308 586.55 718.082 586.723 717.922C586.91 717.762 587.11 717.682 587.323 717.682C587.55 717.682 587.743 717.762 587.903 717.922C588.076 718.082 588.163 718.308 588.163 718.602C588.163 718.882 588.076 719.102 587.903 719.262C587.743 719.422 587.55 719.502 587.323 719.502ZM594.278 719.502C593.065 719.502 592.125 718.922 591.458 717.762C590.791 716.602 590.458 714.955 590.458 712.822C590.458 710.702 590.791 709.075 591.458 707.942C592.125 706.808 593.065 706.242 594.278 706.242C595.505 706.242 596.445 706.808 597.098 707.942C597.765 709.075 598.098 710.702 598.098 712.822C598.098 714.955 597.765 716.602 597.098 717.762C596.445 718.922 595.505 719.502 594.278 719.502ZM594.278 718.742C595.171 718.742 595.878 718.242 596.398 717.242C596.931 716.242 597.198 714.768 597.198 712.822C597.198 710.875 596.931 709.422 596.398 708.462C595.878 707.488 595.171 707.002 594.278 707.002C593.398 707.002 592.691 707.488 592.158 708.462C591.625 709.422 591.358 710.875 591.358 712.822C591.358 714.768 591.625 716.242 592.158 717.242C592.691 718.242 593.398 718.742 594.278 718.742Z" fill="white"/>
<path d="M666.638 714.682H671.438V710.002C671.438 709.708 671.445 709.342 671.458 708.902C671.485 708.462 671.505 708.095 671.518 707.802H671.438C671.278 708.068 671.112 708.328 670.938 708.582C670.765 708.835 670.585 709.108 670.398 709.402L666.638 714.682ZM671.438 719.262V715.442H665.558V714.922L671.498 706.482H672.298V714.682H674.198V715.442H672.298V719.262H671.438ZM677.009 719.502C676.795 719.502 676.595 719.422 676.409 719.262C676.235 719.102 676.149 718.882 676.149 718.602C676.149 718.308 676.235 718.082 676.409 717.922C676.595 717.762 676.795 717.682 677.009 717.682C677.235 717.682 677.429 717.762 677.589 717.922C677.762 718.082 677.849 718.308 677.849 718.602C677.849 718.882 677.762 719.102 677.589 719.262C677.429 719.422 677.235 719.502 677.009 719.502ZM683.964 719.502C682.75 719.502 681.81 718.922 681.144 717.762C680.477 716.602 680.144 714.955 680.144 712.822C680.144 710.702 680.477 709.075 681.144 707.942C681.81 706.808 682.75 706.242 683.964 706.242C685.19 706.242 686.13 706.808 686.784 707.942C687.45 709.075 687.784 710.702 687.784 712.822C687.784 714.955 687.45 716.602 686.784 717.762C686.13 718.922 685.19 719.502 683.964 719.502ZM683.964 718.742C684.857 718.742 685.564 718.242 686.084 717.242C686.617 716.242 686.884 714.768 686.884 712.822C686.884 710.875 686.617 709.422 686.084 708.462C685.564 707.488 684.857 707.002 683.964 707.002C683.084 707.002 682.377 707.488 681.844 708.462C681.31 709.422 681.044 710.875 681.044 712.822C681.044 714.768 681.31 716.242 681.844 717.242C682.377 718.242 683.084 718.742 683.964 718.742Z" fill="white"/>
<path d="M757.204 719.502C756.524 719.502 755.931 719.415 755.424 719.242C754.918 719.055 754.478 718.822 754.104 718.542C753.744 718.262 753.424 717.982 753.144 717.702L753.664 717.082C754.051 717.495 754.518 717.875 755.064 718.222C755.611 718.555 756.324 718.722 757.204 718.722C758.071 718.722 758.784 718.468 759.344 717.962C759.904 717.442 760.184 716.755 760.184 715.902C760.184 715.022 759.838 714.308 759.144 713.762C758.464 713.215 757.324 712.942 755.724 712.942V712.162C756.711 712.162 757.498 712.042 758.084 711.802C758.671 711.548 759.091 711.208 759.344 710.782C759.598 710.355 759.724 709.888 759.724 709.382C759.724 708.662 759.491 708.088 759.024 707.662C758.558 707.222 757.931 707.002 757.144 707.002C756.558 707.002 756.011 707.142 755.504 707.422C755.011 707.688 754.578 708.015 754.204 708.402L753.684 707.802C754.124 707.375 754.624 707.008 755.184 706.702C755.758 706.395 756.411 706.242 757.144 706.242C757.811 706.242 758.404 706.362 758.924 706.602C759.458 706.842 759.878 707.195 760.184 707.662C760.491 708.115 760.644 708.668 760.644 709.322C760.644 710.162 760.411 710.842 759.944 711.362C759.491 711.868 758.911 712.242 758.204 712.482V712.562C758.738 712.668 759.218 712.875 759.644 713.182C760.084 713.475 760.438 713.848 760.704 714.302C760.971 714.755 761.104 715.282 761.104 715.882C761.104 716.615 760.931 717.255 760.584 717.802C760.238 718.348 759.771 718.768 759.184 719.062C758.598 719.355 757.938 719.502 757.204 719.502ZM764.335 719.502C764.121 719.502 763.921 719.422 763.735 719.262C763.561 719.102 763.475 718.882 763.475 718.602C763.475 718.308 763.561 718.082 763.735 717.922C763.921 717.762 764.121 717.682 764.335 717.682C764.561 717.682 764.755 717.762 764.915 717.922C765.088 718.082 765.175 718.308 765.175 718.602C765.175 718.882 765.088 719.102 764.915 719.262C764.755 719.422 764.561 719.502 764.335 719.502ZM771.29 719.502C770.076 719.502 769.136 718.922 768.47 717.762C767.803 716.602 767.47 714.955 767.47 712.822C767.47 710.702 767.803 709.075 768.47 707.942C769.136 706.808 770.076 706.242 771.29 706.242C772.516 706.242 773.456 706.808 774.11 707.942C774.776 709.075 775.11 710.702 775.11 712.822C775.11 714.955 774.776 716.602 774.11 717.762C773.456 718.922 772.516 719.502 771.29 719.502ZM771.29 718.742C772.183 718.742 772.89 718.242 773.41 717.242C773.943 716.242 774.21 714.768 774.21 712.822C774.21 710.875 773.943 709.422 773.41 708.462C772.89 707.488 772.183 707.002 771.29 707.002C770.41 707.002 769.703 707.488 769.17 708.462C768.636 709.422 768.37 710.875 768.37 712.822C768.37 714.768 768.636 716.242 769.17 717.242C769.703 718.242 770.41 718.742 771.29 718.742Z" fill="white"/>
<path d="M843.072 719.262V718.702C844.472 717.275 845.639 716.042 846.572 715.002C847.505 713.948 848.205 713.008 848.672 712.182C849.139 711.355 849.372 710.575 849.372 709.842C849.372 709.042 849.145 708.368 848.692 707.822C848.252 707.275 847.552 707.002 846.592 707.002C846.019 707.002 845.472 707.162 844.952 707.482C844.445 707.802 843.999 708.202 843.612 708.682L843.032 708.122C843.512 707.588 844.045 707.142 844.632 706.782C845.219 706.422 845.899 706.242 846.672 706.242C847.819 706.242 848.705 706.568 849.332 707.222C849.959 707.875 850.272 708.742 850.272 709.822C850.272 710.662 850.025 711.515 849.532 712.382C849.052 713.248 848.372 714.182 847.492 715.182C846.625 716.182 845.599 717.308 844.412 718.562C844.759 718.535 845.112 718.515 845.472 718.502C845.845 718.475 846.205 718.462 846.552 718.462H850.912V719.262H843.072ZM854.022 719.502C853.809 719.502 853.609 719.422 853.422 719.262C853.249 719.102 853.162 718.882 853.162 718.602C853.162 718.308 853.249 718.082 853.422 717.922C853.609 717.762 853.809 717.682 854.022 717.682C854.249 717.682 854.442 717.762 854.602 717.922C854.776 718.082 854.862 718.308 854.862 718.602C854.862 718.882 854.776 719.102 854.602 719.262C854.442 719.422 854.249 719.502 854.022 719.502ZM860.977 719.502C859.764 719.502 858.824 718.922 858.157 717.762C857.491 716.602 857.157 714.955 857.157 712.822C857.157 710.702 857.491 709.075 858.157 707.942C858.824 706.808 859.764 706.242 860.977 706.242C862.204 706.242 863.144 706.808 863.797 707.942C864.464 709.075 864.797 710.702 864.797 712.822C864.797 714.955 864.464 716.602 863.797 717.762C863.144 718.922 862.204 719.502 860.977 719.502ZM860.977 718.742C861.871 718.742 862.577 718.242 863.097 717.242C863.631 716.242 863.897 714.768 863.897 712.822C863.897 710.875 863.631 709.422 863.097 708.462C862.577 707.488 861.871 707.002 860.977 707.002C860.097 707.002 859.391 707.488 858.857 708.462C858.324 709.422 858.057 710.875 858.057 712.822C858.057 714.768 858.324 716.242 858.857 717.242C859.391 718.242 860.097 718.742 860.977 718.742Z" fill="white"/>
<path d="M938.338 719.262V718.482H941.338V707.882H939.058V707.282C939.578 707.188 940.045 707.075 940.458 706.942C940.872 706.808 941.225 706.655 941.518 706.482H942.238V718.482H945.018V719.262H938.338ZM948.429 719.502C948.215 719.502 948.015 719.422 947.829 719.262C947.655 719.102 947.569 718.882 947.569 718.602C947.569 718.308 947.655 718.082 947.829 717.922C948.015 717.762 948.215 717.682 948.429 717.682C948.655 717.682 948.849 717.762 949.009 717.922C949.182 718.082 949.269 718.308 949.269 718.602C949.269 718.882 949.182 719.102 949.009 719.262C948.849 719.422 948.655 719.502 948.429 719.502ZM955.384 719.502C954.17 719.502 953.23 718.922 952.564 717.762C951.897 716.602 951.564 714.955 951.564 712.822C951.564 710.702 951.897 709.075 952.564 707.942C953.23 706.808 954.17 706.242 955.384 706.242C956.61 706.242 957.55 706.808 958.204 707.942C958.87 709.075 959.204 710.702 959.204 712.822C959.204 714.955 958.87 716.602 958.204 717.762C957.55 718.922 956.61 719.502 955.384 719.502ZM955.384 718.742C956.277 718.742 956.984 718.242 957.504 717.242C958.037 716.242 958.304 714.768 958.304 712.822C958.304 710.875 958.037 709.422 957.504 708.462C956.984 707.488 956.277 707.002 955.384 707.002C954.504 707.002 953.797 707.488 953.264 708.462C952.73 709.422 952.464 710.875 952.464 712.822C952.464 714.768 952.73 716.242 953.264 717.242C953.797 718.242 954.504 718.742 955.384 718.742Z" fill="white"/>
<path d="M1025.22 719.502C1024.01 719.502 1023.07 718.922 1022.4 717.762C1021.74 716.602 1021.4 714.955 1021.4 712.822C1021.4 710.702 1021.74 709.075 1022.4 707.942C1023.07 706.808 1024.01 706.242 1025.22 706.242C1026.45 706.242 1027.39 706.808 1028.04 707.942C1028.71 709.075 1029.04 710.702 1029.04 712.822C1029.04 714.955 1028.71 716.602 1028.04 717.762C1027.39 718.922 1026.45 719.502 1025.22 719.502ZM1025.22 718.742C1026.12 718.742 1026.82 718.242 1027.34 717.242C1027.88 716.242 1028.14 714.768 1028.14 712.822C1028.14 710.875 1027.88 709.422 1027.34 708.462C1026.82 707.488 1026.12 707.002 1025.22 707.002C1024.34 707.002 1023.64 707.488 1023.1 708.462C1022.57 709.422 1022.3 710.875 1022.3 712.822C1022.3 714.768 1022.57 716.242 1023.1 717.242C1023.64 718.242 1024.34 718.742 1025.22 718.742Z" fill="white"/>
<path d="M115.091 601.055L126.931 601.055L127.351 599.175L128.211 599.175L128.211 604.935L127.351 604.935L126.931 603.055L115.091 603.055L114.671 604.935L113.811 604.935L113.811 599.175L114.671 599.175L115.091 601.055ZM127.011 596.054L118.611 596.054L118.231 597.594L117.411 597.594L117.411 594.714L119.411 594.274L119.411 594.194C118.731 593.794 118.198 593.254 117.811 592.574C117.411 591.894 117.211 591.168 117.211 590.394C117.211 589.288 117.571 588.468 118.291 587.934C118.664 587.668 119.191 587.481 119.871 587.374C120.538 587.254 121.444 587.194 122.591 587.194L127.011 587.194L127.391 585.654L128.211 585.654L128.211 590.474L127.391 590.474L127.011 589.134L122.551 589.134C121.684 589.134 121.038 589.161 120.611 589.214C120.184 589.254 119.851 589.334 119.611 589.454C119.291 589.614 119.051 589.848 118.891 590.154C118.718 590.448 118.631 590.801 118.631 591.214C118.631 591.988 118.878 592.654 119.371 593.214C119.864 593.761 120.631 594.061 121.671 594.114L127.011 594.114L127.391 592.774L128.211 592.774L128.211 597.594L127.391 597.594L127.011 596.054ZM118.411 585.029L117.691 585.029L117.411 583.089L114.891 582.829L114.651 581.149L117.411 581.149L117.411 578.589L118.411 578.589L118.411 581.149L125.551 581.149C126.004 581.149 126.318 581.142 126.491 581.129C126.651 581.116 126.784 581.089 126.891 581.049C126.984 581.009 127.051 580.936 127.091 580.829C127.118 580.722 127.131 580.549 127.131 580.309L127.131 578.909L127.711 578.909C127.951 579.549 128.124 580.116 128.231 580.609C128.351 581.089 128.411 581.476 128.411 581.769C128.411 582.369 128.164 582.756 127.671 582.929C127.511 582.982 127.304 583.022 127.051 583.049C126.798 583.076 126.424 583.089 125.931 583.089L118.411 583.089L118.411 585.029ZM122.931 568.453L122.931 575.433C123.904 575.433 124.711 575.299 125.351 575.033C125.964 574.766 126.404 574.386 126.671 573.893C126.938 573.399 127.071 572.866 127.071 572.293C127.071 571.666 126.944 571.093 126.691 570.573C126.424 570.053 126.064 569.586 125.611 569.173L126.091 568.533C126.731 568.999 127.278 569.566 127.731 570.233C128.184 570.899 128.411 571.759 128.411 572.813C128.411 573.733 128.218 574.546 127.831 575.253C127.431 575.959 126.851 576.499 126.091 576.873C125.678 577.073 125.218 577.219 124.711 577.313C124.204 577.406 123.664 577.453 123.091 577.453C121.224 577.453 119.778 577.026 118.751 576.173C117.724 575.306 117.211 574.133 117.211 572.653C117.211 571.293 117.638 570.246 118.491 569.513C119.331 568.766 120.498 568.393 121.991 568.393C122.124 568.393 122.251 568.399 122.371 568.413C122.478 568.413 122.664 568.426 122.931 568.453ZM118.291 572.773C118.291 574.373 119.511 575.253 121.951 575.413L121.951 570.413L121.291 570.413C120.331 570.413 119.591 570.619 119.071 571.033C118.551 571.433 118.291 572.013 118.291 572.773ZM127.011 565.254L118.611 565.254L118.231 566.794L117.411 566.794L117.411 563.914L119.411 563.474L119.411 563.394C118.731 562.994 118.198 562.454 117.811 561.774C117.411 561.094 117.211 560.367 117.211 559.594C117.211 558.487 117.571 557.667 118.291 557.134C118.664 556.867 119.191 556.68 119.871 556.574C120.538 556.454 121.444 556.394 122.591 556.394L127.011 556.394L127.391 554.854L128.211 554.854L128.211 559.674L127.391 559.674L127.011 558.334L122.551 558.334C121.684 558.334 121.038 558.36 120.611 558.414C120.184 558.454 119.851 558.534 119.611 558.654C119.291 558.814 119.051 559.047 118.891 559.354C118.718 559.647 118.631 560 118.631 560.414C118.631 561.187 118.878 561.854 119.371 562.414C119.864 562.96 120.631 563.26 121.671 563.314L127.011 563.314L127.391 561.974L128.211 561.974L128.211 566.794L127.391 566.794L127.011 565.254ZM127.491 549.528C127.491 548.782 127.338 548.175 127.031 547.708C126.724 547.228 126.298 546.988 125.751 546.988C125.311 546.988 124.958 547.135 124.691 547.428C124.424 547.722 124.211 548.088 124.051 548.528C123.878 548.955 123.731 549.388 123.611 549.828C123.438 550.375 123.238 550.902 123.011 551.408C122.771 551.915 122.444 552.328 122.031 552.648C121.618 552.968 121.071 553.128 120.391 553.128C119.431 553.128 118.664 552.782 118.091 552.088C117.504 551.382 117.211 550.402 117.211 549.148C117.211 548.082 117.438 547.242 117.891 546.628C118.331 546.002 118.938 545.688 119.711 545.688C120.124 545.688 120.458 545.782 120.711 545.968C120.951 546.155 121.071 546.422 121.071 546.768C121.071 547.075 120.978 547.328 120.791 547.528C120.604 547.728 120.364 547.828 120.071 547.828C119.818 547.828 119.591 547.762 119.391 547.628C119.178 547.495 119.024 547.322 118.931 547.108C118.651 547.308 118.451 547.568 118.331 547.888C118.198 548.195 118.131 548.595 118.131 549.088C118.131 549.888 118.278 550.488 118.571 550.888C118.851 551.288 119.271 551.488 119.831 551.488C120.231 551.488 120.551 551.395 120.791 551.208C121.018 551.008 121.211 550.722 121.371 550.348C121.531 549.975 121.698 549.515 121.871 548.968C122.004 548.515 122.158 548.068 122.331 547.628C122.491 547.188 122.691 546.788 122.931 546.428C123.171 546.068 123.471 545.782 123.831 545.568C124.191 545.355 124.638 545.248 125.171 545.248C125.851 545.248 126.438 545.435 126.931 545.808C127.411 546.182 127.778 546.695 128.031 547.348C128.284 548.002 128.411 548.755 128.411 549.608C128.411 550.782 128.171 551.728 127.691 552.448C127.211 553.168 126.564 553.528 125.751 553.528C125.324 553.528 124.991 553.435 124.751 553.248C124.498 553.048 124.371 552.768 124.371 552.408C124.371 552.088 124.464 551.822 124.651 551.608C124.838 551.382 125.084 551.268 125.391 551.268C125.644 551.268 125.884 551.342 126.111 551.488C126.338 551.622 126.504 551.788 126.611 551.988C126.864 551.815 127.078 551.508 127.251 551.068C127.411 550.615 127.491 550.102 127.491 549.528ZM118.611 542.09L118.231 543.63L117.411 543.63L117.411 540.15L127.011 540.15L127.391 538.61L128.211 538.61L128.211 543.63L127.391 543.63L127.011 542.09L118.611 542.09ZM114.191 542.37C113.804 542.37 113.498 542.256 113.271 542.03C113.044 541.803 112.931 541.503 112.931 541.13C112.931 540.743 113.044 540.436 113.271 540.21C113.498 539.983 113.804 539.87 114.191 539.87C114.564 539.87 114.864 539.983 115.091 540.21C115.318 540.436 115.431 540.743 115.431 541.13C115.431 541.516 115.324 541.823 115.111 542.05C114.884 542.263 114.578 542.37 114.191 542.37ZM118.411 537.939L117.691 537.939L117.411 535.999L114.891 535.739L114.651 534.059L117.411 534.059L117.411 531.499L118.411 531.499L118.411 534.059L125.551 534.059C126.004 534.059 126.318 534.052 126.491 534.039C126.651 534.026 126.784 533.999 126.891 533.959C126.984 533.919 127.051 533.846 127.091 533.739C127.118 533.632 127.131 533.459 127.131 533.219L127.131 531.819L127.711 531.819C127.951 532.459 128.124 533.026 128.231 533.519C128.351 533.999 128.411 534.386 128.411 534.679C128.411 535.279 128.164 535.666 127.671 535.839C127.511 535.892 127.304 535.932 127.051 535.959C126.798 535.986 126.424 535.999 125.931 535.999L118.411 535.999L118.411 537.939ZM118.611 521.023L127.731 524.343C128.758 524.716 129.584 525.056 130.211 525.363C130.851 525.669 131.311 526.009 131.591 526.383C131.871 526.756 132.011 527.236 132.011 527.823C132.011 528.449 131.844 528.989 131.511 529.443C131.178 529.883 130.758 530.103 130.251 530.103C129.878 530.103 129.564 529.996 129.311 529.783C129.071 529.569 128.951 529.289 128.951 528.943C128.951 528.636 129.031 528.396 129.191 528.223C129.364 528.036 129.598 527.943 129.891 527.943C130.078 527.943 130.258 527.983 130.431 528.063C130.604 528.129 130.758 528.223 130.891 528.343C131.024 528.316 131.111 528.236 131.151 528.103C131.204 527.969 131.231 527.856 131.231 527.763C131.231 527.576 131.184 527.403 131.091 527.243C130.998 527.083 130.798 526.916 130.491 526.743C130.198 526.556 129.731 526.356 129.091 526.143L128.351 525.903L118.611 530.043L118.231 531.243L117.411 531.243L117.411 526.763L118.231 526.603L118.611 528.023L126.451 525.043L126.451 524.963L118.611 522.443L118.231 523.603L117.411 523.603L117.411 519.803L118.231 519.803L118.611 521.023Z" fill="#C3FA50"/>
<path d="M681.211 628.295L683.585 625.303L684.959 623.927V606.052V567.551L683.585 536.842L684.959 553.801L687.707 557.009V623.927H695.95V580.843V485.507V344.795V458.006L698.24 467.632V543.259V623.927L700.072 616.594L703.736 623.927H706.941L711.064 618.427V333.795V442.423L713.811 621.177L717.017 625.303L719.765 621.177L721.139 618.427L720.233 506.591L720.43 530.883L722.97 608.802V621.177L726.211 628.295" stroke="#C726AD" stroke-width="3"/>
<path d="M574.452 829.085C574.452 830.471 574.592 831.751 574.872 832.925C575.152 834.098 575.546 835.138 576.052 836.045C576.559 836.938 577.159 837.665 577.852 838.225C578.546 838.785 579.312 839.151 580.152 839.325L580.672 838.225C579.832 838.051 579.092 837.565 578.452 836.765C577.826 835.965 577.339 834.911 576.992 833.605C576.646 832.298 576.472 830.805 576.472 829.125C576.472 827.458 576.652 825.965 577.012 824.645C577.372 823.311 577.872 822.225 578.512 821.385C579.166 820.545 579.919 820.025 580.772 819.825L580.352 818.845C579.472 819.058 578.666 819.465 577.932 820.065C577.212 820.665 576.592 821.418 576.072 822.325C575.552 823.231 575.152 824.258 574.872 825.405C574.592 826.538 574.452 827.765 574.452 829.085ZM584.974 838.545L586.914 838.925V839.745H581.494V838.925L583.034 838.545V826.545L581.494 826.165V825.345H584.374L584.674 826.885C585.101 826.218 585.581 825.765 586.114 825.525C586.661 825.271 587.274 825.145 587.954 825.145C588.634 825.145 589.247 825.245 589.794 825.445C590.354 825.645 590.807 825.965 591.154 826.405C591.554 826.911 591.867 827.525 592.094 828.245C592.334 828.951 592.454 829.718 592.454 830.545C592.454 831.398 592.321 832.205 592.054 832.965C591.801 833.711 591.454 834.338 591.014 834.845C590.267 835.711 589.194 836.145 587.794 836.145C587.221 836.145 586.701 836.038 586.234 835.825C585.781 835.598 585.361 835.211 584.974 834.665V838.545ZM584.954 830.565C584.954 831.351 585.014 832.038 585.134 832.625C585.254 833.211 585.427 833.685 585.654 834.045C585.867 834.378 586.127 834.638 586.434 834.825C586.754 835.011 587.161 835.105 587.654 835.105C588.107 835.105 588.501 835.025 588.834 834.865C589.181 834.691 589.461 834.458 589.674 834.165C589.914 833.831 590.087 833.365 590.194 832.765C590.301 832.165 590.354 831.478 590.354 830.705C590.354 829.918 590.294 829.238 590.174 828.665C590.054 828.091 589.881 827.618 589.654 827.245C589.441 826.898 589.174 826.638 588.854 826.465C588.547 826.278 588.141 826.185 587.634 826.185C587.181 826.185 586.781 826.265 586.434 826.425C586.101 826.571 585.841 826.798 585.654 827.105C585.441 827.465 585.267 827.938 585.134 828.525C585.014 829.098 584.954 829.778 584.954 830.565ZM597.357 838.545L599.297 838.925V839.745H593.877V838.925L595.417 838.545V826.545L593.877 826.165V825.345H596.757L597.057 826.885C597.484 826.218 597.964 825.765 598.497 825.525C599.044 825.271 599.657 825.145 600.337 825.145C601.017 825.145 601.63 825.245 602.177 825.445C602.737 825.645 603.19 825.965 603.537 826.405C603.937 826.911 604.25 827.525 604.477 828.245C604.717 828.951 604.837 829.718 604.837 830.545C604.837 831.398 604.704 832.205 604.437 832.965C604.184 833.711 603.837 834.338 603.397 834.845C602.65 835.711 601.577 836.145 600.177 836.145C599.604 836.145 599.084 836.038 598.617 835.825C598.164 835.598 597.744 835.211 597.357 834.665V838.545ZM597.337 830.565C597.337 831.351 597.397 832.038 597.517 832.625C597.637 833.211 597.81 833.685 598.037 834.045C598.25 834.378 598.51 834.638 598.817 834.825C599.137 835.011 599.544 835.105 600.037 835.105C600.49 835.105 600.884 835.025 601.217 834.865C601.564 834.691 601.844 834.458 602.057 834.165C602.297 833.831 602.47 833.365 602.577 832.765C602.684 832.165 602.737 831.478 602.737 830.705C602.737 829.918 602.677 829.238 602.557 828.665C602.437 828.091 602.264 827.618 602.037 827.245C601.824 826.898 601.557 826.638 601.237 826.465C600.93 826.278 600.524 826.185 600.017 826.185C599.564 826.185 599.164 826.265 598.817 826.425C598.484 826.571 598.224 826.798 598.037 827.105C597.824 827.465 597.65 827.938 597.517 828.525C597.397 829.098 597.337 829.778 597.337 830.565ZM608.02 834.945V826.545L606.48 826.165V825.345H609.36L609.8 827.345H609.88C610.266 826.678 610.78 826.145 611.42 825.745C612.073 825.345 612.766 825.145 613.5 825.145C614.046 825.145 614.533 825.251 614.96 825.465C615.386 825.665 615.7 825.918 615.9 826.225C616.113 826.558 616.286 826.998 616.42 827.545C616.846 826.798 617.4 826.211 618.08 825.785C618.76 825.358 619.486 825.145 620.26 825.145C620.793 825.145 621.273 825.251 621.7 825.465C622.126 825.665 622.453 825.945 622.68 826.305C622.84 826.558 622.966 826.885 623.06 827.285C623.153 827.685 623.22 828.205 623.26 828.845C623.3 829.471 623.32 830.271 623.32 831.245V834.945L624.86 835.325V836.145H620.04V835.325L621.38 834.945V830.485C621.38 829.618 621.353 828.971 621.3 828.545C621.26 828.118 621.18 827.785 621.06 827.545C620.9 827.225 620.673 826.985 620.38 826.825C620.1 826.651 619.766 826.565 619.38 826.565C619.046 826.565 618.72 826.631 618.4 826.765C618.08 826.898 617.793 827.078 617.54 827.305C617.246 827.571 617.026 827.885 616.88 828.245C616.746 828.605 616.666 829.058 616.64 829.605V834.945L617.98 835.325V836.145H613.36V835.325L614.7 834.945V830.485C614.7 829.618 614.673 828.971 614.62 828.545C614.58 828.118 614.5 827.785 614.38 827.545C614.22 827.225 613.993 826.985 613.7 826.825C613.42 826.651 613.086 826.565 612.7 826.565C612.366 826.565 612.04 826.631 611.72 826.765C611.4 826.898 611.113 827.078 610.86 827.305C610.566 827.571 610.346 827.885 610.2 828.245C610.066 828.605 609.986 829.058 609.96 829.605V834.945L611.3 835.325V836.145H606.48V835.325L608.02 834.945ZM631.206 829.085C631.206 827.765 631.066 826.538 630.786 825.405C630.506 824.258 630.106 823.231 629.586 822.325C629.066 821.418 628.439 820.665 627.706 820.065C626.986 819.465 626.186 819.058 625.306 818.845L624.886 819.825C625.753 820.025 626.506 820.545 627.146 821.385C627.786 822.225 628.286 823.311 628.646 824.645C629.006 825.965 629.186 827.458 629.186 829.125C629.186 830.805 629.006 832.298 628.646 833.605C628.299 834.911 627.813 835.965 627.186 836.765C626.559 837.565 625.826 838.051 624.986 838.225L625.506 839.325C626.346 839.151 627.113 838.785 627.806 838.225C628.499 837.665 629.099 836.938 629.606 836.045C630.113 835.138 630.506 834.098 630.786 832.925C631.066 831.751 631.206 830.471 631.206 829.085Z" fill="white"/>
<path d="M547.053 824.934C547.053 824.096 547.382 823.424 548.04 822.917C548.698 822.406 549.61 822.15 550.774 822.15C551.286 822.15 551.743 822.193 552.145 822.278C552.552 822.363 552.976 822.491 553.416 822.662V824.338C553.132 824.224 552.746 824.101 552.259 823.968C551.771 823.836 551.286 823.77 550.803 823.77C550.235 823.77 549.799 823.878 549.496 824.096C549.193 824.309 549.041 824.584 549.041 824.92C549.041 825.091 549.096 825.275 549.205 825.474C549.318 825.673 549.529 825.879 549.837 826.092C550.149 826.305 550.604 826.52 551.2 826.738C552.635 827.25 553.679 827.96 554.333 828.869C554.991 829.778 555.32 830.886 555.32 832.193V832.392C555.32 833.367 555.13 834.245 554.752 835.027C554.378 835.808 553.838 836.426 553.132 836.88C552.432 837.335 551.589 837.562 550.604 837.562C549.6 837.562 548.743 837.335 548.033 836.88C547.327 836.426 546.788 835.808 546.414 835.027C546.044 834.245 545.86 833.367 545.86 832.392V832.193C545.86 831.435 546.004 830.742 546.293 830.112C546.582 829.482 546.968 828.954 547.45 828.528C547.933 828.102 548.464 827.818 549.041 827.676V827.619C548.431 827.377 547.945 827.027 547.585 826.568C547.23 826.109 547.053 825.564 547.053 824.934ZM547.82 832.193V832.392C547.82 833.045 547.917 833.646 548.111 834.196C548.31 834.74 548.613 835.178 549.02 835.51C549.432 835.836 549.96 836 550.604 836C551.238 836 551.759 835.836 552.166 835.51C552.574 835.178 552.874 834.74 553.068 834.196C553.262 833.646 553.36 833.045 553.36 832.392V832.193C553.36 831.663 553.246 831.139 553.019 830.623C552.791 830.102 552.472 829.653 552.06 829.274C551.648 828.89 551.163 828.642 550.604 828.528C549.96 828.528 549.432 828.699 549.02 829.039C548.613 829.376 548.31 829.823 548.111 830.382C547.917 830.936 547.82 831.539 547.82 832.193Z" fill="white"/>
<defs>
<filter id="filter0_d_854_9308" x="141.211" y="475.795" width="886" height="161.5" filterUnits="userSpaceOnUse" color-interpolation-filters="sRGB">
<feFlood flood-opacity="0" result="BackgroundImageFix"/>
<feColorMatrix in="SourceAlpha" type="matrix" values="0 0 0 0 0 0 0 0 0 0 0 0 0 0 0 0 0 0 127 0" result="hardAlpha"/>
<feOffset dy="4"/>
<feGaussianBlur stdDeviation="2"/>
<feComposite in2="hardAlpha" operator="out"/>
<feColorMatrix type="matrix" values="0 0 0 0 0 0 0 0 0 0 0 0 0 0 0 0 0 0 0.25 0"/>
<feBlend mode="normal" in2="BackgroundImageFix" result="effect1_dropShadow_854_9308"/>
<feBlend mode="normal" in="SourceGraphic" in2="effect1_dropShadow_854_9308" result="shape"/>
</filter>
</defs>
</svg>
