<svg width="1123" height="901" viewBox="0 0 1123 901" fill="none" xmlns="http://www.w3.org/2000/svg">
<rect width="1122" height="900" transform="translate(0.359375 0.25)" fill="#0C0C31"/>
<path d="M62.9994 85.05H66.0994C66.8194 85.05 67.4327 84.9433 67.9394 84.73C68.4594 84.5167 68.886 84.1833 69.2194 83.73C69.5927 83.2633 69.866 82.65 70.0394 81.89C70.226 81.13 70.3194 80.2233 70.3194 79.17C70.3194 77.09 69.9527 75.5433 69.2194 74.53C68.8727 74.0233 68.426 73.65 67.8794 73.41C67.3327 73.17 66.6727 73.05 65.8994 73.05H62.9994L62.9994 85.05ZM59.3194 71.85H66.0394C68.026 71.85 69.5727 72.41 70.6794 73.53C71.306 74.17 71.786 74.9567 72.1194 75.89C72.4527 76.8233 72.6194 77.8233 72.6194 78.89C72.6194 80.01 72.4394 81.0633 72.0794 82.05C71.7327 83.0233 71.246 83.8433 70.6194 84.51C69.5127 85.67 67.926 86.25 65.8594 86.25H59.3194L59.3194 85.39L60.9994 84.97L60.9994 73.13L59.3194 72.71L59.3194 71.85ZM75.9319 76.65L74.3919 76.27L74.3919 75.45H77.8719L77.8719 85.05L79.4119 85.43L79.4119 86.25H74.3919L74.3919 85.43L75.9319 85.05L75.9319 76.65ZM75.6519 72.23C75.6519 71.8433 75.7652 71.5367 75.9919 71.31C76.2185 71.0833 76.5185 70.97 76.8919 70.97C77.2785 70.97 77.5852 71.0833 77.8119 71.31C78.0385 71.5367 78.1519 71.8433 78.1519 72.23C78.1519 72.6033 78.0385 72.9033 77.8119 73.13C77.5852 73.3567 77.2785 73.47 76.8919 73.47C76.5052 73.47 76.1985 73.3633 75.9719 73.15C75.7585 72.9233 75.6519 72.6167 75.6519 72.23ZM89.8423 80.97H82.8623C82.8623 81.9433 82.9957 82.75 83.2623 83.39C83.529 84.0033 83.909 84.4433 84.4023 84.71C84.8957 84.9767 85.429 85.11 86.0023 85.11C86.629 85.11 87.2023 84.9833 87.7223 84.73C88.2423 84.4633 88.709 84.1033 89.1223 83.65L89.7623 84.13C89.2957 84.77 88.729 85.3167 88.0623 85.77C87.3957 86.2233 86.5357 86.45 85.4823 86.45C84.5623 86.45 83.749 86.2567 83.0423 85.87C82.3357 85.47 81.7957 84.89 81.4223 84.13C81.2223 83.7167 81.0757 83.2567 80.9823 82.75C80.889 82.2433 80.8423 81.7033 80.8423 81.13C80.8423 79.2633 81.269 77.8167 82.1223 76.79C82.989 75.7633 84.1623 75.25 85.6423 75.25C87.0023 75.25 88.049 75.6767 88.7823 76.53C89.529 77.37 89.9023 78.5367 89.9023 80.03C89.9023 80.1633 89.8957 80.29 89.8823 80.41C89.8823 80.5167 89.869 80.7033 89.8423 80.97ZM85.5223 76.33C83.9223 76.33 83.0423 77.55 82.8823 79.99H87.8823L87.8823 79.33C87.8823 78.37 87.6757 77.63 87.2623 77.11C86.8623 76.59 86.2823 76.33 85.5223 76.33ZM90.9612 76.45L90.9612 75.73L92.9013 75.45L93.1612 72.93L94.8413 72.69L94.8413 75.45H97.4013L97.4013 76.45H94.8413L94.8413 83.59C94.8413 84.0433 94.8479 84.3567 94.8613 84.53C94.8746 84.69 94.9013 84.8233 94.9412 84.93C94.9813 85.0233 95.0546 85.09 95.1613 85.13C95.2679 85.1567 95.4413 85.17 95.6812 85.17H97.0813L97.0813 85.75C96.4413 85.99 95.8746 86.1633 95.3812 86.27C94.9012 86.39 94.5146 86.45 94.2212 86.45C93.6212 86.45 93.2346 86.2033 93.0613 85.71C93.0079 85.55 92.9679 85.3433 92.9412 85.09C92.9146 84.8367 92.9012 84.4633 92.9012 83.97L92.9013 76.45H90.9612ZM106.558 85.05L106.558 80.59C106.558 79.7233 106.531 79.0767 106.478 78.65C106.438 78.2233 106.358 77.89 106.238 77.65C105.918 76.9967 105.331 76.67 104.478 76.67C104.104 76.67 103.744 76.7367 103.398 76.87C103.051 77.0033 102.744 77.1833 102.478 77.41C102.184 77.6633 101.964 77.97 101.818 78.33C101.684 78.6767 101.604 79.11 101.578 79.63L101.578 85.05L102.918 85.43L102.918 86.25H98.0977L98.0977 85.43L99.6377 85.05L99.6377 71.85L98.0977 71.47L98.0977 70.65H101.578L101.578 77.33C101.978 76.69 102.504 76.1833 103.158 75.81C103.824 75.4367 104.538 75.25 105.298 75.25C105.831 75.25 106.311 75.3433 106.738 75.53C107.164 75.7167 107.504 75.9833 107.758 76.33C108.024 76.7033 108.211 77.23 108.318 77.91C108.438 78.5767 108.498 79.4833 108.498 80.63L108.498 85.05L110.038 85.43L110.038 86.25H105.218L105.218 85.43L106.558 85.05ZM120.26 76.65L116.94 85.77C116.567 86.7967 116.227 87.6233 115.92 88.25C115.614 88.89 115.274 89.35 114.9 89.63C114.527 89.91 114.047 90.05 113.46 90.05C112.834 90.05 112.294 89.8833 111.84 89.55C111.4 89.2167 111.18 88.7967 111.18 88.29C111.18 87.9167 111.287 87.6033 111.5 87.35C111.714 87.11 111.994 86.99 112.34 86.99C112.647 86.99 112.887 87.07 113.06 87.23C113.247 87.4033 113.34 87.6367 113.34 87.93C113.34 88.1167 113.3 88.2967 113.22 88.47C113.154 88.6433 113.06 88.7967 112.94 88.93C112.967 89.0633 113.047 89.15 113.18 89.19C113.314 89.2433 113.427 89.27 113.52 89.27C113.707 89.27 113.88 89.2233 114.04 89.13C114.2 89.0367 114.367 88.8367 114.54 88.53C114.727 88.2367 114.927 87.77 115.14 87.13L115.38 86.39L111.24 76.65L110.04 76.27L110.04 75.45L114.52 75.45L114.68 76.27L113.26 76.65L116.24 84.49H116.32L118.84 76.65L117.68 76.27L117.68 75.45H121.48L121.48 76.27L120.26 76.65ZM123.643 85.05L123.643 71.85L122.103 71.47L122.103 70.65H125.583L125.583 85.05L127.123 85.43L127.123 86.25H122.103L122.103 85.43L123.643 85.05ZM142.713 80.97H135.733C135.733 81.9433 135.867 82.75 136.133 83.39C136.4 84.0033 136.78 84.4433 137.273 84.71C137.767 84.9767 138.3 85.11 138.873 85.11C139.5 85.11 140.073 84.9833 140.593 84.73C141.113 84.4633 141.58 84.1033 141.993 83.65L142.633 84.13C142.167 84.77 141.6 85.3167 140.933 85.77C140.267 86.2233 139.407 86.45 138.353 86.45C137.433 86.45 136.62 86.2567 135.913 85.87C135.207 85.47 134.667 84.89 134.293 84.13C134.093 83.7167 133.947 83.2567 133.853 82.75C133.76 82.2433 133.713 81.7033 133.713 81.13C133.713 79.2633 134.14 77.8167 134.993 76.79C135.86 75.7633 137.033 75.25 138.513 75.25C139.873 75.25 140.92 75.6767 141.653 76.53C142.4 77.37 142.773 78.5367 142.773 80.03C142.773 80.1633 142.767 80.29 142.753 80.41C142.753 80.5167 142.74 80.7033 142.713 80.97ZM138.393 76.33C136.793 76.33 135.913 77.55 135.753 79.99H140.753L140.753 79.33C140.753 78.37 140.547 77.63 140.133 77.11C139.733 76.59 139.153 76.33 138.393 76.33ZM143.832 76.45L143.832 75.73L145.772 75.45L146.032 72.93L147.712 72.69L147.712 75.45H150.272L150.272 76.45H147.712L147.712 83.59C147.712 84.0433 147.719 84.3567 147.732 84.53C147.746 84.69 147.772 84.8233 147.812 84.93C147.852 85.0233 147.926 85.09 148.032 85.13C148.139 85.1567 148.312 85.17 148.552 85.17H149.952L149.952 85.75C149.312 85.99 148.746 86.1633 148.252 86.27C147.772 86.39 147.386 86.45 147.092 86.45C146.492 86.45 146.106 86.2033 145.932 85.71C145.879 85.55 145.839 85.3433 145.812 85.09C145.786 84.8367 145.772 84.4633 145.772 83.97L145.772 76.45H143.832ZM159.429 85.05L159.429 80.59C159.429 79.7233 159.402 79.0767 159.349 78.65C159.309 78.2233 159.229 77.89 159.109 77.65C158.789 76.9967 158.202 76.67 157.349 76.67C156.975 76.67 156.615 76.7367 156.269 76.87C155.922 77.0033 155.615 77.1833 155.349 77.41C155.055 77.6633 154.835 77.97 154.689 78.33C154.555 78.6767 154.475 79.11 154.449 79.63L154.449 85.05L155.789 85.43L155.789 86.25H150.969L150.969 85.43L152.509 85.05L152.509 71.85L150.969 71.47L150.969 70.65H154.449L154.449 77.33C154.849 76.69 155.375 76.1833 156.029 75.81C156.695 75.4367 157.409 75.25 158.169 75.25C158.702 75.25 159.182 75.3433 159.609 75.53C160.035 75.7167 160.375 75.9833 160.629 76.33C160.895 76.7033 161.082 77.23 161.189 77.91C161.309 78.5767 161.369 79.4833 161.369 80.63L161.369 85.05L162.909 85.43L162.909 86.25H158.089L158.089 85.43L159.429 85.05ZM173.28 80.97H166.3C166.3 81.9433 166.433 82.75 166.7 83.39C166.967 84.0033 167.347 84.4433 167.84 84.71C168.333 84.9767 168.867 85.11 169.44 85.11C170.067 85.11 170.64 84.9833 171.16 84.73C171.68 84.4633 172.147 84.1033 172.56 83.65L173.2 84.13C172.733 84.77 172.167 85.3167 171.5 85.77C170.833 86.2233 169.973 86.45 168.92 86.45C168 86.45 167.187 86.2567 166.48 85.87C165.773 85.47 165.233 84.89 164.86 84.13C164.66 83.7167 164.513 83.2567 164.42 82.75C164.327 82.2433 164.28 81.7033 164.28 81.13C164.28 79.2633 164.707 77.8167 165.56 76.79C166.427 75.7633 167.6 75.25 169.08 75.25C170.44 75.25 171.487 75.6767 172.22 76.53C172.967 77.37 173.34 78.5367 173.34 80.03C173.34 80.1633 173.333 80.29 173.32 80.41C173.32 80.5167 173.307 80.7033 173.28 80.97ZM168.96 76.33C167.36 76.33 166.48 77.55 166.32 79.99H171.32L171.32 79.33C171.32 78.37 171.113 77.63 170.7 77.11C170.3 76.59 169.72 76.33 168.96 76.33ZM180.959 76.61C180.905 76.57 180.839 76.5433 180.759 76.53C180.692 76.5033 180.625 76.49 180.559 76.49C180.399 76.49 180.225 76.5633 180.039 76.71C179.852 76.8567 179.672 77.0567 179.499 77.31C179.325 77.55 179.165 77.83 179.019 78.15C178.832 78.6033 178.685 79.1033 178.579 79.65C178.472 80.1833 178.419 80.7367 178.419 81.31L178.419 85.05L180.579 85.43L180.579 86.25L174.939 86.25L174.939 85.43L176.479 85.05L176.479 76.65L174.939 76.27L174.939 75.45H177.819L178.259 78.09H178.339C178.645 77.1833 179.059 76.4833 179.579 75.99C180.099 75.4967 180.672 75.25 181.299 75.25C181.819 75.25 182.252 75.4167 182.599 75.75C182.945 76.07 183.119 76.5033 183.119 77.05C183.119 77.45 183.012 77.77 182.799 78.01C182.599 78.2367 182.325 78.35 181.979 78.35C181.632 78.35 181.359 78.2433 181.159 78.03C180.959 77.8033 180.859 77.51 180.859 77.15C180.859 77.07 180.865 76.9967 180.879 76.93C180.892 76.85 180.919 76.7433 180.959 76.61Z" fill="white"/>
<g filter="url(#filter0_d_854_9053)">
<path d="M728.552 643.25H796.549H812.065M898.774 643.25H774.137H827.125H819.824M145.359 643.25H681.359M943.359 643.25H985.025H1023.36" stroke="#C3FA50" stroke-width="3"/>
</g>
<path d="M679.859 643.597L682.359 641.764L686.812 623.888V585.387L685.439 554.678L686.812 571.637L689.56 574.845V641.764H697.804V598.679V503.343V362.631V475.842L700.093 485.468V561.095V641.764L701.925 634.43L705.589 641.764H708.795L712.918 636.263V351.631V460.259L715.664 639.013L718.87 643.139L721.618 639.013L722.993 636.263L722.087 524.427L722.283 548.719L724.824 626.638V639.013L727.572 643.597" stroke="#C3FA50" stroke-width="3"/>
<path d="M145.193 685.584L1025.19 685.584" stroke="white" stroke-width="2"/>
<line x1="588.502" y1="685.446" x2="588.502" y2="707.717" stroke="white" stroke-width="2"/>
<line x1="411.49" y1="685.446" x2="411.49" y2="707.717" stroke="white" stroke-width="2"/>
<line x1="234.477" y1="685.446" x2="234.477" y2="707.717" stroke="white" stroke-width="2"/>
<line x1="144.791" y1="684.332" x2="144.791" y2="706.603" stroke="white" stroke-width="2"/>
<line x1="855.201" y1="685.446" x2="855.201" y2="707.717" stroke="white" stroke-width="2"/>
<line x1="678.188" y1="685.446" x2="678.188" y2="707.717" stroke="white" stroke-width="2"/>
<line x1="501.176" y1="685.446" x2="501.176" y2="707.717" stroke="white" stroke-width="2"/>
<line x1="322.984" y1="685.446" x2="322.984" y2="707.717" stroke="white" stroke-width="2"/>
<line x1="944.887" y1="685.446" x2="944.887" y2="707.717" stroke="white" stroke-width="2"/>
<line x1="1023.95" y1="685.446" x2="1023.95" y2="707.717" stroke="white" stroke-width="2"/>
<line x1="766.695" y1="685.446" x2="766.695" y2="707.717" stroke="white" stroke-width="2"/>
<path d="M223.416 728.79C223.416 729.723 223.636 730.497 224.076 731.11C224.516 731.71 225.222 732.01 226.196 732.01C226.662 732.01 227.169 731.857 227.716 731.55C228.276 731.243 228.802 730.75 229.296 730.07C229.216 728.723 228.902 727.637 228.356 726.81C227.822 725.983 227.036 725.57 225.996 725.57C225.516 725.57 225.076 725.717 224.676 726.01C224.289 726.29 223.982 726.67 223.756 727.15C223.529 727.63 223.416 728.177 223.416 728.79ZM225.496 738.07C224.909 738.07 224.389 737.957 223.936 737.73C223.496 737.503 223.116 737.203 222.796 736.83L223.336 736.23C223.616 736.577 223.942 736.843 224.316 737.03C224.702 737.203 225.102 737.29 225.516 737.29C226.196 737.29 226.822 737.09 227.396 736.69C227.969 736.29 228.429 735.63 228.776 734.71C229.136 733.79 229.316 732.55 229.316 730.99C228.876 731.523 228.376 731.95 227.816 732.27C227.256 732.59 226.676 732.75 226.076 732.75C224.969 732.75 224.102 732.417 223.476 731.75C222.849 731.07 222.536 730.083 222.536 728.79C222.536 728.017 222.696 727.33 223.016 726.73C223.336 726.13 223.762 725.663 224.296 725.33C224.829 724.983 225.409 724.81 226.036 724.81C227.302 724.81 228.309 725.33 229.056 726.37C229.816 727.397 230.196 728.883 230.196 730.83C230.196 732.617 229.976 734.043 229.536 735.11C229.096 736.163 228.516 736.923 227.796 737.39C227.089 737.843 226.322 738.07 225.496 738.07ZM233.446 738.07C233.233 738.07 233.033 737.99 232.846 737.83C232.673 737.67 232.586 737.45 232.586 737.17C232.586 736.877 232.673 736.65 232.846 736.49C233.033 736.33 233.233 736.25 233.446 736.25C233.673 736.25 233.866 736.33 234.026 736.49C234.199 736.65 234.286 736.877 234.286 737.17C234.286 737.45 234.199 737.67 234.026 737.83C233.866 737.99 233.673 738.07 233.446 738.07ZM240.401 738.07C239.188 738.07 238.248 737.49 237.581 736.33C236.914 735.17 236.581 733.523 236.581 731.39C236.581 729.27 236.914 727.643 237.581 726.51C238.248 725.377 239.188 724.81 240.401 724.81C241.628 724.81 242.568 725.377 243.221 726.51C243.888 727.643 244.221 729.27 244.221 731.39C244.221 733.523 243.888 735.17 243.221 736.33C242.568 737.49 241.628 738.07 240.401 738.07ZM240.401 737.31C241.294 737.31 242.001 736.81 242.521 735.81C243.054 734.81 243.321 733.337 243.321 731.39C243.321 729.443 243.054 727.99 242.521 727.03C242.001 726.057 241.294 725.57 240.401 725.57C239.521 725.57 238.814 726.057 238.281 727.03C237.748 727.99 237.481 729.443 237.481 731.39C237.481 733.337 237.748 734.81 238.281 735.81C238.814 736.81 239.521 737.31 240.401 737.31Z" fill="white"/>
<path d="M128.95 737.83V737.05H131.95V726.45H129.67V725.85C130.19 725.757 130.656 725.643 131.07 725.51C131.483 725.377 131.836 725.223 132.13 725.05H132.85V737.05H135.63V737.83H128.95ZM141.62 738.07C140.407 738.07 139.467 737.49 138.8 736.33C138.133 735.17 137.8 733.523 137.8 731.39C137.8 729.27 138.133 727.643 138.8 726.51C139.467 725.377 140.407 724.81 141.62 724.81C142.847 724.81 143.787 725.377 144.44 726.51C145.107 727.643 145.44 729.27 145.44 731.39C145.44 733.523 145.107 735.17 144.44 736.33C143.787 737.49 142.847 738.07 141.62 738.07ZM141.62 737.31C142.513 737.31 143.22 736.81 143.74 735.81C144.273 734.81 144.54 733.337 144.54 731.39C144.54 729.443 144.273 727.99 143.74 727.03C143.22 726.057 142.513 725.57 141.62 725.57C140.74 725.57 140.033 726.057 139.5 727.03C138.967 727.99 138.7 729.443 138.7 731.39C138.7 733.337 138.967 734.81 139.5 735.81C140.033 736.81 140.74 737.31 141.62 737.31ZM148.61 738.07C148.397 738.07 148.197 737.99 148.01 737.83C147.837 737.67 147.75 737.45 147.75 737.17C147.75 736.877 147.837 736.65 148.01 736.49C148.197 736.33 148.397 736.25 148.61 736.25C148.837 736.25 149.03 736.33 149.19 736.49C149.363 736.65 149.45 736.877 149.45 737.17C149.45 737.45 149.363 737.67 149.19 737.83C149.03 737.99 148.837 738.07 148.61 738.07ZM155.565 738.07C154.352 738.07 153.412 737.49 152.745 736.33C152.078 735.17 151.745 733.523 151.745 731.39C151.745 729.27 152.078 727.643 152.745 726.51C153.412 725.377 154.352 724.81 155.565 724.81C156.792 724.81 157.732 725.377 158.385 726.51C159.052 727.643 159.385 729.27 159.385 731.39C159.385 733.523 159.052 735.17 158.385 736.33C157.732 737.49 156.792 738.07 155.565 738.07ZM155.565 737.31C156.458 737.31 157.165 736.81 157.685 735.81C158.218 734.81 158.485 733.337 158.485 731.39C158.485 729.443 158.218 727.99 157.685 727.03C157.165 726.057 156.458 725.57 155.565 725.57C154.685 725.57 153.978 726.057 153.445 727.03C152.912 727.99 152.645 729.443 152.645 731.39C152.645 733.337 152.912 734.81 153.445 735.81C153.978 736.81 154.685 737.31 155.565 737.31Z" fill="white"/>
<path d="M316.221 736.957C315.448 736.957 314.755 736.803 314.141 736.497C313.528 736.19 313.041 735.77 312.681 735.237C312.335 734.703 312.161 734.103 312.161 733.437C312.161 732.863 312.288 732.343 312.541 731.877C312.808 731.41 313.135 731.01 313.521 730.677C313.921 730.33 314.321 730.05 314.721 729.837V729.757C314.255 729.45 313.828 729.057 313.441 728.577C313.068 728.083 312.881 727.497 312.881 726.817C312.881 726.203 313.028 725.663 313.321 725.197C313.628 724.73 314.035 724.363 314.541 724.097C315.048 723.83 315.608 723.697 316.221 723.697C317.315 723.697 318.161 724.017 318.761 724.657C319.375 725.283 319.681 726.077 319.681 727.037C319.681 727.503 319.581 727.95 319.381 728.377C319.181 728.79 318.941 729.163 318.661 729.497C318.381 729.817 318.115 730.077 317.861 730.277V730.357C318.235 730.583 318.588 730.843 318.921 731.137C319.268 731.417 319.548 731.757 319.761 732.157C319.988 732.557 320.101 733.043 320.101 733.617C320.101 734.23 319.935 734.79 319.601 735.297C319.281 735.803 318.828 736.21 318.241 736.517C317.668 736.81 316.995 736.957 316.221 736.957ZM317.161 730.017C317.708 729.577 318.121 729.11 318.401 728.617C318.695 728.123 318.841 727.603 318.841 727.057C318.841 726.35 318.608 725.737 318.141 725.217C317.688 724.697 317.048 724.437 316.221 724.437C315.515 724.437 314.928 724.663 314.461 725.117C313.995 725.557 313.761 726.123 313.761 726.817C313.761 727.417 313.928 727.917 314.261 728.317C314.595 728.703 315.021 729.03 315.541 729.297C316.061 729.55 316.601 729.79 317.161 730.017ZM316.221 736.217C317.128 736.217 317.848 735.963 318.381 735.457C318.928 734.95 319.201 734.33 319.201 733.597C319.201 732.943 319.015 732.417 318.641 732.017C318.268 731.603 317.781 731.257 317.181 730.977C316.595 730.697 315.968 730.43 315.301 730.177C314.648 730.55 314.108 731.003 313.681 731.537C313.255 732.07 313.041 732.69 313.041 733.397C313.041 733.93 313.175 734.41 313.441 734.837C313.721 735.25 314.101 735.583 314.581 735.837C315.061 736.09 315.608 736.217 316.221 736.217ZM323.132 736.957C322.918 736.957 322.718 736.877 322.532 736.717C322.358 736.557 322.272 736.337 322.272 736.057C322.272 735.763 322.358 735.537 322.532 735.377C322.718 735.217 322.918 735.137 323.132 735.137C323.358 735.137 323.552 735.217 323.712 735.377C323.885 735.537 323.972 735.763 323.972 736.057C323.972 736.337 323.885 736.557 323.712 736.717C323.552 736.877 323.358 736.957 323.132 736.957ZM330.087 736.957C328.873 736.957 327.933 736.377 327.267 735.217C326.6 734.057 326.267 732.41 326.267 730.277C326.267 728.157 326.6 726.53 327.267 725.397C327.933 724.263 328.873 723.697 330.087 723.697C331.313 723.697 332.253 724.263 332.907 725.397C333.573 726.53 333.907 728.157 333.907 730.277C333.907 732.41 333.573 734.057 332.907 735.217C332.253 736.377 331.313 736.957 330.087 736.957ZM330.087 736.197C330.98 736.197 331.687 735.697 332.207 734.697C332.74 733.697 333.007 732.223 333.007 730.277C333.007 728.33 332.74 726.877 332.207 725.917C331.687 724.943 330.98 724.457 330.087 724.457C329.207 724.457 328.5 724.943 327.967 725.917C327.433 726.877 327.167 728.33 327.167 730.277C327.167 732.223 327.433 733.697 327.967 734.697C328.5 735.697 329.207 736.197 330.087 736.197Z" fill="white"/>
<path d="M404.809 736.717C404.875 734.997 405.049 733.457 405.329 732.097C405.609 730.737 406.022 729.47 406.569 728.297C407.115 727.11 407.815 725.917 408.669 724.717H401.929V723.937H409.789V724.457C409.029 725.47 408.395 726.45 407.889 727.397C407.395 728.33 407.002 729.277 406.709 730.237C406.415 731.197 406.195 732.203 406.049 733.257C405.915 734.31 405.822 735.463 405.769 736.717H404.809ZM412.819 736.957C412.606 736.957 412.406 736.877 412.219 736.717C412.046 736.557 411.959 736.337 411.959 736.057C411.959 735.763 412.046 735.537 412.219 735.377C412.406 735.217 412.606 735.137 412.819 735.137C413.046 735.137 413.239 735.217 413.399 735.377C413.572 735.537 413.659 735.763 413.659 736.057C413.659 736.337 413.572 736.557 413.399 736.717C413.239 736.877 413.046 736.957 412.819 736.957ZM419.774 736.957C418.561 736.957 417.621 736.377 416.954 735.217C416.287 734.057 415.954 732.41 415.954 730.277C415.954 728.157 416.287 726.53 416.954 725.397C417.621 724.263 418.561 723.697 419.774 723.697C421.001 723.697 421.941 724.263 422.594 725.397C423.261 726.53 423.594 728.157 423.594 730.277C423.594 732.41 423.261 734.057 422.594 735.217C421.941 736.377 421.001 736.957 419.774 736.957ZM419.774 736.197C420.667 736.197 421.374 735.697 421.894 734.697C422.427 733.697 422.694 732.223 422.694 730.277C422.694 728.33 422.427 726.877 421.894 725.917C421.374 724.943 420.667 724.457 419.774 724.457C418.894 724.457 418.187 724.943 417.654 725.917C417.121 726.877 416.854 728.33 416.854 730.277C416.854 732.223 417.121 733.697 417.654 734.697C418.187 735.697 418.894 736.197 419.774 736.197Z" fill="white"/>
<path d="M493.435 729.757C492.982 729.757 492.482 729.903 491.935 730.197C491.388 730.477 490.855 730.97 490.335 731.677C490.415 733.023 490.722 734.117 491.255 734.957C491.788 735.783 492.575 736.197 493.615 736.197C494.108 736.197 494.548 736.057 494.935 735.777C495.322 735.483 495.628 735.097 495.855 734.617C496.082 734.123 496.195 733.57 496.195 732.957C496.195 732.037 495.975 731.277 495.535 730.677C495.108 730.063 494.408 729.757 493.435 729.757ZM493.595 736.957C492.315 736.957 491.295 736.437 490.535 735.397C489.788 734.343 489.415 732.85 489.415 730.917C489.415 729.57 489.542 728.437 489.795 727.517C490.048 726.597 490.395 725.857 490.835 725.297C491.275 724.737 491.775 724.33 492.335 724.077C492.908 723.823 493.502 723.697 494.115 723.697C494.715 723.697 495.228 723.81 495.655 724.037C496.095 724.263 496.482 724.563 496.815 724.937L496.275 725.537C495.995 725.19 495.668 724.93 495.295 724.757C494.922 724.57 494.528 724.477 494.115 724.477C493.435 724.477 492.802 724.677 492.215 725.077C491.642 725.477 491.182 726.137 490.835 727.057C490.488 727.977 490.315 729.217 490.315 730.777C490.755 730.23 491.255 729.797 491.815 729.477C492.375 729.157 492.948 728.997 493.535 728.997C494.655 728.997 495.528 729.337 496.155 730.017C496.782 730.683 497.095 731.663 497.095 732.957C497.095 733.73 496.935 734.417 496.615 735.017C496.295 735.617 495.868 736.09 495.335 736.437C494.815 736.783 494.235 736.957 493.595 736.957ZM500.145 736.957C499.932 736.957 499.732 736.877 499.545 736.717C499.372 736.557 499.285 736.337 499.285 736.057C499.285 735.763 499.372 735.537 499.545 735.377C499.732 735.217 499.932 735.137 500.145 735.137C500.372 735.137 500.565 735.217 500.725 735.377C500.899 735.537 500.985 735.763 500.985 736.057C500.985 736.337 500.899 736.557 500.725 736.717C500.565 736.877 500.372 736.957 500.145 736.957ZM507.1 736.957C505.887 736.957 504.947 736.377 504.28 735.217C503.614 734.057 503.28 732.41 503.28 730.277C503.28 728.157 503.614 726.53 504.28 725.397C504.947 724.263 505.887 723.697 507.1 723.697C508.327 723.697 509.267 724.263 509.92 725.397C510.587 726.53 510.92 728.157 510.92 730.277C510.92 732.41 510.587 734.057 509.92 735.217C509.267 736.377 508.327 736.957 507.1 736.957ZM507.1 736.197C507.994 736.197 508.7 735.697 509.22 734.697C509.754 733.697 510.02 732.223 510.02 730.277C510.02 728.33 509.754 726.877 509.22 725.917C508.7 724.943 507.994 724.457 507.1 724.457C506.22 724.457 505.514 724.943 504.98 725.917C504.447 726.877 504.18 728.33 504.18 730.277C504.18 732.223 504.447 733.697 504.98 734.697C505.514 735.697 506.22 736.197 507.1 736.197Z" fill="white"/>
<path d="M580.241 736.957C579.561 736.957 578.968 736.87 578.461 736.697C577.968 736.523 577.541 736.303 577.181 736.037C576.821 735.77 576.501 735.503 576.221 735.237L576.721 734.617C577.108 735.003 577.568 735.363 578.101 735.697C578.648 736.017 579.355 736.177 580.221 736.177C580.795 736.177 581.321 736.037 581.801 735.757C582.281 735.463 582.668 735.057 582.961 734.537C583.255 734.017 583.401 733.417 583.401 732.737C583.401 731.71 583.115 730.903 582.541 730.317C581.981 729.73 581.228 729.437 580.281 729.437C579.788 729.437 579.361 729.517 579.001 729.677C578.655 729.823 578.288 730.03 577.901 730.297L577.281 729.917L577.741 723.937H583.641V724.717H578.541L578.141 729.337C578.475 729.137 578.821 728.977 579.181 728.857C579.541 728.723 579.955 728.657 580.421 728.657C581.141 728.657 581.795 728.803 582.381 729.097C582.981 729.377 583.455 729.817 583.801 730.417C584.148 731.003 584.321 731.763 584.321 732.697C584.321 733.603 584.121 734.377 583.721 735.017C583.335 735.643 582.828 736.123 582.201 736.457C581.588 736.79 580.935 736.957 580.241 736.957ZM587.471 736.957C587.258 736.957 587.058 736.877 586.871 736.717C586.698 736.557 586.611 736.337 586.611 736.057C586.611 735.763 586.698 735.537 586.871 735.377C587.058 735.217 587.258 735.137 587.471 735.137C587.698 735.137 587.891 735.217 588.051 735.377C588.225 735.537 588.311 735.763 588.311 736.057C588.311 736.337 588.225 736.557 588.051 736.717C587.891 736.877 587.698 736.957 587.471 736.957ZM594.426 736.957C593.213 736.957 592.273 736.377 591.606 735.217C590.94 734.057 590.606 732.41 590.606 730.277C590.606 728.157 590.94 726.53 591.606 725.397C592.273 724.263 593.213 723.697 594.426 723.697C595.653 723.697 596.593 724.263 597.246 725.397C597.913 726.53 598.246 728.157 598.246 730.277C598.246 732.41 597.913 734.057 597.246 735.217C596.593 736.377 595.653 736.957 594.426 736.957ZM594.426 736.197C595.32 736.197 596.026 735.697 596.546 734.697C597.08 733.697 597.346 732.223 597.346 730.277C597.346 728.33 597.08 726.877 596.546 725.917C596.026 724.943 595.32 724.457 594.426 724.457C593.546 724.457 592.84 724.943 592.306 725.917C591.773 726.877 591.506 728.33 591.506 730.277C591.506 732.223 591.773 733.697 592.306 734.697C592.84 735.697 593.546 736.197 594.426 736.197Z" fill="white"/>
<path d="M666.787 732.137H671.587V727.457C671.587 727.163 671.593 726.797 671.607 726.357C671.633 725.917 671.653 725.55 671.667 725.257H671.587C671.427 725.523 671.26 725.783 671.087 726.037C670.913 726.29 670.733 726.563 670.547 726.857L666.787 732.137ZM671.587 736.717V732.897H665.707V732.377L671.647 723.937H672.447V732.137H674.347V732.897H672.447V736.717H671.587ZM677.157 736.957C676.944 736.957 676.744 736.877 676.557 736.717C676.384 736.557 676.297 736.337 676.297 736.057C676.297 735.763 676.384 735.537 676.557 735.377C676.744 735.217 676.944 735.137 677.157 735.137C677.384 735.137 677.577 735.217 677.737 735.377C677.91 735.537 677.997 735.763 677.997 736.057C677.997 736.337 677.91 736.557 677.737 736.717C677.577 736.877 677.384 736.957 677.157 736.957ZM684.112 736.957C682.899 736.957 681.959 736.377 681.292 735.217C680.625 734.057 680.292 732.41 680.292 730.277C680.292 728.157 680.625 726.53 681.292 725.397C681.959 724.263 682.899 723.697 684.112 723.697C685.339 723.697 686.279 724.263 686.932 725.397C687.599 726.53 687.932 728.157 687.932 730.277C687.932 732.41 687.599 734.057 686.932 735.217C686.279 736.377 685.339 736.957 684.112 736.957ZM684.112 736.197C685.005 736.197 685.712 735.697 686.232 734.697C686.765 733.697 687.032 732.223 687.032 730.277C687.032 728.33 686.765 726.877 686.232 725.917C685.712 724.943 685.005 724.457 684.112 724.457C683.232 724.457 682.525 724.943 681.992 725.917C681.459 726.877 681.192 728.33 681.192 730.277C681.192 732.223 681.459 733.697 681.992 734.697C682.525 735.697 683.232 736.197 684.112 736.197Z" fill="white"/>
<path d="M757.353 736.957C756.673 736.957 756.08 736.87 755.573 736.697C755.066 736.51 754.626 736.277 754.253 735.997C753.893 735.717 753.573 735.437 753.293 735.157L753.813 734.537C754.2 734.95 754.666 735.33 755.213 735.677C755.76 736.01 756.473 736.177 757.353 736.177C758.22 736.177 758.933 735.923 759.493 735.417C760.053 734.897 760.333 734.21 760.333 733.357C760.333 732.477 759.986 731.763 759.293 731.217C758.613 730.67 757.473 730.397 755.873 730.397V729.617C756.86 729.617 757.646 729.497 758.233 729.257C758.82 729.003 759.24 728.663 759.493 728.237C759.746 727.81 759.873 727.343 759.873 726.837C759.873 726.117 759.64 725.543 759.173 725.117C758.706 724.677 758.08 724.457 757.293 724.457C756.706 724.457 756.16 724.597 755.653 724.877C755.16 725.143 754.726 725.47 754.353 725.857L753.833 725.257C754.273 724.83 754.773 724.463 755.333 724.157C755.906 723.85 756.56 723.697 757.293 723.697C757.96 723.697 758.553 723.817 759.073 724.057C759.606 724.297 760.026 724.65 760.333 725.117C760.64 725.57 760.793 726.123 760.793 726.777C760.793 727.617 760.56 728.297 760.093 728.817C759.64 729.323 759.06 729.697 758.353 729.937V730.017C758.886 730.123 759.366 730.33 759.793 730.637C760.233 730.93 760.586 731.303 760.853 731.757C761.12 732.21 761.253 732.737 761.253 733.337C761.253 734.07 761.08 734.71 760.733 735.257C760.386 735.803 759.92 736.223 759.333 736.517C758.746 736.81 758.086 736.957 757.353 736.957ZM764.483 736.957C764.27 736.957 764.07 736.877 763.883 736.717C763.71 736.557 763.623 736.337 763.623 736.057C763.623 735.763 763.71 735.537 763.883 735.377C764.07 735.217 764.27 735.137 764.483 735.137C764.71 735.137 764.903 735.217 765.063 735.377C765.237 735.537 765.323 735.763 765.323 736.057C765.323 736.337 765.237 736.557 765.063 736.717C764.903 736.877 764.71 736.957 764.483 736.957ZM771.438 736.957C770.225 736.957 769.285 736.377 768.618 735.217C767.952 734.057 767.618 732.41 767.618 730.277C767.618 728.157 767.952 726.53 768.618 725.397C769.285 724.263 770.225 723.697 771.438 723.697C772.665 723.697 773.605 724.263 774.258 725.397C774.925 726.53 775.258 728.157 775.258 730.277C775.258 732.41 774.925 734.057 774.258 735.217C773.605 736.377 772.665 736.957 771.438 736.957ZM771.438 736.197C772.332 736.197 773.038 735.697 773.558 734.697C774.092 733.697 774.358 732.223 774.358 730.277C774.358 728.33 774.092 726.877 773.558 725.917C773.038 724.943 772.332 724.457 771.438 724.457C770.558 724.457 769.852 724.943 769.318 725.917C768.785 726.877 768.518 728.33 768.518 730.277C768.518 732.223 768.785 733.697 769.318 734.697C769.852 735.697 770.558 736.197 771.438 736.197Z" fill="white"/>
<path d="M843.22 736.717V736.157C844.62 734.73 845.787 733.497 846.72 732.457C847.654 731.403 848.354 730.463 848.82 729.637C849.287 728.81 849.52 728.03 849.52 727.297C849.52 726.497 849.294 725.823 848.84 725.277C848.4 724.73 847.7 724.457 846.74 724.457C846.167 724.457 845.62 724.617 845.1 724.937C844.594 725.257 844.147 725.657 843.76 726.137L843.18 725.577C843.66 725.043 844.194 724.597 844.78 724.237C845.367 723.877 846.047 723.697 846.82 723.697C847.967 723.697 848.854 724.023 849.48 724.677C850.107 725.33 850.42 726.197 850.42 727.277C850.42 728.117 850.174 728.97 849.68 729.837C849.2 730.703 848.52 731.637 847.64 732.637C846.774 733.637 845.747 734.763 844.56 736.017C844.907 735.99 845.26 735.97 845.62 735.957C845.994 735.93 846.354 735.917 846.7 735.917H851.06V736.717H843.22ZM854.171 736.957C853.957 736.957 853.757 736.877 853.571 736.717C853.397 736.557 853.311 736.337 853.311 736.057C853.311 735.763 853.397 735.537 853.571 735.377C853.757 735.217 853.957 735.137 854.171 735.137C854.397 735.137 854.591 735.217 854.751 735.377C854.924 735.537 855.011 735.763 855.011 736.057C855.011 736.337 854.924 736.557 854.751 736.717C854.591 736.877 854.397 736.957 854.171 736.957ZM861.126 736.957C859.912 736.957 858.972 736.377 858.306 735.217C857.639 734.057 857.306 732.41 857.306 730.277C857.306 728.157 857.639 726.53 858.306 725.397C858.972 724.263 859.912 723.697 861.126 723.697C862.352 723.697 863.292 724.263 863.946 725.397C864.612 726.53 864.946 728.157 864.946 730.277C864.946 732.41 864.612 734.057 863.946 735.217C863.292 736.377 862.352 736.957 861.126 736.957ZM861.126 736.197C862.019 736.197 862.726 735.697 863.246 734.697C863.779 733.697 864.046 732.223 864.046 730.277C864.046 728.33 863.779 726.877 863.246 725.917C862.726 724.943 862.019 724.457 861.126 724.457C860.246 724.457 859.539 724.943 859.006 725.917C858.472 726.877 858.206 728.33 858.206 730.277C858.206 732.223 858.472 733.697 859.006 734.697C859.539 735.697 860.246 736.197 861.126 736.197Z" fill="white"/>
<path d="M938.487 736.717V735.937H941.487V725.337H939.207V724.737C939.727 724.643 940.193 724.53 940.607 724.397C941.02 724.263 941.373 724.11 941.667 723.937H942.387V735.937H945.167V736.717H938.487ZM948.577 736.957C948.364 736.957 948.164 736.877 947.977 736.717C947.804 736.557 947.717 736.337 947.717 736.057C947.717 735.763 947.804 735.537 947.977 735.377C948.164 735.217 948.364 735.137 948.577 735.137C948.804 735.137 948.997 735.217 949.157 735.377C949.33 735.537 949.417 735.763 949.417 736.057C949.417 736.337 949.33 736.557 949.157 736.717C948.997 736.877 948.804 736.957 948.577 736.957ZM955.532 736.957C954.319 736.957 953.379 736.377 952.712 735.217C952.045 734.057 951.712 732.41 951.712 730.277C951.712 728.157 952.045 726.53 952.712 725.397C953.379 724.263 954.319 723.697 955.532 723.697C956.759 723.697 957.699 724.263 958.352 725.397C959.019 726.53 959.352 728.157 959.352 730.277C959.352 732.41 959.019 734.057 958.352 735.217C957.699 736.377 956.759 736.957 955.532 736.957ZM955.532 736.197C956.425 736.197 957.132 735.697 957.652 734.697C958.185 733.697 958.452 732.223 958.452 730.277C958.452 728.33 958.185 726.877 957.652 725.917C957.132 724.943 956.425 724.457 955.532 724.457C954.652 724.457 953.945 724.943 953.412 725.917C952.879 726.877 952.612 728.33 952.612 730.277C952.612 732.223 952.879 733.697 953.412 734.697C953.945 735.697 954.652 736.197 955.532 736.197Z" fill="white"/>
<path d="M1025.37 736.957C1024.16 736.957 1023.22 736.377 1022.55 735.217C1021.89 734.057 1021.55 732.41 1021.55 730.277C1021.55 728.157 1021.89 726.53 1022.55 725.397C1023.22 724.263 1024.16 723.697 1025.37 723.697C1026.6 723.697 1027.54 724.263 1028.19 725.397C1028.86 726.53 1029.19 728.157 1029.19 730.277C1029.19 732.41 1028.86 734.057 1028.19 735.217C1027.54 736.377 1026.6 736.957 1025.37 736.957ZM1025.37 736.197C1026.27 736.197 1026.97 735.697 1027.49 734.697C1028.03 733.697 1028.29 732.223 1028.29 730.277C1028.29 728.33 1028.03 726.877 1027.49 725.917C1026.97 724.943 1026.27 724.457 1025.37 724.457C1024.49 724.457 1023.79 724.943 1023.25 725.917C1022.72 726.877 1022.45 728.33 1022.45 730.277C1022.45 732.223 1022.72 733.697 1023.25 734.697C1023.79 735.697 1024.49 736.197 1025.37 736.197Z" fill="white"/>
<path d="M354.093 311.738C354.093 313.259 353.857 314.691 353.385 316.037C352.931 317.365 352.293 318.475 351.471 319.366C350.755 320.135 349.89 320.711 348.877 321.096C347.881 321.463 346.727 321.646 345.417 321.646C344.089 321.646 342.918 321.463 341.904 321.096C340.891 320.729 340.043 320.178 339.362 319.444C338.558 318.606 337.938 317.557 337.501 316.299C337.064 315.023 336.846 313.643 336.846 312.158C336.846 310.638 337.073 309.213 337.527 307.885C337.999 306.54 338.646 305.422 339.467 304.53C340.201 303.744 341.048 303.167 342.009 302.8C342.988 302.433 344.141 302.25 345.469 302.25C346.797 302.25 347.959 302.433 348.955 302.8C349.969 303.15 350.834 303.7 351.55 304.452C352.371 305.29 353 306.348 353.437 307.623C353.874 308.899 354.093 310.271 354.093 311.738ZM339.86 311.634C339.86 313.084 339.982 314.377 340.227 315.513C340.472 316.631 340.821 317.548 341.275 318.265C341.73 318.911 342.298 319.401 342.979 319.733C343.678 320.047 344.534 320.205 345.548 320.205C347.4 320.205 348.763 319.628 349.637 318.475C350.108 317.828 350.467 316.972 350.711 315.906C350.956 314.823 351.078 313.556 351.078 312.105C351.078 310.655 350.956 309.379 350.711 308.279C350.467 307.178 350.108 306.286 349.637 305.605C349.182 304.941 348.597 304.452 347.881 304.137C347.182 303.823 346.352 303.665 345.39 303.665C344.464 303.665 343.661 303.814 342.979 304.111C342.315 304.391 341.756 304.819 341.302 305.395C340.341 306.671 339.86 308.75 339.86 311.634Z" fill="white"/>
<path d="M354.093 311.738C354.093 313.259 353.857 314.691 353.385 316.037C352.931 317.365 352.293 318.475 351.471 319.366C350.755 320.135 349.89 320.711 348.877 321.096C347.881 321.463 346.727 321.646 345.417 321.646C344.089 321.646 342.918 321.463 341.904 321.096C340.891 320.729 340.043 320.178 339.362 319.444C338.558 318.606 337.938 317.557 337.501 316.299C337.064 315.023 336.846 313.643 336.846 312.158C336.846 310.638 337.073 309.213 337.527 307.885C337.999 306.54 338.646 305.422 339.467 304.53C340.201 303.744 341.048 303.167 342.009 302.8C342.988 302.433 344.141 302.25 345.469 302.25C346.797 302.25 347.959 302.433 348.955 302.8C349.969 303.15 350.834 303.7 351.55 304.452C352.371 305.29 353 306.348 353.437 307.623C353.874 308.899 354.093 310.271 354.093 311.738ZM339.86 311.634C339.86 313.084 339.982 314.377 340.227 315.513C340.472 316.631 340.821 317.548 341.275 318.265C341.73 318.911 342.298 319.401 342.979 319.733C343.678 320.047 344.534 320.205 345.548 320.205C347.4 320.205 348.763 319.628 349.637 318.475C350.108 317.828 350.467 316.972 350.711 315.906C350.956 314.823 351.078 313.556 351.078 312.105C351.078 310.655 350.956 309.379 350.711 308.279C350.467 307.178 350.108 306.286 349.637 305.605C349.182 304.941 348.597 304.452 347.881 304.137C347.182 303.823 346.352 303.665 345.39 303.665C344.464 303.665 343.661 303.814 342.979 304.111C342.315 304.391 341.756 304.819 341.302 305.395C340.341 306.671 339.86 308.75 339.86 311.634Z" stroke="black"/>
<path d="M180.911 303.709C180.032 303.709 179.279 303.845 178.652 304.115C178.042 304.385 177.522 304.809 177.092 305.385C176.554 306.088 176.133 307.016 175.828 308.169C175.524 309.304 175.371 310.556 175.371 311.926C175.371 313.205 175.506 314.403 175.775 315.52C176.043 316.637 176.42 317.574 176.904 318.331C177.388 319.088 177.971 319.646 178.652 320.007C179.351 320.349 180.22 320.52 181.26 320.52C184.487 320.52 186.36 318.998 186.88 315.953H188.359C187.553 320.151 185.097 322.25 180.991 322.25C178.517 322.25 176.545 321.529 175.075 320.088C174.197 319.223 173.525 318.133 173.059 316.818C172.592 315.502 172.359 314.043 172.359 312.439C172.359 310.619 172.655 308.971 173.247 307.493C173.838 306.016 174.672 304.836 175.748 303.953C177.11 302.818 178.912 302.25 181.153 302.25C182.264 302.25 183.169 302.394 183.869 302.682C184.568 302.971 185.258 303.484 185.939 304.223L186.477 302.52H187.956V308.493H186.316C186.065 306.908 185.482 305.718 184.568 304.926C183.671 304.115 182.452 303.709 180.911 303.709Z" fill="white"/>
<path d="M180.911 303.709C180.032 303.709 179.279 303.845 178.652 304.115C178.042 304.385 177.522 304.809 177.092 305.385C176.554 306.088 176.133 307.016 175.828 308.169C175.524 309.304 175.371 310.556 175.371 311.926C175.371 313.205 175.506 314.403 175.775 315.52C176.043 316.637 176.42 317.574 176.904 318.331C177.388 319.088 177.971 319.646 178.652 320.007C179.351 320.349 180.22 320.52 181.26 320.52C184.487 320.52 186.36 318.998 186.88 315.953H188.359C187.553 320.151 185.097 322.25 180.991 322.25C178.517 322.25 176.545 321.529 175.075 320.088C174.197 319.223 173.525 318.133 173.059 316.818C172.592 315.502 172.359 314.043 172.359 312.439C172.359 310.619 172.655 308.971 173.247 307.493C173.838 306.016 174.672 304.836 175.748 303.953C177.11 302.818 178.912 302.25 181.153 302.25C182.264 302.25 183.169 302.394 183.869 302.682C184.568 302.971 185.258 303.484 185.939 304.223L186.477 302.52H187.956V308.493H186.316C186.065 306.908 185.482 305.718 184.568 304.926C183.671 304.115 182.452 303.709 180.911 303.709Z" stroke="black"/>
<path d="M262.911 303.709C262.032 303.709 261.279 303.845 260.652 304.115C260.042 304.385 259.522 304.809 259.092 305.385C258.554 306.088 258.133 307.016 257.828 308.169C257.524 309.304 257.371 310.556 257.371 311.926C257.371 313.205 257.506 314.403 257.775 315.52C258.043 316.637 258.42 317.574 258.904 318.331C259.388 319.088 259.971 319.646 260.652 320.007C261.351 320.349 262.22 320.52 263.26 320.52C266.487 320.52 268.36 318.998 268.88 315.953H270.359C269.553 320.151 267.097 322.25 262.991 322.25C260.517 322.25 258.545 321.529 257.075 320.088C256.197 319.223 255.525 318.133 255.059 316.818C254.592 315.502 254.359 314.043 254.359 312.439C254.359 310.619 254.655 308.971 255.247 307.493C255.838 306.016 256.672 304.836 257.748 303.953C259.11 302.818 260.912 302.25 263.153 302.25C264.264 302.25 265.169 302.394 265.869 302.682C266.568 302.971 267.258 303.484 267.939 304.223L268.477 302.52H269.956V308.493H268.316C268.065 306.908 267.482 305.718 266.568 304.926C265.671 304.115 264.452 303.709 262.911 303.709Z" fill="white"/>
<path d="M262.911 303.709C262.032 303.709 261.279 303.845 260.652 304.115C260.042 304.385 259.522 304.809 259.092 305.385C258.554 306.088 258.133 307.016 257.828 308.169C257.524 309.304 257.371 310.556 257.371 311.926C257.371 313.205 257.506 314.403 257.775 315.52C258.043 316.637 258.42 317.574 258.904 318.331C259.388 319.088 259.971 319.646 260.652 320.007C261.351 320.349 262.22 320.52 263.26 320.52C266.487 320.52 268.36 318.998 268.88 315.953H270.359C269.553 320.151 267.097 322.25 262.991 322.25C260.517 322.25 258.545 321.529 257.075 320.088C256.197 319.223 255.525 318.133 255.059 316.818C254.592 315.502 254.359 314.043 254.359 312.439C254.359 310.619 254.655 308.971 255.247 307.493C255.838 306.016 256.672 304.836 257.748 303.953C259.11 302.818 260.912 302.25 263.153 302.25C264.264 302.25 265.169 302.394 265.869 302.682C266.568 302.971 267.258 303.484 267.939 304.223L268.477 302.52H269.956V308.493H268.316C268.065 306.908 267.482 305.718 266.568 304.926C265.671 304.115 264.452 303.709 262.911 303.709Z" stroke="black"/>
<path d="M103.689 303.928V319.444L105.891 319.995V321.122H98.866V319.995L101.068 319.444V312.184H92.1822V319.444L94.3839 319.995V321.122H87.3594V319.995L89.5611 319.444V303.928L87.3594 303.377V302.25H94.3839V303.377L92.1822 303.928V310.664H101.068V303.928L98.866 303.377V302.25H105.891V303.377L103.689 303.928Z" fill="white"/>
<path d="M103.689 303.928V319.444L105.891 319.995V321.122H98.866V319.995L101.068 319.444V312.184H92.1822V319.444L94.3839 319.995V321.122H87.3594V319.995L89.5611 319.444V303.928L87.3594 303.377V302.25H94.3839V303.377L92.1822 303.928V310.664H101.068V303.928L98.866 303.377V302.25H105.891V303.377L103.689 303.928Z" stroke="black"/>
<path d="M186.689 217.928V225.686V233.444L188.891 233.995V235.122H181.866V233.995L184.068 233.444V226.184H175.182V233.444L177.384 233.995V235.122H170.359V233.995L172.561 233.444V217.928L170.359 217.377V216.25H177.384V217.377L175.182 217.928V224.664H184.068V217.928L181.866 217.377V216.25H188.891V217.377L186.689 217.928Z" fill="white"/>
<path d="M186.689 217.928V225.686V233.444L188.891 233.995V235.122H181.866V233.995L184.068 233.444V226.184H175.182V233.444L177.384 233.995V235.122H170.359V233.995L172.561 233.444V217.928L170.359 217.377V216.25H177.384V217.377L175.182 217.928V224.664H184.068V217.928L181.866 217.377V216.25H188.891V217.377L186.689 217.928Z" stroke="black"/>
<path d="M186.689 390.514V398.273V406.031L188.891 406.582V407.709H181.866V406.582L184.068 406.031V398.771H175.182V406.031L177.384 406.582V407.709H170.359V406.582L172.561 406.031V390.514L170.359 389.964V388.837H177.384V389.964L175.182 390.514V397.251H184.068V390.514L181.866 389.964V388.837H188.891V389.964L186.689 390.514Z" fill="white"/>
<path d="M186.689 390.514V398.273V406.031L188.891 406.582V407.709H181.866V406.582L184.068 406.031V398.771H175.182V406.031L177.384 406.582V407.709H170.359V406.582L172.561 406.031V390.514L170.359 389.964V388.837H177.384V389.964L175.182 390.514V397.251H184.068V390.514L181.866 389.964V388.837H188.891V389.964L186.689 390.514Z" stroke="black"/>
<path d="M268.689 217.928V225.686V233.444L270.891 233.995V235.122H263.866V233.995L266.068 233.444V226.184H257.182V233.444L259.384 233.995V235.122H252.359V233.995L254.561 233.444V217.928L252.359 217.377V216.25H259.384V217.377L257.182 217.928V224.664H266.068V217.928L263.866 217.377V216.25H270.891V217.377L268.689 217.928Z" fill="white"/>
<path d="M268.689 217.928V225.686V233.444L270.891 233.995V235.122H263.866V233.995L266.068 233.444V226.184H257.182V233.444L259.384 233.995V235.122H252.359V233.995L254.561 233.444V217.928L252.359 217.377V216.25H259.384V217.377L257.182 217.928V224.664H266.068V217.928L263.866 217.377V216.25H270.891V217.377L268.689 217.928Z" stroke="black"/>
<path d="M268.689 390.514V398.273V406.031L270.891 406.582V407.709H263.866V406.582L266.068 406.031V398.771H257.182V406.031L259.384 406.582V407.709H252.359V406.582L254.561 406.031V390.514L252.359 389.964V388.837H259.384V389.964L257.182 390.514V397.251H266.068V390.514L263.866 389.964V388.837H270.891V389.964L268.689 390.514Z" fill="white"/>
<path d="M268.689 390.514V398.273V406.031L270.891 406.582V407.709H263.866V406.582L266.068 406.031V398.771H257.182V406.031L259.384 406.582V407.709H252.359V406.582L254.561 406.031V390.514L252.359 389.964V388.837H259.384V389.964L257.182 390.514V397.251H266.068V390.514L263.866 389.964V388.837H270.891V389.964L268.689 390.514Z" stroke="black"/>
<line x1="179.859" y1="364.837" x2="179.859" y2="346.25" stroke="white" stroke-width="3"/>
<line x1="261.859" y1="364.837" x2="261.859" y2="346.25" stroke="white" stroke-width="3"/>
<line x1="179.859" y1="259.25" x2="179.859" y2="278.25" stroke="white" stroke-width="3"/>
<line x1="261.859" y1="259.25" x2="261.859" y2="278.25" stroke="white" stroke-width="3"/>
<line x1="129.891" y1="310.75" x2="148.478" y2="310.75" stroke="white" stroke-width="3"/>
<line x1="212.074" y1="310.75" x2="230.661" y2="310.75" stroke="white" stroke-width="3"/>
<line x1="294.258" y1="310.75" x2="312.845" y2="310.75" stroke="white" stroke-width="3"/>
<path d="M426.379 303.709C425.501 303.709 424.748 303.845 424.121 304.115C423.511 304.385 422.991 304.809 422.561 305.385C422.023 306.088 421.602 307.016 421.297 308.169C420.992 309.304 420.84 310.556 420.84 311.926C420.84 313.205 420.974 314.403 421.243 315.52C421.512 316.637 421.889 317.574 422.373 318.331C422.857 319.088 423.439 319.646 424.121 320.007C424.82 320.349 425.689 320.52 426.729 320.52C429.956 320.52 431.829 318.998 432.349 315.953H433.828C433.021 320.151 430.565 322.25 426.46 322.25C423.986 322.25 422.014 321.529 420.544 320.088C419.666 319.223 418.993 318.133 418.527 316.818C418.061 315.502 417.828 314.043 417.828 312.439C417.828 310.619 418.124 308.971 418.716 307.493C419.307 306.016 420.141 304.836 421.216 303.953C422.579 302.818 424.381 302.25 426.621 302.25C427.733 302.25 428.638 302.394 429.337 302.682C430.037 302.971 430.727 303.484 431.408 304.223L431.946 302.52H433.425V308.493H431.784C431.533 306.908 430.951 305.718 430.037 304.926C429.14 304.115 427.921 303.709 426.379 303.709Z" fill="white"/>
<path d="M426.379 303.709C425.501 303.709 424.748 303.845 424.121 304.115C423.511 304.385 422.991 304.809 422.561 305.385C422.023 306.088 421.602 307.016 421.297 308.169C420.992 309.304 420.84 310.556 420.84 311.926C420.84 313.205 420.974 314.403 421.243 315.52C421.512 316.637 421.889 317.574 422.373 318.331C422.857 319.088 423.439 319.646 424.121 320.007C424.82 320.349 425.689 320.52 426.729 320.52C429.956 320.52 431.829 318.998 432.349 315.953H433.828C433.021 320.151 430.565 322.25 426.46 322.25C423.986 322.25 422.014 321.529 420.544 320.088C419.666 319.223 418.993 318.133 418.527 316.818C418.061 315.502 417.828 314.043 417.828 312.439C417.828 310.619 418.124 308.971 418.716 307.493C419.307 306.016 420.141 304.836 421.216 303.953C422.579 302.818 424.381 302.25 426.621 302.25C427.733 302.25 428.638 302.394 429.337 302.682C430.037 302.971 430.727 303.484 431.408 304.223L431.946 302.52H433.425V308.493H431.784C431.533 306.908 430.951 305.718 430.037 304.926C429.14 304.115 427.921 303.709 426.379 303.709Z" stroke="black"/>
<path d="M508.379 303.709C507.501 303.709 506.748 303.845 506.121 304.115C505.511 304.385 504.991 304.809 504.561 305.385C504.023 306.088 503.602 307.016 503.297 308.169C502.992 309.304 502.84 310.556 502.84 311.926C502.84 313.205 502.974 314.403 503.243 315.52C503.512 316.637 503.889 317.574 504.373 318.331C504.857 319.088 505.439 319.646 506.121 320.007C506.82 320.349 507.689 320.52 508.729 320.52C511.956 320.52 513.829 318.998 514.349 315.953H515.828C515.021 320.151 512.565 322.25 508.46 322.25C505.986 322.25 504.014 321.529 502.544 320.088C501.666 319.223 500.993 318.133 500.527 316.818C500.061 315.502 499.828 314.043 499.828 312.439C499.828 310.619 500.124 308.971 500.716 307.493C501.307 306.016 502.141 304.836 503.216 303.953C504.579 302.818 506.381 302.25 508.621 302.25C509.733 302.25 510.638 302.394 511.337 302.682C512.037 302.971 512.727 303.484 513.408 304.223L513.946 302.52H515.425V308.493H513.784C513.533 306.908 512.951 305.718 512.037 304.926C511.14 304.115 509.921 303.709 508.379 303.709Z" fill="white"/>
<path d="M508.379 303.709C507.501 303.709 506.748 303.845 506.121 304.115C505.511 304.385 504.991 304.809 504.561 305.385C504.023 306.088 503.602 307.016 503.297 308.169C502.992 309.304 502.84 310.556 502.84 311.926C502.84 313.205 502.974 314.403 503.243 315.52C503.512 316.637 503.889 317.574 504.373 318.331C504.857 319.088 505.439 319.646 506.121 320.007C506.82 320.349 507.689 320.52 508.729 320.52C511.956 320.52 513.829 318.998 514.349 315.953H515.828C515.021 320.151 512.565 322.25 508.46 322.25C505.986 322.25 504.014 321.529 502.544 320.088C501.666 319.223 500.993 318.133 500.527 316.818C500.061 315.502 499.828 314.043 499.828 312.439C499.828 310.619 500.124 308.971 500.716 307.493C501.307 306.016 502.141 304.836 503.216 303.953C504.579 302.818 506.381 302.25 508.621 302.25C509.733 302.25 510.638 302.394 511.337 302.682C512.037 302.971 512.727 303.484 513.408 304.223L513.946 302.52H515.425V308.493H513.784C513.533 306.908 512.951 305.718 512.037 304.926C511.14 304.115 509.921 303.709 508.379 303.709Z" stroke="black"/>
<path d="M432.158 217.928V225.686V233.444L434.359 233.995V235.122H427.335V233.995L429.536 233.444V226.184H420.651V233.444L422.853 233.995V235.122H415.828V233.995L418.03 233.444V217.928L415.828 217.377V216.25H422.853V217.377L420.651 217.928V224.664H429.536V217.928L427.335 217.377V216.25H434.359V217.377L432.158 217.928Z" fill="white"/>
<path d="M432.158 217.928V225.686V233.444L434.359 233.995V235.122H427.335V233.995L429.536 233.444V226.184H420.651V233.444L422.853 233.995V235.122H415.828V233.995L418.03 233.444V217.928L415.828 217.377V216.25H422.853V217.377L420.651 217.928V224.664H429.536V217.928L427.335 217.377V216.25H434.359V217.377L432.158 217.928Z" stroke="black"/>
<path d="M432.158 390.514V398.273V406.031L434.359 406.582V407.709H427.335V406.582L429.536 406.031V398.771H420.651V406.031L422.853 406.582V407.709H415.828V406.582L418.03 406.031V390.514L415.828 389.964V388.837H422.853V389.964L420.651 390.514V397.251H429.536V390.514L427.335 389.964V388.837H434.359V389.964L432.158 390.514Z" fill="white"/>
<path d="M432.158 390.514V398.273V406.031L434.359 406.582V407.709H427.335V406.582L429.536 406.031V398.771H420.651V406.031L422.853 406.582V407.709H415.828V406.582L418.03 406.031V390.514L415.828 389.964V388.837H422.853V389.964L420.651 390.514V397.251H429.536V390.514L427.335 389.964V388.837H434.359V389.964L432.158 390.514Z" stroke="black"/>
<path d="M514.158 217.928V225.686V233.444L516.359 233.995V235.122H509.335V233.995L511.536 233.444V226.184H502.651V233.444L504.853 233.995V235.122H497.828V233.995L500.03 233.444V217.928L497.828 217.377V216.25H504.853V217.377L502.651 217.928V224.664H511.536V217.928L509.335 217.377V216.25H516.359V217.377L514.158 217.928Z" fill="white"/>
<path d="M514.158 217.928V225.686V233.444L516.359 233.995V235.122H509.335V233.995L511.536 233.444V226.184H502.651V233.444L504.853 233.995V235.122H497.828V233.995L500.03 233.444V217.928L497.828 217.377V216.25H504.853V217.377L502.651 217.928V224.664H511.536V217.928L509.335 217.377V216.25H516.359V217.377L514.158 217.928Z" stroke="black"/>
<path d="M514.158 390.514V398.273V406.031L516.359 406.582V407.709H509.335V406.582L511.536 406.031V398.771H502.651V406.031L504.853 406.582V407.709H497.828V406.582L500.03 406.031V390.514L497.828 389.964V388.837H504.853V389.964L502.651 390.514V397.251H511.536V390.514L509.335 389.964V388.837H516.359V389.964L514.158 390.514Z" fill="white"/>
<path d="M514.158 390.514V398.273V406.031L516.359 406.582V407.709H509.335V406.582L511.536 406.031V398.771H502.651V406.031L504.853 406.582V407.709H497.828V406.582L500.03 406.031V390.514L497.828 389.964V388.837H504.853V389.964L502.651 390.514V397.251H511.536V390.514L509.335 389.964V388.837H516.359V389.964L514.158 390.514Z" stroke="black"/>
<line x1="425.328" y1="364.837" x2="425.328" y2="346.25" stroke="white" stroke-width="3"/>
<line x1="507.328" y1="364.837" x2="507.328" y2="346.25" stroke="white" stroke-width="3"/>
<line x1="425.328" y1="259.25" x2="425.328" y2="278.25" stroke="white" stroke-width="3"/>
<line x1="507.328" y1="259.25" x2="507.328" y2="278.25" stroke="white" stroke-width="3"/>
<line x1="375.359" y1="310.75" x2="393.946" y2="310.75" stroke="white" stroke-width="3"/>
<line x1="457.543" y1="311.75" x2="476.13" y2="311.75" stroke="white" stroke-width="3"/>
<path d="M599.745 303.928V319.444L601.947 319.995V321.122H594.923V319.995L597.124 319.444V312.184H588.239V319.444L590.441 319.995V321.122H583.416V319.995L585.618 319.444V303.928L583.416 303.377V302.25H590.441V303.377L588.239 303.928V310.664H597.124V303.928L594.923 303.377V302.25H601.947V303.377L599.745 303.928Z" fill="white"/>
<path d="M599.745 303.928V319.444L601.947 319.995V321.122H594.923V319.995L597.124 319.444V312.184H588.239V319.444L590.441 319.995V321.122H583.416V319.995L585.618 319.444V303.928L583.416 303.377V302.25H590.441V303.377L588.239 303.928V310.664H597.124V303.928L594.923 303.377V302.25H601.947V303.377L599.745 303.928Z" stroke="black"/>
<line x1="540.828" y1="309.75" x2="559.415" y2="309.75" stroke="white" stroke-width="3"/>
<path d="M898.359 643.25L905.67 617.03V399.713L907.882 625.372L910.98 627.567L914.078 642.055H918.503V627.567L920.716 619.665V571.811M920.716 171.75V571.811M944.359 643.25L940.46 642.055L933.549 633.713L931.337 428.689L933.549 627.567V631.518L931.337 642.055L929.124 639.86L924.256 637.665V631.518L920.716 571.811" stroke="#C3FA50" stroke-width="3"/>
<path d="M115.239 614.51L127.079 614.51L127.499 612.63L128.359 612.63L128.359 618.39L127.499 618.39L127.079 616.51L115.239 616.51L114.819 618.39L113.959 618.39L113.959 612.63L114.819 612.63L115.239 614.51ZM127.159 609.51L118.759 609.51L118.379 611.05L117.559 611.05L117.559 608.17L119.559 607.73L119.559 607.65C118.879 607.25 118.346 606.71 117.959 606.03C117.559 605.35 117.359 604.623 117.359 603.85C117.359 602.743 117.719 601.923 118.439 601.39C118.813 601.123 119.339 600.936 120.019 600.83C120.686 600.71 121.593 600.65 122.739 600.65L127.159 600.65L127.539 599.11L128.359 599.11L128.359 603.93L127.539 603.93L127.159 602.59L122.699 602.59C121.833 602.59 121.186 602.616 120.759 602.67C120.333 602.71 119.999 602.79 119.759 602.91C119.439 603.07 119.199 603.303 119.039 603.61C118.866 603.903 118.779 604.256 118.779 604.67C118.779 605.443 119.026 606.11 119.519 606.67C120.013 607.216 120.779 607.516 121.819 607.57L127.159 607.57L127.539 606.23L128.359 606.23L128.359 611.05L127.539 611.05L127.159 609.51ZM118.559 598.484L117.839 598.484L117.559 596.544L115.039 596.284L114.799 594.604L117.559 594.604L117.559 592.044L118.559 592.044L118.559 594.604L125.699 594.604C126.153 594.604 126.466 594.597 126.639 594.584C126.799 594.571 126.933 594.544 127.039 594.504C127.133 594.464 127.199 594.391 127.239 594.284C127.266 594.177 127.279 594.004 127.279 593.764L127.279 592.364L127.859 592.364C128.099 593.004 128.273 593.571 128.379 594.064C128.499 594.544 128.559 594.931 128.559 595.224C128.559 595.824 128.313 596.211 127.819 596.384C127.659 596.437 127.453 596.477 127.199 596.504C126.946 596.531 126.573 596.544 126.079 596.544L118.559 596.544L118.559 598.484ZM123.079 581.908L123.079 588.888C124.053 588.888 124.859 588.754 125.499 588.488C126.113 588.221 126.553 587.841 126.819 587.348C127.086 586.854 127.219 586.321 127.219 585.748C127.219 585.121 127.093 584.548 126.839 584.028C126.573 583.508 126.213 583.041 125.759 582.628L126.239 581.988C126.879 582.454 127.426 583.021 127.879 583.688C128.333 584.354 128.559 585.214 128.559 586.268C128.559 587.188 128.366 588.001 127.979 588.708C127.579 589.414 126.999 589.954 126.239 590.328C125.826 590.528 125.366 590.674 124.859 590.768C124.353 590.861 123.813 590.908 123.239 590.908C121.373 590.908 119.926 590.481 118.899 589.628C117.873 588.761 117.359 587.588 117.359 586.108C117.359 584.748 117.786 583.701 118.639 582.968C119.479 582.221 120.646 581.848 122.139 581.848C122.273 581.848 122.399 581.854 122.519 581.868C122.626 581.868 122.813 581.881 123.079 581.908ZM118.439 586.228C118.439 587.828 119.659 588.708 122.099 588.868L122.099 583.868L121.439 583.868C120.479 583.868 119.739 584.074 119.219 584.488C118.699 584.888 118.439 585.468 118.439 586.228ZM127.159 578.709L118.759 578.709L118.379 580.249L117.559 580.249L117.559 577.369L119.559 576.929L119.559 576.849C118.879 576.449 118.346 575.909 117.959 575.229C117.559 574.549 117.359 573.822 117.359 573.049C117.359 571.942 117.719 571.122 118.439 570.589C118.813 570.322 119.339 570.135 120.019 570.029C120.686 569.909 121.593 569.849 122.739 569.849L127.159 569.849L127.539 568.309L128.359 568.309L128.359 573.129L127.539 573.129L127.159 571.789L122.699 571.789C121.833 571.789 121.186 571.815 120.759 571.869C120.333 571.909 119.999 571.989 119.759 572.109C119.439 572.269 119.199 572.502 119.039 572.809C118.866 573.102 118.779 573.455 118.779 573.869C118.779 574.642 119.026 575.309 119.519 575.869C120.013 576.415 120.779 576.715 121.819 576.769L127.159 576.769L127.539 575.429L128.359 575.429L128.359 580.249L127.539 580.249L127.159 578.709ZM127.639 562.983C127.639 562.237 127.486 561.63 127.179 561.163C126.873 560.683 126.446 560.443 125.899 560.443C125.459 560.443 125.106 560.59 124.839 560.883C124.573 561.177 124.359 561.543 124.199 561.983C124.026 562.41 123.879 562.843 123.759 563.283C123.586 563.83 123.386 564.357 123.159 564.863C122.919 565.37 122.593 565.783 122.179 566.103C121.766 566.423 121.219 566.583 120.539 566.583C119.579 566.583 118.813 566.237 118.239 565.543C117.653 564.837 117.359 563.857 117.359 562.603C117.359 561.537 117.586 560.697 118.039 560.083C118.479 559.457 119.086 559.143 119.859 559.143C120.273 559.143 120.606 559.237 120.859 559.423C121.099 559.61 121.219 559.877 121.219 560.223C121.219 560.53 121.126 560.783 120.939 560.983C120.753 561.183 120.513 561.283 120.219 561.283C119.966 561.283 119.739 561.217 119.539 561.083C119.326 560.95 119.173 560.777 119.079 560.563C118.799 560.763 118.599 561.023 118.479 561.343C118.346 561.65 118.279 562.05 118.279 562.543C118.279 563.343 118.426 563.943 118.719 564.343C118.999 564.743 119.419 564.943 119.979 564.943C120.379 564.943 120.699 564.85 120.939 564.663C121.166 564.463 121.359 564.177 121.519 563.803C121.679 563.43 121.846 562.97 122.019 562.423C122.153 561.97 122.306 561.523 122.479 561.083C122.639 560.643 122.839 560.243 123.079 559.883C123.319 559.523 123.619 559.237 123.979 559.023C124.339 558.81 124.786 558.703 125.319 558.703C125.999 558.703 126.586 558.89 127.079 559.263C127.559 559.637 127.926 560.15 128.179 560.803C128.433 561.457 128.559 562.21 128.559 563.063C128.559 564.237 128.319 565.183 127.839 565.903C127.359 566.623 126.713 566.983 125.899 566.983C125.473 566.983 125.139 566.89 124.899 566.703C124.646 566.503 124.519 566.223 124.519 565.863C124.519 565.543 124.613 565.277 124.799 565.063C124.986 564.837 125.233 564.723 125.539 564.723C125.793 564.723 126.033 564.797 126.259 564.943C126.486 565.077 126.653 565.243 126.759 565.443C127.013 565.27 127.226 564.963 127.399 564.523C127.559 564.07 127.639 563.557 127.639 562.983ZM118.759 555.545L118.379 557.085L117.559 557.085L117.559 553.605L127.159 553.605L127.539 552.065L128.359 552.065L128.359 557.085L127.539 557.085L127.159 555.545L118.759 555.545ZM114.339 555.825C113.953 555.825 113.646 555.711 113.419 555.485C113.193 555.258 113.079 554.958 113.079 554.585C113.079 554.198 113.193 553.891 113.419 553.665C113.646 553.438 113.953 553.325 114.339 553.325C114.713 553.325 115.013 553.438 115.239 553.665C115.466 553.891 115.579 554.198 115.579 554.585C115.579 554.971 115.473 555.278 115.259 555.505C115.033 555.718 114.726 555.825 114.339 555.825ZM118.559 551.394L117.839 551.394L117.559 549.454L115.039 549.194L114.799 547.514L117.559 547.514L117.559 544.954L118.559 544.954L118.559 547.514L125.699 547.514C126.153 547.514 126.466 547.508 126.639 547.494C126.799 547.481 126.933 547.454 127.039 547.414C127.133 547.374 127.199 547.301 127.239 547.194C127.266 547.088 127.279 546.914 127.279 546.674L127.279 545.274L127.859 545.274C128.099 545.914 128.273 546.481 128.379 546.974C128.499 547.454 128.559 547.841 128.559 548.134C128.559 548.734 128.313 549.121 127.819 549.294C127.659 549.348 127.453 549.388 127.199 549.414C126.946 549.441 126.573 549.454 126.079 549.454L118.559 549.454L118.559 551.394ZM118.759 534.478L127.879 537.798C128.906 538.171 129.733 538.511 130.359 538.818C130.999 539.124 131.459 539.464 131.739 539.838C132.019 540.211 132.159 540.691 132.159 541.278C132.159 541.904 131.993 542.444 131.659 542.898C131.326 543.338 130.906 543.558 130.399 543.558C130.026 543.558 129.713 543.451 129.459 543.238C129.219 543.024 129.099 542.744 129.099 542.398C129.099 542.091 129.179 541.851 129.339 541.678C129.513 541.491 129.746 541.398 130.039 541.398C130.226 541.398 130.406 541.438 130.579 541.518C130.753 541.584 130.906 541.678 131.039 541.798C131.173 541.771 131.259 541.691 131.299 541.558C131.353 541.424 131.379 541.311 131.379 541.218C131.379 541.031 131.333 540.858 131.239 540.698C131.146 540.538 130.946 540.371 130.639 540.198C130.346 540.011 129.879 539.811 129.239 539.598L128.499 539.358L118.759 543.498L118.379 544.698L117.559 544.698L117.559 540.218L118.379 540.058L118.759 541.478L126.599 538.498L126.599 538.418L118.759 535.898L118.379 537.058L117.559 537.058L117.559 533.258L118.379 533.258L118.759 534.478Z" fill="#C3FA50"/>
<path d="M574.601 828.54C574.601 829.926 574.741 831.206 575.021 832.38C575.301 833.553 575.694 834.593 576.201 835.5C576.707 836.393 577.307 837.12 578.001 837.68C578.694 838.24 579.461 838.606 580.301 838.78L580.821 837.68C579.981 837.506 579.241 837.02 578.601 836.22C577.974 835.42 577.487 834.366 577.141 833.06C576.794 831.753 576.621 830.26 576.621 828.58C576.621 826.913 576.801 825.42 577.161 824.1C577.521 822.766 578.021 821.68 578.661 820.84C579.314 820 580.067 819.48 580.921 819.28L580.501 818.3C579.621 818.513 578.814 818.92 578.081 819.52C577.361 820.12 576.741 820.873 576.221 821.78C575.701 822.686 575.301 823.713 575.021 824.86C574.741 825.993 574.601 827.22 574.601 828.54ZM585.123 838L587.063 838.38V839.2H581.643V838.38L583.183 838V826L581.643 825.62V824.8H584.523L584.823 826.34C585.249 825.673 585.729 825.22 586.263 824.98C586.809 824.726 587.423 824.6 588.103 824.6C588.783 824.6 589.396 824.7 589.943 824.9C590.503 825.1 590.956 825.42 591.303 825.86C591.703 826.366 592.016 826.98 592.243 827.7C592.483 828.406 592.603 829.173 592.603 830C592.603 830.853 592.469 831.66 592.203 832.42C591.949 833.166 591.603 833.793 591.163 834.3C590.416 835.166 589.343 835.6 587.943 835.6C587.369 835.6 586.849 835.493 586.383 835.28C585.929 835.053 585.509 834.666 585.123 834.12V838ZM585.103 830.02C585.103 830.806 585.163 831.493 585.283 832.08C585.403 832.666 585.576 833.14 585.803 833.5C586.016 833.833 586.276 834.093 586.583 834.28C586.903 834.466 587.309 834.56 587.803 834.56C588.256 834.56 588.649 834.48 588.983 834.32C589.329 834.146 589.609 833.913 589.823 833.62C590.063 833.286 590.236 832.82 590.343 832.22C590.449 831.62 590.503 830.933 590.503 830.16C590.503 829.373 590.443 828.693 590.323 828.12C590.203 827.546 590.029 827.073 589.803 826.7C589.589 826.353 589.323 826.093 589.003 825.92C588.696 825.733 588.289 825.64 587.783 825.64C587.329 825.64 586.929 825.72 586.583 825.88C586.249 826.026 585.989 826.253 585.803 826.56C585.589 826.92 585.416 827.393 585.283 827.98C585.163 828.553 585.103 829.233 585.103 830.02ZM597.505 838L599.445 838.38V839.2H594.025V838.38L595.565 838V826L594.025 825.62V824.8H596.905L597.205 826.34C597.632 825.673 598.112 825.22 598.645 824.98C599.192 824.726 599.805 824.6 600.485 824.6C601.165 824.6 601.779 824.7 602.325 824.9C602.885 825.1 603.339 825.42 603.685 825.86C604.085 826.366 604.399 826.98 604.625 827.7C604.865 828.406 604.985 829.173 604.985 830C604.985 830.853 604.852 831.66 604.585 832.42C604.332 833.166 603.985 833.793 603.545 834.3C602.799 835.166 601.725 835.6 600.325 835.6C599.752 835.6 599.232 835.493 598.765 835.28C598.312 835.053 597.892 834.666 597.505 834.12V838ZM597.485 830.02C597.485 830.806 597.545 831.493 597.665 832.08C597.785 832.666 597.959 833.14 598.185 833.5C598.399 833.833 598.659 834.093 598.965 834.28C599.285 834.466 599.692 834.56 600.185 834.56C600.639 834.56 601.032 834.48 601.365 834.32C601.712 834.146 601.992 833.913 602.205 833.62C602.445 833.286 602.619 832.82 602.725 832.22C602.832 831.62 602.885 830.933 602.885 830.16C602.885 829.373 602.825 828.693 602.705 828.12C602.585 827.546 602.412 827.073 602.185 826.7C601.972 826.353 601.705 826.093 601.385 825.92C601.079 825.733 600.672 825.64 600.165 825.64C599.712 825.64 599.312 825.72 598.965 825.88C598.632 826.026 598.372 826.253 598.185 826.56C597.972 826.92 597.799 827.393 597.665 827.98C597.545 828.553 597.485 829.233 597.485 830.02ZM608.168 834.4V826L606.628 825.62V824.8H609.508L609.948 826.8H610.028C610.415 826.133 610.928 825.6 611.568 825.2C612.222 824.8 612.915 824.6 613.648 824.6C614.195 824.6 614.682 824.706 615.108 824.92C615.535 825.12 615.848 825.373 616.048 825.68C616.262 826.013 616.435 826.453 616.568 827C616.995 826.253 617.548 825.666 618.228 825.24C618.908 824.813 619.635 824.6 620.408 824.6C620.942 824.6 621.422 824.706 621.848 824.92C622.275 825.12 622.602 825.4 622.828 825.76C622.988 826.013 623.115 826.34 623.208 826.74C623.302 827.14 623.368 827.66 623.408 828.3C623.448 828.926 623.468 829.726 623.468 830.7V834.4L625.008 834.78V835.6H620.188V834.78L621.528 834.4V829.94C621.528 829.073 621.502 828.426 621.448 828C621.408 827.573 621.328 827.24 621.208 827C621.048 826.68 620.822 826.44 620.528 826.28C620.248 826.106 619.915 826.02 619.528 826.02C619.195 826.02 618.868 826.086 618.548 826.22C618.228 826.353 617.942 826.533 617.688 826.76C617.395 827.026 617.175 827.34 617.028 827.7C616.895 828.06 616.815 828.513 616.788 829.06V834.4L618.128 834.78V835.6H613.508V834.78L614.848 834.4V829.94C614.848 829.073 614.822 828.426 614.768 828C614.728 827.573 614.648 827.24 614.528 827C614.368 826.68 614.142 826.44 613.848 826.28C613.568 826.106 613.235 826.02 612.848 826.02C612.515 826.02 612.188 826.086 611.868 826.22C611.548 826.353 611.262 826.533 611.008 826.76C610.715 827.026 610.495 827.34 610.348 827.7C610.215 828.06 610.135 828.513 610.108 829.06V834.4L611.448 834.78V835.6H606.628V834.78L608.168 834.4ZM631.354 828.54C631.354 827.22 631.214 825.993 630.934 824.86C630.654 823.713 630.254 822.686 629.734 821.78C629.214 820.873 628.588 820.12 627.854 819.52C627.134 818.92 626.334 818.513 625.454 818.3L625.034 819.28C625.901 819.48 626.654 820 627.294 820.84C627.934 821.68 628.434 822.766 628.794 824.1C629.154 825.42 629.334 826.913 629.334 828.58C629.334 830.26 629.154 831.753 628.794 833.06C628.448 834.366 627.961 835.42 627.334 836.22C626.708 837.02 625.974 837.506 625.134 837.68L625.654 838.78C626.494 838.606 627.261 838.24 627.954 837.68C628.648 837.12 629.248 836.393 629.754 835.5C630.261 834.593 630.654 833.553 630.934 832.38C631.214 831.206 631.354 829.926 631.354 828.54Z" fill="white"/>
<path d="M547.201 824.39C547.201 823.552 547.53 822.88 548.188 822.373C548.847 821.862 549.758 821.606 550.923 821.606C551.434 821.606 551.891 821.649 552.294 821.734C552.701 821.819 553.124 821.947 553.565 822.118V823.794C553.281 823.68 552.895 823.557 552.407 823.424C551.919 823.292 551.434 823.226 550.951 823.226C550.383 823.226 549.947 823.334 549.644 823.552C549.341 823.765 549.19 824.04 549.19 824.376C549.19 824.547 549.244 824.731 549.353 824.93C549.467 825.129 549.677 825.335 549.985 825.548C550.298 825.761 550.752 825.977 551.349 826.194C552.784 826.706 553.828 827.416 554.481 828.325C555.139 829.234 555.468 830.342 555.468 831.649V831.848C555.468 832.823 555.279 833.701 554.9 834.483C554.526 835.264 553.986 835.882 553.281 836.336C552.58 836.791 551.737 837.018 550.752 837.018C549.749 837.018 548.892 836.791 548.181 836.336C547.476 835.882 546.936 835.264 546.562 834.483C546.193 833.701 546.008 832.823 546.008 831.848V831.649C546.008 830.891 546.152 830.198 546.441 829.568C546.73 828.938 547.116 828.41 547.599 827.984C548.082 827.558 548.612 827.274 549.19 827.132V827.075C548.579 826.834 548.094 826.483 547.734 826.024C547.379 825.565 547.201 825.02 547.201 824.39ZM547.968 831.649V831.848C547.968 832.501 548.065 833.102 548.259 833.652C548.458 834.196 548.761 834.634 549.169 834.966C549.58 835.292 550.108 835.456 550.752 835.456C551.387 835.456 551.908 835.292 552.315 834.966C552.722 834.634 553.023 834.196 553.217 833.652C553.411 833.102 553.508 832.501 553.508 831.848V831.649C553.508 831.119 553.394 830.595 553.167 830.079C552.94 829.558 552.62 829.109 552.208 828.73C551.796 828.346 551.311 828.098 550.752 827.984C550.108 827.984 549.58 828.155 549.169 828.495C548.761 828.832 548.458 829.279 548.259 829.838C548.065 830.392 547.968 830.995 547.968 831.649Z" fill="white"/>
<path d="M672.359 655.25L681.302 666.662H725.268L736.445 655.25" stroke="#FA5050" stroke-width="3"/>
<path d="M881.4 655.25L892.553 666.662H947.379L961.318 655.25" stroke="#FA5050" stroke-width="3"/>
<defs>
<filter id="filter0_d_854_9053" x="141.359" y="641.75" width="886" height="11" filterUnits="userSpaceOnUse" color-interpolation-filters="sRGB">
<feFlood flood-opacity="0" result="BackgroundImageFix"/>
<feColorMatrix in="SourceAlpha" type="matrix" values="0 0 0 0 0 0 0 0 0 0 0 0 0 0 0 0 0 0 127 0" result="hardAlpha"/>
<feOffset dy="4"/>
<feGaussianBlur stdDeviation="2"/>
<feComposite in2="hardAlpha" operator="out"/>
<feColorMatrix type="matrix" values="0 0 0 0 0 0 0 0 0 0 0 0 0 0 0 0 0 0 0.25 0"/>
<feBlend mode="normal" in2="BackgroundImageFix" result="effect1_dropShadow_854_9053"/>
<feBlend mode="normal" in="SourceGraphic" in2="effect1_dropShadow_854_9053" result="shape"/>
</filter>
</defs>
</svg>
