<svg width="1123" height="901" viewBox="0 0 1123 901" fill="none" xmlns="http://www.w3.org/2000/svg">
<rect width="1122" height="900" transform="translate(0.708984 0.794922)" fill="#0C0C31"/>
<path d="M422.442 312.283C422.442 313.804 422.206 315.236 421.734 316.582C421.28 317.91 420.642 319.02 419.821 319.911C419.105 320.68 418.24 321.256 417.226 321.641C416.23 322.008 415.077 322.191 413.766 322.191C412.438 322.191 411.268 322.008 410.254 321.641C409.241 321.274 408.393 320.723 407.712 319.989C406.908 319.151 406.287 318.102 405.851 316.844C405.414 315.568 405.195 314.188 405.195 312.703C405.195 311.182 405.422 309.758 405.877 308.43C406.349 307.085 406.995 305.966 407.816 305.075C408.55 304.289 409.398 303.712 410.359 303.345C411.337 302.978 412.491 302.795 413.819 302.795C415.147 302.795 416.309 302.978 417.305 303.345C418.318 303.695 419.183 304.245 419.9 304.997C420.721 305.835 421.35 306.893 421.787 308.168C422.224 309.444 422.442 310.815 422.442 312.283ZM408.21 312.178C408.21 313.629 408.332 314.922 408.577 316.058C408.821 317.176 409.171 318.093 409.625 318.81C410.079 319.456 410.647 319.946 411.329 320.278C412.028 320.592 412.884 320.749 413.897 320.749C415.75 320.749 417.113 320.173 417.986 319.02C418.458 318.373 418.816 317.517 419.061 316.451C419.306 315.367 419.428 314.101 419.428 312.65C419.428 311.2 419.306 309.924 419.061 308.823C418.816 307.723 418.458 306.831 417.986 306.15C417.532 305.486 416.947 304.997 416.23 304.682C415.531 304.368 414.701 304.21 413.74 304.21C412.814 304.21 412.01 304.359 411.329 304.656C410.665 304.935 410.106 305.364 409.651 305.94C408.69 307.216 408.21 309.295 408.21 312.178Z" fill="#FA5050"/>
<path d="M422.442 312.283C422.442 313.804 422.206 315.236 421.734 316.582C421.28 317.91 420.642 319.02 419.821 319.911C419.105 320.68 418.24 321.256 417.226 321.641C416.23 322.008 415.077 322.191 413.766 322.191C412.438 322.191 411.268 322.008 410.254 321.641C409.241 321.274 408.393 320.723 407.712 319.989C406.908 319.151 406.287 318.102 405.851 316.844C405.414 315.568 405.195 314.188 405.195 312.703C405.195 311.182 405.422 309.758 405.877 308.43C406.349 307.085 406.995 305.966 407.816 305.075C408.55 304.289 409.398 303.712 410.359 303.345C411.337 302.978 412.491 302.795 413.819 302.795C415.147 302.795 416.309 302.978 417.305 303.345C418.318 303.695 419.183 304.245 419.9 304.997C420.721 305.835 421.35 306.893 421.787 308.168C422.224 309.444 422.442 310.815 422.442 312.283ZM408.21 312.178C408.21 313.629 408.332 314.922 408.577 316.058C408.821 317.176 409.171 318.093 409.625 318.81C410.079 319.456 410.647 319.946 411.329 320.278C412.028 320.592 412.884 320.749 413.897 320.749C415.75 320.749 417.113 320.173 417.986 319.02C418.458 318.373 418.816 317.517 419.061 316.451C419.306 315.367 419.428 314.101 419.428 312.65C419.428 311.2 419.306 309.924 419.061 308.823C418.816 307.723 418.458 306.831 417.986 306.15C417.532 305.486 416.947 304.997 416.23 304.682C415.531 304.368 414.701 304.21 413.74 304.21C412.814 304.21 412.01 304.359 411.329 304.656C410.665 304.935 410.106 305.364 409.651 305.94C408.69 307.216 408.21 309.295 408.21 312.178Z" stroke="black"/>
<path d="M505.359 304.472V319.989L507.56 320.54V321.667H500.536V320.54L502.738 319.989V312.729H493.852V319.989L496.054 320.54V321.667H489.029V320.54L491.231 319.989V304.472L489.029 303.922V302.795H496.054V303.922L493.852 304.472V311.209H502.738V304.472L500.536 303.922V302.795H507.56V303.922L505.359 304.472Z" fill="#FA5050"/>
<path d="M505.359 304.472V319.989L507.56 320.54V321.667H500.536V320.54L502.738 319.989V312.729H493.852V319.989L496.054 320.54V321.667H489.029V320.54L491.231 319.989V304.472L489.029 303.922V302.795H496.054V303.922L493.852 304.472V311.209H502.738V304.472L500.536 303.922V302.795H507.56V303.922L505.359 304.472Z" stroke="black"/>
<path d="M249.26 304.254C248.382 304.254 247.629 304.39 247.001 304.66C246.392 304.93 245.872 305.353 245.442 305.93C244.904 306.633 244.483 307.561 244.178 308.714C243.873 309.849 243.721 311.101 243.721 312.471C243.721 313.75 243.855 314.948 244.124 316.065C244.393 317.182 244.769 318.119 245.254 318.876C245.738 319.633 246.32 320.191 247.001 320.552C247.701 320.894 248.57 321.065 249.61 321.065C252.837 321.065 254.71 319.543 255.23 316.498H256.709C255.902 320.696 253.446 322.795 249.341 322.795C246.867 322.795 244.895 322.074 243.425 320.633C242.547 319.768 241.874 318.678 241.408 317.362C240.942 316.047 240.709 314.588 240.709 312.984C240.709 311.164 241.005 309.516 241.596 308.038C242.188 306.561 243.022 305.381 244.097 304.498C245.46 303.362 247.261 302.795 249.502 302.795C250.614 302.795 251.519 302.939 252.218 303.227C252.917 303.516 253.608 304.029 254.289 304.768L254.827 303.065H256.306V309.038H254.665C254.414 307.453 253.832 306.263 252.917 305.471C252.021 304.66 250.802 304.254 249.26 304.254Z" fill="white"/>
<path d="M249.26 304.254C248.382 304.254 247.629 304.39 247.001 304.66C246.392 304.93 245.872 305.353 245.442 305.93C244.904 306.633 244.483 307.561 244.178 308.714C243.873 309.849 243.721 311.101 243.721 312.471C243.721 313.75 243.855 314.948 244.124 316.065C244.393 317.182 244.769 318.119 245.254 318.876C245.738 319.633 246.32 320.191 247.001 320.552C247.701 320.894 248.57 321.065 249.61 321.065C252.837 321.065 254.71 319.543 255.23 316.498H256.709C255.902 320.696 253.446 322.795 249.341 322.795C246.867 322.795 244.895 322.074 243.425 320.633C242.547 319.768 241.874 318.678 241.408 317.362C240.942 316.047 240.709 314.588 240.709 312.984C240.709 311.164 241.005 309.516 241.596 308.038C242.188 306.561 243.022 305.381 244.097 304.498C245.46 303.362 247.261 302.795 249.502 302.795C250.614 302.795 251.519 302.939 252.218 303.227C252.917 303.516 253.608 304.029 254.289 304.768L254.827 303.065H256.306V309.038H254.665C254.414 307.453 253.832 306.263 252.917 305.471C252.021 304.66 250.802 304.254 249.26 304.254Z" stroke="black"/>
<path d="M331.26 304.254C330.382 304.254 329.629 304.39 329.001 304.66C328.392 304.93 327.872 305.353 327.442 305.93C326.904 306.633 326.483 307.561 326.178 308.714C325.873 309.849 325.721 311.101 325.721 312.471C325.721 313.75 325.855 314.948 326.124 316.065C326.393 317.182 326.769 318.119 327.254 318.876C327.738 319.633 328.32 320.191 329.001 320.552C329.701 320.894 330.57 321.065 331.61 321.065C334.837 321.065 336.71 319.543 337.23 316.498H338.709C337.902 320.696 335.446 322.795 331.341 322.795C328.867 322.795 326.895 322.074 325.425 320.633C324.547 319.768 323.874 318.678 323.408 317.362C322.942 316.047 322.709 314.588 322.709 312.984C322.709 311.164 323.005 309.516 323.596 308.038C324.188 306.561 325.022 305.381 326.097 304.498C327.46 303.362 329.261 302.795 331.502 302.795C332.614 302.795 333.519 302.939 334.218 303.227C334.917 303.516 335.608 304.029 336.289 304.768L336.827 303.065H338.306V309.038H336.665C336.414 307.453 335.832 306.263 334.917 305.471C334.021 304.66 332.802 304.254 331.26 304.254Z" fill="white"/>
<path d="M331.26 304.254C330.382 304.254 329.629 304.39 329.001 304.66C328.392 304.93 327.872 305.353 327.442 305.93C326.904 306.633 326.483 307.561 326.178 308.714C325.873 309.849 325.721 311.101 325.721 312.471C325.721 313.75 325.855 314.948 326.124 316.065C326.393 317.182 326.769 318.119 327.254 318.876C327.738 319.633 328.32 320.191 329.001 320.552C329.701 320.894 330.57 321.065 331.61 321.065C334.837 321.065 336.71 319.543 337.23 316.498H338.709C337.902 320.696 335.446 322.795 331.341 322.795C328.867 322.795 326.895 322.074 325.425 320.633C324.547 319.768 323.874 318.678 323.408 317.362C322.942 316.047 322.709 314.588 322.709 312.984C322.709 311.164 323.005 309.516 323.596 308.038C324.188 306.561 325.022 305.381 326.097 304.498C327.46 303.362 329.261 302.795 331.502 302.795C332.614 302.795 333.519 302.939 334.218 303.227C334.917 303.516 335.608 304.029 336.289 304.768L336.827 303.065H338.306V309.038H336.665C336.414 307.453 335.832 306.263 334.917 305.471C334.021 304.66 332.802 304.254 331.26 304.254Z" stroke="black"/>
<path d="M253.57 391.484V407.106L255.709 407.66V408.795H248.886V407.66L251.024 407.106V399.796H242.394V407.106L244.532 407.66V408.795H237.709V407.66L239.848 407.106V391.484L237.709 390.93V389.795H244.532V390.93L242.394 391.484V398.266H251.024V391.484L248.886 390.93V389.795H255.709V390.93L253.57 391.484Z" fill="white"/>
<path d="M253.57 391.484V407.106L255.709 407.66V408.795H248.886V407.66L251.024 407.106V399.796H242.394V407.106L244.532 407.66V408.795H237.709V407.66L239.848 407.106V391.484L237.709 390.93V389.795H244.532V390.93L242.394 391.484V398.266H251.024V391.484L248.886 390.93V389.795H255.709V390.93L253.57 391.484Z" stroke="black"/>
<path d="M335.57 391.484V407.106L337.709 407.66V408.795H330.886V407.66L333.024 407.106V399.796H324.394V407.106L326.532 407.66V408.795H319.709V407.66L321.848 407.106V391.484L319.709 390.93V389.795H326.532V390.93L324.394 391.484V398.266H333.024V391.484L330.886 390.93V389.795H337.709V390.93L335.57 391.484Z" fill="white"/>
<path d="M335.57 391.484V407.106L337.709 407.66V408.795H330.886V407.66L333.024 407.106V399.796H324.394V407.106L326.532 407.66V408.795H319.709V407.66L321.848 407.106V391.484L319.709 390.93V389.795H326.532V390.93L324.394 391.484V398.266H333.024V391.484L330.886 390.93V389.795H337.709V390.93L335.57 391.484Z" stroke="black"/>
<path d="M172.038 304.472V319.989L174.24 320.54V321.667H167.216V320.54L169.417 319.989V312.729H160.532V319.989L162.734 320.54V321.667H155.709V320.54L157.911 319.989V304.472L155.709 303.922V302.795H162.734V303.922L160.532 304.472V311.209H169.417V304.472L167.216 303.922V302.795H174.24V303.922L172.038 304.472Z" fill="white"/>
<path d="M172.038 304.472V319.989L174.24 320.54V321.667H167.216V320.54L169.417 319.989V312.729H160.532V319.989L162.734 320.54V321.667H155.709V320.54L157.911 319.989V304.472L155.709 303.922V302.795H162.734V303.922L160.532 304.472V311.209H169.417V304.472L167.216 303.922V302.795H174.24V303.922L172.038 304.472Z" stroke="black"/>
<path d="M255.038 218.472V226.231V233.989L257.24 234.54V235.667H250.216V234.54L252.417 233.989V226.729H243.532V233.989L245.734 234.54V235.667H238.709V234.54L240.911 233.989V218.472L238.709 217.922V216.795H245.734V217.922L243.532 218.472V225.209H252.417V218.472L250.216 217.922V216.795H257.24V217.922L255.038 218.472Z" fill="white"/>
<path d="M255.038 218.472V226.231V233.989L257.24 234.54V235.667H250.216V234.54L252.417 233.989V226.729H243.532V233.989L245.734 234.54V235.667H238.709V234.54L240.911 233.989V218.472L238.709 217.922V216.795H245.734V217.922L243.532 218.472V225.209H252.417V218.472L250.216 217.922V216.795H257.24V217.922L255.038 218.472Z" stroke="black"/>
<path d="M337.038 218.472V226.231V233.989L339.24 234.54V235.667H332.216V234.54L334.417 233.989V226.729H325.532V233.989L327.734 234.54V235.667H320.709V234.54L322.911 233.989V218.472L320.709 217.922V216.795H327.734V217.922L325.532 218.472V225.209H334.417V218.472L332.216 217.922V216.795H339.24V217.922L337.038 218.472Z" fill="white"/>
<path d="M337.038 218.472V226.231V233.989L339.24 234.54V235.667H332.216V234.54L334.417 233.989V226.729H325.532V233.989L327.734 234.54V235.667H320.709V234.54L322.911 233.989V218.472L320.709 217.922V216.795H327.734V217.922L325.532 218.472V225.209H334.417V218.472L332.216 217.922V216.795H339.24V217.922L337.038 218.472Z" stroke="black"/>
<line x1="248.209" y1="365.383" x2="248.209" y2="346.796" stroke="white" stroke-width="3"/>
<line x1="330.209" y1="365.383" x2="330.209" y2="346.796" stroke="white" stroke-width="3"/>
<line x1="248.209" y1="259.795" x2="248.209" y2="278.795" stroke="white" stroke-width="3"/>
<line x1="330.209" y1="259.795" x2="330.209" y2="278.795" stroke="white" stroke-width="3"/>
<line x1="198.24" y1="311.295" x2="216.827" y2="311.295" stroke="white" stroke-width="3"/>
<line x1="280.424" y1="311.295" x2="299.011" y2="311.295" stroke="white" stroke-width="3"/>
<line x1="362.607" y1="311.295" x2="381.194" y2="311.295" stroke="white" stroke-width="3"/>
<line x1="446.441" y1="311.295" x2="465.028" y2="311.295" stroke="#FA5050" stroke-width="3"/>
<g filter="url(#filter0_d_854_9817)">
<path d="M728.209 639.795H793.641M897.333 639.795H822.457M143.709 639.795H682.541M945.939 639.795H984.824H1023.71" stroke="#C3FA50" stroke-width="3"/>
</g>
<path d="M897.209 639.591L905.247 614.467V396.288L907.555 622.842L910.786 625.046L914.017 639.591H918.632V625.046L920.94 617.112V569.068M916.324 135.795L920.94 569.068M947.709 639.591H942.171H938.478L934.324 631.216L932.017 425.379L934.324 625.046V629.013L932.017 639.591L929.709 637.387L924.632 635.183V629.013L920.94 569.068" stroke="#C3FA50" stroke-width="3"/>
<path d="M681.209 639.684H685.788L687.162 638.308V620.433V581.932L685.788 551.223L687.162 568.182L689.91 571.39V638.308H698.153V595.224V499.888V359.176V472.387L700.443 482.013V557.64V638.308L702.275 630.975L705.939 638.308H709.144L713.267 632.808V348.176V456.804L716.014 635.558L719.22 639.684L721.968 635.558L723.343 632.808L722.436 520.972L722.633 545.264L725.173 623.183V635.558L727.921 640.142" stroke="#C3FA50" stroke-width="3"/>
<path d="M145.543 682.129L1025.54 682.129" stroke="white" stroke-width="2"/>
<line x1="588.852" y1="681.992" x2="588.852" y2="704.263" stroke="white" stroke-width="2"/>
<line x1="411.84" y1="681.992" x2="411.84" y2="704.263" stroke="white" stroke-width="2"/>
<line x1="234.826" y1="681.992" x2="234.826" y2="704.263" stroke="white" stroke-width="2"/>
<line x1="145.141" y1="680.877" x2="145.141" y2="703.148" stroke="white" stroke-width="2"/>
<line x1="855.551" y1="681.992" x2="855.551" y2="704.263" stroke="white" stroke-width="2"/>
<line x1="678.537" y1="681.992" x2="678.537" y2="704.263" stroke="white" stroke-width="2"/>
<line x1="501.525" y1="681.992" x2="501.525" y2="704.263" stroke="white" stroke-width="2"/>
<line x1="323.334" y1="681.992" x2="323.334" y2="704.263" stroke="white" stroke-width="2"/>
<line x1="945.236" y1="681.992" x2="945.236" y2="704.263" stroke="white" stroke-width="2"/>
<line x1="1024.3" y1="681.992" x2="1024.3" y2="704.263" stroke="white" stroke-width="2"/>
<line x1="767.045" y1="681.992" x2="767.045" y2="704.263" stroke="white" stroke-width="2"/>
<path d="M223.765 725.335C223.765 726.268 223.985 727.042 224.425 727.655C224.865 728.255 225.572 728.555 226.545 728.555C227.012 728.555 227.519 728.402 228.065 728.095C228.625 727.788 229.152 727.295 229.645 726.615C229.565 725.268 229.252 724.182 228.705 723.355C228.172 722.528 227.385 722.115 226.345 722.115C225.865 722.115 225.425 722.262 225.025 722.555C224.639 722.835 224.332 723.215 224.105 723.695C223.879 724.175 223.765 724.722 223.765 725.335ZM225.845 734.615C225.259 734.615 224.739 734.502 224.285 734.275C223.845 734.048 223.465 733.748 223.145 733.375L223.685 732.775C223.965 733.122 224.292 733.388 224.665 733.575C225.052 733.748 225.452 733.835 225.865 733.835C226.545 733.835 227.172 733.635 227.745 733.235C228.319 732.835 228.779 732.175 229.125 731.255C229.485 730.335 229.665 729.095 229.665 727.535C229.225 728.068 228.725 728.495 228.165 728.815C227.605 729.135 227.025 729.295 226.425 729.295C225.319 729.295 224.452 728.962 223.825 728.295C223.199 727.615 222.885 726.628 222.885 725.335C222.885 724.562 223.045 723.875 223.365 723.275C223.685 722.675 224.112 722.208 224.645 721.875C225.179 721.528 225.759 721.355 226.385 721.355C227.652 721.355 228.659 721.875 229.405 722.915C230.165 723.942 230.545 725.428 230.545 727.375C230.545 729.162 230.325 730.588 229.885 731.655C229.445 732.708 228.865 733.468 228.145 733.935C227.439 734.388 226.672 734.615 225.845 734.615ZM233.796 734.615C233.582 734.615 233.382 734.535 233.196 734.375C233.022 734.215 232.936 733.995 232.936 733.715C232.936 733.422 233.022 733.195 233.196 733.035C233.382 732.875 233.582 732.795 233.796 732.795C234.022 732.795 234.216 732.875 234.376 733.035C234.549 733.195 234.636 733.422 234.636 733.715C234.636 733.995 234.549 734.215 234.376 734.375C234.216 734.535 234.022 734.615 233.796 734.615ZM240.751 734.615C239.537 734.615 238.597 734.035 237.931 732.875C237.264 731.715 236.931 730.068 236.931 727.935C236.931 725.815 237.264 724.188 237.931 723.055C238.597 721.922 239.537 721.355 240.751 721.355C241.977 721.355 242.917 721.922 243.571 723.055C244.237 724.188 244.571 725.815 244.571 727.935C244.571 730.068 244.237 731.715 243.571 732.875C242.917 734.035 241.977 734.615 240.751 734.615ZM240.751 733.855C241.644 733.855 242.351 733.355 242.871 732.355C243.404 731.355 243.671 729.882 243.671 727.935C243.671 725.988 243.404 724.535 242.871 723.575C242.351 722.602 241.644 722.115 240.751 722.115C239.871 722.115 239.164 722.602 238.631 723.575C238.097 724.535 237.831 725.988 237.831 727.935C237.831 729.882 238.097 731.355 238.631 732.355C239.164 733.355 239.871 733.855 240.751 733.855Z" fill="white"/>
<path d="M129.299 734.375V733.595H132.299V722.995H130.019V722.395C130.539 722.302 131.006 722.188 131.419 722.055C131.832 721.922 132.186 721.768 132.479 721.595H133.199V733.595H135.979V734.375H129.299ZM141.969 734.615C140.756 734.615 139.816 734.035 139.149 732.875C138.483 731.715 138.149 730.068 138.149 727.935C138.149 725.815 138.483 724.188 139.149 723.055C139.816 721.922 140.756 721.355 141.969 721.355C143.196 721.355 144.136 721.922 144.789 723.055C145.456 724.188 145.789 725.815 145.789 727.935C145.789 730.068 145.456 731.715 144.789 732.875C144.136 734.035 143.196 734.615 141.969 734.615ZM141.969 733.855C142.863 733.855 143.569 733.355 144.089 732.355C144.623 731.355 144.889 729.882 144.889 727.935C144.889 725.988 144.623 724.535 144.089 723.575C143.569 722.602 142.863 722.115 141.969 722.115C141.089 722.115 140.383 722.602 139.849 723.575C139.316 724.535 139.049 725.988 139.049 727.935C139.049 729.882 139.316 731.355 139.849 732.355C140.383 733.355 141.089 733.855 141.969 733.855ZM148.96 734.615C148.746 734.615 148.546 734.535 148.36 734.375C148.186 734.215 148.1 733.995 148.1 733.715C148.1 733.422 148.186 733.195 148.36 733.035C148.546 732.875 148.746 732.795 148.96 732.795C149.186 732.795 149.38 732.875 149.54 733.035C149.713 733.195 149.8 733.422 149.8 733.715C149.8 733.995 149.713 734.215 149.54 734.375C149.38 734.535 149.186 734.615 148.96 734.615ZM155.915 734.615C154.701 734.615 153.761 734.035 153.095 732.875C152.428 731.715 152.095 730.068 152.095 727.935C152.095 725.815 152.428 724.188 153.095 723.055C153.761 721.922 154.701 721.355 155.915 721.355C157.141 721.355 158.081 721.922 158.735 723.055C159.401 724.188 159.735 725.815 159.735 727.935C159.735 730.068 159.401 731.715 158.735 732.875C158.081 734.035 157.141 734.615 155.915 734.615ZM155.915 733.855C156.808 733.855 157.515 733.355 158.035 732.355C158.568 731.355 158.835 729.882 158.835 727.935C158.835 725.988 158.568 724.535 158.035 723.575C157.515 722.602 156.808 722.115 155.915 722.115C155.035 722.115 154.328 722.602 153.795 723.575C153.261 724.535 152.995 725.988 152.995 727.935C152.995 729.882 153.261 731.355 153.795 732.355C154.328 733.355 155.035 733.855 155.915 733.855Z" fill="white"/>
<path d="M316.571 733.502C315.798 733.502 315.104 733.348 314.491 733.042C313.878 732.735 313.391 732.315 313.031 731.782C312.684 731.248 312.511 730.648 312.511 729.982C312.511 729.408 312.638 728.888 312.891 728.422C313.158 727.955 313.484 727.555 313.871 727.222C314.271 726.875 314.671 726.595 315.071 726.382V726.302C314.604 725.995 314.178 725.602 313.791 725.122C313.418 724.628 313.231 724.042 313.231 723.362C313.231 722.748 313.378 722.208 313.671 721.742C313.978 721.275 314.384 720.908 314.891 720.642C315.398 720.375 315.958 720.242 316.571 720.242C317.664 720.242 318.511 720.562 319.111 721.202C319.724 721.828 320.031 722.622 320.031 723.582C320.031 724.048 319.931 724.495 319.731 724.922C319.531 725.335 319.291 725.708 319.011 726.042C318.731 726.362 318.464 726.622 318.211 726.822V726.902C318.584 727.128 318.938 727.388 319.271 727.682C319.618 727.962 319.898 728.302 320.111 728.702C320.338 729.102 320.451 729.588 320.451 730.162C320.451 730.775 320.284 731.335 319.951 731.842C319.631 732.348 319.178 732.755 318.591 733.062C318.018 733.355 317.344 733.502 316.571 733.502ZM317.511 726.562C318.058 726.122 318.471 725.655 318.751 725.162C319.044 724.668 319.191 724.148 319.191 723.602C319.191 722.895 318.958 722.282 318.491 721.762C318.038 721.242 317.398 720.982 316.571 720.982C315.864 720.982 315.278 721.208 314.811 721.662C314.344 722.102 314.111 722.668 314.111 723.362C314.111 723.962 314.278 724.462 314.611 724.862C314.944 725.248 315.371 725.575 315.891 725.842C316.411 726.095 316.951 726.335 317.511 726.562ZM316.571 732.762C317.478 732.762 318.198 732.508 318.731 732.002C319.278 731.495 319.551 730.875 319.551 730.142C319.551 729.488 319.364 728.962 318.991 728.562C318.618 728.148 318.131 727.802 317.531 727.522C316.944 727.242 316.318 726.975 315.651 726.722C314.998 727.095 314.458 727.548 314.031 728.082C313.604 728.615 313.391 729.235 313.391 729.942C313.391 730.475 313.524 730.955 313.791 731.382C314.071 731.795 314.451 732.128 314.931 732.382C315.411 732.635 315.958 732.762 316.571 732.762ZM323.481 733.502C323.268 733.502 323.068 733.422 322.881 733.262C322.708 733.102 322.621 732.882 322.621 732.602C322.621 732.308 322.708 732.082 322.881 731.922C323.068 731.762 323.268 731.682 323.481 731.682C323.708 731.682 323.901 731.762 324.061 731.922C324.235 732.082 324.321 732.308 324.321 732.602C324.321 732.882 324.235 733.102 324.061 733.262C323.901 733.422 323.708 733.502 323.481 733.502ZM330.436 733.502C329.223 733.502 328.283 732.922 327.616 731.762C326.95 730.602 326.616 728.955 326.616 726.822C326.616 724.702 326.95 723.075 327.616 721.942C328.283 720.808 329.223 720.242 330.436 720.242C331.663 720.242 332.603 720.808 333.256 721.942C333.923 723.075 334.256 724.702 334.256 726.822C334.256 728.955 333.923 730.602 333.256 731.762C332.603 732.922 331.663 733.502 330.436 733.502ZM330.436 732.742C331.33 732.742 332.036 732.242 332.556 731.242C333.09 730.242 333.356 728.768 333.356 726.822C333.356 724.875 333.09 723.422 332.556 722.462C332.036 721.488 331.33 721.002 330.436 721.002C329.556 721.002 328.85 721.488 328.316 722.462C327.783 723.422 327.516 724.875 327.516 726.822C327.516 728.768 327.783 730.242 328.316 731.242C328.85 732.242 329.556 732.742 330.436 732.742Z" fill="white"/>
<path d="M405.158 733.262C405.225 731.542 405.398 730.002 405.678 728.642C405.958 727.282 406.372 726.015 406.918 724.842C407.465 723.655 408.165 722.462 409.018 721.262H402.278V720.482H410.138V721.002C409.378 722.015 408.745 722.995 408.238 723.942C407.745 724.875 407.352 725.822 407.058 726.782C406.765 727.742 406.545 728.748 406.398 729.802C406.265 730.855 406.172 732.008 406.118 733.262H405.158ZM413.169 733.502C412.955 733.502 412.755 733.422 412.569 733.262C412.395 733.102 412.309 732.882 412.309 732.602C412.309 732.308 412.395 732.082 412.569 731.922C412.755 731.762 412.955 731.682 413.169 731.682C413.395 731.682 413.589 731.762 413.749 731.922C413.922 732.082 414.009 732.308 414.009 732.602C414.009 732.882 413.922 733.102 413.749 733.262C413.589 733.422 413.395 733.502 413.169 733.502ZM420.124 733.502C418.91 733.502 417.97 732.922 417.304 731.762C416.637 730.602 416.304 728.955 416.304 726.822C416.304 724.702 416.637 723.075 417.304 721.942C417.97 720.808 418.91 720.242 420.124 720.242C421.35 720.242 422.29 720.808 422.944 721.942C423.61 723.075 423.944 724.702 423.944 726.822C423.944 728.955 423.61 730.602 422.944 731.762C422.29 732.922 421.35 733.502 420.124 733.502ZM420.124 732.742C421.017 732.742 421.724 732.242 422.244 731.242C422.777 730.242 423.044 728.768 423.044 726.822C423.044 724.875 422.777 723.422 422.244 722.462C421.724 721.488 421.017 721.002 420.124 721.002C419.244 721.002 418.537 721.488 418.004 722.462C417.47 723.422 417.204 724.875 417.204 726.822C417.204 728.768 417.47 730.242 418.004 731.242C418.537 732.242 419.244 732.742 420.124 732.742Z" fill="white"/>
<path d="M493.785 726.302C493.331 726.302 492.831 726.448 492.285 726.742C491.738 727.022 491.205 727.515 490.685 728.222C490.765 729.568 491.071 730.662 491.605 731.502C492.138 732.328 492.925 732.742 493.965 732.742C494.458 732.742 494.898 732.602 495.285 732.322C495.671 732.028 495.978 731.642 496.205 731.162C496.431 730.668 496.545 730.115 496.545 729.502C496.545 728.582 496.325 727.822 495.885 727.222C495.458 726.608 494.758 726.302 493.785 726.302ZM493.945 733.502C492.665 733.502 491.645 732.982 490.885 731.942C490.138 730.888 489.765 729.395 489.765 727.462C489.765 726.115 489.891 724.982 490.145 724.062C490.398 723.142 490.745 722.402 491.185 721.842C491.625 721.282 492.125 720.875 492.685 720.622C493.258 720.368 493.851 720.242 494.465 720.242C495.065 720.242 495.578 720.355 496.005 720.582C496.445 720.808 496.831 721.108 497.165 721.482L496.625 722.082C496.345 721.735 496.018 721.475 495.645 721.302C495.271 721.115 494.878 721.022 494.465 721.022C493.785 721.022 493.151 721.222 492.565 721.622C491.991 722.022 491.531 722.682 491.185 723.602C490.838 724.522 490.665 725.762 490.665 727.322C491.105 726.775 491.605 726.342 492.165 726.022C492.725 725.702 493.298 725.542 493.885 725.542C495.005 725.542 495.878 725.882 496.505 726.562C497.131 727.228 497.445 728.208 497.445 729.502C497.445 730.275 497.285 730.962 496.965 731.562C496.645 732.162 496.218 732.635 495.685 732.982C495.165 733.328 494.585 733.502 493.945 733.502ZM500.495 733.502C500.282 733.502 500.082 733.422 499.895 733.262C499.722 733.102 499.635 732.882 499.635 732.602C499.635 732.308 499.722 732.082 499.895 731.922C500.082 731.762 500.282 731.682 500.495 731.682C500.722 731.682 500.915 731.762 501.075 731.922C501.248 732.082 501.335 732.308 501.335 732.602C501.335 732.882 501.248 733.102 501.075 733.262C500.915 733.422 500.722 733.502 500.495 733.502ZM507.45 733.502C506.237 733.502 505.297 732.922 504.63 731.762C503.963 730.602 503.63 728.955 503.63 726.822C503.63 724.702 503.963 723.075 504.63 721.942C505.297 720.808 506.237 720.242 507.45 720.242C508.677 720.242 509.617 720.808 510.27 721.942C510.937 723.075 511.27 724.702 511.27 726.822C511.27 728.955 510.937 730.602 510.27 731.762C509.617 732.922 508.677 733.502 507.45 733.502ZM507.45 732.742C508.343 732.742 509.05 732.242 509.57 731.242C510.103 730.242 510.37 728.768 510.37 726.822C510.37 724.875 510.103 723.422 509.57 722.462C509.05 721.488 508.343 721.002 507.45 721.002C506.57 721.002 505.863 721.488 505.33 722.462C504.797 723.422 504.53 724.875 504.53 726.822C504.53 728.768 504.797 730.242 505.33 731.242C505.863 732.242 506.57 732.742 507.45 732.742Z" fill="white"/>
<path d="M580.591 733.502C579.911 733.502 579.317 733.415 578.811 733.242C578.317 733.068 577.891 732.848 577.531 732.582C577.171 732.315 576.851 732.048 576.571 731.782L577.071 731.162C577.457 731.548 577.917 731.908 578.451 732.242C578.997 732.562 579.704 732.722 580.571 732.722C581.144 732.722 581.671 732.582 582.151 732.302C582.631 732.008 583.017 731.602 583.311 731.082C583.604 730.562 583.751 729.962 583.751 729.282C583.751 728.255 583.464 727.448 582.891 726.862C582.331 726.275 581.577 725.982 580.631 725.982C580.137 725.982 579.711 726.062 579.351 726.222C579.004 726.368 578.637 726.575 578.251 726.842L577.631 726.462L578.091 720.482H583.991V721.262H578.891L578.491 725.882C578.824 725.682 579.171 725.522 579.531 725.402C579.891 725.268 580.304 725.202 580.771 725.202C581.491 725.202 582.144 725.348 582.731 725.642C583.331 725.922 583.804 726.362 584.151 726.962C584.497 727.548 584.671 728.308 584.671 729.242C584.671 730.148 584.471 730.922 584.071 731.562C583.684 732.188 583.177 732.668 582.551 733.002C581.937 733.335 581.284 733.502 580.591 733.502ZM587.821 733.502C587.608 733.502 587.408 733.422 587.221 733.262C587.048 733.102 586.961 732.882 586.961 732.602C586.961 732.308 587.048 732.082 587.221 731.922C587.408 731.762 587.608 731.682 587.821 731.682C588.048 731.682 588.241 731.762 588.401 731.922C588.574 732.082 588.661 732.308 588.661 732.602C588.661 732.882 588.574 733.102 588.401 733.262C588.241 733.422 588.048 733.502 587.821 733.502ZM594.776 733.502C593.563 733.502 592.623 732.922 591.956 731.762C591.289 730.602 590.956 728.955 590.956 726.822C590.956 724.702 591.289 723.075 591.956 721.942C592.623 720.808 593.563 720.242 594.776 720.242C596.003 720.242 596.943 720.808 597.596 721.942C598.263 723.075 598.596 724.702 598.596 726.822C598.596 728.955 598.263 730.602 597.596 731.762C596.943 732.922 596.003 733.502 594.776 733.502ZM594.776 732.742C595.669 732.742 596.376 732.242 596.896 731.242C597.429 730.242 597.696 728.768 597.696 726.822C597.696 724.875 597.429 723.422 596.896 722.462C596.376 721.488 595.669 721.002 594.776 721.002C593.896 721.002 593.189 721.488 592.656 722.462C592.123 723.422 591.856 724.875 591.856 726.822C591.856 728.768 592.123 730.242 592.656 731.242C593.189 732.242 593.896 732.742 594.776 732.742Z" fill="white"/>
<path d="M667.136 728.682H671.936V724.002C671.936 723.708 671.943 723.342 671.956 722.902C671.983 722.462 672.003 722.095 672.016 721.802H671.936C671.776 722.068 671.61 722.328 671.436 722.582C671.263 722.835 671.083 723.108 670.896 723.402L667.136 728.682ZM671.936 733.262V729.442H666.056V728.922L671.996 720.482H672.796V728.682H674.696V729.442H672.796V733.262H671.936ZM677.507 733.502C677.293 733.502 677.093 733.422 676.907 733.262C676.733 733.102 676.647 732.882 676.647 732.602C676.647 732.308 676.733 732.082 676.907 731.922C677.093 731.762 677.293 731.682 677.507 731.682C677.733 731.682 677.927 731.762 678.087 731.922C678.26 732.082 678.347 732.308 678.347 732.602C678.347 732.882 678.26 733.102 678.087 733.262C677.927 733.422 677.733 733.502 677.507 733.502ZM684.462 733.502C683.248 733.502 682.308 732.922 681.642 731.762C680.975 730.602 680.642 728.955 680.642 726.822C680.642 724.702 680.975 723.075 681.642 721.942C682.308 720.808 683.248 720.242 684.462 720.242C685.688 720.242 686.628 720.808 687.282 721.942C687.948 723.075 688.282 724.702 688.282 726.822C688.282 728.955 687.948 730.602 687.282 731.762C686.628 732.922 685.688 733.502 684.462 733.502ZM684.462 732.742C685.355 732.742 686.062 732.242 686.582 731.242C687.115 730.242 687.382 728.768 687.382 726.822C687.382 724.875 687.115 723.422 686.582 722.462C686.062 721.488 685.355 721.002 684.462 721.002C683.582 721.002 682.875 721.488 682.342 722.462C681.808 723.422 681.542 724.875 681.542 726.822C681.542 728.768 681.808 730.242 682.342 731.242C682.875 732.242 683.582 732.742 684.462 732.742Z" fill="white"/>
<path d="M757.703 733.502C757.023 733.502 756.429 733.415 755.923 733.242C755.416 733.055 754.976 732.822 754.603 732.542C754.243 732.262 753.923 731.982 753.643 731.702L754.163 731.082C754.549 731.495 755.016 731.875 755.562 732.222C756.109 732.555 756.823 732.722 757.703 732.722C758.569 732.722 759.283 732.468 759.843 731.962C760.403 731.442 760.683 730.755 760.683 729.902C760.683 729.022 760.336 728.308 759.643 727.762C758.963 727.215 757.823 726.942 756.223 726.942V726.162C757.209 726.162 757.996 726.042 758.583 725.802C759.169 725.548 759.589 725.208 759.843 724.782C760.096 724.355 760.223 723.888 760.223 723.382C760.223 722.662 759.989 722.088 759.523 721.662C759.056 721.222 758.429 721.002 757.643 721.002C757.056 721.002 756.509 721.142 756.002 721.422C755.509 721.688 755.076 722.015 754.703 722.402L754.183 721.802C754.623 721.375 755.123 721.008 755.683 720.702C756.256 720.395 756.909 720.242 757.643 720.242C758.309 720.242 758.903 720.362 759.423 720.602C759.956 720.842 760.376 721.195 760.683 721.662C760.989 722.115 761.143 722.668 761.143 723.322C761.143 724.162 760.909 724.842 760.443 725.362C759.989 725.868 759.409 726.242 758.703 726.482V726.562C759.236 726.668 759.716 726.875 760.143 727.182C760.583 727.475 760.936 727.848 761.203 728.302C761.469 728.755 761.603 729.282 761.603 729.882C761.603 730.615 761.429 731.255 761.083 731.802C760.736 732.348 760.269 732.768 759.683 733.062C759.096 733.355 758.436 733.502 757.703 733.502ZM764.833 733.502C764.619 733.502 764.419 733.422 764.233 733.262C764.059 733.102 763.973 732.882 763.973 732.602C763.973 732.308 764.059 732.082 764.233 731.922C764.419 731.762 764.619 731.682 764.833 731.682C765.059 731.682 765.253 731.762 765.413 731.922C765.586 732.082 765.673 732.308 765.673 732.602C765.673 732.882 765.586 733.102 765.413 733.262C765.253 733.422 765.059 733.502 764.833 733.502ZM771.788 733.502C770.574 733.502 769.634 732.922 768.968 731.762C768.301 730.602 767.968 728.955 767.968 726.822C767.968 724.702 768.301 723.075 768.968 721.942C769.634 720.808 770.574 720.242 771.788 720.242C773.014 720.242 773.954 720.808 774.608 721.942C775.274 723.075 775.608 724.702 775.608 726.822C775.608 728.955 775.274 730.602 774.608 731.762C773.954 732.922 773.014 733.502 771.788 733.502ZM771.788 732.742C772.681 732.742 773.388 732.242 773.908 731.242C774.441 730.242 774.708 728.768 774.708 726.822C774.708 724.875 774.441 723.422 773.908 722.462C773.388 721.488 772.681 721.002 771.788 721.002C770.908 721.002 770.201 721.488 769.668 722.462C769.134 723.422 768.868 724.875 768.868 726.822C768.868 728.768 769.134 730.242 769.668 731.242C770.201 732.242 770.908 732.742 771.788 732.742Z" fill="white"/>
<path d="M843.57 733.262V732.702C844.97 731.275 846.137 730.042 847.07 729.002C848.003 727.948 848.703 727.008 849.17 726.182C849.637 725.355 849.87 724.575 849.87 723.842C849.87 723.042 849.643 722.368 849.19 721.822C848.75 721.275 848.05 721.002 847.09 721.002C846.517 721.002 845.97 721.162 845.45 721.482C844.943 721.802 844.497 722.202 844.11 722.682L843.53 722.122C844.01 721.588 844.543 721.142 845.13 720.782C845.717 720.422 846.397 720.242 847.17 720.242C848.317 720.242 849.203 720.568 849.83 721.222C850.457 721.875 850.77 722.742 850.77 723.822C850.77 724.662 850.523 725.515 850.03 726.382C849.55 727.248 848.87 728.182 847.99 729.182C847.123 730.182 846.097 731.308 844.91 732.562C845.257 732.535 845.61 732.515 845.97 732.502C846.343 732.475 846.703 732.462 847.05 732.462H851.41V733.262H843.57ZM854.52 733.502C854.307 733.502 854.107 733.422 853.92 733.262C853.747 733.102 853.66 732.882 853.66 732.602C853.66 732.308 853.747 732.082 853.92 731.922C854.107 731.762 854.307 731.682 854.52 731.682C854.747 731.682 854.94 731.762 855.1 731.922C855.274 732.082 855.36 732.308 855.36 732.602C855.36 732.882 855.274 733.102 855.1 733.262C854.94 733.422 854.747 733.502 854.52 733.502ZM861.475 733.502C860.262 733.502 859.322 732.922 858.655 731.762C857.989 730.602 857.655 728.955 857.655 726.822C857.655 724.702 857.989 723.075 858.655 721.942C859.322 720.808 860.262 720.242 861.475 720.242C862.702 720.242 863.642 720.808 864.295 721.942C864.962 723.075 865.295 724.702 865.295 726.822C865.295 728.955 864.962 730.602 864.295 731.762C863.642 732.922 862.702 733.502 861.475 733.502ZM861.475 732.742C862.369 732.742 863.075 732.242 863.595 731.242C864.129 730.242 864.395 728.768 864.395 726.822C864.395 724.875 864.129 723.422 863.595 722.462C863.075 721.488 862.369 721.002 861.475 721.002C860.595 721.002 859.889 721.488 859.355 722.462C858.822 723.422 858.555 724.875 858.555 726.822C858.555 728.768 858.822 730.242 859.355 731.242C859.889 732.242 860.595 732.742 861.475 732.742Z" fill="white"/>
<path d="M938.836 733.262V732.482H941.836V721.882H939.556V721.282C940.076 721.188 940.543 721.075 940.956 720.942C941.37 720.808 941.723 720.655 942.016 720.482H942.736V732.482H945.516V733.262H938.836ZM948.927 733.502C948.713 733.502 948.513 733.422 948.327 733.262C948.153 733.102 948.067 732.882 948.067 732.602C948.067 732.308 948.153 732.082 948.327 731.922C948.513 731.762 948.713 731.682 948.927 731.682C949.153 731.682 949.347 731.762 949.507 731.922C949.68 732.082 949.767 732.308 949.767 732.602C949.767 732.882 949.68 733.102 949.507 733.262C949.347 733.422 949.153 733.502 948.927 733.502ZM955.882 733.502C954.668 733.502 953.728 732.922 953.062 731.762C952.395 730.602 952.062 728.955 952.062 726.822C952.062 724.702 952.395 723.075 953.062 721.942C953.728 720.808 954.668 720.242 955.882 720.242C957.108 720.242 958.048 720.808 958.702 721.942C959.368 723.075 959.702 724.702 959.702 726.822C959.702 728.955 959.368 730.602 958.702 731.762C958.048 732.922 957.108 733.502 955.882 733.502ZM955.882 732.742C956.775 732.742 957.482 732.242 958.002 731.242C958.535 730.242 958.802 728.768 958.802 726.822C958.802 724.875 958.535 723.422 958.002 722.462C957.482 721.488 956.775 721.002 955.882 721.002C955.002 721.002 954.295 721.488 953.762 722.462C953.228 723.422 952.962 724.875 952.962 726.822C952.962 728.768 953.228 730.242 953.762 731.242C954.295 732.242 955.002 732.742 955.882 732.742Z" fill="white"/>
<path d="M1025.72 733.502C1024.51 733.502 1023.57 732.922 1022.9 731.762C1022.23 730.602 1021.9 728.955 1021.9 726.822C1021.9 724.702 1022.23 723.075 1022.9 721.942C1023.57 720.808 1024.51 720.242 1025.72 720.242C1026.95 720.242 1027.89 720.808 1028.54 721.942C1029.21 723.075 1029.54 724.702 1029.54 726.822C1029.54 728.955 1029.21 730.602 1028.54 731.762C1027.89 732.922 1026.95 733.502 1025.72 733.502ZM1025.72 732.742C1026.61 732.742 1027.32 732.242 1027.84 731.242C1028.37 730.242 1028.64 728.768 1028.64 726.822C1028.64 724.875 1028.37 723.422 1027.84 722.462C1027.32 721.488 1026.61 721.002 1025.72 721.002C1024.84 721.002 1024.13 721.488 1023.6 722.462C1023.07 723.422 1022.8 724.875 1022.8 726.822C1022.8 728.768 1023.07 730.242 1023.6 731.242C1024.13 732.242 1024.84 732.742 1025.72 732.742Z" fill="white"/>
<g filter="url(#filter1_d_854_9817)">
<path d="M791.709 639.639H807.28L810.028 622.173V536.004L811.86 530.963V488.795V525.921L813.692 523.629L815.066 639.639H822.393H826.515" stroke="#FA5050" stroke-width="3"/>
</g>
<line x1="811.709" y1="312.295" x2="527.709" y2="312.295" stroke="#FA5050" stroke-width="3"/>
<path d="M811.648 451.856C812.234 452.441 813.184 452.441 813.77 451.856L823.316 442.31C823.901 441.724 823.901 440.774 823.316 440.188C822.73 439.603 821.78 439.603 821.194 440.188L812.709 448.674L804.224 440.188C803.638 439.603 802.688 439.603 802.102 440.188C801.517 440.774 801.517 441.724 802.102 442.31L811.648 451.856ZM811.209 310.795L811.209 450.795L814.209 450.795L814.209 310.795L811.209 310.795Z" fill="#FA5050"/>
<path d="M808.709 231.96C808.709 234.39 808.326 236.68 807.56 238.83C806.822 240.953 805.787 242.726 804.454 244.15C803.291 245.379 801.886 246.301 800.241 246.915C798.624 247.502 796.752 247.795 794.624 247.795C792.468 247.795 790.567 247.502 788.922 246.915C787.276 246.329 785.9 245.449 784.794 244.276C783.489 242.935 782.482 241.26 781.773 239.249C781.064 237.21 780.709 235.004 780.709 232.63C780.709 230.2 781.078 227.924 781.815 225.802C782.581 223.651 783.631 221.864 784.964 220.44C786.156 219.183 787.532 218.261 789.092 217.675C790.681 217.088 792.553 216.795 794.709 216.795C796.865 216.795 798.752 217.088 800.369 217.675C802.014 218.233 803.418 219.113 804.581 220.314C805.915 221.654 806.936 223.344 807.645 225.383C808.354 227.421 808.709 229.614 808.709 231.96ZM785.603 231.792C785.603 234.11 785.801 236.177 786.198 237.992C786.596 239.78 787.163 241.246 787.9 242.391C788.638 243.424 789.56 244.206 790.666 244.737C791.801 245.24 793.191 245.491 794.837 245.491C797.844 245.491 800.057 244.569 801.475 242.726C802.241 241.693 802.822 240.324 803.22 238.621C803.617 236.889 803.815 234.864 803.815 232.546C803.815 230.228 803.617 228.19 803.22 226.43C802.822 224.671 802.241 223.246 801.475 222.157C800.737 221.096 799.787 220.314 798.624 219.811C797.489 219.308 796.142 219.057 794.581 219.057C793.078 219.057 791.773 219.294 790.666 219.769C789.588 220.216 788.681 220.9 787.943 221.822C786.383 223.861 785.603 227.184 785.603 231.792Z" fill="#FA5050"/>
<path d="M808.709 231.96C808.709 234.39 808.326 236.68 807.56 238.83C806.822 240.953 805.787 242.726 804.454 244.15C803.291 245.379 801.886 246.301 800.241 246.915C798.624 247.502 796.752 247.795 794.624 247.795C792.468 247.795 790.567 247.502 788.922 246.915C787.276 246.329 785.9 245.449 784.794 244.276C783.489 242.935 782.482 241.26 781.773 239.249C781.064 237.21 780.709 235.004 780.709 232.63C780.709 230.2 781.078 227.924 781.815 225.802C782.581 223.651 783.631 221.864 784.964 220.44C786.156 219.183 787.532 218.261 789.092 217.675C790.681 217.088 792.553 216.795 794.709 216.795C796.865 216.795 798.752 217.088 800.369 217.675C802.014 218.233 803.418 219.113 804.581 220.314C805.915 221.654 806.936 223.344 807.645 225.383C808.354 227.421 808.709 229.614 808.709 231.96ZM785.603 231.792C785.603 234.11 785.801 236.177 786.198 237.992C786.596 239.78 787.163 241.246 787.9 242.391C788.638 243.424 789.56 244.206 790.666 244.737C791.801 245.24 793.191 245.491 794.837 245.491C797.844 245.491 800.057 244.569 801.475 242.726C802.241 241.693 802.822 240.324 803.22 238.621C803.617 236.889 803.815 234.864 803.815 232.546C803.815 230.228 803.617 228.19 803.22 226.43C802.822 224.671 802.241 223.246 801.475 222.157C800.737 221.096 799.787 220.314 798.624 219.811C797.489 219.308 796.142 219.057 794.581 219.057C793.078 219.057 791.773 219.294 790.666 219.769C789.588 220.216 788.681 220.9 787.943 221.822C786.383 223.861 785.603 227.184 785.603 231.792Z" stroke="black"/>
<path d="M835.145 219.55V245.039L838.709 245.944V247.795H827.337V245.944L830.901 245.039V233.113H816.517V245.039L820.081 245.944V247.795H808.709V245.944L812.273 245.039V219.55L808.709 218.646V216.795H820.081V218.646L816.517 219.55V230.616H830.901V219.55L827.337 218.646V216.795H838.709V218.646L835.145 219.55Z" fill="#FA5050"/>
<path d="M835.145 219.55V245.039L838.709 245.944V247.795H827.337V245.944L830.901 245.039V233.113H816.517V245.039L820.081 245.944V247.795H808.709V245.944L812.273 245.039V219.55L808.709 218.646V216.795H820.081V218.646L816.517 219.55V230.616H830.901V219.55L827.337 218.646V216.795H838.709V218.646L835.145 219.55Z" stroke="black"/>
<path d="M95.149 82.0349H94.129L93.769 79.9949H90.449L90.449 85.5949H96.489L97.109 82.3349H98.269L98.269 86.7949H86.569L86.569 85.9349L88.449 85.5149L88.449 73.6749L86.569 73.2549L86.569 72.3949H97.829L97.829 76.6349H96.789L96.149 73.5549H90.449L90.449 78.7949H93.769L94.129 76.7549H95.149L95.149 82.0349ZM99.5804 76.9949L99.5804 76.2749L101.52 75.9949L101.78 73.4749L103.46 73.2349L103.46 75.9949H106.02L106.02 76.9949H103.46L103.46 84.1349C103.46 84.5883 103.467 84.9016 103.48 85.0749C103.494 85.2349 103.52 85.3683 103.56 85.4749C103.6 85.5683 103.674 85.6349 103.78 85.6749C103.887 85.7016 104.06 85.7149 104.3 85.7149H105.7L105.7 86.2949C105.06 86.5349 104.494 86.7083 104 86.8149C103.52 86.9349 103.134 86.9949 102.84 86.9949C102.24 86.9949 101.854 86.7483 101.68 86.2549C101.627 86.0949 101.587 85.8883 101.56 85.6349C101.534 85.3816 101.52 85.0083 101.52 84.5149L101.52 76.9949H99.5804ZM115.177 85.5949L115.177 81.1349C115.177 80.2683 115.15 79.6216 115.097 79.1949C115.057 78.7683 114.977 78.4349 114.857 78.1949C114.537 77.5416 113.95 77.2149 113.097 77.2149C112.723 77.2149 112.363 77.2816 112.017 77.4149C111.67 77.5483 111.363 77.7283 111.097 77.9549C110.803 78.2083 110.583 78.5149 110.437 78.8749C110.303 79.2216 110.223 79.6549 110.197 80.1749L110.197 85.5949L111.537 85.9749L111.537 86.7949H106.717L106.717 85.9749L108.257 85.5949L108.257 72.3949L106.717 72.0149L106.717 71.1949H110.197L110.197 77.8749C110.597 77.2349 111.123 76.7283 111.777 76.3549C112.443 75.9816 113.157 75.7949 113.917 75.7949C114.45 75.7949 114.93 75.8883 115.357 76.0749C115.783 76.2616 116.123 76.5283 116.377 76.8749C116.643 77.2483 116.83 77.7749 116.937 78.4549C117.057 79.1216 117.117 80.0283 117.117 81.1749L117.117 85.5949L118.657 85.9749L118.657 86.7949H113.837L113.837 85.9749L115.177 85.5949ZM119.848 84.4549C119.848 83.4149 120.335 82.5949 121.308 81.9949C122.281 81.3949 123.895 80.9283 126.148 80.5949C126.095 79.8083 126.021 79.1949 125.928 78.7549C125.835 78.3149 125.715 77.9616 125.568 77.6949C125.381 77.3483 125.121 77.0949 124.788 76.9349C124.455 76.7616 124.095 76.6749 123.708 76.6749C123.335 76.6749 122.995 76.7416 122.688 76.8749C122.395 77.0083 122.195 77.1883 122.088 77.4149C122.275 77.5483 122.408 77.7216 122.488 77.9349C122.581 78.1483 122.628 78.3483 122.628 78.5349C122.628 78.8683 122.515 79.1349 122.288 79.3349C122.075 79.5216 121.808 79.6149 121.488 79.6149C121.168 79.6149 120.901 79.5083 120.688 79.2949C120.488 79.0816 120.388 78.7816 120.388 78.3949C120.388 77.8349 120.581 77.3616 120.968 76.9749C121.355 76.5883 121.841 76.2949 122.428 76.0949C123.028 75.8949 123.628 75.7949 124.228 75.7949C124.775 75.7949 125.275 75.8816 125.728 76.0549C126.195 76.2149 126.588 76.4549 126.908 76.7749C127.735 77.6016 128.148 79.0683 128.148 81.1749L128.148 84.0749C128.148 84.7283 128.188 85.1816 128.268 85.4349C128.361 85.6883 128.555 85.8149 128.848 85.8149H129.748L129.748 86.4149C128.788 86.8016 128.041 86.9949 127.508 86.9949C127.095 86.9949 126.815 86.8483 126.668 86.5549C126.535 86.2483 126.468 85.6683 126.468 84.8149H126.388C125.975 85.4949 125.428 86.0283 124.748 86.4149C124.068 86.8016 123.335 86.9949 122.548 86.9949C121.708 86.9949 121.048 86.7683 120.568 86.3149C120.088 85.8616 119.848 85.2416 119.848 84.4549ZM123.388 85.8349C123.761 85.8349 124.148 85.7416 124.548 85.5549C124.961 85.3549 125.308 85.0816 125.588 84.7349C125.801 84.4683 125.955 84.1549 126.048 83.7949C126.155 83.4216 126.208 82.9883 126.208 82.4949C126.208 82.2683 126.201 82.0483 126.188 81.8349C126.175 81.6083 126.155 81.3949 126.128 81.1949C125.048 81.4083 124.201 81.6416 123.588 81.8949C122.975 82.1349 122.541 82.4283 122.288 82.7749C122.035 83.1083 121.908 83.5283 121.908 84.0349C121.908 84.6083 122.035 85.0549 122.288 85.3749C122.555 85.6816 122.921 85.8349 123.388 85.8349ZM132.09 85.5949L132.09 77.1949L130.55 76.8149L130.55 75.9949H133.43L133.87 77.9949H133.95C134.35 77.3149 134.89 76.7816 135.57 76.3949C136.25 75.9949 136.977 75.7949 137.75 75.7949C138.857 75.7949 139.677 76.1549 140.21 76.8749C140.477 77.2483 140.663 77.7749 140.77 78.4549C140.89 79.1216 140.95 80.0283 140.95 81.1749L140.95 85.5949L142.49 85.9749L142.49 86.7949L137.67 86.7949L137.67 85.9749L139.01 85.5949L139.01 81.1349C139.01 80.2683 138.983 79.6216 138.93 79.1949C138.89 78.7683 138.81 78.4349 138.69 78.1949C138.53 77.8749 138.297 77.6349 137.99 77.4749C137.697 77.3016 137.343 77.2149 136.93 77.2149C136.157 77.2149 135.49 77.4616 134.93 77.9549C134.383 78.4483 134.083 79.2149 134.03 80.2549L134.03 85.5949L135.37 85.9749L135.37 86.7949H130.55L130.55 85.9749L132.09 85.5949ZM153.656 81.2949C153.656 82.1616 153.522 82.9883 153.256 83.7749C153.002 84.5483 152.642 85.1883 152.176 85.6949C151.776 86.1349 151.282 86.4616 150.696 86.6749C150.109 86.8883 149.442 86.9949 148.696 86.9949C147.962 86.9949 147.309 86.8949 146.736 86.6949C146.162 86.4816 145.676 86.1616 145.276 85.7349C144.822 85.2416 144.469 84.6349 144.216 83.9149C143.976 83.1816 143.856 82.3883 143.856 81.5349C143.856 80.6683 143.982 79.8416 144.236 79.0549C144.489 78.2549 144.856 77.6016 145.336 77.0949C145.762 76.6416 146.256 76.3149 146.816 76.1149C147.389 75.9016 148.042 75.7949 148.776 75.7949C149.509 75.7949 150.169 75.9016 150.756 76.1149C151.342 76.3149 151.836 76.6283 152.236 77.0549C152.702 77.5483 153.056 78.1683 153.296 78.9149C153.536 79.6483 153.656 80.4416 153.656 81.2949ZM145.996 81.3149C145.996 82.1283 146.056 82.8349 146.176 83.4349C146.309 84.0216 146.489 84.5083 146.716 84.8949C146.942 85.2283 147.209 85.4883 147.516 85.6749C147.836 85.8616 148.249 85.9549 148.756 85.9549C149.676 85.9549 150.362 85.6416 150.816 85.0149C151.056 84.6683 151.229 84.1883 151.336 83.5749C151.456 82.9616 151.516 82.2549 151.516 81.4549C151.516 80.6549 151.449 79.9549 151.316 79.3549C151.196 78.7549 151.022 78.2683 150.796 77.8949C150.582 77.5483 150.309 77.2883 149.976 77.1149C149.656 76.9283 149.242 76.8349 148.736 76.8349C147.802 76.8349 147.129 77.1416 146.716 77.7549C146.236 78.5016 145.996 79.6883 145.996 81.3149ZM156.676 85.5949L156.676 72.3949L155.136 72.0149L155.136 71.1949H158.616L158.616 85.5949L160.156 85.9749L160.156 86.7949H155.136L155.136 85.9749L156.676 85.5949Z" fill="white"/>
<path d="M115.589 615.055L127.429 615.055L127.849 613.175L128.709 613.175L128.709 618.935L127.849 618.935L127.429 617.055L115.589 617.055L115.169 618.935L114.309 618.935L114.309 613.175L115.169 613.175L115.589 615.055ZM127.509 610.054L119.109 610.054L118.729 611.594L117.909 611.594L117.909 608.714L119.909 608.274L119.909 608.194C119.229 607.794 118.696 607.254 118.309 606.574C117.909 605.894 117.709 605.168 117.709 604.394C117.709 603.288 118.069 602.468 118.789 601.934C119.162 601.668 119.689 601.481 120.369 601.374C121.036 601.254 121.942 601.194 123.089 601.194L127.509 601.194L127.889 599.654L128.709 599.654L128.709 604.474L127.889 604.474L127.509 603.134L123.049 603.134C122.182 603.134 121.536 603.161 121.109 603.214C120.682 603.254 120.349 603.334 120.109 603.454C119.789 603.614 119.549 603.848 119.389 604.154C119.216 604.448 119.129 604.801 119.129 605.214C119.129 605.988 119.376 606.654 119.869 607.214C120.362 607.761 121.129 608.061 122.169 608.114L127.509 608.114L127.889 606.774L128.709 606.774L128.709 611.594L127.889 611.594L127.509 610.054ZM118.909 599.029L118.189 599.029L117.909 597.089L115.389 596.829L115.149 595.149L117.909 595.149L117.909 592.589L118.909 592.589L118.909 595.149L126.049 595.149C126.502 595.149 126.816 595.142 126.989 595.129C127.149 595.116 127.282 595.089 127.389 595.049C127.482 595.009 127.549 594.936 127.589 594.829C127.616 594.722 127.629 594.549 127.629 594.309L127.629 592.909L128.209 592.909C128.449 593.549 128.622 594.116 128.729 594.609C128.849 595.089 128.909 595.476 128.909 595.769C128.909 596.369 128.662 596.756 128.169 596.929C128.009 596.982 127.802 597.022 127.549 597.049C127.296 597.076 126.922 597.089 126.429 597.089L118.909 597.089L118.909 599.029ZM123.429 582.453L123.429 589.433C124.402 589.433 125.209 589.299 125.849 589.033C126.462 588.766 126.902 588.386 127.169 587.893C127.436 587.399 127.569 586.866 127.569 586.293C127.569 585.666 127.442 585.093 127.189 584.573C126.922 584.053 126.562 583.586 126.109 583.173L126.589 582.533C127.229 582.999 127.776 583.566 128.229 584.233C128.682 584.899 128.909 585.759 128.909 586.813C128.909 587.733 128.716 588.546 128.329 589.253C127.929 589.959 127.349 590.499 126.589 590.873C126.176 591.073 125.716 591.219 125.209 591.313C124.702 591.406 124.162 591.453 123.589 591.453C121.722 591.453 120.276 591.026 119.249 590.173C118.222 589.306 117.709 588.133 117.709 586.653C117.709 585.293 118.136 584.246 118.989 583.513C119.829 582.766 120.996 582.393 122.489 582.393C122.622 582.393 122.749 582.399 122.869 582.413C122.976 582.413 123.162 582.426 123.429 582.453ZM118.789 586.773C118.789 588.373 120.009 589.253 122.449 589.413L122.449 584.413L121.789 584.413C120.829 584.413 120.089 584.619 119.569 585.033C119.049 585.433 118.789 586.013 118.789 586.773ZM127.509 579.254L119.109 579.254L118.729 580.794L117.909 580.794L117.909 577.914L119.909 577.474L119.909 577.394C119.229 576.994 118.696 576.454 118.309 575.774C117.909 575.094 117.709 574.367 117.709 573.594C117.709 572.487 118.069 571.667 118.789 571.134C119.162 570.867 119.689 570.68 120.369 570.574C121.036 570.454 121.942 570.394 123.089 570.394L127.509 570.394L127.889 568.854L128.709 568.854L128.709 573.674L127.889 573.674L127.509 572.334L123.049 572.334C122.182 572.334 121.536 572.36 121.109 572.414C120.682 572.454 120.349 572.534 120.109 572.654C119.789 572.814 119.549 573.047 119.389 573.354C119.216 573.647 119.129 574 119.129 574.414C119.129 575.187 119.376 575.854 119.869 576.414C120.362 576.96 121.129 577.26 122.169 577.314L127.509 577.314L127.889 575.974L128.709 575.974L128.709 580.794L127.889 580.794L127.509 579.254ZM127.989 563.528C127.989 562.782 127.836 562.175 127.529 561.708C127.222 561.228 126.796 560.988 126.249 560.988C125.809 560.988 125.456 561.135 125.189 561.428C124.922 561.722 124.709 562.088 124.549 562.528C124.376 562.955 124.229 563.388 124.109 563.828C123.936 564.375 123.736 564.902 123.509 565.408C123.269 565.915 122.942 566.328 122.529 566.648C122.116 566.968 121.569 567.128 120.889 567.128C119.929 567.128 119.162 566.782 118.589 566.088C118.002 565.382 117.709 564.402 117.709 563.148C117.709 562.082 117.936 561.242 118.389 560.628C118.829 560.002 119.436 559.688 120.209 559.688C120.622 559.688 120.956 559.782 121.209 559.968C121.449 560.155 121.569 560.422 121.569 560.768C121.569 561.075 121.476 561.328 121.289 561.528C121.102 561.728 120.862 561.828 120.569 561.828C120.316 561.828 120.089 561.762 119.889 561.628C119.676 561.495 119.522 561.322 119.429 561.108C119.149 561.308 118.949 561.568 118.829 561.888C118.696 562.195 118.629 562.595 118.629 563.088C118.629 563.888 118.776 564.488 119.069 564.888C119.349 565.288 119.769 565.488 120.329 565.488C120.729 565.488 121.049 565.395 121.289 565.208C121.516 565.008 121.709 564.722 121.869 564.348C122.029 563.975 122.196 563.515 122.369 562.968C122.502 562.515 122.656 562.068 122.829 561.628C122.989 561.188 123.189 560.788 123.429 560.428C123.669 560.068 123.969 559.782 124.329 559.568C124.689 559.355 125.136 559.248 125.669 559.248C126.349 559.248 126.936 559.435 127.429 559.808C127.909 560.182 128.276 560.695 128.529 561.348C128.782 562.002 128.909 562.755 128.909 563.608C128.909 564.782 128.669 565.728 128.189 566.448C127.709 567.168 127.062 567.528 126.249 567.528C125.822 567.528 125.489 567.435 125.249 567.248C124.996 567.048 124.869 566.768 124.869 566.408C124.869 566.088 124.962 565.822 125.149 565.608C125.336 565.382 125.582 565.268 125.889 565.268C126.142 565.268 126.382 565.342 126.609 565.488C126.836 565.622 127.002 565.788 127.109 565.988C127.362 565.815 127.576 565.508 127.749 565.068C127.909 564.615 127.989 564.102 127.989 563.528ZM119.109 556.09L118.729 557.63L117.909 557.63L117.909 554.15L127.509 554.15L127.889 552.61L128.709 552.61L128.709 557.63L127.889 557.63L127.509 556.09L119.109 556.09ZM114.689 556.37C114.302 556.37 113.996 556.256 113.769 556.03C113.542 555.803 113.429 555.503 113.429 555.13C113.429 554.743 113.542 554.436 113.769 554.21C113.996 553.983 114.302 553.87 114.689 553.87C115.062 553.87 115.362 553.983 115.589 554.21C115.816 554.436 115.929 554.743 115.929 555.13C115.929 555.516 115.822 555.823 115.609 556.05C115.382 556.263 115.076 556.37 114.689 556.37ZM118.909 551.939L118.189 551.939L117.909 549.999L115.389 549.739L115.149 548.059L117.909 548.059L117.909 545.499L118.909 545.499L118.909 548.059L126.049 548.059C126.502 548.059 126.816 548.052 126.989 548.039C127.149 548.026 127.282 547.999 127.389 547.959C127.482 547.919 127.549 547.846 127.589 547.739C127.616 547.632 127.629 547.459 127.629 547.219L127.629 545.819L128.209 545.819C128.449 546.459 128.622 547.026 128.729 547.519C128.849 547.999 128.909 548.386 128.909 548.679C128.909 549.279 128.662 549.666 128.169 549.839C128.009 549.892 127.802 549.932 127.549 549.959C127.296 549.986 126.922 549.999 126.429 549.999L118.909 549.999L118.909 551.939ZM119.109 535.023L128.229 538.343C129.256 538.716 130.082 539.056 130.709 539.363C131.349 539.669 131.809 540.009 132.089 540.383C132.369 540.756 132.509 541.236 132.509 541.823C132.509 542.449 132.342 542.989 132.009 543.443C131.676 543.883 131.256 544.103 130.749 544.103C130.376 544.103 130.062 543.996 129.809 543.783C129.569 543.569 129.449 543.289 129.449 542.943C129.449 542.636 129.529 542.396 129.689 542.223C129.862 542.036 130.096 541.943 130.389 541.943C130.576 541.943 130.756 541.983 130.929 542.063C131.102 542.129 131.256 542.223 131.389 542.343C131.522 542.316 131.609 542.236 131.649 542.103C131.702 541.969 131.729 541.856 131.729 541.763C131.729 541.576 131.682 541.403 131.589 541.243C131.496 541.083 131.296 540.916 130.989 540.743C130.696 540.556 130.229 540.356 129.589 540.143L128.849 539.903L119.109 544.043L118.729 545.243L117.909 545.243L117.909 540.763L118.729 540.603L119.109 542.023L126.949 539.043L126.949 538.963L119.109 536.443L118.729 537.603L117.909 537.603L117.909 533.803L118.729 533.803L119.109 535.023Z" fill="#C3FA50"/>
<path d="M574.95 829.085C574.95 830.471 575.09 831.751 575.37 832.925C575.65 834.098 576.044 835.138 576.55 836.045C577.057 836.938 577.657 837.665 578.35 838.225C579.044 838.785 579.81 839.151 580.65 839.325L581.17 838.225C580.33 838.051 579.59 837.565 578.95 836.765C578.324 835.965 577.837 834.911 577.49 833.605C577.144 832.298 576.97 830.805 576.97 829.125C576.97 827.458 577.15 825.965 577.51 824.645C577.87 823.311 578.37 822.225 579.01 821.385C579.664 820.545 580.417 820.025 581.27 819.825L580.85 818.845C579.97 819.058 579.164 819.465 578.43 820.065C577.71 820.665 577.09 821.418 576.57 822.325C576.05 823.231 575.65 824.258 575.37 825.405C575.09 826.538 574.95 827.765 574.95 829.085ZM585.472 838.545L587.412 838.925V839.745H581.992V838.925L583.532 838.545V826.545L581.992 826.165V825.345H584.872L585.172 826.885C585.599 826.218 586.079 825.765 586.612 825.525C587.159 825.271 587.772 825.145 588.452 825.145C589.132 825.145 589.746 825.245 590.292 825.445C590.852 825.645 591.306 825.965 591.652 826.405C592.052 826.911 592.366 827.525 592.592 828.245C592.832 828.951 592.952 829.718 592.952 830.545C592.952 831.398 592.819 832.205 592.552 832.965C592.299 833.711 591.952 834.338 591.512 834.845C590.766 835.711 589.692 836.145 588.292 836.145C587.719 836.145 587.199 836.038 586.732 835.825C586.279 835.598 585.859 835.211 585.472 834.665V838.545ZM585.452 830.565C585.452 831.351 585.512 832.038 585.632 832.625C585.752 833.211 585.926 833.685 586.152 834.045C586.366 834.378 586.626 834.638 586.932 834.825C587.252 835.011 587.659 835.105 588.152 835.105C588.606 835.105 588.999 835.025 589.332 834.865C589.679 834.691 589.959 834.458 590.172 834.165C590.412 833.831 590.586 833.365 590.692 832.765C590.799 832.165 590.852 831.478 590.852 830.705C590.852 829.918 590.792 829.238 590.672 828.665C590.552 828.091 590.379 827.618 590.152 827.245C589.939 826.898 589.672 826.638 589.352 826.465C589.046 826.278 588.639 826.185 588.132 826.185C587.679 826.185 587.279 826.265 586.932 826.425C586.599 826.571 586.339 826.798 586.152 827.105C585.939 827.465 585.766 827.938 585.632 828.525C585.512 829.098 585.452 829.778 585.452 830.565ZM597.855 838.545L599.795 838.925V839.745H594.375V838.925L595.915 838.545V826.545L594.375 826.165V825.345H597.255L597.555 826.885C597.982 826.218 598.462 825.765 598.995 825.525C599.542 825.271 600.155 825.145 600.835 825.145C601.515 825.145 602.128 825.245 602.675 825.445C603.235 825.645 603.688 825.965 604.035 826.405C604.435 826.911 604.748 827.525 604.975 828.245C605.215 828.951 605.335 829.718 605.335 830.545C605.335 831.398 605.202 832.205 604.935 832.965C604.682 833.711 604.335 834.338 603.895 834.845C603.148 835.711 602.075 836.145 600.675 836.145C600.102 836.145 599.582 836.038 599.115 835.825C598.662 835.598 598.242 835.211 597.855 834.665V838.545ZM597.835 830.565C597.835 831.351 597.895 832.038 598.015 832.625C598.135 833.211 598.308 833.685 598.535 834.045C598.748 834.378 599.008 834.638 599.315 834.825C599.635 835.011 600.042 835.105 600.535 835.105C600.988 835.105 601.382 835.025 601.715 834.865C602.062 834.691 602.342 834.458 602.555 834.165C602.795 833.831 602.968 833.365 603.075 832.765C603.182 832.165 603.235 831.478 603.235 830.705C603.235 829.918 603.175 829.238 603.055 828.665C602.935 828.091 602.762 827.618 602.535 827.245C602.322 826.898 602.055 826.638 601.735 826.465C601.428 826.278 601.022 826.185 600.515 826.185C600.062 826.185 599.662 826.265 599.315 826.425C598.982 826.571 598.722 826.798 598.535 827.105C598.322 827.465 598.148 827.938 598.015 828.525C597.895 829.098 597.835 829.778 597.835 830.565ZM608.518 834.945V826.545L606.978 826.165V825.345H609.858L610.298 827.345H610.378C610.764 826.678 611.278 826.145 611.918 825.745C612.571 825.345 613.264 825.145 613.998 825.145C614.544 825.145 615.031 825.251 615.458 825.465C615.884 825.665 616.198 825.918 616.398 826.225C616.611 826.558 616.784 826.998 616.918 827.545C617.344 826.798 617.898 826.211 618.578 825.785C619.258 825.358 619.984 825.145 620.758 825.145C621.291 825.145 621.771 825.251 622.198 825.465C622.624 825.665 622.951 825.945 623.178 826.305C623.338 826.558 623.464 826.885 623.558 827.285C623.651 827.685 623.718 828.205 623.758 828.845C623.798 829.471 623.818 830.271 623.818 831.245V834.945L625.358 835.325V836.145H620.538V835.325L621.878 834.945V830.485C621.878 829.618 621.851 828.971 621.798 828.545C621.758 828.118 621.678 827.785 621.558 827.545C621.398 827.225 621.171 826.985 620.878 826.825C620.598 826.651 620.264 826.565 619.878 826.565C619.544 826.565 619.218 826.631 618.898 826.765C618.578 826.898 618.291 827.078 618.038 827.305C617.744 827.571 617.524 827.885 617.378 828.245C617.244 828.605 617.164 829.058 617.138 829.605V834.945L618.478 835.325V836.145H613.858V835.325L615.198 834.945V830.485C615.198 829.618 615.171 828.971 615.118 828.545C615.078 828.118 614.998 827.785 614.878 827.545C614.718 827.225 614.491 826.985 614.198 826.825C613.918 826.651 613.584 826.565 613.198 826.565C612.864 826.565 612.538 826.631 612.218 826.765C611.898 826.898 611.611 827.078 611.358 827.305C611.064 827.571 610.844 827.885 610.698 828.245C610.564 828.605 610.484 829.058 610.458 829.605V834.945L611.798 835.325V836.145H606.978V835.325L608.518 834.945ZM631.704 829.085C631.704 827.765 631.564 826.538 631.284 825.405C631.004 824.258 630.604 823.231 630.084 822.325C629.564 821.418 628.937 820.665 628.204 820.065C627.484 819.465 626.684 819.058 625.804 818.845L625.384 819.825C626.251 820.025 627.004 820.545 627.644 821.385C628.284 822.225 628.784 823.311 629.144 824.645C629.504 825.965 629.684 827.458 629.684 829.125C629.684 830.805 629.504 832.298 629.144 833.605C628.797 834.911 628.311 835.965 627.684 836.765C627.057 837.565 626.324 838.051 625.484 838.225L626.004 839.325C626.844 839.151 627.611 838.785 628.304 838.225C628.997 837.665 629.597 836.938 630.104 836.045C630.611 835.138 631.004 834.098 631.284 832.925C631.564 831.751 631.704 830.471 631.704 829.085Z" fill="white"/>
<path d="M547.551 824.934C547.551 824.096 547.88 823.424 548.538 822.917C549.196 822.406 550.108 822.15 551.272 822.15C551.784 822.15 552.241 822.193 552.643 822.278C553.05 822.363 553.474 822.491 553.914 822.662V824.338C553.63 824.224 553.244 824.101 552.757 823.968C552.269 823.836 551.784 823.77 551.301 823.77C550.733 823.77 550.297 823.878 549.994 824.096C549.691 824.309 549.539 824.584 549.539 824.92C549.539 825.091 549.594 825.275 549.703 825.474C549.816 825.673 550.027 825.879 550.335 826.092C550.647 826.305 551.102 826.52 551.699 826.738C553.133 827.25 554.177 827.96 554.831 828.869C555.489 829.778 555.818 830.886 555.818 832.193V832.392C555.818 833.367 555.628 834.245 555.25 835.027C554.876 835.808 554.336 836.426 553.63 836.88C552.93 837.335 552.087 837.562 551.102 837.562C550.098 837.562 549.241 837.335 548.531 836.88C547.825 836.426 547.286 835.808 546.912 835.027C546.542 834.245 546.358 833.367 546.358 832.392V832.193C546.358 831.435 546.502 830.742 546.791 830.112C547.08 829.482 547.466 828.954 547.949 828.528C548.431 828.102 548.962 827.818 549.539 827.676V827.619C548.929 827.377 548.443 827.027 548.083 826.568C547.728 826.109 547.551 825.564 547.551 824.934ZM548.318 832.193V832.392C548.318 833.045 548.415 833.646 548.609 834.196C548.808 834.74 549.111 835.178 549.518 835.51C549.93 835.836 550.458 836 551.102 836C551.736 836 552.257 835.836 552.664 835.51C553.072 835.178 553.372 834.74 553.566 834.196C553.761 833.646 553.858 833.045 553.858 832.392V832.193C553.858 831.663 553.744 831.139 553.517 830.623C553.289 830.102 552.97 829.653 552.558 829.274C552.146 828.89 551.661 828.642 551.102 828.528C550.458 828.528 549.93 828.699 549.518 829.039C549.111 829.376 548.808 829.823 548.609 830.382C548.415 830.936 548.318 831.539 548.318 832.193Z" fill="white"/>
<defs>
<filter id="filter0_d_854_9817" x="139.709" y="638.295" width="888" height="11" filterUnits="userSpaceOnUse" color-interpolation-filters="sRGB">
<feFlood flood-opacity="0" result="BackgroundImageFix"/>
<feColorMatrix in="SourceAlpha" type="matrix" values="0 0 0 0 0 0 0 0 0 0 0 0 0 0 0 0 0 0 127 0" result="hardAlpha"/>
<feOffset dy="4"/>
<feGaussianBlur stdDeviation="2"/>
<feComposite in2="hardAlpha" operator="out"/>
<feColorMatrix type="matrix" values="0 0 0 0 0 0 0 0 0 0 0 0 0 0 0 0 0 0 0.25 0"/>
<feBlend mode="normal" in2="BackgroundImageFix" result="effect1_dropShadow_854_9817"/>
<feBlend mode="normal" in="SourceGraphic" in2="effect1_dropShadow_854_9817" result="shape"/>
</filter>
<filter id="filter1_d_854_9817" x="787.709" y="488.795" width="42.8066" height="160.344" filterUnits="userSpaceOnUse" color-interpolation-filters="sRGB">
<feFlood flood-opacity="0" result="BackgroundImageFix"/>
<feColorMatrix in="SourceAlpha" type="matrix" values="0 0 0 0 0 0 0 0 0 0 0 0 0 0 0 0 0 0 127 0" result="hardAlpha"/>
<feOffset dy="4"/>
<feGaussianBlur stdDeviation="2"/>
<feComposite in2="hardAlpha" operator="out"/>
<feColorMatrix type="matrix" values="0 0 0 0 0 0 0 0 0 0 0 0 0 0 0 0 0 0 0.25 0"/>
<feBlend mode="normal" in2="BackgroundImageFix" result="effect1_dropShadow_854_9817"/>
<feBlend mode="normal" in="SourceGraphic" in2="effect1_dropShadow_854_9817" result="shape"/>
</filter>
</defs>
</svg>
