<svg width="1123" height="901" viewBox="0 0 1123 901" fill="none" xmlns="http://www.w3.org/2000/svg">
<rect width="1122" height="900" transform="translate(0.5 0.455078)" fill="#0C0C31"/>
<g filter="url(#filter0_d_854_7776)">
<path d="M727.254 639.802L795.491 639.851H811.062L813.81 622.385V536.216L815.642 531.175V489.007V526.133L817.474 523.841L818.848 639.851H826.175H830.297H898.077M152.5 639.851L685.578 639.802M946.164 639.851H984.633H1023.1" stroke="#C3FA50" stroke-width="3"/>
</g>
<path d="M899.5 641.455L905.038 613.479V390.126L907.346 622.053L910.577 624.309L913.808 639.199H918.423V624.309L920.731 616.187V567.004M916.115 123.455L920.731 567.004M947.5 639.199H941.962H938.269L934.115 630.626L931.808 419.906L934.115 624.309V628.37L931.808 639.199L929.5 636.943L924.423 634.687V628.37L920.731 567.004" stroke="#C3FA50" stroke-width="3"/>
<path d="M684.205 639.802L685.579 639.344L686.953 637.969V620.093V581.592L685.579 550.883L686.953 567.842L689.701 571.05V637.969H697.944V594.884V499.548V358.836V472.048L700.234 481.673V557.3V637.969L702.066 630.635L705.73 637.969H708.936L713.058 632.468V347.836V456.464L715.805 635.219L719.011 639.344L721.759 635.219L723.134 632.468L722.227 520.632L722.424 544.924L724.964 622.843V635.219L727.712 639.802" stroke="#C726AD" stroke-width="3"/>
<path d="M145.334 681.789L1025.33 681.789" stroke="white" stroke-width="2"/>
<line x1="588.643" y1="681.651" x2="588.643" y2="703.922" stroke="white" stroke-width="2"/>
<line x1="411.631" y1="681.651" x2="411.631" y2="703.922" stroke="white" stroke-width="2"/>
<line x1="234.617" y1="681.651" x2="234.617" y2="703.922" stroke="white" stroke-width="2"/>
<line x1="144.932" y1="680.537" x2="144.932" y2="702.808" stroke="white" stroke-width="2"/>
<line x1="855.342" y1="681.651" x2="855.342" y2="703.922" stroke="white" stroke-width="2"/>
<line x1="678.328" y1="681.651" x2="678.328" y2="703.922" stroke="white" stroke-width="2"/>
<line x1="501.316" y1="681.651" x2="501.316" y2="703.922" stroke="white" stroke-width="2"/>
<line x1="323.125" y1="681.651" x2="323.125" y2="703.922" stroke="white" stroke-width="2"/>
<line x1="945.027" y1="681.651" x2="945.027" y2="703.922" stroke="white" stroke-width="2"/>
<line x1="1024.09" y1="681.651" x2="1024.09" y2="703.922" stroke="white" stroke-width="2"/>
<line x1="766.836" y1="681.651" x2="766.836" y2="703.922" stroke="white" stroke-width="2"/>
<path d="M223.556 724.995C223.556 725.928 223.776 726.702 224.216 727.315C224.656 727.915 225.363 728.215 226.336 728.215C226.803 728.215 227.31 728.062 227.856 727.755C228.416 727.448 228.943 726.955 229.436 726.275C229.356 724.928 229.043 723.842 228.496 723.015C227.963 722.188 227.176 721.775 226.136 721.775C225.656 721.775 225.216 721.922 224.816 722.215C224.43 722.495 224.123 722.875 223.896 723.355C223.67 723.835 223.556 724.382 223.556 724.995ZM225.636 734.275C225.05 734.275 224.53 734.162 224.076 733.935C223.636 733.708 223.256 733.408 222.936 733.035L223.476 732.435C223.756 732.782 224.083 733.048 224.456 733.235C224.843 733.408 225.243 733.495 225.656 733.495C226.336 733.495 226.963 733.295 227.536 732.895C228.11 732.495 228.57 731.835 228.916 730.915C229.276 729.995 229.456 728.755 229.456 727.195C229.016 727.728 228.516 728.155 227.956 728.475C227.396 728.795 226.816 728.955 226.216 728.955C225.11 728.955 224.243 728.622 223.616 727.955C222.99 727.275 222.676 726.288 222.676 724.995C222.676 724.222 222.836 723.535 223.156 722.935C223.476 722.335 223.903 721.868 224.436 721.535C224.97 721.188 225.55 721.015 226.176 721.015C227.443 721.015 228.45 721.535 229.196 722.575C229.956 723.602 230.336 725.088 230.336 727.035C230.336 728.822 230.116 730.248 229.676 731.315C229.236 732.368 228.656 733.128 227.936 733.595C227.23 734.048 226.463 734.275 225.636 734.275ZM233.587 734.275C233.373 734.275 233.173 734.195 232.987 734.035C232.813 733.875 232.727 733.655 232.727 733.375C232.727 733.082 232.813 732.855 232.987 732.695C233.173 732.535 233.373 732.455 233.587 732.455C233.813 732.455 234.007 732.535 234.167 732.695C234.34 732.855 234.427 733.082 234.427 733.375C234.427 733.655 234.34 733.875 234.167 734.035C234.007 734.195 233.813 734.275 233.587 734.275ZM240.542 734.275C239.328 734.275 238.388 733.695 237.722 732.535C237.055 731.375 236.722 729.728 236.722 727.595C236.722 725.475 237.055 723.848 237.722 722.715C238.388 721.582 239.328 721.015 240.542 721.015C241.768 721.015 242.708 721.582 243.362 722.715C244.028 723.848 244.362 725.475 244.362 727.595C244.362 729.728 244.028 731.375 243.362 732.535C242.708 733.695 241.768 734.275 240.542 734.275ZM240.542 733.515C241.435 733.515 242.142 733.015 242.662 732.015C243.195 731.015 243.462 729.542 243.462 727.595C243.462 725.648 243.195 724.195 242.662 723.235C242.142 722.262 241.435 721.775 240.542 721.775C239.662 721.775 238.955 722.262 238.422 723.235C237.888 724.195 237.622 725.648 237.622 727.595C237.622 729.542 237.888 731.015 238.422 732.015C238.955 733.015 239.662 733.515 240.542 733.515Z" fill="white"/>
<path d="M129.09 734.035V733.255H132.09V722.655H129.81V722.055C130.33 721.962 130.797 721.848 131.21 721.715C131.623 721.582 131.977 721.428 132.27 721.255H132.99V733.255H135.77V734.035H129.09ZM141.76 734.275C140.547 734.275 139.607 733.695 138.94 732.535C138.274 731.375 137.94 729.728 137.94 727.595C137.94 725.475 138.274 723.848 138.94 722.715C139.607 721.582 140.547 721.015 141.76 721.015C142.987 721.015 143.927 721.582 144.58 722.715C145.247 723.848 145.58 725.475 145.58 727.595C145.58 729.728 145.247 731.375 144.58 732.535C143.927 733.695 142.987 734.275 141.76 734.275ZM141.76 733.515C142.654 733.515 143.36 733.015 143.88 732.015C144.414 731.015 144.68 729.542 144.68 727.595C144.68 725.648 144.414 724.195 143.88 723.235C143.36 722.262 142.654 721.775 141.76 721.775C140.88 721.775 140.174 722.262 139.64 723.235C139.107 724.195 138.84 725.648 138.84 727.595C138.84 729.542 139.107 731.015 139.64 732.015C140.174 733.015 140.88 733.515 141.76 733.515ZM148.751 734.275C148.537 734.275 148.337 734.195 148.151 734.035C147.977 733.875 147.891 733.655 147.891 733.375C147.891 733.082 147.977 732.855 148.151 732.695C148.337 732.535 148.537 732.455 148.751 732.455C148.977 732.455 149.171 732.535 149.331 732.695C149.504 732.855 149.591 733.082 149.591 733.375C149.591 733.655 149.504 733.875 149.331 734.035C149.171 734.195 148.977 734.275 148.751 734.275ZM155.706 734.275C154.492 734.275 153.552 733.695 152.886 732.535C152.219 731.375 151.886 729.728 151.886 727.595C151.886 725.475 152.219 723.848 152.886 722.715C153.552 721.582 154.492 721.015 155.706 721.015C156.932 721.015 157.872 721.582 158.526 722.715C159.192 723.848 159.526 725.475 159.526 727.595C159.526 729.728 159.192 731.375 158.526 732.535C157.872 733.695 156.932 734.275 155.706 734.275ZM155.706 733.515C156.599 733.515 157.306 733.015 157.826 732.015C158.359 731.015 158.626 729.542 158.626 727.595C158.626 725.648 158.359 724.195 157.826 723.235C157.306 722.262 156.599 721.775 155.706 721.775C154.826 721.775 154.119 722.262 153.586 723.235C153.052 724.195 152.786 725.648 152.786 727.595C152.786 729.542 153.052 731.015 153.586 732.015C154.119 733.015 154.826 733.515 155.706 733.515Z" fill="white"/>
<path d="M316.362 733.162C315.589 733.162 314.895 733.009 314.282 732.702C313.669 732.395 313.182 731.975 312.822 731.442C312.475 730.909 312.302 730.309 312.302 729.642C312.302 729.069 312.429 728.549 312.682 728.082C312.949 727.615 313.275 727.215 313.662 726.882C314.062 726.535 314.462 726.255 314.862 726.042V725.962C314.395 725.655 313.969 725.262 313.582 724.782C313.209 724.289 313.022 723.702 313.022 723.022C313.022 722.409 313.169 721.869 313.462 721.402C313.769 720.935 314.175 720.569 314.682 720.302C315.189 720.035 315.749 719.902 316.362 719.902C317.455 719.902 318.302 720.222 318.902 720.862C319.515 721.489 319.822 722.282 319.822 723.242C319.822 723.709 319.722 724.155 319.522 724.582C319.322 724.995 319.082 725.369 318.802 725.702C318.522 726.022 318.255 726.282 318.002 726.482V726.562C318.375 726.789 318.729 727.049 319.062 727.342C319.409 727.622 319.689 727.962 319.902 728.362C320.129 728.762 320.242 729.249 320.242 729.822C320.242 730.435 320.075 730.995 319.742 731.502C319.422 732.009 318.969 732.415 318.382 732.722C317.809 733.015 317.135 733.162 316.362 733.162ZM317.302 726.222C317.849 725.782 318.262 725.315 318.542 724.822C318.835 724.329 318.982 723.809 318.982 723.262C318.982 722.555 318.749 721.942 318.282 721.422C317.829 720.902 317.189 720.642 316.362 720.642C315.655 720.642 315.069 720.869 314.602 721.322C314.135 721.762 313.902 722.329 313.902 723.022C313.902 723.622 314.069 724.122 314.402 724.522C314.735 724.909 315.162 725.235 315.682 725.502C316.202 725.755 316.742 725.995 317.302 726.222ZM316.362 732.422C317.269 732.422 317.989 732.169 318.522 731.662C319.069 731.155 319.342 730.535 319.342 729.802C319.342 729.149 319.155 728.622 318.782 728.222C318.409 727.809 317.922 727.462 317.322 727.182C316.735 726.902 316.109 726.635 315.442 726.382C314.789 726.755 314.249 727.209 313.822 727.742C313.395 728.275 313.182 728.895 313.182 729.602C313.182 730.135 313.315 730.615 313.582 731.042C313.862 731.455 314.242 731.789 314.722 732.042C315.202 732.295 315.749 732.422 316.362 732.422ZM323.272 733.162C323.059 733.162 322.859 733.082 322.672 732.922C322.499 732.762 322.412 732.542 322.412 732.262C322.412 731.969 322.499 731.742 322.672 731.582C322.859 731.422 323.059 731.342 323.272 731.342C323.499 731.342 323.692 731.422 323.852 731.582C324.026 731.742 324.112 731.969 324.112 732.262C324.112 732.542 324.026 732.762 323.852 732.922C323.692 733.082 323.499 733.162 323.272 733.162ZM330.227 733.162C329.014 733.162 328.074 732.582 327.407 731.422C326.741 730.262 326.407 728.615 326.407 726.482C326.407 724.362 326.741 722.735 327.407 721.602C328.074 720.469 329.014 719.902 330.227 719.902C331.454 719.902 332.394 720.469 333.047 721.602C333.714 722.735 334.047 724.362 334.047 726.482C334.047 728.615 333.714 730.262 333.047 731.422C332.394 732.582 331.454 733.162 330.227 733.162ZM330.227 732.402C331.121 732.402 331.827 731.902 332.347 730.902C332.881 729.902 333.147 728.429 333.147 726.482C333.147 724.535 332.881 723.082 332.347 722.122C331.827 721.149 331.121 720.662 330.227 720.662C329.347 720.662 328.641 721.149 328.107 722.122C327.574 723.082 327.307 724.535 327.307 726.482C327.307 728.429 327.574 729.902 328.107 730.902C328.641 731.902 329.347 732.402 330.227 732.402Z" fill="white"/>
<path d="M404.949 732.922C405.016 731.202 405.189 729.662 405.469 728.302C405.749 726.942 406.163 725.675 406.709 724.502C407.256 723.315 407.956 722.122 408.809 720.922H402.069V720.142H409.929V720.662C409.169 721.675 408.536 722.655 408.029 723.602C407.536 724.535 407.143 725.482 406.849 726.442C406.556 727.402 406.336 728.409 406.189 729.462C406.056 730.515 405.963 731.669 405.909 732.922H404.949ZM412.96 733.162C412.746 733.162 412.546 733.082 412.36 732.922C412.186 732.762 412.1 732.542 412.1 732.262C412.1 731.969 412.186 731.742 412.36 731.582C412.546 731.422 412.746 731.342 412.96 731.342C413.186 731.342 413.38 731.422 413.54 731.582C413.713 731.742 413.8 731.969 413.8 732.262C413.8 732.542 413.713 732.762 413.54 732.922C413.38 733.082 413.186 733.162 412.96 733.162ZM419.915 733.162C418.701 733.162 417.761 732.582 417.095 731.422C416.428 730.262 416.095 728.615 416.095 726.482C416.095 724.362 416.428 722.735 417.095 721.602C417.761 720.469 418.701 719.902 419.915 719.902C421.141 719.902 422.081 720.469 422.735 721.602C423.401 722.735 423.735 724.362 423.735 726.482C423.735 728.615 423.401 730.262 422.735 731.422C422.081 732.582 421.141 733.162 419.915 733.162ZM419.915 732.402C420.808 732.402 421.515 731.902 422.035 730.902C422.568 729.902 422.835 728.429 422.835 726.482C422.835 724.535 422.568 723.082 422.035 722.122C421.515 721.149 420.808 720.662 419.915 720.662C419.035 720.662 418.328 721.149 417.795 722.122C417.261 723.082 416.995 724.535 416.995 726.482C416.995 728.429 417.261 729.902 417.795 730.902C418.328 731.902 419.035 732.402 419.915 732.402Z" fill="white"/>
<path d="M493.576 725.962C493.122 725.962 492.622 726.109 492.076 726.402C491.529 726.682 490.996 727.175 490.476 727.882C490.556 729.229 490.862 730.322 491.396 731.162C491.929 731.989 492.716 732.402 493.756 732.402C494.249 732.402 494.689 732.262 495.076 731.982C495.462 731.689 495.769 731.302 495.996 730.822C496.222 730.329 496.336 729.775 496.336 729.162C496.336 728.242 496.116 727.482 495.676 726.882C495.249 726.269 494.549 725.962 493.576 725.962ZM493.736 733.162C492.456 733.162 491.436 732.642 490.676 731.602C489.929 730.549 489.556 729.055 489.556 727.122C489.556 725.775 489.682 724.642 489.936 723.722C490.189 722.802 490.536 722.062 490.976 721.502C491.416 720.942 491.916 720.535 492.476 720.282C493.049 720.029 493.642 719.902 494.256 719.902C494.856 719.902 495.369 720.015 495.796 720.242C496.236 720.469 496.622 720.769 496.956 721.142L496.416 721.742C496.136 721.395 495.809 721.135 495.436 720.962C495.062 720.775 494.669 720.682 494.256 720.682C493.576 720.682 492.942 720.882 492.356 721.282C491.782 721.682 491.322 722.342 490.976 723.262C490.629 724.182 490.456 725.422 490.456 726.982C490.896 726.435 491.396 726.002 491.956 725.682C492.516 725.362 493.089 725.202 493.676 725.202C494.796 725.202 495.669 725.542 496.296 726.222C496.922 726.889 497.236 727.869 497.236 729.162C497.236 729.935 497.076 730.622 496.756 731.222C496.436 731.822 496.009 732.295 495.476 732.642C494.956 732.989 494.376 733.162 493.736 733.162ZM500.286 733.162C500.073 733.162 499.873 733.082 499.686 732.922C499.513 732.762 499.426 732.542 499.426 732.262C499.426 731.969 499.513 731.742 499.686 731.582C499.873 731.422 500.073 731.342 500.286 731.342C500.513 731.342 500.706 731.422 500.866 731.582C501.039 731.742 501.126 731.969 501.126 732.262C501.126 732.542 501.039 732.762 500.866 732.922C500.706 733.082 500.513 733.162 500.286 733.162ZM507.241 733.162C506.028 733.162 505.088 732.582 504.421 731.422C503.754 730.262 503.421 728.615 503.421 726.482C503.421 724.362 503.754 722.735 504.421 721.602C505.088 720.469 506.028 719.902 507.241 719.902C508.468 719.902 509.408 720.469 510.061 721.602C510.728 722.735 511.061 724.362 511.061 726.482C511.061 728.615 510.728 730.262 510.061 731.422C509.408 732.582 508.468 733.162 507.241 733.162ZM507.241 732.402C508.134 732.402 508.841 731.902 509.361 730.902C509.894 729.902 510.161 728.429 510.161 726.482C510.161 724.535 509.894 723.082 509.361 722.122C508.841 721.149 508.134 720.662 507.241 720.662C506.361 720.662 505.654 721.149 505.121 722.122C504.588 723.082 504.321 724.535 504.321 726.482C504.321 728.429 504.588 729.902 505.121 730.902C505.654 731.902 506.361 732.402 507.241 732.402Z" fill="white"/>
<path d="M580.382 733.162C579.702 733.162 579.108 733.075 578.602 732.902C578.108 732.729 577.682 732.509 577.322 732.242C576.962 731.975 576.642 731.709 576.362 731.442L576.862 730.822C577.248 731.209 577.708 731.569 578.242 731.902C578.788 732.222 579.495 732.382 580.362 732.382C580.935 732.382 581.462 732.242 581.942 731.962C582.422 731.669 582.808 731.262 583.102 730.742C583.395 730.222 583.542 729.622 583.542 728.942C583.542 727.915 583.255 727.109 582.682 726.522C582.122 725.935 581.368 725.642 580.422 725.642C579.928 725.642 579.502 725.722 579.142 725.882C578.795 726.029 578.428 726.235 578.042 726.502L577.422 726.122L577.882 720.142H583.782V720.922H578.682L578.282 725.542C578.615 725.342 578.962 725.182 579.322 725.062C579.682 724.929 580.095 724.862 580.562 724.862C581.282 724.862 581.935 725.009 582.522 725.302C583.122 725.582 583.595 726.022 583.942 726.622C584.288 727.209 584.462 727.969 584.462 728.902C584.462 729.809 584.262 730.582 583.862 731.222C583.475 731.849 582.968 732.329 582.342 732.662C581.728 732.995 581.075 733.162 580.382 733.162ZM587.612 733.162C587.399 733.162 587.199 733.082 587.012 732.922C586.839 732.762 586.752 732.542 586.752 732.262C586.752 731.969 586.839 731.742 587.012 731.582C587.199 731.422 587.399 731.342 587.612 731.342C587.839 731.342 588.032 731.422 588.192 731.582C588.365 731.742 588.452 731.969 588.452 732.262C588.452 732.542 588.365 732.762 588.192 732.922C588.032 733.082 587.839 733.162 587.612 733.162ZM594.567 733.162C593.354 733.162 592.414 732.582 591.747 731.422C591.08 730.262 590.747 728.615 590.747 726.482C590.747 724.362 591.08 722.735 591.747 721.602C592.414 720.469 593.354 719.902 594.567 719.902C595.794 719.902 596.734 720.469 597.387 721.602C598.054 722.735 598.387 724.362 598.387 726.482C598.387 728.615 598.054 730.262 597.387 731.422C596.734 732.582 595.794 733.162 594.567 733.162ZM594.567 732.402C595.46 732.402 596.167 731.902 596.687 730.902C597.22 729.902 597.487 728.429 597.487 726.482C597.487 724.535 597.22 723.082 596.687 722.122C596.167 721.149 595.46 720.662 594.567 720.662C593.687 720.662 592.98 721.149 592.447 722.122C591.914 723.082 591.647 724.535 591.647 726.482C591.647 728.429 591.914 729.902 592.447 730.902C592.98 731.902 593.687 732.402 594.567 732.402Z" fill="white"/>
<path d="M666.927 728.342H671.727V723.662C671.727 723.369 671.734 723.002 671.747 722.562C671.774 722.122 671.794 721.755 671.807 721.462H671.727C671.567 721.729 671.401 721.989 671.227 722.242C671.054 722.495 670.874 722.769 670.687 723.062L666.927 728.342ZM671.727 732.922V729.102H665.847V728.582L671.787 720.142H672.587V728.342H674.487V729.102H672.587V732.922H671.727ZM677.298 733.162C677.084 733.162 676.884 733.082 676.698 732.922C676.524 732.762 676.438 732.542 676.438 732.262C676.438 731.969 676.524 731.742 676.698 731.582C676.884 731.422 677.084 731.342 677.298 731.342C677.524 731.342 677.718 731.422 677.878 731.582C678.051 731.742 678.138 731.969 678.138 732.262C678.138 732.542 678.051 732.762 677.878 732.922C677.718 733.082 677.524 733.162 677.298 733.162ZM684.253 733.162C683.039 733.162 682.099 732.582 681.433 731.422C680.766 730.262 680.433 728.615 680.433 726.482C680.433 724.362 680.766 722.735 681.433 721.602C682.099 720.469 683.039 719.902 684.253 719.902C685.479 719.902 686.419 720.469 687.073 721.602C687.739 722.735 688.073 724.362 688.073 726.482C688.073 728.615 687.739 730.262 687.073 731.422C686.419 732.582 685.479 733.162 684.253 733.162ZM684.253 732.402C685.146 732.402 685.853 731.902 686.373 730.902C686.906 729.902 687.173 728.429 687.173 726.482C687.173 724.535 686.906 723.082 686.373 722.122C685.853 721.149 685.146 720.662 684.253 720.662C683.373 720.662 682.666 721.149 682.133 722.122C681.599 723.082 681.333 724.535 681.333 726.482C681.333 728.429 681.599 729.902 682.133 730.902C682.666 731.902 683.373 732.402 684.253 732.402Z" fill="white"/>
<path d="M757.494 733.162C756.814 733.162 756.22 733.075 755.714 732.902C755.207 732.715 754.767 732.482 754.394 732.202C754.034 731.922 753.714 731.642 753.434 731.362L753.954 730.742C754.34 731.155 754.807 731.535 755.354 731.882C755.9 732.215 756.614 732.382 757.494 732.382C758.36 732.382 759.074 732.129 759.634 731.622C760.194 731.102 760.474 730.415 760.474 729.562C760.474 728.682 760.127 727.969 759.434 727.422C758.754 726.875 757.614 726.602 756.014 726.602V725.822C757 725.822 757.787 725.702 758.374 725.462C758.96 725.209 759.38 724.869 759.634 724.442C759.887 724.015 760.014 723.549 760.014 723.042C760.014 722.322 759.78 721.749 759.314 721.322C758.847 720.882 758.22 720.662 757.434 720.662C756.847 720.662 756.3 720.802 755.794 721.082C755.3 721.349 754.867 721.675 754.494 722.062L753.974 721.462C754.414 721.035 754.914 720.669 755.474 720.362C756.047 720.055 756.7 719.902 757.434 719.902C758.1 719.902 758.694 720.022 759.214 720.262C759.747 720.502 760.167 720.855 760.474 721.322C760.78 721.775 760.934 722.329 760.934 722.982C760.934 723.822 760.7 724.502 760.234 725.022C759.78 725.529 759.2 725.902 758.494 726.142V726.222C759.027 726.329 759.507 726.535 759.934 726.842C760.374 727.135 760.727 727.509 760.994 727.962C761.26 728.415 761.394 728.942 761.394 729.542C761.394 730.275 761.22 730.915 760.874 731.462C760.527 732.009 760.06 732.429 759.474 732.722C758.887 733.015 758.227 733.162 757.494 733.162ZM764.624 733.162C764.41 733.162 764.21 733.082 764.024 732.922C763.85 732.762 763.764 732.542 763.764 732.262C763.764 731.969 763.85 731.742 764.024 731.582C764.21 731.422 764.41 731.342 764.624 731.342C764.85 731.342 765.044 731.422 765.204 731.582C765.377 731.742 765.464 731.969 765.464 732.262C765.464 732.542 765.377 732.762 765.204 732.922C765.044 733.082 764.85 733.162 764.624 733.162ZM771.579 733.162C770.365 733.162 769.425 732.582 768.759 731.422C768.092 730.262 767.759 728.615 767.759 726.482C767.759 724.362 768.092 722.735 768.759 721.602C769.425 720.469 770.365 719.902 771.579 719.902C772.805 719.902 773.745 720.469 774.399 721.602C775.065 722.735 775.399 724.362 775.399 726.482C775.399 728.615 775.065 730.262 774.399 731.422C773.745 732.582 772.805 733.162 771.579 733.162ZM771.579 732.402C772.472 732.402 773.179 731.902 773.699 730.902C774.232 729.902 774.499 728.429 774.499 726.482C774.499 724.535 774.232 723.082 773.699 722.122C773.179 721.149 772.472 720.662 771.579 720.662C770.699 720.662 769.992 721.149 769.459 722.122C768.925 723.082 768.659 724.535 768.659 726.482C768.659 728.429 768.925 729.902 769.459 730.902C769.992 731.902 770.699 732.402 771.579 732.402Z" fill="white"/>
<path d="M843.361 732.922V732.362C844.761 730.935 845.928 729.702 846.861 728.662C847.794 727.609 848.494 726.669 848.961 725.842C849.428 725.015 849.661 724.235 849.661 723.502C849.661 722.702 849.434 722.029 848.981 721.482C848.541 720.935 847.841 720.662 846.881 720.662C846.308 720.662 845.761 720.822 845.241 721.142C844.734 721.462 844.288 721.862 843.901 722.342L843.321 721.782C843.801 721.249 844.334 720.802 844.921 720.442C845.508 720.082 846.188 719.902 846.961 719.902C848.108 719.902 848.994 720.229 849.621 720.882C850.248 721.535 850.561 722.402 850.561 723.482C850.561 724.322 850.314 725.175 849.821 726.042C849.341 726.909 848.661 727.842 847.781 728.842C846.914 729.842 845.888 730.969 844.701 732.222C845.048 732.195 845.401 732.175 845.761 732.162C846.134 732.135 846.494 732.122 846.841 732.122H851.201V732.922H843.361ZM854.311 733.162C854.098 733.162 853.898 733.082 853.711 732.922C853.538 732.762 853.451 732.542 853.451 732.262C853.451 731.969 853.538 731.742 853.711 731.582C853.898 731.422 854.098 731.342 854.311 731.342C854.538 731.342 854.731 731.422 854.891 731.582C855.065 731.742 855.151 731.969 855.151 732.262C855.151 732.542 855.065 732.762 854.891 732.922C854.731 733.082 854.538 733.162 854.311 733.162ZM861.266 733.162C860.053 733.162 859.113 732.582 858.446 731.422C857.78 730.262 857.446 728.615 857.446 726.482C857.446 724.362 857.78 722.735 858.446 721.602C859.113 720.469 860.053 719.902 861.266 719.902C862.493 719.902 863.433 720.469 864.086 721.602C864.753 722.735 865.086 724.362 865.086 726.482C865.086 728.615 864.753 730.262 864.086 731.422C863.433 732.582 862.493 733.162 861.266 733.162ZM861.266 732.402C862.16 732.402 862.866 731.902 863.386 730.902C863.92 729.902 864.186 728.429 864.186 726.482C864.186 724.535 863.92 723.082 863.386 722.122C862.866 721.149 862.16 720.662 861.266 720.662C860.386 720.662 859.68 721.149 859.146 722.122C858.613 723.082 858.346 724.535 858.346 726.482C858.346 728.429 858.613 729.902 859.146 730.902C859.68 731.902 860.386 732.402 861.266 732.402Z" fill="white"/>
<path d="M938.627 732.922V732.142H941.627V721.542H939.347V720.942C939.867 720.849 940.334 720.735 940.747 720.602C941.161 720.469 941.514 720.315 941.807 720.142H942.527V732.142H945.307V732.922H938.627ZM948.718 733.162C948.504 733.162 948.304 733.082 948.118 732.922C947.944 732.762 947.858 732.542 947.858 732.262C947.858 731.969 947.944 731.742 948.118 731.582C948.304 731.422 948.504 731.342 948.718 731.342C948.944 731.342 949.138 731.422 949.298 731.582C949.471 731.742 949.558 731.969 949.558 732.262C949.558 732.542 949.471 732.762 949.298 732.922C949.138 733.082 948.944 733.162 948.718 733.162ZM955.673 733.162C954.459 733.162 953.519 732.582 952.853 731.422C952.186 730.262 951.853 728.615 951.853 726.482C951.853 724.362 952.186 722.735 952.853 721.602C953.519 720.469 954.459 719.902 955.673 719.902C956.899 719.902 957.839 720.469 958.493 721.602C959.159 722.735 959.493 724.362 959.493 726.482C959.493 728.615 959.159 730.262 958.493 731.422C957.839 732.582 956.899 733.162 955.673 733.162ZM955.673 732.402C956.566 732.402 957.273 731.902 957.793 730.902C958.326 729.902 958.593 728.429 958.593 726.482C958.593 724.535 958.326 723.082 957.793 722.122C957.273 721.149 956.566 720.662 955.673 720.662C954.793 720.662 954.086 721.149 953.553 722.122C953.019 723.082 952.753 724.535 952.753 726.482C952.753 728.429 953.019 729.902 953.553 730.902C954.086 731.902 954.793 732.402 955.673 732.402Z" fill="white"/>
<path d="M1025.51 733.162C1024.3 733.162 1023.36 732.582 1022.69 731.422C1022.03 730.262 1021.69 728.615 1021.69 726.482C1021.69 724.362 1022.03 722.735 1022.69 721.602C1023.36 720.469 1024.3 719.902 1025.51 719.902C1026.74 719.902 1027.68 720.469 1028.33 721.602C1029 722.735 1029.33 724.362 1029.33 726.482C1029.33 728.615 1029 730.262 1028.33 731.422C1027.68 732.582 1026.74 733.162 1025.51 733.162ZM1025.51 732.402C1026.41 732.402 1027.11 731.902 1027.63 730.902C1028.17 729.902 1028.43 728.429 1028.43 726.482C1028.43 724.535 1028.17 723.082 1027.63 722.122C1027.11 721.149 1026.41 720.662 1025.51 720.662C1024.63 720.662 1023.93 721.149 1023.39 722.122C1022.86 723.082 1022.59 724.535 1022.59 726.482C1022.59 728.429 1022.86 729.902 1023.39 730.902C1023.93 731.902 1024.63 732.402 1025.51 732.402Z" fill="white"/>
<path d="M94.94 81.6951H93.92L93.56 79.6551H90.24L90.24 85.2551H96.28L96.9 81.9951H98.06L98.06 86.4551H86.36L86.36 85.5951L88.24 85.1751L88.24 73.3351L86.36 72.9151L86.36 72.0551H97.62L97.62 76.2951H96.58L95.94 73.2151H90.24L90.24 78.4551H93.56L93.92 76.4151H94.94L94.94 81.6951ZM99.3714 76.6551L99.3714 75.9351L101.311 75.6551L101.571 73.1351L103.251 72.8951L103.251 75.6551H105.811L105.811 76.6551H103.251L103.251 83.7951C103.251 84.2484 103.258 84.5617 103.271 84.7351C103.285 84.8951 103.311 85.0284 103.351 85.1351C103.391 85.2284 103.465 85.2951 103.571 85.3351C103.678 85.3617 103.851 85.3751 104.091 85.3751H105.491L105.491 85.9551C104.851 86.1951 104.285 86.3684 103.791 86.4751C103.311 86.5951 102.925 86.6551 102.631 86.6551C102.031 86.6551 101.645 86.4084 101.471 85.9151C101.418 85.7551 101.378 85.5484 101.351 85.2951C101.325 85.0417 101.311 84.6684 101.311 84.1751L101.311 76.6551H99.3714ZM114.968 85.2551L114.968 80.7951C114.968 79.9284 114.941 79.2817 114.888 78.8551C114.848 78.4284 114.768 78.0951 114.648 77.8551C114.328 77.2017 113.741 76.8751 112.888 76.8751C112.514 76.8751 112.154 76.9417 111.808 77.0751C111.461 77.2084 111.154 77.3884 110.888 77.6151C110.594 77.8684 110.374 78.1751 110.228 78.5351C110.094 78.8817 110.014 79.3151 109.988 79.8351L109.988 85.2551L111.328 85.6351L111.328 86.4551H106.508L106.508 85.6351L108.048 85.2551L108.048 72.0551L106.508 71.6751L106.508 70.8551H109.988L109.988 77.5351C110.388 76.8951 110.914 76.3884 111.568 76.0151C112.234 75.6417 112.948 75.4551 113.708 75.4551C114.241 75.4551 114.721 75.5484 115.148 75.7351C115.574 75.9217 115.914 76.1884 116.168 76.5351C116.434 76.9084 116.621 77.4351 116.728 78.1151C116.848 78.7817 116.908 79.6884 116.908 80.8351L116.908 85.2551L118.448 85.6351L118.448 86.4551H113.628L113.628 85.6351L114.968 85.2551ZM119.639 84.1151C119.639 83.0751 120.126 82.2551 121.099 81.6551C122.072 81.0551 123.686 80.5884 125.939 80.2551C125.886 79.4684 125.812 78.8551 125.719 78.4151C125.626 77.9751 125.506 77.6217 125.359 77.3551C125.172 77.0084 124.912 76.7551 124.579 76.5951C124.246 76.4217 123.886 76.3351 123.499 76.3351C123.126 76.3351 122.786 76.4017 122.479 76.5351C122.186 76.6684 121.986 76.8484 121.879 77.0751C122.066 77.2084 122.199 77.3817 122.279 77.5951C122.372 77.8084 122.419 78.0084 122.419 78.1951C122.419 78.5284 122.306 78.7951 122.079 78.9951C121.866 79.1817 121.599 79.2751 121.279 79.2751C120.959 79.2751 120.692 79.1684 120.479 78.9551C120.279 78.7417 120.179 78.4417 120.179 78.0551C120.179 77.4951 120.372 77.0217 120.759 76.6351C121.146 76.2484 121.632 75.9551 122.219 75.7551C122.819 75.5551 123.419 75.4551 124.019 75.4551C124.566 75.4551 125.066 75.5417 125.519 75.7151C125.986 75.8751 126.379 76.1151 126.699 76.4351C127.526 77.2617 127.939 78.7284 127.939 80.8351L127.939 83.7351C127.939 84.3884 127.979 84.8417 128.059 85.0951C128.152 85.3484 128.346 85.4751 128.639 85.4751H129.539L129.539 86.0751C128.579 86.4617 127.832 86.6551 127.299 86.6551C126.886 86.6551 126.606 86.5084 126.459 86.2151C126.326 85.9084 126.259 85.3284 126.259 84.4751H126.179C125.766 85.1551 125.219 85.6884 124.539 86.0751C123.859 86.4617 123.126 86.6551 122.339 86.6551C121.499 86.6551 120.839 86.4284 120.359 85.9751C119.879 85.5217 119.639 84.9017 119.639 84.1151ZM123.179 85.4951C123.552 85.4951 123.939 85.4017 124.339 85.2151C124.752 85.0151 125.099 84.7417 125.379 84.3951C125.592 84.1284 125.746 83.8151 125.839 83.4551C125.946 83.0817 125.999 82.6484 125.999 82.1551C125.999 81.9284 125.992 81.7084 125.979 81.4951C125.966 81.2684 125.946 81.0551 125.919 80.8551C124.839 81.0684 123.992 81.3017 123.379 81.5551C122.766 81.7951 122.332 82.0884 122.079 82.4351C121.826 82.7684 121.699 83.1884 121.699 83.6951C121.699 84.2684 121.826 84.7151 122.079 85.0351C122.346 85.3417 122.712 85.4951 123.179 85.4951ZM131.881 85.2551L131.881 76.8551L130.341 76.4751L130.341 75.6551H133.221L133.661 77.6551H133.741C134.141 76.9751 134.681 76.4417 135.361 76.0551C136.041 75.6551 136.768 75.4551 137.541 75.4551C138.648 75.4551 139.468 75.8151 140.001 76.5351C140.268 76.9084 140.454 77.4351 140.561 78.1151C140.681 78.7817 140.741 79.6884 140.741 80.8351L140.741 85.2551L142.281 85.6351L142.281 86.4551L137.461 86.4551L137.461 85.6351L138.801 85.2551L138.801 80.7951C138.801 79.9284 138.774 79.2817 138.721 78.8551C138.681 78.4284 138.601 78.0951 138.481 77.8551C138.321 77.5351 138.088 77.2951 137.781 77.1351C137.488 76.9617 137.134 76.8751 136.721 76.8751C135.948 76.8751 135.281 77.1217 134.721 77.6151C134.174 78.1084 133.874 78.8751 133.821 79.9151L133.821 85.2551L135.161 85.6351L135.161 86.4551H130.341L130.341 85.6351L131.881 85.2551ZM153.447 80.9551C153.447 81.8217 153.313 82.6484 153.047 83.4351C152.793 84.2084 152.433 84.8484 151.967 85.3551C151.567 85.7951 151.073 86.1217 150.487 86.3351C149.9 86.5484 149.233 86.6551 148.487 86.6551C147.753 86.6551 147.1 86.5551 146.527 86.3551C145.953 86.1417 145.467 85.8217 145.067 85.3951C144.613 84.9017 144.26 84.2951 144.007 83.5751C143.767 82.8417 143.647 82.0484 143.647 81.1951C143.647 80.3284 143.773 79.5017 144.027 78.7151C144.28 77.9151 144.647 77.2617 145.127 76.7551C145.553 76.3017 146.047 75.9751 146.607 75.7751C147.18 75.5617 147.833 75.4551 148.567 75.4551C149.3 75.4551 149.96 75.5617 150.547 75.7751C151.133 75.9751 151.627 76.2884 152.027 76.7151C152.493 77.2084 152.847 77.8284 153.087 78.5751C153.327 79.3084 153.447 80.1017 153.447 80.9551ZM145.787 80.9751C145.787 81.7884 145.847 82.4951 145.967 83.0951C146.1 83.6817 146.28 84.1684 146.507 84.5551C146.733 84.8884 147 85.1484 147.307 85.3351C147.627 85.5217 148.04 85.6151 148.547 85.6151C149.467 85.6151 150.153 85.3017 150.607 84.6751C150.847 84.3284 151.02 83.8484 151.127 83.2351C151.247 82.6217 151.307 81.9151 151.307 81.1151C151.307 80.3151 151.24 79.6151 151.107 79.0151C150.987 78.4151 150.813 77.9284 150.587 77.5551C150.373 77.2084 150.1 76.9484 149.767 76.7751C149.447 76.5884 149.033 76.4951 148.527 76.4951C147.593 76.4951 146.92 76.8017 146.507 77.4151C146.027 78.1617 145.787 79.3484 145.787 80.9751ZM156.467 85.2551L156.467 72.0551L154.927 71.6751L154.927 70.8551H158.407L158.407 85.2551L159.947 85.6351L159.947 86.4551H154.927L154.927 85.6351L156.467 85.2551Z" fill="white"/>
<path d="M115.38 614.715L127.22 614.715L127.64 612.835L128.5 612.835L128.5 618.595L127.64 618.595L127.22 616.715L115.38 616.715L114.96 618.595L114.1 618.595L114.1 612.835L114.96 612.835L115.38 614.715ZM127.3 609.715L118.9 609.715L118.52 611.255L117.7 611.255L117.7 608.375L119.7 607.935L119.7 607.855C119.02 607.455 118.487 606.915 118.1 606.235C117.7 605.555 117.5 604.828 117.5 604.055C117.5 602.948 117.86 602.128 118.58 601.595C118.953 601.328 119.48 601.141 120.16 601.035C120.827 600.915 121.733 600.855 122.88 600.855L127.3 600.855L127.68 599.315L128.5 599.315L128.5 604.135L127.68 604.135L127.3 602.795L122.84 602.795C121.973 602.795 121.327 602.821 120.9 602.875C120.473 602.915 120.14 602.995 119.9 603.115C119.58 603.275 119.34 603.508 119.18 603.815C119.007 604.108 118.92 604.461 118.92 604.875C118.92 605.648 119.167 606.315 119.66 606.875C120.153 607.421 120.92 607.721 121.96 607.775L127.3 607.775L127.68 606.435L128.5 606.435L128.5 611.255L127.68 611.255L127.3 609.715ZM118.7 598.689L117.98 598.689L117.7 596.749L115.18 596.489L114.94 594.809L117.7 594.809L117.7 592.249L118.7 592.249L118.7 594.809L125.84 594.809C126.293 594.809 126.607 594.802 126.78 594.789C126.94 594.776 127.073 594.749 127.18 594.709C127.273 594.669 127.34 594.596 127.38 594.489C127.407 594.382 127.42 594.209 127.42 593.969L127.42 592.569L128 592.569C128.24 593.209 128.413 593.776 128.52 594.269C128.64 594.749 128.7 595.136 128.7 595.429C128.7 596.029 128.453 596.416 127.96 596.589C127.8 596.642 127.593 596.682 127.34 596.709C127.087 596.736 126.713 596.749 126.22 596.749L118.7 596.749L118.7 598.689ZM123.22 582.113L123.22 589.093C124.193 589.093 125 588.959 125.64 588.693C126.253 588.426 126.693 588.046 126.96 587.553C127.227 587.059 127.36 586.526 127.36 585.953C127.36 585.326 127.233 584.753 126.98 584.233C126.713 583.713 126.353 583.246 125.9 582.833L126.38 582.193C127.02 582.659 127.567 583.226 128.02 583.893C128.473 584.559 128.7 585.419 128.7 586.473C128.7 587.393 128.507 588.206 128.12 588.913C127.72 589.619 127.14 590.159 126.38 590.533C125.967 590.733 125.507 590.879 125 590.973C124.493 591.066 123.953 591.113 123.38 591.113C121.513 591.113 120.067 590.686 119.04 589.833C118.013 588.966 117.5 587.793 117.5 586.313C117.5 584.953 117.927 583.906 118.78 583.173C119.62 582.426 120.787 582.053 122.28 582.053C122.413 582.053 122.54 582.059 122.66 582.073C122.767 582.073 122.953 582.086 123.22 582.113ZM118.58 586.433C118.58 588.033 119.8 588.913 122.24 589.073L122.24 584.073L121.58 584.073C120.62 584.073 119.88 584.279 119.36 584.693C118.84 585.093 118.58 585.673 118.58 586.433ZM127.3 578.914L118.9 578.914L118.52 580.454L117.7 580.454L117.7 577.574L119.7 577.134L119.7 577.054C119.02 576.654 118.487 576.114 118.1 575.434C117.7 574.754 117.5 574.027 117.5 573.254C117.5 572.147 117.86 571.327 118.58 570.794C118.953 570.527 119.48 570.34 120.16 570.234C120.827 570.114 121.733 570.054 122.88 570.054L127.3 570.054L127.68 568.514L128.5 568.514L128.5 573.334L127.68 573.334L127.3 571.994L122.84 571.994C121.973 571.994 121.327 572.02 120.9 572.074C120.473 572.114 120.14 572.194 119.9 572.314C119.58 572.474 119.34 572.707 119.18 573.014C119.007 573.307 118.92 573.66 118.92 574.074C118.92 574.847 119.167 575.514 119.66 576.074C120.153 576.62 120.92 576.92 121.96 576.974L127.3 576.974L127.68 575.634L128.5 575.634L128.5 580.454L127.68 580.454L127.3 578.914ZM127.78 563.188C127.78 562.442 127.627 561.835 127.32 561.368C127.013 560.888 126.587 560.648 126.04 560.648C125.6 560.648 125.247 560.795 124.98 561.088C124.713 561.382 124.5 561.748 124.34 562.188C124.167 562.615 124.02 563.048 123.9 563.488C123.727 564.035 123.527 564.562 123.3 565.068C123.06 565.575 122.733 565.988 122.32 566.308C121.907 566.628 121.36 566.788 120.68 566.788C119.72 566.788 118.953 566.442 118.38 565.748C117.793 565.042 117.5 564.062 117.5 562.808C117.5 561.742 117.727 560.902 118.18 560.288C118.62 559.662 119.227 559.348 120 559.348C120.413 559.348 120.747 559.442 121 559.628C121.24 559.815 121.36 560.082 121.36 560.428C121.36 560.735 121.267 560.988 121.08 561.188C120.893 561.388 120.653 561.488 120.36 561.488C120.107 561.488 119.88 561.422 119.68 561.288C119.467 561.155 119.313 560.982 119.22 560.768C118.94 560.968 118.74 561.228 118.62 561.548C118.487 561.855 118.42 562.255 118.42 562.748C118.42 563.548 118.567 564.148 118.86 564.548C119.14 564.948 119.56 565.148 120.12 565.148C120.52 565.148 120.84 565.055 121.08 564.868C121.307 564.668 121.5 564.382 121.66 564.008C121.82 563.635 121.987 563.175 122.16 562.628C122.293 562.175 122.447 561.728 122.62 561.288C122.78 560.848 122.98 560.448 123.22 560.088C123.46 559.728 123.76 559.442 124.12 559.228C124.48 559.015 124.927 558.908 125.46 558.908C126.14 558.908 126.727 559.095 127.22 559.468C127.7 559.842 128.067 560.355 128.32 561.008C128.573 561.662 128.7 562.415 128.7 563.268C128.7 564.442 128.46 565.388 127.98 566.108C127.5 566.828 126.853 567.188 126.04 567.188C125.613 567.188 125.28 567.095 125.04 566.908C124.787 566.708 124.66 566.428 124.66 566.068C124.66 565.748 124.753 565.482 124.94 565.268C125.127 565.042 125.373 564.928 125.68 564.928C125.933 564.928 126.173 565.002 126.4 565.148C126.627 565.282 126.793 565.448 126.9 565.648C127.153 565.475 127.367 565.168 127.54 564.728C127.7 564.275 127.78 563.762 127.78 563.188ZM118.9 555.75L118.52 557.29L117.7 557.29L117.7 553.81L127.3 553.81L127.68 552.27L128.5 552.27L128.5 557.29L127.68 557.29L127.3 555.75L118.9 555.75ZM114.48 556.03C114.093 556.03 113.787 555.916 113.56 555.69C113.333 555.463 113.22 555.163 113.22 554.79C113.22 554.403 113.333 554.096 113.56 553.87C113.787 553.643 114.093 553.53 114.48 553.53C114.853 553.53 115.153 553.643 115.38 553.87C115.607 554.096 115.72 554.403 115.72 554.79C115.72 555.176 115.613 555.483 115.4 555.71C115.173 555.923 114.867 556.03 114.48 556.03ZM118.7 551.599L117.98 551.599L117.7 549.659L115.18 549.399L114.94 547.719L117.7 547.719L117.7 545.159L118.7 545.159L118.7 547.719L125.84 547.719C126.293 547.719 126.607 547.713 126.78 547.699C126.94 547.686 127.073 547.659 127.18 547.619C127.273 547.579 127.34 547.506 127.38 547.399C127.407 547.293 127.42 547.119 127.42 546.879L127.42 545.479L128 545.479C128.24 546.119 128.413 546.686 128.52 547.179C128.64 547.659 128.7 548.046 128.7 548.339C128.7 548.939 128.453 549.326 127.96 549.499C127.8 549.553 127.593 549.593 127.34 549.619C127.087 549.646 126.713 549.659 126.22 549.659L118.7 549.659L118.7 551.599ZM118.9 534.683L128.02 538.003C129.047 538.376 129.873 538.716 130.5 539.023C131.14 539.33 131.6 539.67 131.88 540.043C132.16 540.416 132.3 540.896 132.3 541.483C132.3 542.11 132.133 542.65 131.8 543.103C131.467 543.543 131.047 543.763 130.54 543.763C130.167 543.763 129.853 543.656 129.6 543.443C129.36 543.23 129.24 542.95 129.24 542.603C129.24 542.296 129.32 542.056 129.48 541.883C129.653 541.696 129.887 541.603 130.18 541.603C130.367 541.603 130.547 541.643 130.72 541.723C130.893 541.79 131.047 541.883 131.18 542.003C131.313 541.976 131.4 541.896 131.44 541.763C131.493 541.63 131.52 541.516 131.52 541.423C131.52 541.236 131.473 541.063 131.38 540.903C131.287 540.743 131.087 540.576 130.78 540.403C130.487 540.216 130.02 540.016 129.38 539.803L128.64 539.563L118.9 543.703L118.52 544.903L117.7 544.903L117.7 540.423L118.52 540.263L118.9 541.683L126.74 538.703L126.74 538.623L118.9 536.103L118.52 537.263L117.7 537.263L117.7 533.463L118.52 533.463L118.9 534.683Z" fill="#C3FA50"/>
<path d="M422.233 311.943C422.233 313.464 421.997 314.897 421.525 316.242C421.071 317.57 420.433 318.68 419.612 319.571C418.896 320.34 418.031 320.916 417.017 321.301C416.021 321.668 414.868 321.851 413.557 321.851C412.229 321.851 411.059 321.668 410.045 321.301C409.032 320.934 408.184 320.383 407.503 319.649C406.699 318.811 406.078 317.762 405.642 316.504C405.205 315.229 404.986 313.848 404.986 312.363C404.986 310.843 405.213 309.418 405.668 308.09C406.14 306.745 406.786 305.627 407.607 304.735C408.341 303.949 409.189 303.372 410.15 303.006C411.128 302.639 412.282 302.455 413.61 302.455C414.938 302.455 416.1 302.639 417.096 303.006C418.109 303.355 418.974 303.905 419.691 304.657C420.512 305.496 421.141 306.553 421.578 307.828C422.015 309.104 422.233 310.476 422.233 311.943ZM408.001 311.839C408.001 313.289 408.123 314.582 408.368 315.718C408.612 316.836 408.962 317.754 409.416 318.47C409.87 319.117 410.438 319.606 411.12 319.938C411.819 320.252 412.675 320.41 413.688 320.41C415.541 320.41 416.904 319.833 417.777 318.68C418.249 318.033 418.607 317.177 418.852 316.111C419.097 315.028 419.219 313.761 419.219 312.31C419.219 310.86 419.097 309.584 418.852 308.484C418.607 307.383 418.249 306.492 417.777 305.81C417.323 305.146 416.738 304.657 416.021 304.342C415.322 304.028 414.492 303.87 413.531 303.87C412.605 303.87 411.801 304.019 411.12 304.316C410.456 304.596 409.897 305.024 409.442 305.6C408.481 306.876 408.001 308.955 408.001 311.839Z" fill="white"/>
<path d="M422.233 311.943C422.233 313.464 421.997 314.897 421.525 316.242C421.071 317.57 420.433 318.68 419.612 319.571C418.896 320.34 418.031 320.916 417.017 321.301C416.021 321.668 414.868 321.851 413.557 321.851C412.229 321.851 411.059 321.668 410.045 321.301C409.032 320.934 408.184 320.383 407.503 319.649C406.699 318.811 406.078 317.762 405.642 316.504C405.205 315.229 404.986 313.848 404.986 312.363C404.986 310.843 405.213 309.418 405.668 308.09C406.14 306.745 406.786 305.627 407.607 304.735C408.341 303.949 409.189 303.372 410.15 303.006C411.128 302.639 412.282 302.455 413.61 302.455C414.938 302.455 416.1 302.639 417.096 303.006C418.109 303.355 418.974 303.905 419.691 304.657C420.512 305.496 421.141 306.553 421.578 307.828C422.015 309.104 422.233 310.476 422.233 311.943ZM408.001 311.839C408.001 313.289 408.123 314.582 408.368 315.718C408.612 316.836 408.962 317.754 409.416 318.47C409.87 319.117 410.438 319.606 411.12 319.938C411.819 320.252 412.675 320.41 413.688 320.41C415.541 320.41 416.904 319.833 417.777 318.68C418.249 318.033 418.607 317.177 418.852 316.111C419.097 315.028 419.219 313.761 419.219 312.31C419.219 310.86 419.097 309.584 418.852 308.484C418.607 307.383 418.249 306.492 417.777 305.81C417.323 305.146 416.738 304.657 416.021 304.342C415.322 304.028 414.492 303.87 413.531 303.87C412.605 303.87 411.801 304.019 411.12 304.316C410.456 304.596 409.897 305.024 409.442 305.6C408.481 306.876 408.001 308.955 408.001 311.839Z" stroke="black"/>
<path d="M505.15 305.133V320.649L507.351 321.2V322.327H500.327V321.2L502.529 320.649V313.389H493.643V320.649L495.845 321.2V322.327H488.82V321.2L491.022 320.649V305.133L488.82 304.582V303.455H495.845V304.582L493.643 305.133V311.869H502.529V305.133L500.327 304.582V303.455H507.351V304.582L505.15 305.133Z" fill="white"/>
<path d="M505.15 305.133V320.649L507.351 321.2V322.327H500.327V321.2L502.529 320.649V313.389H493.643V320.649L495.845 321.2V322.327H488.82V321.2L491.022 320.649V305.133L488.82 304.582V303.455H495.845V304.582L493.643 305.133V311.869H502.529V305.133L500.327 304.582V303.455H507.351V304.582L505.15 305.133Z" stroke="black"/>
<path d="M249.051 303.915C248.173 303.915 247.42 304.05 246.792 304.32C246.183 304.59 245.663 305.014 245.233 305.59C244.695 306.293 244.274 307.221 243.969 308.374C243.664 309.509 243.512 310.761 243.512 312.131C243.512 313.41 243.646 314.608 243.915 315.725C244.184 316.842 244.561 317.779 245.045 318.536C245.529 319.293 246.111 319.851 246.792 320.212C247.492 320.554 248.361 320.725 249.401 320.725C252.628 320.725 254.501 319.203 255.021 316.158H256.5C255.693 320.356 253.237 322.455 249.132 322.455C246.658 322.455 244.686 321.734 243.216 320.293C242.338 319.428 241.665 318.338 241.199 317.023C240.733 315.707 240.5 314.248 240.5 312.644C240.5 310.824 240.796 309.176 241.387 307.698C241.979 306.221 242.813 305.041 243.888 304.158C245.251 303.023 247.052 302.455 249.293 302.455C250.405 302.455 251.31 302.599 252.009 302.888C252.708 303.176 253.399 303.689 254.08 304.428L254.618 302.725H256.097V308.698H254.456C254.205 307.113 253.623 305.924 252.708 305.131C251.812 304.32 250.593 303.915 249.051 303.915Z" fill="white"/>
<path d="M249.051 303.915C248.173 303.915 247.42 304.05 246.792 304.32C246.183 304.59 245.663 305.014 245.233 305.59C244.695 306.293 244.274 307.221 243.969 308.374C243.664 309.509 243.512 310.761 243.512 312.131C243.512 313.41 243.646 314.608 243.915 315.725C244.184 316.842 244.561 317.779 245.045 318.536C245.529 319.293 246.111 319.851 246.792 320.212C247.492 320.554 248.361 320.725 249.401 320.725C252.628 320.725 254.501 319.203 255.021 316.158H256.5C255.693 320.356 253.237 322.455 249.132 322.455C246.658 322.455 244.686 321.734 243.216 320.293C242.338 319.428 241.665 318.338 241.199 317.023C240.733 315.707 240.5 314.248 240.5 312.644C240.5 310.824 240.796 309.176 241.387 307.698C241.979 306.221 242.813 305.041 243.888 304.158C245.251 303.023 247.052 302.455 249.293 302.455C250.405 302.455 251.31 302.599 252.009 302.888C252.708 303.176 253.399 303.689 254.08 304.428L254.618 302.725H256.097V308.698H254.456C254.205 307.113 253.623 305.924 252.708 305.131C251.812 304.32 250.593 303.915 249.051 303.915Z" stroke="black"/>
<path d="M331.051 303.915C330.173 303.915 329.42 304.05 328.792 304.32C328.183 304.59 327.663 305.014 327.233 305.59C326.695 306.293 326.274 307.221 325.969 308.374C325.664 309.509 325.512 310.761 325.512 312.131C325.512 313.41 325.646 314.608 325.915 315.725C326.184 316.842 326.561 317.779 327.045 318.536C327.529 319.293 328.111 319.851 328.792 320.212C329.492 320.554 330.361 320.725 331.401 320.725C334.628 320.725 336.501 319.203 337.021 316.158H338.5C337.693 320.356 335.237 322.455 331.132 322.455C328.658 322.455 326.686 321.734 325.216 320.293C324.338 319.428 323.665 318.338 323.199 317.023C322.733 315.707 322.5 314.248 322.5 312.644C322.5 310.824 322.796 309.176 323.387 307.698C323.979 306.221 324.813 305.041 325.888 304.158C327.251 303.023 329.052 302.455 331.293 302.455C332.405 302.455 333.31 302.599 334.009 302.888C334.708 303.176 335.399 303.689 336.08 304.428L336.618 302.725H338.097V308.698H336.456C336.205 307.113 335.623 305.924 334.708 305.131C333.812 304.32 332.593 303.915 331.051 303.915Z" fill="white"/>
<path d="M331.051 303.915C330.173 303.915 329.42 304.05 328.792 304.32C328.183 304.59 327.663 305.014 327.233 305.59C326.695 306.293 326.274 307.221 325.969 308.374C325.664 309.509 325.512 310.761 325.512 312.131C325.512 313.41 325.646 314.608 325.915 315.725C326.184 316.842 326.561 317.779 327.045 318.536C327.529 319.293 328.111 319.851 328.792 320.212C329.492 320.554 330.361 320.725 331.401 320.725C334.628 320.725 336.501 319.203 337.021 316.158H338.5C337.693 320.356 335.237 322.455 331.132 322.455C328.658 322.455 326.686 321.734 325.216 320.293C324.338 319.428 323.665 318.338 323.199 317.023C322.733 315.707 322.5 314.248 322.5 312.644C322.5 310.824 322.796 309.176 323.387 307.698C323.979 306.221 324.813 305.041 325.888 304.158C327.251 303.023 329.052 302.455 331.293 302.455C332.405 302.455 333.31 302.599 334.009 302.888C334.708 303.176 335.399 303.689 336.08 304.428L336.618 302.725H338.097V308.698H336.456C336.205 307.113 335.623 305.924 334.708 305.131C333.812 304.32 332.593 303.915 331.051 303.915Z" stroke="black"/>
<path d="M171.829 305.133V320.649L174.031 321.2V322.327H167.007V321.2L169.208 320.649V313.389H160.323V320.649L162.525 321.2V322.327H155.5V321.2L157.702 320.649V305.133L155.5 304.582V303.455H162.525V304.582L160.323 305.133V311.869H169.208V305.133L167.007 304.582V303.455H174.031V304.582L171.829 305.133Z" fill="white"/>
<path d="M171.829 305.133V320.649L174.031 321.2V322.327H167.007V321.2L169.208 320.649V313.389H160.323V320.649L162.525 321.2V322.327H155.5V321.2L157.702 320.649V305.133L155.5 304.582V303.455H162.525V304.582L160.323 305.133V311.869H169.208V305.133L167.007 304.582V303.455H174.031V304.582L171.829 305.133Z" stroke="black"/>
<path d="M254.829 218.133V225.891V233.649L257.031 234.2V235.327H250.007V234.2L252.208 233.649V226.389H243.323V233.649L245.525 234.2V235.327H238.5V234.2L240.702 233.649V218.133L238.5 217.582V216.455H245.525V217.582L243.323 218.133V224.869H252.208V218.133L250.007 217.582V216.455H257.031V217.582L254.829 218.133Z" fill="white"/>
<path d="M254.829 218.133V225.891V233.649L257.031 234.2V235.327H250.007V234.2L252.208 233.649V226.389H243.323V233.649L245.525 234.2V235.327H238.5V234.2L240.702 233.649V218.133L238.5 217.582V216.455H245.525V217.582L243.323 218.133V224.869H252.208V218.133L250.007 217.582V216.455H257.031V217.582L254.829 218.133Z" stroke="black"/>
<path d="M253.829 391.133V398.891V406.649L256.031 407.2V408.327H249.007V407.2L251.208 406.649V399.389H242.323V406.649L244.525 407.2V408.327H237.5V407.2L239.702 406.649V391.133L237.5 390.582V389.455H244.525V390.582L242.323 391.133V397.869H251.208V391.133L249.007 390.582V389.455H256.031V390.582L253.829 391.133Z" fill="white"/>
<path d="M253.829 391.133V398.891V406.649L256.031 407.2V408.327H249.007V407.2L251.208 406.649V399.389H242.323V406.649L244.525 407.2V408.327H237.5V407.2L239.702 406.649V391.133L237.5 390.582V389.455H244.525V390.582L242.323 391.133V397.869H251.208V391.133L249.007 390.582V389.455H256.031V390.582L253.829 391.133Z" stroke="black"/>
<path d="M335.829 391.133V398.891V406.649L338.031 407.2V408.327H331.007V407.2L333.208 406.649V399.389H324.323V406.649L326.525 407.2V408.327H319.5V407.2L321.702 406.649V391.133L319.5 390.582V389.455H326.525V390.582L324.323 391.133V397.869H333.208V391.133L331.007 390.582V389.455H338.031V390.582L335.829 391.133Z" fill="white"/>
<path d="M335.829 391.133V398.891V406.649L338.031 407.2V408.327H331.007V407.2L333.208 406.649V399.389H324.323V406.649L326.525 407.2V408.327H319.5V407.2L321.702 406.649V391.133L319.5 390.582V389.455H326.525V390.582L324.323 391.133V397.869H333.208V391.133L331.007 390.582V389.455H338.031V390.582L335.829 391.133Z" stroke="black"/>
<path d="M336.829 218.133V225.891V233.649L339.031 234.2V235.327H332.007V234.2L334.208 233.649V226.389H325.323V233.649L327.525 234.2V235.327H320.5V234.2L322.702 233.649V218.133L320.5 217.582V216.455H327.525V217.582L325.323 218.133V224.869H334.208V218.133L332.007 217.582V216.455H339.031V217.582L336.829 218.133Z" fill="white"/>
<path d="M336.829 218.133V225.891V233.649L339.031 234.2V235.327H332.007V234.2L334.208 233.649V226.389H325.323V233.649L327.525 234.2V235.327H320.5V234.2L322.702 233.649V218.133L320.5 217.582V216.455H327.525V217.582L325.323 218.133V224.869H334.208V218.133L332.007 217.582V216.455H339.031V217.582L336.829 218.133Z" stroke="black"/>
<line x1="248" y1="365.042" x2="248" y2="346.455" stroke="white" stroke-width="3"/>
<line x1="330" y1="365.042" x2="330" y2="346.455" stroke="white" stroke-width="3"/>
<line x1="248" y1="259.455" x2="248" y2="278.455" stroke="white" stroke-width="3"/>
<line x1="330" y1="259.455" x2="330" y2="278.455" stroke="white" stroke-width="3"/>
<line x1="198.031" y1="310.955" x2="216.618" y2="310.955" stroke="white" stroke-width="3"/>
<line x1="280.215" y1="310.955" x2="298.802" y2="310.955" stroke="white" stroke-width="3"/>
<line x1="362.398" y1="310.955" x2="380.985" y2="310.955" stroke="white" stroke-width="3"/>
<line x1="446.232" y1="310.955" x2="464.819" y2="310.955" stroke="white" stroke-width="3"/>
<path d="M574.741 828.745C574.741 830.131 574.881 831.411 575.161 832.585C575.441 833.758 575.835 834.798 576.341 835.705C576.848 836.598 577.448 837.325 578.141 837.885C578.835 838.445 579.601 838.811 580.441 838.985L580.961 837.885C580.121 837.711 579.381 837.225 578.741 836.425C578.115 835.625 577.628 834.571 577.281 833.265C576.935 831.958 576.761 830.465 576.761 828.785C576.761 827.118 576.941 825.625 577.301 824.305C577.661 822.971 578.161 821.885 578.801 821.045C579.455 820.205 580.208 819.685 581.061 819.485L580.641 818.505C579.761 818.718 578.955 819.125 578.221 819.725C577.501 820.325 576.881 821.078 576.361 821.985C575.841 822.891 575.441 823.918 575.161 825.065C574.881 826.198 574.741 827.425 574.741 828.745ZM585.263 838.205L587.203 838.585V839.405H581.783V838.585L583.323 838.205V826.205L581.783 825.825V825.005H584.663L584.963 826.545C585.39 825.878 585.87 825.425 586.403 825.185C586.95 824.931 587.563 824.805 588.243 824.805C588.923 824.805 589.537 824.905 590.083 825.105C590.643 825.305 591.097 825.625 591.443 826.065C591.843 826.571 592.157 827.185 592.383 827.905C592.623 828.611 592.743 829.378 592.743 830.205C592.743 831.058 592.61 831.865 592.343 832.625C592.09 833.371 591.743 833.998 591.303 834.505C590.557 835.371 589.483 835.805 588.083 835.805C587.51 835.805 586.99 835.698 586.523 835.485C586.07 835.258 585.65 834.871 585.263 834.325V838.205ZM585.243 830.225C585.243 831.011 585.303 831.698 585.423 832.285C585.543 832.871 585.717 833.345 585.943 833.705C586.157 834.038 586.417 834.298 586.723 834.485C587.043 834.671 587.45 834.765 587.943 834.765C588.397 834.765 588.79 834.685 589.123 834.525C589.47 834.351 589.75 834.118 589.963 833.825C590.203 833.491 590.377 833.025 590.483 832.425C590.59 831.825 590.643 831.138 590.643 830.365C590.643 829.578 590.583 828.898 590.463 828.325C590.343 827.751 590.17 827.278 589.943 826.905C589.73 826.558 589.463 826.298 589.143 826.125C588.837 825.938 588.43 825.845 587.923 825.845C587.47 825.845 587.07 825.925 586.723 826.085C586.39 826.231 586.13 826.458 585.943 826.765C585.73 827.125 585.557 827.598 585.423 828.185C585.303 828.758 585.243 829.438 585.243 830.225ZM597.646 838.205L599.586 838.585V839.405H594.166V838.585L595.706 838.205V826.205L594.166 825.825V825.005H597.046L597.346 826.545C597.773 825.878 598.253 825.425 598.786 825.185C599.333 824.931 599.946 824.805 600.626 824.805C601.306 824.805 601.919 824.905 602.466 825.105C603.026 825.305 603.479 825.625 603.826 826.065C604.226 826.571 604.539 827.185 604.766 827.905C605.006 828.611 605.126 829.378 605.126 830.205C605.126 831.058 604.993 831.865 604.726 832.625C604.473 833.371 604.126 833.998 603.686 834.505C602.939 835.371 601.866 835.805 600.466 835.805C599.893 835.805 599.373 835.698 598.906 835.485C598.453 835.258 598.033 834.871 597.646 834.325V838.205ZM597.626 830.225C597.626 831.011 597.686 831.698 597.806 832.285C597.926 832.871 598.099 833.345 598.326 833.705C598.539 834.038 598.799 834.298 599.106 834.485C599.426 834.671 599.833 834.765 600.326 834.765C600.779 834.765 601.173 834.685 601.506 834.525C601.853 834.351 602.133 834.118 602.346 833.825C602.586 833.491 602.759 833.025 602.866 832.425C602.973 831.825 603.026 831.138 603.026 830.365C603.026 829.578 602.966 828.898 602.846 828.325C602.726 827.751 602.553 827.278 602.326 826.905C602.113 826.558 601.846 826.298 601.526 826.125C601.219 825.938 600.813 825.845 600.306 825.845C599.853 825.845 599.453 825.925 599.106 826.085C598.773 826.231 598.513 826.458 598.326 826.765C598.113 827.125 597.939 827.598 597.806 828.185C597.686 828.758 597.626 829.438 597.626 830.225ZM608.309 834.605V826.205L606.769 825.825V825.005H609.649L610.089 827.005H610.169C610.555 826.338 611.069 825.805 611.709 825.405C612.362 825.005 613.055 824.805 613.789 824.805C614.335 824.805 614.822 824.911 615.249 825.125C615.675 825.325 615.989 825.578 616.189 825.885C616.402 826.218 616.575 826.658 616.709 827.205C617.135 826.458 617.689 825.871 618.369 825.445C619.049 825.018 619.775 824.805 620.549 824.805C621.082 824.805 621.562 824.911 621.989 825.125C622.415 825.325 622.742 825.605 622.969 825.965C623.129 826.218 623.255 826.545 623.349 826.945C623.442 827.345 623.509 827.865 623.549 828.505C623.589 829.131 623.609 829.931 623.609 830.905V834.605L625.149 834.985V835.805H620.329V834.985L621.669 834.605V830.145C621.669 829.278 621.642 828.631 621.589 828.205C621.549 827.778 621.469 827.445 621.349 827.205C621.189 826.885 620.962 826.645 620.669 826.485C620.389 826.311 620.055 826.225 619.669 826.225C619.335 826.225 619.009 826.291 618.689 826.425C618.369 826.558 618.082 826.738 617.829 826.965C617.535 827.231 617.315 827.545 617.169 827.905C617.035 828.265 616.955 828.718 616.929 829.265V834.605L618.269 834.985V835.805H613.649V834.985L614.989 834.605V830.145C614.989 829.278 614.962 828.631 614.909 828.205C614.869 827.778 614.789 827.445 614.669 827.205C614.509 826.885 614.282 826.645 613.989 826.485C613.709 826.311 613.375 826.225 612.989 826.225C612.655 826.225 612.329 826.291 612.009 826.425C611.689 826.558 611.402 826.738 611.149 826.965C610.855 827.231 610.635 827.545 610.489 827.905C610.355 828.265 610.275 828.718 610.249 829.265V834.605L611.589 834.985V835.805H606.769V834.985L608.309 834.605ZM631.495 828.745C631.495 827.425 631.355 826.198 631.075 825.065C630.795 823.918 630.395 822.891 629.875 821.985C629.355 821.078 628.728 820.325 627.995 819.725C627.275 819.125 626.475 818.718 625.595 818.505L625.175 819.485C626.042 819.685 626.795 820.205 627.435 821.045C628.075 821.885 628.575 822.971 628.935 824.305C629.295 825.625 629.475 827.118 629.475 828.785C629.475 830.465 629.295 831.958 628.935 833.265C628.588 834.571 628.102 835.625 627.475 836.425C626.848 837.225 626.115 837.711 625.275 837.885L625.795 838.985C626.635 838.811 627.402 838.445 628.095 837.885C628.788 837.325 629.388 836.598 629.895 835.705C630.402 834.798 630.795 833.758 631.075 832.585C631.355 831.411 631.495 830.131 631.495 828.745Z" fill="white"/>
<path d="M547.342 824.595C547.342 823.757 547.671 823.085 548.329 822.578C548.987 822.067 549.899 821.811 551.063 821.811C551.575 821.811 552.032 821.854 552.434 821.939C552.841 822.024 553.265 822.152 553.705 822.323V823.999C553.421 823.885 553.035 823.762 552.548 823.63C552.06 823.497 551.575 823.431 551.092 823.431C550.524 823.431 550.088 823.54 549.785 823.757C549.482 823.97 549.33 824.245 549.33 824.581C549.33 824.752 549.385 824.936 549.494 825.135C549.607 825.334 549.818 825.54 550.126 825.753C550.438 825.966 550.893 826.182 551.49 826.399C552.924 826.911 553.968 827.621 554.622 828.53C555.28 829.439 555.609 830.547 555.609 831.854V832.053C555.609 833.028 555.419 833.907 555.041 834.688C554.667 835.469 554.127 836.087 553.421 836.541C552.721 836.996 551.878 837.223 550.893 837.223C549.889 837.223 549.032 836.996 548.322 836.541C547.616 836.087 547.077 835.469 546.703 834.688C546.333 833.907 546.149 833.028 546.149 832.053V831.854C546.149 831.096 546.293 830.403 546.582 829.773C546.871 829.143 547.257 828.615 547.74 828.189C548.222 827.763 548.753 827.479 549.33 827.337V827.28C548.72 827.039 548.234 826.688 547.874 826.229C547.519 825.77 547.342 825.225 547.342 824.595ZM548.109 831.854V832.053C548.109 832.706 548.206 833.308 548.4 833.857C548.599 834.401 548.902 834.839 549.309 835.171C549.721 835.497 550.249 835.661 550.893 835.661C551.527 835.661 552.048 835.497 552.455 835.171C552.863 834.839 553.163 834.401 553.357 833.857C553.552 833.308 553.649 832.706 553.649 832.053V831.854C553.649 831.324 553.535 830.8 553.308 830.284C553.08 829.764 552.761 829.314 552.349 828.935C551.937 828.551 551.452 828.303 550.893 828.189C550.249 828.189 549.721 828.36 549.309 828.701C548.902 829.037 548.599 829.484 548.4 830.043C548.206 830.597 548.109 831.201 548.109 831.854Z" fill="white"/>
<path d="M148.068 668.412H151.788C152.652 668.412 153.388 668.284 153.996 668.028C154.62 667.772 155.132 667.372 155.532 666.828C155.98 666.268 156.308 665.532 156.516 664.62C156.74 663.708 156.852 662.62 156.852 661.356C156.852 658.86 156.412 657.004 155.532 655.788C155.116 655.18 154.58 654.732 153.924 654.444C153.268 654.156 152.476 654.012 151.548 654.012H148.068L148.068 668.412ZM143.652 652.572H151.716C154.1 652.572 155.956 653.244 157.284 654.588C158.036 655.356 158.612 656.3 159.012 657.42C159.412 658.54 159.612 659.74 159.612 661.02C159.612 662.364 159.396 663.628 158.964 664.812C158.548 665.98 157.964 666.964 157.212 667.764C155.884 669.156 153.98 669.852 151.5 669.852H143.652L143.652 668.82L145.668 668.316L145.668 654.108L143.652 653.604L143.652 652.572ZM172.803 663.516H164.427C164.427 664.684 164.587 665.652 164.907 666.42C165.227 667.156 165.683 667.684 166.275 668.004C166.867 668.324 167.507 668.484 168.195 668.484C168.947 668.484 169.635 668.332 170.259 668.028C170.883 667.708 171.443 667.276 171.939 666.732L172.707 667.308C172.147 668.076 171.467 668.732 170.667 669.276C169.867 669.82 168.835 670.092 167.571 670.092C166.467 670.092 165.491 669.86 164.643 669.396C163.795 668.916 163.147 668.22 162.699 667.308C162.459 666.812 162.283 666.26 162.171 665.652C162.059 665.044 162.003 664.396 162.003 663.708C162.003 661.468 162.515 659.732 163.539 658.5C164.579 657.268 165.987 656.652 167.763 656.652C169.395 656.652 170.651 657.164 171.531 658.188C172.427 659.196 172.875 660.596 172.875 662.388C172.875 662.548 172.867 662.7 172.851 662.844C172.851 662.972 172.835 663.196 172.803 663.516ZM167.619 657.948C165.699 657.948 164.643 659.412 164.451 662.34H170.451L170.451 661.548C170.451 660.396 170.203 659.508 169.707 658.884C169.227 658.26 168.531 657.948 167.619 657.948ZM179.786 668.988C180.682 668.988 181.41 668.804 181.97 668.436C182.546 668.068 182.834 667.556 182.834 666.9C182.834 666.372 182.658 665.948 182.306 665.628C181.954 665.308 181.514 665.052 180.986 664.86C180.474 664.652 179.954 664.476 179.426 664.332C178.77 664.124 178.138 663.884 177.53 663.612C176.922 663.324 176.426 662.932 176.042 662.436C175.658 661.94 175.466 661.284 175.466 660.468C175.466 659.316 175.882 658.396 176.714 657.708C177.562 657.004 178.738 656.652 180.242 656.652C181.522 656.652 182.53 656.924 183.266 657.468C184.018 657.996 184.394 658.724 184.394 659.652C184.394 660.148 184.282 660.548 184.058 660.852C183.834 661.14 183.514 661.284 183.098 661.284C182.73 661.284 182.426 661.172 182.186 660.948C181.946 660.724 181.826 660.436 181.826 660.084C181.826 659.78 181.906 659.508 182.066 659.268C182.226 659.012 182.434 658.828 182.69 658.716C182.45 658.38 182.138 658.14 181.754 657.996C181.386 657.836 180.906 657.756 180.314 657.756C179.354 657.756 178.634 657.932 178.154 658.284C177.674 658.62 177.434 659.124 177.434 659.796C177.434 660.276 177.546 660.66 177.77 660.948C178.01 661.22 178.354 661.452 178.802 661.644C179.25 661.836 179.802 662.036 180.458 662.244C181.002 662.404 181.538 662.588 182.066 662.796C182.594 662.988 183.074 663.228 183.506 663.516C183.938 663.804 184.282 664.164 184.538 664.596C184.794 665.028 184.922 665.564 184.922 666.204C184.922 667.02 184.698 667.724 184.25 668.316C183.802 668.892 183.186 669.332 182.402 669.636C181.618 669.94 180.714 670.092 179.69 670.092C178.282 670.092 177.146 669.804 176.282 669.228C175.418 668.652 174.986 667.876 174.986 666.9C174.986 666.388 175.098 665.988 175.322 665.7C175.562 665.396 175.898 665.244 176.33 665.244C176.714 665.244 177.034 665.356 177.29 665.58C177.562 665.804 177.698 666.1 177.698 666.468C177.698 666.772 177.61 667.06 177.434 667.332C177.274 667.604 177.074 667.804 176.834 667.932C177.042 668.236 177.41 668.492 177.938 668.7C178.482 668.892 179.098 668.988 179.786 668.988ZM196.752 668.412L196.752 663.06C196.752 662.02 196.72 661.244 196.656 660.732C196.608 660.22 196.512 659.82 196.368 659.532C195.984 658.748 195.28 658.356 194.256 658.356C193.808 658.356 193.376 658.436 192.96 658.596C192.544 658.756 192.176 658.972 191.856 659.244C191.504 659.548 191.24 659.916 191.064 660.348C190.904 660.764 190.808 661.284 190.776 661.908L190.776 668.412L192.384 668.868L192.384 669.852H186.6L186.6 668.868L188.448 668.412L188.448 652.572L186.6 652.116L186.6 651.132H190.776L190.776 659.148C191.256 658.38 191.888 657.772 192.672 657.324C193.472 656.876 194.328 656.652 195.24 656.652C195.88 656.652 196.456 656.764 196.968 656.988C197.48 657.212 197.888 657.532 198.192 657.948C198.512 658.396 198.736 659.028 198.864 659.844C199.008 660.644 199.08 661.732 199.08 663.108L199.08 668.412L200.928 668.868L200.928 669.852H195.144L195.144 668.868L196.752 668.412ZM204.157 658.332L202.309 657.876L202.309 656.892H206.485L206.485 668.412L208.333 668.868L208.333 669.852H202.309L202.309 668.868L204.157 668.412L204.157 658.332ZM203.821 653.028C203.821 652.564 203.957 652.196 204.229 651.924C204.501 651.652 204.861 651.516 205.309 651.516C205.773 651.516 206.141 651.652 206.413 651.924C206.685 652.196 206.821 652.564 206.821 653.028C206.821 653.476 206.685 653.836 206.413 654.108C206.141 654.38 205.773 654.516 205.309 654.516C204.845 654.516 204.477 654.388 204.205 654.132C203.949 653.86 203.821 653.492 203.821 653.028ZM220.85 663.516H212.474C212.474 664.684 212.634 665.652 212.954 666.42C213.274 667.156 213.73 667.684 214.322 668.004C214.914 668.324 215.554 668.484 216.242 668.484C216.994 668.484 217.682 668.332 218.306 668.028C218.93 667.708 219.49 667.276 219.986 666.732L220.754 667.308C220.194 668.076 219.514 668.732 218.714 669.276C217.914 669.82 216.882 670.092 215.618 670.092C214.514 670.092 213.538 669.86 212.69 669.396C211.842 668.916 211.194 668.22 210.746 667.308C210.506 666.812 210.33 666.26 210.218 665.652C210.106 665.044 210.05 664.396 210.05 663.708C210.05 661.468 210.562 659.732 211.586 658.5C212.626 657.268 214.034 656.652 215.81 656.652C217.442 656.652 218.698 657.164 219.578 658.188C220.474 659.196 220.922 660.596 220.922 662.388C220.922 662.548 220.914 662.7 220.898 662.844C220.898 662.972 220.882 663.196 220.85 663.516ZM215.666 657.948C213.746 657.948 212.69 659.412 212.498 662.34H218.498L218.498 661.548C218.498 660.396 218.25 659.508 217.754 658.884C217.274 658.26 216.578 657.948 215.666 657.948ZM224.497 668.412L224.497 652.572L222.649 652.116L222.649 651.132H226.825L226.825 668.412L228.673 668.868L228.673 669.852H222.649L222.649 668.868L224.497 668.412ZM230.463 663.492C230.463 662.452 230.599 661.46 230.871 660.516C231.143 659.572 231.551 658.804 232.095 658.212C232.559 657.7 233.111 657.316 233.751 657.06C234.391 656.788 235.127 656.652 235.959 656.652C236.663 656.652 237.303 656.788 237.879 657.06C238.471 657.332 238.999 657.82 239.463 658.524L239.463 652.572L237.615 652.116L237.615 651.132H241.791L241.791 668.412L243.639 668.868L243.639 669.852L239.919 670.092L239.727 668.124C239.231 668.86 238.671 669.372 238.047 669.66C237.423 669.948 236.727 670.092 235.959 670.092C235.143 670.092 234.407 669.972 233.751 669.732C233.095 669.492 232.551 669.108 232.119 668.58C231.607 667.956 231.199 667.212 230.895 666.348C230.607 665.468 230.463 664.516 230.463 663.492ZM239.463 663.468C239.463 662.492 239.391 661.644 239.247 660.924C239.103 660.204 238.895 659.62 238.623 659.172C238.367 658.756 238.055 658.444 237.687 658.236C237.319 658.012 236.831 657.9 236.223 657.9C235.679 657.9 235.199 657.996 234.783 658.188C234.383 658.38 234.055 658.66 233.799 659.028C233.511 659.428 233.303 660.004 233.175 660.756C233.047 661.492 232.983 662.34 232.983 663.3C232.983 664.26 233.055 665.1 233.199 665.82C233.343 666.524 233.551 667.108 233.823 667.572C234.095 667.972 234.415 668.284 234.783 668.508C235.167 668.732 235.655 668.844 236.247 668.844C236.807 668.844 237.287 668.756 237.687 668.58C238.103 668.388 238.415 668.108 238.623 667.74C238.895 667.292 239.103 666.716 239.247 666.012C239.391 665.292 239.463 664.444 239.463 663.468ZM256.17 663.516H247.794C247.794 664.684 247.954 665.652 248.274 666.42C248.594 667.156 249.05 667.684 249.642 668.004C250.234 668.324 250.874 668.484 251.562 668.484C252.314 668.484 253.002 668.332 253.626 668.028C254.25 667.708 254.81 667.276 255.306 666.732L256.074 667.308C255.514 668.076 254.834 668.732 254.034 669.276C253.234 669.82 252.202 670.092 250.938 670.092C249.834 670.092 248.858 669.86 248.01 669.396C247.162 668.916 246.514 668.22 246.066 667.308C245.826 666.812 245.65 666.26 245.538 665.652C245.426 665.044 245.37 664.396 245.37 663.708C245.37 661.468 245.882 659.732 246.906 658.5C247.946 657.268 249.354 656.652 251.13 656.652C252.762 656.652 254.018 657.164 254.898 658.188C255.794 659.196 256.242 660.596 256.242 662.388C256.242 662.548 256.234 662.7 256.218 662.844C256.218 662.972 256.202 663.196 256.17 663.516ZM250.986 657.948C249.066 657.948 248.01 659.412 247.818 662.34H253.818L253.818 661.548C253.818 660.396 253.57 659.508 253.074 658.884C252.594 658.26 251.898 657.948 250.986 657.948ZM258.401 663.492C258.401 662.452 258.537 661.46 258.809 660.516C259.081 659.572 259.489 658.804 260.033 658.212C260.497 657.7 261.049 657.316 261.689 657.06C262.329 656.788 263.065 656.652 263.897 656.652C264.601 656.652 265.241 656.788 265.817 657.06C266.409 657.332 266.937 657.82 267.401 658.524L267.401 652.572L265.553 652.116L265.553 651.132H269.729L269.729 668.412L271.577 668.868L271.577 669.852L267.857 670.092L267.665 668.124C267.169 668.86 266.609 669.372 265.985 669.66C265.361 669.948 264.665 670.092 263.897 670.092C263.081 670.092 262.345 669.972 261.689 669.732C261.033 669.492 260.489 669.108 260.057 668.58C259.545 667.956 259.137 667.212 258.833 666.348C258.545 665.468 258.401 664.516 258.401 663.492ZM267.401 663.468C267.401 662.492 267.329 661.644 267.185 660.924C267.041 660.204 266.833 659.62 266.561 659.172C266.305 658.756 265.993 658.444 265.625 658.236C265.257 658.012 264.769 657.9 264.161 657.9C263.617 657.9 263.137 657.996 262.721 658.188C262.321 658.38 261.993 658.66 261.737 659.028C261.449 659.428 261.241 660.004 261.113 660.756C260.985 661.492 260.921 662.34 260.921 663.3C260.921 664.26 260.993 665.1 261.137 665.82C261.281 666.524 261.489 667.108 261.761 667.572C262.033 667.972 262.353 668.284 262.721 668.508C263.105 668.732 263.593 668.844 264.185 668.844C264.745 668.844 265.225 668.756 265.625 668.58C266.041 668.388 266.353 668.108 266.561 667.74C266.833 667.292 267.041 666.716 267.185 666.012C267.329 665.292 267.401 664.444 267.401 663.468ZM273.476 670.092L276.98 652.332H278.348L274.844 670.092H273.476ZM291.271 668.412H294.991C295.855 668.412 296.591 668.284 297.199 668.028C297.823 667.772 298.335 667.372 298.735 666.828C299.183 666.268 299.511 665.532 299.719 664.62C299.943 663.708 300.055 662.62 300.055 661.356C300.055 658.86 299.615 657.004 298.735 655.788C298.319 655.18 297.783 654.732 297.127 654.444C296.471 654.156 295.679 654.012 294.751 654.012H291.271L291.271 668.412ZM286.855 652.572H294.919C297.303 652.572 299.159 653.244 300.487 654.588C301.239 655.356 301.815 656.3 302.215 657.42C302.615 658.54 302.815 659.74 302.815 661.02C302.815 662.364 302.599 663.628 302.167 664.812C301.751 665.98 301.167 666.964 300.415 667.764C299.087 669.156 297.183 669.852 294.703 669.852H286.855L286.855 668.82L288.871 668.316L288.871 654.108L286.855 653.604L286.855 652.572ZM316.942 663.252C316.942 664.292 316.782 665.284 316.462 666.228C316.158 667.156 315.726 667.924 315.166 668.532C314.686 669.06 314.094 669.452 313.39 669.708C312.686 669.964 311.886 670.092 310.99 670.092C310.11 670.092 309.326 669.972 308.638 669.732C307.95 669.476 307.366 669.092 306.886 668.58C306.342 667.988 305.918 667.26 305.614 666.396C305.326 665.516 305.182 664.564 305.182 663.54C305.182 662.5 305.334 661.508 305.638 660.564C305.942 659.604 306.382 658.82 306.958 658.212C307.47 657.668 308.062 657.276 308.734 657.036C309.422 656.78 310.206 656.652 311.086 656.652C311.966 656.652 312.758 656.78 313.462 657.036C314.166 657.276 314.758 657.652 315.238 658.164C315.798 658.756 316.222 659.5 316.51 660.396C316.798 661.276 316.942 662.228 316.942 663.252ZM307.75 663.276C307.75 664.252 307.822 665.1 307.966 665.82C308.126 666.524 308.342 667.108 308.614 667.572C308.886 667.972 309.206 668.284 309.574 668.508C309.958 668.732 310.454 668.844 311.062 668.844C312.166 668.844 312.99 668.468 313.534 667.716C313.822 667.3 314.03 666.724 314.158 665.988C314.302 665.252 314.374 664.404 314.374 663.444C314.374 662.484 314.294 661.644 314.134 660.924C313.99 660.204 313.782 659.62 313.51 659.172C313.254 658.756 312.926 658.444 312.526 658.236C312.142 658.012 311.646 657.9 311.038 657.9C309.918 657.9 309.11 658.268 308.614 659.004C308.038 659.9 307.75 661.324 307.75 663.276ZM321.774 658.332L324.246 666.972L324.534 668.388H324.654L324.942 666.972L327.75 656.652H329.478L332.382 666.972L332.67 668.388H332.766L333.054 666.972L335.454 658.332L333.894 657.876L333.894 656.892H338.454L338.454 657.876L337.158 658.332L333.582 670.092H331.11L328.254 660.732L325.47 670.092H322.998L319.326 658.332L318.054 657.876L318.054 656.892H323.43L323.43 657.876L321.774 658.332ZM341.501 668.412L341.501 658.332L339.653 657.876L339.653 656.892H343.109L343.637 659.292H343.733C344.213 658.476 344.861 657.836 345.677 657.372C346.493 656.892 347.365 656.652 348.293 656.652C349.621 656.652 350.605 657.084 351.245 657.948C351.565 658.396 351.789 659.028 351.917 659.844C352.061 660.644 352.133 661.732 352.133 663.108L352.133 668.412L353.981 668.868L353.981 669.852H348.197L348.197 668.868L349.805 668.412L349.805 663.06C349.805 662.02 349.773 661.244 349.709 660.732C349.661 660.22 349.565 659.82 349.421 659.532C349.229 659.148 348.949 658.86 348.581 658.668C348.229 658.46 347.805 658.356 347.309 658.356C346.381 658.356 345.581 658.652 344.909 659.244C344.253 659.836 343.893 660.756 343.829 662.004L343.829 668.412L345.437 668.868L345.437 669.852H339.653L339.653 668.868L341.501 668.412ZM354.948 658.092L354.948 657.228L357.276 656.892L357.276 656.652C357.276 654.876 357.796 653.476 358.836 652.452C359.876 651.412 361.284 650.892 363.06 650.892C364.292 650.892 365.284 651.14 366.036 651.636C366.788 652.116 367.164 652.764 367.164 653.58C367.164 654.476 366.74 654.924 365.892 654.924C365.492 654.924 365.188 654.828 364.98 654.636C364.788 654.428 364.692 654.124 364.692 653.724C364.692 653.34 364.82 652.924 365.076 652.476C364.532 652.028 363.828 651.804 362.964 651.804C362.372 651.804 361.852 651.884 361.404 652.044C360.748 652.268 360.284 652.66 360.012 653.22C359.74 653.764 359.604 654.588 359.604 655.692L359.604 656.892H367.14L367.14 668.412L368.988 668.868L368.988 669.852H363.204L363.204 668.868L364.812 668.412L364.812 658.092H359.604L359.604 668.412L361.476 668.868L361.476 669.852H355.428L355.428 668.868L357.276 668.412L357.276 658.092H354.948ZM381.514 663.516H373.138C373.138 664.684 373.298 665.652 373.618 666.42C373.938 667.156 374.394 667.684 374.986 668.004C375.578 668.324 376.218 668.484 376.906 668.484C377.658 668.484 378.346 668.332 378.97 668.028C379.594 667.708 380.154 667.276 380.65 666.732L381.418 667.308C380.858 668.076 380.178 668.732 379.378 669.276C378.578 669.82 377.546 670.092 376.282 670.092C375.178 670.092 374.202 669.86 373.354 669.396C372.506 668.916 371.858 668.22 371.41 667.308C371.17 666.812 370.994 666.26 370.882 665.652C370.77 665.044 370.714 664.396 370.714 663.708C370.714 661.468 371.226 659.732 372.25 658.5C373.29 657.268 374.698 656.652 376.474 656.652C378.106 656.652 379.362 657.164 380.242 658.188C381.138 659.196 381.586 660.596 381.586 662.388C381.586 662.548 381.578 662.7 381.562 662.844C381.562 662.972 381.546 663.196 381.514 663.516ZM376.33 657.948C374.41 657.948 373.354 659.412 373.162 662.34H379.162L379.162 661.548C379.162 660.396 378.914 659.508 378.418 658.884C377.938 658.26 377.242 657.948 376.33 657.948ZM385.161 668.412L385.161 652.572L383.313 652.116L383.313 651.132H387.489L387.489 668.412L389.337 668.868L389.337 669.852H383.313L383.313 668.868L385.161 668.412ZM391.127 663.492C391.127 662.452 391.263 661.46 391.535 660.516C391.807 659.572 392.215 658.804 392.759 658.212C393.223 657.7 393.775 657.316 394.415 657.06C395.055 656.788 395.791 656.652 396.623 656.652C397.327 656.652 397.967 656.788 398.543 657.06C399.135 657.332 399.663 657.82 400.127 658.524L400.127 652.572L398.279 652.116L398.279 651.132H402.455L402.455 668.412L404.303 668.868L404.303 669.852L400.583 670.092L400.391 668.124C399.895 668.86 399.335 669.372 398.711 669.66C398.087 669.948 397.391 670.092 396.623 670.092C395.807 670.092 395.071 669.972 394.415 669.732C393.759 669.492 393.215 669.108 392.783 668.58C392.271 667.956 391.863 667.212 391.559 666.348C391.271 665.468 391.127 664.516 391.127 663.492ZM400.127 663.468C400.127 662.492 400.055 661.644 399.911 660.924C399.767 660.204 399.559 659.62 399.287 659.172C399.031 658.756 398.719 658.444 398.351 658.236C397.983 658.012 397.495 657.9 396.887 657.9C396.343 657.9 395.863 657.996 395.447 658.188C395.047 658.38 394.719 658.66 394.463 659.028C394.175 659.428 393.967 660.004 393.839 660.756C393.711 661.492 393.647 662.34 393.647 663.3C393.647 664.26 393.719 665.1 393.863 665.82C394.007 666.524 394.215 667.108 394.487 667.572C394.759 667.972 395.079 668.284 395.447 668.508C395.831 668.732 396.319 668.844 396.911 668.844C397.471 668.844 397.951 668.756 398.351 668.58C398.767 668.388 399.079 668.108 399.287 667.74C399.559 667.292 399.767 666.716 399.911 666.012C400.055 665.292 400.127 664.444 400.127 663.468Z" fill="#C726AD"/>
<path d="M679.98 647.414L658.094 660.414L679.98 673.414" stroke="#C726AD" stroke-width="3"/>
<path d="M583.094 647.414L561.208 660.414L583.094 673.414" stroke="#C726AD" stroke-width="3"/>
<path d="M486.207 647.414L464.321 660.414L486.207 673.414" stroke="#C726AD" stroke-width="3"/>
<defs>
<filter id="filter0_d_854_7776" x="148.5" y="489.007" width="878.604" height="160.344" filterUnits="userSpaceOnUse" color-interpolation-filters="sRGB">
<feFlood flood-opacity="0" result="BackgroundImageFix"/>
<feColorMatrix in="SourceAlpha" type="matrix" values="0 0 0 0 0 0 0 0 0 0 0 0 0 0 0 0 0 0 127 0" result="hardAlpha"/>
<feOffset dy="4"/>
<feGaussianBlur stdDeviation="2"/>
<feComposite in2="hardAlpha" operator="out"/>
<feColorMatrix type="matrix" values="0 0 0 0 0 0 0 0 0 0 0 0 0 0 0 0 0 0 0.25 0"/>
<feBlend mode="normal" in2="BackgroundImageFix" result="effect1_dropShadow_854_7776"/>
<feBlend mode="normal" in="SourceGraphic" in2="effect1_dropShadow_854_7776" result="shape"/>
</filter>
</defs>
</svg>
