<svg width="1123" height="901" viewBox="0 0 1123 901" fill="none" xmlns="http://www.w3.org/2000/svg">
<rect width="1122" height="900" transform="translate(0.650391 0.794922)" fill="#0C0C31"/>
<path d="M95.0904 82.0349H94.0704L93.7104 79.9949H90.3904L90.3904 85.5949H96.4304L97.0504 82.3349H98.2104L98.2104 86.7949H86.5104L86.5104 85.9349L88.3904 85.5149L88.3904 73.6749L86.5104 73.2549L86.5104 72.3949H97.7704L97.7704 76.6349H96.7304L96.0904 73.5549H90.3904L90.3904 78.7949H93.7104L94.0704 76.7549H95.0904L95.0904 82.0349ZM99.5218 76.9949L99.5218 76.2749L101.462 75.9949L101.722 73.4749L103.402 73.2349L103.402 75.9949H105.962L105.962 76.9949H103.402L103.402 84.1349C103.402 84.5883 103.408 84.9016 103.422 85.0749C103.435 85.2349 103.462 85.3683 103.502 85.4749C103.542 85.5683 103.615 85.6349 103.722 85.6749C103.828 85.7016 104.002 85.7149 104.242 85.7149H105.642L105.642 86.2949C105.002 86.5349 104.435 86.7083 103.942 86.8149C103.462 86.9349 103.075 86.9949 102.782 86.9949C102.182 86.9949 101.795 86.7483 101.622 86.2549C101.568 86.0949 101.528 85.8883 101.502 85.6349C101.475 85.3816 101.462 85.0083 101.462 84.5149L101.462 76.9949H99.5218ZM115.118 85.5949L115.118 81.1349C115.118 80.2683 115.092 79.6216 115.038 79.1949C114.998 78.7683 114.918 78.4349 114.798 78.1949C114.478 77.5416 113.892 77.2149 113.038 77.2149C112.665 77.2149 112.305 77.2816 111.958 77.4149C111.612 77.5483 111.305 77.7283 111.038 77.9549C110.745 78.2083 110.525 78.5149 110.378 78.8749C110.245 79.2216 110.165 79.6549 110.138 80.1749L110.138 85.5949L111.478 85.9749L111.478 86.7949H106.658L106.658 85.9749L108.198 85.5949L108.198 72.3949L106.658 72.0149L106.658 71.1949H110.138L110.138 77.8749C110.538 77.2349 111.065 76.7283 111.718 76.3549C112.385 75.9816 113.098 75.7949 113.858 75.7949C114.392 75.7949 114.872 75.8883 115.298 76.0749C115.725 76.2616 116.065 76.5283 116.318 76.8749C116.585 77.2483 116.772 77.7749 116.878 78.4549C116.998 79.1216 117.058 80.0283 117.058 81.1749L117.058 85.5949L118.598 85.9749L118.598 86.7949H113.778L113.778 85.9749L115.118 85.5949ZM119.789 84.4549C119.789 83.4149 120.276 82.5949 121.249 81.9949C122.223 81.3949 123.836 80.9283 126.089 80.5949C126.036 79.8083 125.963 79.1949 125.869 78.7549C125.776 78.3149 125.656 77.9616 125.509 77.6949C125.323 77.3483 125.063 77.0949 124.729 76.9349C124.396 76.7616 124.036 76.6749 123.649 76.6749C123.276 76.6749 122.936 76.7416 122.629 76.8749C122.336 77.0083 122.136 77.1883 122.029 77.4149C122.216 77.5483 122.349 77.7216 122.429 77.9349C122.523 78.1483 122.569 78.3483 122.569 78.5349C122.569 78.8683 122.456 79.1349 122.229 79.3349C122.016 79.5216 121.749 79.6149 121.429 79.6149C121.109 79.6149 120.843 79.5083 120.629 79.2949C120.429 79.0816 120.329 78.7816 120.329 78.3949C120.329 77.8349 120.523 77.3616 120.909 76.9749C121.296 76.5883 121.783 76.2949 122.369 76.0949C122.969 75.8949 123.569 75.7949 124.169 75.7949C124.716 75.7949 125.216 75.8816 125.669 76.0549C126.136 76.2149 126.529 76.4549 126.849 76.7749C127.676 77.6016 128.089 79.0683 128.089 81.1749L128.089 84.0749C128.089 84.7283 128.129 85.1816 128.209 85.4349C128.303 85.6883 128.496 85.8149 128.789 85.8149H129.689L129.689 86.4149C128.729 86.8016 127.983 86.9949 127.449 86.9949C127.036 86.9949 126.756 86.8483 126.609 86.5549C126.476 86.2483 126.409 85.6683 126.409 84.8149H126.329C125.916 85.4949 125.369 86.0283 124.689 86.4149C124.009 86.8016 123.276 86.9949 122.489 86.9949C121.649 86.9949 120.989 86.7683 120.509 86.3149C120.029 85.8616 119.789 85.2416 119.789 84.4549ZM123.329 85.8349C123.703 85.8349 124.089 85.7416 124.489 85.5549C124.903 85.3549 125.249 85.0816 125.529 84.7349C125.743 84.4683 125.896 84.1549 125.989 83.7949C126.096 83.4216 126.149 82.9883 126.149 82.4949C126.149 82.2683 126.143 82.0483 126.129 81.8349C126.116 81.6083 126.096 81.3949 126.069 81.1949C124.989 81.4083 124.143 81.6416 123.529 81.8949C122.916 82.1349 122.483 82.4283 122.229 82.7749C121.976 83.1083 121.849 83.5283 121.849 84.0349C121.849 84.6083 121.976 85.0549 122.229 85.3749C122.496 85.6816 122.863 85.8349 123.329 85.8349ZM132.031 85.5949L132.031 77.1949L130.491 76.8149L130.491 75.9949H133.371L133.811 77.9949H133.891C134.291 77.3149 134.831 76.7816 135.511 76.3949C136.191 75.9949 136.918 75.7949 137.691 75.7949C138.798 75.7949 139.618 76.1549 140.151 76.8749C140.418 77.2483 140.605 77.7749 140.711 78.4549C140.831 79.1216 140.891 80.0283 140.891 81.1749L140.891 85.5949L142.431 85.9749L142.431 86.7949L137.611 86.7949L137.611 85.9749L138.951 85.5949L138.951 81.1349C138.951 80.2683 138.925 79.6216 138.871 79.1949C138.831 78.7683 138.751 78.4349 138.631 78.1949C138.471 77.8749 138.238 77.6349 137.931 77.4749C137.638 77.3016 137.285 77.2149 136.871 77.2149C136.098 77.2149 135.431 77.4616 134.871 77.9549C134.325 78.4483 134.025 79.2149 133.971 80.2549L133.971 85.5949L135.311 85.9749L135.311 86.7949H130.491L130.491 85.9749L132.031 85.5949ZM153.597 81.2949C153.597 82.1616 153.464 82.9883 153.197 83.7749C152.944 84.5483 152.584 85.1883 152.117 85.6949C151.717 86.1349 151.224 86.4616 150.637 86.6749C150.05 86.8883 149.384 86.9949 148.637 86.9949C147.904 86.9949 147.25 86.8949 146.677 86.6949C146.104 86.4816 145.617 86.1616 145.217 85.7349C144.764 85.2416 144.41 84.6349 144.157 83.9149C143.917 83.1816 143.797 82.3883 143.797 81.5349C143.797 80.6683 143.924 79.8416 144.177 79.0549C144.43 78.2549 144.797 77.6016 145.277 77.0949C145.704 76.6416 146.197 76.3149 146.757 76.1149C147.33 75.9016 147.984 75.7949 148.717 75.7949C149.45 75.7949 150.11 75.9016 150.697 76.1149C151.284 76.3149 151.777 76.6283 152.177 77.0549C152.644 77.5483 152.997 78.1683 153.237 78.9149C153.477 79.6483 153.597 80.4416 153.597 81.2949ZM145.937 81.3149C145.937 82.1283 145.997 82.8349 146.117 83.4349C146.25 84.0216 146.43 84.5083 146.657 84.8949C146.884 85.2283 147.15 85.4883 147.457 85.6749C147.777 85.8616 148.19 85.9549 148.697 85.9549C149.617 85.9549 150.304 85.6416 150.757 85.0149C150.997 84.6683 151.17 84.1883 151.277 83.5749C151.397 82.9616 151.457 82.2549 151.457 81.4549C151.457 80.6549 151.39 79.9549 151.257 79.3549C151.137 78.7549 150.964 78.2683 150.737 77.8949C150.524 77.5483 150.25 77.2883 149.917 77.1149C149.597 76.9283 149.184 76.8349 148.677 76.8349C147.744 76.8349 147.07 77.1416 146.657 77.7549C146.177 78.5016 145.937 79.6883 145.937 81.3149ZM156.618 85.5949L156.618 72.3949L155.078 72.0149L155.078 71.1949H158.558L158.558 85.5949L160.098 85.9749L160.098 86.7949H155.078L155.078 85.9749L156.618 85.5949Z" fill="white"/>
<path d="M422.384 312.283C422.384 313.804 422.148 315.236 421.676 316.582C421.222 317.91 420.584 319.02 419.762 319.911C419.046 320.68 418.181 321.256 417.168 321.641C416.172 322.008 415.018 322.191 413.708 322.191C412.38 322.191 411.209 322.008 410.195 321.641C409.182 321.274 408.334 320.723 407.653 319.989C406.849 319.151 406.229 318.102 405.792 316.844C405.355 315.568 405.137 314.188 405.137 312.703C405.137 311.182 405.364 309.758 405.818 308.43C406.29 307.085 406.937 305.966 407.758 305.075C408.492 304.289 409.339 303.712 410.3 303.345C411.279 302.978 412.432 302.795 413.76 302.795C415.088 302.795 416.25 302.978 417.246 303.345C418.26 303.695 419.125 304.245 419.841 304.997C420.662 305.835 421.291 306.893 421.728 308.168C422.165 309.444 422.384 310.815 422.384 312.283ZM408.151 312.178C408.151 313.629 408.273 314.922 408.518 316.058C408.763 317.176 409.112 318.093 409.566 318.81C410.021 319.456 410.589 319.946 411.27 320.278C411.969 320.592 412.825 320.749 413.839 320.749C415.691 320.749 417.054 320.173 417.928 319.02C418.399 318.373 418.758 317.517 419.002 316.451C419.247 315.367 419.369 314.101 419.369 312.65C419.369 311.2 419.247 309.924 419.002 308.823C418.758 307.723 418.399 306.831 417.928 306.15C417.473 305.486 416.888 304.997 416.172 304.682C415.473 304.368 414.643 304.21 413.682 304.21C412.755 304.21 411.952 304.359 411.27 304.656C410.606 304.935 410.047 305.364 409.593 305.94C408.632 307.216 408.151 309.295 408.151 312.178Z" fill="white"/>
<path d="M422.384 312.283C422.384 313.804 422.148 315.236 421.676 316.582C421.222 317.91 420.584 319.02 419.762 319.911C419.046 320.68 418.181 321.256 417.168 321.641C416.172 322.008 415.018 322.191 413.708 322.191C412.38 322.191 411.209 322.008 410.195 321.641C409.182 321.274 408.334 320.723 407.653 319.989C406.849 319.151 406.229 318.102 405.792 316.844C405.355 315.568 405.137 314.188 405.137 312.703C405.137 311.182 405.364 309.758 405.818 308.43C406.29 307.085 406.937 305.966 407.758 305.075C408.492 304.289 409.339 303.712 410.3 303.345C411.279 302.978 412.432 302.795 413.76 302.795C415.088 302.795 416.25 302.978 417.246 303.345C418.26 303.695 419.125 304.245 419.841 304.997C420.662 305.835 421.291 306.893 421.728 308.168C422.165 309.444 422.384 310.815 422.384 312.283ZM408.151 312.178C408.151 313.629 408.273 314.922 408.518 316.058C408.763 317.176 409.112 318.093 409.566 318.81C410.021 319.456 410.589 319.946 411.27 320.278C411.969 320.592 412.825 320.749 413.839 320.749C415.691 320.749 417.054 320.173 417.928 319.02C418.399 318.373 418.758 317.517 419.002 316.451C419.247 315.367 419.369 314.101 419.369 312.65C419.369 311.2 419.247 309.924 419.002 308.823C418.758 307.723 418.399 306.831 417.928 306.15C417.473 305.486 416.888 304.997 416.172 304.682C415.473 304.368 414.643 304.21 413.682 304.21C412.755 304.21 411.952 304.359 411.27 304.656C410.606 304.935 410.047 305.364 409.593 305.94C408.632 307.216 408.151 309.295 408.151 312.178Z" stroke="black"/>
<path d="M505.3 304.472V319.989L507.502 320.54V321.667H500.477V320.54L502.679 319.989V312.729H493.794V319.989L495.995 320.54V321.667H488.971V320.54L491.172 319.989V304.472L488.971 303.922V302.795H495.995V303.922L493.794 304.472V311.209H502.679V304.472L500.477 303.922V302.795H507.502V303.922L505.3 304.472Z" fill="white"/>
<path d="M505.3 304.472V319.989L507.502 320.54V321.667H500.477V320.54L502.679 319.989V312.729H493.794V319.989L495.995 320.54V321.667H488.971V320.54L491.172 319.989V304.472L488.971 303.922V302.795H495.995V303.922L493.794 304.472V311.209H502.679V304.472L500.477 303.922V302.795H507.502V303.922L505.3 304.472Z" stroke="black"/>
<path d="M249.202 304.254C248.323 304.254 247.57 304.39 246.943 304.66C246.333 304.93 245.813 305.353 245.383 305.93C244.845 306.633 244.424 307.561 244.119 308.714C243.815 309.849 243.662 311.101 243.662 312.471C243.662 313.75 243.797 314.948 244.066 316.065C244.334 317.182 244.711 318.119 245.195 318.876C245.679 319.633 246.262 320.191 246.943 320.552C247.642 320.894 248.511 321.065 249.551 321.065C252.778 321.065 254.652 319.543 255.171 316.498H256.65C255.844 320.696 253.388 322.795 249.282 322.795C246.808 322.795 244.836 322.074 243.366 320.633C242.488 319.768 241.816 318.678 241.35 317.362C240.883 316.047 240.65 314.588 240.65 312.984C240.65 311.164 240.946 309.516 241.538 308.038C242.129 306.561 242.963 305.381 244.039 304.498C245.401 303.362 247.203 302.795 249.444 302.795C250.555 302.795 251.46 302.939 252.16 303.227C252.859 303.516 253.549 304.029 254.23 304.768L254.768 303.065H256.247V309.038H254.607C254.356 307.453 253.773 306.263 252.859 305.471C251.962 304.66 250.743 304.254 249.202 304.254Z" fill="white"/>
<path d="M249.202 304.254C248.323 304.254 247.57 304.39 246.943 304.66C246.333 304.93 245.813 305.353 245.383 305.93C244.845 306.633 244.424 307.561 244.119 308.714C243.815 309.849 243.662 311.101 243.662 312.471C243.662 313.75 243.797 314.948 244.066 316.065C244.334 317.182 244.711 318.119 245.195 318.876C245.679 319.633 246.262 320.191 246.943 320.552C247.642 320.894 248.511 321.065 249.551 321.065C252.778 321.065 254.652 319.543 255.171 316.498H256.65C255.844 320.696 253.388 322.795 249.282 322.795C246.808 322.795 244.836 322.074 243.366 320.633C242.488 319.768 241.816 318.678 241.35 317.362C240.883 316.047 240.65 314.588 240.65 312.984C240.65 311.164 240.946 309.516 241.538 308.038C242.129 306.561 242.963 305.381 244.039 304.498C245.401 303.362 247.203 302.795 249.444 302.795C250.555 302.795 251.46 302.939 252.16 303.227C252.859 303.516 253.549 304.029 254.23 304.768L254.768 303.065H256.247V309.038H254.607C254.356 307.453 253.773 306.263 252.859 305.471C251.962 304.66 250.743 304.254 249.202 304.254Z" stroke="black"/>
<path d="M331.202 304.254C330.323 304.254 329.57 304.39 328.943 304.66C328.333 304.93 327.813 305.353 327.383 305.93C326.845 306.633 326.424 307.561 326.119 308.714C325.815 309.849 325.662 311.101 325.662 312.471C325.662 313.75 325.797 314.948 326.066 316.065C326.334 317.182 326.711 318.119 327.195 318.876C327.679 319.633 328.262 320.191 328.943 320.552C329.642 320.894 330.511 321.065 331.551 321.065C334.778 321.065 336.652 319.543 337.171 316.498H338.65C337.844 320.696 335.388 322.795 331.282 322.795C328.808 322.795 326.836 322.074 325.366 320.633C324.488 319.768 323.816 318.678 323.35 317.362C322.883 316.047 322.65 314.588 322.65 312.984C322.65 311.164 322.946 309.516 323.538 308.038C324.129 306.561 324.963 305.381 326.039 304.498C327.401 303.362 329.203 302.795 331.444 302.795C332.555 302.795 333.46 302.939 334.16 303.227C334.859 303.516 335.549 304.029 336.23 304.768L336.768 303.065H338.247V309.038H336.607C336.356 307.453 335.773 306.263 334.859 305.471C333.962 304.66 332.743 304.254 331.202 304.254Z" fill="#C726AD"/>
<path d="M331.202 304.254C330.323 304.254 329.57 304.39 328.943 304.66C328.333 304.93 327.813 305.353 327.383 305.93C326.845 306.633 326.424 307.561 326.119 308.714C325.815 309.849 325.662 311.101 325.662 312.471C325.662 313.75 325.797 314.948 326.066 316.065C326.334 317.182 326.711 318.119 327.195 318.876C327.679 319.633 328.262 320.191 328.943 320.552C329.642 320.894 330.511 321.065 331.551 321.065C334.778 321.065 336.652 319.543 337.171 316.498H338.65C337.844 320.696 335.388 322.795 331.282 322.795C328.808 322.795 326.836 322.074 325.366 320.633C324.488 319.768 323.816 318.678 323.35 317.362C322.883 316.047 322.65 314.588 322.65 312.984C322.65 311.164 322.946 309.516 323.538 308.038C324.129 306.561 324.963 305.381 326.039 304.498C327.401 303.362 329.203 302.795 331.444 302.795C332.555 302.795 333.46 302.939 334.16 303.227C334.859 303.516 335.549 304.029 336.23 304.768L336.768 303.065H338.247V309.038H336.607C336.356 307.453 335.773 306.263 334.859 305.471C333.962 304.66 332.743 304.254 331.202 304.254Z" stroke="black"/>
<path d="M253.512 391.484V407.106L255.65 407.66V408.795H248.827V407.66L250.966 407.106V399.796H242.335V407.106L244.474 407.66V408.795H237.65V407.66L239.789 407.106V391.484L237.65 390.93V389.795H244.474V390.93L242.335 391.484V398.266H250.966V391.484L248.827 390.93V389.795H255.65V390.93L253.512 391.484Z" fill="white"/>
<path d="M253.512 391.484V407.106L255.65 407.66V408.795H248.827V407.66L250.966 407.106V399.796H242.335V407.106L244.474 407.66V408.795H237.65V407.66L239.789 407.106V391.484L237.65 390.93V389.795H244.474V390.93L242.335 391.484V398.266H250.966V391.484L248.827 390.93V389.795H255.65V390.93L253.512 391.484Z" stroke="black"/>
<path d="M335.512 391.484V407.106L337.65 407.66V408.795H330.827V407.66L332.966 407.106V399.796H324.335V407.106L326.474 407.66V408.795H319.65V407.66L321.789 407.106V391.484L319.65 390.93V389.795H326.474V390.93L324.335 391.484V398.266H332.966V391.484L330.827 390.93V389.795H337.65V390.93L335.512 391.484Z" fill="#C726AD"/>
<path d="M335.512 391.484V407.106L337.65 407.66V408.795H330.827V407.66L332.966 407.106V399.796H324.335V407.106L326.474 407.66V408.795H319.65V407.66L321.789 407.106V391.484L319.65 390.93V389.795H326.474V390.93L324.335 391.484V398.266H332.966V391.484L330.827 390.93V389.795H337.65V390.93L335.512 391.484Z" stroke="black"/>
<path d="M171.98 304.472V319.989L174.182 320.54V321.667H167.157V320.54L169.359 319.989V312.729H160.473V319.989L162.675 320.54V321.667H155.65V320.54L157.852 319.989V304.472L155.65 303.922V302.795H162.675V303.922L160.473 304.472V311.209H169.359V304.472L167.157 303.922V302.795H174.182V303.922L171.98 304.472Z" fill="white"/>
<path d="M171.98 304.472V319.989L174.182 320.54V321.667H167.157V320.54L169.359 319.989V312.729H160.473V319.989L162.675 320.54V321.667H155.65V320.54L157.852 319.989V304.472L155.65 303.922V302.795H162.675V303.922L160.473 304.472V311.209H169.359V304.472L167.157 303.922V302.795H174.182V303.922L171.98 304.472Z" stroke="black"/>
<path d="M254.98 218.472V226.231V233.989L257.182 234.54V235.667H250.157V234.54L252.359 233.989V226.729H243.473V233.989L245.675 234.54V235.667H238.65V234.54L240.852 233.989V218.472L238.65 217.922V216.795H245.675V217.922L243.473 218.472V225.209H252.359V218.472L250.157 217.922V216.795H257.182V217.922L254.98 218.472Z" fill="white"/>
<path d="M254.98 218.472V226.231V233.989L257.182 234.54V235.667H250.157V234.54L252.359 233.989V226.729H243.473V233.989L245.675 234.54V235.667H238.65V234.54L240.852 233.989V218.472L238.65 217.922V216.795H245.675V217.922L243.473 218.472V225.209H252.359V218.472L250.157 217.922V216.795H257.182V217.922L254.98 218.472Z" stroke="black"/>
<path d="M336.98 218.472V226.231V233.989L339.182 234.54V235.667H332.157V234.54L334.359 233.989V226.729H325.473V233.989L327.675 234.54V235.667H320.65V234.54L322.852 233.989V218.472L320.65 217.922V216.795H327.675V217.922L325.473 218.472V225.209H334.359V218.472L332.157 217.922V216.795H339.182V217.922L336.98 218.472Z" fill="#C726AD"/>
<path d="M336.98 218.472V226.231V233.989L339.182 234.54V235.667H332.157V234.54L334.359 233.989V226.729H325.473V233.989L327.675 234.54V235.667H320.65V234.54L322.852 233.989V218.472L320.65 217.922V216.795H327.675V217.922L325.473 218.472V225.209H334.359V218.472L332.157 217.922V216.795H339.182V217.922L336.98 218.472Z" stroke="black"/>
<line x1="248.15" y1="365.383" x2="248.15" y2="346.796" stroke="white" stroke-width="3"/>
<line x1="330.15" y1="365.383" x2="330.15" y2="346.796" stroke="#C726AD" stroke-width="3"/>
<line x1="248.15" y1="259.795" x2="248.15" y2="278.795" stroke="white" stroke-width="3"/>
<line x1="330.15" y1="259.795" x2="330.15" y2="278.795" stroke="#C726AD" stroke-width="3"/>
<line x1="198.182" y1="311.295" x2="216.769" y2="311.295" stroke="white" stroke-width="3"/>
<line x1="280.365" y1="311.295" x2="298.952" y2="311.295" stroke="white" stroke-width="3"/>
<line x1="362.549" y1="311.295" x2="381.136" y2="311.295" stroke="white" stroke-width="3"/>
<line x1="446.383" y1="311.295" x2="464.97" y2="311.295" stroke="white" stroke-width="3"/>
<path d="M671.714 170.203C670.269 170.203 669.031 170.426 667.999 170.872C666.996 171.318 666.141 172.017 665.434 172.968C664.549 174.128 663.857 175.659 663.355 177.561C662.854 179.434 662.604 181.501 662.604 183.76C662.604 185.871 662.825 187.848 663.267 189.691C663.709 191.535 664.328 193.081 665.124 194.329C665.92 195.578 666.879 196.5 667.999 197.094C669.149 197.659 670.579 197.942 672.289 197.942C677.596 197.942 680.676 195.429 681.531 190.405H683.964C682.637 197.332 678.598 200.796 671.846 200.796C667.778 200.796 664.535 199.607 662.117 197.228C660.672 195.801 659.567 194.002 658.8 191.832C658.034 189.662 657.65 187.254 657.65 184.608C657.65 181.605 658.137 178.884 659.11 176.446C660.083 174.009 661.454 172.061 663.223 170.604C665.463 168.731 668.426 167.795 672.112 167.795C673.94 167.795 675.429 168.033 676.578 168.508C677.728 168.984 678.863 169.831 679.984 171.05L680.868 168.241H683.3V178.097H680.603C680.19 175.48 679.232 173.518 677.728 172.21C676.254 170.872 674.249 170.203 671.714 170.203Z" fill="#C726AD"/>
<path d="M715.212 171.095V197.496L718.927 198.432V200.35H707.075V198.432L710.79 197.496V185.143H695.798V197.496L699.513 198.432V200.35H687.661V198.432L691.376 197.496V171.095L687.661 170.158V168.241H699.513V170.158L695.798 171.095V182.556H710.79V171.095L707.075 170.158V168.241H718.927V170.158L715.212 171.095Z" fill="#C726AD"/>
<path d="M725.328 198.209H731.033L731.519 195.89H732.758V200.35H723.161V199.012C723.161 198.18 723.397 197.436 723.869 196.782C724.34 196.098 724.93 195.459 725.638 194.865C726.345 194.27 727.053 193.69 727.76 193.125C728.468 192.531 729.058 191.906 729.529 191.252C730.001 190.598 730.237 189.87 730.237 189.067C730.237 188.443 730.001 187.967 729.529 187.64C729.058 187.283 728.394 187.105 727.539 187.105C727.008 187.105 726.552 187.164 726.168 187.283C725.785 187.402 725.461 187.581 725.195 187.818C724.959 188.056 724.797 188.354 724.709 188.71C725.122 188.71 725.446 188.814 725.682 189.023C725.918 189.231 726.036 189.528 726.036 189.914C726.036 190.301 725.918 190.613 725.682 190.851C725.475 191.059 725.166 191.163 724.753 191.163C724.281 191.163 723.928 191.029 723.692 190.762C723.485 190.494 723.382 190.078 723.382 189.513C723.382 188.354 723.795 187.432 724.62 186.748C725.475 186.035 726.581 185.678 727.937 185.678C729.323 185.678 730.443 186.035 731.298 186.748C732.153 187.432 732.581 188.368 732.581 189.558C732.581 190.509 732.33 191.341 731.829 192.055C731.357 192.739 730.753 193.348 730.016 193.883C729.308 194.419 728.586 194.909 727.849 195.355C727.141 195.801 726.537 196.247 726.036 196.693C725.564 197.139 725.328 197.644 725.328 198.209Z" fill="#C726AD"/>
<line x1="703.062" y1="228.295" x2="380.651" y2="228.295" stroke="#C726AD" stroke-width="3"/>
<path d="M702.59 312.856C703.176 313.441 704.125 313.441 704.711 312.856L714.257 303.31C714.843 302.724 714.843 301.774 714.257 301.188C713.671 300.603 712.721 300.603 712.136 301.188L703.65 309.674L695.165 301.188C694.579 300.603 693.63 300.603 693.044 301.188C692.458 301.774 692.458 302.724 693.044 303.31L702.59 312.856ZM702.15 226.795L702.15 311.795L705.15 311.795L705.15 226.795L702.15 226.795Z" fill="#C726AD"/>
<line x1="588.793" y1="681.992" x2="588.793" y2="704.263" stroke="white" stroke-width="2"/>
<g filter="url(#filter0_d_794_6817)">
<path d="M725.287 627.746L794.105 627.795H809.808L812.579 610.195V523.366L814.427 518.286V475.795V513.205L816.274 510.896L817.66 627.795H825.05H829.206H897.562M145.65 627.795L683.258 627.746M946.058 627.795H984.854H1023.65" stroke="#C3FA50" stroke-width="3"/>
</g>
<path d="M897.65 628.295L905.189 600.143V379.377L907.497 608.617L910.727 610.847L913.958 625.565H918.573V610.847L920.881 602.819V554.206M916.266 115.795L920.881 554.206M946.65 628.295L942.112 625.565H938.42L934.266 617.091L931.958 408.812L934.266 610.847V614.861L931.958 625.565L929.65 623.335L924.573 621.105V614.861L920.881 554.206" stroke="#C3FA50" stroke-width="3"/>
<path d="M145.484 668.129L1025.48 668.129" stroke="white" stroke-width="2"/>
<line x1="411.781" y1="667.992" x2="411.781" y2="690.263" stroke="white" stroke-width="2"/>
<line x1="234.768" y1="667.992" x2="234.768" y2="690.263" stroke="white" stroke-width="2"/>
<line x1="145.082" y1="666.877" x2="145.082" y2="689.148" stroke="white" stroke-width="2"/>
<line x1="855.492" y1="667.992" x2="855.492" y2="690.263" stroke="white" stroke-width="2"/>
<line x1="678.479" y1="667.992" x2="678.479" y2="690.263" stroke="white" stroke-width="2"/>
<line x1="501.467" y1="667.992" x2="501.467" y2="690.263" stroke="white" stroke-width="2"/>
<line x1="323.275" y1="667.992" x2="323.275" y2="690.263" stroke="white" stroke-width="2"/>
<line x1="945.178" y1="667.992" x2="945.178" y2="690.263" stroke="white" stroke-width="2"/>
<line x1="1024.24" y1="667.992" x2="1024.24" y2="690.263" stroke="white" stroke-width="2"/>
<line x1="766.986" y1="667.992" x2="766.986" y2="690.263" stroke="white" stroke-width="2"/>
<path d="M223.707 711.335C223.707 712.268 223.927 713.042 224.367 713.655C224.807 714.255 225.513 714.555 226.487 714.555C226.953 714.555 227.46 714.402 228.007 714.095C228.567 713.788 229.093 713.295 229.587 712.615C229.507 711.268 229.193 710.182 228.647 709.355C228.113 708.528 227.327 708.115 226.287 708.115C225.807 708.115 225.367 708.262 224.967 708.555C224.58 708.835 224.273 709.215 224.047 709.695C223.82 710.175 223.707 710.722 223.707 711.335ZM225.787 720.615C225.2 720.615 224.68 720.502 224.227 720.275C223.787 720.048 223.407 719.748 223.087 719.375L223.627 718.775C223.907 719.122 224.233 719.388 224.607 719.575C224.993 719.748 225.393 719.835 225.807 719.835C226.487 719.835 227.113 719.635 227.687 719.235C228.26 718.835 228.72 718.175 229.067 717.255C229.427 716.335 229.607 715.095 229.607 713.535C229.167 714.068 228.667 714.495 228.107 714.815C227.547 715.135 226.967 715.295 226.367 715.295C225.26 715.295 224.393 714.962 223.767 714.295C223.14 713.615 222.827 712.628 222.827 711.335C222.827 710.562 222.987 709.875 223.307 709.275C223.627 708.675 224.053 708.208 224.587 707.875C225.12 707.528 225.7 707.355 226.327 707.355C227.593 707.355 228.6 707.875 229.347 708.915C230.107 709.942 230.487 711.428 230.487 713.375C230.487 715.162 230.267 716.588 229.827 717.655C229.387 718.708 228.807 719.468 228.087 719.935C227.38 720.388 226.613 720.615 225.787 720.615ZM233.737 720.615C233.524 720.615 233.324 720.535 233.137 720.375C232.964 720.215 232.877 719.995 232.877 719.715C232.877 719.422 232.964 719.195 233.137 719.035C233.324 718.875 233.524 718.795 233.737 718.795C233.964 718.795 234.157 718.875 234.317 719.035C234.49 719.195 234.577 719.422 234.577 719.715C234.577 719.995 234.49 720.215 234.317 720.375C234.157 720.535 233.964 720.615 233.737 720.615ZM240.692 720.615C239.479 720.615 238.539 720.035 237.872 718.875C237.205 717.715 236.872 716.068 236.872 713.935C236.872 711.815 237.205 710.188 237.872 709.055C238.539 707.922 239.479 707.355 240.692 707.355C241.919 707.355 242.859 707.922 243.512 709.055C244.179 710.188 244.512 711.815 244.512 713.935C244.512 716.068 244.179 717.715 243.512 718.875C242.859 720.035 241.919 720.615 240.692 720.615ZM240.692 719.855C241.585 719.855 242.292 719.355 242.812 718.355C243.345 717.355 243.612 715.882 243.612 713.935C243.612 711.988 243.345 710.535 242.812 709.575C242.292 708.602 241.585 708.115 240.692 708.115C239.812 708.115 239.105 708.602 238.572 709.575C238.039 710.535 237.772 711.988 237.772 713.935C237.772 715.882 238.039 717.355 238.572 718.355C239.105 719.355 239.812 719.855 240.692 719.855Z" fill="white"/>
<path d="M129.241 720.375V719.595H132.241V708.995H129.961V708.395C130.481 708.302 130.947 708.188 131.361 708.055C131.774 707.922 132.127 707.768 132.421 707.595H133.141V719.595H135.921V720.375H129.241ZM141.911 720.615C140.698 720.615 139.758 720.035 139.091 718.875C138.424 717.715 138.091 716.068 138.091 713.935C138.091 711.815 138.424 710.188 139.091 709.055C139.758 707.922 140.698 707.355 141.911 707.355C143.138 707.355 144.078 707.922 144.731 709.055C145.398 710.188 145.731 711.815 145.731 713.935C145.731 716.068 145.398 717.715 144.731 718.875C144.078 720.035 143.138 720.615 141.911 720.615ZM141.911 719.855C142.804 719.855 143.511 719.355 144.031 718.355C144.564 717.355 144.831 715.882 144.831 713.935C144.831 711.988 144.564 710.535 144.031 709.575C143.511 708.602 142.804 708.115 141.911 708.115C141.031 708.115 140.324 708.602 139.791 709.575C139.258 710.535 138.991 711.988 138.991 713.935C138.991 715.882 139.258 717.355 139.791 718.355C140.324 719.355 141.031 719.855 141.911 719.855ZM148.901 720.615C148.688 720.615 148.488 720.535 148.301 720.375C148.128 720.215 148.041 719.995 148.041 719.715C148.041 719.422 148.128 719.195 148.301 719.035C148.488 718.875 148.688 718.795 148.901 718.795C149.128 718.795 149.321 718.875 149.481 719.035C149.655 719.195 149.741 719.422 149.741 719.715C149.741 719.995 149.655 720.215 149.481 720.375C149.321 720.535 149.128 720.615 148.901 720.615ZM155.856 720.615C154.643 720.615 153.703 720.035 153.036 718.875C152.37 717.715 152.036 716.068 152.036 713.935C152.036 711.815 152.37 710.188 153.036 709.055C153.703 707.922 154.643 707.355 155.856 707.355C157.083 707.355 158.023 707.922 158.676 709.055C159.343 710.188 159.676 711.815 159.676 713.935C159.676 716.068 159.343 717.715 158.676 718.875C158.023 720.035 157.083 720.615 155.856 720.615ZM155.856 719.855C156.75 719.855 157.456 719.355 157.976 718.355C158.51 717.355 158.776 715.882 158.776 713.935C158.776 711.988 158.51 710.535 157.976 709.575C157.456 708.602 156.75 708.115 155.856 708.115C154.976 708.115 154.27 708.602 153.736 709.575C153.203 710.535 152.936 711.988 152.936 713.935C152.936 715.882 153.203 717.355 153.736 718.355C154.27 719.355 154.976 719.855 155.856 719.855Z" fill="white"/>
<path d="M316.512 719.502C315.739 719.502 315.046 719.348 314.432 719.042C313.819 718.735 313.332 718.315 312.972 717.782C312.626 717.248 312.452 716.648 312.452 715.982C312.452 715.408 312.579 714.888 312.832 714.422C313.099 713.955 313.426 713.555 313.812 713.222C314.212 712.875 314.612 712.595 315.012 712.382V712.302C314.546 711.995 314.119 711.602 313.732 711.122C313.359 710.628 313.172 710.042 313.172 709.362C313.172 708.748 313.319 708.208 313.612 707.742C313.919 707.275 314.326 706.908 314.832 706.642C315.339 706.375 315.899 706.242 316.512 706.242C317.606 706.242 318.452 706.562 319.052 707.202C319.666 707.828 319.972 708.622 319.972 709.582C319.972 710.048 319.872 710.495 319.672 710.922C319.472 711.335 319.232 711.708 318.952 712.042C318.672 712.362 318.406 712.622 318.152 712.822V712.902C318.526 713.128 318.879 713.388 319.212 713.682C319.559 713.962 319.839 714.302 320.052 714.702C320.279 715.102 320.392 715.588 320.392 716.162C320.392 716.775 320.226 717.335 319.892 717.842C319.572 718.348 319.119 718.755 318.532 719.062C317.959 719.355 317.286 719.502 316.512 719.502ZM317.452 712.562C317.999 712.122 318.412 711.655 318.692 711.162C318.986 710.668 319.132 710.148 319.132 709.602C319.132 708.895 318.899 708.282 318.432 707.762C317.979 707.242 317.339 706.982 316.512 706.982C315.806 706.982 315.219 707.208 314.752 707.662C314.286 708.102 314.052 708.668 314.052 709.362C314.052 709.962 314.219 710.462 314.552 710.862C314.886 711.248 315.312 711.575 315.832 711.842C316.352 712.095 316.892 712.335 317.452 712.562ZM316.512 718.762C317.419 718.762 318.139 718.508 318.672 718.002C319.219 717.495 319.492 716.875 319.492 716.142C319.492 715.488 319.306 714.962 318.932 714.562C318.559 714.148 318.072 713.802 317.472 713.522C316.886 713.242 316.259 712.975 315.592 712.722C314.939 713.095 314.399 713.548 313.972 714.082C313.546 714.615 313.332 715.235 313.332 715.942C313.332 716.475 313.466 716.955 313.732 717.382C314.012 717.795 314.392 718.128 314.872 718.382C315.352 718.635 315.899 718.762 316.512 718.762ZM323.423 719.502C323.209 719.502 323.009 719.422 322.823 719.262C322.649 719.102 322.563 718.882 322.563 718.602C322.563 718.308 322.649 718.082 322.823 717.922C323.009 717.762 323.209 717.682 323.423 717.682C323.649 717.682 323.843 717.762 324.003 717.922C324.176 718.082 324.263 718.308 324.263 718.602C324.263 718.882 324.176 719.102 324.003 719.262C323.843 719.422 323.649 719.502 323.423 719.502ZM330.378 719.502C329.164 719.502 328.224 718.922 327.558 717.762C326.891 716.602 326.558 714.955 326.558 712.822C326.558 710.702 326.891 709.075 327.558 707.942C328.224 706.808 329.164 706.242 330.378 706.242C331.604 706.242 332.544 706.808 333.198 707.942C333.864 709.075 334.198 710.702 334.198 712.822C334.198 714.955 333.864 716.602 333.198 717.762C332.544 718.922 331.604 719.502 330.378 719.502ZM330.378 718.742C331.271 718.742 331.978 718.242 332.498 717.242C333.031 716.242 333.298 714.768 333.298 712.822C333.298 710.875 333.031 709.422 332.498 708.462C331.978 707.488 331.271 707.002 330.378 707.002C329.498 707.002 328.791 707.488 328.258 708.462C327.724 709.422 327.458 710.875 327.458 712.822C327.458 714.768 327.724 716.242 328.258 717.242C328.791 718.242 329.498 718.742 330.378 718.742Z" fill="white"/>
<path d="M405.1 719.262C405.167 717.542 405.34 716.002 405.62 714.642C405.9 713.282 406.313 712.015 406.86 710.842C407.407 709.655 408.107 708.462 408.96 707.262H402.22V706.482H410.08V707.002C409.32 708.015 408.687 708.995 408.18 709.942C407.687 710.875 407.293 711.822 407 712.782C406.707 713.742 406.487 714.748 406.34 715.802C406.207 716.855 406.113 718.008 406.06 719.262H405.1ZM413.11 719.502C412.897 719.502 412.697 719.422 412.51 719.262C412.337 719.102 412.25 718.882 412.25 718.602C412.25 718.308 412.337 718.082 412.51 717.922C412.697 717.762 412.897 717.682 413.11 717.682C413.337 717.682 413.53 717.762 413.69 717.922C413.863 718.082 413.95 718.308 413.95 718.602C413.95 718.882 413.863 719.102 413.69 719.262C413.53 719.422 413.337 719.502 413.11 719.502ZM420.065 719.502C418.852 719.502 417.912 718.922 417.245 717.762C416.578 716.602 416.245 714.955 416.245 712.822C416.245 710.702 416.578 709.075 417.245 707.942C417.912 706.808 418.852 706.242 420.065 706.242C421.292 706.242 422.232 706.808 422.885 707.942C423.552 709.075 423.885 710.702 423.885 712.822C423.885 714.955 423.552 716.602 422.885 717.762C422.232 718.922 421.292 719.502 420.065 719.502ZM420.065 718.742C420.958 718.742 421.665 718.242 422.185 717.242C422.718 716.242 422.985 714.768 422.985 712.822C422.985 710.875 422.718 709.422 422.185 708.462C421.665 707.488 420.958 707.002 420.065 707.002C419.185 707.002 418.478 707.488 417.945 708.462C417.412 709.422 417.145 710.875 417.145 712.822C417.145 714.768 417.412 716.242 417.945 717.242C418.478 718.242 419.185 718.742 420.065 718.742Z" fill="white"/>
<path d="M493.726 712.302C493.273 712.302 492.773 712.448 492.226 712.742C491.679 713.022 491.146 713.515 490.626 714.222C490.706 715.568 491.013 716.662 491.546 717.502C492.079 718.328 492.866 718.742 493.906 718.742C494.399 718.742 494.839 718.602 495.226 718.322C495.613 718.028 495.919 717.642 496.146 717.162C496.373 716.668 496.486 716.115 496.486 715.502C496.486 714.582 496.266 713.822 495.826 713.222C495.399 712.608 494.699 712.302 493.726 712.302ZM493.886 719.502C492.606 719.502 491.586 718.982 490.826 717.942C490.079 716.888 489.706 715.395 489.706 713.462C489.706 712.115 489.833 710.982 490.086 710.062C490.339 709.142 490.686 708.402 491.126 707.842C491.566 707.282 492.066 706.875 492.626 706.622C493.199 706.368 493.793 706.242 494.406 706.242C495.006 706.242 495.519 706.355 495.946 706.582C496.386 706.808 496.773 707.108 497.106 707.482L496.566 708.082C496.286 707.735 495.959 707.475 495.586 707.302C495.213 707.115 494.819 707.022 494.406 707.022C493.726 707.022 493.093 707.222 492.506 707.622C491.933 708.022 491.473 708.682 491.126 709.602C490.779 710.522 490.606 711.762 490.606 713.322C491.046 712.775 491.546 712.342 492.106 712.022C492.666 711.702 493.239 711.542 493.826 711.542C494.946 711.542 495.819 711.882 496.446 712.562C497.073 713.228 497.386 714.208 497.386 715.502C497.386 716.275 497.226 716.962 496.906 717.562C496.586 718.162 496.159 718.635 495.626 718.982C495.106 719.328 494.526 719.502 493.886 719.502ZM500.436 719.502C500.223 719.502 500.023 719.422 499.836 719.262C499.663 719.102 499.576 718.882 499.576 718.602C499.576 718.308 499.663 718.082 499.836 717.922C500.023 717.762 500.223 717.682 500.436 717.682C500.663 717.682 500.856 717.762 501.016 717.922C501.19 718.082 501.276 718.308 501.276 718.602C501.276 718.882 501.19 719.102 501.016 719.262C500.856 719.422 500.663 719.502 500.436 719.502ZM507.391 719.502C506.178 719.502 505.238 718.922 504.571 717.762C503.905 716.602 503.571 714.955 503.571 712.822C503.571 710.702 503.905 709.075 504.571 707.942C505.238 706.808 506.178 706.242 507.391 706.242C508.618 706.242 509.558 706.808 510.211 707.942C510.878 709.075 511.211 710.702 511.211 712.822C511.211 714.955 510.878 716.602 510.211 717.762C509.558 718.922 508.618 719.502 507.391 719.502ZM507.391 718.742C508.285 718.742 508.991 718.242 509.511 717.242C510.045 716.242 510.311 714.768 510.311 712.822C510.311 710.875 510.045 709.422 509.511 708.462C508.991 707.488 508.285 707.002 507.391 707.002C506.511 707.002 505.805 707.488 505.271 708.462C504.738 709.422 504.471 710.875 504.471 712.822C504.471 714.768 504.738 716.242 505.271 717.242C505.805 718.242 506.511 718.742 507.391 718.742Z" fill="white"/>
<path d="M580.532 719.502C579.852 719.502 579.259 719.415 578.752 719.242C578.259 719.068 577.832 718.848 577.472 718.582C577.112 718.315 576.792 718.048 576.512 717.782L577.012 717.162C577.399 717.548 577.859 717.908 578.392 718.242C578.939 718.562 579.646 718.722 580.512 718.722C581.086 718.722 581.612 718.582 582.092 718.302C582.572 718.008 582.959 717.602 583.252 717.082C583.546 716.562 583.692 715.962 583.692 715.282C583.692 714.255 583.406 713.448 582.832 712.862C582.272 712.275 581.519 711.982 580.572 711.982C580.079 711.982 579.652 712.062 579.292 712.222C578.946 712.368 578.579 712.575 578.192 712.842L577.572 712.462L578.032 706.482H583.932V707.262H578.832L578.432 711.882C578.766 711.682 579.112 711.522 579.472 711.402C579.832 711.268 580.246 711.202 580.712 711.202C581.432 711.202 582.086 711.348 582.672 711.642C583.272 711.922 583.746 712.362 584.092 712.962C584.439 713.548 584.612 714.308 584.612 715.242C584.612 716.148 584.412 716.922 584.012 717.562C583.626 718.188 583.119 718.668 582.492 719.002C581.879 719.335 581.226 719.502 580.532 719.502ZM587.763 719.502C587.549 719.502 587.349 719.422 587.163 719.262C586.989 719.102 586.903 718.882 586.903 718.602C586.903 718.308 586.989 718.082 587.163 717.922C587.349 717.762 587.549 717.682 587.763 717.682C587.989 717.682 588.183 717.762 588.343 717.922C588.516 718.082 588.603 718.308 588.603 718.602C588.603 718.882 588.516 719.102 588.343 719.262C588.183 719.422 587.989 719.502 587.763 719.502ZM594.718 719.502C593.504 719.502 592.564 718.922 591.898 717.762C591.231 716.602 590.898 714.955 590.898 712.822C590.898 710.702 591.231 709.075 591.898 707.942C592.564 706.808 593.504 706.242 594.718 706.242C595.944 706.242 596.884 706.808 597.538 707.942C598.204 709.075 598.538 710.702 598.538 712.822C598.538 714.955 598.204 716.602 597.538 717.762C596.884 718.922 595.944 719.502 594.718 719.502ZM594.718 718.742C595.611 718.742 596.318 718.242 596.838 717.242C597.371 716.242 597.638 714.768 597.638 712.822C597.638 710.875 597.371 709.422 596.838 708.462C596.318 707.488 595.611 707.002 594.718 707.002C593.838 707.002 593.131 707.488 592.598 708.462C592.064 709.422 591.798 710.875 591.798 712.822C591.798 714.768 592.064 716.242 592.598 717.242C593.131 718.242 593.838 718.742 594.718 718.742Z" fill="white"/>
<path d="M667.078 714.682H671.878V710.002C671.878 709.708 671.884 709.342 671.898 708.902C671.924 708.462 671.944 708.095 671.958 707.802H671.878C671.718 708.068 671.551 708.328 671.378 708.582C671.204 708.835 671.024 709.108 670.838 709.402L667.078 714.682ZM671.878 719.262V715.442H665.998V714.922L671.938 706.482H672.738V714.682H674.638V715.442H672.738V719.262H671.878ZM677.448 719.502C677.235 719.502 677.035 719.422 676.848 719.262C676.675 719.102 676.588 718.882 676.588 718.602C676.588 718.308 676.675 718.082 676.848 717.922C677.035 717.762 677.235 717.682 677.448 717.682C677.675 717.682 677.868 717.762 678.028 717.922C678.201 718.082 678.288 718.308 678.288 718.602C678.288 718.882 678.201 719.102 678.028 719.262C677.868 719.422 677.675 719.502 677.448 719.502ZM684.403 719.502C683.19 719.502 682.25 718.922 681.583 717.762C680.916 716.602 680.583 714.955 680.583 712.822C680.583 710.702 680.916 709.075 681.583 707.942C682.25 706.808 683.19 706.242 684.403 706.242C685.63 706.242 686.57 706.808 687.223 707.942C687.89 709.075 688.223 710.702 688.223 712.822C688.223 714.955 687.89 716.602 687.223 717.762C686.57 718.922 685.63 719.502 684.403 719.502ZM684.403 718.742C685.296 718.742 686.003 718.242 686.523 717.242C687.056 716.242 687.323 714.768 687.323 712.822C687.323 710.875 687.056 709.422 686.523 708.462C686.003 707.488 685.296 707.002 684.403 707.002C683.523 707.002 682.816 707.488 682.283 708.462C681.75 709.422 681.483 710.875 681.483 712.822C681.483 714.768 681.75 716.242 682.283 717.242C682.816 718.242 683.523 718.742 684.403 718.742Z" fill="white"/>
<path d="M757.644 719.502C756.964 719.502 756.371 719.415 755.864 719.242C755.357 719.055 754.917 718.822 754.544 718.542C754.184 718.262 753.864 717.982 753.584 717.702L754.104 717.082C754.491 717.495 754.957 717.875 755.504 718.222C756.051 718.555 756.764 718.722 757.644 718.722C758.511 718.722 759.224 718.468 759.784 717.962C760.344 717.442 760.624 716.755 760.624 715.902C760.624 715.022 760.277 714.308 759.584 713.762C758.904 713.215 757.764 712.942 756.164 712.942V712.162C757.151 712.162 757.937 712.042 758.524 711.802C759.111 711.548 759.531 711.208 759.784 710.782C760.037 710.355 760.164 709.888 760.164 709.382C760.164 708.662 759.931 708.088 759.464 707.662C758.997 707.222 758.371 707.002 757.584 707.002C756.997 707.002 756.451 707.142 755.944 707.422C755.451 707.688 755.017 708.015 754.644 708.402L754.124 707.802C754.564 707.375 755.064 707.008 755.624 706.702C756.197 706.395 756.851 706.242 757.584 706.242C758.251 706.242 758.844 706.362 759.364 706.602C759.897 706.842 760.317 707.195 760.624 707.662C760.931 708.115 761.084 708.668 761.084 709.322C761.084 710.162 760.851 710.842 760.384 711.362C759.931 711.868 759.351 712.242 758.644 712.482V712.562C759.177 712.668 759.657 712.875 760.084 713.182C760.524 713.475 760.877 713.848 761.144 714.302C761.411 714.755 761.544 715.282 761.544 715.882C761.544 716.615 761.371 717.255 761.024 717.802C760.677 718.348 760.211 718.768 759.624 719.062C759.037 719.355 758.377 719.502 757.644 719.502ZM764.774 719.502C764.561 719.502 764.361 719.422 764.174 719.262C764.001 719.102 763.914 718.882 763.914 718.602C763.914 718.308 764.001 718.082 764.174 717.922C764.361 717.762 764.561 717.682 764.774 717.682C765.001 717.682 765.194 717.762 765.354 717.922C765.528 718.082 765.614 718.308 765.614 718.602C765.614 718.882 765.528 719.102 765.354 719.262C765.194 719.422 765.001 719.502 764.774 719.502ZM771.729 719.502C770.516 719.502 769.576 718.922 768.909 717.762C768.243 716.602 767.909 714.955 767.909 712.822C767.909 710.702 768.243 709.075 768.909 707.942C769.576 706.808 770.516 706.242 771.729 706.242C772.956 706.242 773.896 706.808 774.549 707.942C775.216 709.075 775.549 710.702 775.549 712.822C775.549 714.955 775.216 716.602 774.549 717.762C773.896 718.922 772.956 719.502 771.729 719.502ZM771.729 718.742C772.623 718.742 773.329 718.242 773.849 717.242C774.383 716.242 774.649 714.768 774.649 712.822C774.649 710.875 774.383 709.422 773.849 708.462C773.329 707.488 772.623 707.002 771.729 707.002C770.849 707.002 770.143 707.488 769.609 708.462C769.076 709.422 768.809 710.875 768.809 712.822C768.809 714.768 769.076 716.242 769.609 717.242C770.143 718.242 770.849 718.742 771.729 718.742Z" fill="white"/>
<path d="M843.511 719.262V718.702C844.911 717.275 846.078 716.042 847.011 715.002C847.945 713.948 848.645 713.008 849.111 712.182C849.578 711.355 849.811 710.575 849.811 709.842C849.811 709.042 849.585 708.368 849.131 707.822C848.691 707.275 847.991 707.002 847.031 707.002C846.458 707.002 845.911 707.162 845.391 707.482C844.885 707.802 844.438 708.202 844.051 708.682L843.471 708.122C843.951 707.588 844.485 707.142 845.071 706.782C845.658 706.422 846.338 706.242 847.111 706.242C848.258 706.242 849.145 706.568 849.771 707.222C850.398 707.875 850.711 708.742 850.711 709.822C850.711 710.662 850.465 711.515 849.971 712.382C849.491 713.248 848.811 714.182 847.931 715.182C847.065 716.182 846.038 717.308 844.851 718.562C845.198 718.535 845.551 718.515 845.911 718.502C846.285 718.475 846.645 718.462 846.991 718.462H851.351V719.262H843.511ZM854.462 719.502C854.248 719.502 854.048 719.422 853.862 719.262C853.688 719.102 853.602 718.882 853.602 718.602C853.602 718.308 853.688 718.082 853.862 717.922C854.048 717.762 854.248 717.682 854.462 717.682C854.688 717.682 854.882 717.762 855.042 717.922C855.215 718.082 855.302 718.308 855.302 718.602C855.302 718.882 855.215 719.102 855.042 719.262C854.882 719.422 854.688 719.502 854.462 719.502ZM861.417 719.502C860.203 719.502 859.263 718.922 858.597 717.762C857.93 716.602 857.597 714.955 857.597 712.822C857.597 710.702 857.93 709.075 858.597 707.942C859.263 706.808 860.203 706.242 861.417 706.242C862.643 706.242 863.583 706.808 864.237 707.942C864.903 709.075 865.237 710.702 865.237 712.822C865.237 714.955 864.903 716.602 864.237 717.762C863.583 718.922 862.643 719.502 861.417 719.502ZM861.417 718.742C862.31 718.742 863.017 718.242 863.537 717.242C864.07 716.242 864.337 714.768 864.337 712.822C864.337 710.875 864.07 709.422 863.537 708.462C863.017 707.488 862.31 707.002 861.417 707.002C860.537 707.002 859.83 707.488 859.297 708.462C858.763 709.422 858.497 710.875 858.497 712.822C858.497 714.768 858.763 716.242 859.297 717.242C859.83 718.242 860.537 718.742 861.417 718.742Z" fill="white"/>
<path d="M938.778 719.262V718.482H941.778V707.882H939.498V707.282C940.018 707.188 940.484 707.075 940.898 706.942C941.311 706.808 941.664 706.655 941.958 706.482H942.678V718.482H945.458V719.262H938.778ZM948.868 719.502C948.655 719.502 948.455 719.422 948.268 719.262C948.095 719.102 948.008 718.882 948.008 718.602C948.008 718.308 948.095 718.082 948.268 717.922C948.455 717.762 948.655 717.682 948.868 717.682C949.095 717.682 949.288 717.762 949.448 717.922C949.621 718.082 949.708 718.308 949.708 718.602C949.708 718.882 949.621 719.102 949.448 719.262C949.288 719.422 949.095 719.502 948.868 719.502ZM955.823 719.502C954.61 719.502 953.67 718.922 953.003 717.762C952.336 716.602 952.003 714.955 952.003 712.822C952.003 710.702 952.336 709.075 953.003 707.942C953.67 706.808 954.61 706.242 955.823 706.242C957.05 706.242 957.99 706.808 958.643 707.942C959.31 709.075 959.643 710.702 959.643 712.822C959.643 714.955 959.31 716.602 958.643 717.762C957.99 718.922 957.05 719.502 955.823 719.502ZM955.823 718.742C956.716 718.742 957.423 718.242 957.943 717.242C958.476 716.242 958.743 714.768 958.743 712.822C958.743 710.875 958.476 709.422 957.943 708.462C957.423 707.488 956.716 707.002 955.823 707.002C954.943 707.002 954.236 707.488 953.703 708.462C953.17 709.422 952.903 710.875 952.903 712.822C952.903 714.768 953.17 716.242 953.703 717.242C954.236 718.242 954.943 718.742 955.823 718.742Z" fill="white"/>
<path d="M1025.66 719.502C1024.45 719.502 1023.51 718.922 1022.84 717.762C1022.18 716.602 1021.84 714.955 1021.84 712.822C1021.84 710.702 1022.18 709.075 1022.84 707.942C1023.51 706.808 1024.45 706.242 1025.66 706.242C1026.89 706.242 1027.83 706.808 1028.48 707.942C1029.15 709.075 1029.48 710.702 1029.48 712.822C1029.48 714.955 1029.15 716.602 1028.48 717.762C1027.83 718.922 1026.89 719.502 1025.66 719.502ZM1025.66 718.742C1026.56 718.742 1027.26 718.242 1027.78 717.242C1028.32 716.242 1028.58 714.768 1028.58 712.822C1028.58 710.875 1028.32 709.422 1027.78 708.462C1027.26 707.488 1026.56 707.002 1025.66 707.002C1024.78 707.002 1024.08 707.488 1023.54 708.462C1023.01 709.422 1022.74 710.875 1022.74 712.822C1022.74 714.768 1023.01 716.242 1023.54 717.242C1024.08 718.242 1024.78 718.742 1025.66 718.742Z" fill="white"/>
<path d="M115.53 601.055L127.37 601.055L127.79 599.175L128.65 599.175L128.65 604.935L127.79 604.935L127.37 603.055L115.53 603.055L115.11 604.935L114.25 604.935L114.25 599.175L115.11 599.175L115.53 601.055ZM127.45 596.054L119.05 596.054L118.67 597.594L117.85 597.594L117.85 594.714L119.85 594.274L119.85 594.194C119.17 593.794 118.637 593.254 118.25 592.574C117.85 591.894 117.65 591.168 117.65 590.394C117.65 589.288 118.01 588.468 118.73 587.934C119.104 587.668 119.63 587.481 120.31 587.374C120.977 587.254 121.884 587.194 123.03 587.194L127.45 587.194L127.83 585.654L128.65 585.654L128.65 590.474L127.83 590.474L127.45 589.134L122.99 589.134C122.124 589.134 121.477 589.161 121.05 589.214C120.624 589.254 120.29 589.334 120.05 589.454C119.73 589.614 119.49 589.848 119.33 590.154C119.157 590.448 119.07 590.801 119.07 591.214C119.07 591.988 119.317 592.654 119.81 593.214C120.304 593.761 121.07 594.061 122.11 594.114L127.45 594.114L127.83 592.774L128.65 592.774L128.65 597.594L127.83 597.594L127.45 596.054ZM118.85 585.029L118.13 585.029L117.85 583.089L115.33 582.829L115.09 581.149L117.85 581.149L117.85 578.589L118.85 578.589L118.85 581.149L125.99 581.149C126.444 581.149 126.757 581.142 126.93 581.129C127.09 581.116 127.224 581.089 127.33 581.049C127.424 581.009 127.49 580.936 127.53 580.829C127.557 580.722 127.57 580.549 127.57 580.309L127.57 578.909L128.15 578.909C128.39 579.549 128.564 580.116 128.67 580.609C128.79 581.089 128.85 581.476 128.85 581.769C128.85 582.369 128.604 582.756 128.11 582.929C127.95 582.982 127.744 583.022 127.49 583.049C127.237 583.076 126.864 583.089 126.37 583.089L118.85 583.089L118.85 585.029ZM123.37 568.453L123.37 575.433C124.344 575.433 125.15 575.299 125.79 575.033C126.404 574.766 126.844 574.386 127.11 573.893C127.377 573.399 127.51 572.866 127.51 572.293C127.51 571.666 127.384 571.093 127.13 570.573C126.864 570.053 126.504 569.586 126.05 569.173L126.53 568.533C127.17 568.999 127.717 569.566 128.17 570.233C128.624 570.899 128.85 571.759 128.85 572.813C128.85 573.733 128.657 574.546 128.27 575.253C127.87 575.959 127.29 576.499 126.53 576.873C126.117 577.073 125.657 577.219 125.15 577.313C124.644 577.406 124.104 577.453 123.53 577.453C121.664 577.453 120.217 577.026 119.19 576.173C118.164 575.306 117.65 574.133 117.65 572.653C117.65 571.293 118.077 570.246 118.93 569.513C119.77 568.766 120.937 568.393 122.43 568.393C122.564 568.393 122.69 568.399 122.81 568.413C122.917 568.413 123.104 568.426 123.37 568.453ZM118.73 572.773C118.73 574.373 119.95 575.253 122.39 575.413L122.39 570.413L121.73 570.413C120.77 570.413 120.03 570.619 119.51 571.033C118.99 571.433 118.73 572.013 118.73 572.773ZM127.45 565.254L119.05 565.254L118.67 566.794L117.85 566.794L117.85 563.914L119.85 563.474L119.85 563.394C119.17 562.994 118.637 562.454 118.25 561.774C117.85 561.094 117.65 560.367 117.65 559.594C117.65 558.487 118.01 557.667 118.73 557.134C119.104 556.867 119.63 556.68 120.31 556.574C120.977 556.454 121.884 556.394 123.03 556.394L127.45 556.394L127.83 554.854L128.65 554.854L128.65 559.674L127.83 559.674L127.45 558.334L122.99 558.334C122.124 558.334 121.477 558.36 121.05 558.414C120.624 558.454 120.29 558.534 120.05 558.654C119.73 558.814 119.49 559.047 119.33 559.354C119.157 559.647 119.07 560 119.07 560.414C119.07 561.187 119.317 561.854 119.81 562.414C120.304 562.96 121.07 563.26 122.11 563.314L127.45 563.314L127.83 561.974L128.65 561.974L128.65 566.794L127.83 566.794L127.45 565.254ZM127.93 549.528C127.93 548.782 127.777 548.175 127.47 547.708C127.164 547.228 126.737 546.988 126.19 546.988C125.75 546.988 125.397 547.135 125.13 547.428C124.864 547.722 124.65 548.088 124.49 548.528C124.317 548.955 124.17 549.388 124.05 549.828C123.877 550.375 123.677 550.902 123.45 551.408C123.21 551.915 122.884 552.328 122.47 552.648C122.057 552.968 121.51 553.128 120.83 553.128C119.87 553.128 119.104 552.782 118.53 552.088C117.944 551.382 117.65 550.402 117.65 549.148C117.65 548.082 117.877 547.242 118.33 546.628C118.77 546.002 119.377 545.688 120.15 545.688C120.564 545.688 120.897 545.782 121.15 545.968C121.39 546.155 121.51 546.422 121.51 546.768C121.51 547.075 121.417 547.328 121.23 547.528C121.044 547.728 120.804 547.828 120.51 547.828C120.257 547.828 120.03 547.762 119.83 547.628C119.617 547.495 119.464 547.322 119.37 547.108C119.09 547.308 118.89 547.568 118.77 547.888C118.637 548.195 118.57 548.595 118.57 549.088C118.57 549.888 118.717 550.488 119.01 550.888C119.29 551.288 119.71 551.488 120.27 551.488C120.67 551.488 120.99 551.395 121.23 551.208C121.457 551.008 121.65 550.722 121.81 550.348C121.97 549.975 122.137 549.515 122.31 548.968C122.444 548.515 122.597 548.068 122.77 547.628C122.93 547.188 123.13 546.788 123.37 546.428C123.61 546.068 123.91 545.782 124.27 545.568C124.63 545.355 125.077 545.248 125.61 545.248C126.29 545.248 126.877 545.435 127.37 545.808C127.85 546.182 128.217 546.695 128.47 547.348C128.724 548.002 128.85 548.755 128.85 549.608C128.85 550.782 128.61 551.728 128.13 552.448C127.65 553.168 127.004 553.528 126.19 553.528C125.764 553.528 125.43 553.435 125.19 553.248C124.937 553.048 124.81 552.768 124.81 552.408C124.81 552.088 124.904 551.822 125.09 551.608C125.277 551.382 125.524 551.268 125.83 551.268C126.084 551.268 126.324 551.342 126.55 551.488C126.777 551.622 126.944 551.788 127.05 551.988C127.304 551.815 127.517 551.508 127.69 551.068C127.85 550.615 127.93 550.102 127.93 549.528ZM119.05 542.09L118.67 543.63L117.85 543.63L117.85 540.15L127.45 540.15L127.83 538.61L128.65 538.61L128.65 543.63L127.83 543.63L127.45 542.09L119.05 542.09ZM114.63 542.37C114.244 542.37 113.937 542.256 113.71 542.03C113.484 541.803 113.37 541.503 113.37 541.13C113.37 540.743 113.484 540.436 113.71 540.21C113.937 539.983 114.244 539.87 114.63 539.87C115.004 539.87 115.304 539.983 115.53 540.21C115.757 540.436 115.87 540.743 115.87 541.13C115.87 541.516 115.764 541.823 115.55 542.05C115.324 542.263 115.017 542.37 114.63 542.37ZM118.85 537.939L118.13 537.939L117.85 535.999L115.33 535.739L115.09 534.059L117.85 534.059L117.85 531.499L118.85 531.499L118.85 534.059L125.99 534.059C126.444 534.059 126.757 534.052 126.93 534.039C127.09 534.026 127.224 533.999 127.33 533.959C127.424 533.919 127.49 533.846 127.53 533.739C127.557 533.632 127.57 533.459 127.57 533.219L127.57 531.819L128.15 531.819C128.39 532.459 128.564 533.026 128.67 533.519C128.79 533.999 128.85 534.386 128.85 534.679C128.85 535.279 128.604 535.666 128.11 535.839C127.95 535.892 127.744 535.932 127.49 535.959C127.237 535.986 126.864 535.999 126.37 535.999L118.85 535.999L118.85 537.939ZM119.05 521.023L128.17 524.343C129.197 524.716 130.024 525.056 130.65 525.363C131.29 525.669 131.75 526.009 132.03 526.383C132.31 526.756 132.45 527.236 132.45 527.823C132.45 528.449 132.284 528.989 131.95 529.443C131.617 529.883 131.197 530.103 130.69 530.103C130.317 530.103 130.004 529.996 129.75 529.783C129.51 529.569 129.39 529.289 129.39 528.943C129.39 528.636 129.47 528.396 129.63 528.223C129.804 528.036 130.037 527.943 130.33 527.943C130.517 527.943 130.697 527.983 130.87 528.063C131.044 528.129 131.197 528.223 131.33 528.343C131.464 528.316 131.55 528.236 131.59 528.103C131.644 527.969 131.67 527.856 131.67 527.763C131.67 527.576 131.624 527.403 131.53 527.243C131.437 527.083 131.237 526.916 130.93 526.743C130.637 526.556 130.17 526.356 129.53 526.143L128.79 525.903L119.05 530.043L118.67 531.243L117.85 531.243L117.85 526.763L118.67 526.603L119.05 528.023L126.89 525.043L126.89 524.963L119.05 522.443L118.67 523.603L117.85 523.603L117.85 519.803L118.67 519.803L119.05 521.023Z" fill="#C3FA50"/>
<path d="M681.65 628.295L684.025 625.303L685.398 623.927V606.052V567.551L684.025 536.842L685.398 553.801L688.146 557.009V623.927H696.39V580.843V485.507V344.795V458.006L698.679 467.632V543.259V623.927L700.511 616.594L704.175 623.927H707.381L711.504 618.427V333.795V442.423L714.25 621.177L717.456 625.303L720.204 621.177L721.579 618.427L720.673 506.591L720.869 530.883L723.41 608.802V621.177L726.65 628.295" stroke="#C726AD" stroke-width="3"/>
<path d="M574.892 829.085C574.892 830.471 575.032 831.751 575.312 832.925C575.592 834.098 575.985 835.138 576.492 836.045C576.998 836.938 577.598 837.665 578.292 838.225C578.985 838.785 579.752 839.151 580.592 839.325L581.112 838.225C580.272 838.051 579.532 837.565 578.892 836.765C578.265 835.965 577.778 834.911 577.432 833.605C577.085 832.298 576.912 830.805 576.912 829.125C576.912 827.458 577.092 825.965 577.452 824.645C577.812 823.311 578.312 822.225 578.952 821.385C579.605 820.545 580.358 820.025 581.212 819.825L580.792 818.845C579.912 819.058 579.105 819.465 578.372 820.065C577.652 820.665 577.032 821.418 576.512 822.325C575.992 823.231 575.592 824.258 575.312 825.405C575.032 826.538 574.892 827.765 574.892 829.085ZM585.414 838.545L587.354 838.925V839.745H581.934V838.925L583.474 838.545V826.545L581.934 826.165V825.345H584.814L585.114 826.885C585.54 826.218 586.02 825.765 586.554 825.525C587.1 825.271 587.714 825.145 588.394 825.145C589.074 825.145 589.687 825.245 590.234 825.445C590.794 825.645 591.247 825.965 591.594 826.405C591.994 826.911 592.307 827.525 592.534 828.245C592.774 828.951 592.894 829.718 592.894 830.545C592.894 831.398 592.76 832.205 592.494 832.965C592.24 833.711 591.894 834.338 591.454 834.845C590.707 835.711 589.634 836.145 588.234 836.145C587.66 836.145 587.14 836.038 586.674 835.825C586.22 835.598 585.8 835.211 585.414 834.665V838.545ZM585.394 830.565C585.394 831.351 585.454 832.038 585.574 832.625C585.694 833.211 585.867 833.685 586.094 834.045C586.307 834.378 586.567 834.638 586.874 834.825C587.194 835.011 587.6 835.105 588.094 835.105C588.547 835.105 588.94 835.025 589.274 834.865C589.62 834.691 589.9 834.458 590.114 834.165C590.354 833.831 590.527 833.365 590.634 832.765C590.74 832.165 590.794 831.478 590.794 830.705C590.794 829.918 590.734 829.238 590.614 828.665C590.494 828.091 590.32 827.618 590.094 827.245C589.88 826.898 589.614 826.638 589.294 826.465C588.987 826.278 588.58 826.185 588.074 826.185C587.62 826.185 587.22 826.265 586.874 826.425C586.54 826.571 586.28 826.798 586.094 827.105C585.88 827.465 585.707 827.938 585.574 828.525C585.454 829.098 585.394 829.778 585.394 830.565ZM597.796 838.545L599.736 838.925V839.745H594.316V838.925L595.856 838.545V826.545L594.316 826.165V825.345H597.196L597.496 826.885C597.923 826.218 598.403 825.765 598.936 825.525C599.483 825.271 600.096 825.145 600.776 825.145C601.456 825.145 602.07 825.245 602.616 825.445C603.176 825.645 603.63 825.965 603.976 826.405C604.376 826.911 604.69 827.525 604.916 828.245C605.156 828.951 605.276 829.718 605.276 830.545C605.276 831.398 605.143 832.205 604.876 832.965C604.623 833.711 604.276 834.338 603.836 834.845C603.09 835.711 602.016 836.145 600.616 836.145C600.043 836.145 599.523 836.038 599.056 835.825C598.603 835.598 598.183 835.211 597.796 834.665V838.545ZM597.776 830.565C597.776 831.351 597.836 832.038 597.956 832.625C598.076 833.211 598.25 833.685 598.476 834.045C598.69 834.378 598.95 834.638 599.256 834.825C599.576 835.011 599.983 835.105 600.476 835.105C600.93 835.105 601.323 835.025 601.656 834.865C602.003 834.691 602.283 834.458 602.496 834.165C602.736 833.831 602.91 833.365 603.016 832.765C603.123 832.165 603.176 831.478 603.176 830.705C603.176 829.918 603.116 829.238 602.996 828.665C602.876 828.091 602.703 827.618 602.476 827.245C602.263 826.898 601.996 826.638 601.676 826.465C601.37 826.278 600.963 826.185 600.456 826.185C600.003 826.185 599.603 826.265 599.256 826.425C598.923 826.571 598.663 826.798 598.476 827.105C598.263 827.465 598.09 827.938 597.956 828.525C597.836 829.098 597.776 829.778 597.776 830.565ZM608.459 834.945V826.545L606.919 826.165V825.345H609.799L610.239 827.345H610.319C610.706 826.678 611.219 826.145 611.859 825.745C612.513 825.345 613.206 825.145 613.939 825.145C614.486 825.145 614.973 825.251 615.399 825.465C615.826 825.665 616.139 825.918 616.339 826.225C616.553 826.558 616.726 826.998 616.859 827.545C617.286 826.798 617.839 826.211 618.519 825.785C619.199 825.358 619.926 825.145 620.699 825.145C621.233 825.145 621.713 825.251 622.139 825.465C622.566 825.665 622.893 825.945 623.119 826.305C623.279 826.558 623.406 826.885 623.499 827.285C623.593 827.685 623.659 828.205 623.699 828.845C623.739 829.471 623.759 830.271 623.759 831.245V834.945L625.299 835.325V836.145H620.479V835.325L621.819 834.945V830.485C621.819 829.618 621.793 828.971 621.739 828.545C621.699 828.118 621.619 827.785 621.499 827.545C621.339 827.225 621.113 826.985 620.819 826.825C620.539 826.651 620.206 826.565 619.819 826.565C619.486 826.565 619.159 826.631 618.839 826.765C618.519 826.898 618.233 827.078 617.979 827.305C617.686 827.571 617.466 827.885 617.319 828.245C617.186 828.605 617.106 829.058 617.079 829.605V834.945L618.419 835.325V836.145H613.799V835.325L615.139 834.945V830.485C615.139 829.618 615.113 828.971 615.059 828.545C615.019 828.118 614.939 827.785 614.819 827.545C614.659 827.225 614.433 826.985 614.139 826.825C613.859 826.651 613.526 826.565 613.139 826.565C612.806 826.565 612.479 826.631 612.159 826.765C611.839 826.898 611.553 827.078 611.299 827.305C611.006 827.571 610.786 827.885 610.639 828.245C610.506 828.605 610.426 829.058 610.399 829.605V834.945L611.739 835.325V836.145H606.919V835.325L608.459 834.945ZM631.645 829.085C631.645 827.765 631.505 826.538 631.225 825.405C630.945 824.258 630.545 823.231 630.025 822.325C629.505 821.418 628.879 820.665 628.145 820.065C627.425 819.465 626.625 819.058 625.745 818.845L625.325 819.825C626.192 820.025 626.945 820.545 627.585 821.385C628.225 822.225 628.725 823.311 629.085 824.645C629.445 825.965 629.625 827.458 629.625 829.125C629.625 830.805 629.445 832.298 629.085 833.605C628.739 834.911 628.252 835.965 627.625 836.765C626.999 837.565 626.265 838.051 625.425 838.225L625.945 839.325C626.785 839.151 627.552 838.785 628.245 838.225C628.939 837.665 629.539 836.938 630.045 836.045C630.552 835.138 630.945 834.098 631.225 832.925C631.505 831.751 631.645 830.471 631.645 829.085Z" fill="white"/>
<path d="M547.492 824.934C547.492 824.096 547.821 823.424 548.479 822.917C549.138 822.406 550.049 822.15 551.214 822.15C551.725 822.15 552.182 822.193 552.585 822.278C552.992 822.363 553.415 822.491 553.856 822.662V824.338C553.572 824.224 553.186 824.101 552.698 823.968C552.21 823.836 551.725 823.77 551.242 823.77C550.674 823.77 550.238 823.878 549.935 824.096C549.632 824.309 549.481 824.584 549.481 824.92C549.481 825.091 549.535 825.275 549.644 825.474C549.758 825.673 549.969 825.879 550.276 826.092C550.589 826.305 551.043 826.52 551.64 826.738C553.075 827.25 554.119 827.96 554.772 828.869C555.43 829.778 555.759 830.886 555.759 832.193V832.392C555.759 833.367 555.57 834.245 555.191 835.027C554.817 835.808 554.277 836.426 553.572 836.88C552.871 837.335 552.028 837.562 551.043 837.562C550.04 837.562 549.183 837.335 548.472 836.88C547.767 836.426 547.227 835.808 546.853 835.027C546.484 834.245 546.299 833.367 546.299 832.392V832.193C546.299 831.435 546.443 830.742 546.732 830.112C547.021 829.482 547.407 828.954 547.89 828.528C548.373 828.102 548.903 827.818 549.481 827.676V827.619C548.87 827.377 548.385 827.027 548.025 826.568C547.67 826.109 547.492 825.564 547.492 824.934ZM548.259 832.193V832.392C548.259 833.045 548.356 833.646 548.55 834.196C548.749 834.74 549.052 835.178 549.46 835.51C549.871 835.836 550.399 836 551.043 836C551.678 836 552.199 835.836 552.606 835.51C553.013 835.178 553.314 834.74 553.508 834.196C553.702 833.646 553.799 833.045 553.799 832.392V832.193C553.799 831.663 553.685 831.139 553.458 830.623C553.231 830.102 552.911 829.653 552.499 829.274C552.087 828.89 551.602 828.642 551.043 828.528C550.399 828.528 549.871 828.699 549.46 829.039C549.052 829.376 548.749 829.823 548.55 830.382C548.356 830.936 548.259 831.539 548.259 832.193Z" fill="white"/>
<path d="M652.47 109.735C652.47 111.122 652.61 112.402 652.89 113.575C653.17 114.748 653.563 115.788 654.07 116.695C654.577 117.588 655.177 118.315 655.87 118.875C656.563 119.435 657.33 119.802 658.17 119.975L658.69 118.875C657.85 118.702 657.11 118.215 656.47 117.415C655.843 116.615 655.357 115.562 655.01 114.255C654.663 112.948 654.49 111.455 654.49 109.775C654.49 108.108 654.67 106.615 655.03 105.295C655.39 103.962 655.89 102.875 656.53 102.035C657.183 101.195 657.937 100.675 658.79 100.475L658.37 99.4949C657.49 99.7083 656.683 100.115 655.95 100.715C655.23 101.315 654.61 102.068 654.09 102.975C653.57 103.882 653.17 104.908 652.89 106.055C652.61 107.188 652.47 108.415 652.47 109.735ZM666.494 119.195V115.455C666.108 115.962 665.668 116.315 665.174 116.515C664.694 116.702 664.161 116.795 663.574 116.795C662.894 116.795 662.281 116.695 661.734 116.495C661.188 116.295 660.734 115.975 660.374 115.535C659.961 115.028 659.628 114.422 659.374 113.715C659.121 112.995 658.994 112.222 658.994 111.395C658.994 110.542 659.114 109.742 659.354 108.995C659.608 108.235 659.941 107.602 660.354 107.095C661.061 106.228 662.134 105.795 663.574 105.795C664.281 105.795 664.908 105.962 665.454 106.295C666.001 106.615 666.481 107.202 666.894 108.055L667.494 105.995H668.434V119.195L669.974 119.575V120.395H664.554V119.575L666.494 119.195ZM666.494 111.375C666.494 109.788 666.261 108.628 665.794 107.895C665.581 107.548 665.321 107.288 665.014 107.115C664.708 106.928 664.301 106.835 663.794 106.835C663.341 106.835 662.941 106.915 662.594 107.075C662.261 107.235 661.988 107.468 661.774 107.775C661.534 108.108 661.361 108.575 661.254 109.175C661.148 109.762 661.094 110.448 661.094 111.235C661.094 112.795 661.328 113.948 661.794 114.695C662.021 115.028 662.288 115.288 662.594 115.475C662.914 115.662 663.321 115.755 663.814 115.755C664.281 115.755 664.681 115.682 665.014 115.535C665.361 115.375 665.621 115.142 665.794 114.835C666.021 114.475 666.194 114.008 666.314 113.435C666.434 112.848 666.494 112.162 666.494 111.375ZM673.946 105.995V111.655C673.946 112.508 673.966 113.155 674.006 113.595C674.059 114.022 674.146 114.355 674.266 114.595C674.413 114.915 674.633 115.162 674.926 115.335C675.219 115.495 675.559 115.575 675.946 115.575C676.306 115.575 676.653 115.508 676.986 115.375C677.319 115.242 677.613 115.062 677.866 114.835C678.413 114.342 678.713 113.575 678.766 112.535V107.195L677.026 106.815V105.995H680.706V115.595L682.246 115.975V116.795L679.146 116.995L678.926 114.795H678.846C678.459 115.475 677.933 116.015 677.266 116.415C676.599 116.802 675.886 116.995 675.126 116.995C674.619 116.995 674.153 116.902 673.726 116.715C673.313 116.515 672.986 116.248 672.746 115.915C672.493 115.542 672.306 115.015 672.186 114.335C672.066 113.655 672.006 112.748 672.006 111.615V107.195L670.666 106.815V105.995H673.946ZM683.502 114.455C683.502 113.415 683.989 112.595 684.962 111.995C685.936 111.395 687.549 110.928 689.802 110.595C689.749 109.808 689.676 109.195 689.582 108.755C689.489 108.315 689.369 107.962 689.222 107.695C689.036 107.348 688.776 107.095 688.442 106.935C688.109 106.762 687.749 106.675 687.362 106.675C686.989 106.675 686.649 106.742 686.342 106.875C686.049 107.008 685.849 107.188 685.742 107.415C685.929 107.548 686.062 107.722 686.142 107.935C686.236 108.148 686.282 108.348 686.282 108.535C686.282 108.868 686.169 109.135 685.942 109.335C685.729 109.522 685.462 109.615 685.142 109.615C684.822 109.615 684.556 109.508 684.342 109.295C684.142 109.082 684.042 108.782 684.042 108.395C684.042 107.835 684.236 107.362 684.622 106.975C685.009 106.588 685.496 106.295 686.082 106.095C686.682 105.895 687.282 105.795 687.882 105.795C688.429 105.795 688.929 105.882 689.382 106.055C689.849 106.215 690.242 106.455 690.562 106.775C691.389 107.602 691.802 109.068 691.802 111.175V114.075C691.802 114.728 691.842 115.182 691.922 115.435C692.016 115.688 692.209 115.815 692.502 115.815H693.402V116.415C692.442 116.802 691.696 116.995 691.162 116.995C690.749 116.995 690.469 116.848 690.322 116.555C690.189 116.248 690.122 115.668 690.122 114.815H690.042C689.629 115.495 689.082 116.028 688.402 116.415C687.722 116.802 686.989 116.995 686.202 116.995C685.362 116.995 684.702 116.768 684.222 116.315C683.742 115.862 683.502 115.242 683.502 114.455ZM687.042 115.835C687.416 115.835 687.802 115.742 688.202 115.555C688.616 115.355 688.962 115.082 689.242 114.735C689.456 114.468 689.609 114.155 689.702 113.795C689.809 113.422 689.862 112.988 689.862 112.495C689.862 112.268 689.856 112.048 689.842 111.835C689.829 111.608 689.809 111.395 689.782 111.195C688.702 111.408 687.856 111.642 687.242 111.895C686.629 112.135 686.196 112.428 685.942 112.775C685.689 113.108 685.562 113.528 685.562 114.035C685.562 114.608 685.689 115.055 685.942 115.375C686.209 115.682 686.576 115.835 687.042 115.835ZM700.224 107.155C700.171 107.115 700.104 107.088 700.024 107.075C699.958 107.048 699.891 107.035 699.824 107.035C699.664 107.035 699.491 107.108 699.304 107.255C699.118 107.402 698.938 107.602 698.764 107.855C698.591 108.095 698.431 108.375 698.284 108.695C698.098 109.148 697.951 109.648 697.844 110.195C697.738 110.728 697.684 111.282 697.684 111.855V115.595L699.844 115.975V116.795H694.204V115.975L695.744 115.595V107.195L694.204 106.815V105.995H697.084L697.524 108.635H697.604C697.911 107.728 698.324 107.028 698.844 106.535C699.364 106.042 699.938 105.795 700.564 105.795C701.084 105.795 701.518 105.962 701.864 106.295C702.211 106.615 702.384 107.048 702.384 107.595C702.384 107.995 702.278 108.315 702.064 108.555C701.864 108.782 701.591 108.895 701.244 108.895C700.898 108.895 700.624 108.788 700.424 108.575C700.224 108.348 700.124 108.055 700.124 107.695C700.124 107.615 700.131 107.542 700.144 107.475C700.158 107.395 700.184 107.288 700.224 107.155ZM702.825 106.995V106.275L704.765 105.995L705.025 103.475L706.705 103.235V105.995H709.265V106.995H706.705V114.135C706.705 114.588 706.711 114.902 706.725 115.075C706.738 115.235 706.765 115.368 706.805 115.475C706.845 115.568 706.918 115.635 707.025 115.675C707.131 115.702 707.305 115.715 707.545 115.715H708.945V116.295C708.305 116.535 707.738 116.708 707.245 116.815C706.765 116.935 706.378 116.995 706.085 116.995C705.485 116.995 705.098 116.748 704.925 116.255C704.871 116.095 704.831 115.888 704.805 115.635C704.778 115.382 704.765 115.008 704.765 114.515V106.995H702.825ZM719.401 111.515H712.421C712.421 112.488 712.554 113.295 712.821 113.935C713.088 114.548 713.468 114.988 713.961 115.255C714.454 115.522 714.988 115.655 715.561 115.655C716.188 115.655 716.761 115.528 717.281 115.275C717.801 115.008 718.268 114.648 718.681 114.195L719.321 114.675C718.854 115.315 718.288 115.862 717.621 116.315C716.954 116.768 716.094 116.995 715.041 116.995C714.121 116.995 713.308 116.802 712.601 116.415C711.894 116.015 711.354 115.435 710.981 114.675C710.781 114.262 710.634 113.802 710.541 113.295C710.448 112.788 710.401 112.248 710.401 111.675C710.401 109.808 710.828 108.362 711.681 107.335C712.548 106.308 713.721 105.795 715.201 105.795C716.561 105.795 717.608 106.222 718.341 107.075C719.088 107.915 719.461 109.082 719.461 110.575C719.461 110.708 719.454 110.835 719.441 110.955C719.441 111.062 719.428 111.248 719.401 111.515ZM715.081 106.875C713.481 106.875 712.601 108.095 712.441 110.535H717.441V109.875C717.441 108.915 717.234 108.175 716.821 107.655C716.421 107.135 715.841 106.875 715.081 106.875ZM720.52 106.995V106.275L722.46 105.995L722.72 103.475L724.4 103.235V105.995H726.96V106.995H724.4V114.135C724.4 114.588 724.407 114.902 724.42 115.075C724.433 115.235 724.46 115.368 724.5 115.475C724.54 115.568 724.613 115.635 724.72 115.675C724.827 115.702 725 115.715 725.24 115.715H726.64V116.295C726 116.535 725.433 116.708 724.94 116.815C724.46 116.935 724.073 116.995 723.78 116.995C723.18 116.995 722.793 116.748 722.62 116.255C722.567 116.095 722.527 115.888 722.5 115.635C722.473 115.382 722.46 115.008 722.46 114.515V106.995H720.52ZM733.149 109.735C733.149 108.415 733.009 107.188 732.729 106.055C732.449 104.908 732.049 103.882 731.529 102.975C731.009 102.068 730.383 101.315 729.649 100.715C728.929 100.115 728.129 99.7083 727.249 99.4949L726.829 100.475C727.696 100.675 728.449 101.195 729.089 102.035C729.729 102.875 730.229 103.962 730.589 105.295C730.949 106.615 731.129 108.108 731.129 109.775C731.129 111.455 730.949 112.948 730.589 114.255C730.243 115.562 729.756 116.615 729.129 117.415C728.503 118.215 727.769 118.702 726.929 118.875L727.449 119.975C728.289 119.802 729.056 119.435 729.749 118.875C730.443 118.315 731.043 117.588 731.549 116.695C732.056 115.788 732.449 114.748 732.729 113.575C733.009 112.402 733.149 111.122 733.149 109.735Z" fill="#C726AD"/>
<defs>
<filter id="filter0_d_794_6817" x="141.65" y="475.795" width="886" height="161.5" filterUnits="userSpaceOnUse" color-interpolation-filters="sRGB">
<feFlood flood-opacity="0" result="BackgroundImageFix"/>
<feColorMatrix in="SourceAlpha" type="matrix" values="0 0 0 0 0 0 0 0 0 0 0 0 0 0 0 0 0 0 127 0" result="hardAlpha"/>
<feOffset dy="4"/>
<feGaussianBlur stdDeviation="2"/>
<feComposite in2="hardAlpha" operator="out"/>
<feColorMatrix type="matrix" values="0 0 0 0 0 0 0 0 0 0 0 0 0 0 0 0 0 0 0.25 0"/>
<feBlend mode="normal" in2="BackgroundImageFix" result="effect1_dropShadow_794_6817"/>
<feBlend mode="normal" in="SourceGraphic" in2="effect1_dropShadow_794_6817" result="shape"/>
</filter>
</defs>
</svg>
