<svg width="1123" height="901" viewBox="0 0 1123 901" fill="none" xmlns="http://www.w3.org/2000/svg">
<rect width="1122" height="900" transform="translate(0.5 0.308594)" fill="#0C0C31"/>
<g filter="url(#filter0_d_829_4910)">
<path d="M727.254 639.656L795.491 639.705H811.062L813.81 622.239V536.07L815.642 531.028V488.86V525.986L817.474 523.695L818.848 639.705H826.175H830.297H898.077M152.5 639.705L685.578 639.656M946.164 639.705H984.633H1023.1" stroke="#C3FA50" stroke-width="3"/>
</g>
<path d="M899.5 641.309L905.038 613.333V389.979L907.346 621.906L910.577 624.162L913.808 639.052H918.423V624.162L920.731 616.04V566.857M916.115 123.309L920.731 566.857M947.5 639.052H941.962H938.269L934.115 630.479L931.808 419.76L934.115 624.162V628.223L931.808 639.052L929.5 636.796L924.423 634.54V628.223L920.731 566.857" stroke="#C3FA50" stroke-width="3"/>
<path d="M684.205 639.656L685.579 639.197L686.953 637.822V619.947V581.446L685.579 550.736L686.953 567.695L689.701 570.904V637.822H697.944V594.738V499.402V358.69V471.901L700.234 481.526V557.153V637.822L702.066 630.489L705.73 637.822H708.936L713.058 632.322V347.689V456.317L715.805 635.072L719.011 639.197L721.759 635.072L723.134 632.322L722.227 520.486L722.424 544.778L724.964 622.697V635.072L727.712 639.656" stroke="#C3FA50" stroke-width="3"/>
<path d="M145.334 681.643L1025.33 681.643" stroke="white" stroke-width="2"/>
<line x1="588.643" y1="681.505" x2="588.643" y2="703.775" stroke="white" stroke-width="2"/>
<line x1="411.631" y1="681.505" x2="411.631" y2="703.775" stroke="white" stroke-width="2"/>
<line x1="234.617" y1="681.505" x2="234.617" y2="703.775" stroke="white" stroke-width="2"/>
<line x1="144.932" y1="680.391" x2="144.932" y2="702.662" stroke="white" stroke-width="2"/>
<line x1="855.342" y1="681.505" x2="855.342" y2="703.775" stroke="white" stroke-width="2"/>
<line x1="678.328" y1="681.505" x2="678.328" y2="703.775" stroke="white" stroke-width="2"/>
<line x1="501.316" y1="681.505" x2="501.316" y2="703.775" stroke="white" stroke-width="2"/>
<line x1="323.125" y1="681.505" x2="323.125" y2="703.775" stroke="white" stroke-width="2"/>
<line x1="945.027" y1="681.505" x2="945.027" y2="703.775" stroke="white" stroke-width="2"/>
<line x1="1024.09" y1="681.505" x2="1024.09" y2="703.775" stroke="white" stroke-width="2"/>
<line x1="766.836" y1="681.505" x2="766.836" y2="703.775" stroke="white" stroke-width="2"/>
<path d="M223.556 724.849C223.556 725.782 223.776 726.555 224.216 727.169C224.656 727.769 225.363 728.069 226.336 728.069C226.803 728.069 227.31 727.915 227.856 727.609C228.416 727.302 228.943 726.809 229.436 726.129C229.356 724.782 229.043 723.695 228.496 722.869C227.963 722.042 227.176 721.629 226.136 721.629C225.656 721.629 225.216 721.775 224.816 722.069C224.43 722.349 224.123 722.729 223.896 723.209C223.67 723.689 223.556 724.235 223.556 724.849ZM225.636 734.129C225.05 734.129 224.53 734.015 224.076 733.789C223.636 733.562 223.256 733.262 222.936 732.889L223.476 732.289C223.756 732.635 224.083 732.902 224.456 733.089C224.843 733.262 225.243 733.349 225.656 733.349C226.336 733.349 226.963 733.149 227.536 732.749C228.11 732.349 228.57 731.689 228.916 730.769C229.276 729.849 229.456 728.609 229.456 727.049C229.016 727.582 228.516 728.009 227.956 728.329C227.396 728.649 226.816 728.809 226.216 728.809C225.11 728.809 224.243 728.475 223.616 727.809C222.99 727.129 222.676 726.142 222.676 724.849C222.676 724.075 222.836 723.389 223.156 722.789C223.476 722.189 223.903 721.722 224.436 721.389C224.97 721.042 225.55 720.869 226.176 720.869C227.443 720.869 228.45 721.389 229.196 722.429C229.956 723.455 230.336 724.942 230.336 726.889C230.336 728.675 230.116 730.102 229.676 731.169C229.236 732.222 228.656 732.982 227.936 733.449C227.23 733.902 226.463 734.129 225.636 734.129ZM233.587 734.129C233.373 734.129 233.173 734.049 232.987 733.889C232.813 733.729 232.727 733.509 232.727 733.229C232.727 732.935 232.813 732.709 232.987 732.549C233.173 732.389 233.373 732.309 233.587 732.309C233.813 732.309 234.007 732.389 234.167 732.549C234.34 732.709 234.427 732.935 234.427 733.229C234.427 733.509 234.34 733.729 234.167 733.889C234.007 734.049 233.813 734.129 233.587 734.129ZM240.542 734.129C239.328 734.129 238.388 733.549 237.722 732.389C237.055 731.229 236.722 729.582 236.722 727.449C236.722 725.329 237.055 723.702 237.722 722.569C238.388 721.435 239.328 720.869 240.542 720.869C241.768 720.869 242.708 721.435 243.362 722.569C244.028 723.702 244.362 725.329 244.362 727.449C244.362 729.582 244.028 731.229 243.362 732.389C242.708 733.549 241.768 734.129 240.542 734.129ZM240.542 733.369C241.435 733.369 242.142 732.869 242.662 731.869C243.195 730.869 243.462 729.395 243.462 727.449C243.462 725.502 243.195 724.049 242.662 723.089C242.142 722.115 241.435 721.629 240.542 721.629C239.662 721.629 238.955 722.115 238.422 723.089C237.888 724.049 237.622 725.502 237.622 727.449C237.622 729.395 237.888 730.869 238.422 731.869C238.955 732.869 239.662 733.369 240.542 733.369Z" fill="white"/>
<path d="M129.09 733.889V733.109H132.09V722.509H129.81V721.909C130.33 721.815 130.797 721.702 131.21 721.569C131.623 721.435 131.977 721.282 132.27 721.109H132.99V733.109H135.77V733.889H129.09ZM141.76 734.129C140.547 734.129 139.607 733.549 138.94 732.389C138.274 731.229 137.94 729.582 137.94 727.449C137.94 725.329 138.274 723.702 138.94 722.569C139.607 721.435 140.547 720.869 141.76 720.869C142.987 720.869 143.927 721.435 144.58 722.569C145.247 723.702 145.58 725.329 145.58 727.449C145.58 729.582 145.247 731.229 144.58 732.389C143.927 733.549 142.987 734.129 141.76 734.129ZM141.76 733.369C142.654 733.369 143.36 732.869 143.88 731.869C144.414 730.869 144.68 729.395 144.68 727.449C144.68 725.502 144.414 724.049 143.88 723.089C143.36 722.115 142.654 721.629 141.76 721.629C140.88 721.629 140.174 722.115 139.64 723.089C139.107 724.049 138.84 725.502 138.84 727.449C138.84 729.395 139.107 730.869 139.64 731.869C140.174 732.869 140.88 733.369 141.76 733.369ZM148.751 734.129C148.537 734.129 148.337 734.049 148.151 733.889C147.977 733.729 147.891 733.509 147.891 733.229C147.891 732.935 147.977 732.709 148.151 732.549C148.337 732.389 148.537 732.309 148.751 732.309C148.977 732.309 149.171 732.389 149.331 732.549C149.504 732.709 149.591 732.935 149.591 733.229C149.591 733.509 149.504 733.729 149.331 733.889C149.171 734.049 148.977 734.129 148.751 734.129ZM155.706 734.129C154.492 734.129 153.552 733.549 152.886 732.389C152.219 731.229 151.886 729.582 151.886 727.449C151.886 725.329 152.219 723.702 152.886 722.569C153.552 721.435 154.492 720.869 155.706 720.869C156.932 720.869 157.872 721.435 158.526 722.569C159.192 723.702 159.526 725.329 159.526 727.449C159.526 729.582 159.192 731.229 158.526 732.389C157.872 733.549 156.932 734.129 155.706 734.129ZM155.706 733.369C156.599 733.369 157.306 732.869 157.826 731.869C158.359 730.869 158.626 729.395 158.626 727.449C158.626 725.502 158.359 724.049 157.826 723.089C157.306 722.115 156.599 721.629 155.706 721.629C154.826 721.629 154.119 722.115 153.586 723.089C153.052 724.049 152.786 725.502 152.786 727.449C152.786 729.395 153.052 730.869 153.586 731.869C154.119 732.869 154.826 733.369 155.706 733.369Z" fill="white"/>
<path d="M316.362 733.015C315.589 733.015 314.895 732.862 314.282 732.555C313.669 732.248 313.182 731.828 312.822 731.295C312.475 730.762 312.302 730.162 312.302 729.495C312.302 728.922 312.429 728.402 312.682 727.935C312.949 727.468 313.275 727.068 313.662 726.735C314.062 726.388 314.462 726.108 314.862 725.895V725.815C314.395 725.508 313.969 725.115 313.582 724.635C313.209 724.142 313.022 723.555 313.022 722.875C313.022 722.262 313.169 721.722 313.462 721.255C313.769 720.788 314.175 720.422 314.682 720.155C315.189 719.888 315.749 719.755 316.362 719.755C317.455 719.755 318.302 720.075 318.902 720.715C319.515 721.342 319.822 722.135 319.822 723.095C319.822 723.562 319.722 724.008 319.522 724.435C319.322 724.848 319.082 725.222 318.802 725.555C318.522 725.875 318.255 726.135 318.002 726.335V726.415C318.375 726.642 318.729 726.902 319.062 727.195C319.409 727.475 319.689 727.815 319.902 728.215C320.129 728.615 320.242 729.102 320.242 729.675C320.242 730.288 320.075 730.848 319.742 731.355C319.422 731.862 318.969 732.268 318.382 732.575C317.809 732.868 317.135 733.015 316.362 733.015ZM317.302 726.075C317.849 725.635 318.262 725.168 318.542 724.675C318.835 724.182 318.982 723.662 318.982 723.115C318.982 722.408 318.749 721.795 318.282 721.275C317.829 720.755 317.189 720.495 316.362 720.495C315.655 720.495 315.069 720.722 314.602 721.175C314.135 721.615 313.902 722.182 313.902 722.875C313.902 723.475 314.069 723.975 314.402 724.375C314.735 724.762 315.162 725.088 315.682 725.355C316.202 725.608 316.742 725.848 317.302 726.075ZM316.362 732.275C317.269 732.275 317.989 732.022 318.522 731.515C319.069 731.008 319.342 730.388 319.342 729.655C319.342 729.002 319.155 728.475 318.782 728.075C318.409 727.662 317.922 727.315 317.322 727.035C316.735 726.755 316.109 726.488 315.442 726.235C314.789 726.608 314.249 727.062 313.822 727.595C313.395 728.128 313.182 728.748 313.182 729.455C313.182 729.988 313.315 730.468 313.582 730.895C313.862 731.308 314.242 731.642 314.722 731.895C315.202 732.148 315.749 732.275 316.362 732.275ZM323.272 733.015C323.059 733.015 322.859 732.935 322.672 732.775C322.499 732.615 322.412 732.395 322.412 732.115C322.412 731.822 322.499 731.595 322.672 731.435C322.859 731.275 323.059 731.195 323.272 731.195C323.499 731.195 323.692 731.275 323.852 731.435C324.026 731.595 324.112 731.822 324.112 732.115C324.112 732.395 324.026 732.615 323.852 732.775C323.692 732.935 323.499 733.015 323.272 733.015ZM330.227 733.015C329.014 733.015 328.074 732.435 327.407 731.275C326.741 730.115 326.407 728.468 326.407 726.335C326.407 724.215 326.741 722.588 327.407 721.455C328.074 720.322 329.014 719.755 330.227 719.755C331.454 719.755 332.394 720.322 333.047 721.455C333.714 722.588 334.047 724.215 334.047 726.335C334.047 728.468 333.714 730.115 333.047 731.275C332.394 732.435 331.454 733.015 330.227 733.015ZM330.227 732.255C331.121 732.255 331.827 731.755 332.347 730.755C332.881 729.755 333.147 728.282 333.147 726.335C333.147 724.388 332.881 722.935 332.347 721.975C331.827 721.002 331.121 720.515 330.227 720.515C329.347 720.515 328.641 721.002 328.107 721.975C327.574 722.935 327.307 724.388 327.307 726.335C327.307 728.282 327.574 729.755 328.107 730.755C328.641 731.755 329.347 732.255 330.227 732.255Z" fill="white"/>
<path d="M404.949 732.775C405.016 731.055 405.189 729.515 405.469 728.155C405.749 726.795 406.163 725.528 406.709 724.355C407.256 723.168 407.956 721.975 408.809 720.775H402.069V719.995H409.929V720.515C409.169 721.528 408.536 722.508 408.029 723.455C407.536 724.388 407.143 725.335 406.849 726.295C406.556 727.255 406.336 728.262 406.189 729.315C406.056 730.368 405.963 731.522 405.909 732.775H404.949ZM412.96 733.015C412.746 733.015 412.546 732.935 412.36 732.775C412.186 732.615 412.1 732.395 412.1 732.115C412.1 731.822 412.186 731.595 412.36 731.435C412.546 731.275 412.746 731.195 412.96 731.195C413.186 731.195 413.38 731.275 413.54 731.435C413.713 731.595 413.8 731.822 413.8 732.115C413.8 732.395 413.713 732.615 413.54 732.775C413.38 732.935 413.186 733.015 412.96 733.015ZM419.915 733.015C418.701 733.015 417.761 732.435 417.095 731.275C416.428 730.115 416.095 728.468 416.095 726.335C416.095 724.215 416.428 722.588 417.095 721.455C417.761 720.322 418.701 719.755 419.915 719.755C421.141 719.755 422.081 720.322 422.735 721.455C423.401 722.588 423.735 724.215 423.735 726.335C423.735 728.468 423.401 730.115 422.735 731.275C422.081 732.435 421.141 733.015 419.915 733.015ZM419.915 732.255C420.808 732.255 421.515 731.755 422.035 730.755C422.568 729.755 422.835 728.282 422.835 726.335C422.835 724.388 422.568 722.935 422.035 721.975C421.515 721.002 420.808 720.515 419.915 720.515C419.035 720.515 418.328 721.002 417.795 721.975C417.261 722.935 416.995 724.388 416.995 726.335C416.995 728.282 417.261 729.755 417.795 730.755C418.328 731.755 419.035 732.255 419.915 732.255Z" fill="white"/>
<path d="M493.576 725.815C493.122 725.815 492.622 725.962 492.076 726.255C491.529 726.535 490.996 727.028 490.476 727.735C490.556 729.082 490.862 730.175 491.396 731.015C491.929 731.842 492.716 732.255 493.756 732.255C494.249 732.255 494.689 732.115 495.076 731.835C495.462 731.542 495.769 731.155 495.996 730.675C496.222 730.182 496.336 729.628 496.336 729.015C496.336 728.095 496.116 727.335 495.676 726.735C495.249 726.122 494.549 725.815 493.576 725.815ZM493.736 733.015C492.456 733.015 491.436 732.495 490.676 731.455C489.929 730.402 489.556 728.908 489.556 726.975C489.556 725.628 489.682 724.495 489.936 723.575C490.189 722.655 490.536 721.915 490.976 721.355C491.416 720.795 491.916 720.388 492.476 720.135C493.049 719.882 493.642 719.755 494.256 719.755C494.856 719.755 495.369 719.868 495.796 720.095C496.236 720.322 496.622 720.622 496.956 720.995L496.416 721.595C496.136 721.248 495.809 720.988 495.436 720.815C495.062 720.628 494.669 720.535 494.256 720.535C493.576 720.535 492.942 720.735 492.356 721.135C491.782 721.535 491.322 722.195 490.976 723.115C490.629 724.035 490.456 725.275 490.456 726.835C490.896 726.288 491.396 725.855 491.956 725.535C492.516 725.215 493.089 725.055 493.676 725.055C494.796 725.055 495.669 725.395 496.296 726.075C496.922 726.742 497.236 727.722 497.236 729.015C497.236 729.788 497.076 730.475 496.756 731.075C496.436 731.675 496.009 732.148 495.476 732.495C494.956 732.842 494.376 733.015 493.736 733.015ZM500.286 733.015C500.073 733.015 499.873 732.935 499.686 732.775C499.513 732.615 499.426 732.395 499.426 732.115C499.426 731.822 499.513 731.595 499.686 731.435C499.873 731.275 500.073 731.195 500.286 731.195C500.513 731.195 500.706 731.275 500.866 731.435C501.039 731.595 501.126 731.822 501.126 732.115C501.126 732.395 501.039 732.615 500.866 732.775C500.706 732.935 500.513 733.015 500.286 733.015ZM507.241 733.015C506.028 733.015 505.088 732.435 504.421 731.275C503.754 730.115 503.421 728.468 503.421 726.335C503.421 724.215 503.754 722.588 504.421 721.455C505.088 720.322 506.028 719.755 507.241 719.755C508.468 719.755 509.408 720.322 510.061 721.455C510.728 722.588 511.061 724.215 511.061 726.335C511.061 728.468 510.728 730.115 510.061 731.275C509.408 732.435 508.468 733.015 507.241 733.015ZM507.241 732.255C508.134 732.255 508.841 731.755 509.361 730.755C509.894 729.755 510.161 728.282 510.161 726.335C510.161 724.388 509.894 722.935 509.361 721.975C508.841 721.002 508.134 720.515 507.241 720.515C506.361 720.515 505.654 721.002 505.121 721.975C504.588 722.935 504.321 724.388 504.321 726.335C504.321 728.282 504.588 729.755 505.121 730.755C505.654 731.755 506.361 732.255 507.241 732.255Z" fill="white"/>
<path d="M580.382 733.015C579.702 733.015 579.108 732.928 578.602 732.755C578.108 732.582 577.682 732.362 577.322 732.095C576.962 731.828 576.642 731.562 576.362 731.295L576.862 730.675C577.248 731.062 577.708 731.422 578.242 731.755C578.788 732.075 579.495 732.235 580.362 732.235C580.935 732.235 581.462 732.095 581.942 731.815C582.422 731.522 582.808 731.115 583.102 730.595C583.395 730.075 583.542 729.475 583.542 728.795C583.542 727.768 583.255 726.962 582.682 726.375C582.122 725.788 581.368 725.495 580.422 725.495C579.928 725.495 579.502 725.575 579.142 725.735C578.795 725.882 578.428 726.088 578.042 726.355L577.422 725.975L577.882 719.995H583.782V720.775H578.682L578.282 725.395C578.615 725.195 578.962 725.035 579.322 724.915C579.682 724.782 580.095 724.715 580.562 724.715C581.282 724.715 581.935 724.862 582.522 725.155C583.122 725.435 583.595 725.875 583.942 726.475C584.288 727.062 584.462 727.822 584.462 728.755C584.462 729.662 584.262 730.435 583.862 731.075C583.475 731.702 582.968 732.182 582.342 732.515C581.728 732.848 581.075 733.015 580.382 733.015ZM587.612 733.015C587.399 733.015 587.199 732.935 587.012 732.775C586.839 732.615 586.752 732.395 586.752 732.115C586.752 731.822 586.839 731.595 587.012 731.435C587.199 731.275 587.399 731.195 587.612 731.195C587.839 731.195 588.032 731.275 588.192 731.435C588.365 731.595 588.452 731.822 588.452 732.115C588.452 732.395 588.365 732.615 588.192 732.775C588.032 732.935 587.839 733.015 587.612 733.015ZM594.567 733.015C593.354 733.015 592.414 732.435 591.747 731.275C591.08 730.115 590.747 728.468 590.747 726.335C590.747 724.215 591.08 722.588 591.747 721.455C592.414 720.322 593.354 719.755 594.567 719.755C595.794 719.755 596.734 720.322 597.387 721.455C598.054 722.588 598.387 724.215 598.387 726.335C598.387 728.468 598.054 730.115 597.387 731.275C596.734 732.435 595.794 733.015 594.567 733.015ZM594.567 732.255C595.46 732.255 596.167 731.755 596.687 730.755C597.22 729.755 597.487 728.282 597.487 726.335C597.487 724.388 597.22 722.935 596.687 721.975C596.167 721.002 595.46 720.515 594.567 720.515C593.687 720.515 592.98 721.002 592.447 721.975C591.914 722.935 591.647 724.388 591.647 726.335C591.647 728.282 591.914 729.755 592.447 730.755C592.98 731.755 593.687 732.255 594.567 732.255Z" fill="white"/>
<path d="M666.927 728.195H671.727V723.515C671.727 723.222 671.734 722.855 671.747 722.415C671.774 721.975 671.794 721.608 671.807 721.315H671.727C671.567 721.582 671.401 721.842 671.227 722.095C671.054 722.348 670.874 722.622 670.687 722.915L666.927 728.195ZM671.727 732.775V728.955H665.847V728.435L671.787 719.995H672.587V728.195H674.487V728.955H672.587V732.775H671.727ZM677.298 733.015C677.084 733.015 676.884 732.935 676.698 732.775C676.524 732.615 676.438 732.395 676.438 732.115C676.438 731.822 676.524 731.595 676.698 731.435C676.884 731.275 677.084 731.195 677.298 731.195C677.524 731.195 677.718 731.275 677.878 731.435C678.051 731.595 678.138 731.822 678.138 732.115C678.138 732.395 678.051 732.615 677.878 732.775C677.718 732.935 677.524 733.015 677.298 733.015ZM684.253 733.015C683.039 733.015 682.099 732.435 681.433 731.275C680.766 730.115 680.433 728.468 680.433 726.335C680.433 724.215 680.766 722.588 681.433 721.455C682.099 720.322 683.039 719.755 684.253 719.755C685.479 719.755 686.419 720.322 687.073 721.455C687.739 722.588 688.073 724.215 688.073 726.335C688.073 728.468 687.739 730.115 687.073 731.275C686.419 732.435 685.479 733.015 684.253 733.015ZM684.253 732.255C685.146 732.255 685.853 731.755 686.373 730.755C686.906 729.755 687.173 728.282 687.173 726.335C687.173 724.388 686.906 722.935 686.373 721.975C685.853 721.002 685.146 720.515 684.253 720.515C683.373 720.515 682.666 721.002 682.133 721.975C681.599 722.935 681.333 724.388 681.333 726.335C681.333 728.282 681.599 729.755 682.133 730.755C682.666 731.755 683.373 732.255 684.253 732.255Z" fill="white"/>
<path d="M757.494 733.015C756.814 733.015 756.22 732.928 755.714 732.755C755.207 732.568 754.767 732.335 754.394 732.055C754.034 731.775 753.714 731.495 753.434 731.215L753.954 730.595C754.34 731.008 754.807 731.388 755.354 731.735C755.9 732.068 756.614 732.235 757.494 732.235C758.36 732.235 759.074 731.982 759.634 731.475C760.194 730.955 760.474 730.268 760.474 729.415C760.474 728.535 760.127 727.822 759.434 727.275C758.754 726.728 757.614 726.455 756.014 726.455V725.675C757 725.675 757.787 725.555 758.374 725.315C758.96 725.062 759.38 724.722 759.634 724.295C759.887 723.868 760.014 723.402 760.014 722.895C760.014 722.175 759.78 721.602 759.314 721.175C758.847 720.735 758.22 720.515 757.434 720.515C756.847 720.515 756.3 720.655 755.794 720.935C755.3 721.202 754.867 721.528 754.494 721.915L753.974 721.315C754.414 720.888 754.914 720.522 755.474 720.215C756.047 719.908 756.7 719.755 757.434 719.755C758.1 719.755 758.694 719.875 759.214 720.115C759.747 720.355 760.167 720.708 760.474 721.175C760.78 721.628 760.934 722.182 760.934 722.835C760.934 723.675 760.7 724.355 760.234 724.875C759.78 725.382 759.2 725.755 758.494 725.995V726.075C759.027 726.182 759.507 726.388 759.934 726.695C760.374 726.988 760.727 727.362 760.994 727.815C761.26 728.268 761.394 728.795 761.394 729.395C761.394 730.128 761.22 730.768 760.874 731.315C760.527 731.862 760.06 732.282 759.474 732.575C758.887 732.868 758.227 733.015 757.494 733.015ZM764.624 733.015C764.41 733.015 764.21 732.935 764.024 732.775C763.85 732.615 763.764 732.395 763.764 732.115C763.764 731.822 763.85 731.595 764.024 731.435C764.21 731.275 764.41 731.195 764.624 731.195C764.85 731.195 765.044 731.275 765.204 731.435C765.377 731.595 765.464 731.822 765.464 732.115C765.464 732.395 765.377 732.615 765.204 732.775C765.044 732.935 764.85 733.015 764.624 733.015ZM771.579 733.015C770.365 733.015 769.425 732.435 768.759 731.275C768.092 730.115 767.759 728.468 767.759 726.335C767.759 724.215 768.092 722.588 768.759 721.455C769.425 720.322 770.365 719.755 771.579 719.755C772.805 719.755 773.745 720.322 774.399 721.455C775.065 722.588 775.399 724.215 775.399 726.335C775.399 728.468 775.065 730.115 774.399 731.275C773.745 732.435 772.805 733.015 771.579 733.015ZM771.579 732.255C772.472 732.255 773.179 731.755 773.699 730.755C774.232 729.755 774.499 728.282 774.499 726.335C774.499 724.388 774.232 722.935 773.699 721.975C773.179 721.002 772.472 720.515 771.579 720.515C770.699 720.515 769.992 721.002 769.459 721.975C768.925 722.935 768.659 724.388 768.659 726.335C768.659 728.282 768.925 729.755 769.459 730.755C769.992 731.755 770.699 732.255 771.579 732.255Z" fill="white"/>
<path d="M843.361 732.775V732.215C844.761 730.788 845.928 729.555 846.861 728.515C847.794 727.462 848.494 726.522 848.961 725.695C849.428 724.868 849.661 724.088 849.661 723.355C849.661 722.555 849.434 721.882 848.981 721.335C848.541 720.788 847.841 720.515 846.881 720.515C846.308 720.515 845.761 720.675 845.241 720.995C844.734 721.315 844.288 721.715 843.901 722.195L843.321 721.635C843.801 721.102 844.334 720.655 844.921 720.295C845.508 719.935 846.188 719.755 846.961 719.755C848.108 719.755 848.994 720.082 849.621 720.735C850.248 721.388 850.561 722.255 850.561 723.335C850.561 724.175 850.314 725.028 849.821 725.895C849.341 726.762 848.661 727.695 847.781 728.695C846.914 729.695 845.888 730.822 844.701 732.075C845.048 732.048 845.401 732.028 845.761 732.015C846.134 731.988 846.494 731.975 846.841 731.975H851.201V732.775H843.361ZM854.311 733.015C854.098 733.015 853.898 732.935 853.711 732.775C853.538 732.615 853.451 732.395 853.451 732.115C853.451 731.822 853.538 731.595 853.711 731.435C853.898 731.275 854.098 731.195 854.311 731.195C854.538 731.195 854.731 731.275 854.891 731.435C855.065 731.595 855.151 731.822 855.151 732.115C855.151 732.395 855.065 732.615 854.891 732.775C854.731 732.935 854.538 733.015 854.311 733.015ZM861.266 733.015C860.053 733.015 859.113 732.435 858.446 731.275C857.78 730.115 857.446 728.468 857.446 726.335C857.446 724.215 857.78 722.588 858.446 721.455C859.113 720.322 860.053 719.755 861.266 719.755C862.493 719.755 863.433 720.322 864.086 721.455C864.753 722.588 865.086 724.215 865.086 726.335C865.086 728.468 864.753 730.115 864.086 731.275C863.433 732.435 862.493 733.015 861.266 733.015ZM861.266 732.255C862.16 732.255 862.866 731.755 863.386 730.755C863.92 729.755 864.186 728.282 864.186 726.335C864.186 724.388 863.92 722.935 863.386 721.975C862.866 721.002 862.16 720.515 861.266 720.515C860.386 720.515 859.68 721.002 859.146 721.975C858.613 722.935 858.346 724.388 858.346 726.335C858.346 728.282 858.613 729.755 859.146 730.755C859.68 731.755 860.386 732.255 861.266 732.255Z" fill="white"/>
<path d="M938.627 732.775V731.995H941.627V721.395H939.347V720.795C939.867 720.702 940.334 720.588 940.747 720.455C941.161 720.322 941.514 720.168 941.807 719.995H942.527V731.995H945.307V732.775H938.627ZM948.718 733.015C948.504 733.015 948.304 732.935 948.118 732.775C947.944 732.615 947.858 732.395 947.858 732.115C947.858 731.822 947.944 731.595 948.118 731.435C948.304 731.275 948.504 731.195 948.718 731.195C948.944 731.195 949.138 731.275 949.298 731.435C949.471 731.595 949.558 731.822 949.558 732.115C949.558 732.395 949.471 732.615 949.298 732.775C949.138 732.935 948.944 733.015 948.718 733.015ZM955.673 733.015C954.459 733.015 953.519 732.435 952.853 731.275C952.186 730.115 951.853 728.468 951.853 726.335C951.853 724.215 952.186 722.588 952.853 721.455C953.519 720.322 954.459 719.755 955.673 719.755C956.899 719.755 957.839 720.322 958.493 721.455C959.159 722.588 959.493 724.215 959.493 726.335C959.493 728.468 959.159 730.115 958.493 731.275C957.839 732.435 956.899 733.015 955.673 733.015ZM955.673 732.255C956.566 732.255 957.273 731.755 957.793 730.755C958.326 729.755 958.593 728.282 958.593 726.335C958.593 724.388 958.326 722.935 957.793 721.975C957.273 721.002 956.566 720.515 955.673 720.515C954.793 720.515 954.086 721.002 953.553 721.975C953.019 722.935 952.753 724.388 952.753 726.335C952.753 728.282 953.019 729.755 953.553 730.755C954.086 731.755 954.793 732.255 955.673 732.255Z" fill="white"/>
<path d="M1025.51 733.015C1024.3 733.015 1023.36 732.435 1022.69 731.275C1022.03 730.115 1021.69 728.468 1021.69 726.335C1021.69 724.215 1022.03 722.588 1022.69 721.455C1023.36 720.322 1024.3 719.755 1025.51 719.755C1026.74 719.755 1027.68 720.322 1028.33 721.455C1029 722.588 1029.33 724.215 1029.33 726.335C1029.33 728.468 1029 730.115 1028.33 731.275C1027.68 732.435 1026.74 733.015 1025.51 733.015ZM1025.51 732.255C1026.41 732.255 1027.11 731.755 1027.63 730.755C1028.17 729.755 1028.43 728.282 1028.43 726.335C1028.43 724.388 1028.17 722.935 1027.63 721.975C1027.11 721.002 1026.41 720.515 1025.51 720.515C1024.63 720.515 1023.93 721.002 1023.39 721.975C1022.86 722.935 1022.59 724.388 1022.59 726.335C1022.59 728.282 1022.86 729.755 1023.39 730.755C1023.93 731.755 1024.63 732.255 1025.51 732.255Z" fill="white"/>
<path d="M94.94 81.5486H93.92L93.56 79.5086H90.24L90.24 85.1086H96.28L96.9 81.8486H98.06L98.06 86.3086H86.36L86.36 85.4486L88.24 85.0286L88.24 73.1886L86.36 72.7686L86.36 71.9086H97.62L97.62 76.1486H96.58L95.94 73.0686H90.24L90.24 78.3086H93.56L93.92 76.2686H94.94L94.94 81.5486ZM99.3714 76.5086L99.3714 75.7886L101.311 75.5086L101.571 72.9886L103.251 72.7486L103.251 75.5086H105.811L105.811 76.5086H103.251L103.251 83.6486C103.251 84.1019 103.258 84.4153 103.271 84.5886C103.285 84.7486 103.311 84.8819 103.351 84.9886C103.391 85.0819 103.465 85.1486 103.571 85.1886C103.678 85.2153 103.851 85.2286 104.091 85.2286H105.491L105.491 85.8086C104.851 86.0486 104.285 86.2219 103.791 86.3286C103.311 86.4486 102.925 86.5086 102.631 86.5086C102.031 86.5086 101.645 86.2619 101.471 85.7686C101.418 85.6086 101.378 85.4019 101.351 85.1486C101.325 84.8953 101.311 84.5219 101.311 84.0286L101.311 76.5086H99.3714ZM114.968 85.1086L114.968 80.6486C114.968 79.7819 114.941 79.1353 114.888 78.7086C114.848 78.2819 114.768 77.9486 114.648 77.7086C114.328 77.0553 113.741 76.7286 112.888 76.7286C112.514 76.7286 112.154 76.7953 111.808 76.9286C111.461 77.0619 111.154 77.2419 110.888 77.4686C110.594 77.7219 110.374 78.0286 110.228 78.3886C110.094 78.7353 110.014 79.1686 109.988 79.6886L109.988 85.1086L111.328 85.4886L111.328 86.3086H106.508L106.508 85.4886L108.048 85.1086L108.048 71.9086L106.508 71.5286L106.508 70.7086H109.988L109.988 77.3886C110.388 76.7486 110.914 76.2419 111.568 75.8686C112.234 75.4953 112.948 75.3086 113.708 75.3086C114.241 75.3086 114.721 75.4019 115.148 75.5886C115.574 75.7753 115.914 76.0419 116.168 76.3886C116.434 76.7619 116.621 77.2886 116.728 77.9686C116.848 78.6353 116.908 79.5419 116.908 80.6886L116.908 85.1086L118.448 85.4886L118.448 86.3086H113.628L113.628 85.4886L114.968 85.1086ZM119.639 83.9686C119.639 82.9286 120.126 82.1086 121.099 81.5086C122.072 80.9086 123.686 80.4419 125.939 80.1086C125.886 79.3219 125.812 78.7086 125.719 78.2686C125.626 77.8286 125.506 77.4753 125.359 77.2086C125.172 76.8619 124.912 76.6086 124.579 76.4486C124.246 76.2753 123.886 76.1886 123.499 76.1886C123.126 76.1886 122.786 76.2553 122.479 76.3886C122.186 76.5219 121.986 76.7019 121.879 76.9286C122.066 77.0619 122.199 77.2353 122.279 77.4486C122.372 77.6619 122.419 77.8619 122.419 78.0486C122.419 78.3819 122.306 78.6486 122.079 78.8486C121.866 79.0353 121.599 79.1286 121.279 79.1286C120.959 79.1286 120.692 79.0219 120.479 78.8086C120.279 78.5953 120.179 78.2953 120.179 77.9086C120.179 77.3486 120.372 76.8753 120.759 76.4886C121.146 76.1019 121.632 75.8086 122.219 75.6086C122.819 75.4086 123.419 75.3086 124.019 75.3086C124.566 75.3086 125.066 75.3953 125.519 75.5686C125.986 75.7286 126.379 75.9686 126.699 76.2886C127.526 77.1153 127.939 78.5819 127.939 80.6886L127.939 83.5886C127.939 84.2419 127.979 84.6953 128.059 84.9486C128.152 85.2019 128.346 85.3286 128.639 85.3286H129.539L129.539 85.9286C128.579 86.3153 127.832 86.5086 127.299 86.5086C126.886 86.5086 126.606 86.3619 126.459 86.0686C126.326 85.7619 126.259 85.1819 126.259 84.3286H126.179C125.766 85.0086 125.219 85.5419 124.539 85.9286C123.859 86.3153 123.126 86.5086 122.339 86.5086C121.499 86.5086 120.839 86.2819 120.359 85.8286C119.879 85.3753 119.639 84.7553 119.639 83.9686ZM123.179 85.3486C123.552 85.3486 123.939 85.2553 124.339 85.0686C124.752 84.8686 125.099 84.5953 125.379 84.2486C125.592 83.9819 125.746 83.6686 125.839 83.3086C125.946 82.9353 125.999 82.5019 125.999 82.0086C125.999 81.7819 125.992 81.5619 125.979 81.3486C125.966 81.1219 125.946 80.9086 125.919 80.7086C124.839 80.9219 123.992 81.1553 123.379 81.4086C122.766 81.6486 122.332 81.9419 122.079 82.2886C121.826 82.6219 121.699 83.0419 121.699 83.5486C121.699 84.1219 121.826 84.5686 122.079 84.8886C122.346 85.1953 122.712 85.3486 123.179 85.3486ZM131.881 85.1086L131.881 76.7086L130.341 76.3286L130.341 75.5086H133.221L133.661 77.5086H133.741C134.141 76.8286 134.681 76.2953 135.361 75.9086C136.041 75.5086 136.768 75.3086 137.541 75.3086C138.648 75.3086 139.468 75.6686 140.001 76.3886C140.268 76.7619 140.454 77.2886 140.561 77.9686C140.681 78.6353 140.741 79.5419 140.741 80.6886L140.741 85.1086L142.281 85.4886L142.281 86.3086L137.461 86.3086L137.461 85.4886L138.801 85.1086L138.801 80.6486C138.801 79.7819 138.774 79.1353 138.721 78.7086C138.681 78.2819 138.601 77.9486 138.481 77.7086C138.321 77.3886 138.088 77.1486 137.781 76.9886C137.488 76.8153 137.134 76.7286 136.721 76.7286C135.948 76.7286 135.281 76.9753 134.721 77.4686C134.174 77.9619 133.874 78.7286 133.821 79.7686L133.821 85.1086L135.161 85.4886L135.161 86.3086H130.341L130.341 85.4886L131.881 85.1086ZM153.447 80.8086C153.447 81.6753 153.313 82.5019 153.047 83.2886C152.793 84.0619 152.433 84.7019 151.967 85.2086C151.567 85.6486 151.073 85.9753 150.487 86.1886C149.9 86.4019 149.233 86.5086 148.487 86.5086C147.753 86.5086 147.1 86.4086 146.527 86.2086C145.953 85.9953 145.467 85.6753 145.067 85.2486C144.613 84.7553 144.26 84.1486 144.007 83.4286C143.767 82.6953 143.647 81.9019 143.647 81.0486C143.647 80.1819 143.773 79.3553 144.027 78.5686C144.28 77.7686 144.647 77.1153 145.127 76.6086C145.553 76.1553 146.047 75.8286 146.607 75.6286C147.18 75.4153 147.833 75.3086 148.567 75.3086C149.3 75.3086 149.96 75.4153 150.547 75.6286C151.133 75.8286 151.627 76.1419 152.027 76.5686C152.493 77.0619 152.847 77.6819 153.087 78.4286C153.327 79.1619 153.447 79.9553 153.447 80.8086ZM145.787 80.8286C145.787 81.6419 145.847 82.3486 145.967 82.9486C146.1 83.5353 146.28 84.0219 146.507 84.4086C146.733 84.7419 147 85.0019 147.307 85.1886C147.627 85.3753 148.04 85.4686 148.547 85.4686C149.467 85.4686 150.153 85.1553 150.607 84.5286C150.847 84.1819 151.02 83.7019 151.127 83.0886C151.247 82.4753 151.307 81.7686 151.307 80.9686C151.307 80.1686 151.24 79.4686 151.107 78.8686C150.987 78.2686 150.813 77.7819 150.587 77.4086C150.373 77.0619 150.1 76.8019 149.767 76.6286C149.447 76.4419 149.033 76.3486 148.527 76.3486C147.593 76.3486 146.92 76.6553 146.507 77.2686C146.027 78.0153 145.787 79.2019 145.787 80.8286ZM156.467 85.1086L156.467 71.9086L154.927 71.5286L154.927 70.7086H158.407L158.407 85.1086L159.947 85.4886L159.947 86.3086H154.927L154.927 85.4886L156.467 85.1086Z" fill="white"/>
<path d="M115.38 614.569L127.22 614.569L127.64 612.689L128.5 612.689L128.5 618.449L127.64 618.449L127.22 616.569L115.38 616.569L114.96 618.449L114.1 618.449L114.1 612.689L114.96 612.689L115.38 614.569ZM127.3 609.568L118.9 609.568L118.52 611.108L117.7 611.108L117.7 608.228L119.7 607.788L119.7 607.708C119.02 607.308 118.487 606.768 118.1 606.088C117.7 605.408 117.5 604.681 117.5 603.908C117.5 602.801 117.86 601.981 118.58 601.448C118.953 601.181 119.48 600.995 120.16 600.888C120.827 600.768 121.733 600.708 122.88 600.708L127.3 600.708L127.68 599.168L128.5 599.168L128.5 603.988L127.68 603.988L127.3 602.648L122.84 602.648C121.973 602.648 121.327 602.675 120.9 602.728C120.473 602.768 120.14 602.848 119.9 602.968C119.58 603.128 119.34 603.361 119.18 603.668C119.007 603.961 118.92 604.315 118.92 604.728C118.92 605.501 119.167 606.168 119.66 606.728C120.153 607.275 120.92 607.575 121.96 607.628L127.3 607.628L127.68 606.288L128.5 606.288L128.5 611.108L127.68 611.108L127.3 609.568ZM118.7 598.543L117.98 598.543L117.7 596.603L115.18 596.343L114.94 594.663L117.7 594.663L117.7 592.103L118.7 592.103L118.7 594.663L125.84 594.663C126.293 594.663 126.607 594.656 126.78 594.643C126.94 594.629 127.073 594.603 127.18 594.563C127.273 594.523 127.34 594.449 127.38 594.343C127.407 594.236 127.42 594.063 127.42 593.823L127.42 592.423L128 592.423C128.24 593.063 128.413 593.629 128.52 594.123C128.64 594.603 128.7 594.989 128.7 595.283C128.7 595.883 128.453 596.269 127.96 596.443C127.8 596.496 127.593 596.536 127.34 596.563C127.087 596.589 126.713 596.603 126.22 596.603L118.7 596.603L118.7 598.543ZM123.22 581.966L123.22 588.946C124.193 588.946 125 588.813 125.64 588.546C126.253 588.28 126.693 587.9 126.96 587.406C127.227 586.913 127.36 586.38 127.36 585.806C127.36 585.18 127.233 584.606 126.98 584.086C126.713 583.566 126.353 583.1 125.9 582.686L126.38 582.046C127.02 582.513 127.567 583.08 128.02 583.746C128.473 584.413 128.7 585.273 128.7 586.326C128.7 587.246 128.507 588.06 128.12 588.766C127.72 589.473 127.14 590.013 126.38 590.386C125.967 590.586 125.507 590.733 125 590.826C124.493 590.92 123.953 590.966 123.38 590.966C121.513 590.966 120.067 590.54 119.04 589.686C118.013 588.82 117.5 587.646 117.5 586.166C117.5 584.806 117.927 583.76 118.78 583.026C119.62 582.28 120.787 581.906 122.28 581.906C122.413 581.906 122.54 581.913 122.66 581.926C122.767 581.926 122.953 581.94 123.22 581.966ZM118.58 586.286C118.58 587.886 119.8 588.766 122.24 588.926L122.24 583.926L121.58 583.926C120.62 583.926 119.88 584.133 119.36 584.546C118.84 584.946 118.58 585.526 118.58 586.286ZM127.3 578.767L118.9 578.767L118.52 580.307L117.7 580.307L117.7 577.427L119.7 576.987L119.7 576.907C119.02 576.507 118.487 575.967 118.1 575.287C117.7 574.607 117.5 573.881 117.5 573.107C117.5 572.001 117.86 571.181 118.58 570.647C118.953 570.381 119.48 570.194 120.16 570.087C120.827 569.967 121.733 569.907 122.88 569.907L127.3 569.907L127.68 568.367L128.5 568.367L128.5 573.187L127.68 573.187L127.3 571.847L122.84 571.847C121.973 571.847 121.327 571.874 120.9 571.927C120.473 571.967 120.14 572.047 119.9 572.167C119.58 572.327 119.34 572.561 119.18 572.867C119.007 573.161 118.92 573.514 118.92 573.927C118.92 574.701 119.167 575.367 119.66 575.927C120.153 576.474 120.92 576.774 121.96 576.827L127.3 576.827L127.68 575.487L128.5 575.487L128.5 580.307L127.68 580.307L127.3 578.767ZM127.78 563.042C127.78 562.295 127.627 561.689 127.32 561.222C127.013 560.742 126.587 560.502 126.04 560.502C125.6 560.502 125.247 560.649 124.98 560.942C124.713 561.235 124.5 561.602 124.34 562.042C124.167 562.469 124.02 562.902 123.9 563.342C123.727 563.889 123.527 564.415 123.3 564.922C123.06 565.429 122.733 565.842 122.32 566.162C121.907 566.482 121.36 566.642 120.68 566.642C119.72 566.642 118.953 566.295 118.38 565.602C117.793 564.895 117.5 563.915 117.5 562.662C117.5 561.595 117.727 560.755 118.18 560.142C118.62 559.515 119.227 559.202 120 559.202C120.413 559.202 120.747 559.295 121 559.482C121.24 559.669 121.36 559.935 121.36 560.282C121.36 560.589 121.267 560.842 121.08 561.042C120.893 561.242 120.653 561.342 120.36 561.342C120.107 561.342 119.88 561.275 119.68 561.142C119.467 561.009 119.313 560.835 119.22 560.622C118.94 560.822 118.74 561.082 118.62 561.402C118.487 561.709 118.42 562.109 118.42 562.602C118.42 563.402 118.567 564.002 118.86 564.402C119.14 564.802 119.56 565.002 120.12 565.002C120.52 565.002 120.84 564.909 121.08 564.722C121.307 564.522 121.5 564.235 121.66 563.862C121.82 563.489 121.987 563.029 122.16 562.482C122.293 562.029 122.447 561.582 122.62 561.142C122.78 560.702 122.98 560.302 123.22 559.942C123.46 559.582 123.76 559.295 124.12 559.082C124.48 558.869 124.927 558.762 125.46 558.762C126.14 558.762 126.727 558.949 127.22 559.322C127.7 559.695 128.067 560.209 128.32 560.862C128.573 561.515 128.7 562.269 128.7 563.122C128.7 564.295 128.46 565.242 127.98 565.962C127.5 566.682 126.853 567.042 126.04 567.042C125.613 567.042 125.28 566.949 125.04 566.762C124.787 566.562 124.66 566.282 124.66 565.922C124.66 565.602 124.753 565.335 124.94 565.122C125.127 564.895 125.373 564.782 125.68 564.782C125.933 564.782 126.173 564.855 126.4 565.002C126.627 565.135 126.793 565.302 126.9 565.502C127.153 565.329 127.367 565.022 127.54 564.582C127.7 564.129 127.78 563.615 127.78 563.042ZM118.9 555.603L118.52 557.143L117.7 557.143L117.7 553.663L127.3 553.663L127.68 552.123L128.5 552.123L128.5 557.143L127.68 557.143L127.3 555.603L118.9 555.603ZM114.48 555.883C114.093 555.883 113.787 555.77 113.56 555.543C113.333 555.317 113.22 555.017 113.22 554.643C113.22 554.257 113.333 553.95 113.56 553.723C113.787 553.497 114.093 553.383 114.48 553.383C114.853 553.383 115.153 553.497 115.38 553.723C115.607 553.95 115.72 554.257 115.72 554.643C115.72 555.03 115.613 555.337 115.4 555.563C115.173 555.777 114.867 555.883 114.48 555.883ZM118.7 551.453L117.98 551.453L117.7 549.513L115.18 549.253L114.94 547.573L117.7 547.573L117.7 545.013L118.7 545.013L118.7 547.573L125.84 547.573C126.293 547.573 126.607 547.566 126.78 547.553C126.94 547.539 127.073 547.513 127.18 547.473C127.273 547.433 127.34 547.359 127.38 547.253C127.407 547.146 127.42 546.973 127.42 546.733L127.42 545.333L128 545.333C128.24 545.973 128.413 546.539 128.52 547.033C128.64 547.513 128.7 547.899 128.7 548.193C128.7 548.793 128.453 549.179 127.96 549.353C127.8 549.406 127.593 549.446 127.34 549.473C127.087 549.499 126.713 549.513 126.22 549.513L118.7 549.513L118.7 551.453ZM118.9 534.536L128.02 537.856C129.047 538.23 129.873 538.57 130.5 538.876C131.14 539.183 131.6 539.523 131.88 539.896C132.16 540.27 132.3 540.75 132.3 541.336C132.3 541.963 132.133 542.503 131.8 542.956C131.467 543.396 131.047 543.616 130.54 543.616C130.167 543.616 129.853 543.51 129.6 543.296C129.36 543.083 129.24 542.803 129.24 542.456C129.24 542.15 129.32 541.91 129.48 541.736C129.653 541.55 129.887 541.456 130.18 541.456C130.367 541.456 130.547 541.496 130.72 541.576C130.893 541.643 131.047 541.736 131.18 541.856C131.313 541.83 131.4 541.75 131.44 541.616C131.493 541.483 131.52 541.37 131.52 541.276C131.52 541.09 131.473 540.916 131.38 540.756C131.287 540.596 131.087 540.43 130.78 540.256C130.487 540.07 130.02 539.87 129.38 539.656L128.64 539.416L118.9 543.556L118.52 544.756L117.7 544.756L117.7 540.276L118.52 540.116L118.9 541.536L126.74 538.556L126.74 538.476L118.9 535.956L118.52 537.116L117.7 537.116L117.7 533.316L118.52 533.316L118.9 534.536Z" fill="#C3FA50"/>
<path d="M422.233 311.797C422.233 313.317 421.997 314.75 421.525 316.096C421.071 317.424 420.433 318.533 419.612 319.424C418.896 320.193 418.031 320.77 417.017 321.154C416.021 321.521 414.868 321.705 413.557 321.705C412.229 321.705 411.059 321.521 410.045 321.154C409.032 320.787 408.184 320.237 407.503 319.503C406.699 318.664 406.078 317.616 405.642 316.358C405.205 315.082 404.986 313.702 404.986 312.216C404.986 310.696 405.213 309.272 405.668 307.944C406.14 306.598 406.786 305.48 407.607 304.589C408.341 303.803 409.189 303.226 410.15 302.859C411.128 302.492 412.282 302.309 413.61 302.309C414.938 302.309 416.1 302.492 417.096 302.859C418.109 303.209 418.974 303.759 419.691 304.51C420.512 305.349 421.141 306.406 421.578 307.682C422.015 308.957 422.233 310.329 422.233 311.797ZM408.001 311.692C408.001 313.142 408.123 314.436 408.368 315.571C408.612 316.69 408.962 317.607 409.416 318.324C409.87 318.97 410.438 319.459 411.12 319.791C411.819 320.106 412.675 320.263 413.688 320.263C415.541 320.263 416.904 319.686 417.777 318.533C418.249 317.887 418.607 317.03 418.852 315.965C419.097 314.881 419.219 313.614 419.219 312.164C419.219 310.714 419.097 309.438 418.852 308.337C418.607 307.236 418.249 306.345 417.777 305.664C417.323 305 416.738 304.51 416.021 304.196C415.322 303.881 414.492 303.724 413.531 303.724C412.605 303.724 411.801 303.873 411.12 304.17C410.456 304.449 409.897 304.877 409.442 305.454C408.481 306.73 408.001 308.809 408.001 311.692Z" fill="white"/>
<path d="M422.233 311.797C422.233 313.317 421.997 314.75 421.525 316.096C421.071 317.424 420.433 318.533 419.612 319.424C418.896 320.193 418.031 320.77 417.017 321.154C416.021 321.521 414.868 321.705 413.557 321.705C412.229 321.705 411.059 321.521 410.045 321.154C409.032 320.787 408.184 320.237 407.503 319.503C406.699 318.664 406.078 317.616 405.642 316.358C405.205 315.082 404.986 313.702 404.986 312.216C404.986 310.696 405.213 309.272 405.668 307.944C406.14 306.598 406.786 305.48 407.607 304.589C408.341 303.803 409.189 303.226 410.15 302.859C411.128 302.492 412.282 302.309 413.61 302.309C414.938 302.309 416.1 302.492 417.096 302.859C418.109 303.209 418.974 303.759 419.691 304.51C420.512 305.349 421.141 306.406 421.578 307.682C422.015 308.957 422.233 310.329 422.233 311.797ZM408.001 311.692C408.001 313.142 408.123 314.436 408.368 315.571C408.612 316.69 408.962 317.607 409.416 318.324C409.87 318.97 410.438 319.459 411.12 319.791C411.819 320.106 412.675 320.263 413.688 320.263C415.541 320.263 416.904 319.686 417.777 318.533C418.249 317.887 418.607 317.03 418.852 315.965C419.097 314.881 419.219 313.614 419.219 312.164C419.219 310.714 419.097 309.438 418.852 308.337C418.607 307.236 418.249 306.345 417.777 305.664C417.323 305 416.738 304.51 416.021 304.196C415.322 303.881 414.492 303.724 413.531 303.724C412.605 303.724 411.801 303.873 411.12 304.17C410.456 304.449 409.897 304.877 409.442 305.454C408.481 306.73 408.001 308.809 408.001 311.692Z" stroke="black"/>
<path d="M505.15 304.986V320.503L507.351 321.053V322.181H500.327V321.053L502.529 320.503V313.243H493.643V320.503L495.845 321.053V322.181H488.82V321.053L491.022 320.503V304.986L488.82 304.436V303.309H495.845V304.436L493.643 304.986V311.722H502.529V304.986L500.327 304.436V303.309H507.351V304.436L505.15 304.986Z" fill="white"/>
<path d="M505.15 304.986V320.503L507.351 321.053V322.181H500.327V321.053L502.529 320.503V313.243H493.643V320.503L495.845 321.053V322.181H488.82V321.053L491.022 320.503V304.986L488.82 304.436V303.309H495.845V304.436L493.643 304.986V311.722H502.529V304.986L500.327 304.436V303.309H507.351V304.436L505.15 304.986Z" stroke="black"/>
<path d="M249.051 303.768C248.173 303.768 247.42 303.903 246.792 304.173C246.183 304.444 245.663 304.867 245.233 305.444C244.695 306.146 244.274 307.074 243.969 308.228C243.664 309.363 243.512 310.615 243.512 311.984C243.512 313.264 243.646 314.462 243.915 315.579C244.184 316.696 244.561 317.633 245.045 318.39C245.529 319.146 246.111 319.705 246.792 320.065C247.492 320.408 248.361 320.579 249.401 320.579C252.628 320.579 254.501 319.056 255.021 316.011H256.5C255.693 320.209 253.237 322.309 249.132 322.309C246.658 322.309 244.686 321.588 243.216 320.146C242.338 319.282 241.665 318.191 241.199 316.876C240.733 315.561 240.5 314.101 240.5 312.498C240.5 310.678 240.796 309.029 241.387 307.552C241.979 306.074 242.813 304.894 243.888 304.011C245.251 302.876 247.052 302.309 249.293 302.309C250.405 302.309 251.31 302.453 252.009 302.741C252.708 303.029 253.399 303.543 254.08 304.282L254.618 302.579H256.097V308.552H254.456C254.205 306.966 253.623 305.777 252.708 304.984C251.812 304.173 250.593 303.768 249.051 303.768Z" fill="white"/>
<path d="M249.051 303.768C248.173 303.768 247.42 303.903 246.792 304.173C246.183 304.444 245.663 304.867 245.233 305.444C244.695 306.146 244.274 307.074 243.969 308.228C243.664 309.363 243.512 310.615 243.512 311.984C243.512 313.264 243.646 314.462 243.915 315.579C244.184 316.696 244.561 317.633 245.045 318.39C245.529 319.146 246.111 319.705 246.792 320.065C247.492 320.408 248.361 320.579 249.401 320.579C252.628 320.579 254.501 319.056 255.021 316.011H256.5C255.693 320.209 253.237 322.309 249.132 322.309C246.658 322.309 244.686 321.588 243.216 320.146C242.338 319.282 241.665 318.191 241.199 316.876C240.733 315.561 240.5 314.101 240.5 312.498C240.5 310.678 240.796 309.029 241.387 307.552C241.979 306.074 242.813 304.894 243.888 304.011C245.251 302.876 247.052 302.309 249.293 302.309C250.405 302.309 251.31 302.453 252.009 302.741C252.708 303.029 253.399 303.543 254.08 304.282L254.618 302.579H256.097V308.552H254.456C254.205 306.966 253.623 305.777 252.708 304.984C251.812 304.173 250.593 303.768 249.051 303.768Z" stroke="black"/>
<path d="M331.051 303.768C330.173 303.768 329.42 303.903 328.792 304.173C328.183 304.444 327.663 304.867 327.233 305.444C326.695 306.146 326.274 307.074 325.969 308.228C325.664 309.363 325.512 310.615 325.512 311.984C325.512 313.264 325.646 314.462 325.915 315.579C326.184 316.696 326.561 317.633 327.045 318.39C327.529 319.146 328.111 319.705 328.792 320.065C329.492 320.408 330.361 320.579 331.401 320.579C334.628 320.579 336.501 319.056 337.021 316.011H338.5C337.693 320.209 335.237 322.309 331.132 322.309C328.658 322.309 326.686 321.588 325.216 320.146C324.338 319.282 323.665 318.191 323.199 316.876C322.733 315.561 322.5 314.101 322.5 312.498C322.5 310.678 322.796 309.029 323.387 307.552C323.979 306.074 324.813 304.894 325.888 304.011C327.251 302.876 329.052 302.309 331.293 302.309C332.405 302.309 333.31 302.453 334.009 302.741C334.708 303.029 335.399 303.543 336.08 304.282L336.618 302.579H338.097V308.552H336.456C336.205 306.966 335.623 305.777 334.708 304.984C333.812 304.173 332.593 303.768 331.051 303.768Z" fill="white"/>
<path d="M331.051 303.768C330.173 303.768 329.42 303.903 328.792 304.173C328.183 304.444 327.663 304.867 327.233 305.444C326.695 306.146 326.274 307.074 325.969 308.228C325.664 309.363 325.512 310.615 325.512 311.984C325.512 313.264 325.646 314.462 325.915 315.579C326.184 316.696 326.561 317.633 327.045 318.39C327.529 319.146 328.111 319.705 328.792 320.065C329.492 320.408 330.361 320.579 331.401 320.579C334.628 320.579 336.501 319.056 337.021 316.011H338.5C337.693 320.209 335.237 322.309 331.132 322.309C328.658 322.309 326.686 321.588 325.216 320.146C324.338 319.282 323.665 318.191 323.199 316.876C322.733 315.561 322.5 314.101 322.5 312.498C322.5 310.678 322.796 309.029 323.387 307.552C323.979 306.074 324.813 304.894 325.888 304.011C327.251 302.876 329.052 302.309 331.293 302.309C332.405 302.309 333.31 302.453 334.009 302.741C334.708 303.029 335.399 303.543 336.08 304.282L336.618 302.579H338.097V308.552H336.456C336.205 306.966 335.623 305.777 334.708 304.984C333.812 304.173 332.593 303.768 331.051 303.768Z" stroke="black"/>
<path d="M171.829 304.986V320.503L174.031 321.053V322.181H167.007V321.053L169.208 320.503V313.243H160.323V320.503L162.525 321.053V322.181H155.5V321.053L157.702 320.503V304.986L155.5 304.436V303.309H162.525V304.436L160.323 304.986V311.722H169.208V304.986L167.007 304.436V303.309H174.031V304.436L171.829 304.986Z" fill="white"/>
<path d="M171.829 304.986V320.503L174.031 321.053V322.181H167.007V321.053L169.208 320.503V313.243H160.323V320.503L162.525 321.053V322.181H155.5V321.053L157.702 320.503V304.986L155.5 304.436V303.309H162.525V304.436L160.323 304.986V311.722H169.208V304.986L167.007 304.436V303.309H174.031V304.436L171.829 304.986Z" stroke="black"/>
<path d="M254.829 217.986V225.745V233.503L257.031 234.053V235.181H250.007V234.053L252.208 233.503V226.243H243.323V233.503L245.525 234.053V235.181H238.5V234.053L240.702 233.503V217.986L238.5 217.436V216.309H245.525V217.436L243.323 217.986V224.722H252.208V217.986L250.007 217.436V216.309H257.031V217.436L254.829 217.986Z" fill="white"/>
<path d="M254.829 217.986V225.745V233.503L257.031 234.053V235.181H250.007V234.053L252.208 233.503V226.243H243.323V233.503L245.525 234.053V235.181H238.5V234.053L240.702 233.503V217.986L238.5 217.436V216.309H245.525V217.436L243.323 217.986V224.722H252.208V217.986L250.007 217.436V216.309H257.031V217.436L254.829 217.986Z" stroke="black"/>
<path d="M253.829 390.986V398.745V406.503L256.031 407.053V408.181H249.007V407.053L251.208 406.503V399.243H242.323V406.503L244.525 407.053V408.181H237.5V407.053L239.702 406.503V390.986L237.5 390.436V389.309H244.525V390.436L242.323 390.986V397.722H251.208V390.986L249.007 390.436V389.309H256.031V390.436L253.829 390.986Z" fill="white"/>
<path d="M253.829 390.986V398.745V406.503L256.031 407.053V408.181H249.007V407.053L251.208 406.503V399.243H242.323V406.503L244.525 407.053V408.181H237.5V407.053L239.702 406.503V390.986L237.5 390.436V389.309H244.525V390.436L242.323 390.986V397.722H251.208V390.986L249.007 390.436V389.309H256.031V390.436L253.829 390.986Z" stroke="black"/>
<path d="M335.829 390.986V398.745V406.503L338.031 407.053V408.181H331.007V407.053L333.208 406.503V399.243H324.323V406.503L326.525 407.053V408.181H319.5V407.053L321.702 406.503V390.986L319.5 390.436V389.309H326.525V390.436L324.323 390.986V397.722H333.208V390.986L331.007 390.436V389.309H338.031V390.436L335.829 390.986Z" fill="white"/>
<path d="M335.829 390.986V398.745V406.503L338.031 407.053V408.181H331.007V407.053L333.208 406.503V399.243H324.323V406.503L326.525 407.053V408.181H319.5V407.053L321.702 406.503V390.986L319.5 390.436V389.309H326.525V390.436L324.323 390.986V397.722H333.208V390.986L331.007 390.436V389.309H338.031V390.436L335.829 390.986Z" stroke="black"/>
<path d="M336.829 217.986V225.745V233.503L339.031 234.053V235.181H332.007V234.053L334.208 233.503V226.243H325.323V233.503L327.525 234.053V235.181H320.5V234.053L322.702 233.503V217.986L320.5 217.436V216.309H327.525V217.436L325.323 217.986V224.722H334.208V217.986L332.007 217.436V216.309H339.031V217.436L336.829 217.986Z" fill="white"/>
<path d="M336.829 217.986V225.745V233.503L339.031 234.053V235.181H332.007V234.053L334.208 233.503V226.243H325.323V233.503L327.525 234.053V235.181H320.5V234.053L322.702 233.503V217.986L320.5 217.436V216.309H327.525V217.436L325.323 217.986V224.722H334.208V217.986L332.007 217.436V216.309H339.031V217.436L336.829 217.986Z" stroke="black"/>
<line x1="248" y1="364.896" x2="248" y2="346.309" stroke="white" stroke-width="3"/>
<line x1="330" y1="364.896" x2="330" y2="346.309" stroke="white" stroke-width="3"/>
<line x1="248" y1="259.309" x2="248" y2="278.309" stroke="white" stroke-width="3"/>
<line x1="330" y1="259.309" x2="330" y2="278.309" stroke="white" stroke-width="3"/>
<line x1="198.031" y1="310.809" x2="216.618" y2="310.809" stroke="white" stroke-width="3"/>
<line x1="280.215" y1="310.809" x2="298.802" y2="310.809" stroke="white" stroke-width="3"/>
<line x1="362.398" y1="310.809" x2="380.985" y2="310.809" stroke="white" stroke-width="3"/>
<line x1="446.232" y1="310.809" x2="464.819" y2="310.809" stroke="white" stroke-width="3"/>
<path d="M574.741 828.598C574.741 829.985 574.881 831.265 575.161 832.438C575.441 833.612 575.835 834.652 576.341 835.558C576.848 836.452 577.448 837.178 578.141 837.738C578.835 838.298 579.601 838.665 580.441 838.838L580.961 837.738C580.121 837.565 579.381 837.078 578.741 836.278C578.115 835.478 577.628 834.425 577.281 833.118C576.935 831.812 576.761 830.318 576.761 828.638C576.761 826.972 576.941 825.478 577.301 824.158C577.661 822.825 578.161 821.738 578.801 820.898C579.455 820.058 580.208 819.538 581.061 819.338L580.641 818.358C579.761 818.572 578.955 818.978 578.221 819.578C577.501 820.178 576.881 820.932 576.361 821.838C575.841 822.745 575.441 823.772 575.161 824.918C574.881 826.052 574.741 827.278 574.741 828.598ZM585.263 838.058L587.203 838.438V839.258H581.783V838.438L583.323 838.058V826.058L581.783 825.678V824.858H584.663L584.963 826.398C585.39 825.732 585.87 825.278 586.403 825.038C586.95 824.785 587.563 824.658 588.243 824.658C588.923 824.658 589.537 824.758 590.083 824.958C590.643 825.158 591.097 825.478 591.443 825.918C591.843 826.425 592.157 827.038 592.383 827.758C592.623 828.465 592.743 829.232 592.743 830.058C592.743 830.912 592.61 831.718 592.343 832.478C592.09 833.225 591.743 833.852 591.303 834.358C590.557 835.225 589.483 835.658 588.083 835.658C587.51 835.658 586.99 835.552 586.523 835.338C586.07 835.112 585.65 834.725 585.263 834.178V838.058ZM585.243 830.078C585.243 830.865 585.303 831.552 585.423 832.138C585.543 832.725 585.717 833.198 585.943 833.558C586.157 833.892 586.417 834.152 586.723 834.338C587.043 834.525 587.45 834.618 587.943 834.618C588.397 834.618 588.79 834.538 589.123 834.378C589.47 834.205 589.75 833.972 589.963 833.678C590.203 833.345 590.377 832.878 590.483 832.278C590.59 831.678 590.643 830.992 590.643 830.218C590.643 829.432 590.583 828.752 590.463 828.178C590.343 827.605 590.17 827.132 589.943 826.758C589.73 826.412 589.463 826.152 589.143 825.978C588.837 825.792 588.43 825.698 587.923 825.698C587.47 825.698 587.07 825.778 586.723 825.938C586.39 826.085 586.13 826.312 585.943 826.618C585.73 826.978 585.557 827.452 585.423 828.038C585.303 828.612 585.243 829.292 585.243 830.078ZM597.646 838.058L599.586 838.438V839.258H594.166V838.438L595.706 838.058V826.058L594.166 825.678V824.858H597.046L597.346 826.398C597.773 825.732 598.253 825.278 598.786 825.038C599.333 824.785 599.946 824.658 600.626 824.658C601.306 824.658 601.919 824.758 602.466 824.958C603.026 825.158 603.479 825.478 603.826 825.918C604.226 826.425 604.539 827.038 604.766 827.758C605.006 828.465 605.126 829.232 605.126 830.058C605.126 830.912 604.993 831.718 604.726 832.478C604.473 833.225 604.126 833.852 603.686 834.358C602.939 835.225 601.866 835.658 600.466 835.658C599.893 835.658 599.373 835.552 598.906 835.338C598.453 835.112 598.033 834.725 597.646 834.178V838.058ZM597.626 830.078C597.626 830.865 597.686 831.552 597.806 832.138C597.926 832.725 598.099 833.198 598.326 833.558C598.539 833.892 598.799 834.152 599.106 834.338C599.426 834.525 599.833 834.618 600.326 834.618C600.779 834.618 601.173 834.538 601.506 834.378C601.853 834.205 602.133 833.972 602.346 833.678C602.586 833.345 602.759 832.878 602.866 832.278C602.973 831.678 603.026 830.992 603.026 830.218C603.026 829.432 602.966 828.752 602.846 828.178C602.726 827.605 602.553 827.132 602.326 826.758C602.113 826.412 601.846 826.152 601.526 825.978C601.219 825.792 600.813 825.698 600.306 825.698C599.853 825.698 599.453 825.778 599.106 825.938C598.773 826.085 598.513 826.312 598.326 826.618C598.113 826.978 597.939 827.452 597.806 828.038C597.686 828.612 597.626 829.292 597.626 830.078ZM608.309 834.458V826.058L606.769 825.678V824.858H609.649L610.089 826.858H610.169C610.555 826.192 611.069 825.658 611.709 825.258C612.362 824.858 613.055 824.658 613.789 824.658C614.335 824.658 614.822 824.765 615.249 824.978C615.675 825.178 615.989 825.432 616.189 825.738C616.402 826.072 616.575 826.512 616.709 827.058C617.135 826.312 617.689 825.725 618.369 825.298C619.049 824.872 619.775 824.658 620.549 824.658C621.082 824.658 621.562 824.765 621.989 824.978C622.415 825.178 622.742 825.458 622.969 825.818C623.129 826.072 623.255 826.398 623.349 826.798C623.442 827.198 623.509 827.718 623.549 828.358C623.589 828.985 623.609 829.785 623.609 830.758V834.458L625.149 834.838V835.658H620.329V834.838L621.669 834.458V829.998C621.669 829.132 621.642 828.485 621.589 828.058C621.549 827.632 621.469 827.298 621.349 827.058C621.189 826.738 620.962 826.498 620.669 826.338C620.389 826.165 620.055 826.078 619.669 826.078C619.335 826.078 619.009 826.145 618.689 826.278C618.369 826.412 618.082 826.592 617.829 826.818C617.535 827.085 617.315 827.398 617.169 827.758C617.035 828.118 616.955 828.572 616.929 829.118V834.458L618.269 834.838V835.658H613.649V834.838L614.989 834.458V829.998C614.989 829.132 614.962 828.485 614.909 828.058C614.869 827.632 614.789 827.298 614.669 827.058C614.509 826.738 614.282 826.498 613.989 826.338C613.709 826.165 613.375 826.078 612.989 826.078C612.655 826.078 612.329 826.145 612.009 826.278C611.689 826.412 611.402 826.592 611.149 826.818C610.855 827.085 610.635 827.398 610.489 827.758C610.355 828.118 610.275 828.572 610.249 829.118V834.458L611.589 834.838V835.658H606.769V834.838L608.309 834.458ZM631.495 828.598C631.495 827.278 631.355 826.052 631.075 824.918C630.795 823.772 630.395 822.745 629.875 821.838C629.355 820.932 628.728 820.178 627.995 819.578C627.275 818.978 626.475 818.572 625.595 818.358L625.175 819.338C626.042 819.538 626.795 820.058 627.435 820.898C628.075 821.738 628.575 822.825 628.935 824.158C629.295 825.478 629.475 826.972 629.475 828.638C629.475 830.318 629.295 831.812 628.935 833.118C628.588 834.425 628.102 835.478 627.475 836.278C626.848 837.078 626.115 837.565 625.275 837.738L625.795 838.838C626.635 838.665 627.402 838.298 628.095 837.738C628.788 837.178 629.388 836.452 629.895 835.558C630.402 834.652 630.795 833.612 631.075 832.438C631.355 831.265 631.495 829.985 631.495 828.598Z" fill="white"/>
<path d="M547.342 824.449C547.342 823.611 547.671 822.939 548.329 822.432C548.987 821.921 549.899 821.665 551.063 821.665C551.575 821.665 552.032 821.707 552.434 821.793C552.841 821.878 553.265 822.006 553.705 822.176V823.852C553.421 823.739 553.035 823.616 552.548 823.483C552.06 823.35 551.575 823.284 551.092 823.284C550.524 823.284 550.088 823.393 549.785 823.611C549.482 823.824 549.33 824.099 549.33 824.435C549.33 824.605 549.385 824.79 549.494 824.989C549.607 825.188 549.818 825.394 550.126 825.607C550.438 825.82 550.893 826.035 551.49 826.253C552.924 826.764 553.968 827.475 554.622 828.384C555.28 829.293 555.609 830.401 555.609 831.707V831.906C555.609 832.882 555.419 833.76 555.041 834.541C554.667 835.323 554.127 835.94 553.421 836.395C552.721 836.85 551.878 837.077 550.893 837.077C549.889 837.077 549.032 836.85 548.322 836.395C547.616 835.94 547.077 835.323 546.703 834.541C546.333 833.76 546.149 832.882 546.149 831.906V831.707C546.149 830.95 546.293 830.256 546.582 829.627C546.871 828.997 547.257 828.469 547.74 828.043C548.222 827.617 548.753 827.332 549.33 827.19V827.134C548.72 826.892 548.234 826.542 547.874 826.082C547.519 825.623 547.342 825.079 547.342 824.449ZM548.109 831.707V831.906C548.109 832.56 548.206 833.161 548.4 833.71C548.599 834.255 548.902 834.693 549.309 835.024C549.721 835.351 550.249 835.514 550.893 835.514C551.527 835.514 552.048 835.351 552.455 835.024C552.863 834.693 553.163 834.255 553.357 833.71C553.552 833.161 553.649 832.56 553.649 831.906V831.707C553.649 831.177 553.535 830.654 553.308 830.138C553.08 829.617 552.761 829.167 552.349 828.788C551.937 828.405 551.452 828.156 550.893 828.043C550.249 828.043 549.721 828.213 549.309 828.554C548.902 828.89 548.599 829.338 548.4 829.896C548.206 830.45 548.109 831.054 548.109 831.707Z" fill="white"/>
<path d="M838.204 670.573C837.26 670.573 836.396 670.429 835.612 670.141C834.844 669.853 834.204 669.445 833.692 668.917L833.428 670.309H832.084L832.084 664.861H833.548C833.644 666.381 834.028 667.493 834.7 668.197C835.372 668.901 836.388 669.253 837.748 669.253C838.884 669.253 839.74 669.037 840.316 668.605C840.892 668.157 841.18 667.501 841.18 666.637C841.18 665.949 841.004 665.373 840.652 664.909C840.316 664.445 839.82 664.029 839.164 663.661C838.524 663.293 837.756 662.933 836.86 662.581C835.852 662.165 834.996 661.757 834.292 661.357C833.588 660.941 833.052 660.445 832.684 659.869C832.332 659.277 832.156 658.517 832.156 657.589C832.156 656.069 832.628 654.885 833.572 654.037C834.532 653.189 835.812 652.765 837.412 652.765C838.996 652.765 840.284 653.213 841.276 654.109L841.468 653.029H842.812L842.812 658.477H841.444C841.444 656.941 841.156 655.821 840.58 655.117C840.004 654.413 839.1 654.061 837.868 654.061C835.676 654.061 834.58 655.061 834.58 657.061C834.58 657.589 834.676 658.029 834.868 658.381C835.06 658.717 835.404 659.029 835.9 659.317C836.412 659.605 837.132 659.949 838.06 660.349C839.388 660.909 840.46 661.453 841.276 661.981C842.092 662.509 842.684 663.085 843.052 663.709C843.42 664.317 843.604 665.045 843.604 665.893C843.604 666.869 843.372 667.709 842.908 668.413C842.46 669.117 841.828 669.653 841.012 670.021C840.212 670.389 839.276 670.573 838.204 670.573ZM855.619 668.869L855.619 663.517C855.619 662.477 855.587 661.701 855.523 661.189C855.475 660.677 855.379 660.277 855.235 659.989C854.851 659.205 854.147 658.813 853.123 658.813C852.675 658.813 852.243 658.893 851.827 659.053C851.411 659.213 851.043 659.429 850.723 659.701C850.371 660.005 850.107 660.373 849.931 660.805C849.771 661.221 849.675 661.741 849.643 662.365L849.643 668.869L851.251 669.325L851.251 670.309H845.467L845.467 669.325L847.315 668.869L847.315 653.029L845.467 652.573L845.467 651.589H849.643L849.643 659.605C850.123 658.837 850.755 658.229 851.539 657.781C852.339 657.333 853.195 657.109 854.107 657.109C854.747 657.109 855.323 657.221 855.835 657.445C856.347 657.669 856.755 657.989 857.059 658.405C857.379 658.853 857.603 659.485 857.731 660.301C857.875 661.101 857.947 662.189 857.947 663.565L857.947 668.869L859.795 669.325L859.795 670.309H854.011L854.011 669.325L855.619 668.869ZM863.025 658.789L861.176 658.333L861.176 657.349H865.353L865.353 668.869L867.2 669.325L867.2 670.309H861.176L861.176 669.325L863.024 668.869L863.025 658.789ZM862.689 653.485C862.689 653.021 862.825 652.653 863.097 652.381C863.368 652.109 863.729 651.973 864.177 651.973C864.641 651.973 865.009 652.109 865.281 652.381C865.553 652.653 865.689 653.021 865.689 653.485C865.689 653.933 865.553 654.293 865.281 654.565C865.009 654.837 864.641 654.973 864.177 654.973C863.713 654.973 863.344 654.845 863.072 654.589C862.817 654.317 862.689 653.949 862.689 653.485ZM879.717 663.973H871.341C871.341 665.141 871.501 666.109 871.821 666.877C872.141 667.613 872.597 668.141 873.189 668.461C873.781 668.781 874.421 668.941 875.109 668.941C875.861 668.941 876.549 668.789 877.173 668.485C877.797 668.165 878.357 667.733 878.853 667.189L879.621 667.765C879.061 668.533 878.381 669.189 877.581 669.733C876.781 670.277 875.749 670.549 874.485 670.549C873.381 670.549 872.405 670.317 871.557 669.853C870.709 669.373 870.061 668.677 869.613 667.765C869.373 667.269 869.197 666.717 869.085 666.109C868.973 665.501 868.917 664.853 868.917 664.165C868.917 661.925 869.429 660.189 870.453 658.957C871.493 657.725 872.901 657.109 874.677 657.109C876.309 657.109 877.565 657.621 878.445 658.645C879.341 659.653 879.789 661.053 879.789 662.845C879.789 663.005 879.781 663.157 879.765 663.301C879.765 663.429 879.749 663.653 879.717 663.973ZM874.533 658.405C872.613 658.405 871.557 659.869 871.365 662.797H877.365L877.365 662.005C877.365 660.853 877.117 659.965 876.621 659.341C876.141 658.717 875.445 658.405 874.533 658.405ZM883.364 668.869L883.364 653.029L881.516 652.573L881.516 651.589H885.692L885.692 668.869L887.54 669.325L887.54 670.309H881.516L881.516 669.325L883.364 668.869ZM889.331 663.949C889.331 662.909 889.467 661.917 889.739 660.973C890.011 660.029 890.419 659.261 890.963 658.669C891.427 658.157 891.979 657.773 892.619 657.517C893.259 657.245 893.995 657.109 894.827 657.109C895.531 657.109 896.171 657.245 896.747 657.517C897.339 657.789 897.867 658.277 898.331 658.981L898.331 653.029L896.483 652.573L896.483 651.589H900.659L900.659 668.869L902.507 669.325L902.507 670.309L898.787 670.549L898.595 668.581C898.099 669.317 897.539 669.829 896.915 670.117C896.291 670.405 895.595 670.549 894.827 670.549C894.011 670.549 893.275 670.429 892.619 670.189C891.963 669.949 891.419 669.565 890.987 669.037C890.475 668.413 890.067 667.669 889.763 666.805C889.475 665.925 889.331 664.973 889.331 663.949ZM898.331 663.925C898.331 662.949 898.259 662.101 898.115 661.381C897.971 660.661 897.763 660.077 897.491 659.629C897.235 659.213 896.923 658.901 896.555 658.693C896.187 658.469 895.699 658.357 895.091 658.357C894.547 658.357 894.067 658.453 893.651 658.645C893.251 658.837 892.923 659.117 892.667 659.485C892.379 659.885 892.171 660.461 892.043 661.213C891.915 661.949 891.851 662.797 891.851 663.757C891.851 664.717 891.923 665.557 892.067 666.277C892.211 666.981 892.419 667.565 892.691 668.029C892.963 668.429 893.283 668.741 893.651 668.965C894.035 669.189 894.523 669.301 895.115 669.301C895.675 669.301 896.155 669.213 896.555 669.037C896.971 668.845 897.283 668.565 897.491 668.197C897.763 667.749 897.971 667.173 898.115 666.469C898.259 665.749 898.331 664.901 898.331 663.925ZM915.037 663.973H906.661C906.661 665.141 906.821 666.109 907.141 666.877C907.461 667.613 907.917 668.141 908.509 668.461C909.101 668.781 909.741 668.941 910.429 668.941C911.181 668.941 911.869 668.789 912.493 668.485C913.117 668.165 913.677 667.733 914.173 667.189L914.941 667.765C914.381 668.533 913.701 669.189 912.901 669.733C912.101 670.277 911.069 670.549 909.805 670.549C908.701 670.549 907.725 670.317 906.877 669.853C906.029 669.373 905.381 668.677 904.933 667.765C904.693 667.269 904.517 666.717 904.405 666.109C904.293 665.501 904.237 664.853 904.237 664.165C904.237 661.925 904.749 660.189 905.773 658.957C906.813 657.725 908.221 657.109 909.997 657.109C911.629 657.109 912.885 657.621 913.765 658.645C914.661 659.653 915.109 661.053 915.109 662.845C915.109 663.005 915.101 663.157 915.085 663.301C915.085 663.429 915.069 663.653 915.037 663.973ZM909.853 658.405C907.933 658.405 906.877 659.869 906.685 662.797H912.685L912.685 662.005C912.685 660.853 912.437 659.965 911.941 659.341C911.461 658.717 910.765 658.405 909.853 658.405ZM917.268 663.949C917.268 662.909 917.404 661.917 917.676 660.973C917.948 660.029 918.356 659.261 918.9 658.669C919.364 658.157 919.916 657.773 920.556 657.517C921.196 657.245 921.932 657.109 922.764 657.109C923.468 657.109 924.108 657.245 924.684 657.517C925.276 657.789 925.804 658.277 926.268 658.981L926.268 653.029L924.42 652.573L924.42 651.589H928.596L928.596 668.869L930.444 669.325L930.444 670.309L926.724 670.549L926.532 668.581C926.036 669.317 925.476 669.829 924.852 670.117C924.228 670.405 923.532 670.549 922.764 670.549C921.948 670.549 921.212 670.429 920.556 670.189C919.9 669.949 919.356 669.565 918.924 669.037C918.412 668.413 918.004 667.669 917.7 666.805C917.412 665.925 917.268 664.973 917.268 663.949ZM926.268 663.925C926.268 662.949 926.196 662.101 926.052 661.381C925.908 660.661 925.7 660.077 925.428 659.629C925.172 659.213 924.86 658.901 924.492 658.693C924.124 658.469 923.636 658.357 923.028 658.357C922.484 658.357 922.004 658.453 921.588 658.645C921.188 658.837 920.86 659.117 920.604 659.485C920.316 659.885 920.108 660.461 919.98 661.213C919.852 661.949 919.788 662.797 919.788 663.757C919.788 664.717 919.86 665.557 920.004 666.277C920.148 666.981 920.356 667.565 920.628 668.029C920.9 668.429 921.22 668.741 921.588 668.965C921.972 669.189 922.46 669.301 923.052 669.301C923.612 669.301 924.092 669.213 924.492 669.037C924.908 668.845 925.22 668.565 925.428 668.197C925.7 667.749 925.908 667.173 926.052 666.469C926.196 665.749 926.268 664.901 926.268 663.925ZM932.343 670.549L935.847 652.789H937.215L933.711 670.549H932.343ZM958.778 664.093L958.778 654.565L956.762 654.061L956.762 653.029H962.306L962.306 654.061L960.29 654.565L960.29 664.477C960.29 666.461 959.754 667.973 958.682 669.013C957.61 670.053 956.042 670.573 953.978 670.573C951.85 670.573 950.21 670.045 949.058 668.989C947.922 667.917 947.354 666.405 947.354 664.453L947.354 654.565L945.338 654.061L945.338 653.029H951.77L951.77 654.061L949.754 654.565L949.754 664.045C949.754 667.517 951.338 669.253 954.506 669.253C956.01 669.253 957.098 668.845 957.77 668.029C958.442 667.213 958.778 665.901 958.778 664.093ZM967.346 673.189L969.674 673.645L969.674 674.629H963.17L963.17 673.645L965.018 673.189L965.018 658.789L963.17 658.333L963.17 657.349H966.626L966.986 659.197C967.498 658.397 968.074 657.853 968.714 657.565C969.37 657.261 970.106 657.109 970.922 657.109C971.738 657.109 972.474 657.229 973.13 657.469C973.802 657.709 974.346 658.093 974.762 658.621C975.242 659.229 975.618 659.965 975.89 660.829C976.178 661.677 976.322 662.597 976.322 663.589C976.322 664.613 976.162 665.581 975.842 666.493C975.538 667.389 975.122 668.141 974.594 668.749C973.698 669.789 972.41 670.309 970.73 670.309C970.042 670.309 969.418 670.181 968.858 669.925C968.314 669.653 967.81 669.189 967.346 668.533L967.346 673.189ZM967.322 663.613C967.322 664.557 967.394 665.381 967.538 666.085C967.682 666.789 967.89 667.357 968.162 667.789C968.418 668.189 968.73 668.501 969.098 668.725C969.482 668.949 969.97 669.061 970.562 669.061C971.106 669.061 971.578 668.965 971.978 668.773C972.394 668.565 972.73 668.285 972.986 667.933C973.274 667.533 973.482 666.973 973.61 666.253C973.738 665.533 973.802 664.709 973.802 663.781C973.802 662.837 973.73 662.021 973.586 661.333C973.442 660.645 973.234 660.077 972.962 659.629C972.706 659.213 972.386 658.901 972.002 658.693C971.634 658.469 971.146 658.357 970.538 658.357C969.994 658.357 969.514 658.453 969.098 658.645C968.698 658.821 968.386 659.093 968.162 659.461C967.906 659.893 967.698 660.461 967.538 661.165C967.394 661.853 967.322 662.669 967.322 663.613ZM977.862 658.549L977.862 657.685L980.19 657.349L980.19 657.109C980.19 655.333 980.71 653.933 981.75 652.909C982.79 651.869 984.198 651.349 985.974 651.349C987.206 651.349 988.198 651.597 988.95 652.093C989.702 652.573 990.078 653.221 990.078 654.037C990.078 654.933 989.654 655.381 988.806 655.381C988.406 655.381 988.102 655.285 987.894 655.093C987.702 654.885 987.606 654.581 987.606 654.181C987.606 653.797 987.734 653.381 987.99 652.933C987.446 652.485 986.742 652.261 985.878 652.261C985.286 652.261 984.766 652.341 984.318 652.501C983.662 652.725 983.198 653.117 982.926 653.677C982.654 654.221 982.518 655.045 982.518 656.149L982.518 657.349H990.054L990.054 668.869L991.902 669.325L991.902 670.309H986.118L986.118 669.325L987.726 668.869L987.726 658.549H982.518L982.518 668.869L984.39 669.325L984.39 670.309H978.342L978.342 669.325L980.19 668.869L980.19 658.549H977.862ZM1004.43 663.973H996.052C996.052 665.141 996.212 666.109 996.532 666.877C996.852 667.613 997.308 668.141 997.9 668.461C998.492 668.781 999.132 668.941 999.82 668.941C1000.57 668.941 1001.26 668.789 1001.88 668.485C1002.51 668.165 1003.07 667.733 1003.56 667.189L1004.33 667.765C1003.77 668.533 1003.09 669.189 1002.29 669.733C1001.49 670.277 1000.46 670.549 999.196 670.549C998.092 670.549 997.116 670.317 996.268 669.853C995.42 669.373 994.772 668.677 994.324 667.765C994.084 667.269 993.908 666.717 993.796 666.109C993.684 665.501 993.628 664.853 993.628 664.165C993.628 661.925 994.14 660.189 995.164 658.957C996.204 657.725 997.612 657.109 999.388 657.109C1001.02 657.109 1002.28 657.621 1003.16 658.645C1004.05 659.653 1004.5 661.053 1004.5 662.845C1004.5 663.005 1004.49 663.157 1004.48 663.301C1004.48 663.429 1004.46 663.653 1004.43 663.973ZM999.244 658.405C997.324 658.405 996.268 659.869 996.076 662.797H1002.08L1002.08 662.005C1002.08 660.853 1001.83 659.965 1001.33 659.341C1000.85 658.717 1000.16 658.405 999.244 658.405ZM1008.07 668.869L1008.07 653.029L1006.23 652.573L1006.23 651.589H1010.4L1010.4 668.869L1012.25 669.325L1012.25 670.309H1006.23L1006.23 669.325L1008.07 668.869ZM1014.04 663.949C1014.04 662.909 1014.18 661.917 1014.45 660.973C1014.72 660.029 1015.13 659.261 1015.67 658.669C1016.14 658.157 1016.69 657.773 1017.33 657.517C1017.97 657.245 1018.71 657.109 1019.54 657.109C1020.24 657.109 1020.88 657.245 1021.46 657.517C1022.05 657.789 1022.58 658.277 1023.04 658.981L1023.04 653.029L1021.19 652.573L1021.19 651.589H1025.37L1025.37 668.869L1027.22 669.325L1027.22 670.309L1023.5 670.549L1023.31 668.581C1022.81 669.317 1022.25 669.829 1021.63 670.117C1021 670.405 1020.31 670.549 1019.54 670.549C1018.72 670.549 1017.99 670.429 1017.33 670.189C1016.67 669.949 1016.13 669.565 1015.7 669.037C1015.19 668.413 1014.78 667.669 1014.47 666.805C1014.19 665.925 1014.04 664.973 1014.04 663.949ZM1023.04 663.925C1023.04 662.949 1022.97 662.101 1022.83 661.381C1022.68 660.661 1022.47 660.077 1022.2 659.629C1021.95 659.213 1021.63 658.901 1021.27 658.693C1020.9 658.469 1020.41 658.357 1019.8 658.357C1019.26 658.357 1018.78 658.453 1018.36 658.645C1017.96 658.837 1017.63 659.117 1017.38 659.485C1017.09 659.885 1016.88 660.461 1016.75 661.213C1016.63 661.949 1016.56 662.797 1016.56 663.757C1016.56 664.717 1016.63 665.557 1016.78 666.277C1016.92 666.981 1017.13 667.565 1017.4 668.029C1017.67 668.429 1017.99 668.741 1018.36 668.965C1018.75 669.189 1019.23 669.301 1019.83 669.301C1020.39 669.301 1020.87 669.213 1021.27 669.037C1021.68 668.845 1021.99 668.565 1022.2 668.197C1022.47 667.749 1022.68 667.173 1022.83 666.469C1022.97 665.749 1023.04 664.901 1023.04 663.925Z" fill="#5C48FD"/>
<path d="M464.32 647.268L486.206 660.268L464.32 673.268" stroke="#5C48FD" stroke-width="3"/>
<path d="M561.207 647.268L583.093 660.268L561.207 673.268" stroke="#5C48FD" stroke-width="3"/>
<path d="M658.094 647.268L679.98 660.268L658.094 673.268" stroke="#5C48FD" stroke-width="3"/>
<path d="M754.98 647.268L776.867 660.268L754.98 673.268" stroke="#5C48FD" stroke-width="3"/>
<defs>
<filter id="filter0_d_829_4910" x="148.5" y="488.86" width="878.604" height="160.344" filterUnits="userSpaceOnUse" color-interpolation-filters="sRGB">
<feFlood flood-opacity="0" result="BackgroundImageFix"/>
<feColorMatrix in="SourceAlpha" type="matrix" values="0 0 0 0 0 0 0 0 0 0 0 0 0 0 0 0 0 0 127 0" result="hardAlpha"/>
<feOffset dy="4"/>
<feGaussianBlur stdDeviation="2"/>
<feComposite in2="hardAlpha" operator="out"/>
<feColorMatrix type="matrix" values="0 0 0 0 0 0 0 0 0 0 0 0 0 0 0 0 0 0 0.25 0"/>
<feBlend mode="normal" in2="BackgroundImageFix" result="effect1_dropShadow_829_4910"/>
<feBlend mode="normal" in="SourceGraphic" in2="effect1_dropShadow_829_4910" result="shape"/>
</filter>
</defs>
</svg>
