<svg width="1123" height="901" viewBox="0 0 1123 901" fill="none" xmlns="http://www.w3.org/2000/svg">
<rect width="1122" height="900" transform="translate(0.859375 0.794922)" fill="#0C0C31"/>
<path d="M422.593 312.283C422.593 313.804 422.357 315.236 421.885 316.582C421.431 317.91 420.793 319.02 419.971 319.911C419.255 320.68 418.39 321.256 417.377 321.641C416.381 322.008 415.227 322.191 413.917 322.191C412.589 322.191 411.418 322.008 410.404 321.641C409.391 321.274 408.543 320.723 407.862 319.989C407.058 319.151 406.438 318.102 406.001 316.844C405.564 315.568 405.346 314.188 405.346 312.703C405.346 311.182 405.573 309.758 406.027 308.43C406.499 307.085 407.146 305.966 407.967 305.075C408.701 304.289 409.548 303.712 410.509 303.345C411.488 302.978 412.641 302.795 413.969 302.795C415.297 302.795 416.459 302.978 417.455 303.345C418.469 303.695 419.334 304.245 420.05 304.997C420.871 305.835 421.5 306.893 421.937 308.168C422.374 309.444 422.593 310.815 422.593 312.283ZM408.36 312.178C408.36 313.629 408.482 314.922 408.727 316.058C408.972 317.176 409.321 318.093 409.775 318.81C410.23 319.456 410.798 319.946 411.479 320.278C412.178 320.592 413.034 320.749 414.048 320.749C415.9 320.749 417.263 320.173 418.137 319.02C418.608 318.373 418.967 317.517 419.211 316.451C419.456 315.367 419.578 314.101 419.578 312.65C419.578 311.2 419.456 309.924 419.211 308.823C418.967 307.723 418.608 306.831 418.137 306.15C417.682 305.486 417.097 304.997 416.381 304.682C415.682 304.368 414.852 304.21 413.89 304.21C412.964 304.21 412.161 304.359 411.479 304.656C410.815 304.935 410.256 305.364 409.802 305.94C408.841 307.216 408.36 309.295 408.36 312.178Z" fill="#FA5050"/>
<path d="M422.593 312.283C422.593 313.804 422.357 315.236 421.885 316.582C421.431 317.91 420.793 319.02 419.971 319.911C419.255 320.68 418.39 321.256 417.377 321.641C416.381 322.008 415.227 322.191 413.917 322.191C412.589 322.191 411.418 322.008 410.404 321.641C409.391 321.274 408.543 320.723 407.862 319.989C407.058 319.151 406.438 318.102 406.001 316.844C405.564 315.568 405.346 314.188 405.346 312.703C405.346 311.182 405.573 309.758 406.027 308.43C406.499 307.085 407.146 305.966 407.967 305.075C408.701 304.289 409.548 303.712 410.509 303.345C411.488 302.978 412.641 302.795 413.969 302.795C415.297 302.795 416.459 302.978 417.455 303.345C418.469 303.695 419.334 304.245 420.05 304.997C420.871 305.835 421.5 306.893 421.937 308.168C422.374 309.444 422.593 310.815 422.593 312.283ZM408.36 312.178C408.36 313.629 408.482 314.922 408.727 316.058C408.972 317.176 409.321 318.093 409.775 318.81C410.23 319.456 410.798 319.946 411.479 320.278C412.178 320.592 413.034 320.749 414.048 320.749C415.9 320.749 417.263 320.173 418.137 319.02C418.608 318.373 418.967 317.517 419.211 316.451C419.456 315.367 419.578 314.101 419.578 312.65C419.578 311.2 419.456 309.924 419.211 308.823C418.967 307.723 418.608 306.831 418.137 306.15C417.682 305.486 417.097 304.997 416.381 304.682C415.682 304.368 414.852 304.21 413.89 304.21C412.964 304.21 412.161 304.359 411.479 304.656C410.815 304.935 410.256 305.364 409.802 305.94C408.841 307.216 408.36 309.295 408.36 312.178Z" stroke="black"/>
<path d="M505.509 304.472V319.989L507.711 320.54V321.667H500.686V320.54L502.888 319.989V312.729H494.003V319.989L496.204 320.54V321.667H489.18V320.54L491.381 319.989V304.472L489.18 303.922V302.795H496.204V303.922L494.003 304.472V311.209H502.888V304.472L500.686 303.922V302.795H507.711V303.922L505.509 304.472Z" fill="#FA5050"/>
<path d="M505.509 304.472V319.989L507.711 320.54V321.667H500.686V320.54L502.888 319.989V312.729H494.003V319.989L496.204 320.54V321.667H489.18V320.54L491.381 319.989V304.472L489.18 303.922V302.795H496.204V303.922L494.003 304.472V311.209H502.888V304.472L500.686 303.922V302.795H507.711V303.922L505.509 304.472Z" stroke="black"/>
<path d="M249.411 304.254C248.532 304.254 247.779 304.39 247.152 304.66C246.542 304.93 246.022 305.353 245.592 305.93C245.054 306.633 244.633 307.561 244.328 308.714C244.024 309.849 243.871 311.101 243.871 312.471C243.871 313.75 244.006 314.948 244.275 316.065C244.543 317.182 244.92 318.119 245.404 318.876C245.888 319.633 246.471 320.191 247.152 320.552C247.851 320.894 248.72 321.065 249.76 321.065C252.987 321.065 254.86 319.543 255.38 316.498H256.859C256.053 320.696 253.597 322.795 249.491 322.795C247.017 322.795 245.045 322.074 243.575 320.633C242.697 319.768 242.025 318.678 241.559 317.362C241.092 316.047 240.859 314.588 240.859 312.984C240.859 311.164 241.155 309.516 241.747 308.038C242.338 306.561 243.172 305.381 244.248 304.498C245.61 303.362 247.412 302.795 249.653 302.795C250.764 302.795 251.669 302.939 252.369 303.227C253.068 303.516 253.758 304.029 254.439 304.768L254.977 303.065H256.456V309.038H254.816C254.565 307.453 253.982 306.263 253.068 305.471C252.171 304.66 250.952 304.254 249.411 304.254Z" fill="white"/>
<path d="M249.411 304.254C248.532 304.254 247.779 304.39 247.152 304.66C246.542 304.93 246.022 305.353 245.592 305.93C245.054 306.633 244.633 307.561 244.328 308.714C244.024 309.849 243.871 311.101 243.871 312.471C243.871 313.75 244.006 314.948 244.275 316.065C244.543 317.182 244.92 318.119 245.404 318.876C245.888 319.633 246.471 320.191 247.152 320.552C247.851 320.894 248.72 321.065 249.76 321.065C252.987 321.065 254.86 319.543 255.38 316.498H256.859C256.053 320.696 253.597 322.795 249.491 322.795C247.017 322.795 245.045 322.074 243.575 320.633C242.697 319.768 242.025 318.678 241.559 317.362C241.092 316.047 240.859 314.588 240.859 312.984C240.859 311.164 241.155 309.516 241.747 308.038C242.338 306.561 243.172 305.381 244.248 304.498C245.61 303.362 247.412 302.795 249.653 302.795C250.764 302.795 251.669 302.939 252.369 303.227C253.068 303.516 253.758 304.029 254.439 304.768L254.977 303.065H256.456V309.038H254.816C254.565 307.453 253.982 306.263 253.068 305.471C252.171 304.66 250.952 304.254 249.411 304.254Z" stroke="black"/>
<path d="M331.411 304.254C330.532 304.254 329.779 304.39 329.152 304.66C328.542 304.93 328.022 305.353 327.592 305.93C327.054 306.633 326.633 307.561 326.328 308.714C326.024 309.849 325.871 311.101 325.871 312.471C325.871 313.75 326.006 314.948 326.275 316.065C326.543 317.182 326.92 318.119 327.404 318.876C327.888 319.633 328.471 320.191 329.152 320.552C329.851 320.894 330.72 321.065 331.76 321.065C334.987 321.065 336.86 319.543 337.38 316.498H338.859C338.053 320.696 335.597 322.795 331.491 322.795C329.017 322.795 327.045 322.074 325.575 320.633C324.697 319.768 324.025 318.678 323.559 317.362C323.092 316.047 322.859 314.588 322.859 312.984C322.859 311.164 323.155 309.516 323.747 308.038C324.338 306.561 325.172 305.381 326.248 304.498C327.61 303.362 329.412 302.795 331.653 302.795C332.764 302.795 333.669 302.939 334.369 303.227C335.068 303.516 335.758 304.029 336.439 304.768L336.977 303.065H338.456V309.038H336.816C336.565 307.453 335.982 306.263 335.068 305.471C334.171 304.66 332.952 304.254 331.411 304.254Z" fill="white"/>
<path d="M331.411 304.254C330.532 304.254 329.779 304.39 329.152 304.66C328.542 304.93 328.022 305.353 327.592 305.93C327.054 306.633 326.633 307.561 326.328 308.714C326.024 309.849 325.871 311.101 325.871 312.471C325.871 313.75 326.006 314.948 326.275 316.065C326.543 317.182 326.92 318.119 327.404 318.876C327.888 319.633 328.471 320.191 329.152 320.552C329.851 320.894 330.72 321.065 331.76 321.065C334.987 321.065 336.86 319.543 337.38 316.498H338.859C338.053 320.696 335.597 322.795 331.491 322.795C329.017 322.795 327.045 322.074 325.575 320.633C324.697 319.768 324.025 318.678 323.559 317.362C323.092 316.047 322.859 314.588 322.859 312.984C322.859 311.164 323.155 309.516 323.747 308.038C324.338 306.561 325.172 305.381 326.248 304.498C327.61 303.362 329.412 302.795 331.653 302.795C332.764 302.795 333.669 302.939 334.369 303.227C335.068 303.516 335.758 304.029 336.439 304.768L336.977 303.065H338.456V309.038H336.816C336.565 307.453 335.982 306.263 335.068 305.471C334.171 304.66 332.952 304.254 331.411 304.254Z" stroke="black"/>
<path d="M253.721 391.484V407.106L255.859 407.66V408.795H249.036V407.66L251.175 407.106V399.796H242.544V407.106L244.683 407.66V408.795H237.859V407.66L239.998 407.106V391.484L237.859 390.93V389.795H244.683V390.93L242.544 391.484V398.266H251.175V391.484L249.036 390.93V389.795H255.859V390.93L253.721 391.484Z" fill="white"/>
<path d="M253.721 391.484V407.106L255.859 407.66V408.795H249.036V407.66L251.175 407.106V399.796H242.544V407.106L244.683 407.66V408.795H237.859V407.66L239.998 407.106V391.484L237.859 390.93V389.795H244.683V390.93L242.544 391.484V398.266H251.175V391.484L249.036 390.93V389.795H255.859V390.93L253.721 391.484Z" stroke="black"/>
<path d="M335.721 391.484V407.106L337.859 407.66V408.795H331.036V407.66L333.175 407.106V399.796H324.544V407.106L326.683 407.66V408.795H319.859V407.66L321.998 407.106V391.484L319.859 390.93V389.795H326.683V390.93L324.544 391.484V398.266H333.175V391.484L331.036 390.93V389.795H337.859V390.93L335.721 391.484Z" fill="white"/>
<path d="M335.721 391.484V407.106L337.859 407.66V408.795H331.036V407.66L333.175 407.106V399.796H324.544V407.106L326.683 407.66V408.795H319.859V407.66L321.998 407.106V391.484L319.859 390.93V389.795H326.683V390.93L324.544 391.484V398.266H333.175V391.484L331.036 390.93V389.795H337.859V390.93L335.721 391.484Z" stroke="black"/>
<path d="M172.189 304.472V319.989L174.391 320.54V321.667H167.366V320.54L169.568 319.989V312.729H160.682V319.989L162.884 320.54V321.667H155.859V320.54L158.061 319.989V304.472L155.859 303.922V302.795H162.884V303.922L160.682 304.472V311.209H169.568V304.472L167.366 303.922V302.795H174.391V303.922L172.189 304.472Z" fill="white"/>
<path d="M172.189 304.472V319.989L174.391 320.54V321.667H167.366V320.54L169.568 319.989V312.729H160.682V319.989L162.884 320.54V321.667H155.859V320.54L158.061 319.989V304.472L155.859 303.922V302.795H162.884V303.922L160.682 304.472V311.209H169.568V304.472L167.366 303.922V302.795H174.391V303.922L172.189 304.472Z" stroke="black"/>
<path d="M255.189 218.472V226.231V233.989L257.391 234.54V235.667H250.366V234.54L252.568 233.989V226.729H243.682V233.989L245.884 234.54V235.667H238.859V234.54L241.061 233.989V218.472L238.859 217.922V216.795H245.884V217.922L243.682 218.472V225.209H252.568V218.472L250.366 217.922V216.795H257.391V217.922L255.189 218.472Z" fill="white"/>
<path d="M255.189 218.472V226.231V233.989L257.391 234.54V235.667H250.366V234.54L252.568 233.989V226.729H243.682V233.989L245.884 234.54V235.667H238.859V234.54L241.061 233.989V218.472L238.859 217.922V216.795H245.884V217.922L243.682 218.472V225.209H252.568V218.472L250.366 217.922V216.795H257.391V217.922L255.189 218.472Z" stroke="black"/>
<path d="M337.189 218.472V226.231V233.989L339.391 234.54V235.667H332.366V234.54L334.568 233.989V226.729H325.682V233.989L327.884 234.54V235.667H320.859V234.54L323.061 233.989V218.472L320.859 217.922V216.795H327.884V217.922L325.682 218.472V225.209H334.568V218.472L332.366 217.922V216.795H339.391V217.922L337.189 218.472Z" fill="white"/>
<path d="M337.189 218.472V226.231V233.989L339.391 234.54V235.667H332.366V234.54L334.568 233.989V226.729H325.682V233.989L327.884 234.54V235.667H320.859V234.54L323.061 233.989V218.472L320.859 217.922V216.795H327.884V217.922L325.682 218.472V225.209H334.568V218.472L332.366 217.922V216.795H339.391V217.922L337.189 218.472Z" stroke="black"/>
<line x1="248.359" y1="365.383" x2="248.359" y2="346.796" stroke="white" stroke-width="3"/>
<line x1="330.359" y1="365.383" x2="330.359" y2="346.796" stroke="white" stroke-width="3"/>
<line x1="248.359" y1="259.795" x2="248.359" y2="278.795" stroke="white" stroke-width="3"/>
<line x1="330.359" y1="259.795" x2="330.359" y2="278.795" stroke="white" stroke-width="3"/>
<line x1="198.391" y1="311.295" x2="216.978" y2="311.295" stroke="white" stroke-width="3"/>
<line x1="280.574" y1="311.295" x2="299.161" y2="311.295" stroke="white" stroke-width="3"/>
<line x1="362.758" y1="311.295" x2="381.345" y2="311.295" stroke="white" stroke-width="3"/>
<line x1="446.592" y1="311.295" x2="465.179" y2="311.295" stroke="#FA5050" stroke-width="3"/>
<g filter="url(#filter0_d_794_7198)">
<path d="M728.359 639.795H793.791M897.484 639.795H822.607M143.859 639.795H682.692M946.09 639.795H984.975H1023.86" stroke="#C3FA50" stroke-width="3"/>
</g>
<path d="M897.359 639.591L905.398 614.467V396.288L907.706 622.842L910.936 625.046L914.167 639.591H918.782V625.046L921.09 617.112V569.068M916.475 135.795L921.09 569.068M947.859 639.591H942.321H938.629L934.475 631.216L932.167 425.379L934.475 625.046V629.013L932.167 639.591L929.859 637.387L924.782 635.183V629.013L921.09 569.068" stroke="#C3FA50" stroke-width="3"/>
<path d="M681.359 639.684H685.939L687.312 638.308V620.433V581.932L685.939 551.223L687.312 568.182L690.06 571.39V638.308H698.304V595.224V499.888V359.176V472.387L700.593 482.013V557.64V638.308L702.425 630.975L706.089 638.308H709.295L713.418 632.808V348.176V456.804L716.164 635.558L719.37 639.684L722.118 635.558L723.493 632.808L722.587 520.972L722.783 545.264L725.324 623.183V635.558L728.072 640.142" stroke="#C3FA50" stroke-width="3"/>
<path d="M145.693 682.129L1025.69 682.129" stroke="white" stroke-width="2"/>
<line x1="589.002" y1="681.992" x2="589.002" y2="704.263" stroke="white" stroke-width="2"/>
<line x1="411.99" y1="681.992" x2="411.99" y2="704.263" stroke="white" stroke-width="2"/>
<line x1="234.977" y1="681.992" x2="234.977" y2="704.263" stroke="white" stroke-width="2"/>
<line x1="145.291" y1="680.877" x2="145.291" y2="703.148" stroke="white" stroke-width="2"/>
<line x1="855.701" y1="681.992" x2="855.701" y2="704.263" stroke="white" stroke-width="2"/>
<line x1="678.688" y1="681.992" x2="678.688" y2="704.263" stroke="white" stroke-width="2"/>
<line x1="501.676" y1="681.992" x2="501.676" y2="704.263" stroke="white" stroke-width="2"/>
<line x1="323.484" y1="681.992" x2="323.484" y2="704.263" stroke="white" stroke-width="2"/>
<line x1="945.387" y1="681.992" x2="945.387" y2="704.263" stroke="white" stroke-width="2"/>
<line x1="1024.45" y1="681.992" x2="1024.45" y2="704.263" stroke="white" stroke-width="2"/>
<line x1="767.195" y1="681.992" x2="767.195" y2="704.263" stroke="white" stroke-width="2"/>
<path d="M223.916 725.335C223.916 726.268 224.136 727.042 224.576 727.655C225.016 728.255 225.722 728.555 226.696 728.555C227.162 728.555 227.669 728.402 228.216 728.095C228.776 727.788 229.302 727.295 229.796 726.615C229.716 725.268 229.402 724.182 228.856 723.355C228.322 722.528 227.536 722.115 226.496 722.115C226.016 722.115 225.576 722.262 225.176 722.555C224.789 722.835 224.482 723.215 224.256 723.695C224.029 724.175 223.916 724.722 223.916 725.335ZM225.996 734.615C225.409 734.615 224.889 734.502 224.436 734.275C223.996 734.048 223.616 733.748 223.296 733.375L223.836 732.775C224.116 733.122 224.442 733.388 224.816 733.575C225.202 733.748 225.602 733.835 226.016 733.835C226.696 733.835 227.322 733.635 227.896 733.235C228.469 732.835 228.929 732.175 229.276 731.255C229.636 730.335 229.816 729.095 229.816 727.535C229.376 728.068 228.876 728.495 228.316 728.815C227.756 729.135 227.176 729.295 226.576 729.295C225.469 729.295 224.602 728.962 223.976 728.295C223.349 727.615 223.036 726.628 223.036 725.335C223.036 724.562 223.196 723.875 223.516 723.275C223.836 722.675 224.262 722.208 224.796 721.875C225.329 721.528 225.909 721.355 226.536 721.355C227.802 721.355 228.809 721.875 229.556 722.915C230.316 723.942 230.696 725.428 230.696 727.375C230.696 729.162 230.476 730.588 230.036 731.655C229.596 732.708 229.016 733.468 228.296 733.935C227.589 734.388 226.822 734.615 225.996 734.615ZM233.946 734.615C233.733 734.615 233.533 734.535 233.346 734.375C233.173 734.215 233.086 733.995 233.086 733.715C233.086 733.422 233.173 733.195 233.346 733.035C233.533 732.875 233.733 732.795 233.946 732.795C234.173 732.795 234.366 732.875 234.526 733.035C234.699 733.195 234.786 733.422 234.786 733.715C234.786 733.995 234.699 734.215 234.526 734.375C234.366 734.535 234.173 734.615 233.946 734.615ZM240.901 734.615C239.688 734.615 238.748 734.035 238.081 732.875C237.414 731.715 237.081 730.068 237.081 727.935C237.081 725.815 237.414 724.188 238.081 723.055C238.748 721.922 239.688 721.355 240.901 721.355C242.128 721.355 243.068 721.922 243.721 723.055C244.388 724.188 244.721 725.815 244.721 727.935C244.721 730.068 244.388 731.715 243.721 732.875C243.068 734.035 242.128 734.615 240.901 734.615ZM240.901 733.855C241.794 733.855 242.501 733.355 243.021 732.355C243.554 731.355 243.821 729.882 243.821 727.935C243.821 725.988 243.554 724.535 243.021 723.575C242.501 722.602 241.794 722.115 240.901 722.115C240.021 722.115 239.314 722.602 238.781 723.575C238.248 724.535 237.981 725.988 237.981 727.935C237.981 729.882 238.248 731.355 238.781 732.355C239.314 733.355 240.021 733.855 240.901 733.855Z" fill="white"/>
<path d="M129.45 734.375V733.595H132.45V722.995H130.17V722.395C130.69 722.302 131.156 722.188 131.57 722.055C131.983 721.922 132.336 721.768 132.63 721.595H133.35V733.595H136.13V734.375H129.45ZM142.12 734.615C140.907 734.615 139.967 734.035 139.3 732.875C138.633 731.715 138.3 730.068 138.3 727.935C138.3 725.815 138.633 724.188 139.3 723.055C139.967 721.922 140.907 721.355 142.12 721.355C143.347 721.355 144.287 721.922 144.94 723.055C145.607 724.188 145.94 725.815 145.94 727.935C145.94 730.068 145.607 731.715 144.94 732.875C144.287 734.035 143.347 734.615 142.12 734.615ZM142.12 733.855C143.013 733.855 143.72 733.355 144.24 732.355C144.773 731.355 145.04 729.882 145.04 727.935C145.04 725.988 144.773 724.535 144.24 723.575C143.72 722.602 143.013 722.115 142.12 722.115C141.24 722.115 140.533 722.602 140 723.575C139.467 724.535 139.2 725.988 139.2 727.935C139.2 729.882 139.467 731.355 140 732.355C140.533 733.355 141.24 733.855 142.12 733.855ZM149.11 734.615C148.897 734.615 148.697 734.535 148.51 734.375C148.337 734.215 148.25 733.995 148.25 733.715C148.25 733.422 148.337 733.195 148.51 733.035C148.697 732.875 148.897 732.795 149.11 732.795C149.337 732.795 149.53 732.875 149.69 733.035C149.863 733.195 149.95 733.422 149.95 733.715C149.95 733.995 149.863 734.215 149.69 734.375C149.53 734.535 149.337 734.615 149.11 734.615ZM156.065 734.615C154.852 734.615 153.912 734.035 153.245 732.875C152.578 731.715 152.245 730.068 152.245 727.935C152.245 725.815 152.578 724.188 153.245 723.055C153.912 721.922 154.852 721.355 156.065 721.355C157.292 721.355 158.232 721.922 158.885 723.055C159.552 724.188 159.885 725.815 159.885 727.935C159.885 730.068 159.552 731.715 158.885 732.875C158.232 734.035 157.292 734.615 156.065 734.615ZM156.065 733.855C156.958 733.855 157.665 733.355 158.185 732.355C158.718 731.355 158.985 729.882 158.985 727.935C158.985 725.988 158.718 724.535 158.185 723.575C157.665 722.602 156.958 722.115 156.065 722.115C155.185 722.115 154.478 722.602 153.945 723.575C153.412 724.535 153.145 725.988 153.145 727.935C153.145 729.882 153.412 731.355 153.945 732.355C154.478 733.355 155.185 733.855 156.065 733.855Z" fill="white"/>
<path d="M316.721 733.502C315.948 733.502 315.255 733.348 314.641 733.042C314.028 732.735 313.541 732.315 313.181 731.782C312.835 731.248 312.661 730.648 312.661 729.982C312.661 729.408 312.788 728.888 313.041 728.422C313.308 727.955 313.635 727.555 314.021 727.222C314.421 726.875 314.821 726.595 315.221 726.382V726.302C314.755 725.995 314.328 725.602 313.941 725.122C313.568 724.628 313.381 724.042 313.381 723.362C313.381 722.748 313.528 722.208 313.821 721.742C314.128 721.275 314.535 720.908 315.041 720.642C315.548 720.375 316.108 720.242 316.721 720.242C317.815 720.242 318.661 720.562 319.261 721.202C319.875 721.828 320.181 722.622 320.181 723.582C320.181 724.048 320.081 724.495 319.881 724.922C319.681 725.335 319.441 725.708 319.161 726.042C318.881 726.362 318.615 726.622 318.361 726.822V726.902C318.735 727.128 319.088 727.388 319.421 727.682C319.768 727.962 320.048 728.302 320.261 728.702C320.488 729.102 320.601 729.588 320.601 730.162C320.601 730.775 320.435 731.335 320.101 731.842C319.781 732.348 319.328 732.755 318.741 733.062C318.168 733.355 317.495 733.502 316.721 733.502ZM317.661 726.562C318.208 726.122 318.621 725.655 318.901 725.162C319.195 724.668 319.341 724.148 319.341 723.602C319.341 722.895 319.108 722.282 318.641 721.762C318.188 721.242 317.548 720.982 316.721 720.982C316.015 720.982 315.428 721.208 314.961 721.662C314.495 722.102 314.261 722.668 314.261 723.362C314.261 723.962 314.428 724.462 314.761 724.862C315.095 725.248 315.521 725.575 316.041 725.842C316.561 726.095 317.101 726.335 317.661 726.562ZM316.721 732.762C317.628 732.762 318.348 732.508 318.881 732.002C319.428 731.495 319.701 730.875 319.701 730.142C319.701 729.488 319.515 728.962 319.141 728.562C318.768 728.148 318.281 727.802 317.681 727.522C317.095 727.242 316.468 726.975 315.801 726.722C315.148 727.095 314.608 727.548 314.181 728.082C313.755 728.615 313.541 729.235 313.541 729.942C313.541 730.475 313.675 730.955 313.941 731.382C314.221 731.795 314.601 732.128 315.081 732.382C315.561 732.635 316.108 732.762 316.721 732.762ZM323.632 733.502C323.418 733.502 323.218 733.422 323.032 733.262C322.858 733.102 322.772 732.882 322.772 732.602C322.772 732.308 322.858 732.082 323.032 731.922C323.218 731.762 323.418 731.682 323.632 731.682C323.858 731.682 324.052 731.762 324.212 731.922C324.385 732.082 324.472 732.308 324.472 732.602C324.472 732.882 324.385 733.102 324.212 733.262C324.052 733.422 323.858 733.502 323.632 733.502ZM330.587 733.502C329.373 733.502 328.433 732.922 327.767 731.762C327.1 730.602 326.767 728.955 326.767 726.822C326.767 724.702 327.1 723.075 327.767 721.942C328.433 720.808 329.373 720.242 330.587 720.242C331.813 720.242 332.753 720.808 333.407 721.942C334.073 723.075 334.407 724.702 334.407 726.822C334.407 728.955 334.073 730.602 333.407 731.762C332.753 732.922 331.813 733.502 330.587 733.502ZM330.587 732.742C331.48 732.742 332.187 732.242 332.707 731.242C333.24 730.242 333.507 728.768 333.507 726.822C333.507 724.875 333.24 723.422 332.707 722.462C332.187 721.488 331.48 721.002 330.587 721.002C329.707 721.002 329 721.488 328.467 722.462C327.933 723.422 327.667 724.875 327.667 726.822C327.667 728.768 327.933 730.242 328.467 731.242C329 732.242 329.707 732.742 330.587 732.742Z" fill="white"/>
<path d="M405.309 733.262C405.375 731.542 405.549 730.002 405.829 728.642C406.109 727.282 406.522 726.015 407.069 724.842C407.615 723.655 408.315 722.462 409.169 721.262H402.429V720.482H410.289V721.002C409.529 722.015 408.895 722.995 408.389 723.942C407.895 724.875 407.502 725.822 407.209 726.782C406.915 727.742 406.695 728.748 406.549 729.802C406.415 730.855 406.322 732.008 406.269 733.262H405.309ZM413.319 733.502C413.106 733.502 412.906 733.422 412.719 733.262C412.546 733.102 412.459 732.882 412.459 732.602C412.459 732.308 412.546 732.082 412.719 731.922C412.906 731.762 413.106 731.682 413.319 731.682C413.546 731.682 413.739 731.762 413.899 731.922C414.072 732.082 414.159 732.308 414.159 732.602C414.159 732.882 414.072 733.102 413.899 733.262C413.739 733.422 413.546 733.502 413.319 733.502ZM420.274 733.502C419.061 733.502 418.121 732.922 417.454 731.762C416.787 730.602 416.454 728.955 416.454 726.822C416.454 724.702 416.787 723.075 417.454 721.942C418.121 720.808 419.061 720.242 420.274 720.242C421.501 720.242 422.441 720.808 423.094 721.942C423.761 723.075 424.094 724.702 424.094 726.822C424.094 728.955 423.761 730.602 423.094 731.762C422.441 732.922 421.501 733.502 420.274 733.502ZM420.274 732.742C421.167 732.742 421.874 732.242 422.394 731.242C422.927 730.242 423.194 728.768 423.194 726.822C423.194 724.875 422.927 723.422 422.394 722.462C421.874 721.488 421.167 721.002 420.274 721.002C419.394 721.002 418.687 721.488 418.154 722.462C417.621 723.422 417.354 724.875 417.354 726.822C417.354 728.768 417.621 730.242 418.154 731.242C418.687 732.242 419.394 732.742 420.274 732.742Z" fill="white"/>
<path d="M493.935 726.302C493.482 726.302 492.982 726.448 492.435 726.742C491.888 727.022 491.355 727.515 490.835 728.222C490.915 729.568 491.222 730.662 491.755 731.502C492.288 732.328 493.075 732.742 494.115 732.742C494.608 732.742 495.048 732.602 495.435 732.322C495.822 732.028 496.128 731.642 496.355 731.162C496.582 730.668 496.695 730.115 496.695 729.502C496.695 728.582 496.475 727.822 496.035 727.222C495.608 726.608 494.908 726.302 493.935 726.302ZM494.095 733.502C492.815 733.502 491.795 732.982 491.035 731.942C490.288 730.888 489.915 729.395 489.915 727.462C489.915 726.115 490.042 724.982 490.295 724.062C490.548 723.142 490.895 722.402 491.335 721.842C491.775 721.282 492.275 720.875 492.835 720.622C493.408 720.368 494.002 720.242 494.615 720.242C495.215 720.242 495.728 720.355 496.155 720.582C496.595 720.808 496.982 721.108 497.315 721.482L496.775 722.082C496.495 721.735 496.168 721.475 495.795 721.302C495.422 721.115 495.028 721.022 494.615 721.022C493.935 721.022 493.302 721.222 492.715 721.622C492.142 722.022 491.682 722.682 491.335 723.602C490.988 724.522 490.815 725.762 490.815 727.322C491.255 726.775 491.755 726.342 492.315 726.022C492.875 725.702 493.448 725.542 494.035 725.542C495.155 725.542 496.028 725.882 496.655 726.562C497.282 727.228 497.595 728.208 497.595 729.502C497.595 730.275 497.435 730.962 497.115 731.562C496.795 732.162 496.368 732.635 495.835 732.982C495.315 733.328 494.735 733.502 494.095 733.502ZM500.645 733.502C500.432 733.502 500.232 733.422 500.045 733.262C499.872 733.102 499.785 732.882 499.785 732.602C499.785 732.308 499.872 732.082 500.045 731.922C500.232 731.762 500.432 731.682 500.645 731.682C500.872 731.682 501.065 731.762 501.225 731.922C501.399 732.082 501.485 732.308 501.485 732.602C501.485 732.882 501.399 733.102 501.225 733.262C501.065 733.422 500.872 733.502 500.645 733.502ZM507.6 733.502C506.387 733.502 505.447 732.922 504.78 731.762C504.114 730.602 503.78 728.955 503.78 726.822C503.78 724.702 504.114 723.075 504.78 721.942C505.447 720.808 506.387 720.242 507.6 720.242C508.827 720.242 509.767 720.808 510.42 721.942C511.087 723.075 511.42 724.702 511.42 726.822C511.42 728.955 511.087 730.602 510.42 731.762C509.767 732.922 508.827 733.502 507.6 733.502ZM507.6 732.742C508.494 732.742 509.2 732.242 509.72 731.242C510.254 730.242 510.52 728.768 510.52 726.822C510.52 724.875 510.254 723.422 509.72 722.462C509.2 721.488 508.494 721.002 507.6 721.002C506.72 721.002 506.014 721.488 505.48 722.462C504.947 723.422 504.68 724.875 504.68 726.822C504.68 728.768 504.947 730.242 505.48 731.242C506.014 732.242 506.72 732.742 507.6 732.742Z" fill="white"/>
<path d="M580.741 733.502C580.061 733.502 579.468 733.415 578.961 733.242C578.468 733.068 578.041 732.848 577.681 732.582C577.321 732.315 577.001 732.048 576.721 731.782L577.221 731.162C577.608 731.548 578.068 731.908 578.601 732.242C579.148 732.562 579.855 732.722 580.721 732.722C581.295 732.722 581.821 732.582 582.301 732.302C582.781 732.008 583.168 731.602 583.461 731.082C583.755 730.562 583.901 729.962 583.901 729.282C583.901 728.255 583.615 727.448 583.041 726.862C582.481 726.275 581.728 725.982 580.781 725.982C580.288 725.982 579.861 726.062 579.501 726.222C579.155 726.368 578.788 726.575 578.401 726.842L577.781 726.462L578.241 720.482H584.141V721.262H579.041L578.641 725.882C578.975 725.682 579.321 725.522 579.681 725.402C580.041 725.268 580.455 725.202 580.921 725.202C581.641 725.202 582.295 725.348 582.881 725.642C583.481 725.922 583.955 726.362 584.301 726.962C584.648 727.548 584.821 728.308 584.821 729.242C584.821 730.148 584.621 730.922 584.221 731.562C583.835 732.188 583.328 732.668 582.701 733.002C582.088 733.335 581.435 733.502 580.741 733.502ZM587.971 733.502C587.758 733.502 587.558 733.422 587.371 733.262C587.198 733.102 587.111 732.882 587.111 732.602C587.111 732.308 587.198 732.082 587.371 731.922C587.558 731.762 587.758 731.682 587.971 731.682C588.198 731.682 588.391 731.762 588.551 731.922C588.725 732.082 588.811 732.308 588.811 732.602C588.811 732.882 588.725 733.102 588.551 733.262C588.391 733.422 588.198 733.502 587.971 733.502ZM594.926 733.502C593.713 733.502 592.773 732.922 592.106 731.762C591.44 730.602 591.106 728.955 591.106 726.822C591.106 724.702 591.44 723.075 592.106 721.942C592.773 720.808 593.713 720.242 594.926 720.242C596.153 720.242 597.093 720.808 597.746 721.942C598.413 723.075 598.746 724.702 598.746 726.822C598.746 728.955 598.413 730.602 597.746 731.762C597.093 732.922 596.153 733.502 594.926 733.502ZM594.926 732.742C595.82 732.742 596.526 732.242 597.046 731.242C597.58 730.242 597.846 728.768 597.846 726.822C597.846 724.875 597.58 723.422 597.046 722.462C596.526 721.488 595.82 721.002 594.926 721.002C594.046 721.002 593.34 721.488 592.806 722.462C592.273 723.422 592.006 724.875 592.006 726.822C592.006 728.768 592.273 730.242 592.806 731.242C593.34 732.242 594.046 732.742 594.926 732.742Z" fill="white"/>
<path d="M667.287 728.682H672.087V724.002C672.087 723.708 672.093 723.342 672.107 722.902C672.133 722.462 672.153 722.095 672.167 721.802H672.087C671.927 722.068 671.76 722.328 671.587 722.582C671.413 722.835 671.233 723.108 671.047 723.402L667.287 728.682ZM672.087 733.262V729.442H666.207V728.922L672.147 720.482H672.947V728.682H674.847V729.442H672.947V733.262H672.087ZM677.657 733.502C677.444 733.502 677.244 733.422 677.057 733.262C676.884 733.102 676.797 732.882 676.797 732.602C676.797 732.308 676.884 732.082 677.057 731.922C677.244 731.762 677.444 731.682 677.657 731.682C677.884 731.682 678.077 731.762 678.237 731.922C678.41 732.082 678.497 732.308 678.497 732.602C678.497 732.882 678.41 733.102 678.237 733.262C678.077 733.422 677.884 733.502 677.657 733.502ZM684.612 733.502C683.399 733.502 682.459 732.922 681.792 731.762C681.125 730.602 680.792 728.955 680.792 726.822C680.792 724.702 681.125 723.075 681.792 721.942C682.459 720.808 683.399 720.242 684.612 720.242C685.839 720.242 686.779 720.808 687.432 721.942C688.099 723.075 688.432 724.702 688.432 726.822C688.432 728.955 688.099 730.602 687.432 731.762C686.779 732.922 685.839 733.502 684.612 733.502ZM684.612 732.742C685.505 732.742 686.212 732.242 686.732 731.242C687.265 730.242 687.532 728.768 687.532 726.822C687.532 724.875 687.265 723.422 686.732 722.462C686.212 721.488 685.505 721.002 684.612 721.002C683.732 721.002 683.025 721.488 682.492 722.462C681.959 723.422 681.692 724.875 681.692 726.822C681.692 728.768 681.959 730.242 682.492 731.242C683.025 732.242 683.732 732.742 684.612 732.742Z" fill="white"/>
<path d="M757.853 733.502C757.173 733.502 756.58 733.415 756.073 733.242C755.566 733.055 755.126 732.822 754.753 732.542C754.393 732.262 754.073 731.982 753.793 731.702L754.313 731.082C754.7 731.495 755.166 731.875 755.713 732.222C756.26 732.555 756.973 732.722 757.853 732.722C758.72 732.722 759.433 732.468 759.993 731.962C760.553 731.442 760.833 730.755 760.833 729.902C760.833 729.022 760.486 728.308 759.793 727.762C759.113 727.215 757.973 726.942 756.373 726.942V726.162C757.36 726.162 758.146 726.042 758.733 725.802C759.32 725.548 759.74 725.208 759.993 724.782C760.246 724.355 760.373 723.888 760.373 723.382C760.373 722.662 760.14 722.088 759.673 721.662C759.206 721.222 758.58 721.002 757.793 721.002C757.206 721.002 756.66 721.142 756.153 721.422C755.66 721.688 755.226 722.015 754.853 722.402L754.333 721.802C754.773 721.375 755.273 721.008 755.833 720.702C756.406 720.395 757.06 720.242 757.793 720.242C758.46 720.242 759.053 720.362 759.573 720.602C760.106 720.842 760.526 721.195 760.833 721.662C761.14 722.115 761.293 722.668 761.293 723.322C761.293 724.162 761.06 724.842 760.593 725.362C760.14 725.868 759.56 726.242 758.853 726.482V726.562C759.386 726.668 759.866 726.875 760.293 727.182C760.733 727.475 761.086 727.848 761.353 728.302C761.62 728.755 761.753 729.282 761.753 729.882C761.753 730.615 761.58 731.255 761.233 731.802C760.886 732.348 760.42 732.768 759.833 733.062C759.246 733.355 758.586 733.502 757.853 733.502ZM764.983 733.502C764.77 733.502 764.57 733.422 764.383 733.262C764.21 733.102 764.123 732.882 764.123 732.602C764.123 732.308 764.21 732.082 764.383 731.922C764.57 731.762 764.77 731.682 764.983 731.682C765.21 731.682 765.403 731.762 765.563 731.922C765.737 732.082 765.823 732.308 765.823 732.602C765.823 732.882 765.737 733.102 765.563 733.262C765.403 733.422 765.21 733.502 764.983 733.502ZM771.938 733.502C770.725 733.502 769.785 732.922 769.118 731.762C768.452 730.602 768.118 728.955 768.118 726.822C768.118 724.702 768.452 723.075 769.118 721.942C769.785 720.808 770.725 720.242 771.938 720.242C773.165 720.242 774.105 720.808 774.758 721.942C775.425 723.075 775.758 724.702 775.758 726.822C775.758 728.955 775.425 730.602 774.758 731.762C774.105 732.922 773.165 733.502 771.938 733.502ZM771.938 732.742C772.832 732.742 773.538 732.242 774.058 731.242C774.592 730.242 774.858 728.768 774.858 726.822C774.858 724.875 774.592 723.422 774.058 722.462C773.538 721.488 772.832 721.002 771.938 721.002C771.058 721.002 770.352 721.488 769.818 722.462C769.285 723.422 769.018 724.875 769.018 726.822C769.018 728.768 769.285 730.242 769.818 731.242C770.352 732.242 771.058 732.742 771.938 732.742Z" fill="white"/>
<path d="M843.72 733.262V732.702C845.12 731.275 846.287 730.042 847.22 729.002C848.154 727.948 848.854 727.008 849.32 726.182C849.787 725.355 850.02 724.575 850.02 723.842C850.02 723.042 849.794 722.368 849.34 721.822C848.9 721.275 848.2 721.002 847.24 721.002C846.667 721.002 846.12 721.162 845.6 721.482C845.094 721.802 844.647 722.202 844.26 722.682L843.68 722.122C844.16 721.588 844.694 721.142 845.28 720.782C845.867 720.422 846.547 720.242 847.32 720.242C848.467 720.242 849.354 720.568 849.98 721.222C850.607 721.875 850.92 722.742 850.92 723.822C850.92 724.662 850.674 725.515 850.18 726.382C849.7 727.248 849.02 728.182 848.14 729.182C847.274 730.182 846.247 731.308 845.06 732.562C845.407 732.535 845.76 732.515 846.12 732.502C846.494 732.475 846.854 732.462 847.2 732.462H851.56V733.262H843.72ZM854.671 733.502C854.457 733.502 854.257 733.422 854.071 733.262C853.897 733.102 853.811 732.882 853.811 732.602C853.811 732.308 853.897 732.082 854.071 731.922C854.257 731.762 854.457 731.682 854.671 731.682C854.897 731.682 855.091 731.762 855.251 731.922C855.424 732.082 855.511 732.308 855.511 732.602C855.511 732.882 855.424 733.102 855.251 733.262C855.091 733.422 854.897 733.502 854.671 733.502ZM861.626 733.502C860.412 733.502 859.472 732.922 858.806 731.762C858.139 730.602 857.806 728.955 857.806 726.822C857.806 724.702 858.139 723.075 858.806 721.942C859.472 720.808 860.412 720.242 861.626 720.242C862.852 720.242 863.792 720.808 864.446 721.942C865.112 723.075 865.446 724.702 865.446 726.822C865.446 728.955 865.112 730.602 864.446 731.762C863.792 732.922 862.852 733.502 861.626 733.502ZM861.626 732.742C862.519 732.742 863.226 732.242 863.746 731.242C864.279 730.242 864.546 728.768 864.546 726.822C864.546 724.875 864.279 723.422 863.746 722.462C863.226 721.488 862.519 721.002 861.626 721.002C860.746 721.002 860.039 721.488 859.506 722.462C858.972 723.422 858.706 724.875 858.706 726.822C858.706 728.768 858.972 730.242 859.506 731.242C860.039 732.242 860.746 732.742 861.626 732.742Z" fill="white"/>
<path d="M938.987 733.262V732.482H941.987V721.882H939.707V721.282C940.227 721.188 940.693 721.075 941.107 720.942C941.52 720.808 941.873 720.655 942.167 720.482H942.887V732.482H945.667V733.262H938.987ZM949.077 733.502C948.864 733.502 948.664 733.422 948.477 733.262C948.304 733.102 948.217 732.882 948.217 732.602C948.217 732.308 948.304 732.082 948.477 731.922C948.664 731.762 948.864 731.682 949.077 731.682C949.304 731.682 949.497 731.762 949.657 731.922C949.83 732.082 949.917 732.308 949.917 732.602C949.917 732.882 949.83 733.102 949.657 733.262C949.497 733.422 949.304 733.502 949.077 733.502ZM956.032 733.502C954.819 733.502 953.879 732.922 953.212 731.762C952.545 730.602 952.212 728.955 952.212 726.822C952.212 724.702 952.545 723.075 953.212 721.942C953.879 720.808 954.819 720.242 956.032 720.242C957.259 720.242 958.199 720.808 958.852 721.942C959.519 723.075 959.852 724.702 959.852 726.822C959.852 728.955 959.519 730.602 958.852 731.762C958.199 732.922 957.259 733.502 956.032 733.502ZM956.032 732.742C956.925 732.742 957.632 732.242 958.152 731.242C958.685 730.242 958.952 728.768 958.952 726.822C958.952 724.875 958.685 723.422 958.152 722.462C957.632 721.488 956.925 721.002 956.032 721.002C955.152 721.002 954.445 721.488 953.912 722.462C953.379 723.422 953.112 724.875 953.112 726.822C953.112 728.768 953.379 730.242 953.912 731.242C954.445 732.242 955.152 732.742 956.032 732.742Z" fill="white"/>
<path d="M1025.87 733.502C1024.66 733.502 1023.72 732.922 1023.05 731.762C1022.39 730.602 1022.05 728.955 1022.05 726.822C1022.05 724.702 1022.39 723.075 1023.05 721.942C1023.72 720.808 1024.66 720.242 1025.87 720.242C1027.1 720.242 1028.04 720.808 1028.69 721.942C1029.36 723.075 1029.69 724.702 1029.69 726.822C1029.69 728.955 1029.36 730.602 1028.69 731.762C1028.04 732.922 1027.1 733.502 1025.87 733.502ZM1025.87 732.742C1026.77 732.742 1027.47 732.242 1027.99 731.242C1028.53 730.242 1028.79 728.768 1028.79 726.822C1028.79 724.875 1028.53 723.422 1027.99 722.462C1027.47 721.488 1026.77 721.002 1025.87 721.002C1024.99 721.002 1024.29 721.488 1023.75 722.462C1023.22 723.422 1022.95 724.875 1022.95 726.822C1022.95 728.768 1023.22 730.242 1023.75 731.242C1024.29 732.242 1024.99 732.742 1025.87 732.742Z" fill="white"/>
<g filter="url(#filter1_d_794_7198)">
<path d="M791.859 639.639H807.43L810.178 622.173V536.004L812.01 530.963V488.795V525.921L813.842 523.629L815.216 639.639H822.543H826.665" stroke="#FA5050" stroke-width="3"/>
</g>
<line x1="811.859" y1="312.295" x2="527.859" y2="312.295" stroke="#FA5050" stroke-width="3"/>
<path d="M811.799 451.856C812.385 452.441 813.334 452.441 813.92 451.856L823.466 442.31C824.052 441.724 824.052 440.774 823.466 440.188C822.88 439.603 821.93 439.603 821.345 440.188L812.859 448.674L804.374 440.188C803.788 439.603 802.839 439.603 802.253 440.188C801.667 440.774 801.667 441.724 802.253 442.31L811.799 451.856ZM811.359 310.795L811.359 450.795L814.359 450.795L814.359 310.795L811.359 310.795Z" fill="#FA5050"/>
<path d="M800.684 231.96C800.684 234.39 800.301 236.68 799.535 238.83C798.797 240.953 797.762 242.726 796.428 244.15C795.265 245.379 793.861 246.301 792.216 246.915C790.598 247.502 788.726 247.795 786.598 247.795C784.442 247.795 782.542 247.502 780.896 246.915C779.251 246.329 777.875 245.449 776.769 244.276C775.464 242.935 774.457 241.26 773.747 239.249C773.038 237.21 772.684 235.004 772.684 232.63C772.684 230.2 773.052 227.924 773.79 225.802C774.556 223.651 775.606 221.864 776.939 220.44C778.13 219.183 779.506 218.261 781.067 217.675C782.655 217.088 784.528 216.795 786.684 216.795C788.84 216.795 790.726 217.088 792.343 217.675C793.989 218.233 795.393 219.113 796.556 220.314C797.889 221.654 798.911 223.344 799.62 225.383C800.329 227.421 800.684 229.614 800.684 231.96ZM777.577 231.792C777.577 234.11 777.776 236.177 778.173 237.992C778.57 239.78 779.137 241.246 779.875 242.391C780.613 243.424 781.535 244.206 782.641 244.737C783.776 245.24 785.166 245.491 786.811 245.491C789.818 245.491 792.031 244.569 793.45 242.726C794.216 241.693 794.797 240.324 795.194 238.621C795.591 236.889 795.79 234.864 795.79 232.546C795.79 230.228 795.591 228.19 795.194 226.43C794.797 224.671 794.216 223.246 793.45 222.157C792.712 221.096 791.762 220.314 790.598 219.811C789.464 219.308 788.116 219.057 786.556 219.057C785.052 219.057 783.747 219.294 782.641 219.769C781.563 220.216 780.655 220.9 779.918 221.822C778.357 223.861 777.577 227.184 777.577 231.792Z" fill="#FA5050"/>
<path d="M800.684 231.96C800.684 234.39 800.301 236.68 799.535 238.83C798.797 240.953 797.762 242.726 796.428 244.15C795.265 245.379 793.861 246.301 792.216 246.915C790.598 247.502 788.726 247.795 786.598 247.795C784.442 247.795 782.542 247.502 780.896 246.915C779.251 246.329 777.875 245.449 776.769 244.276C775.464 242.935 774.457 241.26 773.747 239.249C773.038 237.21 772.684 235.004 772.684 232.63C772.684 230.2 773.052 227.924 773.79 225.802C774.556 223.651 775.606 221.864 776.939 220.44C778.13 219.183 779.506 218.261 781.067 217.675C782.655 217.088 784.528 216.795 786.684 216.795C788.84 216.795 790.726 217.088 792.343 217.675C793.989 218.233 795.393 219.113 796.556 220.314C797.889 221.654 798.911 223.344 799.62 225.383C800.329 227.421 800.684 229.614 800.684 231.96ZM777.577 231.792C777.577 234.11 777.776 236.177 778.173 237.992C778.57 239.78 779.137 241.246 779.875 242.391C780.613 243.424 781.535 244.206 782.641 244.737C783.776 245.24 785.166 245.491 786.811 245.491C789.818 245.491 792.031 244.569 793.45 242.726C794.216 241.693 794.797 240.324 795.194 238.621C795.591 236.889 795.79 234.864 795.79 232.546C795.79 230.228 795.591 228.19 795.194 226.43C794.797 224.671 794.216 223.246 793.45 222.157C792.712 221.096 791.762 220.314 790.598 219.811C789.464 219.308 788.116 219.057 786.556 219.057C785.052 219.057 783.747 219.294 782.641 219.769C781.563 220.216 780.655 220.9 779.918 221.822C778.357 223.861 777.577 227.184 777.577 231.792Z" stroke="black"/>
<path d="M827.119 219.55V245.039L830.684 245.944V247.795H819.312V245.944L822.876 245.039V233.113H808.491V245.039L812.056 245.944V247.795H800.684V245.944L804.248 245.039V219.55L800.684 218.646V216.795H812.056V218.646L808.491 219.55V230.616H822.876V219.55L819.312 218.646V216.795H830.684V218.646L827.119 219.55Z" fill="#FA5050"/>
<path d="M827.119 219.55V245.039L830.684 245.944V247.795H819.312V245.944L822.876 245.039V233.113H808.491V245.039L812.056 245.944V247.795H800.684V245.944L804.248 245.039V219.55L800.684 218.646V216.795H812.056V218.646L808.491 219.55V230.616H822.876V219.55L819.312 218.646V216.795H830.684V218.646L827.119 219.55Z" stroke="black"/>
<path d="M95.2994 82.0349H94.2794L93.9194 79.9949H90.5994L90.5994 85.5949H96.6394L97.2594 82.3349H98.4194L98.4194 86.7949H86.7194L86.7194 85.9349L88.5994 85.5149L88.5994 73.6749L86.7194 73.2549L86.7194 72.3949H97.9794L97.9794 76.6349H96.9394L96.2994 73.5549H90.5994L90.5994 78.7949H93.9194L94.2794 76.7549H95.2994L95.2994 82.0349ZM99.7308 76.9949L99.7308 76.2749L101.671 75.9949L101.931 73.4749L103.611 73.2349L103.611 75.9949H106.171L106.171 76.9949H103.611L103.611 84.1349C103.611 84.5883 103.617 84.9016 103.631 85.0749C103.644 85.2349 103.671 85.3683 103.711 85.4749C103.751 85.5683 103.824 85.6349 103.931 85.6749C104.037 85.7016 104.211 85.7149 104.451 85.7149H105.851L105.851 86.2949C105.211 86.5349 104.644 86.7083 104.151 86.8149C103.671 86.9349 103.284 86.9949 102.991 86.9949C102.391 86.9949 102.004 86.7483 101.831 86.2549C101.777 86.0949 101.737 85.8883 101.711 85.6349C101.684 85.3816 101.671 85.0083 101.671 84.5149L101.671 76.9949H99.7308ZM115.327 85.5949L115.327 81.1349C115.327 80.2683 115.301 79.6216 115.247 79.1949C115.207 78.7683 115.127 78.4349 115.007 78.1949C114.687 77.5416 114.101 77.2149 113.247 77.2149C112.874 77.2149 112.514 77.2816 112.167 77.4149C111.821 77.5483 111.514 77.7283 111.247 77.9549C110.954 78.2083 110.734 78.5149 110.587 78.8749C110.454 79.2216 110.374 79.6549 110.347 80.1749L110.347 85.5949L111.687 85.9749L111.687 86.7949H106.867L106.867 85.9749L108.407 85.5949L108.407 72.3949L106.867 72.0149L106.867 71.1949H110.347L110.347 77.8749C110.747 77.2349 111.274 76.7283 111.927 76.3549C112.594 75.9816 113.307 75.7949 114.067 75.7949C114.601 75.7949 115.081 75.8883 115.507 76.0749C115.934 76.2616 116.274 76.5283 116.527 76.8749C116.794 77.2483 116.981 77.7749 117.087 78.4549C117.207 79.1216 117.267 80.0283 117.267 81.1749L117.267 85.5949L118.807 85.9749L118.807 86.7949H113.987L113.987 85.9749L115.327 85.5949ZM119.998 84.4549C119.998 83.4149 120.485 82.5949 121.458 81.9949C122.432 81.3949 124.045 80.9283 126.298 80.5949C126.245 79.8083 126.172 79.1949 126.078 78.7549C125.985 78.3149 125.865 77.9616 125.718 77.6949C125.532 77.3483 125.272 77.0949 124.938 76.9349C124.605 76.7616 124.245 76.6749 123.858 76.6749C123.485 76.6749 123.145 76.7416 122.838 76.8749C122.545 77.0083 122.345 77.1883 122.238 77.4149C122.425 77.5483 122.558 77.7216 122.638 77.9349C122.732 78.1483 122.778 78.3483 122.778 78.5349C122.778 78.8683 122.665 79.1349 122.438 79.3349C122.225 79.5216 121.958 79.6149 121.638 79.6149C121.318 79.6149 121.052 79.5083 120.838 79.2949C120.638 79.0816 120.538 78.7816 120.538 78.3949C120.538 77.8349 120.732 77.3616 121.118 76.9749C121.505 76.5883 121.992 76.2949 122.578 76.0949C123.178 75.8949 123.778 75.7949 124.378 75.7949C124.925 75.7949 125.425 75.8816 125.878 76.0549C126.345 76.2149 126.738 76.4549 127.058 76.7749C127.885 77.6016 128.298 79.0683 128.298 81.1749L128.298 84.0749C128.298 84.7283 128.338 85.1816 128.418 85.4349C128.512 85.6883 128.705 85.8149 128.998 85.8149H129.898L129.898 86.4149C128.938 86.8016 128.192 86.9949 127.658 86.9949C127.245 86.9949 126.965 86.8483 126.818 86.5549C126.685 86.2483 126.618 85.6683 126.618 84.8149H126.538C126.125 85.4949 125.578 86.0283 124.898 86.4149C124.218 86.8016 123.485 86.9949 122.698 86.9949C121.858 86.9949 121.198 86.7683 120.718 86.3149C120.238 85.8616 119.998 85.2416 119.998 84.4549ZM123.538 85.8349C123.912 85.8349 124.298 85.7416 124.698 85.5549C125.112 85.3549 125.458 85.0816 125.738 84.7349C125.952 84.4683 126.105 84.1549 126.198 83.7949C126.305 83.4216 126.358 82.9883 126.358 82.4949C126.358 82.2683 126.352 82.0483 126.338 81.8349C126.325 81.6083 126.305 81.3949 126.278 81.1949C125.198 81.4083 124.352 81.6416 123.738 81.8949C123.125 82.1349 122.692 82.4283 122.438 82.7749C122.185 83.1083 122.058 83.5283 122.058 84.0349C122.058 84.6083 122.185 85.0549 122.438 85.3749C122.705 85.6816 123.072 85.8349 123.538 85.8349ZM132.24 85.5949L132.24 77.1949L130.7 76.8149L130.7 75.9949H133.58L134.02 77.9949H134.1C134.5 77.3149 135.04 76.7816 135.72 76.3949C136.4 75.9949 137.127 75.7949 137.9 75.7949C139.007 75.7949 139.827 76.1549 140.36 76.8749C140.627 77.2483 140.814 77.7749 140.92 78.4549C141.04 79.1216 141.1 80.0283 141.1 81.1749L141.1 85.5949L142.64 85.9749L142.64 86.7949L137.82 86.7949L137.82 85.9749L139.16 85.5949L139.16 81.1349C139.16 80.2683 139.134 79.6216 139.08 79.1949C139.04 78.7683 138.96 78.4349 138.84 78.1949C138.68 77.8749 138.447 77.6349 138.14 77.4749C137.847 77.3016 137.494 77.2149 137.08 77.2149C136.307 77.2149 135.64 77.4616 135.08 77.9549C134.534 78.4483 134.234 79.2149 134.18 80.2549L134.18 85.5949L135.52 85.9749L135.52 86.7949H130.7L130.7 85.9749L132.24 85.5949ZM153.806 81.2949C153.806 82.1616 153.673 82.9883 153.406 83.7749C153.153 84.5483 152.793 85.1883 152.326 85.6949C151.926 86.1349 151.433 86.4616 150.846 86.6749C150.259 86.8883 149.593 86.9949 148.846 86.9949C148.113 86.9949 147.459 86.8949 146.886 86.6949C146.313 86.4816 145.826 86.1616 145.426 85.7349C144.973 85.2416 144.619 84.6349 144.366 83.9149C144.126 83.1816 144.006 82.3883 144.006 81.5349C144.006 80.6683 144.133 79.8416 144.386 79.0549C144.639 78.2549 145.006 77.6016 145.486 77.0949C145.913 76.6416 146.406 76.3149 146.966 76.1149C147.539 75.9016 148.193 75.7949 148.926 75.7949C149.659 75.7949 150.319 75.9016 150.906 76.1149C151.493 76.3149 151.986 76.6283 152.386 77.0549C152.853 77.5483 153.206 78.1683 153.446 78.9149C153.686 79.6483 153.806 80.4416 153.806 81.2949ZM146.146 81.3149C146.146 82.1283 146.206 82.8349 146.326 83.4349C146.459 84.0216 146.639 84.5083 146.866 84.8949C147.093 85.2283 147.359 85.4883 147.666 85.6749C147.986 85.8616 148.399 85.9549 148.906 85.9549C149.826 85.9549 150.513 85.6416 150.966 85.0149C151.206 84.6683 151.379 84.1883 151.486 83.5749C151.606 82.9616 151.666 82.2549 151.666 81.4549C151.666 80.6549 151.599 79.9549 151.466 79.3549C151.346 78.7549 151.173 78.2683 150.946 77.8949C150.733 77.5483 150.459 77.2883 150.126 77.1149C149.806 76.9283 149.393 76.8349 148.886 76.8349C147.953 76.8349 147.279 77.1416 146.866 77.7549C146.386 78.5016 146.146 79.6883 146.146 81.3149ZM156.827 85.5949L156.827 72.3949L155.287 72.0149L155.287 71.1949H158.767L158.767 85.5949L160.307 85.9749L160.307 86.7949H155.287L155.287 85.9749L156.827 85.5949Z" fill="white"/>
<path d="M115.739 615.055L127.579 615.055L127.999 613.175L128.859 613.175L128.859 618.935L127.999 618.935L127.579 617.055L115.739 617.055L115.319 618.935L114.459 618.935L114.459 613.175L115.319 613.175L115.739 615.055ZM127.659 610.054L119.259 610.054L118.879 611.594L118.059 611.594L118.059 608.714L120.059 608.274L120.059 608.194C119.379 607.794 118.846 607.254 118.459 606.574C118.059 605.894 117.859 605.168 117.859 604.394C117.859 603.288 118.219 602.468 118.939 601.934C119.313 601.668 119.839 601.481 120.519 601.374C121.186 601.254 122.093 601.194 123.239 601.194L127.659 601.194L128.039 599.654L128.859 599.654L128.859 604.474L128.039 604.474L127.659 603.134L123.199 603.134C122.333 603.134 121.686 603.161 121.259 603.214C120.833 603.254 120.499 603.334 120.259 603.454C119.939 603.614 119.699 603.848 119.539 604.154C119.366 604.448 119.279 604.801 119.279 605.214C119.279 605.988 119.526 606.654 120.019 607.214C120.513 607.761 121.279 608.061 122.319 608.114L127.659 608.114L128.039 606.774L128.859 606.774L128.859 611.594L128.039 611.594L127.659 610.054ZM119.059 599.029L118.339 599.029L118.059 597.089L115.539 596.829L115.299 595.149L118.059 595.149L118.059 592.589L119.059 592.589L119.059 595.149L126.199 595.149C126.653 595.149 126.966 595.142 127.139 595.129C127.299 595.116 127.433 595.089 127.539 595.049C127.633 595.009 127.699 594.936 127.739 594.829C127.766 594.722 127.779 594.549 127.779 594.309L127.779 592.909L128.359 592.909C128.599 593.549 128.773 594.116 128.879 594.609C128.999 595.089 129.059 595.476 129.059 595.769C129.059 596.369 128.813 596.756 128.319 596.929C128.159 596.982 127.953 597.022 127.699 597.049C127.446 597.076 127.073 597.089 126.579 597.089L119.059 597.089L119.059 599.029ZM123.579 582.453L123.579 589.433C124.553 589.433 125.359 589.299 125.999 589.033C126.613 588.766 127.053 588.386 127.319 587.893C127.586 587.399 127.719 586.866 127.719 586.293C127.719 585.666 127.593 585.093 127.339 584.573C127.073 584.053 126.713 583.586 126.259 583.173L126.739 582.533C127.379 582.999 127.926 583.566 128.379 584.233C128.833 584.899 129.059 585.759 129.059 586.813C129.059 587.733 128.866 588.546 128.479 589.253C128.079 589.959 127.499 590.499 126.739 590.873C126.326 591.073 125.866 591.219 125.359 591.313C124.853 591.406 124.313 591.453 123.739 591.453C121.873 591.453 120.426 591.026 119.399 590.173C118.373 589.306 117.859 588.133 117.859 586.653C117.859 585.293 118.286 584.246 119.139 583.513C119.979 582.766 121.146 582.393 122.639 582.393C122.773 582.393 122.899 582.399 123.019 582.413C123.126 582.413 123.313 582.426 123.579 582.453ZM118.939 586.773C118.939 588.373 120.159 589.253 122.599 589.413L122.599 584.413L121.939 584.413C120.979 584.413 120.239 584.619 119.719 585.033C119.199 585.433 118.939 586.013 118.939 586.773ZM127.659 579.254L119.259 579.254L118.879 580.794L118.059 580.794L118.059 577.914L120.059 577.474L120.059 577.394C119.379 576.994 118.846 576.454 118.459 575.774C118.059 575.094 117.859 574.367 117.859 573.594C117.859 572.487 118.219 571.667 118.939 571.134C119.313 570.867 119.839 570.68 120.519 570.574C121.186 570.454 122.093 570.394 123.239 570.394L127.659 570.394L128.039 568.854L128.859 568.854L128.859 573.674L128.039 573.674L127.659 572.334L123.199 572.334C122.333 572.334 121.686 572.36 121.259 572.414C120.833 572.454 120.499 572.534 120.259 572.654C119.939 572.814 119.699 573.047 119.539 573.354C119.366 573.647 119.279 574 119.279 574.414C119.279 575.187 119.526 575.854 120.019 576.414C120.513 576.96 121.279 577.26 122.319 577.314L127.659 577.314L128.039 575.974L128.859 575.974L128.859 580.794L128.039 580.794L127.659 579.254ZM128.139 563.528C128.139 562.782 127.986 562.175 127.679 561.708C127.373 561.228 126.946 560.988 126.399 560.988C125.959 560.988 125.606 561.135 125.339 561.428C125.073 561.722 124.859 562.088 124.699 562.528C124.526 562.955 124.379 563.388 124.259 563.828C124.086 564.375 123.886 564.902 123.659 565.408C123.419 565.915 123.093 566.328 122.679 566.648C122.266 566.968 121.719 567.128 121.039 567.128C120.079 567.128 119.313 566.782 118.739 566.088C118.153 565.382 117.859 564.402 117.859 563.148C117.859 562.082 118.086 561.242 118.539 560.628C118.979 560.002 119.586 559.688 120.359 559.688C120.773 559.688 121.106 559.782 121.359 559.968C121.599 560.155 121.719 560.422 121.719 560.768C121.719 561.075 121.626 561.328 121.439 561.528C121.253 561.728 121.013 561.828 120.719 561.828C120.466 561.828 120.239 561.762 120.039 561.628C119.826 561.495 119.673 561.322 119.579 561.108C119.299 561.308 119.099 561.568 118.979 561.888C118.846 562.195 118.779 562.595 118.779 563.088C118.779 563.888 118.926 564.488 119.219 564.888C119.499 565.288 119.919 565.488 120.479 565.488C120.879 565.488 121.199 565.395 121.439 565.208C121.666 565.008 121.859 564.722 122.019 564.348C122.179 563.975 122.346 563.515 122.519 562.968C122.653 562.515 122.806 562.068 122.979 561.628C123.139 561.188 123.339 560.788 123.579 560.428C123.819 560.068 124.119 559.782 124.479 559.568C124.839 559.355 125.286 559.248 125.819 559.248C126.499 559.248 127.086 559.435 127.579 559.808C128.059 560.182 128.426 560.695 128.679 561.348C128.933 562.002 129.059 562.755 129.059 563.608C129.059 564.782 128.819 565.728 128.339 566.448C127.859 567.168 127.213 567.528 126.399 567.528C125.973 567.528 125.639 567.435 125.399 567.248C125.146 567.048 125.019 566.768 125.019 566.408C125.019 566.088 125.113 565.822 125.299 565.608C125.486 565.382 125.733 565.268 126.039 565.268C126.293 565.268 126.533 565.342 126.759 565.488C126.986 565.622 127.153 565.788 127.259 565.988C127.513 565.815 127.726 565.508 127.899 565.068C128.059 564.615 128.139 564.102 128.139 563.528ZM119.259 556.09L118.879 557.63L118.059 557.63L118.059 554.15L127.659 554.15L128.039 552.61L128.859 552.61L128.859 557.63L128.039 557.63L127.659 556.09L119.259 556.09ZM114.839 556.37C114.453 556.37 114.146 556.256 113.919 556.03C113.693 555.803 113.579 555.503 113.579 555.13C113.579 554.743 113.693 554.436 113.919 554.21C114.146 553.983 114.453 553.87 114.839 553.87C115.213 553.87 115.513 553.983 115.739 554.21C115.966 554.436 116.079 554.743 116.079 555.13C116.079 555.516 115.973 555.823 115.759 556.05C115.533 556.263 115.226 556.37 114.839 556.37ZM119.059 551.939L118.339 551.939L118.059 549.999L115.539 549.739L115.299 548.059L118.059 548.059L118.059 545.499L119.059 545.499L119.059 548.059L126.199 548.059C126.653 548.059 126.966 548.052 127.139 548.039C127.299 548.026 127.433 547.999 127.539 547.959C127.633 547.919 127.699 547.846 127.739 547.739C127.766 547.632 127.779 547.459 127.779 547.219L127.779 545.819L128.359 545.819C128.599 546.459 128.773 547.026 128.879 547.519C128.999 547.999 129.059 548.386 129.059 548.679C129.059 549.279 128.813 549.666 128.319 549.839C128.159 549.892 127.953 549.932 127.699 549.959C127.446 549.986 127.073 549.999 126.579 549.999L119.059 549.999L119.059 551.939ZM119.259 535.023L128.379 538.343C129.406 538.716 130.233 539.056 130.859 539.363C131.499 539.669 131.959 540.009 132.239 540.383C132.519 540.756 132.659 541.236 132.659 541.823C132.659 542.449 132.493 542.989 132.159 543.443C131.826 543.883 131.406 544.103 130.899 544.103C130.526 544.103 130.213 543.996 129.959 543.783C129.719 543.569 129.599 543.289 129.599 542.943C129.599 542.636 129.679 542.396 129.839 542.223C130.013 542.036 130.246 541.943 130.539 541.943C130.726 541.943 130.906 541.983 131.079 542.063C131.253 542.129 131.406 542.223 131.539 542.343C131.673 542.316 131.759 542.236 131.799 542.103C131.853 541.969 131.879 541.856 131.879 541.763C131.879 541.576 131.833 541.403 131.739 541.243C131.646 541.083 131.446 540.916 131.139 540.743C130.846 540.556 130.379 540.356 129.739 540.143L128.999 539.903L119.259 544.043L118.879 545.243L118.059 545.243L118.059 540.763L118.879 540.603L119.259 542.023L127.099 539.043L127.099 538.963L119.259 536.443L118.879 537.603L118.059 537.603L118.059 533.803L118.879 533.803L119.259 535.023Z" fill="#C3FA50"/>
<path d="M575.101 829.085C575.101 830.471 575.241 831.751 575.521 832.925C575.801 834.098 576.194 835.138 576.701 836.045C577.207 836.938 577.807 837.665 578.501 838.225C579.194 838.785 579.961 839.151 580.801 839.325L581.321 838.225C580.481 838.051 579.741 837.565 579.101 836.765C578.474 835.965 577.987 834.911 577.641 833.605C577.294 832.298 577.121 830.805 577.121 829.125C577.121 827.458 577.301 825.965 577.661 824.645C578.021 823.311 578.521 822.225 579.161 821.385C579.814 820.545 580.567 820.025 581.421 819.825L581.001 818.845C580.121 819.058 579.314 819.465 578.581 820.065C577.861 820.665 577.241 821.418 576.721 822.325C576.201 823.231 575.801 824.258 575.521 825.405C575.241 826.538 575.101 827.765 575.101 829.085ZM585.623 838.545L587.563 838.925V839.745H582.143V838.925L583.683 838.545V826.545L582.143 826.165V825.345H585.023L585.323 826.885C585.749 826.218 586.229 825.765 586.763 825.525C587.309 825.271 587.923 825.145 588.603 825.145C589.283 825.145 589.896 825.245 590.443 825.445C591.003 825.645 591.456 825.965 591.803 826.405C592.203 826.911 592.516 827.525 592.743 828.245C592.983 828.951 593.103 829.718 593.103 830.545C593.103 831.398 592.969 832.205 592.703 832.965C592.449 833.711 592.103 834.338 591.663 834.845C590.916 835.711 589.843 836.145 588.443 836.145C587.869 836.145 587.349 836.038 586.883 835.825C586.429 835.598 586.009 835.211 585.623 834.665V838.545ZM585.603 830.565C585.603 831.351 585.663 832.038 585.783 832.625C585.903 833.211 586.076 833.685 586.303 834.045C586.516 834.378 586.776 834.638 587.083 834.825C587.403 835.011 587.809 835.105 588.303 835.105C588.756 835.105 589.149 835.025 589.483 834.865C589.829 834.691 590.109 834.458 590.323 834.165C590.563 833.831 590.736 833.365 590.843 832.765C590.949 832.165 591.003 831.478 591.003 830.705C591.003 829.918 590.943 829.238 590.823 828.665C590.703 828.091 590.529 827.618 590.303 827.245C590.089 826.898 589.823 826.638 589.503 826.465C589.196 826.278 588.789 826.185 588.283 826.185C587.829 826.185 587.429 826.265 587.083 826.425C586.749 826.571 586.489 826.798 586.303 827.105C586.089 827.465 585.916 827.938 585.783 828.525C585.663 829.098 585.603 829.778 585.603 830.565ZM598.005 838.545L599.945 838.925V839.745H594.525V838.925L596.065 838.545V826.545L594.525 826.165V825.345H597.405L597.705 826.885C598.132 826.218 598.612 825.765 599.145 825.525C599.692 825.271 600.305 825.145 600.985 825.145C601.665 825.145 602.279 825.245 602.825 825.445C603.385 825.645 603.839 825.965 604.185 826.405C604.585 826.911 604.899 827.525 605.125 828.245C605.365 828.951 605.485 829.718 605.485 830.545C605.485 831.398 605.352 832.205 605.085 832.965C604.832 833.711 604.485 834.338 604.045 834.845C603.299 835.711 602.225 836.145 600.825 836.145C600.252 836.145 599.732 836.038 599.265 835.825C598.812 835.598 598.392 835.211 598.005 834.665V838.545ZM597.985 830.565C597.985 831.351 598.045 832.038 598.165 832.625C598.285 833.211 598.459 833.685 598.685 834.045C598.899 834.378 599.159 834.638 599.465 834.825C599.785 835.011 600.192 835.105 600.685 835.105C601.139 835.105 601.532 835.025 601.865 834.865C602.212 834.691 602.492 834.458 602.705 834.165C602.945 833.831 603.119 833.365 603.225 832.765C603.332 832.165 603.385 831.478 603.385 830.705C603.385 829.918 603.325 829.238 603.205 828.665C603.085 828.091 602.912 827.618 602.685 827.245C602.472 826.898 602.205 826.638 601.885 826.465C601.579 826.278 601.172 826.185 600.665 826.185C600.212 826.185 599.812 826.265 599.465 826.425C599.132 826.571 598.872 826.798 598.685 827.105C598.472 827.465 598.299 827.938 598.165 828.525C598.045 829.098 597.985 829.778 597.985 830.565ZM608.668 834.945V826.545L607.128 826.165V825.345H610.008L610.448 827.345H610.528C610.915 826.678 611.428 826.145 612.068 825.745C612.722 825.345 613.415 825.145 614.148 825.145C614.695 825.145 615.182 825.251 615.608 825.465C616.035 825.665 616.348 825.918 616.548 826.225C616.762 826.558 616.935 826.998 617.068 827.545C617.495 826.798 618.048 826.211 618.728 825.785C619.408 825.358 620.135 825.145 620.908 825.145C621.442 825.145 621.922 825.251 622.348 825.465C622.775 825.665 623.102 825.945 623.328 826.305C623.488 826.558 623.615 826.885 623.708 827.285C623.802 827.685 623.868 828.205 623.908 828.845C623.948 829.471 623.968 830.271 623.968 831.245V834.945L625.508 835.325V836.145H620.688V835.325L622.028 834.945V830.485C622.028 829.618 622.002 828.971 621.948 828.545C621.908 828.118 621.828 827.785 621.708 827.545C621.548 827.225 621.322 826.985 621.028 826.825C620.748 826.651 620.415 826.565 620.028 826.565C619.695 826.565 619.368 826.631 619.048 826.765C618.728 826.898 618.442 827.078 618.188 827.305C617.895 827.571 617.675 827.885 617.528 828.245C617.395 828.605 617.315 829.058 617.288 829.605V834.945L618.628 835.325V836.145H614.008V835.325L615.348 834.945V830.485C615.348 829.618 615.322 828.971 615.268 828.545C615.228 828.118 615.148 827.785 615.028 827.545C614.868 827.225 614.642 826.985 614.348 826.825C614.068 826.651 613.735 826.565 613.348 826.565C613.015 826.565 612.688 826.631 612.368 826.765C612.048 826.898 611.762 827.078 611.508 827.305C611.215 827.571 610.995 827.885 610.848 828.245C610.715 828.605 610.635 829.058 610.608 829.605V834.945L611.948 835.325V836.145H607.128V835.325L608.668 834.945ZM631.854 829.085C631.854 827.765 631.714 826.538 631.434 825.405C631.154 824.258 630.754 823.231 630.234 822.325C629.714 821.418 629.088 820.665 628.354 820.065C627.634 819.465 626.834 819.058 625.954 818.845L625.534 819.825C626.401 820.025 627.154 820.545 627.794 821.385C628.434 822.225 628.934 823.311 629.294 824.645C629.654 825.965 629.834 827.458 629.834 829.125C629.834 830.805 629.654 832.298 629.294 833.605C628.948 834.911 628.461 835.965 627.834 836.765C627.208 837.565 626.474 838.051 625.634 838.225L626.154 839.325C626.994 839.151 627.761 838.785 628.454 838.225C629.148 837.665 629.748 836.938 630.254 836.045C630.761 835.138 631.154 834.098 631.434 832.925C631.714 831.751 631.854 830.471 631.854 829.085Z" fill="white"/>
<path d="M547.701 824.934C547.701 824.096 548.03 823.424 548.688 822.917C549.347 822.406 550.258 822.15 551.423 822.15C551.934 822.15 552.391 822.193 552.794 822.278C553.201 822.363 553.624 822.491 554.065 822.662V824.338C553.781 824.224 553.395 824.101 552.907 823.968C552.419 823.836 551.934 823.77 551.451 823.77C550.883 823.77 550.447 823.878 550.144 824.096C549.841 824.309 549.69 824.584 549.69 824.92C549.69 825.091 549.744 825.275 549.853 825.474C549.967 825.673 550.177 825.879 550.485 826.092C550.798 826.305 551.252 826.52 551.849 826.738C553.284 827.25 554.328 827.96 554.981 828.869C555.639 829.778 555.968 830.886 555.968 832.193V832.392C555.968 833.367 555.779 834.245 555.4 835.027C555.026 835.808 554.486 836.426 553.781 836.88C553.08 837.335 552.237 837.562 551.252 837.562C550.249 837.562 549.392 837.335 548.681 836.88C547.976 836.426 547.436 835.808 547.062 835.027C546.693 834.245 546.508 833.367 546.508 832.392V832.193C546.508 831.435 546.652 830.742 546.941 830.112C547.23 829.482 547.616 828.954 548.099 828.528C548.582 828.102 549.112 827.818 549.69 827.676V827.619C549.079 827.377 548.594 827.027 548.234 826.568C547.879 826.109 547.701 825.564 547.701 824.934ZM548.468 832.193V832.392C548.468 833.045 548.565 833.646 548.759 834.196C548.958 834.74 549.261 835.178 549.669 835.51C550.08 835.836 550.608 836 551.252 836C551.887 836 552.408 835.836 552.815 835.51C553.222 835.178 553.523 834.74 553.717 834.196C553.911 833.646 554.008 833.045 554.008 832.392V832.193C554.008 831.663 553.894 831.139 553.667 830.623C553.44 830.102 553.12 829.653 552.708 829.274C552.296 828.89 551.811 828.642 551.252 828.528C550.608 828.528 550.08 828.699 549.669 829.039C549.261 829.376 548.958 829.823 548.759 830.382C548.565 830.936 548.468 831.539 548.468 832.193Z" fill="white"/>
<path d="M761.948 160.434C761.948 161.821 762.088 163.101 762.368 164.274C762.648 165.447 763.042 166.487 763.548 167.394C764.055 168.287 764.655 169.014 765.348 169.574C766.042 170.134 766.808 170.501 767.648 170.674L768.168 169.574C767.328 169.401 766.588 168.914 765.948 168.114C765.322 167.314 764.835 166.261 764.488 164.954C764.142 163.647 763.968 162.154 763.968 160.474C763.968 158.807 764.148 157.314 764.508 155.994C764.868 154.661 765.368 153.574 766.008 152.734C766.662 151.894 767.415 151.374 768.268 151.174L767.848 150.194C766.968 150.407 766.162 150.814 765.428 151.414C764.708 152.014 764.088 152.767 763.568 153.674C763.048 154.581 762.648 155.607 762.368 156.754C762.088 157.887 761.948 159.114 761.948 160.434ZM772.53 166.774C773.277 166.774 773.884 166.621 774.35 166.314C774.83 166.007 775.07 165.581 775.07 165.034C775.07 164.594 774.924 164.241 774.63 163.974C774.337 163.707 773.97 163.494 773.53 163.334C773.104 163.161 772.67 163.014 772.23 162.894C771.684 162.721 771.157 162.521 770.65 162.294C770.144 162.054 769.73 161.727 769.41 161.314C769.09 160.901 768.93 160.354 768.93 159.674C768.93 158.714 769.277 157.947 769.97 157.374C770.677 156.787 771.657 156.494 772.91 156.494C773.977 156.494 774.817 156.721 775.43 157.174C776.057 157.614 776.37 158.221 776.37 158.994C776.37 159.407 776.277 159.741 776.09 159.994C775.904 160.234 775.637 160.354 775.29 160.354C774.984 160.354 774.73 160.261 774.53 160.074C774.33 159.887 774.23 159.647 774.23 159.354C774.23 159.101 774.297 158.874 774.43 158.674C774.564 158.461 774.737 158.307 774.95 158.214C774.75 157.934 774.49 157.734 774.17 157.614C773.864 157.481 773.464 157.414 772.97 157.414C772.17 157.414 771.57 157.561 771.17 157.854C770.77 158.134 770.57 158.554 770.57 159.114C770.57 159.514 770.664 159.834 770.85 160.074C771.05 160.301 771.337 160.494 771.71 160.654C772.084 160.814 772.544 160.981 773.09 161.154C773.544 161.287 773.99 161.441 774.43 161.614C774.87 161.774 775.27 161.974 775.63 162.214C775.99 162.454 776.277 162.754 776.49 163.114C776.704 163.474 776.81 163.921 776.81 164.454C776.81 165.134 776.624 165.721 776.25 166.214C775.877 166.694 775.364 167.061 774.71 167.314C774.057 167.567 773.304 167.694 772.45 167.694C771.277 167.694 770.33 167.454 769.61 166.974C768.89 166.494 768.53 165.847 768.53 165.034C768.53 164.607 768.624 164.274 768.81 164.034C769.01 163.781 769.29 163.654 769.65 163.654C769.97 163.654 770.237 163.747 770.45 163.934C770.677 164.121 770.79 164.367 770.79 164.674C770.79 164.927 770.717 165.167 770.57 165.394C770.437 165.621 770.27 165.787 770.07 165.894C770.244 166.147 770.55 166.361 770.99 166.534C771.444 166.694 771.957 166.774 772.53 166.774ZM779.969 157.894L778.429 157.514V156.694H781.909V166.294L783.449 166.674V167.494H778.429V166.674L779.969 166.294V157.894ZM779.689 153.474C779.689 153.087 779.802 152.781 780.029 152.554C780.256 152.327 780.556 152.214 780.929 152.214C781.316 152.214 781.622 152.327 781.849 152.554C782.076 152.781 782.189 153.087 782.189 153.474C782.189 153.847 782.076 154.147 781.849 154.374C781.622 154.601 781.316 154.714 780.929 154.714C780.542 154.714 780.236 154.607 780.009 154.394C779.796 154.167 779.689 153.861 779.689 153.474ZM786.199 166.294V157.894L784.659 157.514V156.694H787.539L787.979 158.694H788.059C788.459 158.014 788.999 157.481 789.679 157.094C790.359 156.694 791.086 156.494 791.859 156.494C792.966 156.494 793.786 156.854 794.319 157.574C794.586 157.947 794.773 158.474 794.879 159.154C794.999 159.821 795.059 160.727 795.059 161.874V166.294L796.599 166.674V167.494H791.779V166.674L793.119 166.294V161.834C793.119 160.967 793.093 160.321 793.039 159.894C792.999 159.467 792.919 159.134 792.799 158.894C792.639 158.574 792.406 158.334 792.099 158.174C791.806 158.001 791.453 157.914 791.039 157.914C790.266 157.914 789.599 158.161 789.039 158.654C788.493 159.147 788.193 159.914 788.139 160.954V166.294L789.479 166.674V167.494H784.659V166.674L786.199 166.294ZM807.185 167.694C807.185 168.707 806.752 169.541 805.885 170.194C805.032 170.847 803.838 171.174 802.305 171.174C801.292 171.174 800.438 171.074 799.745 170.874C799.052 170.674 798.525 170.387 798.165 170.014C797.818 169.641 797.645 169.194 797.645 168.674C797.645 168.047 797.832 167.567 798.205 167.234C798.578 166.887 799.092 166.667 799.745 166.574V166.494C798.865 166.241 798.425 165.721 798.425 164.934C798.425 164.654 798.492 164.394 798.625 164.154C798.758 163.901 798.958 163.667 799.225 163.454C799.505 163.241 799.858 163.061 800.285 162.914C799.632 162.674 799.125 162.301 798.765 161.794C798.405 161.287 798.225 160.667 798.225 159.934C798.225 158.867 798.592 158.027 799.325 157.414C800.072 156.801 801.065 156.494 802.305 156.494C802.932 156.494 803.492 156.574 803.985 156.734C804.478 156.881 804.898 157.107 805.245 157.414L805.925 157.174L807.765 156.294H808.105V158.054H807.765L806.365 157.894H805.685C806.072 158.427 806.265 159.067 806.265 159.814C806.265 160.867 805.898 161.701 805.165 162.314C804.445 162.914 803.445 163.214 802.165 163.214C802.032 163.214 801.898 163.214 801.765 163.214C801.632 163.201 801.498 163.187 801.365 163.174C800.832 163.254 800.432 163.394 800.165 163.594C799.912 163.794 799.785 164.047 799.785 164.354C799.785 164.661 799.905 164.874 800.145 164.994C800.385 165.101 800.852 165.154 801.545 165.154H803.865C804.958 165.154 805.785 165.361 806.345 165.774C806.905 166.174 807.185 166.814 807.185 167.694ZM802.985 166.694H801.685C800.792 166.694 800.145 166.847 799.745 167.154C799.345 167.461 799.145 167.861 799.145 168.354C799.145 169.567 800.185 170.174 802.265 170.174C803.398 170.174 804.258 170.001 804.845 169.654C805.445 169.307 805.745 168.801 805.745 168.134C805.745 167.601 805.538 167.227 805.125 167.014C804.725 166.801 804.012 166.694 802.985 166.694ZM799.985 159.854C799.985 160.654 800.165 161.261 800.525 161.674C800.898 162.087 801.472 162.294 802.245 162.294C803.032 162.294 803.605 162.087 803.965 161.674C804.325 161.261 804.505 160.654 804.505 159.854C804.505 159.054 804.325 158.447 803.965 158.034C803.605 157.621 803.032 157.414 802.245 157.414C801.472 157.414 800.898 157.621 800.525 158.034C800.165 158.447 799.985 159.054 799.985 159.854ZM810.336 166.294V153.094L808.796 152.714V151.894H812.276V166.294L813.816 166.674V167.494H808.796V166.674L810.336 166.294ZM824.329 162.214H817.349C817.349 163.187 817.482 163.994 817.749 164.634C818.015 165.247 818.395 165.687 818.889 165.954C819.382 166.221 819.915 166.354 820.489 166.354C821.115 166.354 821.689 166.227 822.209 165.974C822.729 165.707 823.195 165.347 823.609 164.894L824.249 165.374C823.782 166.014 823.215 166.561 822.549 167.014C821.882 167.467 821.022 167.694 819.969 167.694C819.049 167.694 818.235 167.501 817.529 167.114C816.822 166.714 816.282 166.134 815.909 165.374C815.709 164.961 815.562 164.501 815.469 163.994C815.375 163.487 815.329 162.947 815.329 162.374C815.329 160.507 815.755 159.061 816.609 158.034C817.475 157.007 818.649 156.494 820.129 156.494C821.489 156.494 822.535 156.921 823.269 157.774C824.015 158.614 824.389 159.781 824.389 161.274C824.389 161.407 824.382 161.534 824.369 161.654C824.369 161.761 824.355 161.947 824.329 162.214ZM820.009 157.574C818.409 157.574 817.529 158.794 817.369 161.234H822.369V160.574C822.369 159.614 822.162 158.874 821.749 158.354C821.349 157.834 820.769 157.574 820.009 157.574ZM825.448 157.694V156.974L827.388 156.694L827.648 154.174L829.328 153.934V156.694H831.888V157.694H829.328V164.834C829.328 165.287 829.334 165.601 829.348 165.774C829.361 165.934 829.388 166.067 829.428 166.174C829.468 166.267 829.541 166.334 829.648 166.374C829.754 166.401 829.928 166.414 830.168 166.414H831.568V166.994C830.928 167.234 830.361 167.407 829.868 167.514C829.388 167.634 829.001 167.694 828.708 167.694C828.108 167.694 827.721 167.447 827.548 166.954C827.494 166.794 827.454 166.587 827.428 166.334C827.401 166.081 827.388 165.707 827.388 165.214V157.694H825.448ZM838.077 160.434C838.077 159.114 837.937 157.887 837.657 156.754C837.377 155.607 836.977 154.581 836.457 153.674C835.937 152.767 835.31 152.014 834.577 151.414C833.857 150.814 833.057 150.407 832.177 150.194L831.757 151.174C832.624 151.374 833.377 151.894 834.017 152.734C834.657 153.574 835.157 154.661 835.517 155.994C835.877 157.314 836.057 158.807 836.057 160.474C836.057 162.154 835.877 163.647 835.517 164.954C835.17 166.261 834.684 167.314 834.057 168.114C833.43 168.914 832.697 169.401 831.857 169.574L832.377 170.674C833.217 170.501 833.984 170.134 834.677 169.574C835.37 169.014 835.97 168.287 836.477 167.394C836.984 166.487 837.377 165.447 837.657 164.274C837.937 163.101 838.077 161.821 838.077 160.434Z" fill="#FA5050"/>
<defs>
<filter id="filter0_d_794_7198" x="139.859" y="638.295" width="888" height="11" filterUnits="userSpaceOnUse" color-interpolation-filters="sRGB">
<feFlood flood-opacity="0" result="BackgroundImageFix"/>
<feColorMatrix in="SourceAlpha" type="matrix" values="0 0 0 0 0 0 0 0 0 0 0 0 0 0 0 0 0 0 127 0" result="hardAlpha"/>
<feOffset dy="4"/>
<feGaussianBlur stdDeviation="2"/>
<feComposite in2="hardAlpha" operator="out"/>
<feColorMatrix type="matrix" values="0 0 0 0 0 0 0 0 0 0 0 0 0 0 0 0 0 0 0.25 0"/>
<feBlend mode="normal" in2="BackgroundImageFix" result="effect1_dropShadow_794_7198"/>
<feBlend mode="normal" in="SourceGraphic" in2="effect1_dropShadow_794_7198" result="shape"/>
</filter>
<filter id="filter1_d_794_7198" x="787.859" y="488.795" width="42.8066" height="160.344" filterUnits="userSpaceOnUse" color-interpolation-filters="sRGB">
<feFlood flood-opacity="0" result="BackgroundImageFix"/>
<feColorMatrix in="SourceAlpha" type="matrix" values="0 0 0 0 0 0 0 0 0 0 0 0 0 0 0 0 0 0 127 0" result="hardAlpha"/>
<feOffset dy="4"/>
<feGaussianBlur stdDeviation="2"/>
<feComposite in2="hardAlpha" operator="out"/>
<feColorMatrix type="matrix" values="0 0 0 0 0 0 0 0 0 0 0 0 0 0 0 0 0 0 0.25 0"/>
<feBlend mode="normal" in2="BackgroundImageFix" result="effect1_dropShadow_794_7198"/>
<feBlend mode="normal" in="SourceGraphic" in2="effect1_dropShadow_794_7198" result="shape"/>
</filter>
</defs>
</svg>
