<svg width="1123" height="901" viewBox="0 0 1123 901" fill="none" xmlns="http://www.w3.org/2000/svg">
<rect width="1122" height="900" transform="translate(0.858398 0.25)" fill="#0C0C31"/>
<path d="M63.4984 85.05H66.5984C67.3184 85.05 67.9317 84.9433 68.4384 84.73C68.9584 84.5167 69.3851 84.1833 69.7184 83.73C70.0917 83.2633 70.3651 82.65 70.5384 81.89C70.7251 81.13 70.8184 80.2233 70.8184 79.17C70.8184 77.09 70.4517 75.5433 69.7184 74.53C69.3717 74.0233 68.9251 73.65 68.3784 73.41C67.8317 73.17 67.1717 73.05 66.3984 73.05H63.4984L63.4984 85.05ZM59.8184 71.85H66.5384C68.5251 71.85 70.0717 72.41 71.1784 73.53C71.8051 74.17 72.2851 74.9567 72.6184 75.89C72.9517 76.8233 73.1184 77.8233 73.1184 78.89C73.1184 80.01 72.9384 81.0633 72.5784 82.05C72.2317 83.0233 71.7451 83.8433 71.1184 84.51C70.0117 85.67 68.4251 86.25 66.3584 86.25H59.8184L59.8184 85.39L61.4984 84.97L61.4984 73.13L59.8184 72.71L59.8184 71.85ZM76.4309 76.65L74.8909 76.27L74.8909 75.45H78.3709L78.3709 85.05L79.9109 85.43L79.9109 86.25H74.8909L74.8909 85.43L76.4309 85.05L76.4309 76.65ZM76.1509 72.23C76.1509 71.8433 76.2642 71.5367 76.4909 71.31C76.7176 71.0833 77.0176 70.97 77.3909 70.97C77.7776 70.97 78.0842 71.0833 78.3109 71.31C78.5376 71.5367 78.6509 71.8433 78.6509 72.23C78.6509 72.6033 78.5376 72.9033 78.3109 73.13C78.0842 73.3567 77.7776 73.47 77.3909 73.47C77.0042 73.47 76.6976 73.3633 76.4709 73.15C76.2576 72.9233 76.1509 72.6167 76.1509 72.23ZM90.3414 80.97H83.3614C83.3614 81.9433 83.4947 82.75 83.7614 83.39C84.028 84.0033 84.408 84.4433 84.9014 84.71C85.3947 84.9767 85.928 85.11 86.5014 85.11C87.128 85.11 87.7014 84.9833 88.2214 84.73C88.7414 84.4633 89.208 84.1033 89.6214 83.65L90.2614 84.13C89.7947 84.77 89.228 85.3167 88.5614 85.77C87.8947 86.2233 87.0347 86.45 85.9814 86.45C85.0614 86.45 84.248 86.2567 83.5414 85.87C82.8347 85.47 82.2947 84.89 81.9214 84.13C81.7214 83.7167 81.5747 83.2567 81.4814 82.75C81.388 82.2433 81.3414 81.7033 81.3414 81.13C81.3414 79.2633 81.768 77.8167 82.6214 76.79C83.488 75.7633 84.6614 75.25 86.1414 75.25C87.5014 75.25 88.548 75.6767 89.2814 76.53C90.028 77.37 90.4014 78.5367 90.4014 80.03C90.4014 80.1633 90.3947 80.29 90.3814 80.41C90.3814 80.5167 90.368 80.7033 90.3414 80.97ZM86.0214 76.33C84.4214 76.33 83.5414 77.55 83.3814 79.99H88.3814L88.3814 79.33C88.3814 78.37 88.1747 77.63 87.7614 77.11C87.3614 76.59 86.7814 76.33 86.0214 76.33ZM91.4603 76.45L91.4603 75.73L93.4003 75.45L93.6603 72.93L95.3403 72.69L95.3403 75.45H97.9003L97.9003 76.45H95.3403L95.3403 83.59C95.3403 84.0433 95.3469 84.3567 95.3603 84.53C95.3736 84.69 95.4003 84.8233 95.4403 84.93C95.4803 85.0233 95.5536 85.09 95.6603 85.13C95.7669 85.1567 95.9403 85.17 96.1803 85.17H97.5803L97.5803 85.75C96.9403 85.99 96.3736 86.1633 95.8803 86.27C95.4003 86.39 95.0136 86.45 94.7203 86.45C94.1203 86.45 93.7336 86.2033 93.5603 85.71C93.5069 85.55 93.4669 85.3433 93.4403 85.09C93.4136 84.8367 93.4003 84.4633 93.4003 83.97L93.4003 76.45H91.4603ZM107.057 85.05L107.057 80.59C107.057 79.7233 107.03 79.0767 106.977 78.65C106.937 78.2233 106.857 77.89 106.737 77.65C106.417 76.9967 105.83 76.67 104.977 76.67C104.603 76.67 104.243 76.7367 103.897 76.87C103.55 77.0033 103.243 77.1833 102.977 77.41C102.683 77.6633 102.463 77.97 102.317 78.33C102.183 78.6767 102.103 79.11 102.077 79.63L102.077 85.05L103.417 85.43L103.417 86.25H98.5967L98.5967 85.43L100.137 85.05L100.137 71.85L98.5967 71.47L98.5967 70.65H102.077L102.077 77.33C102.477 76.69 103.003 76.1833 103.657 75.81C104.323 75.4367 105.037 75.25 105.797 75.25C106.33 75.25 106.81 75.3433 107.237 75.53C107.663 75.7167 108.003 75.9833 108.257 76.33C108.523 76.7033 108.71 77.23 108.817 77.91C108.937 78.5767 108.997 79.4833 108.997 80.63L108.997 85.05L110.537 85.43L110.537 86.25H105.717L105.717 85.43L107.057 85.05ZM120.759 76.65L117.439 85.77C117.066 86.7967 116.726 87.6233 116.419 88.25C116.113 88.89 115.773 89.35 115.399 89.63C115.026 89.91 114.546 90.05 113.959 90.05C113.333 90.05 112.793 89.8833 112.339 89.55C111.899 89.2167 111.679 88.7967 111.679 88.29C111.679 87.9167 111.786 87.6033 111.999 87.35C112.213 87.11 112.493 86.99 112.839 86.99C113.146 86.99 113.386 87.07 113.559 87.23C113.746 87.4033 113.839 87.6367 113.839 87.93C113.839 88.1167 113.799 88.2967 113.719 88.47C113.653 88.6433 113.559 88.7967 113.439 88.93C113.466 89.0633 113.546 89.15 113.679 89.19C113.813 89.2433 113.926 89.27 114.019 89.27C114.206 89.27 114.379 89.2233 114.539 89.13C114.699 89.0367 114.866 88.8367 115.039 88.53C115.226 88.2367 115.426 87.77 115.639 87.13L115.879 86.39L111.739 76.65L110.539 76.27L110.539 75.45L115.019 75.45L115.179 76.27L113.759 76.65L116.739 84.49H116.819L119.339 76.65L118.179 76.27L118.179 75.45H121.979L121.979 76.27L120.759 76.65ZM124.142 85.05L124.142 71.85L122.602 71.47L122.602 70.65H126.082L126.082 85.05L127.622 85.43L127.622 86.25H122.602L122.602 85.43L124.142 85.05ZM143.212 80.97H136.232C136.232 81.9433 136.366 82.75 136.632 83.39C136.899 84.0033 137.279 84.4433 137.772 84.71C138.266 84.9767 138.799 85.11 139.372 85.11C139.999 85.11 140.572 84.9833 141.092 84.73C141.612 84.4633 142.079 84.1033 142.492 83.65L143.132 84.13C142.666 84.77 142.099 85.3167 141.432 85.77C140.766 86.2233 139.906 86.45 138.852 86.45C137.932 86.45 137.119 86.2567 136.412 85.87C135.706 85.47 135.166 84.89 134.792 84.13C134.592 83.7167 134.446 83.2567 134.352 82.75C134.259 82.2433 134.212 81.7033 134.212 81.13C134.212 79.2633 134.639 77.8167 135.492 76.79C136.359 75.7633 137.532 75.25 139.012 75.25C140.372 75.25 141.419 75.6767 142.152 76.53C142.899 77.37 143.272 78.5367 143.272 80.03C143.272 80.1633 143.266 80.29 143.252 80.41C143.252 80.5167 143.239 80.7033 143.212 80.97ZM138.892 76.33C137.292 76.33 136.412 77.55 136.252 79.99H141.252L141.252 79.33C141.252 78.37 141.046 77.63 140.632 77.11C140.232 76.59 139.652 76.33 138.892 76.33ZM144.331 76.45L144.331 75.73L146.271 75.45L146.531 72.93L148.211 72.69L148.211 75.45H150.771L150.771 76.45H148.211L148.211 83.59C148.211 84.0433 148.218 84.3567 148.231 84.53C148.245 84.69 148.271 84.8233 148.311 84.93C148.351 85.0233 148.425 85.09 148.531 85.13C148.638 85.1567 148.811 85.17 149.051 85.17H150.451L150.451 85.75C149.811 85.99 149.245 86.1633 148.751 86.27C148.271 86.39 147.885 86.45 147.591 86.45C146.991 86.45 146.605 86.2033 146.431 85.71C146.378 85.55 146.338 85.3433 146.311 85.09C146.285 84.8367 146.271 84.4633 146.271 83.97L146.271 76.45H144.331ZM159.928 85.05L159.928 80.59C159.928 79.7233 159.901 79.0767 159.848 78.65C159.808 78.2233 159.728 77.89 159.608 77.65C159.288 76.9967 158.701 76.67 157.848 76.67C157.474 76.67 157.114 76.7367 156.768 76.87C156.421 77.0033 156.114 77.1833 155.848 77.41C155.554 77.6633 155.334 77.97 155.188 78.33C155.054 78.6767 154.974 79.11 154.948 79.63L154.948 85.05L156.288 85.43L156.288 86.25H151.468L151.468 85.43L153.008 85.05L153.008 71.85L151.468 71.47L151.468 70.65H154.948L154.948 77.33C155.348 76.69 155.874 76.1833 156.528 75.81C157.194 75.4367 157.908 75.25 158.668 75.25C159.201 75.25 159.681 75.3433 160.108 75.53C160.534 75.7167 160.874 75.9833 161.128 76.33C161.394 76.7033 161.581 77.23 161.688 77.91C161.808 78.5767 161.868 79.4833 161.868 80.63L161.868 85.05L163.408 85.43L163.408 86.25H158.588L158.588 85.43L159.928 85.05ZM173.779 80.97H166.799C166.799 81.9433 166.932 82.75 167.199 83.39C167.466 84.0033 167.846 84.4433 168.339 84.71C168.832 84.9767 169.366 85.11 169.939 85.11C170.566 85.11 171.139 84.9833 171.659 84.73C172.179 84.4633 172.646 84.1033 173.059 83.65L173.699 84.13C173.232 84.77 172.666 85.3167 171.999 85.77C171.332 86.2233 170.472 86.45 169.419 86.45C168.499 86.45 167.686 86.2567 166.979 85.87C166.272 85.47 165.732 84.89 165.359 84.13C165.159 83.7167 165.012 83.2567 164.919 82.75C164.826 82.2433 164.779 81.7033 164.779 81.13C164.779 79.2633 165.206 77.8167 166.059 76.79C166.926 75.7633 168.099 75.25 169.579 75.25C170.939 75.25 171.986 75.6767 172.719 76.53C173.466 77.37 173.839 78.5367 173.839 80.03C173.839 80.1633 173.832 80.29 173.819 80.41C173.819 80.5167 173.806 80.7033 173.779 80.97ZM169.459 76.33C167.859 76.33 166.979 77.55 166.819 79.99H171.819L171.819 79.33C171.819 78.37 171.612 77.63 171.199 77.11C170.799 76.59 170.219 76.33 169.459 76.33ZM181.458 76.61C181.404 76.57 181.338 76.5433 181.258 76.53C181.191 76.5033 181.124 76.49 181.058 76.49C180.898 76.49 180.724 76.5633 180.538 76.71C180.351 76.8567 180.171 77.0567 179.998 77.31C179.824 77.55 179.664 77.83 179.518 78.15C179.331 78.6033 179.184 79.1033 179.078 79.65C178.971 80.1833 178.918 80.7367 178.918 81.31L178.918 85.05L181.078 85.43L181.078 86.25L175.438 86.25L175.438 85.43L176.978 85.05L176.978 76.65L175.438 76.27L175.438 75.45H178.318L178.758 78.09H178.838C179.144 77.1833 179.558 76.4833 180.078 75.99C180.598 75.4967 181.171 75.25 181.798 75.25C182.318 75.25 182.751 75.4167 183.098 75.75C183.444 76.07 183.618 76.5033 183.618 77.05C183.618 77.45 183.511 77.77 183.298 78.01C183.098 78.2367 182.824 78.35 182.478 78.35C182.131 78.35 181.858 78.2433 181.658 78.03C181.458 77.8033 181.358 77.51 181.358 77.15C181.358 77.07 181.364 76.9967 181.378 76.93C181.391 76.85 181.418 76.7433 181.458 76.61Z" fill="white"/>
<g filter="url(#filter0_d_854_8846)">
<path d="M729.051 643.25H797.048H812.565M899.273 643.25H774.636H827.624H820.323M145.858 643.25H681.858M943.858 643.25H985.524H1023.86" stroke="#C3FA50" stroke-width="3"/>
</g>
<path d="M680.358 643.597L682.858 641.764L687.311 623.888V585.387L685.938 554.678L687.311 571.637L690.059 574.845V641.764H698.303V598.679V503.343V362.631V475.842L700.592 485.468V561.095V641.764L702.424 634.43L706.088 641.764H709.294L713.417 636.263V351.631V460.259L716.163 639.013L719.369 643.139L722.117 639.013L723.492 636.263L722.586 524.427L722.782 548.719L725.323 626.638V639.013L728.071 643.597" stroke="#C3FA50" stroke-width="3"/>
<path d="M145.692 685.584L1025.69 685.584" stroke="white" stroke-width="2"/>
<line x1="589.001" y1="685.446" x2="589.001" y2="707.717" stroke="white" stroke-width="2"/>
<line x1="411.989" y1="685.446" x2="411.989" y2="707.717" stroke="white" stroke-width="2"/>
<line x1="234.976" y1="685.446" x2="234.976" y2="707.717" stroke="white" stroke-width="2"/>
<line x1="145.29" y1="684.332" x2="145.29" y2="706.603" stroke="white" stroke-width="2"/>
<line x1="855.7" y1="685.446" x2="855.7" y2="707.717" stroke="white" stroke-width="2"/>
<line x1="678.687" y1="685.446" x2="678.687" y2="707.717" stroke="white" stroke-width="2"/>
<line x1="501.675" y1="685.446" x2="501.675" y2="707.717" stroke="white" stroke-width="2"/>
<line x1="323.483" y1="685.446" x2="323.483" y2="707.717" stroke="white" stroke-width="2"/>
<line x1="945.387" y1="685.446" x2="945.387" y2="707.717" stroke="white" stroke-width="2"/>
<line x1="1024.45" y1="685.446" x2="1024.45" y2="707.717" stroke="white" stroke-width="2"/>
<line x1="767.194" y1="685.446" x2="767.194" y2="707.717" stroke="white" stroke-width="2"/>
<path d="M223.915 728.79C223.915 729.723 224.135 730.497 224.575 731.11C225.015 731.71 225.721 732.01 226.695 732.01C227.161 732.01 227.668 731.857 228.215 731.55C228.775 731.243 229.301 730.75 229.795 730.07C229.715 728.723 229.401 727.637 228.855 726.81C228.321 725.983 227.535 725.57 226.495 725.57C226.015 725.57 225.575 725.717 225.175 726.01C224.788 726.29 224.481 726.67 224.255 727.15C224.028 727.63 223.915 728.177 223.915 728.79ZM225.995 738.07C225.408 738.07 224.888 737.957 224.435 737.73C223.995 737.503 223.615 737.203 223.295 736.83L223.835 736.23C224.115 736.577 224.441 736.843 224.815 737.03C225.201 737.203 225.601 737.29 226.015 737.29C226.695 737.29 227.321 737.09 227.895 736.69C228.468 736.29 228.928 735.63 229.275 734.71C229.635 733.79 229.815 732.55 229.815 730.99C229.375 731.523 228.875 731.95 228.315 732.27C227.755 732.59 227.175 732.75 226.575 732.75C225.468 732.75 224.601 732.417 223.975 731.75C223.348 731.07 223.035 730.083 223.035 728.79C223.035 728.017 223.195 727.33 223.515 726.73C223.835 726.13 224.261 725.663 224.795 725.33C225.328 724.983 225.908 724.81 226.535 724.81C227.801 724.81 228.808 725.33 229.555 726.37C230.315 727.397 230.695 728.883 230.695 730.83C230.695 732.617 230.475 734.043 230.035 735.11C229.595 736.163 229.015 736.923 228.295 737.39C227.588 737.843 226.821 738.07 225.995 738.07ZM233.945 738.07C233.732 738.07 233.532 737.99 233.345 737.83C233.172 737.67 233.085 737.45 233.085 737.17C233.085 736.877 233.172 736.65 233.345 736.49C233.532 736.33 233.732 736.25 233.945 736.25C234.172 736.25 234.365 736.33 234.525 736.49C234.698 736.65 234.785 736.877 234.785 737.17C234.785 737.45 234.698 737.67 234.525 737.83C234.365 737.99 234.172 738.07 233.945 738.07ZM240.9 738.07C239.687 738.07 238.747 737.49 238.08 736.33C237.413 735.17 237.08 733.523 237.08 731.39C237.08 729.27 237.413 727.643 238.08 726.51C238.747 725.377 239.687 724.81 240.9 724.81C242.127 724.81 243.067 725.377 243.72 726.51C244.387 727.643 244.72 729.27 244.72 731.39C244.72 733.523 244.387 735.17 243.72 736.33C243.067 737.49 242.127 738.07 240.9 738.07ZM240.9 737.31C241.793 737.31 242.5 736.81 243.02 735.81C243.553 734.81 243.82 733.337 243.82 731.39C243.82 729.443 243.553 727.99 243.02 727.03C242.5 726.057 241.793 725.57 240.9 725.57C240.02 725.57 239.313 726.057 238.78 727.03C238.247 727.99 237.98 729.443 237.98 731.39C237.98 733.337 238.247 734.81 238.78 735.81C239.313 736.81 240.02 737.31 240.9 737.31Z" fill="white"/>
<path d="M129.449 737.83V737.05H132.449V726.45H130.169V725.85C130.689 725.757 131.155 725.643 131.569 725.51C131.982 725.377 132.335 725.223 132.629 725.05H133.349V737.05H136.129V737.83H129.449ZM142.119 738.07C140.906 738.07 139.966 737.49 139.299 736.33C138.632 735.17 138.299 733.523 138.299 731.39C138.299 729.27 138.632 727.643 139.299 726.51C139.966 725.377 140.906 724.81 142.119 724.81C143.346 724.81 144.286 725.377 144.939 726.51C145.606 727.643 145.939 729.27 145.939 731.39C145.939 733.523 145.606 735.17 144.939 736.33C144.286 737.49 143.346 738.07 142.119 738.07ZM142.119 737.31C143.012 737.31 143.719 736.81 144.239 735.81C144.772 734.81 145.039 733.337 145.039 731.39C145.039 729.443 144.772 727.99 144.239 727.03C143.719 726.057 143.012 725.57 142.119 725.57C141.239 725.57 140.532 726.057 139.999 727.03C139.466 727.99 139.199 729.443 139.199 731.39C139.199 733.337 139.466 734.81 139.999 735.81C140.532 736.81 141.239 737.31 142.119 737.31ZM149.109 738.07C148.896 738.07 148.696 737.99 148.509 737.83C148.336 737.67 148.249 737.45 148.249 737.17C148.249 736.877 148.336 736.65 148.509 736.49C148.696 736.33 148.896 736.25 149.109 736.25C149.336 736.25 149.529 736.33 149.689 736.49C149.863 736.65 149.949 736.877 149.949 737.17C149.949 737.45 149.863 737.67 149.689 737.83C149.529 737.99 149.336 738.07 149.109 738.07ZM156.064 738.07C154.851 738.07 153.911 737.49 153.244 736.33C152.578 735.17 152.244 733.523 152.244 731.39C152.244 729.27 152.578 727.643 153.244 726.51C153.911 725.377 154.851 724.81 156.064 724.81C157.291 724.81 158.231 725.377 158.884 726.51C159.551 727.643 159.884 729.27 159.884 731.39C159.884 733.523 159.551 735.17 158.884 736.33C158.231 737.49 157.291 738.07 156.064 738.07ZM156.064 737.31C156.958 737.31 157.664 736.81 158.184 735.81C158.718 734.81 158.984 733.337 158.984 731.39C158.984 729.443 158.718 727.99 158.184 727.03C157.664 726.057 156.958 725.57 156.064 725.57C155.184 725.57 154.478 726.057 153.944 727.03C153.411 727.99 153.144 729.443 153.144 731.39C153.144 733.337 153.411 734.81 153.944 735.81C154.478 736.81 155.184 737.31 156.064 737.31Z" fill="white"/>
<path d="M316.72 736.957C315.947 736.957 315.254 736.803 314.64 736.497C314.027 736.19 313.54 735.77 313.18 735.237C312.834 734.703 312.66 734.103 312.66 733.437C312.66 732.863 312.787 732.343 313.04 731.877C313.307 731.41 313.634 731.01 314.02 730.677C314.42 730.33 314.82 730.05 315.22 729.837V729.757C314.754 729.45 314.327 729.057 313.94 728.577C313.567 728.083 313.38 727.497 313.38 726.817C313.38 726.203 313.527 725.663 313.82 725.197C314.127 724.73 314.534 724.363 315.04 724.097C315.547 723.83 316.107 723.697 316.72 723.697C317.814 723.697 318.66 724.017 319.26 724.657C319.874 725.283 320.18 726.077 320.18 727.037C320.18 727.503 320.08 727.95 319.88 728.377C319.68 728.79 319.44 729.163 319.16 729.497C318.88 729.817 318.614 730.077 318.36 730.277V730.357C318.734 730.583 319.087 730.843 319.42 731.137C319.767 731.417 320.047 731.757 320.26 732.157C320.487 732.557 320.6 733.043 320.6 733.617C320.6 734.23 320.434 734.79 320.1 735.297C319.78 735.803 319.327 736.21 318.74 736.517C318.167 736.81 317.494 736.957 316.72 736.957ZM317.66 730.017C318.207 729.577 318.62 729.11 318.9 728.617C319.194 728.123 319.34 727.603 319.34 727.057C319.34 726.35 319.107 725.737 318.64 725.217C318.187 724.697 317.547 724.437 316.72 724.437C316.014 724.437 315.427 724.663 314.96 725.117C314.494 725.557 314.26 726.123 314.26 726.817C314.26 727.417 314.427 727.917 314.76 728.317C315.094 728.703 315.52 729.03 316.04 729.297C316.56 729.55 317.1 729.79 317.66 730.017ZM316.72 736.217C317.627 736.217 318.347 735.963 318.88 735.457C319.427 734.95 319.7 734.33 319.7 733.597C319.7 732.943 319.514 732.417 319.14 732.017C318.767 731.603 318.28 731.257 317.68 730.977C317.094 730.697 316.467 730.43 315.8 730.177C315.147 730.55 314.607 731.003 314.18 731.537C313.754 732.07 313.54 732.69 313.54 733.397C313.54 733.93 313.674 734.41 313.94 734.837C314.22 735.25 314.6 735.583 315.08 735.837C315.56 736.09 316.107 736.217 316.72 736.217ZM323.631 736.957C323.417 736.957 323.217 736.877 323.031 736.717C322.857 736.557 322.771 736.337 322.771 736.057C322.771 735.763 322.857 735.537 323.031 735.377C323.217 735.217 323.417 735.137 323.631 735.137C323.857 735.137 324.051 735.217 324.211 735.377C324.384 735.537 324.471 735.763 324.471 736.057C324.471 736.337 324.384 736.557 324.211 736.717C324.051 736.877 323.857 736.957 323.631 736.957ZM330.586 736.957C329.372 736.957 328.432 736.377 327.766 735.217C327.099 734.057 326.766 732.41 326.766 730.277C326.766 728.157 327.099 726.53 327.766 725.397C328.432 724.263 329.372 723.697 330.586 723.697C331.812 723.697 332.752 724.263 333.406 725.397C334.072 726.53 334.406 728.157 334.406 730.277C334.406 732.41 334.072 734.057 333.406 735.217C332.752 736.377 331.812 736.957 330.586 736.957ZM330.586 736.197C331.479 736.197 332.186 735.697 332.706 734.697C333.239 733.697 333.506 732.223 333.506 730.277C333.506 728.33 333.239 726.877 332.706 725.917C332.186 724.943 331.479 724.457 330.586 724.457C329.706 724.457 328.999 724.943 328.466 725.917C327.932 726.877 327.666 728.33 327.666 730.277C327.666 732.223 327.932 733.697 328.466 734.697C328.999 735.697 329.706 736.197 330.586 736.197Z" fill="white"/>
<path d="M405.308 736.717C405.375 734.997 405.548 733.457 405.828 732.097C406.108 730.737 406.521 729.47 407.068 728.297C407.615 727.11 408.315 725.917 409.168 724.717H402.428V723.937H410.288V724.457C409.528 725.47 408.895 726.45 408.388 727.397C407.895 728.33 407.501 729.277 407.208 730.237C406.915 731.197 406.695 732.203 406.548 733.257C406.415 734.31 406.321 735.463 406.268 736.717H405.308ZM413.318 736.957C413.105 736.957 412.905 736.877 412.718 736.717C412.545 736.557 412.458 736.337 412.458 736.057C412.458 735.763 412.545 735.537 412.718 735.377C412.905 735.217 413.105 735.137 413.318 735.137C413.545 735.137 413.738 735.217 413.898 735.377C414.071 735.537 414.158 735.763 414.158 736.057C414.158 736.337 414.071 736.557 413.898 736.717C413.738 736.877 413.545 736.957 413.318 736.957ZM420.273 736.957C419.06 736.957 418.12 736.377 417.453 735.217C416.786 734.057 416.453 732.41 416.453 730.277C416.453 728.157 416.786 726.53 417.453 725.397C418.12 724.263 419.06 723.697 420.273 723.697C421.5 723.697 422.44 724.263 423.093 725.397C423.76 726.53 424.093 728.157 424.093 730.277C424.093 732.41 423.76 734.057 423.093 735.217C422.44 736.377 421.5 736.957 420.273 736.957ZM420.273 736.197C421.166 736.197 421.873 735.697 422.393 734.697C422.926 733.697 423.193 732.223 423.193 730.277C423.193 728.33 422.926 726.877 422.393 725.917C421.873 724.943 421.166 724.457 420.273 724.457C419.393 724.457 418.686 724.943 418.153 725.917C417.62 726.877 417.353 728.33 417.353 730.277C417.353 732.223 417.62 733.697 418.153 734.697C418.686 735.697 419.393 736.197 420.273 736.197Z" fill="white"/>
<path d="M493.934 729.757C493.481 729.757 492.981 729.903 492.434 730.197C491.887 730.477 491.354 730.97 490.834 731.677C490.914 733.023 491.221 734.117 491.754 734.957C492.287 735.783 493.074 736.197 494.114 736.197C494.607 736.197 495.047 736.057 495.434 735.777C495.821 735.483 496.127 735.097 496.354 734.617C496.581 734.123 496.694 733.57 496.694 732.957C496.694 732.037 496.474 731.277 496.034 730.677C495.607 730.063 494.907 729.757 493.934 729.757ZM494.094 736.957C492.814 736.957 491.794 736.437 491.034 735.397C490.287 734.343 489.914 732.85 489.914 730.917C489.914 729.57 490.041 728.437 490.294 727.517C490.547 726.597 490.894 725.857 491.334 725.297C491.774 724.737 492.274 724.33 492.834 724.077C493.407 723.823 494.001 723.697 494.614 723.697C495.214 723.697 495.727 723.81 496.154 724.037C496.594 724.263 496.981 724.563 497.314 724.937L496.774 725.537C496.494 725.19 496.167 724.93 495.794 724.757C495.421 724.57 495.027 724.477 494.614 724.477C493.934 724.477 493.301 724.677 492.714 725.077C492.141 725.477 491.681 726.137 491.334 727.057C490.987 727.977 490.814 729.217 490.814 730.777C491.254 730.23 491.754 729.797 492.314 729.477C492.874 729.157 493.447 728.997 494.034 728.997C495.154 728.997 496.027 729.337 496.654 730.017C497.281 730.683 497.594 731.663 497.594 732.957C497.594 733.73 497.434 734.417 497.114 735.017C496.794 735.617 496.367 736.09 495.834 736.437C495.314 736.783 494.734 736.957 494.094 736.957ZM500.644 736.957C500.431 736.957 500.231 736.877 500.044 736.717C499.871 736.557 499.784 736.337 499.784 736.057C499.784 735.763 499.871 735.537 500.044 735.377C500.231 735.217 500.431 735.137 500.644 735.137C500.871 735.137 501.064 735.217 501.224 735.377C501.398 735.537 501.484 735.763 501.484 736.057C501.484 736.337 501.398 736.557 501.224 736.717C501.064 736.877 500.871 736.957 500.644 736.957ZM507.599 736.957C506.386 736.957 505.446 736.377 504.779 735.217C504.113 734.057 503.779 732.41 503.779 730.277C503.779 728.157 504.113 726.53 504.779 725.397C505.446 724.263 506.386 723.697 507.599 723.697C508.826 723.697 509.766 724.263 510.419 725.397C511.086 726.53 511.419 728.157 511.419 730.277C511.419 732.41 511.086 734.057 510.419 735.217C509.766 736.377 508.826 736.957 507.599 736.957ZM507.599 736.197C508.493 736.197 509.199 735.697 509.719 734.697C510.253 733.697 510.519 732.223 510.519 730.277C510.519 728.33 510.253 726.877 509.719 725.917C509.199 724.943 508.493 724.457 507.599 724.457C506.719 724.457 506.013 724.943 505.479 725.917C504.946 726.877 504.679 728.33 504.679 730.277C504.679 732.223 504.946 733.697 505.479 734.697C506.013 735.697 506.719 736.197 507.599 736.197Z" fill="white"/>
<path d="M580.74 736.957C580.06 736.957 579.467 736.87 578.96 736.697C578.467 736.523 578.04 736.303 577.68 736.037C577.32 735.77 577 735.503 576.72 735.237L577.22 734.617C577.607 735.003 578.067 735.363 578.6 735.697C579.147 736.017 579.854 736.177 580.72 736.177C581.294 736.177 581.82 736.037 582.3 735.757C582.78 735.463 583.167 735.057 583.46 734.537C583.754 734.017 583.9 733.417 583.9 732.737C583.9 731.71 583.614 730.903 583.04 730.317C582.48 729.73 581.727 729.437 580.78 729.437C580.287 729.437 579.86 729.517 579.5 729.677C579.154 729.823 578.787 730.03 578.4 730.297L577.78 729.917L578.24 723.937H584.14V724.717H579.04L578.64 729.337C578.974 729.137 579.32 728.977 579.68 728.857C580.04 728.723 580.454 728.657 580.92 728.657C581.64 728.657 582.294 728.803 582.88 729.097C583.48 729.377 583.954 729.817 584.3 730.417C584.647 731.003 584.82 731.763 584.82 732.697C584.82 733.603 584.62 734.377 584.22 735.017C583.834 735.643 583.327 736.123 582.7 736.457C582.087 736.79 581.434 736.957 580.74 736.957ZM587.971 736.957C587.757 736.957 587.557 736.877 587.371 736.717C587.197 736.557 587.111 736.337 587.111 736.057C587.111 735.763 587.197 735.537 587.371 735.377C587.557 735.217 587.757 735.137 587.971 735.137C588.197 735.137 588.391 735.217 588.551 735.377C588.724 735.537 588.811 735.763 588.811 736.057C588.811 736.337 588.724 736.557 588.551 736.717C588.391 736.877 588.197 736.957 587.971 736.957ZM594.926 736.957C593.712 736.957 592.772 736.377 592.106 735.217C591.439 734.057 591.106 732.41 591.106 730.277C591.106 728.157 591.439 726.53 592.106 725.397C592.772 724.263 593.712 723.697 594.926 723.697C596.152 723.697 597.092 724.263 597.746 725.397C598.412 726.53 598.746 728.157 598.746 730.277C598.746 732.41 598.412 734.057 597.746 735.217C597.092 736.377 596.152 736.957 594.926 736.957ZM594.926 736.197C595.819 736.197 596.526 735.697 597.046 734.697C597.579 733.697 597.846 732.223 597.846 730.277C597.846 728.33 597.579 726.877 597.046 725.917C596.526 724.943 595.819 724.457 594.926 724.457C594.046 724.457 593.339 724.943 592.806 725.917C592.272 726.877 592.006 728.33 592.006 730.277C592.006 732.223 592.272 733.697 592.806 734.697C593.339 735.697 594.046 736.197 594.926 736.197Z" fill="white"/>
<path d="M667.286 732.137H672.086V727.457C672.086 727.163 672.092 726.797 672.106 726.357C672.132 725.917 672.152 725.55 672.166 725.257H672.086C671.926 725.523 671.759 725.783 671.586 726.037C671.412 726.29 671.232 726.563 671.046 726.857L667.286 732.137ZM672.086 736.717V732.897H666.206V732.377L672.146 723.937H672.946V732.137H674.846V732.897H672.946V736.717H672.086ZM677.656 736.957C677.443 736.957 677.243 736.877 677.056 736.717C676.883 736.557 676.796 736.337 676.796 736.057C676.796 735.763 676.883 735.537 677.056 735.377C677.243 735.217 677.443 735.137 677.656 735.137C677.883 735.137 678.076 735.217 678.236 735.377C678.409 735.537 678.496 735.763 678.496 736.057C678.496 736.337 678.409 736.557 678.236 736.717C678.076 736.877 677.883 736.957 677.656 736.957ZM684.611 736.957C683.398 736.957 682.458 736.377 681.791 735.217C681.124 734.057 680.791 732.41 680.791 730.277C680.791 728.157 681.124 726.53 681.791 725.397C682.458 724.263 683.398 723.697 684.611 723.697C685.838 723.697 686.778 724.263 687.431 725.397C688.098 726.53 688.431 728.157 688.431 730.277C688.431 732.41 688.098 734.057 687.431 735.217C686.778 736.377 685.838 736.957 684.611 736.957ZM684.611 736.197C685.504 736.197 686.211 735.697 686.731 734.697C687.264 733.697 687.531 732.223 687.531 730.277C687.531 728.33 687.264 726.877 686.731 725.917C686.211 724.943 685.504 724.457 684.611 724.457C683.731 724.457 683.024 724.943 682.491 725.917C681.958 726.877 681.691 728.33 681.691 730.277C681.691 732.223 681.958 733.697 682.491 734.697C683.024 735.697 683.731 736.197 684.611 736.197Z" fill="white"/>
<path d="M757.852 736.957C757.172 736.957 756.579 736.87 756.072 736.697C755.565 736.51 755.125 736.277 754.752 735.997C754.392 735.717 754.072 735.437 753.792 735.157L754.312 734.537C754.699 734.95 755.165 735.33 755.712 735.677C756.259 736.01 756.972 736.177 757.852 736.177C758.719 736.177 759.432 735.923 759.992 735.417C760.552 734.897 760.832 734.21 760.832 733.357C760.832 732.477 760.485 731.763 759.792 731.217C759.112 730.67 757.972 730.397 756.372 730.397V729.617C757.359 729.617 758.145 729.497 758.732 729.257C759.319 729.003 759.739 728.663 759.992 728.237C760.245 727.81 760.372 727.343 760.372 726.837C760.372 726.117 760.139 725.543 759.672 725.117C759.205 724.677 758.579 724.457 757.792 724.457C757.205 724.457 756.659 724.597 756.152 724.877C755.659 725.143 755.225 725.47 754.852 725.857L754.332 725.257C754.772 724.83 755.272 724.463 755.832 724.157C756.405 723.85 757.059 723.697 757.792 723.697C758.459 723.697 759.052 723.817 759.572 724.057C760.105 724.297 760.525 724.65 760.832 725.117C761.139 725.57 761.292 726.123 761.292 726.777C761.292 727.617 761.059 728.297 760.592 728.817C760.139 729.323 759.559 729.697 758.852 729.937V730.017C759.385 730.123 759.865 730.33 760.292 730.637C760.732 730.93 761.085 731.303 761.352 731.757C761.619 732.21 761.752 732.737 761.752 733.337C761.752 734.07 761.579 734.71 761.232 735.257C760.885 735.803 760.419 736.223 759.832 736.517C759.245 736.81 758.585 736.957 757.852 736.957ZM764.982 736.957C764.769 736.957 764.569 736.877 764.382 736.717C764.209 736.557 764.122 736.337 764.122 736.057C764.122 735.763 764.209 735.537 764.382 735.377C764.569 735.217 764.769 735.137 764.982 735.137C765.209 735.137 765.402 735.217 765.562 735.377C765.736 735.537 765.822 735.763 765.822 736.057C765.822 736.337 765.736 736.557 765.562 736.717C765.402 736.877 765.209 736.957 764.982 736.957ZM771.937 736.957C770.724 736.957 769.784 736.377 769.117 735.217C768.451 734.057 768.117 732.41 768.117 730.277C768.117 728.157 768.451 726.53 769.117 725.397C769.784 724.263 770.724 723.697 771.937 723.697C773.164 723.697 774.104 724.263 774.757 725.397C775.424 726.53 775.757 728.157 775.757 730.277C775.757 732.41 775.424 734.057 774.757 735.217C774.104 736.377 773.164 736.957 771.937 736.957ZM771.937 736.197C772.831 736.197 773.537 735.697 774.057 734.697C774.591 733.697 774.857 732.223 774.857 730.277C774.857 728.33 774.591 726.877 774.057 725.917C773.537 724.943 772.831 724.457 771.937 724.457C771.057 724.457 770.351 724.943 769.817 725.917C769.284 726.877 769.017 728.33 769.017 730.277C769.017 732.223 769.284 733.697 769.817 734.697C770.351 735.697 771.057 736.197 771.937 736.197Z" fill="white"/>
<path d="M843.719 736.717V736.157C845.119 734.73 846.286 733.497 847.219 732.457C848.153 731.403 848.853 730.463 849.319 729.637C849.786 728.81 850.019 728.03 850.019 727.297C850.019 726.497 849.793 725.823 849.339 725.277C848.899 724.73 848.199 724.457 847.239 724.457C846.666 724.457 846.119 724.617 845.599 724.937C845.093 725.257 844.646 725.657 844.259 726.137L843.679 725.577C844.159 725.043 844.693 724.597 845.279 724.237C845.866 723.877 846.546 723.697 847.319 723.697C848.466 723.697 849.353 724.023 849.979 724.677C850.606 725.33 850.919 726.197 850.919 727.277C850.919 728.117 850.673 728.97 850.179 729.837C849.699 730.703 849.019 731.637 848.139 732.637C847.273 733.637 846.246 734.763 845.059 736.017C845.406 735.99 845.759 735.97 846.119 735.957C846.493 735.93 846.853 735.917 847.199 735.917H851.559V736.717H843.719ZM854.67 736.957C854.456 736.957 854.256 736.877 854.07 736.717C853.896 736.557 853.81 736.337 853.81 736.057C853.81 735.763 853.896 735.537 854.07 735.377C854.256 735.217 854.456 735.137 854.67 735.137C854.896 735.137 855.09 735.217 855.25 735.377C855.423 735.537 855.51 735.763 855.51 736.057C855.51 736.337 855.423 736.557 855.25 736.717C855.09 736.877 854.896 736.957 854.67 736.957ZM861.625 736.957C860.411 736.957 859.471 736.377 858.805 735.217C858.138 734.057 857.805 732.41 857.805 730.277C857.805 728.157 858.138 726.53 858.805 725.397C859.471 724.263 860.411 723.697 861.625 723.697C862.851 723.697 863.791 724.263 864.445 725.397C865.111 726.53 865.445 728.157 865.445 730.277C865.445 732.41 865.111 734.057 864.445 735.217C863.791 736.377 862.851 736.957 861.625 736.957ZM861.625 736.197C862.518 736.197 863.225 735.697 863.745 734.697C864.278 733.697 864.545 732.223 864.545 730.277C864.545 728.33 864.278 726.877 863.745 725.917C863.225 724.943 862.518 724.457 861.625 724.457C860.745 724.457 860.038 724.943 859.505 725.917C858.971 726.877 858.705 728.33 858.705 730.277C858.705 732.223 858.971 733.697 859.505 734.697C860.038 735.697 860.745 736.197 861.625 736.197Z" fill="white"/>
<path d="M938.985 736.717V735.937H941.985V725.337H939.705V724.737C940.225 724.643 940.691 724.53 941.105 724.397C941.518 724.263 941.871 724.11 942.165 723.937H942.885V735.937H945.665V736.717H938.985ZM949.075 736.957C948.862 736.957 948.662 736.877 948.475 736.717C948.302 736.557 948.215 736.337 948.215 736.057C948.215 735.763 948.302 735.537 948.475 735.377C948.662 735.217 948.862 735.137 949.075 735.137C949.302 735.137 949.495 735.217 949.655 735.377C949.828 735.537 949.915 735.763 949.915 736.057C949.915 736.337 949.828 736.557 949.655 736.717C949.495 736.877 949.302 736.957 949.075 736.957ZM956.03 736.957C954.817 736.957 953.877 736.377 953.21 735.217C952.543 734.057 952.21 732.41 952.21 730.277C952.21 728.157 952.543 726.53 953.21 725.397C953.877 724.263 954.817 723.697 956.03 723.697C957.257 723.697 958.197 724.263 958.85 725.397C959.517 726.53 959.85 728.157 959.85 730.277C959.85 732.41 959.517 734.057 958.85 735.217C958.197 736.377 957.257 736.957 956.03 736.957ZM956.03 736.197C956.923 736.197 957.63 735.697 958.15 734.697C958.683 733.697 958.95 732.223 958.95 730.277C958.95 728.33 958.683 726.877 958.15 725.917C957.63 724.943 956.923 724.457 956.03 724.457C955.15 724.457 954.443 724.943 953.91 725.917C953.377 726.877 953.11 728.33 953.11 730.277C953.11 732.223 953.377 733.697 953.91 734.697C954.443 735.697 955.15 736.197 956.03 736.197Z" fill="white"/>
<path d="M1025.87 736.957C1024.66 736.957 1023.72 736.377 1023.05 735.217C1022.38 734.057 1022.05 732.41 1022.05 730.277C1022.05 728.157 1022.38 726.53 1023.05 725.397C1023.72 724.263 1024.66 723.697 1025.87 723.697C1027.1 723.697 1028.04 724.263 1028.69 725.397C1029.36 726.53 1029.69 728.157 1029.69 730.277C1029.69 732.41 1029.36 734.057 1028.69 735.217C1028.04 736.377 1027.1 736.957 1025.87 736.957ZM1025.87 736.197C1026.76 736.197 1027.47 735.697 1027.99 734.697C1028.52 733.697 1028.79 732.223 1028.79 730.277C1028.79 728.33 1028.52 726.877 1027.99 725.917C1027.47 724.943 1026.76 724.457 1025.87 724.457C1024.99 724.457 1024.28 724.943 1023.75 725.917C1023.22 726.877 1022.95 728.33 1022.95 730.277C1022.95 732.223 1023.22 733.697 1023.75 734.697C1024.28 735.697 1024.99 736.197 1025.87 736.197Z" fill="white"/>
<path d="M898.859 643.25L906.17 617.03V399.713L908.382 625.372L911.48 627.567L914.578 642.055H919.003V627.567L921.216 619.665V571.811M921.216 171.75V571.811M944.859 643.25L940.96 642.055L934.049 633.713L931.837 428.689L934.049 627.567V631.518L931.837 642.055L929.624 639.86L924.756 637.665V631.518L921.216 571.811" stroke="#C3FA50" stroke-width="3"/>
<path d="M115.738 614.51L127.578 614.51L127.998 612.63L128.858 612.63L128.858 618.39L127.998 618.39L127.578 616.51L115.738 616.51L115.318 618.39L114.458 618.39L114.458 612.63L115.318 612.63L115.738 614.51ZM127.658 609.51L119.258 609.51L118.878 611.05L118.058 611.05L118.058 608.17L120.058 607.73L120.058 607.65C119.378 607.25 118.845 606.71 118.458 606.03C118.058 605.35 117.858 604.623 117.858 603.85C117.858 602.743 118.218 601.923 118.938 601.39C119.312 601.123 119.838 600.936 120.518 600.83C121.185 600.71 122.092 600.65 123.238 600.65L127.658 600.65L128.038 599.11L128.858 599.11L128.858 603.93L128.038 603.93L127.658 602.59L123.198 602.59C122.332 602.59 121.685 602.616 121.258 602.67C120.832 602.71 120.498 602.79 120.258 602.91C119.938 603.07 119.698 603.303 119.538 603.61C119.365 603.903 119.278 604.256 119.278 604.67C119.278 605.443 119.525 606.11 120.018 606.67C120.512 607.216 121.278 607.516 122.318 607.57L127.658 607.57L128.038 606.23L128.858 606.23L128.858 611.05L128.038 611.05L127.658 609.51ZM119.058 598.484L118.338 598.484L118.058 596.544L115.538 596.284L115.298 594.604L118.058 594.604L118.058 592.044L119.058 592.044L119.058 594.604L126.198 594.604C126.652 594.604 126.965 594.597 127.138 594.584C127.298 594.571 127.432 594.544 127.538 594.504C127.632 594.464 127.698 594.391 127.738 594.284C127.765 594.177 127.778 594.004 127.778 593.764L127.778 592.364L128.358 592.364C128.598 593.004 128.772 593.571 128.878 594.064C128.998 594.544 129.058 594.931 129.058 595.224C129.058 595.824 128.812 596.211 128.318 596.384C128.158 596.437 127.952 596.477 127.698 596.504C127.445 596.531 127.072 596.544 126.578 596.544L119.058 596.544L119.058 598.484ZM123.578 581.908L123.578 588.888C124.552 588.888 125.358 588.754 125.998 588.488C126.612 588.221 127.052 587.841 127.318 587.348C127.585 586.854 127.718 586.321 127.718 585.748C127.718 585.121 127.592 584.548 127.338 584.028C127.072 583.508 126.712 583.041 126.258 582.628L126.738 581.988C127.378 582.454 127.925 583.021 128.378 583.688C128.832 584.354 129.058 585.214 129.058 586.268C129.058 587.188 128.865 588.001 128.478 588.708C128.078 589.414 127.498 589.954 126.738 590.328C126.325 590.528 125.865 590.674 125.358 590.768C124.852 590.861 124.312 590.908 123.738 590.908C121.872 590.908 120.425 590.481 119.398 589.628C118.372 588.761 117.858 587.588 117.858 586.108C117.858 584.748 118.285 583.701 119.138 582.968C119.978 582.221 121.145 581.848 122.638 581.848C122.772 581.848 122.898 581.854 123.018 581.868C123.125 581.868 123.312 581.881 123.578 581.908ZM118.938 586.228C118.938 587.828 120.158 588.708 122.598 588.868L122.598 583.868L121.938 583.868C120.978 583.868 120.238 584.074 119.718 584.488C119.198 584.888 118.938 585.468 118.938 586.228ZM127.658 578.709L119.258 578.709L118.878 580.249L118.058 580.249L118.058 577.369L120.058 576.929L120.058 576.849C119.378 576.449 118.845 575.909 118.458 575.229C118.058 574.549 117.858 573.822 117.858 573.049C117.858 571.942 118.218 571.122 118.938 570.589C119.312 570.322 119.838 570.135 120.518 570.029C121.185 569.909 122.092 569.849 123.238 569.849L127.658 569.849L128.038 568.309L128.858 568.309L128.858 573.129L128.038 573.129L127.658 571.789L123.198 571.789C122.332 571.789 121.685 571.815 121.258 571.869C120.832 571.909 120.498 571.989 120.258 572.109C119.938 572.269 119.698 572.502 119.538 572.809C119.365 573.102 119.278 573.455 119.278 573.869C119.278 574.642 119.525 575.309 120.018 575.869C120.512 576.415 121.278 576.715 122.318 576.769L127.658 576.769L128.038 575.429L128.858 575.429L128.858 580.249L128.038 580.249L127.658 578.709ZM128.138 562.983C128.138 562.237 127.985 561.63 127.678 561.163C127.372 560.683 126.945 560.443 126.398 560.443C125.958 560.443 125.605 560.59 125.338 560.883C125.072 561.177 124.858 561.543 124.698 561.983C124.525 562.41 124.378 562.843 124.258 563.283C124.085 563.83 123.885 564.357 123.658 564.863C123.418 565.37 123.092 565.783 122.678 566.103C122.265 566.423 121.718 566.583 121.038 566.583C120.078 566.583 119.312 566.237 118.738 565.543C118.152 564.837 117.858 563.857 117.858 562.603C117.858 561.537 118.085 560.697 118.538 560.083C118.978 559.457 119.585 559.143 120.358 559.143C120.772 559.143 121.105 559.237 121.358 559.423C121.598 559.61 121.718 559.877 121.718 560.223C121.718 560.53 121.625 560.783 121.438 560.983C121.252 561.183 121.012 561.283 120.718 561.283C120.465 561.283 120.238 561.217 120.038 561.083C119.825 560.95 119.672 560.777 119.578 560.563C119.298 560.763 119.098 561.023 118.978 561.343C118.845 561.65 118.778 562.05 118.778 562.543C118.778 563.343 118.925 563.943 119.218 564.343C119.498 564.743 119.918 564.943 120.478 564.943C120.878 564.943 121.198 564.85 121.438 564.663C121.665 564.463 121.858 564.177 122.018 563.803C122.178 563.43 122.345 562.97 122.518 562.423C122.652 561.97 122.805 561.523 122.978 561.083C123.138 560.643 123.338 560.243 123.578 559.883C123.818 559.523 124.118 559.237 124.478 559.023C124.838 558.81 125.285 558.703 125.818 558.703C126.498 558.703 127.085 558.89 127.578 559.263C128.058 559.637 128.425 560.15 128.678 560.803C128.932 561.457 129.058 562.21 129.058 563.063C129.058 564.237 128.818 565.183 128.338 565.903C127.858 566.623 127.212 566.983 126.398 566.983C125.972 566.983 125.638 566.89 125.398 566.703C125.145 566.503 125.018 566.223 125.018 565.863C125.018 565.543 125.112 565.277 125.298 565.063C125.485 564.837 125.732 564.723 126.038 564.723C126.292 564.723 126.532 564.797 126.758 564.943C126.985 565.077 127.152 565.243 127.258 565.443C127.512 565.27 127.725 564.963 127.898 564.523C128.058 564.07 128.138 563.557 128.138 562.983ZM119.258 555.545L118.878 557.085L118.058 557.085L118.058 553.605L127.658 553.605L128.038 552.065L128.858 552.065L128.858 557.085L128.038 557.085L127.658 555.545L119.258 555.545ZM114.838 555.825C114.452 555.825 114.145 555.711 113.918 555.485C113.692 555.258 113.578 554.958 113.578 554.585C113.578 554.198 113.692 553.891 113.918 553.665C114.145 553.438 114.452 553.325 114.838 553.325C115.212 553.325 115.512 553.438 115.738 553.665C115.965 553.891 116.078 554.198 116.078 554.585C116.078 554.971 115.972 555.278 115.758 555.505C115.532 555.718 115.225 555.825 114.838 555.825ZM119.058 551.394L118.338 551.394L118.058 549.454L115.538 549.194L115.298 547.514L118.058 547.514L118.058 544.954L119.058 544.954L119.058 547.514L126.198 547.514C126.652 547.514 126.965 547.508 127.138 547.494C127.298 547.481 127.432 547.454 127.538 547.414C127.632 547.374 127.698 547.301 127.738 547.194C127.765 547.088 127.778 546.914 127.778 546.674L127.778 545.274L128.358 545.274C128.598 545.914 128.772 546.481 128.878 546.974C128.998 547.454 129.058 547.841 129.058 548.134C129.058 548.734 128.812 549.121 128.318 549.294C128.158 549.348 127.952 549.388 127.698 549.414C127.445 549.441 127.072 549.454 126.578 549.454L119.058 549.454L119.058 551.394ZM119.258 534.478L128.378 537.798C129.405 538.171 130.232 538.511 130.858 538.818C131.498 539.124 131.958 539.464 132.238 539.838C132.518 540.211 132.658 540.691 132.658 541.278C132.658 541.904 132.492 542.444 132.158 542.898C131.825 543.338 131.405 543.558 130.898 543.558C130.525 543.558 130.212 543.451 129.958 543.238C129.718 543.024 129.598 542.744 129.598 542.398C129.598 542.091 129.678 541.851 129.838 541.678C130.012 541.491 130.245 541.398 130.538 541.398C130.725 541.398 130.905 541.438 131.078 541.518C131.252 541.584 131.405 541.678 131.538 541.798C131.672 541.771 131.758 541.691 131.798 541.558C131.852 541.424 131.878 541.311 131.878 541.218C131.878 541.031 131.832 540.858 131.738 540.698C131.645 540.538 131.445 540.371 131.138 540.198C130.845 540.011 130.378 539.811 129.738 539.598L128.998 539.358L119.258 543.498L118.878 544.698L118.058 544.698L118.058 540.218L118.878 540.058L119.258 541.478L127.098 538.498L127.098 538.418L119.258 535.898L118.878 537.058L118.058 537.058L118.058 533.258L118.878 533.258L119.258 534.478Z" fill="#C3FA50"/>
<path d="M575.1 828.54C575.1 829.926 575.24 831.206 575.52 832.38C575.8 833.553 576.193 834.593 576.7 835.5C577.206 836.393 577.806 837.12 578.5 837.68C579.193 838.24 579.96 838.606 580.8 838.78L581.32 837.68C580.48 837.506 579.74 837.02 579.1 836.22C578.473 835.42 577.986 834.366 577.64 833.06C577.293 831.753 577.12 830.26 577.12 828.58C577.12 826.913 577.3 825.42 577.66 824.1C578.02 822.766 578.52 821.68 579.16 820.84C579.813 820 580.566 819.48 581.42 819.28L581 818.3C580.12 818.513 579.313 818.92 578.58 819.52C577.86 820.12 577.24 820.873 576.72 821.78C576.2 822.686 575.8 823.713 575.52 824.86C575.24 825.993 575.1 827.22 575.1 828.54ZM585.622 838L587.562 838.38V839.2H582.142V838.38L583.682 838V826L582.142 825.62V824.8H585.022L585.322 826.34C585.748 825.673 586.228 825.22 586.762 824.98C587.308 824.726 587.922 824.6 588.602 824.6C589.282 824.6 589.895 824.7 590.442 824.9C591.002 825.1 591.455 825.42 591.802 825.86C592.202 826.366 592.515 826.98 592.742 827.7C592.982 828.406 593.102 829.173 593.102 830C593.102 830.853 592.968 831.66 592.702 832.42C592.448 833.166 592.102 833.793 591.662 834.3C590.915 835.166 589.842 835.6 588.442 835.6C587.868 835.6 587.348 835.493 586.882 835.28C586.428 835.053 586.008 834.666 585.622 834.12V838ZM585.602 830.02C585.602 830.806 585.662 831.493 585.782 832.08C585.902 832.666 586.075 833.14 586.302 833.5C586.515 833.833 586.775 834.093 587.082 834.28C587.402 834.466 587.808 834.56 588.302 834.56C588.755 834.56 589.148 834.48 589.482 834.32C589.828 834.146 590.108 833.913 590.322 833.62C590.562 833.286 590.735 832.82 590.842 832.22C590.948 831.62 591.002 830.933 591.002 830.16C591.002 829.373 590.942 828.693 590.822 828.12C590.702 827.546 590.528 827.073 590.302 826.7C590.088 826.353 589.822 826.093 589.502 825.92C589.195 825.733 588.788 825.64 588.282 825.64C587.828 825.64 587.428 825.72 587.082 825.88C586.748 826.026 586.488 826.253 586.302 826.56C586.088 826.92 585.915 827.393 585.782 827.98C585.662 828.553 585.602 829.233 585.602 830.02ZM598.004 838L599.944 838.38V839.2H594.524V838.38L596.064 838V826L594.524 825.62V824.8H597.404L597.704 826.34C598.131 825.673 598.611 825.22 599.144 824.98C599.691 824.726 600.304 824.6 600.984 824.6C601.664 824.6 602.278 824.7 602.824 824.9C603.384 825.1 603.838 825.42 604.184 825.86C604.584 826.366 604.898 826.98 605.124 827.7C605.364 828.406 605.484 829.173 605.484 830C605.484 830.853 605.351 831.66 605.084 832.42C604.831 833.166 604.484 833.793 604.044 834.3C603.298 835.166 602.224 835.6 600.824 835.6C600.251 835.6 599.731 835.493 599.264 835.28C598.811 835.053 598.391 834.666 598.004 834.12V838ZM597.984 830.02C597.984 830.806 598.044 831.493 598.164 832.08C598.284 832.666 598.458 833.14 598.684 833.5C598.898 833.833 599.158 834.093 599.464 834.28C599.784 834.466 600.191 834.56 600.684 834.56C601.138 834.56 601.531 834.48 601.864 834.32C602.211 834.146 602.491 833.913 602.704 833.62C602.944 833.286 603.118 832.82 603.224 832.22C603.331 831.62 603.384 830.933 603.384 830.16C603.384 829.373 603.324 828.693 603.204 828.12C603.084 827.546 602.911 827.073 602.684 826.7C602.471 826.353 602.204 826.093 601.884 825.92C601.578 825.733 601.171 825.64 600.664 825.64C600.211 825.64 599.811 825.72 599.464 825.88C599.131 826.026 598.871 826.253 598.684 826.56C598.471 826.92 598.298 827.393 598.164 827.98C598.044 828.553 597.984 829.233 597.984 830.02ZM608.667 834.4V826L607.127 825.62V824.8H610.007L610.447 826.8H610.527C610.914 826.133 611.427 825.6 612.067 825.2C612.721 824.8 613.414 824.6 614.147 824.6C614.694 824.6 615.181 824.706 615.607 824.92C616.034 825.12 616.347 825.373 616.547 825.68C616.761 826.013 616.934 826.453 617.067 827C617.494 826.253 618.047 825.666 618.727 825.24C619.407 824.813 620.134 824.6 620.907 824.6C621.441 824.6 621.921 824.706 622.347 824.92C622.774 825.12 623.101 825.4 623.327 825.76C623.487 826.013 623.614 826.34 623.707 826.74C623.801 827.14 623.867 827.66 623.907 828.3C623.947 828.926 623.967 829.726 623.967 830.7V834.4L625.507 834.78V835.6H620.687V834.78L622.027 834.4V829.94C622.027 829.073 622.001 828.426 621.947 828C621.907 827.573 621.827 827.24 621.707 827C621.547 826.68 621.321 826.44 621.027 826.28C620.747 826.106 620.414 826.02 620.027 826.02C619.694 826.02 619.367 826.086 619.047 826.22C618.727 826.353 618.441 826.533 618.187 826.76C617.894 827.026 617.674 827.34 617.527 827.7C617.394 828.06 617.314 828.513 617.287 829.06V834.4L618.627 834.78V835.6H614.007V834.78L615.347 834.4V829.94C615.347 829.073 615.321 828.426 615.267 828C615.227 827.573 615.147 827.24 615.027 827C614.867 826.68 614.641 826.44 614.347 826.28C614.067 826.106 613.734 826.02 613.347 826.02C613.014 826.02 612.687 826.086 612.367 826.22C612.047 826.353 611.761 826.533 611.507 826.76C611.214 827.026 610.994 827.34 610.847 827.7C610.714 828.06 610.634 828.513 610.607 829.06V834.4L611.947 834.78V835.6H607.127V834.78L608.667 834.4ZM631.853 828.54C631.853 827.22 631.713 825.993 631.433 824.86C631.153 823.713 630.753 822.686 630.233 821.78C629.713 820.873 629.087 820.12 628.353 819.52C627.633 818.92 626.833 818.513 625.953 818.3L625.533 819.28C626.4 819.48 627.153 820 627.793 820.84C628.433 821.68 628.933 822.766 629.293 824.1C629.653 825.42 629.833 826.913 629.833 828.58C629.833 830.26 629.653 831.753 629.293 833.06C628.947 834.366 628.46 835.42 627.833 836.22C627.207 837.02 626.473 837.506 625.633 837.68L626.153 838.78C626.993 838.606 627.76 838.24 628.453 837.68C629.147 837.12 629.747 836.393 630.253 835.5C630.76 834.593 631.153 833.553 631.433 832.38C631.713 831.206 631.853 829.926 631.853 828.54Z" fill="white"/>
<path d="M547.7 824.39C547.7 823.552 548.029 822.88 548.687 822.373C549.346 821.862 550.257 821.606 551.422 821.606C551.933 821.606 552.39 821.649 552.793 821.734C553.2 821.819 553.623 821.947 554.064 822.118V823.794C553.78 823.68 553.394 823.557 552.906 823.424C552.418 823.292 551.933 823.226 551.45 823.226C550.882 823.226 550.446 823.334 550.143 823.552C549.84 823.765 549.689 824.04 549.689 824.376C549.689 824.547 549.743 824.731 549.852 824.93C549.966 825.129 550.177 825.335 550.484 825.548C550.797 825.761 551.251 825.977 551.848 826.194C553.283 826.706 554.327 827.416 554.98 828.325C555.638 829.234 555.967 830.342 555.967 831.649V831.848C555.967 832.823 555.778 833.701 555.399 834.483C555.025 835.264 554.485 835.882 553.78 836.336C553.079 836.791 552.236 837.018 551.251 837.018C550.248 837.018 549.391 836.791 548.68 836.336C547.975 835.882 547.435 835.264 547.061 834.483C546.692 833.701 546.507 832.823 546.507 831.848V831.649C546.507 830.891 546.651 830.198 546.94 829.568C547.229 828.938 547.615 828.41 548.098 827.984C548.581 827.558 549.111 827.274 549.689 827.132V827.075C549.078 826.834 548.593 826.483 548.233 826.024C547.878 825.565 547.7 825.02 547.7 824.39ZM548.467 831.649V831.848C548.467 832.501 548.564 833.102 548.758 833.652C548.957 834.196 549.26 834.634 549.668 834.966C550.079 835.292 550.607 835.456 551.251 835.456C551.886 835.456 552.407 835.292 552.814 834.966C553.221 834.634 553.522 834.196 553.716 833.652C553.91 833.102 554.007 832.501 554.007 831.848V831.649C554.007 831.119 553.893 830.595 553.666 830.079C553.439 829.558 553.119 829.109 552.707 828.73C552.295 828.346 551.81 828.098 551.251 827.984C550.607 827.984 550.079 828.155 549.668 828.495C549.26 828.832 548.957 829.279 548.758 829.838C548.564 830.392 548.467 830.995 548.467 831.649Z" fill="white"/>
<path d="M672.858 655.25L681.801 666.662H725.767L736.944 655.25" stroke="#FA5050" stroke-width="3"/>
<path d="M881.899 655.25L893.052 666.662H947.878L961.817 655.25" stroke="#FA5050" stroke-width="3"/>
<defs>
<filter id="filter0_d_854_8846" x="141.858" y="641.75" width="886.001" height="11" filterUnits="userSpaceOnUse" color-interpolation-filters="sRGB">
<feFlood flood-opacity="0" result="BackgroundImageFix"/>
<feColorMatrix in="SourceAlpha" type="matrix" values="0 0 0 0 0 0 0 0 0 0 0 0 0 0 0 0 0 0 127 0" result="hardAlpha"/>
<feOffset dy="4"/>
<feGaussianBlur stdDeviation="2"/>
<feComposite in2="hardAlpha" operator="out"/>
<feColorMatrix type="matrix" values="0 0 0 0 0 0 0 0 0 0 0 0 0 0 0 0 0 0 0.25 0"/>
<feBlend mode="normal" in2="BackgroundImageFix" result="effect1_dropShadow_854_8846"/>
<feBlend mode="normal" in="SourceGraphic" in2="effect1_dropShadow_854_8846" result="shape"/>
</filter>
</defs>
</svg>
