<svg width="1123" height="901" viewBox="0 0 1123 901" fill="none" xmlns="http://www.w3.org/2000/svg">
<rect width="1122" height="900" transform="translate(0.210938 0.794922)" fill="#0C0C31"/>
<path d="M421.944 312.283C421.944 313.804 421.708 315.236 421.236 316.582C420.782 317.91 420.144 319.02 419.323 319.911C418.607 320.68 417.742 321.256 416.728 321.641C415.732 322.008 414.579 322.191 413.268 322.191C411.94 322.191 410.769 322.008 409.756 321.641C408.742 321.274 407.895 320.723 407.214 319.989C406.41 319.151 405.789 318.102 405.353 316.844C404.916 315.568 404.697 314.188 404.697 312.703C404.697 311.182 404.924 309.758 405.379 308.43C405.851 307.085 406.497 305.966 407.318 305.075C408.052 304.289 408.9 303.712 409.861 303.345C410.839 302.978 411.993 302.795 413.321 302.795C414.649 302.795 415.811 302.978 416.807 303.345C417.82 303.695 418.685 304.245 419.402 304.997C420.223 305.835 420.852 306.893 421.289 308.168C421.726 309.444 421.944 310.815 421.944 312.283ZM407.712 312.178C407.712 313.629 407.834 314.922 408.078 316.058C408.323 317.176 408.673 318.093 409.127 318.81C409.581 319.456 410.149 319.946 410.831 320.278C411.53 320.592 412.386 320.749 413.399 320.749C415.252 320.749 416.615 320.173 417.488 319.02C417.96 318.373 418.318 317.517 418.563 316.451C418.808 315.367 418.93 314.101 418.93 312.65C418.93 311.2 418.808 309.924 418.563 308.823C418.318 307.723 417.96 306.831 417.488 306.15C417.034 305.486 416.449 304.997 415.732 304.682C415.033 304.368 414.203 304.21 413.242 304.21C412.316 304.21 411.512 304.359 410.831 304.656C410.167 304.935 409.607 305.364 409.153 305.94C408.192 307.216 407.712 309.295 407.712 312.178Z" fill="white"/>
<path d="M421.944 312.283C421.944 313.804 421.708 315.236 421.236 316.582C420.782 317.91 420.144 319.02 419.323 319.911C418.607 320.68 417.742 321.256 416.728 321.641C415.732 322.008 414.579 322.191 413.268 322.191C411.94 322.191 410.769 322.008 409.756 321.641C408.742 321.274 407.895 320.723 407.214 319.989C406.41 319.151 405.789 318.102 405.353 316.844C404.916 315.568 404.697 314.188 404.697 312.703C404.697 311.182 404.924 309.758 405.379 308.43C405.851 307.085 406.497 305.966 407.318 305.075C408.052 304.289 408.9 303.712 409.861 303.345C410.839 302.978 411.993 302.795 413.321 302.795C414.649 302.795 415.811 302.978 416.807 303.345C417.82 303.695 418.685 304.245 419.402 304.997C420.223 305.835 420.852 306.893 421.289 308.168C421.726 309.444 421.944 310.815 421.944 312.283ZM407.712 312.178C407.712 313.629 407.834 314.922 408.078 316.058C408.323 317.176 408.673 318.093 409.127 318.81C409.581 319.456 410.149 319.946 410.831 320.278C411.53 320.592 412.386 320.749 413.399 320.749C415.252 320.749 416.615 320.173 417.488 319.02C417.96 318.373 418.318 317.517 418.563 316.451C418.808 315.367 418.93 314.101 418.93 312.65C418.93 311.2 418.808 309.924 418.563 308.823C418.318 307.723 417.96 306.831 417.488 306.15C417.034 305.486 416.449 304.997 415.732 304.682C415.033 304.368 414.203 304.21 413.242 304.21C412.316 304.21 411.512 304.359 410.831 304.656C410.167 304.935 409.607 305.364 409.153 305.94C408.192 307.216 407.712 309.295 407.712 312.178Z" stroke="black"/>
<path d="M504.861 304.472V319.989L507.062 320.54V321.667H500.038V320.54L502.24 319.989V312.729H493.354V319.989L495.556 320.54V321.667H488.531V320.54L490.733 319.989V304.472L488.531 303.922V302.795H495.556V303.922L493.354 304.472V311.209H502.24V304.472L500.038 303.922V302.795H507.062V303.922L504.861 304.472Z" fill="white"/>
<path d="M504.861 304.472V319.989L507.062 320.54V321.667H500.038V320.54L502.24 319.989V312.729H493.354V319.989L495.556 320.54V321.667H488.531V320.54L490.733 319.989V304.472L488.531 303.922V302.795H495.556V303.922L493.354 304.472V311.209H502.24V304.472L500.038 303.922V302.795H507.062V303.922L504.861 304.472Z" stroke="black"/>
<path d="M248.762 304.254C247.884 304.254 247.131 304.39 246.503 304.66C245.894 304.93 245.374 305.353 244.944 305.93C244.406 306.633 243.985 307.561 243.68 308.714C243.375 309.849 243.223 311.101 243.223 312.471C243.223 313.75 243.357 314.948 243.626 316.065C243.895 317.182 244.271 318.119 244.755 318.876C245.24 319.633 245.822 320.191 246.503 320.552C247.203 320.894 248.072 321.065 249.112 321.065C252.339 321.065 254.212 319.543 254.732 316.498H256.211C255.404 320.696 252.948 322.795 248.843 322.795C246.369 322.795 244.397 322.074 242.927 320.633C242.048 319.768 241.376 318.678 240.91 317.362C240.444 316.047 240.211 314.588 240.211 312.984C240.211 311.164 240.507 309.516 241.098 308.038C241.69 306.561 242.524 305.381 243.599 304.498C244.962 303.362 246.763 302.795 249.004 302.795C250.116 302.795 251.021 302.939 251.72 303.227C252.419 303.516 253.11 304.029 253.791 304.768L254.329 303.065H255.808V309.038H254.167C253.916 307.453 253.334 306.263 252.419 305.471C251.523 304.66 250.304 304.254 248.762 304.254Z" fill="#5C48FD"/>
<path d="M248.762 304.254C247.884 304.254 247.131 304.39 246.503 304.66C245.894 304.93 245.374 305.353 244.944 305.93C244.406 306.633 243.985 307.561 243.68 308.714C243.375 309.849 243.223 311.101 243.223 312.471C243.223 313.75 243.357 314.948 243.626 316.065C243.895 317.182 244.271 318.119 244.755 318.876C245.24 319.633 245.822 320.191 246.503 320.552C247.203 320.894 248.072 321.065 249.112 321.065C252.339 321.065 254.212 319.543 254.732 316.498H256.211C255.404 320.696 252.948 322.795 248.843 322.795C246.369 322.795 244.397 322.074 242.927 320.633C242.048 319.768 241.376 318.678 240.91 317.362C240.444 316.047 240.211 314.588 240.211 312.984C240.211 311.164 240.507 309.516 241.098 308.038C241.69 306.561 242.524 305.381 243.599 304.498C244.962 303.362 246.763 302.795 249.004 302.795C250.116 302.795 251.021 302.939 251.72 303.227C252.419 303.516 253.11 304.029 253.791 304.768L254.329 303.065H255.808V309.038H254.167C253.916 307.453 253.334 306.263 252.419 305.471C251.523 304.66 250.304 304.254 248.762 304.254Z" stroke="black"/>
<path d="M330.762 304.254C329.884 304.254 329.131 304.39 328.503 304.66C327.894 304.93 327.374 305.353 326.944 305.93C326.406 306.633 325.985 307.561 325.68 308.714C325.375 309.849 325.223 311.101 325.223 312.471C325.223 313.75 325.357 314.948 325.626 316.065C325.895 317.182 326.271 318.119 326.755 318.876C327.24 319.633 327.822 320.191 328.503 320.552C329.203 320.894 330.072 321.065 331.112 321.065C334.339 321.065 336.212 319.543 336.732 316.498H338.211C337.404 320.696 334.948 322.795 330.843 322.795C328.369 322.795 326.397 322.074 324.927 320.633C324.048 319.768 323.376 318.678 322.91 317.362C322.444 316.047 322.211 314.588 322.211 312.984C322.211 311.164 322.507 309.516 323.098 308.038C323.69 306.561 324.524 305.381 325.599 304.498C326.962 303.362 328.763 302.795 331.004 302.795C332.116 302.795 333.021 302.939 333.72 303.227C334.419 303.516 335.11 304.029 335.791 304.768L336.329 303.065H337.808V309.038H336.167C335.916 307.453 335.334 306.263 334.419 305.471C333.523 304.66 332.304 304.254 330.762 304.254Z" fill="white"/>
<path d="M330.762 304.254C329.884 304.254 329.131 304.39 328.503 304.66C327.894 304.93 327.374 305.353 326.944 305.93C326.406 306.633 325.985 307.561 325.68 308.714C325.375 309.849 325.223 311.101 325.223 312.471C325.223 313.75 325.357 314.948 325.626 316.065C325.895 317.182 326.271 318.119 326.755 318.876C327.24 319.633 327.822 320.191 328.503 320.552C329.203 320.894 330.072 321.065 331.112 321.065C334.339 321.065 336.212 319.543 336.732 316.498H338.211C337.404 320.696 334.948 322.795 330.843 322.795C328.369 322.795 326.397 322.074 324.927 320.633C324.048 319.768 323.376 318.678 322.91 317.362C322.444 316.047 322.211 314.588 322.211 312.984C322.211 311.164 322.507 309.516 323.098 308.038C323.69 306.561 324.524 305.381 325.599 304.498C326.962 303.362 328.763 302.795 331.004 302.795C332.116 302.795 333.021 302.939 333.72 303.227C334.419 303.516 335.11 304.029 335.791 304.768L336.329 303.065H337.808V309.038H336.167C335.916 307.453 335.334 306.263 334.419 305.471C333.523 304.66 332.304 304.254 330.762 304.254Z" stroke="black"/>
<path d="M253.072 391.484V407.106L255.211 407.66V408.795H248.388V407.66L250.526 407.106V399.796H241.896V407.106L244.034 407.66V408.795H237.211V407.66L239.35 407.106V391.484L237.211 390.93V389.795H244.034V390.93L241.896 391.484V398.266H250.526V391.484L248.388 390.93V389.795H255.211V390.93L253.072 391.484Z" fill="#5C48FD"/>
<path d="M253.072 391.484V407.106L255.211 407.66V408.795H248.388V407.66L250.526 407.106V399.796H241.896V407.106L244.034 407.66V408.795H237.211V407.66L239.35 407.106V391.484L237.211 390.93V389.795H244.034V390.93L241.896 391.484V398.266H250.526V391.484L248.388 390.93V389.795H255.211V390.93L253.072 391.484Z" stroke="black"/>
<path d="M335.072 391.484V407.106L337.211 407.66V408.795H330.388V407.66L332.526 407.106V399.796H323.896V407.106L326.034 407.66V408.795H319.211V407.66L321.35 407.106V391.484L319.211 390.93V389.795H326.034V390.93L323.896 391.484V398.266H332.526V391.484L330.388 390.93V389.795H337.211V390.93L335.072 391.484Z" fill="white"/>
<path d="M335.072 391.484V407.106L337.211 407.66V408.795H330.388V407.66L332.526 407.106V399.796H323.896V407.106L326.034 407.66V408.795H319.211V407.66L321.35 407.106V391.484L319.211 390.93V389.795H326.034V390.93L323.896 391.484V398.266H332.526V391.484L330.388 390.93V389.795H337.211V390.93L335.072 391.484Z" stroke="black"/>
<path d="M171.54 304.472V319.989L173.742 320.54V321.667H166.718V320.54L168.919 319.989V312.729H160.034V319.989L162.235 320.54V321.667H155.211V320.54L157.413 319.989V304.472L155.211 303.922V302.795H162.235V303.922L160.034 304.472V311.209H168.919V304.472L166.718 303.922V302.795H173.742V303.922L171.54 304.472Z" fill="#5C48FD"/>
<path d="M171.54 304.472V319.989L173.742 320.54V321.667H166.718V320.54L168.919 319.989V312.729H160.034V319.989L162.235 320.54V321.667H155.211V320.54L157.413 319.989V304.472L155.211 303.922V302.795H162.235V303.922L160.034 304.472V311.209H168.919V304.472L166.718 303.922V302.795H173.742V303.922L171.54 304.472Z" stroke="black"/>
<path d="M254.54 218.472V226.231V233.989L256.742 234.54V235.667H249.718V234.54L251.919 233.989V226.729H243.034V233.989L245.235 234.54V235.667H238.211V234.54L240.413 233.989V218.472L238.211 217.922V216.795H245.235V217.922L243.034 218.472V225.209H251.919V218.472L249.718 217.922V216.795H256.742V217.922L254.54 218.472Z" fill="#5C48FD"/>
<path d="M254.54 218.472V226.231V233.989L256.742 234.54V235.667H249.718V234.54L251.919 233.989V226.729H243.034V233.989L245.235 234.54V235.667H238.211V234.54L240.413 233.989V218.472L238.211 217.922V216.795H245.235V217.922L243.034 218.472V225.209H251.919V218.472L249.718 217.922V216.795H256.742V217.922L254.54 218.472Z" stroke="black"/>
<path d="M336.54 218.472V226.231V233.989L338.742 234.54V235.667H331.718V234.54L333.919 233.989V226.729H325.034V233.989L327.235 234.54V235.667H320.211V234.54L322.413 233.989V218.472L320.211 217.922V216.795H327.235V217.922L325.034 218.472V225.209H333.919V218.472L331.718 217.922V216.795H338.742V217.922L336.54 218.472Z" fill="white"/>
<path d="M336.54 218.472V226.231V233.989L338.742 234.54V235.667H331.718V234.54L333.919 233.989V226.729H325.034V233.989L327.235 234.54V235.667H320.211V234.54L322.413 233.989V218.472L320.211 217.922V216.795H327.235V217.922L325.034 218.472V225.209H333.919V218.472L331.718 217.922V216.795H338.742V217.922L336.54 218.472Z" stroke="black"/>
<line x1="247.711" y1="365.383" x2="247.711" y2="346.796" stroke="#5C48FD" stroke-width="3"/>
<line x1="329.711" y1="365.383" x2="329.711" y2="346.796" stroke="white" stroke-width="3"/>
<line x1="247.711" y1="259.795" x2="247.711" y2="278.795" stroke="#5C48FD" stroke-width="3"/>
<line x1="329.711" y1="259.795" x2="329.711" y2="278.795" stroke="white" stroke-width="3"/>
<line x1="197.742" y1="311.295" x2="216.329" y2="311.295" stroke="#5C48FD" stroke-width="3"/>
<line x1="279.926" y1="311.295" x2="298.513" y2="311.295" stroke="white" stroke-width="3"/>
<line x1="362.109" y1="311.295" x2="380.696" y2="311.295" stroke="white" stroke-width="3"/>
<line x1="445.943" y1="311.295" x2="464.53" y2="311.295" stroke="white" stroke-width="3"/>
<path d="M855.113 143.274C855.699 142.688 855.699 141.738 855.113 141.152L845.567 131.606C844.982 131.021 844.032 131.021 843.446 131.606C842.86 132.192 842.86 133.142 843.446 133.728L851.931 142.213L843.446 150.698C842.86 151.284 842.86 152.234 843.446 152.819C844.032 153.405 844.982 153.405 845.567 152.819L855.113 143.274ZM249.211 143.713H854.053V140.713H249.211V143.713Z" fill="#5C48FD"/>
<path d="M894.245 127.987C892.904 127.987 891.755 128.198 890.798 128.619C889.868 129.04 889.074 129.7 888.418 130.599C887.597 131.694 886.954 133.14 886.489 134.937C886.024 136.706 885.791 138.657 885.791 140.791C885.791 142.785 885.997 144.652 886.407 146.393C886.817 148.134 887.392 149.594 888.131 150.773C888.869 151.953 889.758 152.823 890.798 153.385C891.865 153.918 893.192 154.185 894.778 154.185C899.703 154.185 902.562 151.812 903.355 147.067H905.612C904.381 153.609 900.633 156.88 894.368 156.88C890.593 156.88 887.583 155.757 885.34 153.511C883.999 152.163 882.974 150.464 882.262 148.415C881.551 146.365 881.195 144.09 881.195 141.591C881.195 138.756 881.647 136.186 882.55 133.884C883.452 131.581 884.724 129.742 886.366 128.366C888.445 126.597 891.195 125.713 894.614 125.713C896.31 125.713 897.692 125.938 898.759 126.387C899.826 126.836 900.879 127.636 901.919 128.788L902.74 126.134H904.997V135.442H902.493C902.11 132.971 901.221 131.118 899.826 129.883C898.458 128.619 896.598 127.987 894.245 127.987Z" fill="#5C48FD"/>
<path d="M934.608 128.83V153.764L938.055 154.648V156.459H927.058V154.648L930.505 153.764V142.097H916.593V153.764L920.04 154.648V156.459H909.043V154.648L912.49 153.764V128.83L909.043 127.945V126.134H920.04V127.945L916.593 128.83V139.654H930.505V128.83L927.058 127.945V126.134H938.055V127.945L934.608 128.83Z" fill="#5C48FD"/>
<path d="M950.602 146.393C950.602 147.235 950.356 147.937 949.863 148.499C949.371 149.032 948.687 149.369 947.811 149.51V149.678C949.808 150.071 950.807 151.152 950.807 152.921C950.807 154.101 950.383 155.055 949.535 155.785C948.687 156.515 947.579 156.88 946.211 156.88C944.952 156.88 943.926 156.557 943.133 155.912C942.367 155.266 941.984 154.409 941.984 153.342C941.984 152.781 942.08 152.374 942.271 152.121C942.49 151.84 942.818 151.7 943.256 151.7C943.612 151.7 943.885 151.812 944.077 152.037C944.296 152.233 944.405 152.514 944.405 152.879C944.405 153.244 944.309 153.525 944.118 153.722C943.926 153.918 943.68 154.016 943.379 154.016C943.489 154.494 943.749 154.873 944.159 155.154C944.597 155.406 945.171 155.533 945.883 155.533C946.758 155.533 947.401 155.35 947.811 154.985C948.249 154.592 948.468 154.002 948.468 153.216C948.468 152.318 948.181 151.602 947.606 151.068C947.059 150.535 946.293 150.268 945.308 150.268V149.004C946.238 149.004 946.991 148.752 947.565 148.246C948.14 147.713 948.427 147.025 948.427 146.182C948.427 145.508 948.222 145.003 947.811 144.666C947.401 144.301 946.799 144.119 946.006 144.119C945.322 144.119 944.747 144.245 944.282 144.498C943.817 144.75 943.543 145.087 943.461 145.508C943.844 145.508 944.145 145.607 944.364 145.803C944.583 146 944.692 146.281 944.692 146.646C944.692 147.011 944.583 147.306 944.364 147.53C944.145 147.727 943.858 147.825 943.502 147.825C943.065 147.825 942.723 147.685 942.476 147.404C942.258 147.095 942.148 146.674 942.148 146.14C942.148 145.157 942.531 144.371 943.297 143.782C944.063 143.164 945.075 142.855 946.334 142.855C947.62 142.855 948.646 143.178 949.412 143.824C950.205 144.47 950.602 145.326 950.602 146.393Z" fill="#5C48FD"/>
<path d="M250.127 141.297L250.127 189.881" stroke="#5C48FD" stroke-width="3"/>
<g filter="url(#filter0_d_854_9570)">
<path d="M728.711 639.746L793.143 639.795H808.882L811.659 622.195V535.366L813.511 530.286V487.795V525.205L815.362 522.896L816.751 639.795H824.158H828.324H896.835M143.211 639.795L682.043 639.746M945.441 639.795H984.326H1023.21" stroke="#C3FA50" stroke-width="3"/>
</g>
<path d="M681.211 639.795L685.29 637.684L686.664 636.308V618.433V579.932L685.29 549.223L686.664 566.182L689.412 569.39V636.308H697.655V593.224V497.888V357.176V470.387L699.945 480.013V555.64V636.308L701.777 628.975L705.441 636.308H708.646L712.769 630.808V346.176V454.804L715.516 633.558L718.722 637.684L721.47 633.558L722.845 630.808L721.938 518.972L722.135 543.264L724.675 621.183V633.558L729.211 639.795" stroke="#C3FA50" stroke-width="3"/>
<path d="M145.045 680.129L1025.04 680.129" stroke="white" stroke-width="2"/>
<line x1="588.354" y1="679.992" x2="588.354" y2="702.263" stroke="white" stroke-width="2"/>
<line x1="411.342" y1="679.992" x2="411.342" y2="702.263" stroke="white" stroke-width="2"/>
<line x1="234.328" y1="679.992" x2="234.328" y2="702.263" stroke="white" stroke-width="2"/>
<line x1="144.643" y1="678.877" x2="144.643" y2="701.148" stroke="white" stroke-width="2"/>
<line x1="855.053" y1="679.992" x2="855.053" y2="702.263" stroke="white" stroke-width="2"/>
<line x1="678.039" y1="679.992" x2="678.039" y2="702.263" stroke="white" stroke-width="2"/>
<line x1="501.027" y1="679.992" x2="501.027" y2="702.263" stroke="white" stroke-width="2"/>
<line x1="322.836" y1="679.992" x2="322.836" y2="702.263" stroke="white" stroke-width="2"/>
<line x1="944.738" y1="679.992" x2="944.738" y2="702.263" stroke="white" stroke-width="2"/>
<line x1="1023.8" y1="679.992" x2="1023.8" y2="702.263" stroke="white" stroke-width="2"/>
<line x1="766.547" y1="679.992" x2="766.547" y2="702.263" stroke="white" stroke-width="2"/>
<path d="M223.267 723.335C223.267 724.268 223.487 725.042 223.927 725.655C224.367 726.255 225.074 726.555 226.047 726.555C226.514 726.555 227.021 726.402 227.567 726.095C228.127 725.788 228.654 725.295 229.147 724.615C229.067 723.268 228.754 722.182 228.207 721.355C227.674 720.528 226.887 720.115 225.847 720.115C225.367 720.115 224.927 720.262 224.527 720.555C224.141 720.835 223.834 721.215 223.607 721.695C223.381 722.175 223.267 722.722 223.267 723.335ZM225.347 732.615C224.761 732.615 224.241 732.502 223.787 732.275C223.347 732.048 222.967 731.748 222.647 731.375L223.187 730.775C223.467 731.122 223.794 731.388 224.167 731.575C224.554 731.748 224.954 731.835 225.367 731.835C226.047 731.835 226.674 731.635 227.247 731.235C227.821 730.835 228.281 730.175 228.627 729.255C228.987 728.335 229.167 727.095 229.167 725.535C228.727 726.068 228.227 726.495 227.667 726.815C227.107 727.135 226.527 727.295 225.927 727.295C224.821 727.295 223.954 726.962 223.327 726.295C222.701 725.615 222.387 724.628 222.387 723.335C222.387 722.562 222.547 721.875 222.867 721.275C223.187 720.675 223.614 720.208 224.147 719.875C224.681 719.528 225.261 719.355 225.887 719.355C227.154 719.355 228.161 719.875 228.907 720.915C229.667 721.942 230.047 723.428 230.047 725.375C230.047 727.162 229.827 728.588 229.387 729.655C228.947 730.708 228.367 731.468 227.647 731.935C226.941 732.388 226.174 732.615 225.347 732.615ZM233.298 732.615C233.084 732.615 232.884 732.535 232.698 732.375C232.524 732.215 232.438 731.995 232.438 731.715C232.438 731.422 232.524 731.195 232.698 731.035C232.884 730.875 233.084 730.795 233.298 730.795C233.524 730.795 233.718 730.875 233.878 731.035C234.051 731.195 234.138 731.422 234.138 731.715C234.138 731.995 234.051 732.215 233.878 732.375C233.718 732.535 233.524 732.615 233.298 732.615ZM240.253 732.615C239.039 732.615 238.099 732.035 237.433 730.875C236.766 729.715 236.433 728.068 236.433 725.935C236.433 723.815 236.766 722.188 237.433 721.055C238.099 719.922 239.039 719.355 240.253 719.355C241.479 719.355 242.419 719.922 243.073 721.055C243.739 722.188 244.073 723.815 244.073 725.935C244.073 728.068 243.739 729.715 243.073 730.875C242.419 732.035 241.479 732.615 240.253 732.615ZM240.253 731.855C241.146 731.855 241.853 731.355 242.373 730.355C242.906 729.355 243.173 727.882 243.173 725.935C243.173 723.988 242.906 722.535 242.373 721.575C241.853 720.602 241.146 720.115 240.253 720.115C239.373 720.115 238.666 720.602 238.133 721.575C237.599 722.535 237.333 723.988 237.333 725.935C237.333 727.882 237.599 729.355 238.133 730.355C238.666 731.355 239.373 731.855 240.253 731.855Z" fill="white"/>
<path d="M128.801 732.375V731.595H131.801V720.995H129.521V720.395C130.041 720.302 130.508 720.188 130.921 720.055C131.334 719.922 131.688 719.768 131.981 719.595H132.701V731.595H135.481V732.375H128.801ZM141.471 732.615C140.258 732.615 139.318 732.035 138.651 730.875C137.985 729.715 137.651 728.068 137.651 725.935C137.651 723.815 137.985 722.188 138.651 721.055C139.318 719.922 140.258 719.355 141.471 719.355C142.698 719.355 143.638 719.922 144.291 721.055C144.958 722.188 145.291 723.815 145.291 725.935C145.291 728.068 144.958 729.715 144.291 730.875C143.638 732.035 142.698 732.615 141.471 732.615ZM141.471 731.855C142.365 731.855 143.071 731.355 143.591 730.355C144.125 729.355 144.391 727.882 144.391 725.935C144.391 723.988 144.125 722.535 143.591 721.575C143.071 720.602 142.365 720.115 141.471 720.115C140.591 720.115 139.885 720.602 139.351 721.575C138.818 722.535 138.551 723.988 138.551 725.935C138.551 727.882 138.818 729.355 139.351 730.355C139.885 731.355 140.591 731.855 141.471 731.855ZM148.462 732.615C148.248 732.615 148.048 732.535 147.862 732.375C147.688 732.215 147.602 731.995 147.602 731.715C147.602 731.422 147.688 731.195 147.862 731.035C148.048 730.875 148.248 730.795 148.462 730.795C148.688 730.795 148.882 730.875 149.042 731.035C149.215 731.195 149.302 731.422 149.302 731.715C149.302 731.995 149.215 732.215 149.042 732.375C148.882 732.535 148.688 732.615 148.462 732.615ZM155.417 732.615C154.203 732.615 153.263 732.035 152.597 730.875C151.93 729.715 151.597 728.068 151.597 725.935C151.597 723.815 151.93 722.188 152.597 721.055C153.263 719.922 154.203 719.355 155.417 719.355C156.643 719.355 157.583 719.922 158.237 721.055C158.903 722.188 159.237 723.815 159.237 725.935C159.237 728.068 158.903 729.715 158.237 730.875C157.583 732.035 156.643 732.615 155.417 732.615ZM155.417 731.855C156.31 731.855 157.017 731.355 157.537 730.355C158.07 729.355 158.337 727.882 158.337 725.935C158.337 723.988 158.07 722.535 157.537 721.575C157.017 720.602 156.31 720.115 155.417 720.115C154.537 720.115 153.83 720.602 153.297 721.575C152.763 722.535 152.497 723.988 152.497 725.935C152.497 727.882 152.763 729.355 153.297 730.355C153.83 731.355 154.537 731.855 155.417 731.855Z" fill="white"/>
<path d="M316.073 731.502C315.3 731.502 314.606 731.348 313.993 731.042C313.38 730.735 312.893 730.315 312.533 729.782C312.186 729.248 312.013 728.648 312.013 727.982C312.013 727.408 312.14 726.888 312.393 726.422C312.66 725.955 312.986 725.555 313.373 725.222C313.773 724.875 314.173 724.595 314.573 724.382V724.302C314.106 723.995 313.68 723.602 313.293 723.122C312.92 722.628 312.733 722.042 312.733 721.362C312.733 720.748 312.88 720.208 313.173 719.742C313.48 719.275 313.886 718.908 314.393 718.642C314.9 718.375 315.46 718.242 316.073 718.242C317.166 718.242 318.013 718.562 318.613 719.202C319.226 719.828 319.533 720.622 319.533 721.582C319.533 722.048 319.433 722.495 319.233 722.922C319.033 723.335 318.793 723.708 318.513 724.042C318.233 724.362 317.966 724.622 317.713 724.822V724.902C318.086 725.128 318.44 725.388 318.773 725.682C319.12 725.962 319.4 726.302 319.613 726.702C319.84 727.102 319.953 727.588 319.953 728.162C319.953 728.775 319.786 729.335 319.453 729.842C319.133 730.348 318.68 730.755 318.093 731.062C317.52 731.355 316.846 731.502 316.073 731.502ZM317.013 724.562C317.56 724.122 317.973 723.655 318.253 723.162C318.546 722.668 318.693 722.148 318.693 721.602C318.693 720.895 318.46 720.282 317.993 719.762C317.54 719.242 316.9 718.982 316.073 718.982C315.366 718.982 314.78 719.208 314.313 719.662C313.846 720.102 313.613 720.668 313.613 721.362C313.613 721.962 313.78 722.462 314.113 722.862C314.446 723.248 314.873 723.575 315.393 723.842C315.913 724.095 316.453 724.335 317.013 724.562ZM316.073 730.762C316.98 730.762 317.7 730.508 318.233 730.002C318.78 729.495 319.053 728.875 319.053 728.142C319.053 727.488 318.866 726.962 318.493 726.562C318.12 726.148 317.633 725.802 317.033 725.522C316.446 725.242 315.82 724.975 315.153 724.722C314.5 725.095 313.96 725.548 313.533 726.082C313.106 726.615 312.893 727.235 312.893 727.942C312.893 728.475 313.026 728.955 313.293 729.382C313.573 729.795 313.953 730.128 314.433 730.382C314.913 730.635 315.46 730.762 316.073 730.762ZM322.983 731.502C322.77 731.502 322.57 731.422 322.383 731.262C322.21 731.102 322.123 730.882 322.123 730.602C322.123 730.308 322.21 730.082 322.383 729.922C322.57 729.762 322.77 729.682 322.983 729.682C323.21 729.682 323.403 729.762 323.563 729.922C323.737 730.082 323.823 730.308 323.823 730.602C323.823 730.882 323.737 731.102 323.563 731.262C323.403 731.422 323.21 731.502 322.983 731.502ZM329.938 731.502C328.725 731.502 327.785 730.922 327.118 729.762C326.452 728.602 326.118 726.955 326.118 724.822C326.118 722.702 326.452 721.075 327.118 719.942C327.785 718.808 328.725 718.242 329.938 718.242C331.165 718.242 332.105 718.808 332.758 719.942C333.425 721.075 333.758 722.702 333.758 724.822C333.758 726.955 333.425 728.602 332.758 729.762C332.105 730.922 331.165 731.502 329.938 731.502ZM329.938 730.742C330.832 730.742 331.538 730.242 332.058 729.242C332.592 728.242 332.858 726.768 332.858 724.822C332.858 722.875 332.592 721.422 332.058 720.462C331.538 719.488 330.832 719.002 329.938 719.002C329.058 719.002 328.352 719.488 327.818 720.462C327.285 721.422 327.018 722.875 327.018 724.822C327.018 726.768 327.285 728.242 327.818 729.242C328.352 730.242 329.058 730.742 329.938 730.742Z" fill="white"/>
<path d="M404.66 731.262C404.727 729.542 404.9 728.002 405.18 726.642C405.46 725.282 405.874 724.015 406.42 722.842C406.967 721.655 407.667 720.462 408.52 719.262H401.78V718.482H409.64V719.002C408.88 720.015 408.247 720.995 407.74 721.942C407.247 722.875 406.854 723.822 406.56 724.782C406.267 725.742 406.047 726.748 405.9 727.802C405.767 728.855 405.674 730.008 405.62 731.262H404.66ZM412.671 731.502C412.457 731.502 412.257 731.422 412.071 731.262C411.897 731.102 411.811 730.882 411.811 730.602C411.811 730.308 411.897 730.082 412.071 729.922C412.257 729.762 412.457 729.682 412.671 729.682C412.897 729.682 413.091 729.762 413.251 729.922C413.424 730.082 413.511 730.308 413.511 730.602C413.511 730.882 413.424 731.102 413.251 731.262C413.091 731.422 412.897 731.502 412.671 731.502ZM419.626 731.502C418.412 731.502 417.472 730.922 416.806 729.762C416.139 728.602 415.806 726.955 415.806 724.822C415.806 722.702 416.139 721.075 416.806 719.942C417.472 718.808 418.412 718.242 419.626 718.242C420.852 718.242 421.792 718.808 422.446 719.942C423.112 721.075 423.446 722.702 423.446 724.822C423.446 726.955 423.112 728.602 422.446 729.762C421.792 730.922 420.852 731.502 419.626 731.502ZM419.626 730.742C420.519 730.742 421.226 730.242 421.746 729.242C422.279 728.242 422.546 726.768 422.546 724.822C422.546 722.875 422.279 721.422 421.746 720.462C421.226 719.488 420.519 719.002 419.626 719.002C418.746 719.002 418.039 719.488 417.506 720.462C416.972 721.422 416.706 722.875 416.706 724.822C416.706 726.768 416.972 728.242 417.506 729.242C418.039 730.242 418.746 730.742 419.626 730.742Z" fill="white"/>
<path d="M493.287 724.302C492.833 724.302 492.333 724.448 491.787 724.742C491.24 725.022 490.707 725.515 490.187 726.222C490.267 727.568 490.573 728.662 491.107 729.502C491.64 730.328 492.427 730.742 493.467 730.742C493.96 730.742 494.4 730.602 494.787 730.322C495.173 730.028 495.48 729.642 495.707 729.162C495.933 728.668 496.047 728.115 496.047 727.502C496.047 726.582 495.827 725.822 495.387 725.222C494.96 724.608 494.26 724.302 493.287 724.302ZM493.447 731.502C492.167 731.502 491.147 730.982 490.387 729.942C489.64 728.888 489.267 727.395 489.267 725.462C489.267 724.115 489.393 722.982 489.647 722.062C489.9 721.142 490.247 720.402 490.687 719.842C491.127 719.282 491.627 718.875 492.187 718.622C492.76 718.368 493.353 718.242 493.967 718.242C494.567 718.242 495.08 718.355 495.507 718.582C495.947 718.808 496.333 719.108 496.667 719.482L496.127 720.082C495.847 719.735 495.52 719.475 495.147 719.302C494.773 719.115 494.38 719.022 493.967 719.022C493.287 719.022 492.653 719.222 492.067 719.622C491.493 720.022 491.033 720.682 490.687 721.602C490.34 722.522 490.167 723.762 490.167 725.322C490.607 724.775 491.107 724.342 491.667 724.022C492.227 723.702 492.8 723.542 493.387 723.542C494.507 723.542 495.38 723.882 496.007 724.562C496.633 725.228 496.947 726.208 496.947 727.502C496.947 728.275 496.787 728.962 496.467 729.562C496.147 730.162 495.72 730.635 495.187 730.982C494.667 731.328 494.087 731.502 493.447 731.502ZM499.997 731.502C499.784 731.502 499.584 731.422 499.397 731.262C499.224 731.102 499.137 730.882 499.137 730.602C499.137 730.308 499.224 730.082 499.397 729.922C499.584 729.762 499.784 729.682 499.997 729.682C500.224 729.682 500.417 729.762 500.577 729.922C500.75 730.082 500.837 730.308 500.837 730.602C500.837 730.882 500.75 731.102 500.577 731.262C500.417 731.422 500.224 731.502 499.997 731.502ZM506.952 731.502C505.739 731.502 504.799 730.922 504.132 729.762C503.465 728.602 503.132 726.955 503.132 724.822C503.132 722.702 503.465 721.075 504.132 719.942C504.799 718.808 505.739 718.242 506.952 718.242C508.179 718.242 509.119 718.808 509.772 719.942C510.439 721.075 510.772 722.702 510.772 724.822C510.772 726.955 510.439 728.602 509.772 729.762C509.119 730.922 508.179 731.502 506.952 731.502ZM506.952 730.742C507.845 730.742 508.552 730.242 509.072 729.242C509.605 728.242 509.872 726.768 509.872 724.822C509.872 722.875 509.605 721.422 509.072 720.462C508.552 719.488 507.845 719.002 506.952 719.002C506.072 719.002 505.365 719.488 504.832 720.462C504.299 721.422 504.032 722.875 504.032 724.822C504.032 726.768 504.299 728.242 504.832 729.242C505.365 730.242 506.072 730.742 506.952 730.742Z" fill="white"/>
<path d="M580.093 731.502C579.413 731.502 578.819 731.415 578.313 731.242C577.819 731.068 577.393 730.848 577.033 730.582C576.673 730.315 576.353 730.048 576.073 729.782L576.573 729.162C576.959 729.548 577.419 729.908 577.953 730.242C578.499 730.562 579.206 730.722 580.073 730.722C580.646 730.722 581.173 730.582 581.653 730.302C582.133 730.008 582.519 729.602 582.813 729.082C583.106 728.562 583.253 727.962 583.253 727.282C583.253 726.255 582.966 725.448 582.393 724.862C581.833 724.275 581.079 723.982 580.133 723.982C579.639 723.982 579.213 724.062 578.853 724.222C578.506 724.368 578.139 724.575 577.753 724.842L577.133 724.462L577.593 718.482H583.493V719.262H578.393L577.993 723.882C578.326 723.682 578.673 723.522 579.033 723.402C579.393 723.268 579.806 723.202 580.273 723.202C580.993 723.202 581.646 723.348 582.233 723.642C582.833 723.922 583.306 724.362 583.653 724.962C583.999 725.548 584.173 726.308 584.173 727.242C584.173 728.148 583.973 728.922 583.573 729.562C583.186 730.188 582.679 730.668 582.053 731.002C581.439 731.335 580.786 731.502 580.093 731.502ZM587.323 731.502C587.11 731.502 586.91 731.422 586.723 731.262C586.55 731.102 586.463 730.882 586.463 730.602C586.463 730.308 586.55 730.082 586.723 729.922C586.91 729.762 587.11 729.682 587.323 729.682C587.55 729.682 587.743 729.762 587.903 729.922C588.076 730.082 588.163 730.308 588.163 730.602C588.163 730.882 588.076 731.102 587.903 731.262C587.743 731.422 587.55 731.502 587.323 731.502ZM594.278 731.502C593.065 731.502 592.125 730.922 591.458 729.762C590.791 728.602 590.458 726.955 590.458 724.822C590.458 722.702 590.791 721.075 591.458 719.942C592.125 718.808 593.065 718.242 594.278 718.242C595.505 718.242 596.445 718.808 597.098 719.942C597.765 721.075 598.098 722.702 598.098 724.822C598.098 726.955 597.765 728.602 597.098 729.762C596.445 730.922 595.505 731.502 594.278 731.502ZM594.278 730.742C595.171 730.742 595.878 730.242 596.398 729.242C596.931 728.242 597.198 726.768 597.198 724.822C597.198 722.875 596.931 721.422 596.398 720.462C595.878 719.488 595.171 719.002 594.278 719.002C593.398 719.002 592.691 719.488 592.158 720.462C591.625 721.422 591.358 722.875 591.358 724.822C591.358 726.768 591.625 728.242 592.158 729.242C592.691 730.242 593.398 730.742 594.278 730.742Z" fill="white"/>
<path d="M666.638 726.682H671.438V722.002C671.438 721.708 671.445 721.342 671.458 720.902C671.485 720.462 671.505 720.095 671.518 719.802H671.438C671.278 720.068 671.112 720.328 670.938 720.582C670.765 720.835 670.585 721.108 670.398 721.402L666.638 726.682ZM671.438 731.262V727.442H665.558V726.922L671.498 718.482H672.298V726.682H674.198V727.442H672.298V731.262H671.438ZM677.009 731.502C676.795 731.502 676.595 731.422 676.409 731.262C676.235 731.102 676.149 730.882 676.149 730.602C676.149 730.308 676.235 730.082 676.409 729.922C676.595 729.762 676.795 729.682 677.009 729.682C677.235 729.682 677.429 729.762 677.589 729.922C677.762 730.082 677.849 730.308 677.849 730.602C677.849 730.882 677.762 731.102 677.589 731.262C677.429 731.422 677.235 731.502 677.009 731.502ZM683.964 731.502C682.75 731.502 681.81 730.922 681.144 729.762C680.477 728.602 680.144 726.955 680.144 724.822C680.144 722.702 680.477 721.075 681.144 719.942C681.81 718.808 682.75 718.242 683.964 718.242C685.19 718.242 686.13 718.808 686.784 719.942C687.45 721.075 687.784 722.702 687.784 724.822C687.784 726.955 687.45 728.602 686.784 729.762C686.13 730.922 685.19 731.502 683.964 731.502ZM683.964 730.742C684.857 730.742 685.564 730.242 686.084 729.242C686.617 728.242 686.884 726.768 686.884 724.822C686.884 722.875 686.617 721.422 686.084 720.462C685.564 719.488 684.857 719.002 683.964 719.002C683.084 719.002 682.377 719.488 681.844 720.462C681.31 721.422 681.044 722.875 681.044 724.822C681.044 726.768 681.31 728.242 681.844 729.242C682.377 730.242 683.084 730.742 683.964 730.742Z" fill="white"/>
<path d="M757.204 731.502C756.524 731.502 755.931 731.415 755.424 731.242C754.918 731.055 754.478 730.822 754.104 730.542C753.744 730.262 753.424 729.982 753.144 729.702L753.664 729.082C754.051 729.495 754.518 729.875 755.064 730.222C755.611 730.555 756.324 730.722 757.204 730.722C758.071 730.722 758.784 730.468 759.344 729.962C759.904 729.442 760.184 728.755 760.184 727.902C760.184 727.022 759.838 726.308 759.144 725.762C758.464 725.215 757.324 724.942 755.724 724.942V724.162C756.711 724.162 757.498 724.042 758.084 723.802C758.671 723.548 759.091 723.208 759.344 722.782C759.598 722.355 759.724 721.888 759.724 721.382C759.724 720.662 759.491 720.088 759.024 719.662C758.558 719.222 757.931 719.002 757.144 719.002C756.558 719.002 756.011 719.142 755.504 719.422C755.011 719.688 754.578 720.015 754.204 720.402L753.684 719.802C754.124 719.375 754.624 719.008 755.184 718.702C755.758 718.395 756.411 718.242 757.144 718.242C757.811 718.242 758.404 718.362 758.924 718.602C759.458 718.842 759.878 719.195 760.184 719.662C760.491 720.115 760.644 720.668 760.644 721.322C760.644 722.162 760.411 722.842 759.944 723.362C759.491 723.868 758.911 724.242 758.204 724.482V724.562C758.738 724.668 759.218 724.875 759.644 725.182C760.084 725.475 760.438 725.848 760.704 726.302C760.971 726.755 761.104 727.282 761.104 727.882C761.104 728.615 760.931 729.255 760.584 729.802C760.238 730.348 759.771 730.768 759.184 731.062C758.598 731.355 757.938 731.502 757.204 731.502ZM764.335 731.502C764.121 731.502 763.921 731.422 763.735 731.262C763.561 731.102 763.475 730.882 763.475 730.602C763.475 730.308 763.561 730.082 763.735 729.922C763.921 729.762 764.121 729.682 764.335 729.682C764.561 729.682 764.755 729.762 764.915 729.922C765.088 730.082 765.175 730.308 765.175 730.602C765.175 730.882 765.088 731.102 764.915 731.262C764.755 731.422 764.561 731.502 764.335 731.502ZM771.29 731.502C770.076 731.502 769.136 730.922 768.47 729.762C767.803 728.602 767.47 726.955 767.47 724.822C767.47 722.702 767.803 721.075 768.47 719.942C769.136 718.808 770.076 718.242 771.29 718.242C772.516 718.242 773.456 718.808 774.11 719.942C774.776 721.075 775.11 722.702 775.11 724.822C775.11 726.955 774.776 728.602 774.11 729.762C773.456 730.922 772.516 731.502 771.29 731.502ZM771.29 730.742C772.183 730.742 772.89 730.242 773.41 729.242C773.943 728.242 774.21 726.768 774.21 724.822C774.21 722.875 773.943 721.422 773.41 720.462C772.89 719.488 772.183 719.002 771.29 719.002C770.41 719.002 769.703 719.488 769.17 720.462C768.636 721.422 768.37 722.875 768.37 724.822C768.37 726.768 768.636 728.242 769.17 729.242C769.703 730.242 770.41 730.742 771.29 730.742Z" fill="white"/>
<path d="M843.072 731.262V730.702C844.472 729.275 845.639 728.042 846.572 727.002C847.505 725.948 848.205 725.008 848.672 724.182C849.139 723.355 849.372 722.575 849.372 721.842C849.372 721.042 849.145 720.368 848.692 719.822C848.252 719.275 847.552 719.002 846.592 719.002C846.019 719.002 845.472 719.162 844.952 719.482C844.445 719.802 843.999 720.202 843.612 720.682L843.032 720.122C843.512 719.588 844.045 719.142 844.632 718.782C845.219 718.422 845.899 718.242 846.672 718.242C847.819 718.242 848.705 718.568 849.332 719.222C849.959 719.875 850.272 720.742 850.272 721.822C850.272 722.662 850.025 723.515 849.532 724.382C849.052 725.248 848.372 726.182 847.492 727.182C846.625 728.182 845.599 729.308 844.412 730.562C844.759 730.535 845.112 730.515 845.472 730.502C845.845 730.475 846.205 730.462 846.552 730.462H850.912V731.262H843.072ZM854.022 731.502C853.809 731.502 853.609 731.422 853.422 731.262C853.249 731.102 853.162 730.882 853.162 730.602C853.162 730.308 853.249 730.082 853.422 729.922C853.609 729.762 853.809 729.682 854.022 729.682C854.249 729.682 854.442 729.762 854.602 729.922C854.776 730.082 854.862 730.308 854.862 730.602C854.862 730.882 854.776 731.102 854.602 731.262C854.442 731.422 854.249 731.502 854.022 731.502ZM860.977 731.502C859.764 731.502 858.824 730.922 858.157 729.762C857.491 728.602 857.157 726.955 857.157 724.822C857.157 722.702 857.491 721.075 858.157 719.942C858.824 718.808 859.764 718.242 860.977 718.242C862.204 718.242 863.144 718.808 863.797 719.942C864.464 721.075 864.797 722.702 864.797 724.822C864.797 726.955 864.464 728.602 863.797 729.762C863.144 730.922 862.204 731.502 860.977 731.502ZM860.977 730.742C861.871 730.742 862.577 730.242 863.097 729.242C863.631 728.242 863.897 726.768 863.897 724.822C863.897 722.875 863.631 721.422 863.097 720.462C862.577 719.488 861.871 719.002 860.977 719.002C860.097 719.002 859.391 719.488 858.857 720.462C858.324 721.422 858.057 722.875 858.057 724.822C858.057 726.768 858.324 728.242 858.857 729.242C859.391 730.242 860.097 730.742 860.977 730.742Z" fill="white"/>
<path d="M938.338 731.262V730.482H941.338V719.882H939.058V719.282C939.578 719.188 940.045 719.075 940.458 718.942C940.872 718.808 941.225 718.655 941.518 718.482H942.238V730.482H945.018V731.262H938.338ZM948.429 731.502C948.215 731.502 948.015 731.422 947.829 731.262C947.655 731.102 947.569 730.882 947.569 730.602C947.569 730.308 947.655 730.082 947.829 729.922C948.015 729.762 948.215 729.682 948.429 729.682C948.655 729.682 948.849 729.762 949.009 729.922C949.182 730.082 949.269 730.308 949.269 730.602C949.269 730.882 949.182 731.102 949.009 731.262C948.849 731.422 948.655 731.502 948.429 731.502ZM955.384 731.502C954.17 731.502 953.23 730.922 952.564 729.762C951.897 728.602 951.564 726.955 951.564 724.822C951.564 722.702 951.897 721.075 952.564 719.942C953.23 718.808 954.17 718.242 955.384 718.242C956.61 718.242 957.55 718.808 958.204 719.942C958.87 721.075 959.204 722.702 959.204 724.822C959.204 726.955 958.87 728.602 958.204 729.762C957.55 730.922 956.61 731.502 955.384 731.502ZM955.384 730.742C956.277 730.742 956.984 730.242 957.504 729.242C958.037 728.242 958.304 726.768 958.304 724.822C958.304 722.875 958.037 721.422 957.504 720.462C956.984 719.488 956.277 719.002 955.384 719.002C954.504 719.002 953.797 719.488 953.264 720.462C952.73 721.422 952.464 722.875 952.464 724.822C952.464 726.768 952.73 728.242 953.264 729.242C953.797 730.242 954.504 730.742 955.384 730.742Z" fill="white"/>
<path d="M1025.22 731.502C1024.01 731.502 1023.07 730.922 1022.4 729.762C1021.74 728.602 1021.4 726.955 1021.4 724.822C1021.4 722.702 1021.74 721.075 1022.4 719.942C1023.07 718.808 1024.01 718.242 1025.22 718.242C1026.45 718.242 1027.39 718.808 1028.04 719.942C1028.71 721.075 1029.04 722.702 1029.04 724.822C1029.04 726.955 1028.71 728.602 1028.04 729.762C1027.39 730.922 1026.45 731.502 1025.22 731.502ZM1025.22 730.742C1026.12 730.742 1026.82 730.242 1027.34 729.242C1027.88 728.242 1028.14 726.768 1028.14 724.822C1028.14 722.875 1027.88 721.422 1027.34 720.462C1026.82 719.488 1026.12 719.002 1025.22 719.002C1024.34 719.002 1023.64 719.488 1023.1 720.462C1022.57 721.422 1022.3 722.875 1022.3 724.822C1022.3 726.768 1022.57 728.242 1023.1 729.242C1023.64 730.242 1024.34 730.742 1025.22 730.742Z" fill="white"/>
<path d="M897.416 640.722L905.209 618.239V422.993L907.267 625.733L910.149 627.705L913.03 640.722H917.146V627.705L919.204 620.605V577.612M915.088 189.881L919.204 577.612M944.505 640.722H938.138H934.846L931.141 633.227L929.083 449.026L931.141 627.705V631.255L929.083 640.722L927.025 638.75L922.497 636.777V631.255L919.204 577.612" stroke="#5C48FD" stroke-width="3"/>
<path d="M94.6509 82.0349H93.6309L93.2709 79.9949H89.9509L89.9509 85.5949H95.9909L96.6109 82.3349H97.7709L97.7709 86.7949H86.0709L86.0709 85.9349L87.9509 85.5149L87.9509 73.6749L86.0709 73.2549L86.0709 72.3949H97.3309L97.3309 76.6349H96.2909L95.6509 73.5549H89.9509L89.9509 78.7949H93.2709L93.6309 76.7549H94.6509L94.6509 82.0349ZM99.0823 76.9949L99.0823 76.2749L101.022 75.9949L101.282 73.4749L102.962 73.2349L102.962 75.9949H105.522L105.522 76.9949H102.962L102.962 84.1349C102.962 84.5883 102.969 84.9016 102.982 85.0749C102.996 85.2349 103.022 85.3683 103.062 85.4749C103.102 85.5683 103.176 85.6349 103.282 85.6749C103.389 85.7016 103.562 85.7149 103.802 85.7149H105.202L105.202 86.2949C104.562 86.5349 103.996 86.7083 103.502 86.8149C103.022 86.9349 102.636 86.9949 102.342 86.9949C101.742 86.9949 101.356 86.7483 101.182 86.2549C101.129 86.0949 101.089 85.8883 101.062 85.6349C101.036 85.3816 101.022 85.0083 101.022 84.5149L101.022 76.9949H99.0823ZM114.679 85.5949L114.679 81.1349C114.679 80.2683 114.652 79.6216 114.599 79.1949C114.559 78.7683 114.479 78.4349 114.359 78.1949C114.039 77.5416 113.452 77.2149 112.599 77.2149C112.225 77.2149 111.865 77.2816 111.519 77.4149C111.172 77.5483 110.865 77.7283 110.599 77.9549C110.305 78.2083 110.085 78.5149 109.939 78.8749C109.805 79.2216 109.725 79.6549 109.699 80.1749L109.699 85.5949L111.039 85.9749L111.039 86.7949H106.219L106.219 85.9749L107.759 85.5949L107.759 72.3949L106.219 72.0149L106.219 71.1949H109.699L109.699 77.8749C110.099 77.2349 110.625 76.7283 111.279 76.3549C111.945 75.9816 112.659 75.7949 113.419 75.7949C113.952 75.7949 114.432 75.8883 114.859 76.0749C115.285 76.2616 115.625 76.5283 115.879 76.8749C116.145 77.2483 116.332 77.7749 116.439 78.4549C116.559 79.1216 116.619 80.0283 116.619 81.1749L116.619 85.5949L118.159 85.9749L118.159 86.7949H113.339L113.339 85.9749L114.679 85.5949ZM119.35 84.4549C119.35 83.4149 119.837 82.5949 120.81 81.9949C121.783 81.3949 123.397 80.9283 125.65 80.5949C125.597 79.8083 125.523 79.1949 125.43 78.7549C125.337 78.3149 125.217 77.9616 125.07 77.6949C124.883 77.3483 124.623 77.0949 124.29 76.9349C123.957 76.7616 123.597 76.6749 123.21 76.6749C122.837 76.6749 122.497 76.7416 122.19 76.8749C121.897 77.0083 121.697 77.1883 121.59 77.4149C121.777 77.5483 121.91 77.7216 121.99 77.9349C122.083 78.1483 122.13 78.3483 122.13 78.5349C122.13 78.8683 122.017 79.1349 121.79 79.3349C121.577 79.5216 121.31 79.6149 120.99 79.6149C120.67 79.6149 120.403 79.5083 120.19 79.2949C119.99 79.0816 119.89 78.7816 119.89 78.3949C119.89 77.8349 120.083 77.3616 120.47 76.9749C120.857 76.5883 121.343 76.2949 121.93 76.0949C122.53 75.8949 123.13 75.7949 123.73 75.7949C124.277 75.7949 124.777 75.8816 125.23 76.0549C125.697 76.2149 126.09 76.4549 126.41 76.7749C127.237 77.6016 127.65 79.0683 127.65 81.1749L127.65 84.0749C127.65 84.7283 127.69 85.1816 127.77 85.4349C127.863 85.6883 128.057 85.8149 128.35 85.8149H129.25L129.25 86.4149C128.29 86.8016 127.543 86.9949 127.01 86.9949C126.597 86.9949 126.317 86.8483 126.17 86.5549C126.037 86.2483 125.97 85.6683 125.97 84.8149H125.89C125.477 85.4949 124.93 86.0283 124.25 86.4149C123.57 86.8016 122.837 86.9949 122.05 86.9949C121.21 86.9949 120.55 86.7683 120.07 86.3149C119.59 85.8616 119.35 85.2416 119.35 84.4549ZM122.89 85.8349C123.263 85.8349 123.65 85.7416 124.05 85.5549C124.463 85.3549 124.81 85.0816 125.09 84.7349C125.303 84.4683 125.457 84.1549 125.55 83.7949C125.657 83.4216 125.71 82.9883 125.71 82.4949C125.71 82.2683 125.703 82.0483 125.69 81.8349C125.677 81.6083 125.657 81.3949 125.63 81.1949C124.55 81.4083 123.703 81.6416 123.09 81.8949C122.477 82.1349 122.043 82.4283 121.79 82.7749C121.537 83.1083 121.41 83.5283 121.41 84.0349C121.41 84.6083 121.537 85.0549 121.79 85.3749C122.057 85.6816 122.423 85.8349 122.89 85.8349ZM131.592 85.5949L131.592 77.1949L130.052 76.8149L130.052 75.9949H132.932L133.372 77.9949H133.452C133.852 77.3149 134.392 76.7816 135.072 76.3949C135.752 75.9949 136.479 75.7949 137.252 75.7949C138.359 75.7949 139.179 76.1549 139.712 76.8749C139.979 77.2483 140.165 77.7749 140.272 78.4549C140.392 79.1216 140.452 80.0283 140.452 81.1749L140.452 85.5949L141.992 85.9749L141.992 86.7949L137.172 86.7949L137.172 85.9749L138.512 85.5949L138.512 81.1349C138.512 80.2683 138.485 79.6216 138.432 79.1949C138.392 78.7683 138.312 78.4349 138.192 78.1949C138.032 77.8749 137.799 77.6349 137.492 77.4749C137.199 77.3016 136.845 77.2149 136.432 77.2149C135.659 77.2149 134.992 77.4616 134.432 77.9549C133.885 78.4483 133.585 79.2149 133.532 80.2549L133.532 85.5949L134.872 85.9749L134.872 86.7949H130.052L130.052 85.9749L131.592 85.5949ZM153.158 81.2949C153.158 82.1616 153.024 82.9883 152.758 83.7749C152.504 84.5483 152.144 85.1883 151.678 85.6949C151.278 86.1349 150.784 86.4616 150.198 86.6749C149.611 86.8883 148.944 86.9949 148.198 86.9949C147.464 86.9949 146.811 86.8949 146.238 86.6949C145.664 86.4816 145.177 86.1616 144.777 85.7349C144.324 85.2416 143.971 84.6349 143.717 83.9149C143.477 83.1816 143.357 82.3883 143.357 81.5349C143.357 80.6683 143.484 79.8416 143.737 79.0549C143.991 78.2549 144.358 77.6016 144.837 77.0949C145.264 76.6416 145.758 76.3149 146.318 76.1149C146.891 75.9016 147.544 75.7949 148.278 75.7949C149.011 75.7949 149.671 75.9016 150.258 76.1149C150.844 76.3149 151.338 76.6283 151.738 77.0549C152.204 77.5483 152.557 78.1683 152.798 78.9149C153.038 79.6483 153.158 80.4416 153.158 81.2949ZM145.498 81.3149C145.498 82.1283 145.558 82.8349 145.677 83.4349C145.811 84.0216 145.991 84.5083 146.218 84.8949C146.444 85.2283 146.711 85.4883 147.018 85.6749C147.338 85.8616 147.751 85.9549 148.258 85.9549C149.178 85.9549 149.864 85.6416 150.318 85.0149C150.558 84.6683 150.731 84.1883 150.838 83.5749C150.958 82.9616 151.018 82.2549 151.018 81.4549C151.018 80.6549 150.951 79.9549 150.818 79.3549C150.698 78.7549 150.524 78.2683 150.298 77.8949C150.084 77.5483 149.811 77.2883 149.478 77.1149C149.158 76.9283 148.744 76.8349 148.238 76.8349C147.304 76.8349 146.631 77.1416 146.218 77.7549C145.738 78.5016 145.498 79.6883 145.498 81.3149ZM156.178 85.5949L156.178 72.3949L154.638 72.0149L154.638 71.1949H158.118L158.118 85.5949L159.658 85.9749L159.658 86.7949H154.638L154.638 85.9749L156.178 85.5949Z" fill="white"/>
<path d="M115.091 615.055L126.931 615.055L127.351 613.175L128.211 613.175L128.211 618.935L127.351 618.935L126.931 617.055L115.091 617.055L114.671 618.935L113.811 618.935L113.811 613.175L114.671 613.175L115.091 615.055ZM127.011 610.054L118.611 610.054L118.231 611.594L117.411 611.594L117.411 608.714L119.411 608.274L119.411 608.194C118.731 607.794 118.198 607.254 117.811 606.574C117.411 605.894 117.211 605.168 117.211 604.394C117.211 603.288 117.571 602.468 118.291 601.934C118.664 601.668 119.191 601.481 119.871 601.374C120.538 601.254 121.444 601.194 122.591 601.194L127.011 601.194L127.391 599.654L128.211 599.654L128.211 604.474L127.391 604.474L127.011 603.134L122.551 603.134C121.684 603.134 121.038 603.161 120.611 603.214C120.184 603.254 119.851 603.334 119.611 603.454C119.291 603.614 119.051 603.848 118.891 604.154C118.718 604.448 118.631 604.801 118.631 605.214C118.631 605.988 118.878 606.654 119.371 607.214C119.864 607.761 120.631 608.061 121.671 608.114L127.011 608.114L127.391 606.774L128.211 606.774L128.211 611.594L127.391 611.594L127.011 610.054ZM118.411 599.029L117.691 599.029L117.411 597.089L114.891 596.829L114.651 595.149L117.411 595.149L117.411 592.589L118.411 592.589L118.411 595.149L125.551 595.149C126.004 595.149 126.318 595.142 126.491 595.129C126.651 595.116 126.784 595.089 126.891 595.049C126.984 595.009 127.051 594.936 127.091 594.829C127.118 594.722 127.131 594.549 127.131 594.309L127.131 592.909L127.711 592.909C127.951 593.549 128.124 594.116 128.231 594.609C128.351 595.089 128.411 595.476 128.411 595.769C128.411 596.369 128.164 596.756 127.671 596.929C127.511 596.982 127.304 597.022 127.051 597.049C126.798 597.076 126.424 597.089 125.931 597.089L118.411 597.089L118.411 599.029ZM122.931 582.453L122.931 589.433C123.904 589.433 124.711 589.299 125.351 589.033C125.964 588.766 126.404 588.386 126.671 587.893C126.938 587.399 127.071 586.866 127.071 586.293C127.071 585.666 126.944 585.093 126.691 584.573C126.424 584.053 126.064 583.586 125.611 583.173L126.091 582.533C126.731 582.999 127.278 583.566 127.731 584.233C128.184 584.899 128.411 585.759 128.411 586.813C128.411 587.733 128.218 588.546 127.831 589.253C127.431 589.959 126.851 590.499 126.091 590.873C125.678 591.073 125.218 591.219 124.711 591.313C124.204 591.406 123.664 591.453 123.091 591.453C121.224 591.453 119.778 591.026 118.751 590.173C117.724 589.306 117.211 588.133 117.211 586.653C117.211 585.293 117.638 584.246 118.491 583.513C119.331 582.766 120.498 582.393 121.991 582.393C122.124 582.393 122.251 582.399 122.371 582.413C122.478 582.413 122.664 582.426 122.931 582.453ZM118.291 586.773C118.291 588.373 119.511 589.253 121.951 589.413L121.951 584.413L121.291 584.413C120.331 584.413 119.591 584.619 119.071 585.033C118.551 585.433 118.291 586.013 118.291 586.773ZM127.011 579.254L118.611 579.254L118.231 580.794L117.411 580.794L117.411 577.914L119.411 577.474L119.411 577.394C118.731 576.994 118.198 576.454 117.811 575.774C117.411 575.094 117.211 574.367 117.211 573.594C117.211 572.487 117.571 571.667 118.291 571.134C118.664 570.867 119.191 570.68 119.871 570.574C120.538 570.454 121.444 570.394 122.591 570.394L127.011 570.394L127.391 568.854L128.211 568.854L128.211 573.674L127.391 573.674L127.011 572.334L122.551 572.334C121.684 572.334 121.038 572.36 120.611 572.414C120.184 572.454 119.851 572.534 119.611 572.654C119.291 572.814 119.051 573.047 118.891 573.354C118.718 573.647 118.631 574 118.631 574.414C118.631 575.187 118.878 575.854 119.371 576.414C119.864 576.96 120.631 577.26 121.671 577.314L127.011 577.314L127.391 575.974L128.211 575.974L128.211 580.794L127.391 580.794L127.011 579.254ZM127.491 563.528C127.491 562.782 127.338 562.175 127.031 561.708C126.724 561.228 126.298 560.988 125.751 560.988C125.311 560.988 124.958 561.135 124.691 561.428C124.424 561.722 124.211 562.088 124.051 562.528C123.878 562.955 123.731 563.388 123.611 563.828C123.438 564.375 123.238 564.902 123.011 565.408C122.771 565.915 122.444 566.328 122.031 566.648C121.618 566.968 121.071 567.128 120.391 567.128C119.431 567.128 118.664 566.782 118.091 566.088C117.504 565.382 117.211 564.402 117.211 563.148C117.211 562.082 117.438 561.242 117.891 560.628C118.331 560.002 118.938 559.688 119.711 559.688C120.124 559.688 120.458 559.782 120.711 559.968C120.951 560.155 121.071 560.422 121.071 560.768C121.071 561.075 120.978 561.328 120.791 561.528C120.604 561.728 120.364 561.828 120.071 561.828C119.818 561.828 119.591 561.762 119.391 561.628C119.178 561.495 119.024 561.322 118.931 561.108C118.651 561.308 118.451 561.568 118.331 561.888C118.198 562.195 118.131 562.595 118.131 563.088C118.131 563.888 118.278 564.488 118.571 564.888C118.851 565.288 119.271 565.488 119.831 565.488C120.231 565.488 120.551 565.395 120.791 565.208C121.018 565.008 121.211 564.722 121.371 564.348C121.531 563.975 121.698 563.515 121.871 562.968C122.004 562.515 122.158 562.068 122.331 561.628C122.491 561.188 122.691 560.788 122.931 560.428C123.171 560.068 123.471 559.782 123.831 559.568C124.191 559.355 124.638 559.248 125.171 559.248C125.851 559.248 126.438 559.435 126.931 559.808C127.411 560.182 127.778 560.695 128.031 561.348C128.284 562.002 128.411 562.755 128.411 563.608C128.411 564.782 128.171 565.728 127.691 566.448C127.211 567.168 126.564 567.528 125.751 567.528C125.324 567.528 124.991 567.435 124.751 567.248C124.498 567.048 124.371 566.768 124.371 566.408C124.371 566.088 124.464 565.822 124.651 565.608C124.838 565.382 125.084 565.268 125.391 565.268C125.644 565.268 125.884 565.342 126.111 565.488C126.338 565.622 126.504 565.788 126.611 565.988C126.864 565.815 127.078 565.508 127.251 565.068C127.411 564.615 127.491 564.102 127.491 563.528ZM118.611 556.09L118.231 557.63L117.411 557.63L117.411 554.15L127.011 554.15L127.391 552.61L128.211 552.61L128.211 557.63L127.391 557.63L127.011 556.09L118.611 556.09ZM114.191 556.37C113.804 556.37 113.498 556.256 113.271 556.03C113.044 555.803 112.931 555.503 112.931 555.13C112.931 554.743 113.044 554.436 113.271 554.21C113.498 553.983 113.804 553.87 114.191 553.87C114.564 553.87 114.864 553.983 115.091 554.21C115.318 554.436 115.431 554.743 115.431 555.13C115.431 555.516 115.324 555.823 115.111 556.05C114.884 556.263 114.578 556.37 114.191 556.37ZM118.411 551.939L117.691 551.939L117.411 549.999L114.891 549.739L114.651 548.059L117.411 548.059L117.411 545.499L118.411 545.499L118.411 548.059L125.551 548.059C126.004 548.059 126.318 548.052 126.491 548.039C126.651 548.026 126.784 547.999 126.891 547.959C126.984 547.919 127.051 547.846 127.091 547.739C127.118 547.632 127.131 547.459 127.131 547.219L127.131 545.819L127.711 545.819C127.951 546.459 128.124 547.026 128.231 547.519C128.351 547.999 128.411 548.386 128.411 548.679C128.411 549.279 128.164 549.666 127.671 549.839C127.511 549.892 127.304 549.932 127.051 549.959C126.798 549.986 126.424 549.999 125.931 549.999L118.411 549.999L118.411 551.939ZM118.611 535.023L127.731 538.343C128.758 538.716 129.584 539.056 130.211 539.363C130.851 539.669 131.311 540.009 131.591 540.383C131.871 540.756 132.011 541.236 132.011 541.823C132.011 542.449 131.844 542.989 131.511 543.443C131.178 543.883 130.758 544.103 130.251 544.103C129.878 544.103 129.564 543.996 129.311 543.783C129.071 543.569 128.951 543.289 128.951 542.943C128.951 542.636 129.031 542.396 129.191 542.223C129.364 542.036 129.598 541.943 129.891 541.943C130.078 541.943 130.258 541.983 130.431 542.063C130.604 542.129 130.758 542.223 130.891 542.343C131.024 542.316 131.111 542.236 131.151 542.103C131.204 541.969 131.231 541.856 131.231 541.763C131.231 541.576 131.184 541.403 131.091 541.243C130.998 541.083 130.798 540.916 130.491 540.743C130.198 540.556 129.731 540.356 129.091 540.143L128.351 539.903L118.611 544.043L118.231 545.243L117.411 545.243L117.411 540.763L118.231 540.603L118.611 542.023L126.451 539.043L126.451 538.963L118.611 536.443L118.231 537.603L117.411 537.603L117.411 533.803L118.231 533.803L118.611 535.023Z" fill="#C3FA50"/>
<path d="M574.452 829.085C574.452 830.471 574.592 831.751 574.872 832.925C575.152 834.098 575.546 835.138 576.052 836.045C576.559 836.938 577.159 837.665 577.852 838.225C578.546 838.785 579.312 839.151 580.152 839.325L580.672 838.225C579.832 838.051 579.092 837.565 578.452 836.765C577.826 835.965 577.339 834.911 576.992 833.605C576.646 832.298 576.472 830.805 576.472 829.125C576.472 827.458 576.652 825.965 577.012 824.645C577.372 823.311 577.872 822.225 578.512 821.385C579.166 820.545 579.919 820.025 580.772 819.825L580.352 818.845C579.472 819.058 578.666 819.465 577.932 820.065C577.212 820.665 576.592 821.418 576.072 822.325C575.552 823.231 575.152 824.258 574.872 825.405C574.592 826.538 574.452 827.765 574.452 829.085ZM584.974 838.545L586.914 838.925V839.745H581.494V838.925L583.034 838.545V826.545L581.494 826.165V825.345H584.374L584.674 826.885C585.101 826.218 585.581 825.765 586.114 825.525C586.661 825.271 587.274 825.145 587.954 825.145C588.634 825.145 589.247 825.245 589.794 825.445C590.354 825.645 590.807 825.965 591.154 826.405C591.554 826.911 591.867 827.525 592.094 828.245C592.334 828.951 592.454 829.718 592.454 830.545C592.454 831.398 592.321 832.205 592.054 832.965C591.801 833.711 591.454 834.338 591.014 834.845C590.267 835.711 589.194 836.145 587.794 836.145C587.221 836.145 586.701 836.038 586.234 835.825C585.781 835.598 585.361 835.211 584.974 834.665V838.545ZM584.954 830.565C584.954 831.351 585.014 832.038 585.134 832.625C585.254 833.211 585.427 833.685 585.654 834.045C585.867 834.378 586.127 834.638 586.434 834.825C586.754 835.011 587.161 835.105 587.654 835.105C588.107 835.105 588.501 835.025 588.834 834.865C589.181 834.691 589.461 834.458 589.674 834.165C589.914 833.831 590.087 833.365 590.194 832.765C590.301 832.165 590.354 831.478 590.354 830.705C590.354 829.918 590.294 829.238 590.174 828.665C590.054 828.091 589.881 827.618 589.654 827.245C589.441 826.898 589.174 826.638 588.854 826.465C588.547 826.278 588.141 826.185 587.634 826.185C587.181 826.185 586.781 826.265 586.434 826.425C586.101 826.571 585.841 826.798 585.654 827.105C585.441 827.465 585.267 827.938 585.134 828.525C585.014 829.098 584.954 829.778 584.954 830.565ZM597.357 838.545L599.297 838.925V839.745H593.877V838.925L595.417 838.545V826.545L593.877 826.165V825.345H596.757L597.057 826.885C597.484 826.218 597.964 825.765 598.497 825.525C599.044 825.271 599.657 825.145 600.337 825.145C601.017 825.145 601.63 825.245 602.177 825.445C602.737 825.645 603.19 825.965 603.537 826.405C603.937 826.911 604.25 827.525 604.477 828.245C604.717 828.951 604.837 829.718 604.837 830.545C604.837 831.398 604.704 832.205 604.437 832.965C604.184 833.711 603.837 834.338 603.397 834.845C602.65 835.711 601.577 836.145 600.177 836.145C599.604 836.145 599.084 836.038 598.617 835.825C598.164 835.598 597.744 835.211 597.357 834.665V838.545ZM597.337 830.565C597.337 831.351 597.397 832.038 597.517 832.625C597.637 833.211 597.81 833.685 598.037 834.045C598.25 834.378 598.51 834.638 598.817 834.825C599.137 835.011 599.544 835.105 600.037 835.105C600.49 835.105 600.884 835.025 601.217 834.865C601.564 834.691 601.844 834.458 602.057 834.165C602.297 833.831 602.47 833.365 602.577 832.765C602.684 832.165 602.737 831.478 602.737 830.705C602.737 829.918 602.677 829.238 602.557 828.665C602.437 828.091 602.264 827.618 602.037 827.245C601.824 826.898 601.557 826.638 601.237 826.465C600.93 826.278 600.524 826.185 600.017 826.185C599.564 826.185 599.164 826.265 598.817 826.425C598.484 826.571 598.224 826.798 598.037 827.105C597.824 827.465 597.65 827.938 597.517 828.525C597.397 829.098 597.337 829.778 597.337 830.565ZM608.02 834.945V826.545L606.48 826.165V825.345H609.36L609.8 827.345H609.88C610.266 826.678 610.78 826.145 611.42 825.745C612.073 825.345 612.766 825.145 613.5 825.145C614.046 825.145 614.533 825.251 614.96 825.465C615.386 825.665 615.7 825.918 615.9 826.225C616.113 826.558 616.286 826.998 616.42 827.545C616.846 826.798 617.4 826.211 618.08 825.785C618.76 825.358 619.486 825.145 620.26 825.145C620.793 825.145 621.273 825.251 621.7 825.465C622.126 825.665 622.453 825.945 622.68 826.305C622.84 826.558 622.966 826.885 623.06 827.285C623.153 827.685 623.22 828.205 623.26 828.845C623.3 829.471 623.32 830.271 623.32 831.245V834.945L624.86 835.325V836.145H620.04V835.325L621.38 834.945V830.485C621.38 829.618 621.353 828.971 621.3 828.545C621.26 828.118 621.18 827.785 621.06 827.545C620.9 827.225 620.673 826.985 620.38 826.825C620.1 826.651 619.766 826.565 619.38 826.565C619.046 826.565 618.72 826.631 618.4 826.765C618.08 826.898 617.793 827.078 617.54 827.305C617.246 827.571 617.026 827.885 616.88 828.245C616.746 828.605 616.666 829.058 616.64 829.605V834.945L617.98 835.325V836.145H613.36V835.325L614.7 834.945V830.485C614.7 829.618 614.673 828.971 614.62 828.545C614.58 828.118 614.5 827.785 614.38 827.545C614.22 827.225 613.993 826.985 613.7 826.825C613.42 826.651 613.086 826.565 612.7 826.565C612.366 826.565 612.04 826.631 611.72 826.765C611.4 826.898 611.113 827.078 610.86 827.305C610.566 827.571 610.346 827.885 610.2 828.245C610.066 828.605 609.986 829.058 609.96 829.605V834.945L611.3 835.325V836.145H606.48V835.325L608.02 834.945ZM631.206 829.085C631.206 827.765 631.066 826.538 630.786 825.405C630.506 824.258 630.106 823.231 629.586 822.325C629.066 821.418 628.439 820.665 627.706 820.065C626.986 819.465 626.186 819.058 625.306 818.845L624.886 819.825C625.753 820.025 626.506 820.545 627.146 821.385C627.786 822.225 628.286 823.311 628.646 824.645C629.006 825.965 629.186 827.458 629.186 829.125C629.186 830.805 629.006 832.298 628.646 833.605C628.299 834.911 627.813 835.965 627.186 836.765C626.559 837.565 625.826 838.051 624.986 838.225L625.506 839.325C626.346 839.151 627.113 838.785 627.806 838.225C628.499 837.665 629.099 836.938 629.606 836.045C630.113 835.138 630.506 834.098 630.786 832.925C631.066 831.751 631.206 830.471 631.206 829.085Z" fill="white"/>
<path d="M547.053 824.934C547.053 824.096 547.382 823.424 548.04 822.917C548.698 822.406 549.61 822.15 550.774 822.15C551.286 822.15 551.743 822.193 552.145 822.278C552.552 822.363 552.976 822.491 553.416 822.662V824.338C553.132 824.224 552.746 824.101 552.259 823.968C551.771 823.836 551.286 823.77 550.803 823.77C550.235 823.77 549.799 823.878 549.496 824.096C549.193 824.309 549.041 824.584 549.041 824.92C549.041 825.091 549.096 825.275 549.205 825.474C549.318 825.673 549.529 825.879 549.837 826.092C550.149 826.305 550.604 826.52 551.2 826.738C552.635 827.25 553.679 827.96 554.333 828.869C554.991 829.778 555.32 830.886 555.32 832.193V832.392C555.32 833.367 555.13 834.245 554.752 835.027C554.378 835.808 553.838 836.426 553.132 836.88C552.432 837.335 551.589 837.562 550.604 837.562C549.6 837.562 548.743 837.335 548.033 836.88C547.327 836.426 546.788 835.808 546.414 835.027C546.044 834.245 545.86 833.367 545.86 832.392V832.193C545.86 831.435 546.004 830.742 546.293 830.112C546.582 829.482 546.968 828.954 547.45 828.528C547.933 828.102 548.464 827.818 549.041 827.676V827.619C548.431 827.377 547.945 827.027 547.585 826.568C547.23 826.109 547.053 825.564 547.053 824.934ZM547.82 832.193V832.392C547.82 833.045 547.917 833.646 548.111 834.196C548.31 834.74 548.613 835.178 549.02 835.51C549.432 835.836 549.96 836 550.604 836C551.238 836 551.759 835.836 552.166 835.51C552.574 835.178 552.874 834.74 553.068 834.196C553.262 833.646 553.36 833.045 553.36 832.392V832.193C553.36 831.663 553.246 831.139 553.019 830.623C552.791 830.102 552.472 829.653 552.06 829.274C551.648 828.89 551.163 828.642 550.604 828.528C549.96 828.528 549.432 828.699 549.02 829.039C548.613 829.376 548.31 829.823 548.111 830.382C547.917 830.936 547.82 831.539 547.82 832.193Z" fill="white"/>
<defs>
<filter id="filter0_d_854_9570" x="139.211" y="487.795" width="888" height="161.5" filterUnits="userSpaceOnUse" color-interpolation-filters="sRGB">
<feFlood flood-opacity="0" result="BackgroundImageFix"/>
<feColorMatrix in="SourceAlpha" type="matrix" values="0 0 0 0 0 0 0 0 0 0 0 0 0 0 0 0 0 0 127 0" result="hardAlpha"/>
<feOffset dy="4"/>
<feGaussianBlur stdDeviation="2"/>
<feComposite in2="hardAlpha" operator="out"/>
<feColorMatrix type="matrix" values="0 0 0 0 0 0 0 0 0 0 0 0 0 0 0 0 0 0 0.25 0"/>
<feBlend mode="normal" in2="BackgroundImageFix" result="effect1_dropShadow_854_9570"/>
<feBlend mode="normal" in="SourceGraphic" in2="effect1_dropShadow_854_9570" result="shape"/>
</filter>
</defs>
</svg>
