<svg width="1122" height="901" viewBox="0 0 1122 901" fill="none" xmlns="http://www.w3.org/2000/svg">
<rect width="1122" height="900" transform="translate(0 0.794922)" fill="#0C0C31"/>
<path d="M421.733 312.283C421.733 313.804 421.497 315.236 421.025 316.582C420.571 317.91 419.933 319.02 419.112 319.911C418.396 320.68 417.531 321.256 416.517 321.641C415.521 322.008 414.368 322.191 413.057 322.191C411.729 322.191 410.559 322.008 409.545 321.641C408.532 321.274 407.684 320.723 407.003 319.989C406.199 319.151 405.578 318.102 405.142 316.844C404.705 315.568 404.486 314.188 404.486 312.703C404.486 311.182 404.713 309.758 405.168 308.43C405.64 307.085 406.286 305.966 407.107 305.075C407.841 304.289 408.689 303.712 409.65 303.345C410.628 302.978 411.782 302.795 413.11 302.795C414.438 302.795 415.6 302.978 416.596 303.345C417.609 303.695 418.474 304.245 419.191 304.997C420.012 305.835 420.641 306.893 421.078 308.168C421.515 309.444 421.733 310.815 421.733 312.283ZM407.501 312.178C407.501 313.629 407.623 314.922 407.868 316.058C408.112 317.176 408.462 318.093 408.916 318.81C409.37 319.456 409.938 319.946 410.62 320.278C411.319 320.592 412.175 320.749 413.188 320.749C415.041 320.749 416.404 320.173 417.277 319.02C417.749 318.373 418.107 317.517 418.352 316.451C418.597 315.367 418.719 314.101 418.719 312.65C418.719 311.2 418.597 309.924 418.352 308.823C418.107 307.723 417.749 306.831 417.277 306.15C416.823 305.486 416.238 304.997 415.521 304.682C414.822 304.368 413.992 304.21 413.031 304.21C412.105 304.21 411.301 304.359 410.62 304.656C409.956 304.935 409.397 305.364 408.942 305.94C407.981 307.216 407.501 309.295 407.501 312.178Z" fill="white"/>
<path d="M421.733 312.283C421.733 313.804 421.497 315.236 421.025 316.582C420.571 317.91 419.933 319.02 419.112 319.911C418.396 320.68 417.531 321.256 416.517 321.641C415.521 322.008 414.368 322.191 413.057 322.191C411.729 322.191 410.559 322.008 409.545 321.641C408.532 321.274 407.684 320.723 407.003 319.989C406.199 319.151 405.578 318.102 405.142 316.844C404.705 315.568 404.486 314.188 404.486 312.703C404.486 311.182 404.713 309.758 405.168 308.43C405.64 307.085 406.286 305.966 407.107 305.075C407.841 304.289 408.689 303.712 409.65 303.345C410.628 302.978 411.782 302.795 413.11 302.795C414.438 302.795 415.6 302.978 416.596 303.345C417.609 303.695 418.474 304.245 419.191 304.997C420.012 305.835 420.641 306.893 421.078 308.168C421.515 309.444 421.733 310.815 421.733 312.283ZM407.501 312.178C407.501 313.629 407.623 314.922 407.868 316.058C408.112 317.176 408.462 318.093 408.916 318.81C409.37 319.456 409.938 319.946 410.62 320.278C411.319 320.592 412.175 320.749 413.188 320.749C415.041 320.749 416.404 320.173 417.277 319.02C417.749 318.373 418.107 317.517 418.352 316.451C418.597 315.367 418.719 314.101 418.719 312.65C418.719 311.2 418.597 309.924 418.352 308.823C418.107 307.723 417.749 306.831 417.277 306.15C416.823 305.486 416.238 304.997 415.521 304.682C414.822 304.368 413.992 304.21 413.031 304.21C412.105 304.21 411.301 304.359 410.62 304.656C409.956 304.935 409.397 305.364 408.942 305.94C407.981 307.216 407.501 309.295 407.501 312.178Z" stroke="black"/>
<path d="M504.65 304.472V319.989L506.851 320.54V321.667H499.827V320.54L502.029 319.989V312.729H493.143V319.989L495.345 320.54V321.667H488.32V320.54L490.522 319.989V304.472L488.32 303.922V302.795H495.345V303.922L493.143 304.472V311.209H502.029V304.472L499.827 303.922V302.795H506.851V303.922L504.65 304.472Z" fill="white"/>
<path d="M504.65 304.472V319.989L506.851 320.54V321.667H499.827V320.54L502.029 319.989V312.729H493.143V319.989L495.345 320.54V321.667H488.32V320.54L490.522 319.989V304.472L488.32 303.922V302.795H495.345V303.922L493.143 304.472V311.209H502.029V304.472L499.827 303.922V302.795H506.851V303.922L504.65 304.472Z" stroke="black"/>
<path d="M248.551 304.254C247.673 304.254 246.92 304.39 246.292 304.66C245.683 304.93 245.163 305.353 244.733 305.93C244.195 306.633 243.774 307.561 243.469 308.714C243.164 309.849 243.012 311.101 243.012 312.471C243.012 313.75 243.146 314.948 243.415 316.065C243.684 317.182 244.061 318.119 244.545 318.876C245.029 319.633 245.611 320.191 246.292 320.552C246.992 320.894 247.861 321.065 248.901 321.065C252.128 321.065 254.001 319.543 254.521 316.498H256C255.193 320.696 252.737 322.795 248.632 322.795C246.158 322.795 244.186 322.074 242.716 320.633C241.838 319.768 241.165 318.678 240.699 317.362C240.233 316.047 240 314.588 240 312.984C240 311.164 240.296 309.516 240.887 308.038C241.479 306.561 242.313 305.381 243.388 304.498C244.751 303.362 246.552 302.795 248.793 302.795C249.905 302.795 250.81 302.939 251.509 303.227C252.208 303.516 252.899 304.029 253.58 304.768L254.118 303.065H255.597V309.038H253.956C253.705 307.453 253.123 306.263 252.208 305.471C251.312 304.66 250.093 304.254 248.551 304.254Z" fill="#5C48FD"/>
<path d="M248.551 304.254C247.673 304.254 246.92 304.39 246.292 304.66C245.683 304.93 245.163 305.353 244.733 305.93C244.195 306.633 243.774 307.561 243.469 308.714C243.164 309.849 243.012 311.101 243.012 312.471C243.012 313.75 243.146 314.948 243.415 316.065C243.684 317.182 244.061 318.119 244.545 318.876C245.029 319.633 245.611 320.191 246.292 320.552C246.992 320.894 247.861 321.065 248.901 321.065C252.128 321.065 254.001 319.543 254.521 316.498H256C255.193 320.696 252.737 322.795 248.632 322.795C246.158 322.795 244.186 322.074 242.716 320.633C241.838 319.768 241.165 318.678 240.699 317.362C240.233 316.047 240 314.588 240 312.984C240 311.164 240.296 309.516 240.887 308.038C241.479 306.561 242.313 305.381 243.388 304.498C244.751 303.362 246.552 302.795 248.793 302.795C249.905 302.795 250.81 302.939 251.509 303.227C252.208 303.516 252.899 304.029 253.58 304.768L254.118 303.065H255.597V309.038H253.956C253.705 307.453 253.123 306.263 252.208 305.471C251.312 304.66 250.093 304.254 248.551 304.254Z" stroke="black"/>
<path d="M330.551 304.254C329.673 304.254 328.92 304.39 328.292 304.66C327.683 304.93 327.163 305.353 326.733 305.93C326.195 306.633 325.774 307.561 325.469 308.714C325.164 309.849 325.012 311.101 325.012 312.471C325.012 313.75 325.146 314.948 325.415 316.065C325.684 317.182 326.061 318.119 326.545 318.876C327.029 319.633 327.611 320.191 328.292 320.552C328.992 320.894 329.861 321.065 330.901 321.065C334.128 321.065 336.001 319.543 336.521 316.498H338C337.193 320.696 334.737 322.795 330.632 322.795C328.158 322.795 326.186 322.074 324.716 320.633C323.838 319.768 323.165 318.678 322.699 317.362C322.233 316.047 322 314.588 322 312.984C322 311.164 322.296 309.516 322.887 308.038C323.479 306.561 324.313 305.381 325.388 304.498C326.751 303.362 328.552 302.795 330.793 302.795C331.905 302.795 332.81 302.939 333.509 303.227C334.208 303.516 334.899 304.029 335.58 304.768L336.118 303.065H337.597V309.038H335.956C335.705 307.453 335.123 306.263 334.208 305.471C333.312 304.66 332.093 304.254 330.551 304.254Z" fill="white"/>
<path d="M330.551 304.254C329.673 304.254 328.92 304.39 328.292 304.66C327.683 304.93 327.163 305.353 326.733 305.93C326.195 306.633 325.774 307.561 325.469 308.714C325.164 309.849 325.012 311.101 325.012 312.471C325.012 313.75 325.146 314.948 325.415 316.065C325.684 317.182 326.061 318.119 326.545 318.876C327.029 319.633 327.611 320.191 328.292 320.552C328.992 320.894 329.861 321.065 330.901 321.065C334.128 321.065 336.001 319.543 336.521 316.498H338C337.193 320.696 334.737 322.795 330.632 322.795C328.158 322.795 326.186 322.074 324.716 320.633C323.838 319.768 323.165 318.678 322.699 317.362C322.233 316.047 322 314.588 322 312.984C322 311.164 322.296 309.516 322.887 308.038C323.479 306.561 324.313 305.381 325.388 304.498C326.751 303.362 328.552 302.795 330.793 302.795C331.905 302.795 332.81 302.939 333.509 303.227C334.208 303.516 334.899 304.029 335.58 304.768L336.118 303.065H337.597V309.038H335.956C335.705 307.453 335.123 306.263 334.208 305.471C333.312 304.66 332.093 304.254 330.551 304.254Z" stroke="black"/>
<path d="M252.861 391.484V407.106L255 407.66V408.795H248.177V407.66L250.315 407.106V399.796H241.685V407.106L243.823 407.66V408.795H237V407.66L239.139 407.106V391.484L237 390.93V389.795H243.823V390.93L241.685 391.484V398.266H250.315V391.484L248.177 390.93V389.795H255V390.93L252.861 391.484Z" fill="#5C48FD"/>
<path d="M252.861 391.484V407.106L255 407.66V408.795H248.177V407.66L250.315 407.106V399.796H241.685V407.106L243.823 407.66V408.795H237V407.66L239.139 407.106V391.484L237 390.93V389.795H243.823V390.93L241.685 391.484V398.266H250.315V391.484L248.177 390.93V389.795H255V390.93L252.861 391.484Z" stroke="black"/>
<path d="M334.861 391.484V407.106L337 407.66V408.795H330.177V407.66L332.315 407.106V399.796H323.685V407.106L325.823 407.66V408.795H319V407.66L321.139 407.106V391.484L319 390.93V389.795H325.823V390.93L323.685 391.484V398.266H332.315V391.484L330.177 390.93V389.795H337V390.93L334.861 391.484Z" fill="white"/>
<path d="M334.861 391.484V407.106L337 407.66V408.795H330.177V407.66L332.315 407.106V399.796H323.685V407.106L325.823 407.66V408.795H319V407.66L321.139 407.106V391.484L319 390.93V389.795H325.823V390.93L323.685 391.484V398.266H332.315V391.484L330.177 390.93V389.795H337V390.93L334.861 391.484Z" stroke="black"/>
<path d="M171.329 304.472V319.989L173.531 320.54V321.667H166.507V320.54L168.708 319.989V312.729H159.823V319.989L162.025 320.54V321.667H155V320.54L157.202 319.989V304.472L155 303.922V302.795H162.025V303.922L159.823 304.472V311.209H168.708V304.472L166.507 303.922V302.795H173.531V303.922L171.329 304.472Z" fill="#5C48FD"/>
<path d="M171.329 304.472V319.989L173.531 320.54V321.667H166.507V320.54L168.708 319.989V312.729H159.823V319.989L162.025 320.54V321.667H155V320.54L157.202 319.989V304.472L155 303.922V302.795H162.025V303.922L159.823 304.472V311.209H168.708V304.472L166.507 303.922V302.795H173.531V303.922L171.329 304.472Z" stroke="black"/>
<path d="M254.329 218.472V226.231V233.989L256.531 234.54V235.667H249.507V234.54L251.708 233.989V226.729H242.823V233.989L245.025 234.54V235.667H238V234.54L240.202 233.989V218.472L238 217.922V216.795H245.025V217.922L242.823 218.472V225.209H251.708V218.472L249.507 217.922V216.795H256.531V217.922L254.329 218.472Z" fill="#5C48FD"/>
<path d="M254.329 218.472V226.231V233.989L256.531 234.54V235.667H249.507V234.54L251.708 233.989V226.729H242.823V233.989L245.025 234.54V235.667H238V234.54L240.202 233.989V218.472L238 217.922V216.795H245.025V217.922L242.823 218.472V225.209H251.708V218.472L249.507 217.922V216.795H256.531V217.922L254.329 218.472Z" stroke="black"/>
<path d="M336.329 218.472V226.231V233.989L338.531 234.54V235.667H331.507V234.54L333.708 233.989V226.729H324.823V233.989L327.025 234.54V235.667H320V234.54L322.202 233.989V218.472L320 217.922V216.795H327.025V217.922L324.823 218.472V225.209H333.708V218.472L331.507 217.922V216.795H338.531V217.922L336.329 218.472Z" fill="white"/>
<path d="M336.329 218.472V226.231V233.989L338.531 234.54V235.667H331.507V234.54L333.708 233.989V226.729H324.823V233.989L327.025 234.54V235.667H320V234.54L322.202 233.989V218.472L320 217.922V216.795H327.025V217.922L324.823 218.472V225.209H333.708V218.472L331.507 217.922V216.795H338.531V217.922L336.329 218.472Z" stroke="black"/>
<line x1="247.5" y1="365.383" x2="247.5" y2="346.796" stroke="#5C48FD" stroke-width="3"/>
<line x1="329.5" y1="365.383" x2="329.5" y2="346.796" stroke="white" stroke-width="3"/>
<line x1="247.5" y1="259.795" x2="247.5" y2="278.795" stroke="#5C48FD" stroke-width="3"/>
<line x1="329.5" y1="259.795" x2="329.5" y2="278.795" stroke="white" stroke-width="3"/>
<line x1="197.531" y1="311.295" x2="216.118" y2="311.295" stroke="#5C48FD" stroke-width="3"/>
<line x1="279.715" y1="311.295" x2="298.302" y2="311.295" stroke="white" stroke-width="3"/>
<line x1="361.898" y1="311.295" x2="380.485" y2="311.295" stroke="white" stroke-width="3"/>
<line x1="445.732" y1="311.295" x2="464.319" y2="311.295" stroke="white" stroke-width="3"/>
<path d="M843.102 143.274C843.687 142.688 843.687 141.738 843.102 141.152L833.556 131.606C832.97 131.021 832.02 131.021 831.434 131.606C830.849 132.192 830.849 133.142 831.434 133.728L839.92 142.213L831.434 150.698C830.849 151.284 830.849 152.234 831.434 152.819C832.02 153.405 832.97 153.405 833.556 152.819L843.102 143.274ZM249 143.713H842.041V140.713H249V143.713Z" fill="#5C48FD"/>
<path d="M890.05 127.985C888.709 127.985 887.56 128.196 886.603 128.617C885.672 129.038 884.879 129.698 884.222 130.597C883.402 131.692 882.759 133.138 882.294 134.935C881.829 136.704 881.596 138.655 881.596 140.789C881.596 142.783 881.801 144.65 882.212 146.391C882.622 148.132 883.197 149.592 883.935 150.771C884.674 151.951 885.563 152.821 886.603 153.383C887.67 153.916 888.996 154.183 890.583 154.183C895.508 154.183 898.366 151.81 899.16 147.065H901.417C900.186 153.607 896.438 156.878 890.173 156.878C886.397 156.878 883.388 155.755 881.145 153.509C879.804 152.161 878.778 150.462 878.067 148.413C877.356 146.363 877 144.089 877 141.59C877 138.754 877.451 136.184 878.354 133.882C879.257 131.579 880.529 129.74 882.171 128.364C884.25 126.595 886.999 125.711 890.419 125.711C892.115 125.711 893.497 125.936 894.564 126.385C895.631 126.834 896.684 127.634 897.723 128.786L898.544 126.132H900.801V135.44H898.298C897.915 132.969 897.026 131.116 895.631 129.881C894.263 128.617 892.402 127.985 890.05 127.985Z" fill="#5C48FD"/>
<path d="M930.413 128.828V153.762L933.86 154.646V156.457H922.862V154.646L926.309 153.762V142.095H912.398V153.762L915.845 154.646V156.457H904.847V154.646L908.294 153.762V128.828L904.847 127.943V126.132H915.845V127.943L912.398 128.828V139.652H926.309V128.828L922.862 127.943V126.132H933.86V127.943L930.413 128.828Z" fill="#5C48FD"/>
<path d="M946.406 146.391C946.406 147.233 946.16 147.935 945.668 148.497C945.175 149.03 944.491 149.367 943.616 149.508V149.676C945.613 150.069 946.612 151.15 946.612 152.919C946.612 154.099 946.188 155.053 945.339 155.783C944.491 156.513 943.383 156.878 942.015 156.878C940.757 156.878 939.731 156.556 938.938 155.91C938.172 155.264 937.789 154.407 937.789 153.34C937.789 152.779 937.884 152.372 938.076 152.119C938.295 151.838 938.623 151.698 939.061 151.698C939.417 151.698 939.69 151.81 939.882 152.035C940.1 152.231 940.21 152.512 940.21 152.877C940.21 153.242 940.114 153.523 939.923 153.72C939.731 153.916 939.485 154.014 939.184 154.014C939.293 154.492 939.553 154.871 939.964 155.152C940.401 155.404 940.976 155.531 941.687 155.531C942.563 155.531 943.206 155.348 943.616 154.983C944.054 154.59 944.273 154 944.273 153.214C944.273 152.316 943.985 151.6 943.411 151.066C942.864 150.533 942.098 150.266 941.113 150.266V149.002C942.043 149.002 942.795 148.75 943.37 148.244C943.944 147.711 944.231 147.023 944.231 146.18C944.231 145.507 944.026 145.001 943.616 144.664C943.206 144.299 942.604 144.117 941.81 144.117C941.126 144.117 940.552 144.243 940.087 144.496C939.622 144.748 939.348 145.085 939.266 145.507C939.649 145.507 939.95 145.605 940.169 145.801C940.388 145.998 940.497 146.279 940.497 146.644C940.497 147.009 940.388 147.304 940.169 147.528C939.95 147.725 939.663 147.823 939.307 147.823C938.869 147.823 938.527 147.683 938.281 147.402C938.062 147.093 937.953 146.672 937.953 146.138C937.953 145.156 938.336 144.369 939.102 143.78C939.868 143.162 940.88 142.853 942.139 142.853C943.424 142.853 944.45 143.176 945.216 143.822C946.01 144.468 946.406 145.324 946.406 146.391Z" fill="#5C48FD"/>
<path d="M249.916 141.295L249.916 189.88" stroke="#5C48FD" stroke-width="3"/>
<g filter="url(#filter0_d_794_6877)">
<path d="M728.5 639.746L792.932 639.795H808.671L811.448 622.195V535.366L813.3 530.286V487.795V525.205L815.151 522.896L816.54 639.795H823.947H828.113H896.624M143 639.795L681.832 639.746M945.23 639.795H984.115H1023" stroke="#C3FA50" stroke-width="3"/>
</g>
<path d="M681 639.795L685.079 637.684L686.453 636.308V618.433V579.932L685.079 549.223L686.453 566.182L689.201 569.39V636.308H697.444V593.224V497.888V357.176V470.387L699.734 480.013V555.64V636.308L701.566 628.975L705.23 636.308H708.436L712.558 630.808V346.176V454.804L715.305 633.558L718.511 637.684L721.259 633.558L722.634 630.808L721.727 518.972L721.924 543.264L724.464 621.183V633.558L729 639.795" stroke="#C3FA50" stroke-width="3"/>
<path d="M144.834 680.129L1024.83 680.129" stroke="white" stroke-width="2"/>
<line x1="588.143" y1="679.992" x2="588.143" y2="702.263" stroke="white" stroke-width="2"/>
<line x1="411.131" y1="679.992" x2="411.131" y2="702.263" stroke="white" stroke-width="2"/>
<line x1="234.117" y1="679.992" x2="234.117" y2="702.263" stroke="white" stroke-width="2"/>
<line x1="144.432" y1="678.877" x2="144.432" y2="701.148" stroke="white" stroke-width="2"/>
<line x1="854.842" y1="679.992" x2="854.842" y2="702.263" stroke="white" stroke-width="2"/>
<line x1="677.828" y1="679.992" x2="677.828" y2="702.263" stroke="white" stroke-width="2"/>
<line x1="500.816" y1="679.992" x2="500.816" y2="702.263" stroke="white" stroke-width="2"/>
<line x1="322.625" y1="679.992" x2="322.625" y2="702.263" stroke="white" stroke-width="2"/>
<line x1="944.527" y1="679.992" x2="944.527" y2="702.263" stroke="white" stroke-width="2"/>
<line x1="1023.59" y1="679.992" x2="1023.59" y2="702.263" stroke="white" stroke-width="2"/>
<line x1="766.336" y1="679.992" x2="766.336" y2="702.263" stroke="white" stroke-width="2"/>
<path d="M223.056 723.335C223.056 724.268 223.276 725.042 223.716 725.655C224.156 726.255 224.863 726.555 225.836 726.555C226.303 726.555 226.81 726.402 227.356 726.095C227.916 725.788 228.443 725.295 228.936 724.615C228.856 723.268 228.543 722.182 227.996 721.355C227.463 720.528 226.676 720.115 225.636 720.115C225.156 720.115 224.716 720.262 224.316 720.555C223.93 720.835 223.623 721.215 223.396 721.695C223.17 722.175 223.056 722.722 223.056 723.335ZM225.136 732.615C224.55 732.615 224.03 732.502 223.576 732.275C223.136 732.048 222.756 731.748 222.436 731.375L222.976 730.775C223.256 731.122 223.583 731.388 223.956 731.575C224.343 731.748 224.743 731.835 225.156 731.835C225.836 731.835 226.463 731.635 227.036 731.235C227.61 730.835 228.07 730.175 228.416 729.255C228.776 728.335 228.956 727.095 228.956 725.535C228.516 726.068 228.016 726.495 227.456 726.815C226.896 727.135 226.316 727.295 225.716 727.295C224.61 727.295 223.743 726.962 223.116 726.295C222.49 725.615 222.176 724.628 222.176 723.335C222.176 722.562 222.336 721.875 222.656 721.275C222.976 720.675 223.403 720.208 223.936 719.875C224.47 719.528 225.05 719.355 225.676 719.355C226.943 719.355 227.95 719.875 228.696 720.915C229.456 721.942 229.836 723.428 229.836 725.375C229.836 727.162 229.616 728.588 229.176 729.655C228.736 730.708 228.156 731.468 227.436 731.935C226.73 732.388 225.963 732.615 225.136 732.615ZM233.087 732.615C232.873 732.615 232.673 732.535 232.487 732.375C232.313 732.215 232.227 731.995 232.227 731.715C232.227 731.422 232.313 731.195 232.487 731.035C232.673 730.875 232.873 730.795 233.087 730.795C233.313 730.795 233.507 730.875 233.667 731.035C233.84 731.195 233.927 731.422 233.927 731.715C233.927 731.995 233.84 732.215 233.667 732.375C233.507 732.535 233.313 732.615 233.087 732.615ZM240.042 732.615C238.828 732.615 237.888 732.035 237.222 730.875C236.555 729.715 236.222 728.068 236.222 725.935C236.222 723.815 236.555 722.188 237.222 721.055C237.888 719.922 238.828 719.355 240.042 719.355C241.268 719.355 242.208 719.922 242.862 721.055C243.528 722.188 243.862 723.815 243.862 725.935C243.862 728.068 243.528 729.715 242.862 730.875C242.208 732.035 241.268 732.615 240.042 732.615ZM240.042 731.855C240.935 731.855 241.642 731.355 242.162 730.355C242.695 729.355 242.962 727.882 242.962 725.935C242.962 723.988 242.695 722.535 242.162 721.575C241.642 720.602 240.935 720.115 240.042 720.115C239.162 720.115 238.455 720.602 237.922 721.575C237.388 722.535 237.122 723.988 237.122 725.935C237.122 727.882 237.388 729.355 237.922 730.355C238.455 731.355 239.162 731.855 240.042 731.855Z" fill="white"/>
<path d="M128.59 732.375V731.595H131.59V720.995H129.31V720.395C129.83 720.302 130.297 720.188 130.71 720.055C131.123 719.922 131.477 719.768 131.77 719.595H132.49V731.595H135.27V732.375H128.59ZM141.26 732.615C140.047 732.615 139.107 732.035 138.44 730.875C137.774 729.715 137.44 728.068 137.44 725.935C137.44 723.815 137.774 722.188 138.44 721.055C139.107 719.922 140.047 719.355 141.26 719.355C142.487 719.355 143.427 719.922 144.08 721.055C144.747 722.188 145.08 723.815 145.08 725.935C145.08 728.068 144.747 729.715 144.08 730.875C143.427 732.035 142.487 732.615 141.26 732.615ZM141.26 731.855C142.154 731.855 142.86 731.355 143.38 730.355C143.914 729.355 144.18 727.882 144.18 725.935C144.18 723.988 143.914 722.535 143.38 721.575C142.86 720.602 142.154 720.115 141.26 720.115C140.38 720.115 139.674 720.602 139.14 721.575C138.607 722.535 138.34 723.988 138.34 725.935C138.34 727.882 138.607 729.355 139.14 730.355C139.674 731.355 140.38 731.855 141.26 731.855ZM148.251 732.615C148.037 732.615 147.837 732.535 147.651 732.375C147.477 732.215 147.391 731.995 147.391 731.715C147.391 731.422 147.477 731.195 147.651 731.035C147.837 730.875 148.037 730.795 148.251 730.795C148.477 730.795 148.671 730.875 148.831 731.035C149.004 731.195 149.091 731.422 149.091 731.715C149.091 731.995 149.004 732.215 148.831 732.375C148.671 732.535 148.477 732.615 148.251 732.615ZM155.206 732.615C153.992 732.615 153.052 732.035 152.386 730.875C151.719 729.715 151.386 728.068 151.386 725.935C151.386 723.815 151.719 722.188 152.386 721.055C153.052 719.922 153.992 719.355 155.206 719.355C156.432 719.355 157.372 719.922 158.026 721.055C158.692 722.188 159.026 723.815 159.026 725.935C159.026 728.068 158.692 729.715 158.026 730.875C157.372 732.035 156.432 732.615 155.206 732.615ZM155.206 731.855C156.099 731.855 156.806 731.355 157.326 730.355C157.859 729.355 158.126 727.882 158.126 725.935C158.126 723.988 157.859 722.535 157.326 721.575C156.806 720.602 156.099 720.115 155.206 720.115C154.326 720.115 153.619 720.602 153.086 721.575C152.552 722.535 152.286 723.988 152.286 725.935C152.286 727.882 152.552 729.355 153.086 730.355C153.619 731.355 154.326 731.855 155.206 731.855Z" fill="white"/>
<path d="M315.862 731.502C315.089 731.502 314.395 731.348 313.782 731.042C313.169 730.735 312.682 730.315 312.322 729.782C311.975 729.248 311.802 728.648 311.802 727.982C311.802 727.408 311.929 726.888 312.182 726.422C312.449 725.955 312.775 725.555 313.162 725.222C313.562 724.875 313.962 724.595 314.362 724.382V724.302C313.895 723.995 313.469 723.602 313.082 723.122C312.709 722.628 312.522 722.042 312.522 721.362C312.522 720.748 312.669 720.208 312.962 719.742C313.269 719.275 313.675 718.908 314.182 718.642C314.689 718.375 315.249 718.242 315.862 718.242C316.955 718.242 317.802 718.562 318.402 719.202C319.015 719.828 319.322 720.622 319.322 721.582C319.322 722.048 319.222 722.495 319.022 722.922C318.822 723.335 318.582 723.708 318.302 724.042C318.022 724.362 317.755 724.622 317.502 724.822V724.902C317.875 725.128 318.229 725.388 318.562 725.682C318.909 725.962 319.189 726.302 319.402 726.702C319.629 727.102 319.742 727.588 319.742 728.162C319.742 728.775 319.575 729.335 319.242 729.842C318.922 730.348 318.469 730.755 317.882 731.062C317.309 731.355 316.635 731.502 315.862 731.502ZM316.802 724.562C317.349 724.122 317.762 723.655 318.042 723.162C318.335 722.668 318.482 722.148 318.482 721.602C318.482 720.895 318.249 720.282 317.782 719.762C317.329 719.242 316.689 718.982 315.862 718.982C315.155 718.982 314.569 719.208 314.102 719.662C313.635 720.102 313.402 720.668 313.402 721.362C313.402 721.962 313.569 722.462 313.902 722.862C314.235 723.248 314.662 723.575 315.182 723.842C315.702 724.095 316.242 724.335 316.802 724.562ZM315.862 730.762C316.769 730.762 317.489 730.508 318.022 730.002C318.569 729.495 318.842 728.875 318.842 728.142C318.842 727.488 318.655 726.962 318.282 726.562C317.909 726.148 317.422 725.802 316.822 725.522C316.235 725.242 315.609 724.975 314.942 724.722C314.289 725.095 313.749 725.548 313.322 726.082C312.895 726.615 312.682 727.235 312.682 727.942C312.682 728.475 312.815 728.955 313.082 729.382C313.362 729.795 313.742 730.128 314.222 730.382C314.702 730.635 315.249 730.762 315.862 730.762ZM322.772 731.502C322.559 731.502 322.359 731.422 322.172 731.262C321.999 731.102 321.912 730.882 321.912 730.602C321.912 730.308 321.999 730.082 322.172 729.922C322.359 729.762 322.559 729.682 322.772 729.682C322.999 729.682 323.192 729.762 323.352 729.922C323.526 730.082 323.612 730.308 323.612 730.602C323.612 730.882 323.526 731.102 323.352 731.262C323.192 731.422 322.999 731.502 322.772 731.502ZM329.727 731.502C328.514 731.502 327.574 730.922 326.907 729.762C326.241 728.602 325.907 726.955 325.907 724.822C325.907 722.702 326.241 721.075 326.907 719.942C327.574 718.808 328.514 718.242 329.727 718.242C330.954 718.242 331.894 718.808 332.547 719.942C333.214 721.075 333.547 722.702 333.547 724.822C333.547 726.955 333.214 728.602 332.547 729.762C331.894 730.922 330.954 731.502 329.727 731.502ZM329.727 730.742C330.621 730.742 331.327 730.242 331.847 729.242C332.381 728.242 332.647 726.768 332.647 724.822C332.647 722.875 332.381 721.422 331.847 720.462C331.327 719.488 330.621 719.002 329.727 719.002C328.847 719.002 328.141 719.488 327.607 720.462C327.074 721.422 326.807 722.875 326.807 724.822C326.807 726.768 327.074 728.242 327.607 729.242C328.141 730.242 328.847 730.742 329.727 730.742Z" fill="white"/>
<path d="M404.449 731.262C404.516 729.542 404.689 728.002 404.969 726.642C405.249 725.282 405.663 724.015 406.209 722.842C406.756 721.655 407.456 720.462 408.309 719.262H401.569V718.482H409.429V719.002C408.669 720.015 408.036 720.995 407.529 721.942C407.036 722.875 406.643 723.822 406.349 724.782C406.056 725.742 405.836 726.748 405.689 727.802C405.556 728.855 405.463 730.008 405.409 731.262H404.449ZM412.46 731.502C412.246 731.502 412.046 731.422 411.86 731.262C411.686 731.102 411.6 730.882 411.6 730.602C411.6 730.308 411.686 730.082 411.86 729.922C412.046 729.762 412.246 729.682 412.46 729.682C412.686 729.682 412.88 729.762 413.04 729.922C413.213 730.082 413.3 730.308 413.3 730.602C413.3 730.882 413.213 731.102 413.04 731.262C412.88 731.422 412.686 731.502 412.46 731.502ZM419.415 731.502C418.201 731.502 417.261 730.922 416.595 729.762C415.928 728.602 415.595 726.955 415.595 724.822C415.595 722.702 415.928 721.075 416.595 719.942C417.261 718.808 418.201 718.242 419.415 718.242C420.641 718.242 421.581 718.808 422.235 719.942C422.901 721.075 423.235 722.702 423.235 724.822C423.235 726.955 422.901 728.602 422.235 729.762C421.581 730.922 420.641 731.502 419.415 731.502ZM419.415 730.742C420.308 730.742 421.015 730.242 421.535 729.242C422.068 728.242 422.335 726.768 422.335 724.822C422.335 722.875 422.068 721.422 421.535 720.462C421.015 719.488 420.308 719.002 419.415 719.002C418.535 719.002 417.828 719.488 417.295 720.462C416.761 721.422 416.495 722.875 416.495 724.822C416.495 726.768 416.761 728.242 417.295 729.242C417.828 730.242 418.535 730.742 419.415 730.742Z" fill="white"/>
<path d="M493.076 724.302C492.622 724.302 492.122 724.448 491.576 724.742C491.029 725.022 490.496 725.515 489.976 726.222C490.056 727.568 490.362 728.662 490.896 729.502C491.429 730.328 492.216 730.742 493.256 730.742C493.749 730.742 494.189 730.602 494.576 730.322C494.962 730.028 495.269 729.642 495.496 729.162C495.722 728.668 495.836 728.115 495.836 727.502C495.836 726.582 495.616 725.822 495.176 725.222C494.749 724.608 494.049 724.302 493.076 724.302ZM493.236 731.502C491.956 731.502 490.936 730.982 490.176 729.942C489.429 728.888 489.056 727.395 489.056 725.462C489.056 724.115 489.182 722.982 489.436 722.062C489.689 721.142 490.036 720.402 490.476 719.842C490.916 719.282 491.416 718.875 491.976 718.622C492.549 718.368 493.142 718.242 493.756 718.242C494.356 718.242 494.869 718.355 495.296 718.582C495.736 718.808 496.122 719.108 496.456 719.482L495.916 720.082C495.636 719.735 495.309 719.475 494.936 719.302C494.562 719.115 494.169 719.022 493.756 719.022C493.076 719.022 492.442 719.222 491.856 719.622C491.282 720.022 490.822 720.682 490.476 721.602C490.129 722.522 489.956 723.762 489.956 725.322C490.396 724.775 490.896 724.342 491.456 724.022C492.016 723.702 492.589 723.542 493.176 723.542C494.296 723.542 495.169 723.882 495.796 724.562C496.422 725.228 496.736 726.208 496.736 727.502C496.736 728.275 496.576 728.962 496.256 729.562C495.936 730.162 495.509 730.635 494.976 730.982C494.456 731.328 493.876 731.502 493.236 731.502ZM499.786 731.502C499.573 731.502 499.373 731.422 499.186 731.262C499.013 731.102 498.926 730.882 498.926 730.602C498.926 730.308 499.013 730.082 499.186 729.922C499.373 729.762 499.573 729.682 499.786 729.682C500.013 729.682 500.206 729.762 500.366 729.922C500.539 730.082 500.626 730.308 500.626 730.602C500.626 730.882 500.539 731.102 500.366 731.262C500.206 731.422 500.013 731.502 499.786 731.502ZM506.741 731.502C505.528 731.502 504.588 730.922 503.921 729.762C503.254 728.602 502.921 726.955 502.921 724.822C502.921 722.702 503.254 721.075 503.921 719.942C504.588 718.808 505.528 718.242 506.741 718.242C507.968 718.242 508.908 718.808 509.561 719.942C510.228 721.075 510.561 722.702 510.561 724.822C510.561 726.955 510.228 728.602 509.561 729.762C508.908 730.922 507.968 731.502 506.741 731.502ZM506.741 730.742C507.634 730.742 508.341 730.242 508.861 729.242C509.394 728.242 509.661 726.768 509.661 724.822C509.661 722.875 509.394 721.422 508.861 720.462C508.341 719.488 507.634 719.002 506.741 719.002C505.861 719.002 505.154 719.488 504.621 720.462C504.088 721.422 503.821 722.875 503.821 724.822C503.821 726.768 504.088 728.242 504.621 729.242C505.154 730.242 505.861 730.742 506.741 730.742Z" fill="white"/>
<path d="M579.882 731.502C579.202 731.502 578.608 731.415 578.102 731.242C577.608 731.068 577.182 730.848 576.822 730.582C576.462 730.315 576.142 730.048 575.862 729.782L576.362 729.162C576.748 729.548 577.208 729.908 577.742 730.242C578.288 730.562 578.995 730.722 579.862 730.722C580.435 730.722 580.962 730.582 581.442 730.302C581.922 730.008 582.308 729.602 582.602 729.082C582.895 728.562 583.042 727.962 583.042 727.282C583.042 726.255 582.755 725.448 582.182 724.862C581.622 724.275 580.868 723.982 579.922 723.982C579.428 723.982 579.002 724.062 578.642 724.222C578.295 724.368 577.928 724.575 577.542 724.842L576.922 724.462L577.382 718.482H583.282V719.262H578.182L577.782 723.882C578.115 723.682 578.462 723.522 578.822 723.402C579.182 723.268 579.595 723.202 580.062 723.202C580.782 723.202 581.435 723.348 582.022 723.642C582.622 723.922 583.095 724.362 583.442 724.962C583.788 725.548 583.962 726.308 583.962 727.242C583.962 728.148 583.762 728.922 583.362 729.562C582.975 730.188 582.468 730.668 581.842 731.002C581.228 731.335 580.575 731.502 579.882 731.502ZM587.112 731.502C586.899 731.502 586.699 731.422 586.512 731.262C586.339 731.102 586.252 730.882 586.252 730.602C586.252 730.308 586.339 730.082 586.512 729.922C586.699 729.762 586.899 729.682 587.112 729.682C587.339 729.682 587.532 729.762 587.692 729.922C587.865 730.082 587.952 730.308 587.952 730.602C587.952 730.882 587.865 731.102 587.692 731.262C587.532 731.422 587.339 731.502 587.112 731.502ZM594.067 731.502C592.854 731.502 591.914 730.922 591.247 729.762C590.58 728.602 590.247 726.955 590.247 724.822C590.247 722.702 590.58 721.075 591.247 719.942C591.914 718.808 592.854 718.242 594.067 718.242C595.294 718.242 596.234 718.808 596.887 719.942C597.554 721.075 597.887 722.702 597.887 724.822C597.887 726.955 597.554 728.602 596.887 729.762C596.234 730.922 595.294 731.502 594.067 731.502ZM594.067 730.742C594.96 730.742 595.667 730.242 596.187 729.242C596.72 728.242 596.987 726.768 596.987 724.822C596.987 722.875 596.72 721.422 596.187 720.462C595.667 719.488 594.96 719.002 594.067 719.002C593.187 719.002 592.48 719.488 591.947 720.462C591.414 721.422 591.147 722.875 591.147 724.822C591.147 726.768 591.414 728.242 591.947 729.242C592.48 730.242 593.187 730.742 594.067 730.742Z" fill="white"/>
<path d="M666.427 726.682H671.227V722.002C671.227 721.708 671.234 721.342 671.247 720.902C671.274 720.462 671.294 720.095 671.307 719.802H671.227C671.067 720.068 670.901 720.328 670.727 720.582C670.554 720.835 670.374 721.108 670.187 721.402L666.427 726.682ZM671.227 731.262V727.442H665.347V726.922L671.287 718.482H672.087V726.682H673.987V727.442H672.087V731.262H671.227ZM676.798 731.502C676.584 731.502 676.384 731.422 676.198 731.262C676.024 731.102 675.938 730.882 675.938 730.602C675.938 730.308 676.024 730.082 676.198 729.922C676.384 729.762 676.584 729.682 676.798 729.682C677.024 729.682 677.218 729.762 677.378 729.922C677.551 730.082 677.638 730.308 677.638 730.602C677.638 730.882 677.551 731.102 677.378 731.262C677.218 731.422 677.024 731.502 676.798 731.502ZM683.753 731.502C682.539 731.502 681.599 730.922 680.933 729.762C680.266 728.602 679.933 726.955 679.933 724.822C679.933 722.702 680.266 721.075 680.933 719.942C681.599 718.808 682.539 718.242 683.753 718.242C684.979 718.242 685.919 718.808 686.573 719.942C687.239 721.075 687.573 722.702 687.573 724.822C687.573 726.955 687.239 728.602 686.573 729.762C685.919 730.922 684.979 731.502 683.753 731.502ZM683.753 730.742C684.646 730.742 685.353 730.242 685.873 729.242C686.406 728.242 686.673 726.768 686.673 724.822C686.673 722.875 686.406 721.422 685.873 720.462C685.353 719.488 684.646 719.002 683.753 719.002C682.873 719.002 682.166 719.488 681.633 720.462C681.099 721.422 680.833 722.875 680.833 724.822C680.833 726.768 681.099 728.242 681.633 729.242C682.166 730.242 682.873 730.742 683.753 730.742Z" fill="white"/>
<path d="M756.994 731.502C756.314 731.502 755.72 731.415 755.214 731.242C754.707 731.055 754.267 730.822 753.894 730.542C753.534 730.262 753.214 729.982 752.934 729.702L753.454 729.082C753.84 729.495 754.307 729.875 754.854 730.222C755.4 730.555 756.114 730.722 756.994 730.722C757.86 730.722 758.574 730.468 759.134 729.962C759.694 729.442 759.974 728.755 759.974 727.902C759.974 727.022 759.627 726.308 758.934 725.762C758.254 725.215 757.114 724.942 755.514 724.942V724.162C756.5 724.162 757.287 724.042 757.874 723.802C758.46 723.548 758.88 723.208 759.134 722.782C759.387 722.355 759.514 721.888 759.514 721.382C759.514 720.662 759.28 720.088 758.814 719.662C758.347 719.222 757.72 719.002 756.934 719.002C756.347 719.002 755.8 719.142 755.294 719.422C754.8 719.688 754.367 720.015 753.994 720.402L753.474 719.802C753.914 719.375 754.414 719.008 754.974 718.702C755.547 718.395 756.2 718.242 756.934 718.242C757.6 718.242 758.194 718.362 758.714 718.602C759.247 718.842 759.667 719.195 759.974 719.662C760.28 720.115 760.434 720.668 760.434 721.322C760.434 722.162 760.2 722.842 759.734 723.362C759.28 723.868 758.7 724.242 757.994 724.482V724.562C758.527 724.668 759.007 724.875 759.434 725.182C759.874 725.475 760.227 725.848 760.494 726.302C760.76 726.755 760.894 727.282 760.894 727.882C760.894 728.615 760.72 729.255 760.374 729.802C760.027 730.348 759.56 730.768 758.974 731.062C758.387 731.355 757.727 731.502 756.994 731.502ZM764.124 731.502C763.91 731.502 763.71 731.422 763.524 731.262C763.35 731.102 763.264 730.882 763.264 730.602C763.264 730.308 763.35 730.082 763.524 729.922C763.71 729.762 763.91 729.682 764.124 729.682C764.35 729.682 764.544 729.762 764.704 729.922C764.877 730.082 764.964 730.308 764.964 730.602C764.964 730.882 764.877 731.102 764.704 731.262C764.544 731.422 764.35 731.502 764.124 731.502ZM771.079 731.502C769.865 731.502 768.925 730.922 768.259 729.762C767.592 728.602 767.259 726.955 767.259 724.822C767.259 722.702 767.592 721.075 768.259 719.942C768.925 718.808 769.865 718.242 771.079 718.242C772.305 718.242 773.245 718.808 773.899 719.942C774.565 721.075 774.899 722.702 774.899 724.822C774.899 726.955 774.565 728.602 773.899 729.762C773.245 730.922 772.305 731.502 771.079 731.502ZM771.079 730.742C771.972 730.742 772.679 730.242 773.199 729.242C773.732 728.242 773.999 726.768 773.999 724.822C773.999 722.875 773.732 721.422 773.199 720.462C772.679 719.488 771.972 719.002 771.079 719.002C770.199 719.002 769.492 719.488 768.959 720.462C768.425 721.422 768.159 722.875 768.159 724.822C768.159 726.768 768.425 728.242 768.959 729.242C769.492 730.242 770.199 730.742 771.079 730.742Z" fill="white"/>
<path d="M842.861 731.262V730.702C844.261 729.275 845.428 728.042 846.361 727.002C847.294 725.948 847.994 725.008 848.461 724.182C848.928 723.355 849.161 722.575 849.161 721.842C849.161 721.042 848.934 720.368 848.481 719.822C848.041 719.275 847.341 719.002 846.381 719.002C845.808 719.002 845.261 719.162 844.741 719.482C844.234 719.802 843.788 720.202 843.401 720.682L842.821 720.122C843.301 719.588 843.834 719.142 844.421 718.782C845.008 718.422 845.688 718.242 846.461 718.242C847.608 718.242 848.494 718.568 849.121 719.222C849.748 719.875 850.061 720.742 850.061 721.822C850.061 722.662 849.814 723.515 849.321 724.382C848.841 725.248 848.161 726.182 847.281 727.182C846.414 728.182 845.388 729.308 844.201 730.562C844.548 730.535 844.901 730.515 845.261 730.502C845.634 730.475 845.994 730.462 846.341 730.462H850.701V731.262H842.861ZM853.811 731.502C853.598 731.502 853.398 731.422 853.211 731.262C853.038 731.102 852.951 730.882 852.951 730.602C852.951 730.308 853.038 730.082 853.211 729.922C853.398 729.762 853.598 729.682 853.811 729.682C854.038 729.682 854.231 729.762 854.391 729.922C854.565 730.082 854.651 730.308 854.651 730.602C854.651 730.882 854.565 731.102 854.391 731.262C854.231 731.422 854.038 731.502 853.811 731.502ZM860.766 731.502C859.553 731.502 858.613 730.922 857.946 729.762C857.28 728.602 856.946 726.955 856.946 724.822C856.946 722.702 857.28 721.075 857.946 719.942C858.613 718.808 859.553 718.242 860.766 718.242C861.993 718.242 862.933 718.808 863.586 719.942C864.253 721.075 864.586 722.702 864.586 724.822C864.586 726.955 864.253 728.602 863.586 729.762C862.933 730.922 861.993 731.502 860.766 731.502ZM860.766 730.742C861.66 730.742 862.366 730.242 862.886 729.242C863.42 728.242 863.686 726.768 863.686 724.822C863.686 722.875 863.42 721.422 862.886 720.462C862.366 719.488 861.66 719.002 860.766 719.002C859.886 719.002 859.18 719.488 858.646 720.462C858.113 721.422 857.846 722.875 857.846 724.822C857.846 726.768 858.113 728.242 858.646 729.242C859.18 730.242 859.886 730.742 860.766 730.742Z" fill="white"/>
<path d="M938.127 731.262V730.482H941.127V719.882H938.847V719.282C939.367 719.188 939.834 719.075 940.247 718.942C940.661 718.808 941.014 718.655 941.307 718.482H942.027V730.482H944.807V731.262H938.127ZM948.218 731.502C948.004 731.502 947.804 731.422 947.618 731.262C947.444 731.102 947.358 730.882 947.358 730.602C947.358 730.308 947.444 730.082 947.618 729.922C947.804 729.762 948.004 729.682 948.218 729.682C948.444 729.682 948.638 729.762 948.798 729.922C948.971 730.082 949.058 730.308 949.058 730.602C949.058 730.882 948.971 731.102 948.798 731.262C948.638 731.422 948.444 731.502 948.218 731.502ZM955.173 731.502C953.959 731.502 953.019 730.922 952.353 729.762C951.686 728.602 951.353 726.955 951.353 724.822C951.353 722.702 951.686 721.075 952.353 719.942C953.019 718.808 953.959 718.242 955.173 718.242C956.399 718.242 957.339 718.808 957.993 719.942C958.659 721.075 958.993 722.702 958.993 724.822C958.993 726.955 958.659 728.602 957.993 729.762C957.339 730.922 956.399 731.502 955.173 731.502ZM955.173 730.742C956.066 730.742 956.773 730.242 957.293 729.242C957.826 728.242 958.093 726.768 958.093 724.822C958.093 722.875 957.826 721.422 957.293 720.462C956.773 719.488 956.066 719.002 955.173 719.002C954.293 719.002 953.586 719.488 953.053 720.462C952.519 721.422 952.253 722.875 952.253 724.822C952.253 726.768 952.519 728.242 953.053 729.242C953.586 730.242 954.293 730.742 955.173 730.742Z" fill="white"/>
<path d="M1025.01 731.502C1023.8 731.502 1022.86 730.922 1022.19 729.762C1021.53 728.602 1021.19 726.955 1021.19 724.822C1021.19 722.702 1021.53 721.075 1022.19 719.942C1022.86 718.808 1023.8 718.242 1025.01 718.242C1026.24 718.242 1027.18 718.808 1027.83 719.942C1028.5 721.075 1028.83 722.702 1028.83 724.822C1028.83 726.955 1028.5 728.602 1027.83 729.762C1027.18 730.922 1026.24 731.502 1025.01 731.502ZM1025.01 730.742C1025.91 730.742 1026.61 730.242 1027.13 729.242C1027.67 728.242 1027.93 726.768 1027.93 724.822C1027.93 722.875 1027.67 721.422 1027.13 720.462C1026.61 719.488 1025.91 719.002 1025.01 719.002C1024.13 719.002 1023.43 719.488 1022.89 720.462C1022.36 721.422 1022.09 722.875 1022.09 724.822C1022.09 726.768 1022.36 728.242 1022.89 729.242C1023.43 730.242 1024.13 730.742 1025.01 730.742Z" fill="white"/>
<path d="M897.205 640.722L904.998 619.581V435.991L907.056 626.628L909.938 628.482L912.819 640.722H916.935V628.482L918.993 621.806V581.379M914.877 216.795L918.993 581.379M944.294 640.722H937.928H934.635L930.93 633.675L928.872 460.469L930.93 628.482V631.82L928.872 640.722L926.814 638.867L922.286 637.013V631.82L918.993 581.379" stroke="#5C48FD" stroke-width="3"/>
<path d="M94.44 82.0349H93.42L93.06 79.9949H89.74L89.74 85.5949H95.78L96.4 82.3349H97.56L97.56 86.7949H85.86L85.86 85.9349L87.74 85.5149L87.74 73.6749L85.86 73.2549L85.86 72.3949H97.12L97.12 76.6349H96.08L95.44 73.5549H89.74L89.74 78.7949H93.06L93.42 76.7549H94.44L94.44 82.0349ZM98.8714 76.9949L98.8714 76.2749L100.811 75.9949L101.071 73.4749L102.751 73.2349L102.751 75.9949H105.311L105.311 76.9949H102.751L102.751 84.1349C102.751 84.5883 102.758 84.9016 102.771 85.0749C102.785 85.2349 102.811 85.3683 102.851 85.4749C102.891 85.5683 102.965 85.6349 103.071 85.6749C103.178 85.7016 103.351 85.7149 103.591 85.7149H104.991L104.991 86.2949C104.351 86.5349 103.785 86.7083 103.291 86.8149C102.811 86.9349 102.425 86.9949 102.131 86.9949C101.531 86.9949 101.145 86.7483 100.971 86.2549C100.918 86.0949 100.878 85.8883 100.851 85.6349C100.825 85.3816 100.811 85.0083 100.811 84.5149L100.811 76.9949H98.8714ZM114.468 85.5949L114.468 81.1349C114.468 80.2683 114.441 79.6216 114.388 79.1949C114.348 78.7683 114.268 78.4349 114.148 78.1949C113.828 77.5416 113.241 77.2149 112.388 77.2149C112.014 77.2149 111.654 77.2816 111.308 77.4149C110.961 77.5483 110.654 77.7283 110.388 77.9549C110.094 78.2083 109.874 78.5149 109.728 78.8749C109.594 79.2216 109.514 79.6549 109.488 80.1749L109.488 85.5949L110.828 85.9749L110.828 86.7949H106.008L106.008 85.9749L107.548 85.5949L107.548 72.3949L106.008 72.0149L106.008 71.1949H109.488L109.488 77.8749C109.888 77.2349 110.414 76.7283 111.068 76.3549C111.734 75.9816 112.448 75.7949 113.208 75.7949C113.741 75.7949 114.221 75.8883 114.648 76.0749C115.074 76.2616 115.414 76.5283 115.668 76.8749C115.934 77.2483 116.121 77.7749 116.228 78.4549C116.348 79.1216 116.408 80.0283 116.408 81.1749L116.408 85.5949L117.948 85.9749L117.948 86.7949H113.128L113.128 85.9749L114.468 85.5949ZM119.139 84.4549C119.139 83.4149 119.626 82.5949 120.599 81.9949C121.572 81.3949 123.186 80.9283 125.439 80.5949C125.386 79.8083 125.312 79.1949 125.219 78.7549C125.126 78.3149 125.006 77.9616 124.859 77.6949C124.672 77.3483 124.412 77.0949 124.079 76.9349C123.746 76.7616 123.386 76.6749 122.999 76.6749C122.626 76.6749 122.286 76.7416 121.979 76.8749C121.686 77.0083 121.486 77.1883 121.379 77.4149C121.566 77.5483 121.699 77.7216 121.779 77.9349C121.872 78.1483 121.919 78.3483 121.919 78.5349C121.919 78.8683 121.806 79.1349 121.579 79.3349C121.366 79.5216 121.099 79.6149 120.779 79.6149C120.459 79.6149 120.192 79.5083 119.979 79.2949C119.779 79.0816 119.679 78.7816 119.679 78.3949C119.679 77.8349 119.872 77.3616 120.259 76.9749C120.646 76.5883 121.132 76.2949 121.719 76.0949C122.319 75.8949 122.919 75.7949 123.519 75.7949C124.066 75.7949 124.566 75.8816 125.019 76.0549C125.486 76.2149 125.879 76.4549 126.199 76.7749C127.026 77.6016 127.439 79.0683 127.439 81.1749L127.439 84.0749C127.439 84.7283 127.479 85.1816 127.559 85.4349C127.652 85.6883 127.846 85.8149 128.139 85.8149H129.039L129.039 86.4149C128.079 86.8016 127.332 86.9949 126.799 86.9949C126.386 86.9949 126.106 86.8483 125.959 86.5549C125.826 86.2483 125.759 85.6683 125.759 84.8149H125.679C125.266 85.4949 124.719 86.0283 124.039 86.4149C123.359 86.8016 122.626 86.9949 121.839 86.9949C120.999 86.9949 120.339 86.7683 119.859 86.3149C119.379 85.8616 119.139 85.2416 119.139 84.4549ZM122.679 85.8349C123.052 85.8349 123.439 85.7416 123.839 85.5549C124.252 85.3549 124.599 85.0816 124.879 84.7349C125.092 84.4683 125.246 84.1549 125.339 83.7949C125.446 83.4216 125.499 82.9883 125.499 82.4949C125.499 82.2683 125.492 82.0483 125.479 81.8349C125.466 81.6083 125.446 81.3949 125.419 81.1949C124.339 81.4083 123.492 81.6416 122.879 81.8949C122.266 82.1349 121.832 82.4283 121.579 82.7749C121.326 83.1083 121.199 83.5283 121.199 84.0349C121.199 84.6083 121.326 85.0549 121.579 85.3749C121.846 85.6816 122.212 85.8349 122.679 85.8349ZM131.381 85.5949L131.381 77.1949L129.841 76.8149L129.841 75.9949H132.721L133.161 77.9949H133.241C133.641 77.3149 134.181 76.7816 134.861 76.3949C135.541 75.9949 136.268 75.7949 137.041 75.7949C138.148 75.7949 138.968 76.1549 139.501 76.8749C139.768 77.2483 139.954 77.7749 140.061 78.4549C140.181 79.1216 140.241 80.0283 140.241 81.1749L140.241 85.5949L141.781 85.9749L141.781 86.7949L136.961 86.7949L136.961 85.9749L138.301 85.5949L138.301 81.1349C138.301 80.2683 138.274 79.6216 138.221 79.1949C138.181 78.7683 138.101 78.4349 137.981 78.1949C137.821 77.8749 137.588 77.6349 137.281 77.4749C136.988 77.3016 136.634 77.2149 136.221 77.2149C135.448 77.2149 134.781 77.4616 134.221 77.9549C133.674 78.4483 133.374 79.2149 133.321 80.2549L133.321 85.5949L134.661 85.9749L134.661 86.7949H129.841L129.841 85.9749L131.381 85.5949ZM152.947 81.2949C152.947 82.1616 152.813 82.9883 152.547 83.7749C152.293 84.5483 151.933 85.1883 151.467 85.6949C151.067 86.1349 150.573 86.4616 149.987 86.6749C149.4 86.8883 148.733 86.9949 147.987 86.9949C147.253 86.9949 146.6 86.8949 146.027 86.6949C145.453 86.4816 144.967 86.1616 144.567 85.7349C144.113 85.2416 143.76 84.6349 143.507 83.9149C143.267 83.1816 143.147 82.3883 143.147 81.5349C143.147 80.6683 143.273 79.8416 143.527 79.0549C143.78 78.2549 144.147 77.6016 144.627 77.0949C145.053 76.6416 145.547 76.3149 146.107 76.1149C146.68 75.9016 147.333 75.7949 148.067 75.7949C148.8 75.7949 149.46 75.9016 150.047 76.1149C150.633 76.3149 151.127 76.6283 151.527 77.0549C151.993 77.5483 152.347 78.1683 152.587 78.9149C152.827 79.6483 152.947 80.4416 152.947 81.2949ZM145.287 81.3149C145.287 82.1283 145.347 82.8349 145.467 83.4349C145.6 84.0216 145.78 84.5083 146.007 84.8949C146.233 85.2283 146.5 85.4883 146.807 85.6749C147.127 85.8616 147.54 85.9549 148.047 85.9549C148.967 85.9549 149.653 85.6416 150.107 85.0149C150.347 84.6683 150.52 84.1883 150.627 83.5749C150.747 82.9616 150.807 82.2549 150.807 81.4549C150.807 80.6549 150.74 79.9549 150.607 79.3549C150.487 78.7549 150.313 78.2683 150.087 77.8949C149.873 77.5483 149.6 77.2883 149.267 77.1149C148.947 76.9283 148.533 76.8349 148.027 76.8349C147.093 76.8349 146.42 77.1416 146.007 77.7549C145.527 78.5016 145.287 79.6883 145.287 81.3149ZM155.967 85.5949L155.967 72.3949L154.427 72.0149L154.427 71.1949H157.907L157.907 85.5949L159.447 85.9749L159.447 86.7949H154.427L154.427 85.9749L155.967 85.5949Z" fill="white"/>
<path d="M114.88 615.055L126.72 615.055L127.14 613.175L128 613.175L128 618.935L127.14 618.935L126.72 617.055L114.88 617.055L114.46 618.935L113.6 618.935L113.6 613.175L114.46 613.175L114.88 615.055ZM126.8 610.054L118.4 610.054L118.02 611.594L117.2 611.594L117.2 608.714L119.2 608.274L119.2 608.194C118.52 607.794 117.987 607.254 117.6 606.574C117.2 605.894 117 605.168 117 604.394C117 603.288 117.36 602.468 118.08 601.934C118.453 601.668 118.98 601.481 119.66 601.374C120.327 601.254 121.233 601.194 122.38 601.194L126.8 601.194L127.18 599.654L128 599.654L128 604.474L127.18 604.474L126.8 603.134L122.34 603.134C121.473 603.134 120.827 603.161 120.4 603.214C119.973 603.254 119.64 603.334 119.4 603.454C119.08 603.614 118.84 603.848 118.68 604.154C118.507 604.448 118.42 604.801 118.42 605.214C118.42 605.988 118.667 606.654 119.16 607.214C119.653 607.761 120.42 608.061 121.46 608.114L126.8 608.114L127.18 606.774L128 606.774L128 611.594L127.18 611.594L126.8 610.054ZM118.2 599.029L117.48 599.029L117.2 597.089L114.68 596.829L114.44 595.149L117.2 595.149L117.2 592.589L118.2 592.589L118.2 595.149L125.34 595.149C125.793 595.149 126.107 595.142 126.28 595.129C126.44 595.116 126.573 595.089 126.68 595.049C126.773 595.009 126.84 594.936 126.88 594.829C126.907 594.722 126.92 594.549 126.92 594.309L126.92 592.909L127.5 592.909C127.74 593.549 127.913 594.116 128.02 594.609C128.14 595.089 128.2 595.476 128.2 595.769C128.2 596.369 127.953 596.756 127.46 596.929C127.3 596.982 127.093 597.022 126.84 597.049C126.587 597.076 126.213 597.089 125.72 597.089L118.2 597.089L118.2 599.029ZM122.72 582.453L122.72 589.433C123.693 589.433 124.5 589.299 125.14 589.033C125.753 588.766 126.193 588.386 126.46 587.893C126.727 587.399 126.86 586.866 126.86 586.293C126.86 585.666 126.733 585.093 126.48 584.573C126.213 584.053 125.853 583.586 125.4 583.173L125.88 582.533C126.52 582.999 127.067 583.566 127.52 584.233C127.973 584.899 128.2 585.759 128.2 586.813C128.2 587.733 128.007 588.546 127.62 589.253C127.22 589.959 126.64 590.499 125.88 590.873C125.467 591.073 125.007 591.219 124.5 591.313C123.993 591.406 123.453 591.453 122.88 591.453C121.013 591.453 119.567 591.026 118.54 590.173C117.513 589.306 117 588.133 117 586.653C117 585.293 117.427 584.246 118.28 583.513C119.12 582.766 120.287 582.393 121.78 582.393C121.913 582.393 122.04 582.399 122.16 582.413C122.267 582.413 122.453 582.426 122.72 582.453ZM118.08 586.773C118.08 588.373 119.3 589.253 121.74 589.413L121.74 584.413L121.08 584.413C120.12 584.413 119.38 584.619 118.86 585.033C118.34 585.433 118.08 586.013 118.08 586.773ZM126.8 579.254L118.4 579.254L118.02 580.794L117.2 580.794L117.2 577.914L119.2 577.474L119.2 577.394C118.52 576.994 117.987 576.454 117.6 575.774C117.2 575.094 117 574.367 117 573.594C117 572.487 117.36 571.667 118.08 571.134C118.453 570.867 118.98 570.68 119.66 570.574C120.327 570.454 121.233 570.394 122.38 570.394L126.8 570.394L127.18 568.854L128 568.854L128 573.674L127.18 573.674L126.8 572.334L122.34 572.334C121.473 572.334 120.827 572.36 120.4 572.414C119.973 572.454 119.64 572.534 119.4 572.654C119.08 572.814 118.84 573.047 118.68 573.354C118.507 573.647 118.42 574 118.42 574.414C118.42 575.187 118.667 575.854 119.16 576.414C119.653 576.96 120.42 577.26 121.46 577.314L126.8 577.314L127.18 575.974L128 575.974L128 580.794L127.18 580.794L126.8 579.254ZM127.28 563.528C127.28 562.782 127.127 562.175 126.82 561.708C126.513 561.228 126.087 560.988 125.54 560.988C125.1 560.988 124.747 561.135 124.48 561.428C124.213 561.722 124 562.088 123.84 562.528C123.667 562.955 123.52 563.388 123.4 563.828C123.227 564.375 123.027 564.902 122.8 565.408C122.56 565.915 122.233 566.328 121.82 566.648C121.407 566.968 120.86 567.128 120.18 567.128C119.22 567.128 118.453 566.782 117.88 566.088C117.293 565.382 117 564.402 117 563.148C117 562.082 117.227 561.242 117.68 560.628C118.12 560.002 118.727 559.688 119.5 559.688C119.913 559.688 120.247 559.782 120.5 559.968C120.74 560.155 120.86 560.422 120.86 560.768C120.86 561.075 120.767 561.328 120.58 561.528C120.393 561.728 120.153 561.828 119.86 561.828C119.607 561.828 119.38 561.762 119.18 561.628C118.967 561.495 118.813 561.322 118.72 561.108C118.44 561.308 118.24 561.568 118.12 561.888C117.987 562.195 117.92 562.595 117.92 563.088C117.92 563.888 118.067 564.488 118.36 564.888C118.64 565.288 119.06 565.488 119.62 565.488C120.02 565.488 120.34 565.395 120.58 565.208C120.807 565.008 121 564.722 121.16 564.348C121.32 563.975 121.487 563.515 121.66 562.968C121.793 562.515 121.947 562.068 122.12 561.628C122.28 561.188 122.48 560.788 122.72 560.428C122.96 560.068 123.26 559.782 123.62 559.568C123.98 559.355 124.427 559.248 124.96 559.248C125.64 559.248 126.227 559.435 126.72 559.808C127.2 560.182 127.567 560.695 127.82 561.348C128.073 562.002 128.2 562.755 128.2 563.608C128.2 564.782 127.96 565.728 127.48 566.448C127 567.168 126.353 567.528 125.54 567.528C125.113 567.528 124.78 567.435 124.54 567.248C124.287 567.048 124.16 566.768 124.16 566.408C124.16 566.088 124.253 565.822 124.44 565.608C124.627 565.382 124.873 565.268 125.18 565.268C125.433 565.268 125.673 565.342 125.9 565.488C126.127 565.622 126.293 565.788 126.4 565.988C126.653 565.815 126.867 565.508 127.04 565.068C127.2 564.615 127.28 564.102 127.28 563.528ZM118.4 556.09L118.02 557.63L117.2 557.63L117.2 554.15L126.8 554.15L127.18 552.61L128 552.61L128 557.63L127.18 557.63L126.8 556.09L118.4 556.09ZM113.98 556.37C113.593 556.37 113.287 556.256 113.06 556.03C112.833 555.803 112.72 555.503 112.72 555.13C112.72 554.743 112.833 554.436 113.06 554.21C113.287 553.983 113.593 553.87 113.98 553.87C114.353 553.87 114.653 553.983 114.88 554.21C115.107 554.436 115.22 554.743 115.22 555.13C115.22 555.516 115.113 555.823 114.9 556.05C114.673 556.263 114.367 556.37 113.98 556.37ZM118.2 551.939L117.48 551.939L117.2 549.999L114.68 549.739L114.44 548.059L117.2 548.059L117.2 545.499L118.2 545.499L118.2 548.059L125.34 548.059C125.793 548.059 126.107 548.052 126.28 548.039C126.44 548.026 126.573 547.999 126.68 547.959C126.773 547.919 126.84 547.846 126.88 547.739C126.907 547.632 126.92 547.459 126.92 547.219L126.92 545.819L127.5 545.819C127.74 546.459 127.913 547.026 128.02 547.519C128.14 547.999 128.2 548.386 128.2 548.679C128.2 549.279 127.953 549.666 127.46 549.839C127.3 549.892 127.093 549.932 126.84 549.959C126.587 549.986 126.213 549.999 125.72 549.999L118.2 549.999L118.2 551.939ZM118.4 535.023L127.52 538.343C128.547 538.716 129.373 539.056 130 539.363C130.64 539.669 131.1 540.009 131.38 540.383C131.66 540.756 131.8 541.236 131.8 541.823C131.8 542.449 131.633 542.989 131.3 543.443C130.967 543.883 130.547 544.103 130.04 544.103C129.667 544.103 129.353 543.996 129.1 543.783C128.86 543.569 128.74 543.289 128.74 542.943C128.74 542.636 128.82 542.396 128.98 542.223C129.153 542.036 129.387 541.943 129.68 541.943C129.867 541.943 130.047 541.983 130.22 542.063C130.393 542.129 130.547 542.223 130.68 542.343C130.813 542.316 130.9 542.236 130.94 542.103C130.993 541.969 131.02 541.856 131.02 541.763C131.02 541.576 130.973 541.403 130.88 541.243C130.787 541.083 130.587 540.916 130.28 540.743C129.987 540.556 129.52 540.356 128.88 540.143L128.14 539.903L118.4 544.043L118.02 545.243L117.2 545.243L117.2 540.763L118.02 540.603L118.4 542.023L126.24 539.043L126.24 538.963L118.4 536.443L118.02 537.603L117.2 537.603L117.2 533.803L118.02 533.803L118.4 535.023Z" fill="#C3FA50"/>
<path d="M574.241 829.085C574.241 830.471 574.381 831.751 574.661 832.925C574.941 834.098 575.335 835.138 575.841 836.045C576.348 836.938 576.948 837.665 577.641 838.225C578.335 838.785 579.101 839.151 579.941 839.325L580.461 838.225C579.621 838.051 578.881 837.565 578.241 836.765C577.615 835.965 577.128 834.911 576.781 833.605C576.435 832.298 576.261 830.805 576.261 829.125C576.261 827.458 576.441 825.965 576.801 824.645C577.161 823.311 577.661 822.225 578.301 821.385C578.955 820.545 579.708 820.025 580.561 819.825L580.141 818.845C579.261 819.058 578.455 819.465 577.721 820.065C577.001 820.665 576.381 821.418 575.861 822.325C575.341 823.231 574.941 824.258 574.661 825.405C574.381 826.538 574.241 827.765 574.241 829.085ZM584.763 838.545L586.703 838.925V839.745H581.283V838.925L582.823 838.545V826.545L581.283 826.165V825.345H584.163L584.463 826.885C584.89 826.218 585.37 825.765 585.903 825.525C586.45 825.271 587.063 825.145 587.743 825.145C588.423 825.145 589.037 825.245 589.583 825.445C590.143 825.645 590.597 825.965 590.943 826.405C591.343 826.911 591.657 827.525 591.883 828.245C592.123 828.951 592.243 829.718 592.243 830.545C592.243 831.398 592.11 832.205 591.843 832.965C591.59 833.711 591.243 834.338 590.803 834.845C590.057 835.711 588.983 836.145 587.583 836.145C587.01 836.145 586.49 836.038 586.023 835.825C585.57 835.598 585.15 835.211 584.763 834.665V838.545ZM584.743 830.565C584.743 831.351 584.803 832.038 584.923 832.625C585.043 833.211 585.217 833.685 585.443 834.045C585.657 834.378 585.917 834.638 586.223 834.825C586.543 835.011 586.95 835.105 587.443 835.105C587.897 835.105 588.29 835.025 588.623 834.865C588.97 834.691 589.25 834.458 589.463 834.165C589.703 833.831 589.877 833.365 589.983 832.765C590.09 832.165 590.143 831.478 590.143 830.705C590.143 829.918 590.083 829.238 589.963 828.665C589.843 828.091 589.67 827.618 589.443 827.245C589.23 826.898 588.963 826.638 588.643 826.465C588.337 826.278 587.93 826.185 587.423 826.185C586.97 826.185 586.57 826.265 586.223 826.425C585.89 826.571 585.63 826.798 585.443 827.105C585.23 827.465 585.057 827.938 584.923 828.525C584.803 829.098 584.743 829.778 584.743 830.565ZM597.146 838.545L599.086 838.925V839.745H593.666V838.925L595.206 838.545V826.545L593.666 826.165V825.345H596.546L596.846 826.885C597.273 826.218 597.753 825.765 598.286 825.525C598.833 825.271 599.446 825.145 600.126 825.145C600.806 825.145 601.419 825.245 601.966 825.445C602.526 825.645 602.979 825.965 603.326 826.405C603.726 826.911 604.039 827.525 604.266 828.245C604.506 828.951 604.626 829.718 604.626 830.545C604.626 831.398 604.493 832.205 604.226 832.965C603.973 833.711 603.626 834.338 603.186 834.845C602.439 835.711 601.366 836.145 599.966 836.145C599.393 836.145 598.873 836.038 598.406 835.825C597.953 835.598 597.533 835.211 597.146 834.665V838.545ZM597.126 830.565C597.126 831.351 597.186 832.038 597.306 832.625C597.426 833.211 597.599 833.685 597.826 834.045C598.039 834.378 598.299 834.638 598.606 834.825C598.926 835.011 599.333 835.105 599.826 835.105C600.279 835.105 600.673 835.025 601.006 834.865C601.353 834.691 601.633 834.458 601.846 834.165C602.086 833.831 602.259 833.365 602.366 832.765C602.473 832.165 602.526 831.478 602.526 830.705C602.526 829.918 602.466 829.238 602.346 828.665C602.226 828.091 602.053 827.618 601.826 827.245C601.613 826.898 601.346 826.638 601.026 826.465C600.719 826.278 600.313 826.185 599.806 826.185C599.353 826.185 598.953 826.265 598.606 826.425C598.273 826.571 598.013 826.798 597.826 827.105C597.613 827.465 597.439 827.938 597.306 828.525C597.186 829.098 597.126 829.778 597.126 830.565ZM607.809 834.945V826.545L606.269 826.165V825.345H609.149L609.589 827.345H609.669C610.055 826.678 610.569 826.145 611.209 825.745C611.862 825.345 612.555 825.145 613.289 825.145C613.835 825.145 614.322 825.251 614.749 825.465C615.175 825.665 615.489 825.918 615.689 826.225C615.902 826.558 616.075 826.998 616.209 827.545C616.635 826.798 617.189 826.211 617.869 825.785C618.549 825.358 619.275 825.145 620.049 825.145C620.582 825.145 621.062 825.251 621.489 825.465C621.915 825.665 622.242 825.945 622.469 826.305C622.629 826.558 622.755 826.885 622.849 827.285C622.942 827.685 623.009 828.205 623.049 828.845C623.089 829.471 623.109 830.271 623.109 831.245V834.945L624.649 835.325V836.145H619.829V835.325L621.169 834.945V830.485C621.169 829.618 621.142 828.971 621.089 828.545C621.049 828.118 620.969 827.785 620.849 827.545C620.689 827.225 620.462 826.985 620.169 826.825C619.889 826.651 619.555 826.565 619.169 826.565C618.835 826.565 618.509 826.631 618.189 826.765C617.869 826.898 617.582 827.078 617.329 827.305C617.035 827.571 616.815 827.885 616.669 828.245C616.535 828.605 616.455 829.058 616.429 829.605V834.945L617.769 835.325V836.145H613.149V835.325L614.489 834.945V830.485C614.489 829.618 614.462 828.971 614.409 828.545C614.369 828.118 614.289 827.785 614.169 827.545C614.009 827.225 613.782 826.985 613.489 826.825C613.209 826.651 612.875 826.565 612.489 826.565C612.155 826.565 611.829 826.631 611.509 826.765C611.189 826.898 610.902 827.078 610.649 827.305C610.355 827.571 610.135 827.885 609.989 828.245C609.855 828.605 609.775 829.058 609.749 829.605V834.945L611.089 835.325V836.145H606.269V835.325L607.809 834.945ZM630.995 829.085C630.995 827.765 630.855 826.538 630.575 825.405C630.295 824.258 629.895 823.231 629.375 822.325C628.855 821.418 628.228 820.665 627.495 820.065C626.775 819.465 625.975 819.058 625.095 818.845L624.675 819.825C625.542 820.025 626.295 820.545 626.935 821.385C627.575 822.225 628.075 823.311 628.435 824.645C628.795 825.965 628.975 827.458 628.975 829.125C628.975 830.805 628.795 832.298 628.435 833.605C628.088 834.911 627.602 835.965 626.975 836.765C626.348 837.565 625.615 838.051 624.775 838.225L625.295 839.325C626.135 839.151 626.902 838.785 627.595 838.225C628.288 837.665 628.888 836.938 629.395 836.045C629.902 835.138 630.295 834.098 630.575 832.925C630.855 831.751 630.995 830.471 630.995 829.085Z" fill="white"/>
<path d="M546.842 824.934C546.842 824.096 547.171 823.424 547.829 822.917C548.487 822.406 549.399 822.15 550.563 822.15C551.075 822.15 551.532 822.193 551.934 822.278C552.341 822.363 552.765 822.491 553.205 822.662V824.338C552.921 824.224 552.535 824.101 552.048 823.968C551.56 823.836 551.075 823.77 550.592 823.77C550.024 823.77 549.588 823.878 549.285 824.096C548.982 824.309 548.83 824.584 548.83 824.92C548.83 825.091 548.885 825.275 548.994 825.474C549.107 825.673 549.318 825.879 549.626 826.092C549.938 826.305 550.393 826.52 550.99 826.738C552.424 827.25 553.468 827.96 554.122 828.869C554.78 829.778 555.109 830.886 555.109 832.193V832.392C555.109 833.367 554.919 834.245 554.541 835.027C554.167 835.808 553.627 836.426 552.921 836.88C552.221 837.335 551.378 837.562 550.393 837.562C549.389 837.562 548.532 837.335 547.822 836.88C547.116 836.426 546.577 835.808 546.203 835.027C545.833 834.245 545.649 833.367 545.649 832.392V832.193C545.649 831.435 545.793 830.742 546.082 830.112C546.371 829.482 546.757 828.954 547.24 828.528C547.722 828.102 548.253 827.818 548.83 827.676V827.619C548.22 827.377 547.734 827.027 547.374 826.568C547.019 826.109 546.842 825.564 546.842 824.934ZM547.609 832.193V832.392C547.609 833.045 547.706 833.646 547.9 834.196C548.099 834.74 548.402 835.178 548.809 835.51C549.221 835.836 549.749 836 550.393 836C551.027 836 551.548 835.836 551.955 835.51C552.363 835.178 552.663 834.74 552.857 834.196C553.052 833.646 553.149 833.045 553.149 832.392V832.193C553.149 831.663 553.035 831.139 552.808 830.623C552.58 830.102 552.261 829.653 551.849 829.274C551.437 828.89 550.952 828.642 550.393 828.528C549.749 828.528 549.221 828.699 548.809 829.039C548.402 829.376 548.099 829.823 547.9 830.382C547.706 830.936 547.609 831.539 547.609 832.193Z" fill="white"/>
<path d="M872.474 75.1666C872.474 76.5532 872.614 77.8332 872.894 79.0066C873.174 80.1799 873.567 81.2199 874.074 82.1266C874.58 83.0199 875.18 83.7466 875.874 84.3066C876.567 84.8666 877.334 85.2332 878.174 85.4066L878.694 84.3066C877.854 84.1332 877.114 83.6466 876.474 82.8466C875.847 82.0466 875.36 80.9932 875.014 79.6866C874.667 78.3799 874.494 76.8866 874.494 75.2066C874.494 73.5399 874.674 72.0466 875.034 70.7266C875.394 69.3932 875.894 68.3066 876.534 67.4666C877.187 66.6266 877.94 66.1066 878.794 65.9066L878.374 64.9266C877.494 65.1399 876.687 65.5466 875.954 66.1466C875.234 66.7466 874.614 67.4999 874.094 68.4066C873.574 69.3132 873.174 70.3399 872.894 71.4866C872.614 72.6199 872.474 73.8466 872.474 75.1666ZM878.395 72.4266V71.7066L880.335 71.4266L880.595 68.9066L882.275 68.6666V71.4266H884.835V72.4266H882.275V79.5666C882.275 80.0199 882.282 80.3332 882.295 80.5066C882.308 80.6666 882.335 80.7999 882.375 80.9066C882.415 80.9999 882.488 81.0666 882.595 81.1066C882.702 81.1332 882.875 81.1466 883.115 81.1466H884.515V81.7266C883.875 81.9666 883.308 82.1399 882.815 82.2466C882.335 82.3666 881.948 82.4266 881.655 82.4266C881.055 82.4266 880.668 82.1799 880.495 81.6866C880.442 81.5266 880.402 81.3199 880.375 81.0666C880.348 80.8132 880.335 80.4399 880.335 79.9466V72.4266H878.395ZM891.771 72.5866C891.718 72.5466 891.651 72.5199 891.571 72.5066C891.505 72.4799 891.438 72.4666 891.371 72.4666C891.211 72.4666 891.038 72.5399 890.851 72.6866C890.665 72.8332 890.485 73.0332 890.311 73.2866C890.138 73.5266 889.978 73.8066 889.831 74.1266C889.645 74.5799 889.498 75.0799 889.391 75.6266C889.285 76.1599 889.231 76.7132 889.231 77.2866V81.0266L891.391 81.4066V82.2266H885.751V81.4066L887.291 81.0266V72.6266L885.751 72.2466V71.4266H888.631L889.071 74.0666H889.151C889.458 73.1599 889.871 72.4599 890.391 71.9666C890.911 71.4732 891.485 71.2266 892.111 71.2266C892.631 71.2266 893.065 71.3932 893.411 71.7266C893.758 72.0466 893.931 72.4799 893.931 73.0266C893.931 73.4266 893.825 73.7466 893.611 73.9866C893.411 74.2132 893.138 74.3266 892.791 74.3266C892.445 74.3266 892.171 74.2199 891.971 74.0066C891.771 73.7799 891.671 73.4866 891.671 73.1266C891.671 73.0466 891.678 72.9732 891.691 72.9066C891.705 72.8266 891.731 72.7199 891.771 72.5866ZM896.451 72.6266L894.911 72.2466V71.4266H898.391V81.0266L899.931 81.4066V82.2266H894.911V81.4066L896.451 81.0266V72.6266ZM896.171 68.2066C896.171 67.8199 896.285 67.5132 896.511 67.2866C896.738 67.0599 897.038 66.9466 897.411 66.9466C897.798 66.9466 898.105 67.0599 898.331 67.2866C898.558 67.5132 898.671 67.8199 898.671 68.2066C898.671 68.5799 898.558 68.8799 898.331 69.1066C898.105 69.3332 897.798 69.4466 897.411 69.4466C897.025 69.4466 896.718 69.3399 896.491 69.1266C896.278 68.8999 896.171 68.5932 896.171 68.2066ZM904.402 84.6266L906.342 85.0066V85.8266H900.922V85.0066L902.462 84.6266V72.6266L900.922 72.2466V71.4266H903.802L904.102 72.9666C904.529 72.2999 905.009 71.8466 905.542 71.6066C906.089 71.3532 906.702 71.2266 907.382 71.2266C908.062 71.2266 908.675 71.3266 909.222 71.5266C909.782 71.7266 910.235 72.0466 910.582 72.4866C910.982 72.9932 911.295 73.6066 911.522 74.3266C911.762 75.0332 911.882 75.7999 911.882 76.6266C911.882 77.4799 911.749 78.2866 911.482 79.0466C911.229 79.7932 910.882 80.4199 910.442 80.9266C909.695 81.7932 908.622 82.2266 907.222 82.2266C906.649 82.2266 906.129 82.1199 905.662 81.9066C905.209 81.6799 904.789 81.2932 904.402 80.7466V84.6266ZM904.382 76.6466C904.382 77.4332 904.442 78.1199 904.562 78.7066C904.682 79.2932 904.855 79.7666 905.082 80.1266C905.295 80.4599 905.555 80.7199 905.862 80.9066C906.182 81.0932 906.589 81.1866 907.082 81.1866C907.535 81.1866 907.929 81.1066 908.262 80.9466C908.609 80.7732 908.889 80.5399 909.102 80.2466C909.342 79.9132 909.515 79.4466 909.622 78.8466C909.729 78.2466 909.782 77.5599 909.782 76.7866C909.782 75.9999 909.722 75.3199 909.602 74.7466C909.482 74.1732 909.309 73.6999 909.082 73.3266C908.869 72.9799 908.602 72.7199 908.282 72.5466C907.975 72.3599 907.569 72.2666 907.062 72.2666C906.609 72.2666 906.209 72.3466 905.862 72.5066C905.529 72.6532 905.269 72.8799 905.082 73.1866C904.869 73.5466 904.695 74.0199 904.562 74.6066C904.442 75.1799 904.382 75.8599 904.382 76.6466ZM914.905 81.0266V67.8266L913.365 67.4466V66.6266H916.845V81.0266L918.385 81.4066V82.2266H913.365V81.4066L914.905 81.0266ZM928.897 76.9466H921.917C921.917 77.9199 922.05 78.7266 922.317 79.3666C922.584 79.9799 922.964 80.4199 923.457 80.6866C923.95 80.9532 924.484 81.0866 925.057 81.0866C925.684 81.0866 926.257 80.9599 926.777 80.7066C927.297 80.4399 927.764 80.0799 928.177 79.6266L928.817 80.1066C928.35 80.7466 927.784 81.2932 927.117 81.7466C926.45 82.1999 925.59 82.4266 924.537 82.4266C923.617 82.4266 922.804 82.2332 922.097 81.8466C921.39 81.4466 920.85 80.8666 920.477 80.1066C920.277 79.6932 920.13 79.2332 920.037 78.7266C919.944 78.2199 919.897 77.6799 919.897 77.1066C919.897 75.2399 920.324 73.7932 921.177 72.7666C922.044 71.7399 923.217 71.2266 924.697 71.2266C926.057 71.2266 927.104 71.6532 927.837 72.5066C928.584 73.3466 928.957 74.5132 928.957 76.0066C928.957 76.1399 928.95 76.2666 928.937 76.3866C928.937 76.4932 928.924 76.6799 928.897 76.9466ZM924.577 72.3066C922.977 72.3066 922.097 73.5266 921.937 75.9666H926.937V75.3066C926.937 74.3466 926.73 73.6066 926.317 73.0866C925.917 72.5666 925.337 72.3066 924.577 72.3066ZM930.016 72.4266V71.7066L931.956 71.4266L932.216 68.9066L933.896 68.6666V71.4266H936.456V72.4266H933.896V79.5666C933.896 80.0199 933.903 80.3332 933.916 80.5066C933.929 80.6666 933.956 80.7999 933.996 80.9066C934.036 80.9999 934.109 81.0666 934.216 81.1066C934.323 81.1332 934.496 81.1466 934.736 81.1466H936.136V81.7266C935.496 81.9666 934.929 82.1399 934.436 82.2466C933.956 82.3666 933.569 82.4266 933.276 82.4266C932.676 82.4266 932.289 82.1799 932.116 81.6866C932.063 81.5266 932.023 81.3199 931.996 81.0666C931.969 80.8132 931.956 80.4399 931.956 79.9466V72.4266H930.016ZM942.645 75.1666C942.645 73.8466 942.505 72.6199 942.225 71.4866C941.945 70.3399 941.545 69.3132 941.025 68.4066C940.505 67.4999 939.879 66.7466 939.145 66.1466C938.425 65.5466 937.625 65.1399 936.745 64.9266L936.325 65.9066C937.192 66.1066 937.945 66.6266 938.585 67.4666C939.225 68.3066 939.725 69.3932 940.085 70.7266C940.445 72.0466 940.625 73.5399 940.625 75.2066C940.625 76.8866 940.445 78.3799 940.085 79.6866C939.739 80.9932 939.252 82.0466 938.625 82.8466C937.999 83.6466 937.265 84.1332 936.425 84.3066L936.945 85.4066C937.785 85.2332 938.552 84.8666 939.245 84.3066C939.939 83.7466 940.539 83.0199 941.045 82.1266C941.552 81.2199 941.945 80.1799 942.225 79.0066C942.505 77.8332 942.645 76.5532 942.645 75.1666Z" fill="#5C48FD"/>
<defs>
<filter id="filter0_d_794_6877" x="139" y="487.795" width="888" height="161.5" filterUnits="userSpaceOnUse" color-interpolation-filters="sRGB">
<feFlood flood-opacity="0" result="BackgroundImageFix"/>
<feColorMatrix in="SourceAlpha" type="matrix" values="0 0 0 0 0 0 0 0 0 0 0 0 0 0 0 0 0 0 127 0" result="hardAlpha"/>
<feOffset dy="4"/>
<feGaussianBlur stdDeviation="2"/>
<feComposite in2="hardAlpha" operator="out"/>
<feColorMatrix type="matrix" values="0 0 0 0 0 0 0 0 0 0 0 0 0 0 0 0 0 0 0.25 0"/>
<feBlend mode="normal" in2="BackgroundImageFix" result="effect1_dropShadow_794_6877"/>
<feBlend mode="normal" in="SourceGraphic" in2="effect1_dropShadow_794_6877" result="shape"/>
</filter>
</defs>
</svg>
